<?xml version="1.0" encoding="UTF-8"?>
<svg width="30px" height="2px" viewBox="0 0 30 2" version="1.1" xmlns="http://www.w3.org/2000/svg" xmlns:xlink="http://www.w3.org/1999/xlink">
    <!-- Generator: Sketch 62 (91390) - https://sketch.com -->
    <title>Line</title>
    <desc>Created with Sketch.</desc>
    <g id="Home-Page" stroke="none" stroke-width="1" fill="none" fill-rule="evenodd">
        <g id="HP-v1-2" transform="translate(-880.000000, -6047.000000)" fill="#9D9D9D" fill-rule="nonzero">
            <g id="Group-2" transform="translate(254.000000, 6041.000000)">
                <g id="Section:-Collaboration" transform="translate(501.000000, 0.500000)">
                    <g id="Strapline">
                        <path d="M125.5,7 L126.5,7 C126.776142,7 127,6.77614237 127,6.5 C127,6.22385763 126.776142,6 126.5,6 L125.5,6 C125.223858,6 125,6.22385763 125,6.5 C125,6.77614237 125.223858,7 125.5,7 Z M132.5,7 L133.5,7 C133.776142,7 134,6.77614237 134,6.5 C134,6.22385763 133.776142,6 133.5,6 L132.5,6 C132.223858,6 132,6.22385763 132,6.5 C132,6.77614237 132.223858,7 132.5,7 Z M139.5,7 L140.5,7 C140.776142,7 141,6.77614237 141,6.5 C141,6.22385763 140.776142,6 140.5,6 L139.5,6 C139.223858,6 139,6.22385763 139,6.5 C139,6.77614237 139.223858,7 139.5,7 Z M146.5,7 L147.5,7 C147.776142,7 148,6.77614237 148,6.5 C148,6.22385763 147.776142,6 147.5,6 L146.5,6 C146.223858,6 146,6.22385763 146,6.5 C146,6.77614237 146.223858,7 146.5,7 Z M153.5,7 L154.5,7 C154.776142,7 155,6.77614237 155,6.5 C155,6.22385763 154.776142,6 154.5,6 L153.5,6 C153.223858,6 153,6.22385763 153,6.5 C153,6.77614237 153.223858,7 153.5,7 Z" id="Line"></path>
                    </g>
                </g>
            </g>
        </g>
    </g>
</svg>