<?xml version="1.0" encoding="UTF-8"?>
<svg width="81px" height="12px" viewBox="0 0 81 12" version="1.1" xmlns="http://www.w3.org/2000/svg" xmlns:xlink="http://www.w3.org/1999/xlink">
    <title>◆ Logo Copy 2</title>
    <g id="Symbols" stroke="none" stroke-width="1" fill="none" fill-rule="evenodd">
        <g id="◆-Logo-Copy-2" transform="translate(0.020341, 0.000000)" fill="#384350" fill-rule="nonzero">
            <path d="M53.9054862,0.00837436259 C54.4003647,0.00837436259 54.801543,0.409552656 54.801543,0.90443116 C54.801543,1.39930966 54.4003647,1.80048796 53.9054862,1.80048796 L53.9054862,1.80048796 L52.515342,1.80048796 C50.7085713,1.76302891 49.2113096,3.19291381 49.1655969,4.99949447 L49.1655969,4.99949447 L49.1655969,11.0039124 C49.1655969,11.498791 48.7644186,11.8999692 48.2695401,11.8999692 C47.7746616,11.8999692 47.3734833,11.498791 47.3734833,11.0039124 L47.3734833,11.0039124 L47.3734833,5.03299192 C47.3866834,3.68115115 47.9387221,2.39045202 48.9071578,1.4471705 C49.8755935,0.503888984 51.1803706,-0.0139987488 52.5320907,0.00837436259 L52.5320907,0.00837436259 Z M19.7380868,0.293102691 C20.0819513,-0.0559012877 20.6365038,-0.0814398892 21.0109899,0.234482153 C21.181584,0.405196579 21.2753152,0.638012603 21.2705951,0.879308072 C21.284047,1.12457798 21.189136,1.36338639 21.0109899,1.53250835 L21.0109899,1.53250835 L16.4050905,6.07978724 C16.3043167,6.17942662 16.2471074,6.31492232 16.2459776,6.45663356 L16.2459776,6.45663356 L16.2459776,10.9871637 C16.2482368,11.2254982 16.1545568,11.4547288 15.9860213,11.6232642 C15.8174858,11.7917997 15.5882552,11.8854798 15.3499208,11.8832605 L15.3499208,11.8832605 L15.2412593,11.8659682 C14.8158107,11.7722971 14.5062814,11.3908186 14.5124845,10.9452919 L14.5124845,10.9452919 L14.5124845,6.47338229 C14.5113547,6.33167104 14.4541454,6.19617535 14.3533716,6.09653597 L14.3533716,6.09653597 L9.80609273,1.56600581 C9.46152779,1.20987828 9.47090112,0.641854812 9.82702864,0.297289872 C10.1831562,-0.0472750678 10.7511796,-0.0379017432 11.0957446,0.318225779 L11.0957446,0.318225779 L15.1991822,4.42166345 C15.2543116,4.47792964 15.3297686,4.50963699 15.4085413,4.50963699 C15.487314,4.50963699 15.562771,4.47792964 15.6179004,4.42166345 L15.6179004,4.42166345 L19.7129637,0.293102691 Z M28.108,0.009 L28.3314953,0.0175347429 C29.5898993,0.0945214723 30.778391,0.637044754 31.6622666,1.54449043 C32.6050673,2.51243248 33.1236921,3.81591546 33.1035695,5.16698172 L33.1035695,5.16698172 L33.1035695,10.970415 C33.0587966,11.434091 32.6691581,11.787918 32.2033255,11.787918 C31.7374929,11.787918 31.3478544,11.434091 31.3030815,10.970415 L31.3030815,10.970415 L31.3030815,5.16698172 C31.3030815,3.40021921 29.8708375,1.96797521 28.104075,1.96797521 C26.3373125,1.96797521 24.9050685,3.40021921 24.9050685,5.16698172 L24.9050685,5.16698172 L24.9050685,10.970415 C24.9050685,11.4652935 24.5038902,11.8664718 24.0090117,11.8664718 C23.5141332,11.8664718 23.1129549,11.4652935 23.1129549,10.970415 L23.1129549,10.970415 L23.1129549,5.16698172 C23.0905818,3.81526165 23.6084695,2.51048454 24.551751,1.54204885 C25.4950326,0.573613156 26.7857317,0.0215744202 28.1375725,0.00837436259 L28.108,0.009 Z M57.5148364,3.1822186 C57.7539331,3.18002314 57.984006,3.27344142 58.1538648,3.44172748 C58.3237236,3.61001355 58.4192676,3.83920745 58.4192676,4.07831458 L58.4192676,4.07831458 L58.4192676,10.9536663 C58.3744947,11.4173423 57.9848563,11.7711693 57.5190236,11.7711693 C57.053191,11.7711693 56.6635525,11.4173423 56.6187796,10.9536663 L56.6187796,10.9536663 L56.6187796,4.07831458 C56.6187796,3.58343608 57.0199579,3.1822186 57.5148364,3.1822186 Z M79.1039432,0.0334974504 C79.5988217,0.0334974504 80,0.434675744 80,0.929554248 C80,1.42443275 79.5988217,1.82561105 79.1039432,1.82561105 L79.1039432,1.82561105 L76.281783,1.82561105 C74.4750124,1.788152 72.9777507,3.2180369 72.932038,5.02461756 L72.932038,5.02461756 L72.932038,6.69949008 C72.9777507,8.50607074 74.4750124,9.93595563 76.281783,9.89849659 L76.281783,9.89849659 L79.1123176,9.89849659 L79.1039432,9.95711712 C79.5676192,10.00189 79.9214462,10.3915285 79.9214462,10.8573611 C79.9214462,11.3231937 79.5676192,11.7128322 79.1039432,11.7576051 L79.1039432,11.7576051 L76.281783,11.7576051 C74.9307167,11.7777277 73.6272338,11.259103 72.6592917,10.3163023 C71.6913497,9.37350156 71.1386082,8.0841155 71.1231756,6.73298753 L71.1231756,6.73298753 L71.1231756,5.05811501 C71.1363757,3.70627424 71.6884144,2.41557511 72.6568501,1.47229359 C73.6252858,0.529012072 74.9300629,0.011124339 76.281783,0.0334974504 L76.281783,0.0334974504 Z M43.8143792,0.00837436259 C44.3092577,0.00837436259 44.710436,0.409552656 44.710436,0.90443116 L44.710436,0.90443116 L44.710436,0.963051698 C44.710436,1.4579302 44.3092577,1.8591085 43.8143792,1.8591085 L43.8143792,1.8591085 L40.992219,1.8591085 C39.1872423,1.82625451 37.6927044,3.2535382 37.642474,5.05811501 L37.642474,5.05811501 L37.642474,6.73298753 C37.6927044,8.53756433 39.1872423,9.96484802 40.992219,9.93199404 L40.992219,9.93199404 L43.8143792,9.93199404 C44.2780552,9.97676689 44.6318822,10.3664054 44.6318822,10.832238 C44.6318822,11.2980707 44.2780552,11.6877091 43.8143792,11.732482 L43.8143792,11.732482 L40.992219,11.732482 C39.6411528,11.7526046 38.3376698,11.2339799 37.3697277,10.2911792 C36.4017857,9.34837847 35.8490442,8.05899242 35.8336117,6.70786444 L35.8336117,6.70786444 L35.8336117,5.03299192 C35.8468117,3.68115115 36.3988505,2.39045202 37.3672862,1.4471705 C38.3357219,0.503888984 39.640499,-0.0139987488 40.992219,0.00837436259 L40.992219,0.00837436259 Z M5.93713721,6.21724894e-15 C6.43201572,6.21724894e-15 6.83319401,0.401178293 6.83319401,0.896056798 C6.83319401,1.3909353 6.43201572,1.7921136 5.93713721,1.7921136 L5.93713721,1.7921136 L2.94748977,1.7921136 C2.39017958,1.80503655 1.921526,2.21396314 1.83321232,2.76438329 C1.74489864,3.31480343 2.0620989,3.84981851 2.58739218,4.03644277 L2.58739218,4.03644277 L6.19674245,5.25909971 C7.39121888,5.65725223 8.19945694,6.77194722 8.20658948,8.03101373 L8.20658948,8.03101373 L8.20658948,8.13988044 C8.20658948,9.07270844 7.836025,9.96733024 7.17641599,10.6269392 C6.51680699,11.2865483 5.62218519,11.6571127 4.68935719,11.6571127 L4.68935719,11.6571127 L1.33961215,11.6571127 C0.844733646,11.6571127 0.443555353,11.2559344 0.443555353,10.7610559 C0.443555353,10.2661774 0.844733646,9.86499914 1.33961215,9.86499914 L1.33961215,9.86499914 L4.68935719,9.86499914 C5.64211393,9.86499914 6.41447588,9.09263719 6.41447588,8.13988044 L6.41447588,8.13988044 L6.41447588,8.03101373 C6.41263945,7.53495654 6.09663258,7.09456398 5.6272858,6.93397223 L5.6272858,6.93397223 L1.99281243,5.73643838 C0.63252055,5.27049333 -0.1931249,3.89110602 0.0388928599,2.47206883 C0.27091062,1.05303164 1.49288584,0.00843778378 2.93074104,6.21724894e-15 L2.93074104,6.21724894e-15 Z M67.0699842,0 C67.5648627,0 67.966041,0.401178293 67.966041,0.896056798 C67.966041,1.3909353 67.5648627,1.7921136 67.0699842,1.7921136 L67.0699842,1.7921136 L64.0887111,1.7921136 C63.5299176,1.8012326 63.0577155,2.20890811 62.9671732,2.7603928 C62.876631,3.31187749 63.193695,3.84913402 63.7202391,4.03644277 L63.7202391,4.03644277 L67.321215,5.25909971 C68.5156915,5.65725223 69.3239295,6.77194722 69.3310621,8.03101373 L69.3310621,8.03101373 L69.3310621,8.13988044 C69.3310621,9.07270844 68.9604976,9.96733024 68.3008886,10.6269392 C67.6412796,11.2865483 66.7466578,11.6571127 65.8138298,11.6571127 L65.8138298,11.6571127 L62.4640847,11.6571127 C61.9692062,11.6571127 61.5680279,11.2559344 61.5680279,10.7610559 C61.5680279,10.2661774 61.9692062,9.86499914 62.4640847,9.86499914 L62.4640847,9.86499914 L65.8138298,9.86499914 C66.7665865,9.86499914 67.5389485,9.09263719 67.5389485,8.13988044 L67.5389485,8.13988044 L67.5389485,8.03101373 C67.537112,7.53495654 67.2211052,7.09456398 66.7517584,6.93397223 L66.7517584,6.93397223 L63.117285,5.73643838 C61.7569931,5.27049333 60.9313477,3.89110602 61.1633654,2.47206883 C61.3953832,1.05303164 62.6173584,0.00843778378 64.0552136,0 L64.0552136,0 Z M40.2087447,4.95380697 L40.32227,4.95762266 L41.7040399,4.95762266 C42.1677159,5.00239551 42.5215429,5.39203399 42.5215429,5.85786663 C42.5215429,6.32369928 42.1677159,6.71333776 41.7040399,6.75811061 L41.7040399,6.75811061 L40.32227,6.75811061 C39.9799126,6.79116887 39.6484352,6.62717653 39.4669926,6.33497791 C39.2855501,6.0427793 39.2855501,5.67295397 39.4669926,5.38075536 C39.6484352,5.08855674 39.9799126,4.9245644 40.32227,4.95762266 Z M77.0019782,4.95762266 C77.4656542,5.00239551 77.8194812,5.39203399 77.8194812,5.85786663 C77.8194812,6.32369928 77.4656542,6.71333776 77.0019782,6.75811061 L77.0019782,6.75811061 L75.611834,6.75811061 C75.148158,6.71333776 74.794331,6.32369928 74.794331,5.85786663 C74.794331,5.39203399 75.148158,5.00239551 75.611834,4.95762266 L75.611834,4.95762266 Z" id="Combined-Shape"></path>
        </g>
    </g>
</svg>