<?xml version="1.0" encoding="UTF-8"?>
<svg width="101px" height="15px" viewBox="0 0 101 15" version="1.1" xmlns="http://www.w3.org/2000/svg" xmlns:xlink="http://www.w3.org/1999/xlink">
    <title>◆ Logo Copy 2</title>
    <defs>
        <filter color-interpolation-filters="auto" id="filter-1">
            <feColorMatrix in="SourceGraphic" type="matrix" values="0 0 0 0 0.219608 0 0 0 0 0.262745 0 0 0 0 0.313725 0 0 0 1.000000 0"></feColorMatrix>
        </filter>
    </defs>
    <g id="Symbols" stroke="none" stroke-width="1" fill="none" fill-rule="evenodd">
        <g filter="url(#filter-1)" id="◆-Logo-Copy-2">
            <g transform="translate(0.020341, 0.000000)">
                <path d="M67.3818577,0.0104679532 C68.0004558,0.0104679532 68.5019287,0.51194082 68.5019287,1.13053895 C68.5019287,1.74913708 68.0004558,2.25060995 67.3818577,2.25060995 L67.3818577,2.25060995 L65.6441775,2.25060995 C63.3857142,2.20378614 61.5141371,3.99114226 61.4569962,6.24936809 L61.4569962,6.24936809 L61.4569962,13.7548906 C61.4569962,14.3734887 60.9555233,14.8749616 60.3369252,14.8749616 C59.718327,14.8749616 59.2168542,14.3734887 59.2168542,13.7548906 L59.2168542,13.7548906 L59.2168542,6.2912399 C59.2333542,4.60143894 59.9234027,2.98806502 61.1339473,1.80896313 C62.3444919,0.62986123 63.9754633,-0.017498436 65.6651134,0.0104679532 L65.6651134,0.0104679532 Z M24.6726085,0.366378364 C25.1024391,-0.0698766096 25.7956297,-0.101799862 26.2637374,0.293102691 C26.4769801,0.506495724 26.594144,0.797515754 26.5882439,1.09913509 C26.6050588,1.40572248 26.48642,1.70423298 26.2637374,1.91563544 L26.2637374,1.91563544 L20.5063631,7.59973405 C20.3803959,7.72428328 20.3088843,7.8936529 20.307472,8.07079195 L20.307472,8.07079195 L20.307472,13.7339547 C20.310296,14.0318727 20.193196,14.3184109 19.9825266,14.5290803 C19.7718573,14.7397496 19.485319,14.8568497 19.187401,14.8540756 L19.187401,14.8540756 L19.0693544,14.8362296 C18.5284102,14.7259581 18.1327656,14.2447111 18.1406056,13.6816149 L18.1406056,13.6816149 L18.1406056,8.09172786 C18.1391933,7.91458881 18.0676817,7.74521918 17.9417145,7.62066996 L17.9417145,7.62066996 L12.2576159,1.95750726 C11.8269097,1.51234785 11.8386264,0.802318515 12.2837858,0.37161234 C12.7289452,-0.0590938348 13.4389745,-0.047377179 13.8696807,0.397782223 L13.8696807,0.397782223 L18.9989778,5.52707931 C19.0678895,5.59741204 19.1622108,5.63704623 19.2606766,5.63704623 C19.3591425,5.63704623 19.4534637,5.59741204 19.5223755,5.52707931 L19.5223755,5.52707931 L24.6412046,0.366378364 Z M35.135,0.011 L35.3958592,0.0208131259 C36.9757164,0.11284 38.468656,0.791857679 39.5778333,1.93061303 C40.7563342,3.1405406 41.4046151,4.76989432 41.3794618,6.45872715 L41.3794618,6.45872715 L41.3794618,13.7130187 C41.3234958,14.2926138 40.8364477,14.7348975 40.2541569,14.7348975 C39.6718661,14.7348975 39.184818,14.2926138 39.1288519,13.7130187 L39.1288519,13.7130187 L39.1288519,6.45872715 C39.1288519,4.25027401 37.3385469,2.45996901 35.1300938,2.45996901 C32.9216406,2.45996901 31.1313356,4.25027401 31.1313356,6.45872715 L31.1313356,6.45872715 L31.1313356,13.7130187 C31.1313356,14.3316169 30.6298627,14.8330897 30.0112646,14.8330897 C29.3926665,14.8330897 28.8911936,14.3316169 28.8911936,13.7130187 L28.8911936,13.7130187 L28.8911936,6.45872715 C28.8632272,4.76907706 29.5105869,3.13810567 30.6896888,1.92756106 C31.8687907,0.717016445 33.4821646,0.0269680252 35.1719656,0.0104679532 L35.135,0.011 Z M71.8935455,3.97777325 C72.1924164,3.97502892 72.4800075,4.09180178 72.692331,4.30215936 C72.9046545,4.51251693 73.0240845,4.79900931 73.0240845,5.09789323 L73.0240845,5.09789323 L73.0240845,13.6920828 C72.9681184,14.2716779 72.4810703,14.7139616 71.8987795,14.7139616 C71.3164887,14.7139616 70.8294406,14.2716779 70.7734745,13.6920828 L70.7734745,13.6920828 L70.7734745,5.09789323 C70.7734745,4.4792951 71.2749474,3.97777325 71.8935455,3.97777325 Z M98.879929,0.041871813 C99.4985271,0.041871813 100,0.54334468 100,1.16194281 C100,1.78054094 99.4985271,2.28201381 98.879929,2.28201381 L98.879929,2.28201381 L95.1480194,2.282772 C92.9820027,2.343947 91.2204568,4.09097721 91.1650475,6.28077195 L91.1650475,6.28077195 L91.1650475,8.37436259 C91.2221884,10.6325884 93.0937655,12.4199445 95.3522288,12.3731207 L95.3522288,12.3731207 L98.890397,12.3731207 L98.879929,12.4463964 C99.459524,12.5023625 99.9018078,12.9894106 99.9018078,13.5717014 C99.9018078,14.1539922 99.459524,14.6410403 98.879929,14.6970064 L98.879929,14.6970064 L95.3522288,14.6970064 C93.6633959,14.7221597 92.0340422,14.0738787 90.8241146,12.8953778 C89.6141871,11.7168769 88.9232602,10.1051444 88.9039696,8.41623441 L88.9039696,8.41623441 L88.9039696,6.32264376 C88.9204696,4.6328428 89.6105181,3.01946888 90.8210627,1.84036699 C92.0316073,0.66126509 93.6625787,0.0139054237 95.3522288,0.041871813 L95.3522288,0.041871813 Z M54.767974,0.0104679532 C55.3865722,0.0104679532 55.888045,0.51194082 55.888045,1.13053895 L55.888045,1.13053895 L55.888045,1.20381462 C55.888045,1.82241275 55.3865722,2.32388562 54.767974,2.32388562 L54.767974,2.32388562 L51.2402738,2.32388562 C48.9840528,2.28281814 47.1158805,4.06692275 47.0530925,6.32264376 L47.0530925,6.32264376 L47.0530925,8.41623441 C47.1158805,10.6719554 48.9840528,12.45606 51.2402738,12.4149925 L51.2402738,12.4149925 L54.767974,12.4149925 C55.347569,12.4709586 55.7898528,12.9580067 55.7898528,13.5402975 C55.7898528,14.1225883 55.347569,14.6096364 54.767974,14.6656025 L54.767974,14.6656025 L51.2402738,14.6656025 C49.551441,14.6907558 47.9220872,14.0424748 46.7121597,12.863974 C45.5022321,11.6854731 44.8113053,10.0737405 44.7920146,8.38483055 L44.7920146,8.38483055 L44.7920146,6.2912399 C44.8085147,4.60143894 45.4985631,2.98806502 46.7091077,1.80896313 C47.9196523,0.62986123 49.5506237,-0.017498436 51.2402738,0.0104679532 L51.2402738,0.0104679532 Z M7.42142152,7.10542736e-15 C8.04001965,7.10542736e-15 8.54149252,0.501472867 8.54149252,1.120071 C8.54149252,1.73866913 8.04001965,2.24014199 7.42142152,2.24014199 L7.42142152,2.24014199 L3.68436221,2.24014199 C2.98772448,2.25629569 2.40190749,2.76745392 2.29151539,3.45547911 C2.18112329,4.14350429 2.57762362,4.81227314 3.23424022,5.04555346 L3.23424022,5.04555346 L7.74592807,6.57387464 C9.2390236,7.07156529 10.2493212,8.46493402 10.2582368,10.0387672 L10.2582368,10.0387672 L10.2582368,10.1748506 C10.2582368,11.3408856 9.79503125,12.4591628 8.97051999,13.2836741 C8.14600873,14.1081853 7.02773149,14.5713909 5.86169648,14.5713909 L5.86169648,14.5713909 L1.67451519,14.5713909 C1.05591706,14.5713909 0.554444191,14.069918 0.554444191,13.4513199 C0.554444191,12.8327218 1.05591706,12.3312489 1.67451519,12.3312489 L1.67451519,12.3312489 L5.86169648,12.3312489 C7.05264242,12.3312489 8.01809485,11.3657965 8.01809485,10.1748506 L8.01809485,10.1748506 L8.01809485,10.0387672 C8.01579931,9.41869567 7.62079072,8.86820498 7.03410725,8.66746529 L7.03410725,8.66746529 L2.49101554,7.17054797 C0.790650688,6.58811667 -0.241406125,4.86388253 0.0486160749,3.09008604 C0.338638275,1.31628955 1.8661073,0.0105472297 3.6634263,7.10542736e-15 L3.6634263,7.10542736e-15 Z M83.8374802,0 C84.4560783,0 84.9575512,0.501472867 84.9575512,1.120071 C84.9575512,1.73866913 84.4560783,2.24014199 83.8374802,2.24014199 L83.8374802,2.24014199 L80.1108888,2.24014199 C79.412397,2.25154075 78.8221444,2.76113514 78.7089665,3.450491 C78.5957887,4.13984686 78.9921188,4.81141753 79.6502989,5.04555346 L79.6502989,5.04555346 L84.1515188,6.57387464 C85.6446143,7.07156529 86.6549119,8.46493402 86.6638276,10.0387672 L86.6638276,10.0387672 L86.6638276,10.1748506 C86.6638276,11.3408856 86.200622,12.4591628 85.3761107,13.2836741 C84.5515995,14.1081853 83.4333222,14.5713909 82.2672872,14.5713909 L82.2672872,14.5713909 L78.0801059,14.5713909 C77.4615078,14.5713909 76.9600349,14.069918 76.9600349,13.4513199 C76.9600349,12.8327218 77.4615078,12.3312489 78.0801059,12.3312489 L78.0801059,12.3312489 L82.2672872,12.3312489 C83.4582331,12.3312489 84.4236856,11.3657965 84.4236856,10.1748506 L84.4236856,10.1748506 L84.4236856,10.0387672 C84.42139,9.41869567 84.0263814,8.86820498 83.439698,8.66746529 L83.439698,8.66746529 L78.8966063,7.17054797 C77.1962414,6.58811667 76.1641846,4.86388253 76.4542068,3.09008604 C76.744229,1.31628955 78.271698,0.0105472297 80.069017,0 L80.069017,0 Z M50.2750355,6.19193482 L50.4028375,6.19702832 L52.1300498,6.19702832 C52.7096448,6.25299439 53.1519286,6.74004249 53.1519286,7.32233329 C53.1519286,7.90462409 52.7096448,8.3916722 52.1300498,8.44763827 L52.1300498,8.44763827 L50.4028375,8.44763827 C49.9748908,8.48896108 49.560544,8.28397066 49.3337408,7.91872239 C49.1069376,7.55347412 49.1069376,7.09119247 49.3337408,6.7259442 C49.560544,6.36069593 49.9748908,6.1557055 50.4028375,6.19702832 Z M96.2524727,6.19702832 C96.8320677,6.25299439 97.2743515,6.74004249 97.2743515,7.32233329 C97.2743515,7.90462409 96.8320677,8.3916722 96.2524727,8.44763827 L96.2524727,8.44763827 L94.5147925,8.44763827 C93.9351975,8.3916722 93.4929137,7.90462409 93.4929137,7.32233329 C93.4929137,6.74004249 93.9351975,6.25299439 94.5147925,6.19702832 L94.5147925,6.19702832 Z" id="Combined-Shape" fill="#384350" fill-rule="nonzero"></path>
            </g>
        </g>
    </g>
</svg>