<svg xmlns="http://www.w3.org/2000/svg" width="240" height="240" viewBox="0 0 240 240">
  <rect fill="#8cdb63" x=".23" y=".15" width="239.54" height="239.7"/>
  <rect fill="#a4db91" x=".46" y=".3" width="113.73" height="115.36"/>
  <polygon fill="#6bdb31" points="114.19 47.43 134.24 148.5 106.04 153.62 114.19 47.43"/>
  <path fill="none" stroke="#131312" stroke-miterlimit="10" stroke-width="10" d="M134.24,148.5c-11.41,6.02-28.2,5.07-28.2,5.07l8.87-106.14"/>
  <circle fill="#131312" cx="61.28" cy="72.06" r="11"/>
  <path fill="#a4db91" d="M157.13,67.52s9.61-14.63,27.96-15.28c18.35-.65,31.45,11.7,31.45,11.7,0,0-7.28,12.35-29.7,13.98-22.42,1.63-29.7-10.4-29.7-10.4Z"/>
  <circle fill="#131312" cx="185.73" cy="67.07" r="11"/>
  <path fill="#4051c9" d="M116.82,184.28s9.19,23,39.6,17.34c30.42-5.66,29.31-34.58,29.31-34.58l-68.91,17.24Z"/>
  <path fill="none" stroke="#131312" stroke-miterlimit="10" stroke-width="10" d="M110.16,183.67s21.86.95,43.09-4.12,34.85-13.62,34.85-13.62"/>
</svg>