<?xml version="1.0" encoding="utf-8"?>
<!-- Generator: Adobe Illustrator 20.1.0, SVG Export Plug-In . SVG Version: 6.00 Build 0)  -->
<svg version="1.1" id="Warstwa_1" xmlns="http://www.w3.org/2000/svg" xmlns:xlink="http://www.w3.org/1999/xlink" x="0px" y="0px"
	 viewBox="0 0 113.9 17" style="enable-background:new 0 0 113.9 17;" xml:space="preserve">
<style type="text/css">
	.st0{clip-path:url(#SVGID_2_);fill:#384350;}
</style>
<g>
	<defs>
		<rect id="SVGID_1_" width="113.9" height="17"/>
	</defs>
	<clipPath id="SVGID_2_">
		<use xlink:href="#SVGID_1_"  style="overflow:visible;"/>
	</clipPath>
	<path class="st0" d="M63.6,1.4c0-0.7-0.6-1.3-1.3-1.3h-4c-4,0-7.3,3.2-7.3,7.1v2.4c0,3.9,3.3,7.1,7.3,7.1h4c0.7,0,1.3-0.6,1.3-1.3
		c0-0.7-0.6-1.3-1.3-1.3h-4c-2.6,0-4.8-2-4.8-4.6V7.2c0-2.5,2.1-4.6,4.8-4.6h4C63.1,2.7,63.6,2.1,63.6,1.4"/>
	<path class="st0" d="M40.1,0.1c-3.9,0-7.1,3.3-7.1,7.3v8.3c0,0.7,0.6,1.3,1.3,1.3c0.7,0,1.3-0.6,1.3-1.3V7.5c0-2.6,2-4.8,4.6-4.8
		c2.5,0,4.5,2.1,4.5,4.8v8.3c0,0.7,0.6,1.3,1.3,1.3c0.7,0,1.3-0.6,1.3-1.3V7.5C47.2,3.4,44,0.1,40.1,0.1"/>
	<path class="st0" d="M57.4,7.2c-0.7,0-1.3,0.6-1.3,1.3c0,0.7,0.6,1.3,1.3,1.3h2c0.7,0,1.3-0.6,1.3-1.3c0-0.7-0.6-1.3-1.3-1.3H57.4z
		"/>
	<path class="st0" d="M81.9,4.6c-0.7,0-1.3,0.6-1.3,1.3v9.8c0,0.7,0.6,1.3,1.3,1.3c0.7,0,1.3-0.6,1.3-1.3V5.9
		C83.1,5.2,82.6,4.6,81.9,4.6"/>
	<path class="st0" d="M76.7,0.1h-2c-4,0-7.3,3.2-7.3,7.1l0,8.5c0,0.7,0.6,1.3,1.3,1.3c0.7,0,1.3-0.6,1.3-1.3V7.2
		c0-2.5,2.1-4.6,4.8-4.6h2c0.7,0,1.3-0.6,1.3-1.3S77.4,0.1,76.7,0.1"/>
	<path class="st0" d="M8.8,7.6L3.7,5.9C3,5.6,2.6,5,2.6,4.3c0-0.9,0.7-1.6,1.6-1.6h4.3c0.7,0,1.3-0.6,1.3-1.3c0-0.7-0.6-1.3-1.3-1.3
		H4.2C1.9,0.1,0,2,0,4.3c0,1.8,1.1,3.4,2.9,4L8,10c0.7,0.2,1.1,0.8,1.1,1.6v0.2c0,1.4-1.1,2.4-2.4,2.4H1.9c-0.7,0-1.3,0.6-1.3,1.3
		c0,0.7,0.6,1.3,1.3,1.3h4.8c2.8,0,5-2.2,5-5v-0.2C11.7,9.8,10.6,8.2,8.8,7.6"/>
	<path class="st0" d="M95.8,7.6l-5.2-1.7C90,5.6,89.5,5,89.5,4.3c0-0.9,0.7-1.6,1.6-1.6h4.3c0.7,0,1.3-0.6,1.3-1.3
		c0-0.7-0.6-1.3-1.3-1.3h-4.3C88.8,0.1,87,2,87,4.3c0,1.8,1.1,3.4,2.9,4L95,10c0.7,0.2,1.1,0.8,1.1,1.6v0.2c0,1.4-1.1,2.4-2.4,2.4
		h-4.8c-0.7,0-1.3,0.6-1.3,1.3c0,0.7,0.6,1.3,1.3,1.3h4.8c2.8,0,5-2.2,5-5v-0.2C98.7,9.8,97.5,8.2,95.8,7.6"/>
	<path class="st0" d="M28.1,0.5l-5.8,5.8c-0.2,0.2-0.4,0.2-0.6,0l-5.8-5.8c-0.4-0.4-1-0.5-1.5-0.3c-0.4,0.2-0.6,0.5-0.7,0.9
		C13.6,1.6,13.7,2,14,2.3l6.5,6.5c0.1,0.1,0.2,0.3,0.2,0.5v6.4c0,0.7,0.5,1.3,1.2,1.3c0,0,0,0,0.1,0c0.3,0,0.6-0.1,0.9-0.4
		c0.3-0.2,0.4-0.6,0.4-0.9V9.3c0-0.2,0.1-0.4,0.2-0.5l6.5-6.5c0.2-0.2,0.4-0.6,0.4-0.9c0-0.4-0.2-0.7-0.4-0.9
		C29.4,0,28.6,0,28.1,0.5"/>
	<path class="st0" d="M112.6,14.2h-4c-2.6,0-4.8-2-4.8-4.6V7.2c0-2.5,2.1-4.5,4.8-4.5h4c0.7,0,1.3-0.6,1.3-1.3
		c0-0.7-0.6-1.3-1.3-1.3h-4c-4,0-7.3,3.2-7.3,7.1v2.4c0,3.9,3.3,7.1,7.3,7.1h4c0.7,0,1.3-0.6,1.3-1.3
		C113.9,14.8,113.3,14.2,112.6,14.2"/>
	<path class="st0" d="M107.6,7.2c-0.7,0-1.3,0.6-1.3,1.3c0,0.7,0.6,1.3,1.3,1.3h2c0.7,0,1.3-0.6,1.3-1.3c0-0.7-0.6-1.3-1.3-1.3
		H107.6z"/>
</g>
</svg>
