<svg xmlns="http://www.w3.org/2000/svg" viewBox="0 0 48 48"><title>action-url</title><rect width="48" height="48" style="fill:#f2f2f2;opacity:0"/><rect x="10.5999" y="19.8234" width="35.1761" height="22.3634" rx="3.5542" ry="3.5542" style="fill:#d9eeff"/><rect x="6.515" y="15.4628" width="35.1761" height="22.3634" rx="3.5542" ry="3.5542" style="fill:none;stroke:#0b68ff;stroke-linecap:round;stroke-linejoin:round;stroke-width:2px"/><line x1="19.2974" y1="10.8135" x2="11.8781" y2="10.8135" style="fill:none;stroke:#0b68ff;stroke-linecap:round;stroke-linejoin:round;stroke-width:2px"/><path d="M1546.173,674.6445h0a3.3605,3.3605,0,0,1-3.3605,3.3605h-5.3972a3.3605,3.3605,0,0,1-3.3605-3.3605h0a3.3605,3.3605,0,0,1,3.3605-3.3605h2.6986" transform="translate(-1520 -648)" style="fill:none;stroke:#0b68ff;stroke-linecap:round;stroke-linejoin:round;stroke-width:2px"/><path d="M1542.0331,674.6445h0a3.3605,3.3605,0,0,1,3.3605-3.3605h5.3972a3.3605,3.3605,0,0,1,3.3605,3.3605h0a3.3605,3.3605,0,0,1-3.3605,3.3605h-2.6986" transform="translate(-1520 -648)" style="fill:none;stroke:#0b68ff;stroke-linecap:round;stroke-linejoin:round;stroke-width:2px"/><circle cx="7.515" cy="10.8135" r="1" style="fill:#0b68ff"/></svg>