<svg xmlns="http://www.w3.org/2000/svg" viewBox="0 0 48 48"><title>action-open-app</title><rect width="48" height="48" style="fill:#f2f2f2;opacity:0"/><rect x="1360.3949" y="663.8969" width="35.1162" height="24.2068" rx="2.7557" ry="2.7557" transform="translate(703.9533 -1349.9528) rotate(90)" style="fill:#d9eeff"/><path d="M1386.09,686.8021a2.7557,2.7557,0,0,1-2.7557,2.7557h-18.695a2.7557,2.7557,0,0,1-2.7557-2.7557V657.1979a2.7557,2.7557,0,0,1,2.7557-2.7557h18.695a2.7557,2.7557,0,0,1,2.7557,2.7557v2.2444" transform="translate(-1350 -648)" style="fill:none;stroke:#0b68ff;stroke-linecap:round;stroke-linejoin:round;stroke-width:2px"/><line x1="28.632" y1="11.4422" x2="21.2128" y2="11.4422" style="fill:none;stroke:#0b68ff;stroke-linecap:round;stroke-linejoin:round;stroke-width:2px"/><circle cx="16.8496" cy="11.4422" r="1" style="fill:#0b68ff"/><rect x="23.6141" y="16.7055" width="16.8333" height="16.8333" rx="3.2205" ry="3.2205" style="fill:none;stroke:#0b68ff;stroke-linecap:round;stroke-linejoin:round;stroke-width:2px"/><path d="M1378.2795,673.38a3.7513,3.7513,0,1,1,5.65,3.2358" transform="translate(-1350 -648)" style="fill:none;stroke:#0b68ff;stroke-linecap:round;stroke-linejoin:round;stroke-width:2px"/></svg>