<svg xmlns="http://www.w3.org/2000/svg" viewBox="0 0 48 48">
    <title>action-deeplink</title>
    <rect width="48" height="48" style="fill:#f2f2f2;opacity:0"/>
    <rect x="1700.527" y="663.8969" width="35.1162" height="24.2068" rx="2.7557" ry="2.7557"
          transform="translate(704.0853 -1690.0848) rotate(90)" style="fill:#d9eeff"/>
    <path d="M1726.2215,682.0856v4.7165a2.7557,2.7557,0,0,1-2.7557,2.7557h-18.695a2.7557,2.7557,0,0,1-2.7557-2.7557V657.1979a2.7557,2.7557,0,0,1,2.7557-2.7557h18.695a2.7557,2.7557,0,0,1,2.7557,2.7557v8.0553"
          transform="translate(-1690 -648)"
          style="fill:none;stroke:#0b68ff;stroke-linecap:round;stroke-linejoin:round;stroke-width:2px"/>
    <line x1="28.764" y1="11.4422" x2="21.3448" y2="11.4422"
          style="fill:none;stroke:#0b68ff;stroke-linecap:round;stroke-linejoin:round;stroke-width:2px"/>
    <circle cx="16.9817" cy="11.4422" r="1" style="fill:#0b68ff"/>
    <path d="M1723.1777,673.505h0a3.3605,3.3605,0,0,1-3.3605,3.3605H1714.42a3.3605,3.3605,0,0,1-3.3605-3.3605h0a3.3605,3.3605,0,0,1,3.3605-3.3605h2.6986"
          transform="translate(-1690 -648)"
          style="fill:none;stroke:#0b68ff;stroke-linecap:round;stroke-linejoin:round;stroke-width:2px"/>
    <path d="M1719.0377,673.505h0a3.3605,3.3605,0,0,1,3.3605-3.3605h5.3972a3.3605,3.3605,0,0,1,3.3605,3.3605h0a3.3605,3.3605,0,0,1-3.3605,3.3605h-2.6986"
          transform="translate(-1690 -648)"
          style="fill:none;stroke:#0b68ff;stroke-linecap:round;stroke-linejoin:round;stroke-width:2px"/>
</svg>