<svg id="ad-after-scroll-l" xmlns="http://www.w3.org/2000/svg" viewBox="0 0 82 82"><defs><style>.cls-1{fill:#f2f2f2;fill-opacity:0;}.cls-2{fill:#d9eeff;}.cls-3{fill:#0b68ff;}.cls-4{fill:#fff;}</style></defs><rect id="bg" class="cls-1" width="82" height="82"/><rect class="cls-2" x="27.5" y="19.83" width="37.69" height="51.82" rx="3.7" ry="3.7" transform="translate(92.08 -0.61) rotate(90)"/><path class="cls-3" d="M63.74,60.77H19.33a4.71,4.71,0,0,1-4.7-4.7V51.4a1,1,0,1,1,2,0v4.67a2.71,2.71,0,0,0,2.7,2.7H63.74a2.71,2.71,0,0,0,2.7-2.7V51.4a1,1,0,0,1,2,0v4.67A4.71,4.71,0,0,1,63.74,60.77Z"/><path class="cls-3" d="M67.45,41a1,1,0,0,1-1-1V25.79a2.71,2.71,0,0,0-2.7-2.7H19.33a2.71,2.71,0,0,0-2.7,2.7V40a1,1,0,1,1-2,0V25.79a4.71,4.71,0,0,1,4.7-4.7H63.74a4.71,4.71,0,0,1,4.7,4.7V40A1,1,0,0,1,67.45,41Z"/><circle class="cls-3" cx="20.91" cy="27.16" r="1.23"/><circle class="cls-3" cx="25.83" cy="27.16" r="1.23"/><circle class="cls-3" cx="30.75" cy="27.16" r="1.23"/><path class="cls-3" d="M71,46.69H12.74a1,1,0,1,1,0-2H71a1,1,0,0,1,0,2Z"/><rect class="cls-4" x="45.52" y="29.66" width="15.55" height="23.74" rx="7.78" ry="7.78"/><path class="cls-3" d="M53.29,54.4a8.79,8.79,0,0,1-8.78-8.78V37.43a8.78,8.78,0,1,1,17.55,0v8.19A8.79,8.79,0,0,1,53.29,54.4Zm0-23.74a6.78,6.78,0,0,0-6.78,6.78v8.19a6.78,6.78,0,0,0,13.55,0V37.43A6.78,6.78,0,0,0,53.29,30.66Z"/><path class="cls-3" d="M53.29,49a1,1,0,0,1-.71-.29l-3.33-3.33a1,1,0,0,1,1.41-1.41l2.62,2.62,2.62-2.62a1,1,0,0,1,1.41,1.41L54,48.68A1,1,0,0,1,53.29,49Z"/></svg>