<?xml version="1.0" encoding="utf-8"?>
<!-- Generator: Adobe Illustrator 20.1.0, SVG Export Plug-In . SVG Version: 6.00 Build 0)  -->
<svg version="1.1" id="ad-banner-l" xmlns="http://www.w3.org/2000/svg" xmlns:xlink="http://www.w3.org/1999/xlink" x="0px"
	 y="0px" viewBox="0 0 82 82" style="enable-background:new 0 0 82 82;" xml:space="preserve">
<style type="text/css">
	.st_b0{opacity:0;fill:#F2F2F2;}
	.st_b1{fill:#D9EEFF;}
	.st_b2{fill:#0B68FF;}
	.st_b3{fill:#FFFFFF;}
</style>
<rect class="st_b0" width="82" height="82"/>
<path class="st_b1" d="M63,24.897v42.206C63,69.255,61.255,71,59.103,71H32.897C30.745,71,29,69.255,29,67.103V24.897
	C29,22.745,30.745,21,32.897,21h26.206C61.255,21,63,22.745,63,24.897z"/>
<path class="st_b2" d="M55.1,68H28.9c-2.706,0-4.9-2.194-4.9-4.9l0,0V20.9c0-2.706,2.194-4.9,4.9-4.9h26.2c2.706,0,4.9,2.194,4.9,4.9
	c0,0,0,0,0,0v42.2C60,65.806,57.806,68,55.1,68L55.1,68z M28.9,18c-1.602,0-2.9,1.298-2.9,2.9v42.2c0,1.602,1.298,2.9,2.9,2.9l0,0
	h26.2c1.602,0,2.9-1.298,2.9-2.9c0,0,0,0,0,0V20.9c0-1.602-1.298-2.9-2.9-2.9l0,0H28.9z"/>
<path class="st_b3" d="M25.063,30h33.874C61.181,30,63,31.819,63,34.063v15.874C63,52.181,61.181,54,58.937,54H25.063
	C22.819,54,21,52.181,21,49.937V34.063C21,31.819,22.819,30,25.063,30z"/>
<path class="st_b2" d="M58.937,55H25.063c-2.795-0.003-5.06-2.268-5.063-5.063V34.063c0.003-2.795,2.268-5.06,5.063-5.063h33.874
	c2.795,0.003,5.06,2.268,5.063,5.063v15.874C63.997,52.732,61.732,54.997,58.937,55z M25.063,31
	c-1.691,0.002-3.061,1.372-3.063,3.063v15.874c0.002,1.691,1.372,3.061,3.063,3.063h33.874c1.691-0.002,3.061-1.372,3.063-3.063
	V34.063c-0.002-1.691-1.372-3.061-3.063-3.063H25.063z"/>
<path class="st_b2" d="M58,40c-0.265,0-0.52-0.105-0.707-0.293l-4-4c-0.384-0.397-0.373-1.03,0.024-1.414
	c0.388-0.374,1.002-0.374,1.39,0l4,4c0.39,0.391,0.39,1.024,0,1.414C58.519,39.895,58.265,40,58,40z"/>
<path class="st_b2" d="M54,40c-0.552,0-1-0.448-1-1c0-0.265,0.105-0.519,0.293-0.707l4-4c0.397-0.384,1.03-0.373,1.414,0.024
	c0.374,0.388,0.374,1.002,0,1.39l-4,4C54.52,39.895,54.265,40,54,40z"/>
<path class="st_b2" d="M45.185,24.166h-10.42c-0.552,0-1-0.448-1-1s0.448-1,1-1h10.42c0.552,0,1,0.448,1,1
	S45.737,24.166,45.185,24.166z"/>
<circle class="st_b2" cx="50.548" cy="23.165" r="1"/>
<path class="st_b2" d="M50,45H34c-0.552,0-1-0.448-1-1s0.448-1,1-1h16c0.552,0,1,0.448,1,1S50.552,45,50,45z"/>
<path class="st_b2" d="M45,40h-6c-0.552,0-1-0.448-1-1s0.448-1,1-1h6c0.552,0,1,0.448,1,1S45.552,40,45,40z"/>
</svg>
