<svg xmlns="http://www.w3.org/2000/svg" viewBox="0 0 82 82"><title>ad-cart-ai-l</title><rect width="82" height="82" style="fill:#fff;opacity:0"/><path d="M20.02049,34.52522,22.639,51.49009a5.6982,5.6982,0,0,0,5.63151,4.829h27.6439a5.69819,5.69819,0,0,0,5.6315-4.829l2.6185-16.96487a4.8566,4.8566,0,0,0-4.79976-5.59743H24.82025a4.85658,4.85658,0,0,0-4.79976,5.59743Z" style="fill:#d9eeff"/><path d="M51.96387,53.31934h-27.644a6.66251,6.66251,0,0,1-6.61962-5.67676L15.02881,30.334A5.55826,5.55826,0,0,1,20.522,23.92773H54.457a1,1,0,0,1,0,2H20.522a3.55852,3.55852,0,0,0-3.5166,4.10157l2.67139,17.30859a4.67321,4.67321,0,0,0,4.64306,3.98145h27.644a4.67369,4.67369,0,0,0,4.64355-3.98145L60.419,22.981a4.77193,4.77193,0,0,1,4.7373-4.05323h4.88086a1,1,0,0,1,0,2H65.15625a2.78025,2.78025,0,0,0-2.76074,2.3628L58.584,47.64453A6.66339,6.66339,0,0,1,51.96387,53.31934Z" style="fill:#0b68ff"/><path d="M27.83594,63.07227a3.752,3.752,0,1,1,3.752-3.752h0A3.75651,3.75651,0,0,1,27.83594,63.07227Zm0-5.50391a1.752,1.752,0,1,0,1.752,1.752h0A1.75421,1.75421,0,0,0,27.83594,57.56836Z" style="fill:#0b68ff"/><path d="M48.20508,63.07227a3.752,3.752,0,1,1,3.752-3.752h0A3.75682,3.75682,0,0,1,48.20508,63.07227Zm0-5.50391a1.752,1.752,0,1,0,1.752,1.752h0A1.75421,1.75421,0,0,0,48.20508,57.56836Z" style="fill:#0b68ff"/><path d="M47.20215,46.88574a.99942.99942,0,0,1-1-.99884V37.28516a1,1,0,0,1,2,0v8.60058a.99942.99942,0,0,1-.99885,1Z" style="fill:#0b68ff"/><path d="M39.04346,46.88574a.99973.99973,0,0,1-1-.99946V37.28516a1,1,0,0,1,2,0v8.60058a.99974.99974,0,0,1-.99948,1Z" style="fill:#0b68ff"/><path d="M30.88428,46.88574a.99972.99972,0,0,1-1-.99946V37.28516a1,1,0,0,1,2,0v8.60058a.99974.99974,0,0,1-.99948,1Z" style="fill:#0b68ff"/></svg>