<svg width="48" height="48" viewBox="0 0 48 48" fill="none" xmlns="http://www.w3.org/2000/svg">
    <g clip-path="url(#clip0_12540_41143)">
    <path d="M17.0103 26.3903C17.0103 24.5853 15.5471 23.1221 13.7421 23.1221C11.9371 23.1221 10.4739 24.5853 10.4739 26.3903V34.0799C10.4739 35.8848 11.9371 37.3481 13.7421 37.3481C15.5471 37.3481 17.0103 35.8848 17.0103 34.0799V26.3903Z" fill="#D9EEFF"/>
    <path d="M30.2415 19.1227C30.2415 17.3177 28.7783 15.8545 26.9733 15.8545C25.1683 15.8545 23.7051 17.3177 23.7051 19.1227V34.08C23.7051 35.885 25.1683 37.3482 26.9733 37.3482C28.7783 37.3482 30.2415 35.885 30.2415 34.08V19.1227Z" fill="#D9EEFF"/>
    <path d="M43.3144 13.1622C43.3144 11.3573 41.8511 9.89404 40.0462 9.89404C38.2412 9.89404 36.778 11.3573 36.778 13.1622V34.0798C36.778 35.8848 38.2412 37.348 40.0462 37.348C41.8511 37.348 43.3144 35.8848 43.3144 34.0798V13.1622Z" fill="#D9EEFF"/>
    <path d="M40.5364 10.2682C40.5364 8.46322 39.0732 7 37.2682 7C35.4632 7 34 8.46322 34 10.2682V31.1858C34 32.9908 35.4632 34.454 37.2682 34.454C39.0732 34.454 40.5364 32.9908 40.5364 31.1858V10.2682Z" fill="#D9EEFF"/>
    <path d="M7.57983 41H41.0703" stroke="#0B68FF" stroke-width="2" stroke-linecap="round" stroke-linejoin="round"/>
    <path d="M14.1162 23.4962C14.1162 21.6913 12.653 20.228 10.848 20.228C9.04306 20.228 7.57983 21.6913 7.57983 23.4962V31.1858C7.57983 32.9908 9.04306 34.454 10.848 34.454C12.653 34.454 14.1162 32.9908 14.1162 31.1858V23.4962Z" stroke="#0B68FF" stroke-width="2" stroke-linecap="round" stroke-linejoin="round"/>
    <path d="M27.3474 16.2286C27.3474 14.4237 25.8842 12.9604 24.0792 12.9604C22.2743 12.9604 20.811 14.4237 20.811 16.2286V31.1859C20.811 32.9909 22.2743 34.4541 24.0792 34.4541C25.8842 34.4541 27.3474 32.9909 27.3474 31.1859V16.2286Z" stroke="#0B68FF" stroke-width="2" stroke-linecap="round" stroke-linejoin="round"/>
    <path d="M40.4202 10.2682C40.4202 8.46322 38.957 7 37.152 7C35.347 7 33.8838 8.46322 33.8838 10.2682V31.1858C33.8838 32.9908 35.347 34.454 37.152 34.454C38.957 34.454 40.4202 32.9908 40.4202 31.1858V10.2682Z" stroke="#0B68FF" stroke-width="2" stroke-linecap="round" stroke-linejoin="round"/>
    <path d="M40.4202 10.2682C40.4202 8.46322 38.957 7 37.152 7C35.347 7 33.8838 8.46322 33.8838 10.2682V31.1858C33.8838 32.9908 35.347 34.454 37.152 34.454C38.957 34.454 40.4202 32.9908 40.4202 31.1858V10.2682Z" stroke="#0B68FF" stroke-width="2" stroke-linecap="round" stroke-linejoin="round"/>
    <path d="M37.2686 7C39.0734 7.00019 40.5361 8.4637 40.5361 10.2686V18H34V10.2686C34 8.46358 35.4636 7 37.2686 7Z" fill="#0B68FF"/>
    <path d="M24.2686 13C26.0734 13.0001 27.5361 14.0643 27.5361 15.377V21H21V15.377C21 14.0642 22.4636 13 24.2686 13Z" fill="#0B68FF"/>
    <path d="M11.2686 21C13.0734 21.0001 14.5361 21.5322 14.5361 22.1885V25H8V22.1885C8 21.5321 9.46358 21 11.2686 21Z" fill="#0B68FF"/>
    </g>
    <defs>
    <clipPath id="clip0_12540_41143">
    <rect width="48" height="48" fill="white"/>
    </clipPath>
    </defs>
    </svg>
    