<svg xmlns="http://www.w3.org/2000/svg" viewBox="0 0 82 82"><title>ad-complementary-ai-l</title><rect width="82" height="82" style="fill:#fff;opacity:0"/><path d="M58.3,60.7l-12-5.9a5.29939,5.29939,0,0,0-4.6,0l-12,5.9a2.51985,2.51985,0,0,1-3.4-1.2,2.01584,2.01584,0,0,1-.3-1.1V33.1a4.65288,4.65288,0,0,1,4.6-4.6H57.3a4.65288,4.65288,0,0,1,4.6,4.6V58.5A2.47572,2.47572,0,0,1,59.4,61,2.01584,2.01584,0,0,1,58.3,60.7Z" style="fill:#d9eeff"/><path d="M24.5,58A3.47822,3.47822,0,0,1,21,54.5V29.1a5.5908,5.5908,0,0,1,5.6-5.6h8.6a1,1,0,0,1,0,2H26.6A3.585,3.585,0,0,0,23,29.1V54.5A1.538,1.538,0,0,0,24.5,56a1.854,1.854,0,0,0,.7-.2l12-5.9a5.93935,5.93935,0,0,1,5.5,0l12,5.9a1.396,1.396,0,0,0,2-.7,1.44531,1.44531,0,0,0,.2-.7V43.8a1,1,0,0,1,2,0V54.4a3.47822,3.47822,0,0,1-3.5,3.5,3.16651,3.16651,0,0,1-1.6-.4l-12-5.9a4.23611,4.23611,0,0,0-3.8,0L26,57.5A1.96377,1.96377,0,0,1,24.5,58Z" style="fill:#0b68ff"/><path d="M66.4,26.4H63.7a2.58189,2.58189,0,0,1-2.6-2.6V21a1.57953,1.57953,0,0,0-1.6-1.6H42.8A1.57953,1.57953,0,0,0,41.2,21h0V37.7a1.57953,1.57953,0,0,0,1.6,1.6h2.7a2.58189,2.58189,0,0,0,2.6-2.6V34.1a3.23334,3.23334,0,0,1,2.8-3.2A2.92961,2.92961,0,0,1,54,33.7v2.9a2.58189,2.58189,0,0,0,2.6,2.6h4.3V35a2.58189,2.58189,0,0,1,2.6-2.6h2.6a3.23334,3.23334,0,0,0,3.2-2.8,2.92961,2.92961,0,0,0-2.8-3.1C66.6,26.4,66.5,26.4,66.4,26.4Z" style="fill:#fff"/><path d="M61.1,40.3H56.8a3.585,3.585,0,0,1-3.6-3.6V34a1.81566,1.81566,0,0,0-.6-1.4,1.65063,1.65063,0,0,0-1.5-.5,2.17382,2.17382,0,0,0-1.9,2.2v2.6a3.585,3.585,0,0,1-3.6,3.6H42.9a2.64744,2.64744,0,0,1-2.6-2.6V21a2.64744,2.64744,0,0,1,2.6-2.6H59.6A2.64744,2.64744,0,0,1,62.2,21v2.7a1.57953,1.57953,0,0,0,1.6,1.6h2.7a4.45433,4.45433,0,0,1,2.9,1.2,3.76667,3.76667,0,0,1,1.1,3,4.154,4.154,0,0,1-4.2,3.8H63.7a1.57953,1.57953,0,0,0-1.6,1.6v4.3a1.02868,1.02868,0,0,1-1,1.1Zm-10-10.4A3.86368,3.86368,0,0,1,53.8,31,4.005,4.005,0,0,1,55,33.9v2.7a1.57953,1.57953,0,0,0,1.6,1.6h3.3V35a3.585,3.585,0,0,1,3.6-3.6h2.6a2.24875,2.24875,0,0,0,2.2-1.9,2.00516,2.00516,0,0,0-1.9-2.1H63.6A3.585,3.585,0,0,1,60,23.8V21a.64523.64523,0,0,0-.6-.6H42.8a.64523.64523,0,0,0-.6.6V37.7a.64523.64523,0,0,0,.6.6h2.7a1.57953,1.57953,0,0,0,1.6-1.6V34.1a4.154,4.154,0,0,1,3.8-4.2Z" style="fill:#0b68ff"/></svg>