<svg id="ad-coupon-l" xmlns="http://www.w3.org/2000/svg" viewBox="0 0 82 82" style="enable-background:new 0 0 82 82">
  <style>
    .st2{fill:#0b68ff}.st4{fill:#fff}
  </style>
  <rect width="82" height="82" style="opacity:0;fill:#f2f2f2"/>
  <path d="M71 53.15c-3.949.066-7.204-3.082-7.27-7.03s3.082-7.204 7.03-7.27c.08-.001.159-.001.239 0v-7.642c-.008-1.228-1.01-2.216-2.238-2.208H23.238c-1.228-.008-2.23.98-2.238 2.208v7.643c3.949-.001 7.151 3.199 7.153 7.147s-3.199 7.151-7.147 7.153h-.005v7.643c.009 1.227 1.011 2.214 2.238 2.206h45.524c1.228.008 2.23-.98 2.238-2.208V53.15z" style="fill:#d9eeff"/>
  <path class="st2" d="M64.762 60H19.238c-1.779.006-3.228-1.429-3.238-3.208v-7.643c0-.552.448-1 1-1 3.397.001 6.151-2.751 6.153-6.147.001-3.397-2.751-6.151-6.147-6.153h-.005c-.552 0-1-.448-1-1v-7.641c.01-1.779 1.459-3.214 3.238-3.208h45.524c1.779-.006 3.228 1.429 3.238 3.208v7.642c0 .552-.448 1-1 1-3.397-.061-6.2 2.643-6.261 6.039-.061 3.397 2.643 6.2 6.039 6.261.074.001.148.001.222 0 .552 0 1 .448 1 1v7.642c-.011 1.779-1.46 3.214-3.239 3.208zM18 50.089v6.7c.008.676.562 1.218 1.238 1.211h45.524c.675.007 1.229-.533 1.238-1.208v-6.7c-4.469-.493-7.692-4.514-7.199-8.983.418-3.79 3.41-6.781 7.199-7.199v-6.7c-.008-.676-.562-1.218-1.238-1.21H19.238c-.675-.008-1.229.533-1.238 1.208v6.7c4.467.5 7.683 4.527 7.183 8.994-.423 3.778-3.405 6.76-7.183 7.183v.004z"/>
  <line x1="50.088" y1="50.088" x2="33.912" y2="33.912" style="fill:none"/>
  <path class="st2" d="M50.088 51.089c-.265 0-.52-.105-.707-.293L33.2 34.619c-.384-.397-.373-1.03.024-1.414a1.0013 1.0013 0 0 1 1.39 0l16.181 16.177c.39.391.39 1.024 0 1.414a.999.999 0 0 1-.707.293z"/>
  <circle class="st4" cx="49" cy="35.867" r="3.867"/>
  <path class="st2" d="M49 40.734c-2.688 0-4.867-2.179-4.867-4.867S46.312 31 49 31s4.867 2.179 4.867 4.867c-.003 2.687-2.18 4.864-4.867 4.867zM49 33c-1.583 0-2.867 1.284-2.867 2.867s1.284 2.867 2.867 2.867 2.867-1.284 2.867-2.867C51.865 34.284 50.583 33.002 49 33z"/>
  <circle class="st4" cx="34.999" cy="48.133" r="3.867"/>
  <path class="st2" d="M35 53c-2.688 0-4.867-2.179-4.867-4.867s2.179-4.867 4.867-4.867 4.867 2.179 4.867 4.867v.001C39.864 50.82 37.686 52.997 35 53zm0-7.733c-1.583 0-2.867 1.284-2.867 2.867s1.284 2.867 2.867 2.867 2.867-1.284 2.867-2.867c-.002-1.583-1.284-2.865-2.867-2.867z"/>
</svg>
