<svg id="ad-code-editor-l" xmlns="http://www.w3.org/2000/svg" viewBox="0 0 82 82"><defs><style>.cls-1{fill:#f2f2f2;opacity:0;}.cls-2{fill:#d9eeff;}.cls-3{fill:#0b68ff;}.cls-4{fill:#fff;}</style></defs><rect class="cls-1" width="82" height="82"/><rect class="cls-2" x="25.47" y="18.47" width="39.58" height="54.43" rx="3.89" ry="3.89" transform="translate(90.94 0.43) rotate(90)"/><path class="cls-3" d="M63.58,61.47H16.93A4.9,4.9,0,0,1,12,56.57V24.77a4.9,4.9,0,0,1,4.89-4.89H63.58a4.9,4.9,0,0,1,4.89,4.89v31.8A4.9,4.9,0,0,1,63.58,61.47ZM16.93,21.88A2.89,2.89,0,0,0,14,24.77v31.8a2.89,2.89,0,0,0,2.89,2.89H63.58a2.89,2.89,0,0,0,2.89-2.89V24.77a2.89,2.89,0,0,0-2.89-2.89Z"/><circle class="cls-3" cx="18.59" cy="26.22" r="1.29"/><circle class="cls-3" cx="23.76" cy="26.22" r="1.29"/><circle class="cls-3" cx="28.93" cy="26.22" r="1.29"/><rect class="cls-4" x="41.67" y="30.5" width="30.94" height="21.84" rx="1.58" ry="1.58" transform="translate(114.28 82.85) rotate(180)"/><path class="cls-3" d="M71,53.35H43.25a2.58,2.58,0,0,1-2.58-2.58V32.08a2.58,2.58,0,0,1,2.58-2.58H71a2.58,2.58,0,0,1,2.58,2.58V50.77A2.58,2.58,0,0,1,71,53.35ZM43.25,31.5a.58.58,0,0,0-.58.58V50.77a.58.58,0,0,0,.58.58H71a.58.58,0,0,0,.58-.58V32.08A.58.58,0,0,0,71,31.5Z"/><path class="cls-3" d="M51.49,46.88a1,1,0,0,1-.71-.29l-4.45-4.45a1,1,0,0,1,0-1.41l4.45-4.45a1,1,0,0,1,1.41,1.41l-3.75,3.75,3.75,3.75a1,1,0,0,1-.71,1.71Z"/><path class="cls-3" d="M62.79,46.88a1,1,0,0,1-.71-1.71l3.75-3.75-3.75-3.75a1,1,0,0,1,1.41-1.41L68,40.72a1,1,0,0,1,0,1.41L63.5,46.58A1,1,0,0,1,62.79,46.88Z"/><path class="cls-3" d="M56,48.8l-.18,0A1,1,0,0,1,55,47.62l2.28-12.75a1,1,0,1,1,2,.35L57,48A1,1,0,0,1,56,48.8Z"/><path class="cls-3" d="M35.64,36.93h-15a1,1,0,0,1,0-2h15a1,1,0,0,1,0,2Z"/><path class="cls-3" d="M29.07,41.5H20.63a1,1,0,0,1,0-2h8.44a1,1,0,0,1,0,2Z"/><path class="cls-3" d="M33.82,46.08H20.63a1,1,0,1,1,0-2H33.82a1,1,0,0,1,0,2Z"/><path class="cls-3" d="M28.13,50.65h-7.7a1,1,0,0,1,0-2h7.7a1,1,0,0,1,0,2Z"/></svg>