<svg id="ad-deeplinking-l" xmlns="http://www.w3.org/2000/svg" viewBox="0 0 82 82">
    <defs>
        <style>.clsdl1{fill:#f2f2f2;opacity:0;}.clsdl2{fill:#d9eeff;}.clsdl3{fill:#0b68ff;}</style>
    </defs>
    <rect class="clsdl1" width="82" height="82"/>
    <rect class="clsdl2" x="20.11" y="28.88" width="50" height="34" rx="3.9" ry="3.9"
          transform="translate(90.99 0.77) rotate(90)"/>
    <path class="clsdl3"
          d="M54.21,67.88H28a4.9,4.9,0,0,1-4.9-4.9V20.78a4.9,4.9,0,0,1,4.9-4.9H54.21a4.9,4.9,0,0,1,4.9,4.9V31.32a1,1,0,0,1-2,0V20.78a2.9,2.9,0,0,0-2.9-2.9H28a2.9,2.9,0,0,0-2.9,2.9V63a2.9,2.9,0,0,0,2.9,2.9H54.21a2.9,2.9,0,0,0,2.9-2.9V56a1,1,0,0,1,2,0v7A4.9,4.9,0,0,1,54.21,67.88Z"/>
    <path class="clsdl3" d="M44.29,24H33.87a1,1,0,0,1,0-2H44.29a1,1,0,0,1,0,2Z"/>
    <circle class="clsdl3" cx="49.65" cy="23.04" r="1"/>
    <path class="clsdl3"
          d="M51.58,49.06H44a5.72,5.72,0,1,1,0-11.44h5.48a1,1,0,0,1,0,2H44a3.72,3.72,0,1,0,0,7.44h7.58a3.72,3.72,0,0,0,3.72-3.72,1,1,0,0,1,2,0A5.73,5.73,0,0,1,51.58,49.06Z"/>
    <path class="clsdl3"
          d="M64.18,49.06H58.7a1,1,0,0,1,0-2h5.48a3.72,3.72,0,1,0,0-7.44H56.61a3.72,3.72,0,0,0-3.72,3.72,1,1,0,0,1-2,0,5.73,5.73,0,0,1,5.72-5.72h7.58a5.72,5.72,0,1,1,0,11.44Z"/>
</svg>