<?xml version="1.0" encoding="utf-8"?>
<!-- Generator: Adobe Illustrator 20.1.0, SVG Export Plug-In . SVG Version: 6.00 Build 0)  -->
<svg version="1.1" id="Warstwa_1" class="ad-folder-basic" xmlns="http://www.w3.org/2000/svg" xmlns:xlink="http://www.w3.org/1999/xlink" x="0px" y="0px"
	 viewBox="0 0 82 82" style="enable-background:new 0 0 82 82;" xml:space="preserve">
<style type="text/css">
	.ad-folder-basic .st0{fill:#F2F2F2;fill-opacity:0;}
	.ad-folder-basic .st1{fill:#D9EEFF;}
	.ad-folder-basic .st2{fill:#0B68FF;}
	.ad-folder-basic .st3{fill:#FFFFFF;}
</style>
<g id="Warstwa_1_1_">
	<rect y="0" class="st0" width="82" height="82"/>
</g>
<g id="Warstwa_3">
	<ellipse transform="matrix(0.8006 -0.5992 0.5992 0.8006 -12.7389 35.6259)" class="st1" cx="47.2" cy="37" rx="5.9" ry="5.9"/>
	
		<rect x="50.3" y="16.9" transform="matrix(0.7756 -0.6312 0.6312 0.7756 -1.559 40.1652)" class="st1" width="10.7" height="10.7"/>
	<path class="st1" d="M66,30.4l2.8,7.8c0.4,1-0.1,2.2-1.2,2.6c-0.3,0.1-0.7,0.2-1.1,0.1l-8.1-1.5c-1.1-0.2-1.8-1.2-1.6-2.3
		c0.1-0.4,0.2-0.7,0.5-1l5.3-6.3c0.7-0.9,2-1,2.8-0.3C65.7,29.8,65.9,30.1,66,30.4z"/>
	<g id="folder-m">
		<path class="st1" d="M16.7,71.2h56c2.9,0,5.3-2.4,5.3-5.3l0,0V33.6c0-2.9-2.4-5.3-5.3-5.3l0,0H46.9c-1.4,0-2.8-0.6-3.8-1.6
			l-6.4-6.4c-1-1-2.4-1.6-3.8-1.6H16.7c-2.9,0-5.3,2.4-5.3,5.3v41.7C11.3,68.8,13.7,71.2,16.7,71.2L16.7,71.2z"/>
	</g>
	<g id="folder-m-2">
		<path class="st2" d="M67.3,66.8h-56C7.8,66.8,5,64,5,60.5V18.8c0-3.5,2.8-6.3,6.3-6.3h16.3c1.7,0,3.3,0.7,4.5,1.9l6.4,6.4
			c0.8,0.8,1.9,1.3,3.1,1.3h25.8c3.5,0,6.3,2.8,6.3,6.3v32.2C73.7,64,70.8,66.8,67.3,66.8z M11.3,14.5c-2.4,0-4.3,1.9-4.3,4.3v41.7
			c0,2.4,1.9,4.3,4.3,4.3h56c2.4,0,4.3-1.9,4.3-4.3V28.3c0-2.4-2-4.3-4.3-4.3H41.5c-1.7,0-3.3-0.7-4.5-1.9l-6.4-6.4
			c-0.8-0.8-1.9-1.3-3.1-1.3L11.3,14.5z"/>
	</g>
	<path class="st2" d="M41.6,54.9H20.2c-0.6,0-1-0.4-1-1s0.4-1,1-1h21.3c0.6,0,1,0.4,1,1S42.1,54.9,41.6,54.9z"/>
	<path class="st2" d="M28.2,48.2h-8c-0.6,0-1-0.4-1-1s0.4-1,1-1h8c0.6,0,1,0.4,1,1S28.8,48.2,28.2,48.2z"/>
	<ellipse transform="matrix(0.8006 -0.5992 0.5992 0.8006 -11.6041 33.36)" class="st3" cx="44.3" cy="34.1" rx="5.9" ry="5.9"/>
	<path class="st2" d="M44.3,41c-3.8,0-6.9-3.1-6.9-6.9c0-2.2,1-4.2,2.8-5.5l0,0c3-2.3,7.4-1.7,9.6,1.4s1.7,7.4-1.4,9.6
		C47.3,40.5,45.8,41,44.3,41z M44.3,29.2c-1.1,0-2.1,0.4-2.9,1l0,0c-2.1,1.6-2.6,4.7-0.9,6.9s4.7,2.6,6.9,0.9
		c2.1-1.6,2.6-4.7,0.9-6.9C47.3,29.9,45.9,29.2,44.3,29.2z M40.8,29.4L40.8,29.4z"/>
	
		<rect x="47.5" y="14.1" transform="matrix(0.7756 -0.6312 0.6312 0.7756 -0.4146 37.7398)" class="st3" width="10.7" height="10.7"/>
	<path class="st2" d="M52.1,28c-0.3,0-0.6-0.1-0.8-0.4l-6.8-8.3c-0.4-0.4-0.3-1.1,0.1-1.4c0,0,0,0,0,0l8.3-6.8
		c0.4-0.4,1.1-0.3,1.4,0.1c0,0,0,0,0,0l6.8,8.3c0.4,0.4,0.3,1.1-0.1,1.4c0,0,0,0,0,0l-8.3,6.8C52.5,27.9,52.3,28,52.1,28z
		 M46.7,18.8l5.5,6.8l6.8-5.5l-5.5-6.8L46.7,18.8z"/>
	<path class="st3" d="M63.2,27.6l2.8,7.8c0.4,1-0.2,2.2-1.2,2.6c-0.3,0.1-0.7,0.1-1,0.1l-8.1-1.5c-1.1-0.2-1.8-1.2-1.6-2.3
		c0.1-0.4,0.2-0.7,0.5-1l5.3-6.2c0.7-0.9,2-1,2.8-0.3C62.8,27,63,27.3,63.2,27.6z"/>
	<path class="st2" d="M64,39.1c-0.2,0-0.4,0-0.5,0l-8.1-1.5c-1.6-0.3-2.7-1.8-2.4-3.5c0.1-0.5,0.3-1,0.7-1.5l5.4-6.3
		c1.1-1.3,3-1.4,4.2-0.4c0.4,0.3,0.7,0.8,0.9,1.3l0,0l2.7,7.7c0.6,1.6-0.3,3.3-1.8,3.8C64.7,38.9,64.4,39,64,39.1L64,39.1z
		 M61.2,27.3c-0.3,0-0.6,0.1-0.8,0.4l-5.3,6.3c-0.4,0.4-0.3,1,0.1,1.4c0.1,0.1,0.3,0.2,0.5,0.2l8.2,1.4c0.5,0.1,1.1-0.2,1.2-0.8
		c0-0.2,0-0.4,0-0.5l-2.8-7.8l0,0c-0.1-0.3-0.4-0.6-0.8-0.7L61.2,27.3z"/>
</g>
</svg>
