<?xml version="1.0" encoding="utf-8"?>
<!-- Generator: Adobe Illustrator 20.1.0, SVG Export Plug-In . SVG Version: 6.00 Build 0)  -->
<svg version="1.1" id="Warstwa_1" class="ad-folder-user" xmlns="http://www.w3.org/2000/svg" xmlns:xlink="http://www.w3.org/1999/xlink" x="0px" y="0px"
	 viewBox="0 0 82 82" style="enable-background:new 0 0 82 82;" xml:space="preserve">
<style type="text/css">
	.ad-folder-user .st0{fill:#F2F2F2;fill-opacity:0;}
	.ad-folder-user .st1{fill:#D9EEFF;}
	.ad-folder-user .st2{fill:#0B68FF;}
	.ad-folder-user .st3{fill:#FFFFFF;}
</style>
<g id="Warstwa_1_1_">
	<rect y="0" class="st0" width="82" height="82"/>
</g>
<g id="Warstwa_2">
	<g id="folder-m">
		<path class="st1" d="M16.7,71.2h56c2.9,0,5.3-2.4,5.3-5.3l0,0V33.6c0-2.9-2.4-5.3-5.3-5.3l0,0H46.9c-1.4,0-2.8-0.6-3.8-1.6
			l-6.4-6.4c-1-1-2.4-1.6-3.8-1.6H16.7c-2.9,0-5.3,2.4-5.3,5.3v41.7C11.3,68.8,13.7,71.2,16.7,71.2L16.7,71.2z"/>
	</g>
	<g id="folder-m-2">
		<path class="st2" d="M67.3,66.8h-56C7.8,66.8,5,64,5,60.5V18.8c0-3.5,2.8-6.3,6.3-6.3h16.3c1.7,0,3.3,0.7,4.5,1.9l6.4,6.4
			c0.8,0.8,1.9,1.3,3.1,1.3h25.8c3.5,0,6.3,2.8,6.3,6.3v32.2C73.7,64,70.8,66.8,67.3,66.8z M11.3,14.5c-2.4,0-4.3,1.9-4.3,4.3v41.7
			c0,2.4,1.9,4.3,4.3,4.3h56c2.4,0,4.3-1.9,4.3-4.3V28.3c0-2.4-2-4.3-4.3-4.3H41.5c-1.7,0-3.3-0.7-4.5-1.9l-6.4-6.4
			c-0.8-0.8-1.9-1.3-3.1-1.3L11.3,14.5z"/>
	</g>
	<circle class="st3" cx="50.9" cy="26.4" r="15.4"/>
	<path class="st2" d="M50.9,42.8c-9.1,0-16.4-7.3-16.4-16.4S41.9,10,50.9,10s16.4,7.3,16.4,16.4C67.3,35.5,60,42.8,50.9,42.8z
		 M50.9,12c-7.9,0-14.4,6.4-14.4,14.4S43,40.8,50.9,40.8s14.4-6.4,14.4-14.4C65.3,18.5,58.9,12,50.9,12L50.9,12z"/>
	<path class="st2" d="M41.6,54.9H20.2c-0.6,0-1-0.4-1-1s0.4-1,1-1h21.3c0.6,0,1,0.4,1,1S42.1,54.9,41.6,54.9z"/>
	<path class="st2" d="M28.2,48.2h-8c-0.6,0-1-0.4-1-1s0.4-1,1-1h8c0.6,0,1,0.4,1,1S28.8,48.2,28.2,48.2z"/>
	<path class="st3" d="M56.2,33.9c-0.2-3.7-1.9-5.2-5.3-5.3c-3.4,0.1-5.1,1.6-5.3,5.3H56.2z"/>
	<path class="st2" d="M56.2,34.9H45.6c-0.6,0-1-0.4-1-1c0,0,0,0,0-0.1c0.3-4.2,2.3-6.1,6.3-6.3c4.1,0.1,6.1,2.1,6.4,6.3
		C57.3,34.3,56.9,34.8,56.2,34.9C56.3,34.9,56.3,34.9,56.2,34.9L56.2,34.9z M46.7,32.9h8.4c-0.4-2.3-1.6-3.3-4.2-3.3
		C48.3,29.6,47.1,30.5,46.7,32.9z"/>
	<circle class="st3" cx="50.9" cy="21.2" r="3.3"/>
	<path class="st2" d="M50.9,25.5c-2.4,0-4.3-1.9-4.3-4.3s1.9-4.3,4.3-4.3s4.3,1.9,4.3,4.3v0C55.2,23.6,53.3,25.5,50.9,25.5z
		 M50.9,18.9c-1.3,0-2.3,1-2.3,2.3s1,2.3,2.3,2.3s2.3-1,2.3-2.3v0C53.2,19.9,52.2,18.9,50.9,18.9L50.9,18.9z"/>
</g>
</svg>
