<svg id="additional-large" xmlns="http://www.w3.org/2000/svg" viewBox="0 0 30.85 24.31"><defs><style>.cls-1{fill:#d9eeff;}.cls-2{fill:#0b68ff;}</style></defs><title>Artboard 1</title><path id="folder-m" class="cls-1" d="M7.07,24.31H28.78a2.07,2.07,0,0,0,2.07-2.07V9.76a2.07,2.07,0,0,0-2.07-2.07h-10a2.07,2.07,0,0,1-1.46-.61L14.84,4.61A2.07,2.07,0,0,0,13.38,4H7.07A2.07,2.07,0,0,0,5,6.07V22.24A2.07,2.07,0,0,0,7.07,24.31Z"/><g id="folder-m-2" data-name="folder-m"><path class="cls-2" d="M24.78,22.31H3.07A3.07,3.07,0,0,1,0,19.24V3.07A3.07,3.07,0,0,1,3.07,0H9.38a3,3,0,0,1,2.17.9L14,3.38a1.06,1.06,0,0,0,.76.31h10a3.07,3.07,0,0,1,3.07,3.07V19.24A3.07,3.07,0,0,1,24.78,22.31ZM3.07,2A1.07,1.07,0,0,0,2,3.07V19.24a1.07,1.07,0,0,0,1.07,1.07H24.78a1.07,1.07,0,0,0,1.07-1.07V6.76a1.07,1.07,0,0,0-1.07-1.07h-10a3,3,0,0,1-2.17-.9L10.13,2.31A1.06,1.06,0,0,0,9.38,2Z"/></g></svg>