<svg id="additional-large" xmlns="http://www.w3.org/2000/svg" viewBox="0 0 30.85 24.31"><defs><style>.cls-1{fill:#d9eeff;}.cls-2{fill:#0b68ff;}.cls-3{fill:#fff;}.cls-4{fill:#ffba00;}</style></defs><title>Artboard 1</title><path id="folder-m" class="cls-1" d="M7.07,24.31H28.78a2.07,2.07,0,0,0,2.07-2.07V9.76a2.07,2.07,0,0,0-2.07-2.07h-10a2.07,2.07,0,0,1-1.46-.61L14.84,4.61A2.07,2.07,0,0,0,13.38,4H7.07A2.07,2.07,0,0,0,5,6.07V22.24A2.07,2.07,0,0,0,7.07,24.31Z"/><g id="folder-m-2" data-name="folder-m"><path class="cls-2" d="M24.78,22.31a1,1,0,0,1,0-2,1.07,1.07,0,0,0,1.07-1.07V6.76a1.07,1.07,0,0,0-1.07-1.07h-10a3,3,0,0,1-2.17-.9L10.13,2.31A1.06,1.06,0,0,0,9.38,2H3.07A1.07,1.07,0,0,0,2,3.07V19.24a1.07,1.07,0,0,0,1.07,1.07H8.49a1,1,0,1,1,0,2H3.07A3.07,3.07,0,0,1,0,19.24V3.07A3.07,3.07,0,0,1,3.07,0H9.38a3,3,0,0,1,2.17.9L14,3.38a1.06,1.06,0,0,0,.76.31h10a3.07,3.07,0,0,1,3.07,3.07V19.24A3.07,3.07,0,0,1,24.78,22.31Z"/></g><polygon class="cls-3" points="16.64 12.16 18.45 15.83 22.5 16.42 19.57 19.27 20.26 23.31 16.64 21.4 13.01 23.31 13.71 19.27 10.77 16.42 14.83 15.83 16.64 12.16"/><path class="cls-4" d="M20.26,24.31a1,1,0,0,1-.47-.11l-3.16-1.66-3.16,1.66A1,1,0,0,1,12,23.14l.6-3.52-2.56-2.49a1,1,0,0,1,.55-1.71l3.53-.51,1.58-3.2a1,1,0,0,1,.9-.56h0a1,1,0,0,1,.9.56l1.58,3.2,3.53.51a1,1,0,0,1,.55,1.71l-2.56,2.49.6,3.52a1,1,0,0,1-1,1.17Zm-3.62-3.9a1,1,0,0,1,.47.11l1.83,1-.35-2a1,1,0,0,1,.29-.88l1.48-1.44-2-.3a1,1,0,0,1-.75-.55l-.91-1.85-.92,1.85a1,1,0,0,1-.75.55l-2,.3,1.48,1.44a1,1,0,0,1,.29.88l-.35,2,1.83-1A1,1,0,0,1,16.64,20.4Z"/></svg>