<?xml version="1.0" encoding="utf-8"?>
<!-- Generator: Adobe Illustrator 20.1.0, SVG Export Plug-In . SVG Version: 6.00 Build 0)  -->
<svg version="1.1" id="Warstwa_1" class="ad-folder-featured" xmlns="http://www.w3.org/2000/svg" xmlns:xlink="http://www.w3.org/1999/xlink" x="0px" y="0px"
	 viewBox="0 0 82 82" style="enable-background:new 0 0 82 82;" xml:space="preserve">
<style type="text/css">
	.ad-folder-featured .st0{fill:#F2F2F2;fill-opacity:0;}
	.ad-folder-featured .st1{fill:#D9EEFF;}
	.ad-folder-featured .st2{fill:#0B68FF;}
	.ad-folder-featured .st3{fill:#FFFFFF;}
</style>
<g id="Warstwa_1_1_">
	<rect y="0" class="st0" width="82" height="82"/>
</g>
<g id="Warstwa_4">
	<g id="folder-m">
		<path class="st1" d="M16.7,71.2h56c2.9,0,5.3-2.4,5.3-5.3l0,0V33.6c0-2.9-2.4-5.3-5.3-5.3l0,0H46.9c-1.4,0-2.8-0.6-3.8-1.6
			l-6.4-6.4c-1-1-2.4-1.6-3.8-1.6H16.7c-2.9,0-5.3,2.4-5.3,5.3v41.7C11.3,68.8,13.7,71.2,16.7,71.2L16.7,71.2z"/>
	</g>
	<g id="edit-m">
		<path class="st1" d="M63,14.2l-20,20c-0.2,0.3-0.4,0.6-0.5,0.9l-1.6,7.1l7.1-1.6c0.3-0.1,0.6-0.2,0.8-0.5L69,20.1
			c0.8-0.8,0.8-2,0-2.8l-3.1-3.1C65.1,13.4,63.8,13.4,63,14.2C63,14.2,63,14.2,63,14.2z"/>
	</g>
	<g id="folder-m-2">
		<path class="st2" d="M67.3,66.8h-56C7.8,66.8,5,64,5,60.5V18.8c0-3.5,2.8-6.3,6.3-6.3h16.3c1.7,0,3.3,0.7,4.5,1.9l6.4,6.4
			c0.8,0.8,1.9,1.3,3.1,1.3h25.8c3.5,0,6.3,2.8,6.3,6.3v32.2C73.7,64,70.8,66.8,67.3,66.8z M11.3,14.5c-2.4,0-4.3,1.9-4.3,4.3v41.7
			c0,2.4,1.9,4.3,4.3,4.3h56c2.4,0,4.3-1.9,4.3-4.3V28.3c0-2.4-2-4.3-4.3-4.3H41.5c-1.7,0-3.3-0.7-4.5-1.9l-6.4-6.4
			c-0.8-0.8-1.9-1.3-3.1-1.3L11.3,14.5z"/>
	</g>
	<path class="st2" d="M41.6,54.9H20.2c-0.6,0-1-0.4-1-1s0.4-1,1-1h21.3c0.6,0,1,0.4,1,1S42.1,54.9,41.6,54.9z"/>
	<path class="st2" d="M28.2,48.2h-8c-0.6,0-1-0.4-1-1s0.4-1,1-1h8c0.6,0,1,0.4,1,1S28.8,48.2,28.2,48.2z"/>
	<path class="st1" d="M45.8,13.2l-3.2,3.2c-0.7,0.6-0.8,1.7-0.1,2.4l21.5,21.5c0.7,0.6,1.8,0.6,2.4-0.1l3.2-3.2
		c0.7-0.6,0.8-1.7,0.1-2.4L48.1,13C47.4,12.4,46.4,12.5,45.8,13.2z"/>
	<g id="interval-m">
		<path class="st3" d="M43.7,11.2l-3.2,3.2c-0.7,0.6-0.8,1.7-0.1,2.4l21.5,21.5c0.7,0.6,1.8,0.6,2.4-0.1l3.2-3.2
			c0.7-0.6,0.8-1.7,0.1-2.4L46.1,11C45.4,10.4,44.3,10.5,43.7,11.2C43.7,11.2,43.7,11.2,43.7,11.2z"/>
		<path class="st2" d="M63,39.6c-0.7,0-1.3-0.3-1.8-0.7L39.7,17.4c-1-1.1-0.9-2.8,0.1-3.8l3.1-3.2c1-1.1,2.7-1.2,3.8-0.1l21.5,21.5
			c0.5,0.5,0.7,1.2,0.7,1.9c0,0.7-0.4,1.4-0.9,1.9L65,38.8c-0.5,0.5-1.2,0.8-1.9,0.9H63z M45.1,11.6c-0.2,0-0.5,0.1-0.6,0.3L41.3,15
			c-0.3,0.2-0.4,0.7-0.1,1l21.5,21.5c0.1,0.1,0.3,0.2,0.4,0.1c0.2,0,0.4-0.1,0.6-0.3l3.2-3.2c0.2-0.2,0.3-0.4,0.3-0.6
			c0-0.2,0-0.3-0.1-0.4L45.4,11.7C45.3,11.6,45.2,11.6,45.1,11.6L45.1,11.6z"/>
		<path class="st2" d="M63.8,33.9c-0.6,0-1-0.4-1-1c0-0.3,0.1-0.6,0.3-0.8l1.8-1.8c0.4-0.4,1.1-0.3,1.4,0.1c0.3,0.4,0.3,0.9,0,1.3
			l-1.8,1.8C64.2,33.8,64,33.9,63.8,33.9z"/>
		<path class="st2" d="M60.1,30.3c-0.6,0-1-0.4-1-1c0-0.3,0.1-0.5,0.3-0.7l1.8-1.8c0.4-0.4,1.1-0.3,1.4,0.1c0.3,0.4,0.3,0.9,0,1.3
			L60.8,30C60.7,30.2,60.4,30.3,60.1,30.3z"/>
		<path class="st2" d="M56.5,26.7c-0.6,0-1-0.5-1-1c0-0.3,0.1-0.5,0.3-0.7l1.8-1.8c0.4-0.4,1.1-0.3,1.4,0.1c0.3,0.4,0.3,0.9,0,1.3
			l-1.8,1.8C57,26.6,56.8,26.7,56.5,26.7z"/>
		<path class="st2" d="M52.9,23.1c-0.6,0-1-0.4-1-1c0-0.3,0.1-0.5,0.3-0.7l1.8-1.8c0.5-0.3,1.1-0.2,1.4,0.3c0.2,0.3,0.2,0.8,0,1.1
			l-1.8,1.8C53.5,23,53.2,23.1,52.9,23.1z"/>
		<path class="st2" d="M49.3,19.5c-0.6,0-1-0.4-1-1c0-0.3,0.1-0.5,0.3-0.7l1.8-1.8c0.4-0.4,1.1-0.3,1.4,0.1c0.3,0.4,0.3,0.9,0,1.3
			L50,19.2C49.8,19.4,49.6,19.5,49.3,19.5z"/>
		<path class="st2" d="M45.7,15.9c-0.6,0-1-0.5-1-1c0-0.3,0.1-0.5,0.3-0.7l1.8-1.8c0.4-0.4,1.1-0.3,1.4,0.1c0.3,0.4,0.3,0.9,0,1.3
			l-1.8,1.8C46.2,15.8,46,15.9,45.7,15.9z"/>
	</g>
	<g id="edit-m-2">
		<path class="st3" d="M61.3,11.2L41.9,30.5c-0.2,0.3-0.4,0.6-0.5,0.9l-1.5,6.9l6.9-1.5c0.3-0.1,0.6-0.2,0.8-0.4L67,16.9
			c0.7-0.7,0.7-1.9,0-2.7l-3-3C63.3,10.4,62.1,10.4,61.3,11.2C61.3,11.1,61.3,11.1,61.3,11.2z"/>
		<path class="st2" d="M39.9,39.3c-0.6,0-1-0.4-1-1c0-0.1,0-0.2,0-0.2l1.5-6.9c0.1-0.5,0.4-1,0.8-1.4l19.4-19.4c1.1-1.1,3-1.1,4.1,0
			l3,3c1.1,1.1,1.1,3,0,4.1L48.2,37.1c-0.4,0.4-0.8,0.6-1.3,0.7l-6.9,1.5L39.9,39.3z M62.6,11.6c-0.2,0-0.5,0.1-0.6,0.3l0,0
			L42.6,31.2c-0.1,0.1-0.2,0.3-0.2,0.4L41.2,37l5.4-1.2c0.1,0,0.2-0.1,0.3-0.2l19.5-19.5c0.4-0.4,0.4-0.9,0-1.3l-3-3
			C63.1,11.7,62.9,11.6,62.6,11.6z M61.3,11.2L61.3,11.2z"/>
	</g>
	<g id="edit-m-3">
		<path class="st3" d="M61.3,11.2l-2.5,2.5l5.7,5.8l2.6-2.6c0.7-0.7,0.7-1.9,0-2.7l-3-3C63.3,10.4,62.1,10.4,61.3,11.2
			C61.3,11.1,61.3,11.1,61.3,11.2z"/>
		<path class="st2" d="M64.4,20.5c-0.3,0-0.5-0.1-0.7-0.3L58,14.3c-0.4-0.4-0.4-1,0-1.4l2.5-2.5c1.1-1.1,3-1.1,4.1,0l3,3
			c1.1,1.1,1.1,3,0,4.1l-2.6,2.6C64.9,20.3,64.7,20.5,64.4,20.5z M60.2,13.7l4.2,4.4l1.8-1.9c0.4-0.4,0.4-0.9,0-1.3l-3-3
			c-0.4-0.4-0.9-0.4-1.3,0l0,0L60.2,13.7z M61.3,11.2L61.3,11.2z"/>
	</g>
</g>
</svg>
