<?xml version="1.0" encoding="utf-8"?>
<!-- Generator: Adobe Illustrator 20.1.0, SVG Export Plug-In . SVG Version: 6.00 Build 0)  -->
<svg version="1.1" id="ad-first-run-l" xmlns="http://www.w3.org/2000/svg" xmlns:xlink="http://www.w3.org/1999/xlink" x="0px"
	 y="0px" viewBox="0 0 82 82" style="enable-background:new 0 0 82 82;" xml:space="preserve">
<style type="text/css">
	.st_fr0{opacity:0;fill:#F2F2F2;}
	.st_fr1{fill:#D9EEFF;}
	.st_fr2{fill:#0B68FF;}
	.st_fr3{fill:#FFFFFF;}
</style>
<rect class="st_fr0" width="82" height="82"/>
<path class="st_fr1" d="M60,40.182c2.661,1.494,3.606,4.862,2.112,7.523c-0.497,0.885-1.228,1.616-2.112,2.112L35.452,65.045
	c-2.638,1.523-6.012,0.619-7.535-2.019c-0.484-0.839-0.739-1.79-0.739-2.758V29.732c0-3.046,2.47-5.516,5.516-5.516
	c0.968,0,1.919,0.255,2.758,0.739L60,40.182z"/>
<path class="st_fr2" d="M28.686,62.792c-3.594-0.015-6.502-2.93-6.508-6.524V25.732c0.001-3.599,2.92-6.516,6.519-6.515
	c1.143,0,2.265,0.301,3.255,0.872l24.559,15.232c3.136,1.775,4.239,5.757,2.463,8.893c-0.587,1.036-1.446,1.892-2.484,2.475
	L31.979,61.895C30.98,62.479,29.844,62.789,28.686,62.792z M28.7,21.207c-0.797,0.002-1.578,0.214-2.267,0.614
	c-1.404,0.8-2.268,2.295-2.258,3.911v30.536c0,2.494,2.022,4.516,4.516,4.516c0.793,0,1.572-0.209,2.258-0.605l24.525-15.211
	c2.191-1.203,2.992-3.954,1.79-6.145c-0.407-0.742-1.014-1.354-1.752-1.769l-0.038-0.022L30.925,21.8
	C30.248,21.41,29.481,21.205,28.7,21.207z"/>
<path class="st_fr3" d="M38.9,14.869h21.034c1.912-0.01,3.47,1.531,3.48,3.443V30.1c-0.01,1.912-1.568,3.453-3.48,3.443H46.568
	l-6.4,6.327v-6.328H38.9c-1.912,0.01-3.47-1.531-3.48-3.443V18.312C35.43,16.4,36.988,14.859,38.9,14.869z"/>
<path class="st_fr2" d="M40.173,40.869c-0.552,0-1-0.448-1-1v-5.327H38.9c-2.463,0.007-4.467-1.98-4.48-4.443V18.312
	c0.013-2.463,2.017-4.45,4.48-4.443h21.035c2.463-0.007,4.467,1.98,4.48,4.443V30.1c-0.013,2.463-2.017,4.45-4.48,4.443H46.979
	l-6.1,6.039C40.691,40.767,40.437,40.87,40.173,40.869z M38.896,15.869c-1.359-0.009-2.468,1.084-2.48,2.443V30.1
	c0.012,1.359,1.121,2.452,2.48,2.443h1.277c0.552,0,1,0.448,1,1v3.932l4.692-4.643c0.186-0.184,0.438-0.288,0.7-0.289h13.37
	c1.359,0.009,2.468-1.084,2.48-2.443V18.312c-0.012-1.359-1.121-2.452-2.48-2.443L38.896,15.869z"/>
<circle class="st_fr2" cx="49.415" cy="24.446" r="1.676"/>
<circle class="st_fr2" cx="56.832" cy="24.446" r="1.675"/>
<circle class="st_fr2" cx="41.998" cy="24.446" r="1.676"/>
</svg>
