<svg id="Warstwa_1" data-name="Warstwa 1" xmlns="http://www.w3.org/2000/svg" viewBox="0 0 48 48">
    <defs>
        <style>.cls-afi-1{opacity:0;}.cls-afi-2{fill:#f2f2f2;}.cls-afi-3{fill:#d9eeff;}.cls-afi-4{fill:#0b68ff;}</style>
    </defs>
    <g class="cls-afi-1">
        <rect class="cls-afi-2" width="48" height="48"/>
    </g>
    <rect class="cls-afi-3" x="10.44" y="15.34" width="35.12" height="24.21" rx="2.76" ry="2.76"
          transform="translate(0.56 55.44) rotate(-90)"/>
    <path class="cls-afi-4"
          d="M33.35,42H14.65a3.76,3.76,0,0,1-3.76-3.76V8.64a3.76,3.76,0,0,1,3.76-3.76h18.7A3.76,3.76,0,0,1,37.1,8.64v29.6A3.76,3.76,0,0,1,33.35,42ZM14.65,6.88A1.76,1.76,0,0,0,12.9,8.64v29.6A1.76,1.76,0,0,0,14.65,40h18.7a1.76,1.76,0,0,0,1.76-1.76V8.64a1.76,1.76,0,0,0-1.76-1.76Z"/>
    <path class="cls-afi-4"
          d="M16.66,21.95a1,1,0,0,1-1-1v-3a2.55,2.55,0,0,1,2.55-2.55h3a1,1,0,1,1,0,2h-3a.55.55,0,0,0-.55.55v3A1,1,0,0,1,16.66,21.95Z"/>
    <path class="cls-afi-4"
          d="M31.34,21.95a1,1,0,0,1-1-1v-3a.55.55,0,0,0-.55-.55h-3a1,1,0,1,1,0-2h3a2.55,2.55,0,0,1,2.55,2.55v3A1,1,0,0,1,31.34,21.95Z"/>
    <path class="cls-afi-4"
          d="M29.79,32h-3a1,1,0,1,1,0-2h3a.55.55,0,0,0,.55-.55v-3a1,1,0,1,1,2,0v3A2.55,2.55,0,0,1,29.79,32Z"/>
    <path class="cls-afi-4"
          d="M21.25,32h-3a2.55,2.55,0,0,1-2.55-2.55v-3a1,1,0,0,1,2,0v3a.55.55,0,0,0,.55.55h3a1,1,0,0,1,0,2Z"/>
</svg>