<svg id="ad-full-screen-banner-l" xmlns="http://www.w3.org/2000/svg" viewBox="0 0 82 82" style="enable-background:new 0 0 82 82">
  <style>
    .st1{fill:#0b68ff}
  </style>
  <path d="M63 24.897v42.206C63 69.255 61.255 71 59.103 71H32.897C30.745 71 29 69.255 29 67.103V24.897C29 22.745 30.745 21 32.897 21h26.206C61.255 21 63 22.745 63 24.897z" style="fill:#d9eeff"/>
  <path class="st1" d="M55.1 68H28.9c-2.706 0-4.9-2.194-4.9-4.9V20.9c0-2.706 2.194-4.9 4.9-4.9h26.2c2.706 0 4.9 2.194 4.9 4.9v42.2c0 2.706-2.194 4.9-4.9 4.9zM28.9 18c-1.602 0-2.9 1.298-2.9 2.9v42.2c0 1.602 1.298 2.9 2.9 2.9h26.2c1.602 0 2.9-1.298 2.9-2.9V20.9c0-1.602-1.298-2.9-2.9-2.9H28.9z"/>
  <path class="st1" d="M54 27c-.265 0-.52-.105-.707-.293l-4-4c-.384-.397-.373-1.03.025-1.414.388-.374 1.002-.374 1.389 0l4 4c.39.391.39 1.024 0 1.414A.999.999 0 0 1 54 27z"/>
  <path class="st1" d="M50 27c-.552 0-1-.448-1-1 0-.265.105-.519.293-.707l4-4c.397-.384 1.03-.373 1.414.025.374.388.374 1.002 0 1.389l-4 4A.9974.9974 0 0 1 50 27zm1 27H32c-.552 0-1-.448-1-1s.448-1 1-1h19c.552 0 1 .448 1 1s-.448 1-1 1zm-5 5h-9c-.552 0-1-.448-1-1s.448-1 1-1h9c.552 0 1 .448 1 1s-.448 1-1 1z"/>
  <path d="M40.131 31.083c.572-1.022 1.864-1.386 2.885-.815.342.191.624.473.815.815l5.842 9.417c.584 1.013.237 2.307-.776 2.892a2.111 2.111 0 0 1-1.057.283H36.12c-1.169 0-2.117-.948-2.116-2.118 0-.371.098-.736.283-1.057l5.844-9.417z" style="fill:#fff"/>
  <path class="st1" d="M47.839 44.68H36.12c-1.721.002-3.118-1.392-3.12-3.114A3.11 3.11 0 0 1 33.42 40l5.85-9.432c.855-1.496 2.761-2.016 4.257-1.161.491.281.897.689 1.173 1.182l5.822 9.384c.875 1.482.383 3.393-1.099 4.267-.48.283-1.027.433-1.584.433v.007zM41.98 31c-.406-.004-.782.216-.977.572l-.022.038-5.844 9.422c-.19.34-.184.755.017 1.089.197.348.567.562.967.559h11.718c.617.002 1.118-.497 1.12-1.114.001-.199-.052-.394-.152-.566l-5.828-9.39c-.193-.374-.578-.61-.999-.61zm-1.849.083z"/>
</svg>
