<svg id="Warstwa_1" data-name="Warstwa 1" xmlns="http://www.w3.org/2000/svg" viewBox="0 0 48 48">
    <defs>
        <style>.cls-afi-1{opacity:0;}.cls-afi-2{fill:#f2f2f2;}.cls-afi-3{fill:#d9eeff;}.cls-afi-4{fill:#0b68ff;}</style>
    </defs>
    <g class="cls-afi-1">
        <rect class="cls-afi-2" width="48" height="48"/>
    </g>
    <rect class="cls-afi-3" x="10.44" y="14.34" width="35.12" height="24.21" rx="2.76" ry="2.76"
          transform="translate(54.44 -1.56) rotate(90)"/>
    <path class="cls-afi-4"
          d="M11.9,11.47a1,1,0,0,1-1-1V8.64a3.76,3.76,0,0,1,3.76-3.76h1.83a1,1,0,0,1,0,2H14.65A1.76,1.76,0,0,0,12.9,8.64v1.83A1,1,0,0,1,11.9,11.47Z"/>
    <path class="cls-afi-4" d="M11.9,21.65a1,1,0,0,1-1-1V16.06a1,1,0,0,1,2,0v4.59A1,1,0,0,1,11.9,21.65Z"/>
    <path class="cls-afi-4" d="M11.9,31.82a1,1,0,0,1-1-1V26.24a1,1,0,0,1,2,0v4.58A1,1,0,0,1,11.9,31.82Z"/>
    <path class="cls-afi-4"
          d="M16.48,42H14.65a3.76,3.76,0,0,1-3.76-3.76V36.41a1,1,0,0,1,2,0v1.83A1.76,1.76,0,0,0,14.65,40h1.83a1,1,0,0,1,0,2Z"/>
    <path class="cls-afi-4" d="M26.29,42H21.71a1,1,0,0,1,0-2h4.58a1,1,0,1,1,0,2Z"/>
    <path class="cls-afi-4" d="M26.29,6.88H21.71a1,1,0,0,1,0-2h4.58a1,1,0,0,1,0,2Z"/>
    <path class="cls-afi-4"
          d="M33.35,42H31.52a1,1,0,1,1,0-2h1.83a1.76,1.76,0,0,0,1.76-1.76V36.41a1,1,0,0,1,2,0v1.83A3.76,3.76,0,0,1,33.35,42Z"/>
    <path class="cls-afi-4" d="M36.1,31.82a1,1,0,0,1-1-1V26.24a1,1,0,1,1,2,0v4.59A1,1,0,0,1,36.1,31.82Z"/>
    <path class="cls-afi-4" d="M36.1,21.65a1,1,0,0,1-1-1V16.06a1,1,0,0,1,2,0v4.59A1,1,0,0,1,36.1,21.65Z"/>
    <path class="cls-afi-4"
          d="M36.1,11.47a1,1,0,0,1-1-1V8.64a1.76,1.76,0,0,0-1.76-1.76H31.52a1,1,0,0,1,0-2h1.83A3.76,3.76,0,0,1,37.1,8.64v1.83A1,1,0,0,1,36.1,11.47Z"/>
    <path class="cls-afi-4"
          d="M27.33,19a3,3,0,1,1,2.89-3.65h0A3,3,0,0,1,27.33,19Zm0-3.94-.22,0a1,1,0,0,0-.29,1.77,1,1,0,0,0,1.45-1h0A1,1,0,0,0,27.33,15.09Z"/>
    <path class="cls-afi-4"
          d="M31.7,30.57a1,1,0,0,1-.5-.14L22,25.06l-4.83,4.5a1,1,0,0,1-1.36-1.46l5.38-5A1,1,0,0,1,22.39,23l9.82,5.75a1,1,0,0,1-.51,1.86Z"/>
</svg>