<svg xmlns="http://www.w3.org/2000/svg" viewBox="0 0 82 82"><defs><style>.cls-aiu-1{fill:#f2f2f2;fill-opacity:0;}.cls-aiu-2{fill:#d9eeff;}.cls-aiu-3{fill:#0b68ff;}.cls-aiu-4{fill:#fff;}</style></defs><g id="ad-banner-l"><rect class="cls-aiu-1" width="82" height="82"/></g><g id="Warstwa_3" data-name="Warstwa 3"><g id="file"><path class="cls-aiu-2" d="M36.38,71.44h21.2a7.1,7.1,0,0,0,7.1-7.1V38.64a7.49,7.49,0,0,0-3-6l-12.76-9.5a7,7,0,0,0-4.15-1.38H36.39a7.1,7.1,0,0,0-7.1,7.1v35.5A7.08,7.08,0,0,0,36.38,71.44Z"/></g><g id="file-2" data-name="file"><path class="cls-aiu-3" d="M53.26,68.12H32.06A8.09,8.09,0,0,1,24,60V24.54a8.11,8.11,0,0,1,8.1-8.1h8.37A8,8,0,0,1,45.18,18l12.76,9.5a8.53,8.53,0,0,1,3.42,6.81V60A8.11,8.11,0,0,1,53.26,68.12ZM32.07,18.44a6.11,6.11,0,0,0-6.1,6.1V60a6.09,6.09,0,0,0,6.08,6.08h21.2a6.11,6.11,0,0,0,6.1-6.1V34.32a6.51,6.51,0,0,0-2.61-5.2L44,19.62a6,6,0,0,0-3.55-1.18Z"/></g><rect class="cls-aiu-4" x="36.35" y="25.25" width="32.68" height="16.53" rx="1.96" ry="1.96"/><path class="cls-aiu-3" d="M67.07,42.78H38.31a3,3,0,0,1-3-3V27.21a3,3,0,0,1,3-3H67.07a3,3,0,0,1,3,3V39.82A3,3,0,0,1,67.07,42.78ZM38.31,26.25a1,1,0,0,0-1,1V39.82a1,1,0,0,0,1,1H67.07a1,1,0,0,0,1-1V27.21a1,1,0,0,0-1-1Z"/><path class="cls-aiu-3" d="M41.24,38.37a1,1,0,0,1-1-1V29.66a1,1,0,1,1,2,0v7.71A1,1,0,0,1,41.24,38.37Z"/><path class="cls-aiu-3" d="M35,60.29a3.45,3.45,0,0,1-3.44-3.44V51.42a1,1,0,0,1,2,0v5.43a1.44,1.44,0,1,0,2.88,0V51.42a1,1,0,0,1,2,0v5.43A3.45,3.45,0,0,1,35,60.29Z"/><path class="cls-aiu-3" d="M41.12,60.29a1,1,0,0,1-1-1v-3h0V51.42a1,1,0,0,1,1-1h2.47a3.41,3.41,0,0,1,0,6.82l-1.47,0v2A1,1,0,0,1,41.12,60.29Zm1-7.88v2.84l1.46,0a1.41,1.41,0,1,0,0-2.82Z"/><path class="cls-aiu-3" d="M45.67,60.29a1,1,0,0,1-.83-.44L42.76,56.8a1,1,0,1,1,1.65-1.12l2.08,3.06a1,1,0,0,1-.83,1.56Z"/><path class="cls-aiu-3" d="M54.24,60.29h-5a1,1,0,0,1-1-1V51.42a1,1,0,0,1,2,0v6.88h4a1,1,0,0,1,0,2Z"/></g></svg>