<svg xmlns="http://www.w3.org/2000/svg" viewBox="0 0 82 82"><defs><style>.cls-aiz-1{fill:#f2f2f2;fill-opacity:0;}.cls-aiz-2{fill:#d9eeff;}.cls-aiz-3{fill:#0b68ff;}.cls-aiz-4{fill:#fff;}</style></defs><g id="ad-banner-l"><rect class="cls-aiz-1" width="82" height="82"/></g><g id="Warstwa_2" data-name="Warstwa 2"><g id="file"><path class="cls-aiz-2" d="M36.38,71.44h21.2a7.1,7.1,0,0,0,7.1-7.1V38.64a7.49,7.49,0,0,0-3-6l-12.76-9.5a7,7,0,0,0-4.15-1.38H36.39a7.1,7.1,0,0,0-7.1,7.1v35.5A7.08,7.08,0,0,0,36.38,71.44Z"/></g><g id="file-2" data-name="file"><path class="cls-aiz-3" d="M53.26,68.12H32.06A8.09,8.09,0,0,1,24,60V24.54a8.11,8.11,0,0,1,8.1-8.1h8.37A8,8,0,0,1,45.18,18l12.76,9.5a8.53,8.53,0,0,1,3.42,6.81V60A8.11,8.11,0,0,1,53.26,68.12ZM32.07,18.44a6.11,6.11,0,0,0-6.1,6.1V60a6.09,6.09,0,0,0,6.08,6.08h21.2A6.11,6.11,0,0,0,59.36,60V34.32a6.51,6.51,0,0,0-2.61-5.2L44,19.62a6,6,0,0,0-3.55-1.18Z"/></g><circle class="cls-aiz-4" cx="58.32" cy="33.26" r="10.71"/><path class="cls-aiz-3" d="M58.32,21.55A11.71,11.71,0,1,1,46.61,33.26,11.72,11.72,0,0,1,58.32,21.55Zm0,21.42a9.71,9.71,0,1,0-9.71-9.71A9.72,9.72,0,0,0,58.32,43Z"/><path class="cls-aiz-3" d="M62.45,30.19a1,1,0,0,1,.71,1.71L59,36a1,1,0,0,1-1.41,0L53.48,31.9a1,1,0,0,1,1.41-1.41l3.43,3.43,3.43-3.43A1,1,0,0,1,62.45,30.19Z"/><path class="cls-aiz-3" d="M46,60.29a1,1,0,0,1-1-1v-3h0V51.42a1,1,0,0,1,1-1h2.47a3.41,3.41,0,0,1,0,6.82l-1.47,0v2A1,1,0,0,1,46,60.29Zm1-7.87v2.84l1.46,0a1.41,1.41,0,1,0,0-2.82Z"/><path class="cls-aiz-3" d="M38.54,60.29H33.66a1,1,0,0,1-.85-1.53l3.94-6.35H33.66a1,1,0,0,1,0-2h4.88a1,1,0,0,1,.85,1.53l-3.94,6.35h3.09a1,1,0,0,1,0,2Z"/><path class="cls-aiz-3" d="M41.9,60.29a1,1,0,0,1-1-1V51.42a1,1,0,0,1,2,0v7.88A1,1,0,0,1,41.9,60.29Z"/></g></svg>