<svg id="ad-insert-object-l" xmlns="http://www.w3.org/2000/svg" viewBox="0 0 82 82"><defs><style>.cls-1{fill:#f2f2f2;fill-opacity:0;}.cls-2{fill:#d9eeff;}.cls-3{fill:#0b68ff;}.cls-4{fill:#fff;}</style></defs><rect id="bg" class="cls-1" width="82" height="82"/><rect id="path11" class="cls-2" x="59.76" y="34.4" width="14.24" height="24.27" rx="2.32" ry="2.32"/><rect id="path10" class="cls-2" x="18.95" y="34.67" width="34.43" height="24.27" rx="3.6" ry="3.6"/><circle id="path9" class="cls-3" cx="22.95" cy="22.9" r="1.6"/><circle id="path8" class="cls-3" cx="29.34" cy="22.9" r="1.6"/><circle id="path7" class="cls-3" cx="35.73" cy="22.9" r="1.6"/><rect id="path6" class="cls-4" x="14" y="29.72" width="34.43" height="24.27" rx="3.6" ry="3.6"/><path id="path5" class="cls-3" d="M44.82,55H17.6a4.61,4.61,0,0,1-4.6-4.6V33.33a4.61,4.61,0,0,1,4.6-4.6H44.82a4.61,4.61,0,0,1,4.6,4.6V50.39A4.61,4.61,0,0,1,44.82,55ZM17.6,30.72a2.61,2.61,0,0,0-2.6,2.6V50.39A2.61,2.61,0,0,0,17.6,53H44.82a2.61,2.61,0,0,0,2.6-2.6V33.33a2.61,2.61,0,0,0-2.6-2.6Z"/><path id="path4" class="cls-3" d="M34,48a1,1,0,0,1-.51-1.86,4.57,4.57,0,1,0-6.88-3.94,1,1,0,0,1-2,0,6.57,6.57,0,1,1,9.89,5.66A1,1,0,0,1,34,48Z"/><path id="path3" class="cls-3" d="M64.11,23.9H42.45a1,1,0,0,1,0-2H64.11a1,1,0,0,1,0,2Z"/><path id="path2" class="cls-3" d="M64.11,63H22.25a1,1,0,0,1,0-2H64.11a1,1,0,0,1,0,2Z"/><path id="path1" class="cls-3" d="M66.73,54.73H57.13a3.32,3.32,0,0,1-3.32-3.32V31.77a3.32,3.32,0,0,1,3.32-3.32h9.61a3.32,3.32,0,0,1,3.32,3.32V51.41A3.32,3.32,0,0,1,66.73,54.73ZM57.13,30.45a1.32,1.32,0,0,0-1.32,1.32V51.41a1.32,1.32,0,0,0,1.32,1.32h9.61a1.32,1.32,0,0,0,1.32-1.32V31.77a1.32,1.32,0,0,0-1.32-1.32Z"/></svg>