<svg id="Warstwa_1" data-name="Warstwa 1" xmlns="http://www.w3.org/2000/svg" viewBox="0 0 48 48">
    <defs>
        <style>.cls-afi-1{opacity:0;}.cls-afi-2{fill:#f2f2f2;}.cls-afi-3{fill:#d9eeff;}.cls-afi-4{fill:#0b68ff;}</style>
    </defs>
    <g class="cls-afi-1">
        <rect class="cls-afi-2" width="48" height="48"/>
    </g>
    <rect class="cls-afi-3" x="10.44" y="15.34" width="35.12" height="24.21" rx="2.76" ry="2.76"
          transform="translate(0.56 55.44) rotate(-90)"/>
    <path class="cls-afi-4"
          d="M33.35,42H14.65a3.76,3.76,0,0,1-3.76-3.75V8.64a3.76,3.76,0,0,1,3.76-3.76h18.7A3.76,3.76,0,0,1,37.1,8.64v29.6A3.76,3.76,0,0,1,33.35,42ZM14.65,6.88A1.76,1.76,0,0,0,12.9,8.64v29.6A1.76,1.76,0,0,0,14.65,40h18.7a1.76,1.76,0,0,0,1.75-1.75V8.64a1.76,1.76,0,0,0-1.75-1.76Z"/>
    <g id="remove">
        <path class="cls-afi-4" d="M31.52,17.44H27.23a1,1,0,0,1,0-2h4.28a1,1,0,0,1,0,2Z"/>
        <path class="cls-afi-4" d="M31.52,21.72a1,1,0,0,1-1-1V16.44a1,1,0,1,1,2,0v4.28A1,1,0,0,1,31.52,21.72Z"/>
    </g>
    <g id="remove-2" data-name="remove">
        <path class="cls-afi-4" d="M20.77,32.47H16.48a1,1,0,0,1,0-2h4.28a1,1,0,0,1,0,2Z"/>
        <path class="cls-afi-4" d="M16.48,32.47a1,1,0,0,1-1-1V27.19a1,1,0,0,1,2,0v4.28A1,1,0,0,1,16.48,32.47Z"/>
    </g>
    <g id="remove-3" data-name="remove">
        <path class="cls-afi-4" d="M31.52,32.47a1,1,0,0,1-1-1V27.19a1,1,0,0,1,2,0v4.28A1,1,0,0,1,31.52,32.47Z"/>
        <path class="cls-afi-4" d="M31.52,32.47H27.23a1,1,0,1,1,0-2h4.28a1,1,0,0,1,0,2Z"/>
    </g>
    <g id="remove-4" data-name="remove">
        <path class="cls-afi-4" d="M16.48,21.72a1,1,0,0,1-1-1V16.44a1,1,0,1,1,2,0v4.28A1,1,0,0,1,16.48,21.72Z"/>
        <path class="cls-afi-4" d="M20.77,17.44H16.48a1,1,0,0,1,0-2h4.28a1,1,0,0,1,0,2Z"/>
    </g>
    <path class="cls-afi-4"
          d="M31.52,32.47a1,1,0,0,1-.71-.29l-4.28-4.28a1,1,0,0,1,1.41-1.41l4.28,4.28a1,1,0,0,1-.71,1.71Z"/>
    <path class="cls-afi-4" d="M20.77,21.72a1,1,0,0,1-.71-.29l-4.28-4.28a1,1,0,0,1,1.41-1.41L21.47,20a1,1,0,0,1-.71,1.71Z"/>
    <path class="cls-afi-4"
          d="M16.48,32.47a1,1,0,0,1-.71-1.71l4.28-4.28a1,1,0,0,1,1.41,1.41l-4.28,4.28A1,1,0,0,1,16.48,32.47Z"/>
    <path class="cls-afi-4"
          d="M27.23,21.72A1,1,0,0,1,26.53,20l4.28-4.28a1,1,0,0,1,1.41,1.41l-4.28,4.28A1,1,0,0,1,27.23,21.72Z"/>
</svg>