<?xml version="1.0" encoding="utf-8"?>
<!-- Generator: Adobe Illustrator 20.1.0, SVG Export Plug-In . SVG Version: 6.00 Build 0)  -->
<svg version="1.1" id="ad-mandatory-update-l" xmlns="http://www.w3.org/2000/svg" xmlns:xlink="http://www.w3.org/1999/xlink"
	 x="0px" y="0px" viewBox="0 0 82 82" style="enable-background:new 0 0 82 82;" xml:space="preserve">
<style type="text/css">
	.st0{fill:#D9EEFF;}
	.st1{fill:#0B68FF;}
	.st2{fill:#FFFFFF;}
</style>
<circle class="st0" cx="46" cy="44" r="24.55"/>
<path class="st1" d="M42,66.55c-14.111,0-25.55-11.439-25.55-25.55S27.889,15.45,42,15.45S67.55,26.889,67.55,41
	C67.534,55.104,56.104,66.534,42,66.55z M42,17.45c-13.006,0-23.55,10.544-23.55,23.55S28.994,64.55,42,64.55S65.55,54.006,65.55,41
	l0,0C65.535,28,55,17.465,42,17.45z"/>
<path class="st2" d="M42.682,51.6l8.776-6.383L48.1,40.6l-4.237,3.082V29.85h-5.72v13.83L33.9,40.6l-3.358,4.62l8.778,6.38
	C40.322,52.329,41.68,52.329,42.682,51.6z"/>
<path class="st1" d="M41,53.151c-0.816,0-1.61-0.259-2.269-0.74l-8.777-6.383c-0.447-0.324-0.547-0.949-0.224-1.396
	c0.001-0.001,0.002-0.002,0.003-0.004l3.361-4.623c0.324-0.447,0.949-0.547,1.396-0.224c0.001,0.001,0.002,0.002,0.004,0.003
	l2.651,1.928V29.851c0-0.552,0.448-1,1-1h5.717c0.552,0,1,0.448,1,1v11.864l2.648-1.926c0.214-0.157,0.482-0.221,0.744-0.179
	s0.496,0.186,0.652,0.4l3.362,4.623c0.326,0.446,0.228,1.072-0.217,1.397c-0.001,0.001-0.002,0.002-0.004,0.003l-8.777,6.378l0,0
	C42.611,52.892,41.816,53.151,41,53.151z M42.682,51.6L42.682,51.6z M31.938,45l7.97,5.795c0.651,0.475,1.535,0.475,2.186,0
	L50.062,45l-2.187-3l-3.428,2.493c-0.447,0.325-1.072,0.226-1.397-0.221c-0.124-0.171-0.191-0.377-0.191-0.588V30.851h-3.716V43.68
	c0,0.552-0.448,1-1,1c-0.211,0-0.417-0.067-0.588-0.191l-3.431-2.494L31.938,45z"/>
<circle class="st2" cx="59.311" cy="24.934" r="8.082"/>
<path class="st1" d="M59.311,34.016c-5.016,0-9.082-4.066-9.082-9.082s4.066-9.082,9.082-9.082s9.082,4.066,9.082,9.082l0,0
	C68.387,29.948,64.325,34.01,59.311,34.016z M59.311,17.852c-3.911,0-7.082,3.171-7.082,7.082s3.171,7.082,7.082,7.082
	s7.082-3.171,7.082-7.082l0,0C66.389,21.024,63.221,17.856,59.311,17.852z"/>
<path class="st1" d="M62.123,28.939c-0.216,0-0.427-0.07-0.6-0.2L58.4,26.413c-0.252-0.189-0.4-0.485-0.4-0.8V21
	c0-0.552,0.448-1,1-1s1,0.448,1,1v4.109l2.722,2.028c0.442,0.331,0.531,0.958,0.2,1.4c-0.189,0.252-0.485,0.4-0.8,0.4L62.123,28.939
	z"/>
</svg>
