<svg id="ad-mandatory-update-l" xmlns="http://www.w3.org/2000/svg" viewBox="0 0 82 82" style="enable-background:new 0 0 82 82">
  <style>
    .st1{fill:#0b68ff}.st2{fill:#fff}
  </style>
  <circle cx="46" cy="44" r="24.55" style="fill:#d9eeff"/>
  <path class="st1" d="M42 66.55c-14.111 0-25.55-11.439-25.55-25.55S27.889 15.45 42 15.45 67.55 26.889 67.55 41C67.534 55.104 56.104 66.534 42 66.55zm0-49.1c-13.006 0-23.55 10.544-23.55 23.55S28.994 64.55 42 64.55 65.55 54.006 65.55 41C65.535 28 55 17.465 42 17.45z"/>
  <path class="st2" d="M42.682 51.6l8.776-6.383L48.1 40.6l-4.237 3.082V29.85h-5.72v13.83L33.9 40.6l-3.358 4.62 8.778 6.38c1.002.729 2.36.729 3.362 0z"/>
  <path class="st1" d="M41 53.151c-.816 0-1.61-.259-2.269-.74l-8.777-6.383c-.447-.324-.547-.949-.224-1.396.001-.001.002-.002.003-.004l3.361-4.623c.324-.447.949-.547 1.396-.224.001.001.002.002.004.003l2.651 1.928V29.851c0-.552.448-1 1-1h5.717c.552 0 1 .448 1 1v11.864l2.648-1.926c.214-.157.482-.221.744-.179s.496.186.652.4l3.362 4.623c.326.446.228 1.072-.217 1.397-.001.001-.002.002-.004.003l-8.777 6.378c-.659.481-1.454.74-2.27.74zm1.682-1.551zM31.938 45l7.97 5.795c.651.475 1.535.475 2.186 0L50.062 45l-2.187-3-3.428 2.493c-.447.325-1.072.226-1.397-.221a1.0023 1.0023 0 0 1-.191-.588V30.851h-3.716V43.68c0 .552-.448 1-1 1-.211 0-.417-.067-.588-.191l-3.431-2.494L31.938 45z"/>
  <circle class="st2" cx="59.311" cy="24.934" r="8.082"/>
  <path class="st1" d="M59.311 34.016c-5.016 0-9.082-4.066-9.082-9.082s4.066-9.082 9.082-9.082 9.082 4.066 9.082 9.082c-.006 5.014-4.068 9.076-9.082 9.082zm0-16.164c-3.911 0-7.082 3.171-7.082 7.082s3.171 7.082 7.082 7.082 7.082-3.171 7.082-7.082c-.004-3.91-3.172-7.078-7.082-7.082z"/>
  <path class="st1" d="M62.123 28.939c-.216 0-.427-.07-.6-.2L58.4 26.413a.9993.9993 0 0 1-.4-.8V21c0-.552.448-1 1-1s1 .448 1 1v4.109l2.722 2.028c.442.331.531.958.2 1.4-.189.252-.485.4-.8.4l.001.002z"/>
</svg>
