<svg id="ad-open-app-l" xmlns="http://www.w3.org/2000/svg" viewBox="0 0 82 82">
    <defs>
        <style>.clsoia1{fill:#f2f2f2;opacity:0;}.clsoia2{fill:#d9eeff;}.clsoia3{fill:#0b68ff;}.clsoia4{fill:#fff;}</style>
    </defs>
    <rect class="clsoia1" width="82" height="82"/>
    <rect class="clsoia2" x="15.82" y="25.8" width="50" height="34" rx="3.9" ry="3.9"
          transform="translate(83.62 1.98) rotate(90)"/>
    <path class="clsoia3" d="M40,21H29.58a1,1,0,0,1,0-2H40a1,1,0,0,1,0,2Z"/>
    <circle class="clsoia3" cx="45.37" cy="19.96" r="1"/>
    <path class="clsoia3"
          d="M49.92,64.8H23.71a4.9,4.9,0,0,1-4.9-4.9V17.69a4.9,4.9,0,0,1,4.9-4.9H49.92a4.9,4.9,0,0,1,4.9,4.9v4.79a1,1,0,0,1-2,0V17.69a2.9,2.9,0,0,0-2.9-2.9H23.71a2.9,2.9,0,0,0-2.9,2.9V59.9a2.9,2.9,0,0,0,2.9,2.9H49.92a2.9,2.9,0,0,0,2.9-2.9V57.11a1,1,0,0,1,2,0V59.9A4.9,4.9,0,0,1,49.92,64.8Z"/>
    <rect class="clsoia4" x="41.15" y="28.85" width="24.3" height="24.3" rx="4.65" ry="4.65"/>
    <path class="clsoia3"
          d="M60.8,54.15h-15a5.66,5.66,0,0,1-5.65-5.65v-15a5.66,5.66,0,0,1,5.65-5.65h15a5.66,5.66,0,0,1,5.65,5.65v15A5.66,5.66,0,0,1,60.8,54.15Zm-15-24.3a3.65,3.65,0,0,0-3.65,3.65v15a3.65,3.65,0,0,0,3.65,3.65h15a3.65,3.65,0,0,0,3.65-3.65v-15a3.65,3.65,0,0,0-3.65-3.65Z"/>
    <path class="clsoia3" d="M36.15,49.5a1,1,0,0,1-1-1v-15a1,1,0,0,1,2,0v15A1,1,0,0,1,36.15,49.5Z"/>
    <path class="clsoia3"
          d="M56,47a1,1,0,0,1-.51-1.86,4.42,4.42,0,1,0-6.65-3.81,1,1,0,1,1-2,0,6.42,6.42,0,1,1,9.66,5.53A1,1,0,0,1,56,47Z"/>
</svg>