<svg id="ad-on-exit-l" xmlns="http://www.w3.org/2000/svg" viewBox="0 0 82 82"><defs><style>.cls-1{fill:#f2f2f2;fill-opacity:0;}.cls-2{fill:#d9eeff;}.cls-3{fill:#0b68ff;}.cls-4{fill:#fff;}</style></defs><rect id="bg" class="cls-1" width="82" height="82"/><g id="folder-m"><path class="cls-2" d="M67.06,65h-42a4,4,0,0,1-4-4V36.89a4,4,0,0,1,4-4H44.4a4,4,0,0,0,2.83-1.17l4.8-4.8a4,4,0,0,1,2.83-1.17h12.2a4,4,0,0,1,4,4V61A4,4,0,0,1,67.06,65Z"/></g><path class="cls-3" d="M67.06,37.06H23.52a1,1,0,1,1,0-2H67.06a1,1,0,0,1,0,2Z"/><path class="cls-4" d="M36.89,42.29l13-10.34a.41.41,0,0,1,.67.32V49.16a.41.41,0,0,1-.74.26L46,44.71l-2.86,5.73a.87.87,0,0,1-1.17.39l-1.91-1a.87.87,0,0,1-.39-1.17L42.56,43H37.15A.41.41,0,0,1,36.89,42.29Z"/><path class="cls-3" d="M42.41,51.92a1.85,1.85,0,0,1-.83-.2l-1.91-1a1.87,1.87,0,0,1-.84-2.51L40.95,44h-3.8a1.41,1.41,0,0,1-.88-2.52h0l13-10.34a1.41,1.41,0,0,1,2.29,1.1V49.16A1.41,1.41,0,0,1,49,50l-2.77-3.48-2.16,4.33a1.85,1.85,0,0,1-1.08.94A1.89,1.89,0,0,1,42.41,51.92ZM40.68,49l1.67.84,2.81-5.61a1,1,0,0,1,.79-.55,1,1,0,0,1,.89.37l2.7,3.4v-14L38.83,42h3.74a1,1,0,0,1,.89,1.45Z"/><g id="folder-m-2" data-name="folder-m"><path class="cls-3" d="M63.06,62h-42a5,5,0,0,1-5-5V32.89a5,5,0,0,1,5-5H40.4A3,3,0,0,0,42.52,27l4.8-4.8a5,5,0,0,1,3.54-1.46h12.2a5,5,0,0,1,5,5V57A5,5,0,0,1,63.06,62Zm-42-32.14a3,3,0,0,0-3,3V57a3,3,0,0,0,3,3h42a3,3,0,0,0,3-3V25.75a3,3,0,0,0-3-3H50.86a3,3,0,0,0-2.12.88l-4.8,4.8a5,5,0,0,1-3.54,1.46Z"/></g><path class="cls-3" d="M61.22,32.51a1,1,0,0,1-.71-.29L55.29,27a1,1,0,0,1,1.41-1.41l5.22,5.22a1,1,0,0,1-.71,1.71Z"/><path class="cls-3" d="M56,32.51a1,1,0,0,1-.71-1.71l5.22-5.22A1,1,0,0,1,61.92,27L56.7,32.22A1,1,0,0,1,56,32.51Z"/><circle class="cls-3" cx="17.55" cy="23.49" r="1.23"/><circle class="cls-3" cx="22.47" cy="23.49" r="1.23"/><circle class="cls-3" cx="27.39" cy="23.49" r="1.23"/></svg>