<svg id="ad-on-landing-l" xmlns="http://www.w3.org/2000/svg" viewBox="0 0 82 82"><defs><style>.cls-1{fill:#f2f2f2;fill-opacity:0;}.cls-2{fill:#d9eeff;}.cls-3{fill:#0b68ff;}</style></defs><rect id="bg" class="cls-1" width="82" height="82"/><rect class="cls-2" x="26.71" y="17.99" width="39.58" height="54.43" rx="3.89" ry="3.89" transform="translate(91.71 -1.29) rotate(90)"/><path class="cls-3" d="M64.82,61H18.18a4.9,4.9,0,0,1-4.89-4.89V24.3a4.9,4.9,0,0,1,4.89-4.89H64.82a4.9,4.9,0,0,1,4.89,4.89V56.1A4.9,4.9,0,0,1,64.82,61ZM18.18,21.41a2.89,2.89,0,0,0-2.89,2.89V56.1A2.89,2.89,0,0,0,18.18,59H64.82a2.89,2.89,0,0,0,2.89-2.89V24.3a2.89,2.89,0,0,0-2.89-2.89Z"/><circle class="cls-3" cx="19.84" cy="25.74" r="1.29"/><circle class="cls-3" cx="25" cy="25.74" r="1.29"/><circle class="cls-3" cx="30.17" cy="25.74" r="1.29"/><path class="cls-3" d="M33,50a1,1,0,0,1-1-1V35a1,1,0,0,1,2,0V49A1,1,0,0,1,33,50Z"/><path class="cls-3" d="M43,50a1,1,0,0,1-1-1V35a1,1,0,0,1,2,0V49A1,1,0,0,1,43,50Z"/><path class="cls-3" d="M50,50a1,1,0,0,1-1-1V39a1,1,0,0,1,2,0V49A1,1,0,0,1,50,50Z"/><path class="cls-3" d="M43,43H33a1,1,0,0,1,0-2H43a1,1,0,0,1,0,2Z"/><path class="cls-3" d="M50.07,35.71A2.88,2.88,0,1,1,53,32.82,2.89,2.89,0,0,1,50.07,35.71Zm0-3.77a.88.88,0,1,0,.88.88A.88.88,0,0,0,50.07,31.94Z"/></svg>