<svg width="96" height="96" viewBox="0 0 96 96" fill="none" xmlns="http://www.w3.org/2000/svg">
	<g clip-path="url(#clip0_1310_911)">
		<path d="M86.3066 71.5432V34.3139C86.3066 31.7987 84.2677 29.7598 81.7525 29.7598L27.1379 29.7598C24.6227 29.7598 22.5837 31.7987 22.5837 34.3139V71.5432C22.5837 74.0584 24.6227 76.0973 27.1379 76.0973H81.7525C84.2677 76.0973 86.3066 74.0584 86.3066 71.5432Z" fill="#D9EEFF" />
		<path d="M75.8864 71.4149H21.2835C19.7661 71.4118 18.3117 70.8076 17.2388 69.7347C16.1658 68.6617 15.5617 67.2074 15.5586 65.69V28.449C15.5617 26.9316 16.1658 25.4773 17.2388 24.4043C18.3117 23.3314 19.7661 22.7272 21.2835 22.7241H75.8864C77.4038 22.7272 78.8581 23.3314 79.9311 24.4043C81.004 25.4773 81.6082 26.9316 81.6113 28.449V65.6783C81.6113 67.1977 81.0085 68.655 79.9352 69.7305C78.8619 70.806 77.4058 71.4118 75.8864 71.4149ZM21.2835 25.0656C20.3861 25.0656 19.5255 25.4221 18.891 26.0566C18.2565 26.6911 17.9001 27.5517 17.9001 28.449V65.6783C17.8985 66.1236 17.9849 66.5648 18.1542 66.9766C18.3236 67.3885 18.5726 67.7629 18.8869 68.0783C19.2012 68.3937 19.5747 68.644 19.986 68.8147C20.3972 68.9855 20.8382 69.0734 21.2835 69.0734H75.8864C76.7837 69.0734 77.6443 68.7169 78.2788 68.0824C78.9133 67.4479 79.2698 66.5873 79.2698 65.69V28.449C79.2698 27.5517 78.9133 26.6911 78.2788 26.0566C77.6443 25.4221 76.7837 25.0656 75.8864 25.0656H21.2835Z" fill="#0B68FF" />
		<path d="M23.227 31.645C24.0611 31.645 24.7373 30.9688 24.7373 30.1348C24.7373 29.3007 24.0611 28.6245 23.227 28.6245C22.393 28.6245 21.7168 29.3007 21.7168 30.1348C21.7168 30.9688 22.393 31.645 23.227 31.645Z" fill="#0B68FF" />
		<path d="M29.2681 31.645C30.1021 31.645 30.7783 30.9688 30.7783 30.1348C30.7783 29.3007 30.1021 28.6245 29.2681 28.6245C28.434 28.6245 27.7578 29.3007 27.7578 30.1348C27.7578 30.9688 28.434 31.645 29.2681 31.645Z" fill="#0B68FF" />
		<path d="M35.3208 31.645C36.1549 31.645 36.831 30.9688 36.831 30.1348C36.831 29.3007 36.1549 28.6245 35.3208 28.6245C34.4867 28.6245 33.8105 29.3007 33.8105 30.1348C33.8105 30.9688 34.4867 31.645 35.3208 31.645Z" fill="#0B68FF" />
		<path d="M43 41H36C34.8954 41 34 41.8954 34 43V45.5C34 46.6046 34.8954 47.5 36 47.5H41C42.1046 47.5 43 48.3954 43 49.5V53C43 54.1046 42.1046 55 41 55H34" stroke="#0B68FF" stroke-width="2" stroke-linecap="round" />
		<path d="M49 55H52C53.1046 55 54 54.1046 54 53V49.5C54 48.3954 53.1046 47.5 52 47.5H49C47.8954 47.5 47 48.3954 47 49.5V53C47 54.1046 47.8954 55 49 55Z" stroke="#0B68FF" stroke-width="2" stroke-linecap="round" />
		<path d="M54 41V55" stroke="#0B68FF" stroke-width="2" stroke-linecap="round" />
		<path d="M58.5 41V55" stroke="#0B68FF" stroke-width="2" stroke-linecap="round" />
		<path d="M58.5 50L65.5 55" stroke="#0B68FF" stroke-width="2" stroke-linecap="round" />
		<path d="M58.5 50L64 47.5" stroke="#0B68FF" stroke-width="2" stroke-linecap="round" />
	</g>
	<defs>
		<clipPath id="clip0_1310_911">
			<rect width="96" height="96" fill="white" />
		</clipPath>
	</defs>
</svg>
