<svg id="ad-open-url-l" xmlns="http://www.w3.org/2000/svg" viewBox="0 0 82 82">
    <defs>
        <style>.clsou-1{fill:#f2f2f2;opacity:0;}.clsou-2{fill:#d9eeff;}.clsou-3{fill:#0b68ff;}.clsou-4{fill:#fff;}</style>
    </defs>
    <rect class="clsou-1" width="82" height="82"/>
    <rect class="clsou-2" x="25.4" y="18.65" width="39.58" height="54.43" rx="3.89" ry="3.89"
          transform="translate(91.06 0.67) rotate(90)"/>
    <path class="clsou-3"
          d="M63.52,61.64H16.87A4.9,4.9,0,0,1,12,56.75V25a4.9,4.9,0,0,1,4.89-4.89H63.52A4.9,4.9,0,0,1,68.41,25v31.8A4.9,4.9,0,0,1,63.52,61.64ZM16.87,22.06A2.89,2.89,0,0,0,14,25v31.8a2.89,2.89,0,0,0,2.89,2.89H63.52a2.89,2.89,0,0,0,2.89-2.89V25a2.89,2.89,0,0,0-2.89-2.89Z"/>
    <circle class="clsou-3" cx="18.53" cy="26.39" r="1.29"/>
    <circle class="clsou-3" cx="23.7" cy="26.39" r="1.29"/>
    <circle class="clsou-3" cx="28.87" cy="26.39" r="1.29"/>
    <rect class="clsou-4" x="17.97" y="31.41" width="32.01" height="16.18" rx="1.92" ry="1.92"/>
    <path class="clsou-3"
          d="M48.06,48.6H19.89A2.92,2.92,0,0,1,17,45.68V33.33a2.92,2.92,0,0,1,2.92-2.92H48.06A2.92,2.92,0,0,1,51,33.33V45.68A2.92,2.92,0,0,1,48.06,48.6ZM19.89,32.41a.92.92,0,0,0-.92.92V45.68a.92.92,0,0,0,.92.92H48.06a.92.92,0,0,0,.92-.92V33.33a.92.92,0,0,0-.92-.92Z"/>
    <path class="clsou-3"
          d="M24.66,44.5a3.39,3.39,0,0,1-3.39-3.39V35.79a1,1,0,0,1,2,0v5.32a1.39,1.39,0,0,0,2.78,0V35.79a1,1,0,0,1,2,0v5.32A3.39,3.39,0,0,1,24.66,44.5Z"/>
    <path class="clsou-3"
          d="M30.64,44.5a1,1,0,0,1-1-1v-3h0V35.79a1,1,0,0,1,1-1h2.42a3.36,3.36,0,1,1,0,6.72l-1.42,0v2A1,1,0,0,1,30.64,44.5Zm1-7.71v2.74l1.41,0a1.36,1.36,0,1,0,0-2.72Z"/>
    <path class="clsou-3" d="M35.1,44.5a1,1,0,0,1-.83-.44l-2-3a1,1,0,0,1,1.65-1.12l2,3a1,1,0,0,1-.83,1.56Z"/>
    <path class="clsou-3" d="M43.5,44.5H38.57a1,1,0,0,1-1-1V35.79a1,1,0,0,1,2,0V42.5H43.5a1,1,0,1,1,0,2Z"/>
</svg>