<svg id="ad-onboarding-l" xmlns="http://www.w3.org/2000/svg" viewBox="0 0 82 82" style="enable-background:new 0 0 82 82">
  <style>
    .st0{fill:#d9eeff}.st1{fill:#0b68ff}
  </style>
  <path class="st0" d="M72.215 31.1v31.801c0 2.149-1.742 3.891-3.891 3.891H21.677c-2.149 0-3.891-1.742-3.891-3.891V31.1c0-2.149 1.742-3.891 3.891-3.891h46.647c2.149 0 3.891 1.742 3.891 3.891z"/>
  <path class="st1" d="M64.323 63.791H17.676c-2.699-.006-4.885-2.192-4.89-4.891V27.1c.005-2.699 2.192-4.886 4.891-4.891h46.646c2.7.004 4.887 2.191 4.892 4.891v31.8c-.005 2.7-2.192 4.887-4.892 4.891zM17.676 24.208c-1.596.002-2.889 1.296-2.89 2.892v31.8c.002 1.596 1.295 2.889 2.891 2.891h46.646c1.596-.001 2.89-1.295 2.892-2.891V27.1c-.002-1.596-1.296-2.89-2.892-2.891l-46.647-.001z"/>
  <path d="M58 20.897v42.206C58 65.255 56.255 67 54.103 67H27.897C25.745 67 24 65.255 24 63.103V20.897C24 18.745 25.745 17 27.897 17h26.206C56.255 17 58 18.745 58 20.897z" style="fill:#fff"/>
  <path class="st1" d="M54.1 68H27.9c-2.706 0-4.9-2.194-4.9-4.9V20.9c0-2.706 2.194-4.9 4.9-4.9h26.2c2.706 0 4.9 2.194 4.9 4.9v42.2c0 2.706-2.194 4.9-4.9 4.9zM27.9 18c-1.602 0-2.9 1.298-2.9 2.9v42.2c0 1.602 1.298 2.9 2.9 2.9h26.2c1.602 0 2.9-1.298 2.9-2.9V20.9c0-1.602-1.298-2.9-2.9-2.9H27.9z"/>
  <path class="st1" d="M52 29.167H30c-.552 0-1-.448-1-1s.448-1 1-1h22c.552 0 1 .448 1 1s-.448 1-1 1zM48.25 35H34.462c-.552 0-1-.448-1-1s.448-1 1-1H48.25c.552 0 1 .448 1 1s-.448 1-1 1zm0 5.833H34.462c-.552 0-1-.448-1-1s.448-1 1-1H48.25c.552 0 1 .448 1 1s-.448 1-1 1z"/>
  <circle class="st0" cx="41" cy="58.958" r="1.875"/>
  <circle class="st0" cx="47" cy="58.958" r="1.875"/>
  <circle class="st1" cx="35" cy="58.958" r="1.875"/>
</svg>
