<svg xmlns="http://www.w3.org/2000/svg" viewBox="0 0 82 82"><title>ad-personalized-ai-l</title><rect width="82" height="82" style="fill:#fff;opacity:0"/><path d="M58.4,60.7l-12-5.9a5.29939,5.29939,0,0,0-4.6,0l-12,5.9a2.51985,2.51985,0,0,1-3.4-1.2,2.01584,2.01584,0,0,1-.3-1.1V33.1a4.65288,4.65288,0,0,1,4.6-4.6H57.4A4.65287,4.65287,0,0,1,62,33.1V58.5A2.47571,2.47571,0,0,1,59.5,61,2.01584,2.01584,0,0,1,58.4,60.7Z" style="fill:#d9eeff"/><path d="M55.5,58a3.16651,3.16651,0,0,1-1.6-.4l-12-5.9a4.23611,4.23611,0,0,0-3.8,0l-12,5.9A3.47322,3.47322,0,0,1,21.4,56a4.19073,4.19073,0,0,1-.4-1.5V29.1a5.5908,5.5908,0,0,1,5.6-5.6H42.8a1,1,0,0,1,0,2H26.7a3.585,3.585,0,0,0-3.6,3.6V54.5A1.538,1.538,0,0,0,24.6,56a1.854,1.854,0,0,0,.7-.2l12-5.9a5.93935,5.93935,0,0,1,5.5,0l12,5.9a1.52843,1.52843,0,0,0,2.1-.7,1.44531,1.44531,0,0,0,.2-.7V43.8a1,1,0,0,1,2,0V54.4A3.64986,3.64986,0,0,1,55.5,58Z" style="fill:#0b68ff"/><path d="M60.1,37.4A1.36707,1.36707,0,0,0,61.5,36v-.3c-.9-3.5-3.5-5.2-8.1-5.3-4.6.1-7.3,1.8-8.1,5.3a1.39094,1.39094,0,0,0,1.1,1.7H60.1Z" style="fill:#fff"/><path d="M60.1,38.4H46.6a2.46275,2.46275,0,0,1-1.9-.9,2.39474,2.39474,0,0,1-.4-2c1-4,3.9-5.9,9.1-6.1,5.2.1,8.1,2.1,9.1,6.1a2.39474,2.39474,0,0,1-.4,2A2.87594,2.87594,0,0,1,60.1,38.4Zm-6.7-7c-4.2.1-6.4,1.5-7.1,4.5a.36737.36737,0,0,0,.1.3c.1.1.2.2.3.2H60.1c.1,0,.3-.1.3-.2a.36737.36737,0,0,0,.1-.3C59.8,32.9,57.6,31.5,53.4,31.4Z" style="fill:#0b68ff"/><circle cx="53.4" cy="22.5" r="3.5" style="fill:#fff"/><path d="M53.4,27a4.5,4.5,0,1,1,4.5-4.5h0A4.54576,4.54576,0,0,1,53.4,27Zm0-7a2.5,2.5,0,1,0,2.5,2.5h0A2.47572,2.47572,0,0,0,53.4,20Z" style="fill:#0b68ff"/></svg>