<svg id="ad-pre-built-segments-l" xmlns="http://www.w3.org/2000/svg" viewBox="0 0 82 82" style="enable-background:new 0 0 82 82">
  <style>
    .st2{fill:#0b68ff}.st3{fill:#fff}
  </style>
  <rect width="82" height="82" style="opacity:0;fill:#f2f2f2"/>
  <circle cx="45.114" cy="45" r="24.973" style="fill:#d9eeff"/>
  <path class="st2" d="M41.114 66.973C26.77 66.973 15.141 55.344 15.141 41S26.77 15.027 41.114 15.027 67.087 26.656 67.087 41c-.015 14.338-11.635 25.958-25.973 25.973zm0-49.945c-13.24 0-23.973 10.733-23.973 23.973s10.733 23.973 23.973 23.973 23.973-10.733 23.973-23.973V41c-.015-13.234-10.739-23.958-23.973-23.972z"/>
  <path class="st3" d="M29.005 36.22c0-6.625 5.37-11.995 11.995-11.995s11.995 5.37 11.995 11.995S47.625 48.215 41 48.215c-6.621-.008-11.987-5.374-11.995-11.995z"/>
  <path class="st2" d="M41 49.215c-7.177-.003-12.993-5.823-12.99-13 .003-7.177 5.823-12.993 13-12.99C48.185 23.228 54 29.045 54 36.22c-.008 7.176-5.824 12.99-13 12.995zm0-23.989c-6.072.003-10.993 4.928-10.99 11 .003 6.072 4.928 10.993 11 10.99 6.071-.003 10.991-4.925 10.99-10.996-.007-6.071-4.929-10.99-11-10.994z"/>
  <path class="st3" d="M37.143 24.867l.018-.006.054-.017c6.29-2.086 13.081 1.322 15.168 7.612.66 1.991.787 4.12.368 6.175-.322.019-.645.032-.972.032-6.594 0-12.169-3.941-14.008-9.36a10.284 10.284 0 0 1-8.538 4.591c.841-4.203 3.854-7.642 7.91-9.027z"/>
  <path class="st2" d="M51.779 39.663c-5.96.141-11.487-3.104-14.268-8.378a11.647 11.647 0 0 1-8.254 3.608c-.552.013-1.01-.424-1.024-.976a.9276.9276 0 0 1 .019-.217c.908-4.544 4.16-8.264 8.542-9.771l.047-.017c6.799-2.297 14.173 1.352 16.47 8.15.737 2.18.881 4.516.419 6.77a.9998.9998 0 0 1-.92.8c-.34.017-.684.031-1.031.031zM37.771 28.3c.429 0 .809.273.947.679 1.762 5.193 7.011 8.682 13.061 8.682h.121c.801-6.014-3.425-11.538-9.438-12.339-1.658-.221-3.344-.06-4.93.469l-.066.021a11.0379 11.0379 0 0 0-6.905 6.958 9.113 9.113 0 0 0 6.362-4c.183-.292.503-.47.848-.47zm-.628-3.436z"/>
  <path class="st3" d="M49 49.888c-.322-.1-.673-.034-.937.177l-6.43 5.144c-.371.297-.899.297-1.27 0l-6.43-5.144a1.015 1.015 0 0 0-.933-.177 22.7472 22.7472 0 0 0-11.009 7.3c8.929 10.499 24.679 11.773 35.178 2.844 1.023-.87 1.974-1.821 2.844-2.844A22.7515 22.7515 0 0 0 49 49.888z"/>
  <path class="st2" d="M41 66.973a25.9398 25.9398 0 0 1-19.771-9.14.999.999 0 0 1-.019-1.275 23.628 23.628 0 0 1 11.49-7.624 2 2 0 0 1 1.86.352l6.43 5.142 6.45-5.144c.522-.421 1.22-.552 1.859-.35a23.628 23.628 0 0 1 11.49 7.624.999.999 0 0 1-.019 1.275c-4.93 5.8-12.158 9.141-19.77 9.14zm-17.691-9.8c8.921 9.771 24.073 10.46 33.844 1.539.536-.489 1.05-1.003 1.539-1.539a21.8328 21.8328 0 0 0-9.992-6.331h-.013l-6.427 5.147c-.736.592-1.784.592-2.52 0l-6.43-5.143a21.7857 21.7857 0 0 0-10.001 6.323v.004zM41 21.147c-.552 0-1-.448-1-1V13.39c0-.552.448-1 1-1s1 .448 1 1v6.757c0 .552-.448 1-1 1z"/>
  <path class="st2" d="M41.114 69.609c-.552 0-1-.448-1-1v-6.756c0-.552.448-1 1-1s1 .448 1 1v6.757c-.001.552-.448.999-1 .999zm27.495-27.666h-6.756c-.552 0-1-.448-1-1s.448-1 1-1h6.757c.552 0 1 .448 1 1s-.448 1-1.001 1zm-48.462.114h-6.756c-.552 0-1-.448-1-1s.448-1 1-1h6.757c.552 0 1 .448 1 1s-.448 1-1.001 1zm35.979-15.623c-.552-.001-.999-.449-.998-1.002 0-.137.029-.273.083-.398l2.726-6.218c.545-1.242 1.773-2.043 3.129-2.044h7.544c.552 0 1 .448 1 1s-.448 1-1 1h-7.545a1.417 1.417 0 0 0-1.3.848l-2.726 6.218c-.16.362-.518.595-.913.596zM68.609 14.39h-5.838c-.552 0-1-.448-1-1s.448-1 1-1h5.839c.552 0 1 .448 1 1s-.448 1-1.001 1z"/>
</svg>
