<svg xmlns="http://www.w3.org/2000/svg" viewBox="0 0 82 82"><rect width="82" height="82" style="fill:#f1f1f1;opacity:0"/><rect x="20.25209" y="25.19762" width="50" height="34" rx="3.89706" transform="translate(87.44971 -3.05447) rotate(90)" style="fill:#d9eeff"/><path d="M54.35547,64.19727H28.14893a4.90211,4.90211,0,0,1-4.897-4.89649V17.09473a4.90253,4.90253,0,0,1,4.897-4.897H54.35547a4.90211,4.90211,0,0,1,4.89648,4.897V27.63379a1,1,0,0,1-2,0V17.09473a2.90044,2.90044,0,0,0-2.89648-2.897H28.14893a2.90056,2.90056,0,0,0-2.897,2.897V59.30078a2.90045,2.90045,0,0,0,2.897,2.89649H54.35547A2.90034,2.90034,0,0,0,57.252,59.30078v-7.001a1,1,0,0,1,2,0v7.001A4.90169,4.90169,0,0,1,54.35547,64.19727Z" style="fill:#0b68ff"/><path d="M44.43652,20.36279H34.01709a1,1,0,0,1,0-2H44.43652a1,1,0,0,1,0,2Z" style="fill:#0b68ff"/><circle cx="49.79992" cy="19.36291" r="1" style="fill:#0b68ff"/><path d="M51.72266,45.376H44.14453a5.71851,5.71851,0,0,1,0-11.437H49.626a1,1,0,0,1,0,2H44.14453a3.71851,3.71851,0,0,0,0,7.437h7.57813a3.72263,3.72263,0,0,0,3.71875-3.71875,1,1,0,0,1,2,0A5.72524,5.72524,0,0,1,51.72266,45.376Z" style="fill:#0b68ff"/><path d="M64.3291,45.376H58.84766a1,1,0,1,1,0-2H64.3291a3.71851,3.71851,0,1,0,0-7.437H56.751a3.72253,3.72253,0,0,0-3.71875,3.71827,1,1,0,0,1-2,0A5.72514,5.72514,0,0,1,56.751,33.939H64.3291a5.71851,5.71851,0,1,1,0,11.437Z" style="fill:#0b68ff"/><circle cx="28.25246" cy="57.50249" r="11.29989" style="fill:#fff"/><path d="M28.25244,69.7959a12.29462,12.29462,0,0,1-8.69726-20.99024h0A12.2998,12.2998,0,1,1,28.25244,69.7959Zm0-22.58789a10.268,10.268,0,0,0-7.2832,3.01172h0a10.31229,10.31229,0,1,0,7.2832-3.01172ZM20.26221,49.5127h0Z" style="fill:#0b68ff"/><path d="M28.35205,63.97363a6.50753,6.50753,0,0,1-6.5-6.5,3.745,3.745,0,0,1,.06348-.61425,1.73884,1.73884,0,0,0,.03662-.28614,1,1,0,0,1,2,0,3.7451,3.7451,0,0,1-.06348.61426,1.73872,1.73872,0,0,0-.03662.28613,4.50492,4.50492,0,0,0,4.5,4.5,2.01258,2.01258,0,0,0,.582-.04883,1.0001,1.0001,0,1,1,.63574,1.89649A3.66729,3.66729,0,0,1,28.35205,63.97363Z" style="fill:#0b68ff"/><path d="M33.65186,59.37305a.99974.99974,0,0,1-1-1,3.78806,3.78806,0,0,1,.06347-.61426,1.73953,1.73953,0,0,0,.03662-.28516,4.50492,4.50492,0,0,0-4.5-4.5,2.03057,2.03057,0,0,0-.58447.04883,1.00026,1.00026,0,0,1-.63086-1.89844,3.69838,3.69838,0,0,1,1.21533-.15039,6.50753,6.50753,0,0,1,6.5,6.5,3.73409,3.73409,0,0,1-.06347.61426,1.73953,1.73953,0,0,0-.03662.28516A.99974.99974,0,0,1,33.65186,59.37305Z" style="fill:#0b68ff"/></svg>
