<svg xmlns="http://www.w3.org/2000/svg" viewBox="0 0 82 82"><title>ad-similar-ai-l</title><rect width="82" height="82" style="fill:#fff;opacity:0"/><path d="M58.4,60.7l-12-5.9a5.29939,5.29939,0,0,0-4.6,0l-12,5.9a2.51985,2.51985,0,0,1-3.4-1.2,2.01584,2.01584,0,0,1-.3-1.1V33.1a4.65288,4.65288,0,0,1,4.6-4.6H57.4A4.65287,4.65287,0,0,1,62,33.1h0V58.5A2.47571,2.47571,0,0,1,59.5,61,2.01584,2.01584,0,0,1,58.4,60.7Z" style="fill:#d9eeff"/><path d="M55.5,58a3.16651,3.16651,0,0,1-1.6-.4l-12-5.9a4.23611,4.23611,0,0,0-3.8,0l-12,5.9A3.47322,3.47322,0,0,1,21.4,56a4.19073,4.19073,0,0,1-.4-1.5V29.1a5.5908,5.5908,0,0,1,5.6-5.6h8.6a1,1,0,0,1,0,2H26.6A3.585,3.585,0,0,0,23,29.1V54.5A1.538,1.538,0,0,0,24.5,56a1.854,1.854,0,0,0,.7-.2l12-5.9a5.93935,5.93935,0,0,1,5.5,0l12,5.9a1.52843,1.52843,0,0,0,2.1-.7,1.44531,1.44531,0,0,0,.2-.7V43.8a1,1,0,0,1,2,0V54.4A3.50153,3.50153,0,0,1,55.5,58Z" style="fill:#0b68ff"/><path d="M51.2,25h8A2.7951,2.7951,0,0,1,62,27.8v8a2.7951,2.7951,0,0,1-2.8,2.8h-8a2.7951,2.7951,0,0,1-2.8-2.8v-8A2.7951,2.7951,0,0,1,51.2,25Z" style="fill:#fff"/><path d="M44,19.5h8a2.7951,2.7951,0,0,1,2.8,2.8v8A2.7951,2.7951,0,0,1,52,33.1H44a2.7951,2.7951,0,0,1-2.8-2.8v-8A2.7951,2.7951,0,0,1,44,19.5Z" style="fill:#fff"/><path d="M59.2,24H55.8V22.4A3.79831,3.79831,0,0,0,52,18.6H44a3.79831,3.79831,0,0,0-3.8,3.8v8A3.79831,3.79831,0,0,0,44,34.2h3.4v1.6a3.79831,3.79831,0,0,0,3.8,3.8h8A3.79831,3.79831,0,0,0,63,35.8v-8A3.79831,3.79831,0,0,0,59.2,24ZM44,32.2a1.79252,1.79252,0,0,1-1.8-1.8v-8A1.79252,1.79252,0,0,1,44,20.6h8a1.79252,1.79252,0,0,1,1.8,1.8V24H51.2a3.79831,3.79831,0,0,0-3.8,3.8v4.4ZM53.8,26v4.4A1.79252,1.79252,0,0,1,52,32.2H49.4V27.8A1.79252,1.79252,0,0,1,51.2,26ZM61,35.8a1.79252,1.79252,0,0,1-1.8,1.8h-8a1.79252,1.79252,0,0,1-1.8-1.8V34.2H52a3.79831,3.79831,0,0,0,3.8-3.8V26h3.4A1.79252,1.79252,0,0,1,61,27.8Z" style="fill:#0b68ff"/></svg>