<svg id="Warstwa_1" data-name="Warstwa 1" xmlns="http://www.w3.org/2000/svg" viewBox="0 0 48 48">
    <defs>
        <style>.cls-afi-1{opacity:0;}.cls-afi-2{fill:#f2f2f2;}.cls-afi-3{fill:#d9eeff;}.cls-afi-4{fill:#0b68ff;}</style>
    </defs>
    <g class="cls-afi-1">
        <rect class="cls-afi-2" width="48" height="48"/>
    </g>
    <rect class="cls-afi-3" x="10.44" y="15.34" width="35.12" height="24.21" rx="2.76" ry="2.76"
          transform="translate(0.56 55.44) rotate(-90)"/>
    <g id="remove">
        <path class="cls-afi-4"
              d="M28.8,24.44a1,1,0,0,1-.71-.29l-5.44-5.44a1,1,0,0,1,1.41-1.41l5.44,5.44a1,1,0,0,1-.71,1.71Z"/>
        <path class="cls-afi-4"
              d="M23.36,29.88a1,1,0,0,1-.71-1.71l5.44-5.44a1,1,0,0,1,1.41,1.41l-5.44,5.44A1,1,0,0,1,23.36,29.88Z"/>
    </g>
    <path class="cls-afi-4" d="M27.37,24.44H11.9a1,1,0,0,1,0-2H27.37a1,1,0,0,1,0,2Z"/>
    <path class="cls-afi-4"
          d="M33.35,42H14.65a3.76,3.76,0,0,1-3.76-3.76V29.5a1,1,0,0,1,2,0v8.75A1.76,1.76,0,0,0,14.65,40h18.7a1.76,1.76,0,0,0,1.75-1.76V8.64a1.76,1.76,0,0,0-1.75-1.76H14.65A1.76,1.76,0,0,0,12.9,8.64v8.75a1,1,0,0,1-2,0V8.64a3.76,3.76,0,0,1,3.76-3.76h18.7A3.76,3.76,0,0,1,37.1,8.64v29.6A3.76,3.76,0,0,1,33.35,42Z"/>
</svg>