<?xml version="1.0" encoding="utf-8"?>
<!-- Generator: Adobe Illustrator 20.1.0, SVG Export Plug-In . SVG Version: 6.00 Build 0)  -->
<svg version="1.1" id="ad-simple-push-l" xmlns="http://www.w3.org/2000/svg" xmlns:xlink="http://www.w3.org/1999/xlink" x="0px"
	 y="0px" viewBox="0 0 82 82" style="enable-background:new 0 0 82 82;" xml:space="preserve">
<style type="text/css">
	.st_sp0{fill:#F2F2F2;fill-opacity:0;}
	.st_sp1{fill:#D9EEFF;}
	.st_sp2{fill:#0B68FF;}
	.st_sp3{fill:#FFFFFF;}
</style>
<rect class="st_sp0" width="82" height="82"/>
<g>
	<path class="st_sp1" d="M63,24.9v42.2c0,2.2-1.7,3.9-3.9,3.9H32.9c-2.2,0-3.9-1.7-3.9-3.9V24.9c0-2.2,1.7-3.9,3.9-3.9h26.2
		C61.3,21,63,22.7,63,24.9z"/>
</g>
<g>
	<path class="st_sp2" d="M55.1,68H28.9c-2.7,0-4.9-2.2-4.9-4.9V20.9c0-2.7,2.2-4.9,4.9-4.9h26.2c2.7,0,4.9,2.2,4.9,4.9v42.2
		C60,65.8,57.8,68,55.1,68z M28.9,18c-1.6,0-2.9,1.3-2.9,2.9v42.2c0,1.6,1.3,2.9,2.9,2.9h26.2c1.6,0,2.9-1.3,2.9-2.9V20.9
		c0-1.6-1.3-2.9-2.9-2.9H28.9z"/>
</g>
<g>
	<path class="st_sp2" d="M45.2,24.2H34.8c-0.6,0-1-0.4-1-1s0.4-1,1-1h10.4c0.6,0,1,0.4,1,1S45.7,24.2,45.2,24.2z"/>
</g>
<g>
	<circle class="st_sp2" cx="50.5" cy="23.2" r="1"/>
</g>
<g id="notifications-m">
	<g>
		<path class="st_sp3" d="M46.1,51c0,2.3-1.9,4.2-4.2,4.2c-2.3,0-4.2-1.9-4.2-4.2c0,0,0,0,0,0"/>
		<path class="st_sp2" d="M41.9,56.2c-2.9,0-5.2-2.3-5.2-5.2l2,0c0,1.8,1.4,3.2,3.2,3.2c0,0,0,0,0,0c1.8,0,3.2-1.4,3.2-3.2
			c0-0.6,0.4-1,1-1l0,0c0.6,0,1,0.4,1,1C47.1,53.9,44.8,56.2,41.9,56.2C41.9,56.2,41.9,56.2,41.9,56.2z"/>
	</g>
	<g>
		<path class="st_sp3" d="M42,31.7c-5.2,0-9,4.2-9,9.4V51h18v-9.9C51,35.9,47.2,31.7,42,31.7z"/>
		<path class="st_sp2" d="M51,52H33c-0.6,0-1-0.4-1-1v-9.9c0-5.8,4.4-10.4,10-10.4s10,4.6,10,10.4V51C52,51.6,51.6,52,51,52z M34,50h16
			v-8.9c0-4.8-3.4-8.4-8-8.4s-8,3.6-8,8.4V50z"/>
	</g>
</g>
<g>
	<path class="st_sp2" d="M36.5,48.4c-0.6,0-1-0.4-1-1v-4.7c0-0.6,0.4-1,1-1s1,0.4,1,1v4.7C37.5,48,37.1,48.4,36.5,48.4z"/>
</g>
<g>
	<path class="st_sp2" d="M36.6,41.5c-0.6,0-1-0.4-1-1v-0.8c0-0.6,0.4-1,1-1s1,0.4,1,1v0.8C37.6,41,37.1,41.5,36.6,41.5z"/>
</g>
</svg>
