<svg id="ad-silent-push-l" xmlns="http://www.w3.org/2000/svg" viewBox="0 0 82 82"><defs><style>.cls-1{fill:#f2f2f2;fill-opacity:0;}.cls-2{fill:#d9eeff;}.cls-3{fill:#0b68ff;}.cls-4{fill:#fff;}</style></defs><rect class="cls-1" width="82" height="82"/><rect class="cls-2" x="21" y="29" width="50" height="34" rx="3.9" ry="3.9" transform="translate(92 0) rotate(90)"/><path class="cls-3" d="M55.1,68H28.9A4.9,4.9,0,0,1,24,63.1V20.9A4.9,4.9,0,0,1,28.9,16H55.1A4.9,4.9,0,0,1,60,20.9V63.1A4.9,4.9,0,0,1,55.1,68ZM28.9,18A2.9,2.9,0,0,0,26,20.9V63.1A2.9,2.9,0,0,0,28.9,66H55.1A2.9,2.9,0,0,0,58,63.1V20.9A2.9,2.9,0,0,0,55.1,18Z"/><path class="cls-3" d="M45.18,24.17H34.77a1,1,0,0,1,0-2H45.18a1,1,0,0,1,0,2Z"/><circle class="cls-3" cx="50.55" cy="23.17" r="1"/><g id="notifications-m"><path class="cls-4" d="M46.12,51a4.2,4.2,0,1,1-8.4,0"/><path class="cls-3" d="M41.92,56.17a5.21,5.21,0,0,1-5.2-5.2,1,1,0,0,1,2,0,3.2,3.2,0,1,0,6.4,0,1,1,0,0,1,2,0A5.21,5.21,0,0,1,41.92,56.17Z"/><path class="cls-4" d="M51,46V41.1c0-5.2-3.8-9.42-9-9.42a9,9,0,0,0-3.63.88"/><path class="cls-3" d="M51,47a1,1,0,0,1-1-1V41.1c0-4.8-3.44-8.42-8-8.42a7.91,7.91,0,0,0-3.22.79A1,1,0,1,1,38,31.64a9.81,9.81,0,0,1,4-1A10.11,10.11,0,0,1,52,41.1V46A1,1,0,0,1,51,47Z"/><path class="cls-4" d="M33.71,37.43A10.13,10.13,0,0,0,33,41.1V51H47"/><path class="cls-3" d="M47,52H33a1,1,0,0,1-1-1V41.1a11.09,11.09,0,0,1,.77-4,1,1,0,0,1,1.86.72A9.11,9.11,0,0,0,34,41.1V50H47a1,1,0,0,1,0,2Z"/></g><path class="cls-3" d="M36.54,48.43a1,1,0,0,1-1-1V42.69a1,1,0,0,1,2,0v4.73A1,1,0,0,1,36.54,48.43Z"/><g id="Warstwa_3" data-name="Warstwa 3"><path class="cls-3" d="M53.5,54.07a1,1,0,0,1-.71-.29L30.41,31.4A1,1,0,0,1,31.83,30L54.21,52.36a1,1,0,0,1-.71,1.71Z"/></g></svg>