<svg xmlns="http://www.w3.org/2000/svg" viewBox="0 0 82 82"><defs><style>.cls-1{fill:#f2f2f2;opacity:0;}.cls-2{fill:#d9eeff;}.cls-3{fill:#0b68ff;}.cls-4{fill:#fff;}</style></defs><g id="Spaces"><rect class="cls-1" width="82" height="82"/></g><g id="Warstwa_38" data-name="Warstwa 38"><rect class="cls-2" x="20" y="23.98" width="50" height="34" rx="3.9" ry="3.9" transform="translate(85.98 -4.02) rotate(90)"/><path class="cls-3" d="M54.1,63H27.9a4.9,4.9,0,0,1-4.9-4.9V15.88A4.9,4.9,0,0,1,27.9,11H54.1a4.9,4.9,0,0,1,4.9,4.9V58.09A4.9,4.9,0,0,1,54.1,63ZM27.9,13a2.9,2.9,0,0,0-2.9,2.9V58.09A2.9,2.9,0,0,0,27.9,61H54.1a2.9,2.9,0,0,0,2.9-2.9V15.88A2.9,2.9,0,0,0,54.1,13Z"/><rect class="cls-4" x="20" y="24.98" width="42" height="24" rx="4.06" ry="4.06"/><path class="cls-3" d="M57.94,50H24.06A5.07,5.07,0,0,1,19,44.92V29A5.07,5.07,0,0,1,24.06,24H57.94A5.07,5.07,0,0,1,63,29V44.92A5.07,5.07,0,0,1,57.94,50ZM24.06,26A3.07,3.07,0,0,0,21,29V44.92A3.07,3.07,0,0,0,24.06,48H57.94A3.07,3.07,0,0,0,61,44.92V29A3.07,3.07,0,0,0,57.94,26Z"/><path class="cls-3" d="M44.18,19.15H33.77a1,1,0,0,1,0-2H44.18a1,1,0,0,1,0,2Z"/><circle class="cls-3" cx="49.55" cy="18.15" r="1"/><path class="cls-3" d="M55.08,37H42a1,1,0,0,1,0-2H55.08a1,1,0,0,1,0,2Z"/><path class="cls-3" d="M55.08,42H42a1,1,0,0,1,0-2H55.08a1,1,0,0,1,0,2Z"/><path class="cls-3" d="M46.91,32H42a1,1,0,0,1,0-2h4.91a1,1,0,0,1,0,2Z"/><g id="text-m"><path class="cls-3" d="M31.25,44.23a1,1,0,0,1-1-1V30.73a1,1,0,1,1,2,0v12.5A1,1,0,0,1,31.25,44.23Z"/><path class="cls-3" d="M37.5,34.59a1,1,0,0,1-1-1V31.73H26v1.86a1,1,0,0,1-2,0V30.73a1,1,0,0,1,1-1H37.5a1,1,0,0,1,1,1v2.86A1,1,0,0,1,37.5,34.59Z"/></g></g></svg>