<svg id="ad-temp-code-s" xmlns="http://www.w3.org/2000/svg" viewBox="0 0 48 48"><defs><style>.cls-1{fill:#f2f2f2;opacity:0;}.cls-2{fill:#57616d;}.cls-3{fill:#b5bdc3;}</style></defs><rect id="bg" class="cls-1" width="48" height="48"/><path id="path4" class="cls-2" d="M21.21,38.8h11a3.7,3.7,0,0,0,3.7-3.7V21.74a3.9,3.9,0,0,0-1.57-3.12l-6.64-4.94A3.62,3.62,0,0,0,25.57,13H21.22a3.69,3.69,0,0,0-3.69,3.69V35.12A3.69,3.69,0,0,0,21.21,38.8Z"/><path id="path3" class="cls-3" d="M13.47,24.46,16,21.92A1,1,0,1,0,14.6,20.5l-3.25,3.25a1,1,0,0,0,0,1.41l3.25,3.25A1,1,0,1,0,16,27Z"/><path id="path2" class="cls-3" d="M23.78,23.75l-3.25-3.25a1,1,0,0,0-1.41,1.41l2.54,2.54L19.12,27a1,1,0,1,0,1.41,1.41l3.25-3.25A1,1,0,0,0,23.78,23.75Z"/><path id="path1" class="cls-3" d="M29.24,36.8h-11a4.69,4.69,0,0,1-4.69-4.69,1,1,0,0,1,2,0,2.69,2.69,0,0,0,2.69,2.69h11a2.7,2.7,0,0,0,2.7-2.7V18.74a2.91,2.91,0,0,0-1.17-2.32l-6.64-4.94A2.63,2.63,0,0,0,22.57,11H18.22a2.7,2.7,0,0,0-2.69,2.69v3.89a1,1,0,0,1-2,0V13.65A4.7,4.7,0,0,1,18.22,9h4.35a4.64,4.64,0,0,1,2.76.91L32,14.81a4.92,4.92,0,0,1,2,3.93V32.11A4.7,4.7,0,0,1,29.24,36.8Z"/></svg>