<svg id="ad-user-segments-l" xmlns="http://www.w3.org/2000/svg" viewBox="0 0 82 82" style="enable-background:new 0 0 82 82">
  <style>
    .st1{fill:#0b68ff}.st2{fill:#fff}
  </style>
  <path d="M24 64.643h42c2.209 0 4-1.791 4-4V36.5c0-2.209-1.791-4-4-4H46.657c-1.061 0-2.078-.422-2.828-1.172l-4.8-4.8a4.001 4.001 0 0 0-2.829-1.171H24c-2.209 0-4 1.791-4 4v31.286c0 2.209 1.791 4 4 4z" style="fill:#d9eeff"/>
  <path class="st1" d="M62 61.643H20c-2.76-.003-4.997-2.24-5-5V25.357c.003-2.76 2.24-4.997 5-5h12.2c1.327-.003 2.6.524 3.535 1.465l4.8 4.8c.562.564 1.326.88 2.122.878H62c2.76.003 4.997 2.24 5 5v24.143c-.003 2.76-2.24 4.997-5 5zM20 22.357c-1.657 0-3 1.343-3 3v31.286c0 1.657 1.343 3 3 3h42c1.657 0 3-1.343 3-3V32.5c0-1.657-1.343-3-3-3H42.657c-1.327.004-2.6-.523-3.536-1.464l-4.8-4.8a3.0184 3.0184 0 0 0-2.121-.879H20z"/>
  <circle class="st2" cx="49.681" cy="31.083" r="11.542"/>
  <path class="st1" d="M49.681 43.625c-6.927 0-12.542-5.615-12.542-12.542s5.615-12.542 12.542-12.542 12.542 5.615 12.542 12.542c-.008 6.924-5.618 12.534-12.542 12.542zm0-23.083c-5.822 0-10.542 4.72-10.542 10.542s4.72 10.542 10.542 10.542 10.542-4.72 10.542-10.542v-.001c-.007-5.819-4.723-10.534-10.542-10.541zm-7.014 32.125h-16c-.552 0-1-.448-1-1s.448-1 1-1h16c.552 0 1 .448 1 1s-.448 1-1 1zm-10-5h-6c-.552 0-1-.448-1-1s.448-1 1-1h6c.552 0 1 .448 1 1s-.448 1-1 1z"/>
  <path class="st2" d="M53.681 36.667c-.186-2.793-1.457-3.925-4-4-2.542.075-3.814 1.207-4 4h8z"/>
  <path class="st1" d="M53.681 37.667h-8c-.552.001-1.001-.446-1.002-.998 0-.023.001-.045.002-.068.215-3.227 1.84-4.841 4.969-4.933 3.187.092 4.812 1.706 5.027 4.933.036.551-.381 1.027-.932 1.064-.023.002-.045.002-.068.002h.004zm-6.854-2h5.708c-.33-1.4-1.172-1.95-2.883-2-1.665.05-2.498.596-2.825 2z"/>
  <circle class="st2" cx="49.681" cy="27.167" r="2.5"/>
  <path class="st1" d="M49.681 30.667c-1.933 0-3.5-1.567-3.5-3.5s1.567-3.5 3.5-3.5 3.5 1.567 3.5 3.5-1.567 3.5-3.5 3.5zm0-5c-.828 0-1.5.672-1.5 1.5s.672 1.5 1.5 1.5 1.5-.672 1.5-1.5-.672-1.5-1.5-1.5z"/>
</svg>
