<svg xmlns="http://www.w3.org/2000/svg" viewBox="0 0 82 82"><title>ad-visual-ai-l</title><rect width="82" height="82" style="fill:#fff;opacity:0"/><path d="M58.3,60.7l-12-5.9a5.29939,5.29939,0,0,0-4.6,0l-12,5.9a2.51985,2.51985,0,0,1-3.4-1.2,2.01584,2.01584,0,0,1-.3-1.1V34.1a4.65288,4.65288,0,0,1,4.6-4.6H57.3a4.65288,4.65288,0,0,1,4.6,4.6V58.5A2.47572,2.47572,0,0,1,59.4,61,2.01584,2.01584,0,0,1,58.3,60.7Z" style="fill:#d9eeff"/><path d="M24.5,58A3.47822,3.47822,0,0,1,21,54.5V30.1a5.5908,5.5908,0,0,1,5.6-5.6h7.2a1,1,0,0,1,0,2H26.6A3.585,3.585,0,0,0,23,30.1V54.5A1.538,1.538,0,0,0,24.5,56a1.854,1.854,0,0,0,.7-.2l12-5.9a5.93935,5.93935,0,0,1,5.5,0l12,5.9a1.396,1.396,0,0,0,2-.7,1.44531,1.44531,0,0,0,.2-.7V39.9a1,1,0,0,1,2,0V54.5A3.47822,3.47822,0,0,1,55.4,58a3.16651,3.16651,0,0,1-1.6-.4l-12-5.9a4.23611,4.23611,0,0,0-3.8,0L26,57.6A2.41006,2.41006,0,0,1,24.5,58Z" style="fill:#0b68ff"/><path d="M51.7,35c-6.1,0-10.9-6.4-11.1-6.7a1.42132,1.42132,0,0,1-.2-.6,1.854,1.854,0,0,1,.2-.7c.2-.3,5-6.7,11.1-6.7s10.9,6.2,11.1,6.5a.77774.77774,0,0,1,.2.8,1.88389,1.88389,0,0,1-.2.8C62.6,28.8,57.8,35,51.7,35Z" style="fill:#fff"/><path d="M51.7,36c-6.6,0-11.7-6.8-11.9-7a2.09694,2.09694,0,0,1-.4-1.1v-.2a2.84264,2.84264,0,0,1,.4-1.2c.5-.7,5.5-7.1,11.9-7.1,6.6,0,11.7,6.6,11.9,6.9a2.40151,2.40151,0,0,1,0,2.8C63.4,29.4,58.3,36,51.7,36ZM41.4,27.7h0c.2.3,4.7,6.3,10.3,6.3S61.8,28.1,62,27.9v-.4c-.2-.2-4.7-6.1-10.3-6.1s-10.1,6-10.3,6.3Z" style="fill:#0b68ff"/><circle cx="51.7" cy="27.7" r="2.4" style="fill:#fff"/><path d="M51.7,31.2a3.4,3.4,0,1,1,3.4-3.4A3.37194,3.37194,0,0,1,51.7,31.2Zm0-4.9a1.4,1.4,0,1,0,1.4,1.4A1.31188,1.31188,0,0,0,51.7,26.3Z" style="fill:#0b68ff"/></svg>