<svg id="ad-visual-editor-l" xmlns="http://www.w3.org/2000/svg" viewBox="0 0 82 82"><defs><style>.cls-1{fill:#f2f2f2;opacity:0;}.cls-2{fill:#d9eeff;}.cls-3{fill:#0b68ff;}.cls-4{fill:#fff;}</style></defs><rect class="cls-1" width="82" height="82"/><rect class="cls-2" x="23.45" y="17.33" width="39.58" height="54.43" rx="3.89" ry="3.89" transform="translate(87.79 1.3) rotate(90)"/><path class="cls-3" d="M29.19,61.14H14a3.43,3.43,0,0,1-3.43-3.43V23.59A3.43,3.43,0,0,1,14,20.16H29.19a3.43,3.43,0,0,1,3.43,3.43V57.71A3.43,3.43,0,0,1,29.19,61.14ZM14,22.16a1.43,1.43,0,0,0-1.43,1.43V57.71A1.43,1.43,0,0,0,14,59.14H29.19a1.43,1.43,0,0,0,1.43-1.43V23.59a1.43,1.43,0,0,0-1.43-1.43Z"/><path class="cls-3" d="M26.48,44.26H15.91a1,1,0,1,1,0-2H26.48a1,1,0,0,1,0,2Z"/><path class="cls-3" d="M21.86,49.37H15.91a1,1,0,0,1,0-2h5.94a1,1,0,1,1,0,2Z"/><path class="cls-3" d="M25.2,54.47H15.91a1,1,0,0,1,0-2H25.2a1,1,0,1,1,0,2Z"/><g id="edit"><path class="cls-4" d="M21.39,16.82V32.23a1.46,1.46,0,0,0,.19.67l2.53,4,2.53-4a1.07,1.07,0,0,0,.17-.58l0-15.5a1.27,1.27,0,0,0-1.27-1.27H22.65A1.27,1.27,0,0,0,21.39,16.82Z"/><path class="cls-3" d="M24.1,37.85h0a1,1,0,0,1-.84-.46l-2.53-4a2.43,2.43,0,0,1-.35-1.2V16.82h0a2.27,2.27,0,0,1,2.27-2.27h2.85a2.27,2.27,0,0,1,2.27,2.27l0,15.5a2.07,2.07,0,0,1-.33,1.12l-2.53,4A1,1,0,0,1,24.1,37.85Zm-1.71-21V32.23a.7.7,0,0,0,0,.14L24.1,35l1.68-2.64V16.82a.27.27,0,0,0-.27-.27H22.65a.27.27,0,0,0-.27.27Z"/></g><path class="cls-3" d="M64.28,61.14h-25a3,3,0,0,1-3-3V43.54a3,3,0,0,1,3-3h25a3,3,0,0,1,3,3V58.12A3,3,0,0,1,64.28,61.14Zm-25-18.61a1,1,0,0,0-1,1V58.12a1,1,0,0,0,1,1h25a1,1,0,0,0,1-1V43.54a1,1,0,0,0-1-1Z"/><circle class="cls-3" cx="56.96" cy="54.03" r="1.29"/><circle class="cls-3" cx="51.79" cy="54.03" r="1.29"/><circle class="cls-3" cx="46.63" cy="54.03" r="1.29"/><rect class="cls-4" x="48.92" y="21.16" width="17.29" height="14.68" rx="1.38" ry="1.38"/><path class="cls-3" d="M64.83,36.85H50.3a2.39,2.39,0,0,1-2.38-2.38V22.55a2.39,2.39,0,0,1,2.38-2.38H64.83a2.39,2.39,0,0,1,2.38,2.38V34.46A2.39,2.39,0,0,1,64.83,36.85ZM50.3,22.16a.38.38,0,0,0-.38.38V34.46a.38.38,0,0,0,.38.38H64.83a.38.38,0,0,0,.38-.38V22.55a.38.38,0,0,0-.38-.38Z"/><path class="cls-3" d="M40.91,36.85a1,1,0,0,1-1-1V21.17a1,1,0,0,1,2,0V35.85A1,1,0,0,1,40.91,36.85Z"/><path class="cls-3" d="M44.14,22.17H37.68a1,1,0,0,1,0-2h6.46a1,1,0,0,1,0,2Z"/><path class="cls-3" d="M44.14,36.85H37.68a1,1,0,0,1,0-2h6.46a1,1,0,0,1,0,2Z"/><path class="cls-3" d="M57.57,32.95a1,1,0,0,1-1-1V25.07a1,1,0,0,1,2,0v6.88A1,1,0,0,1,57.57,32.95Z"/><path class="cls-3" d="M61,29.51H54.13a1,1,0,0,1,0-2H61a1,1,0,0,1,0,2Z"/></svg>