<svg width="48" height="48" viewBox="0 0 48 48" fill="none" xmlns="http://www.w3.org/2000/svg">
    <g clip-path="url(#clip0_12540_41220)">
    <path d="M7.57983 41H41.0703" stroke="#0B68FF" stroke-width="2" stroke-linecap="round" stroke-linejoin="round"/>
    <path d="M30.9375 31.8594C28.9896 31.8594 27.375 31.4792 26.0938 30.7188C24.8229 29.9479 23.875 28.8646 23.25 27.4688C22.625 26.0729 22.3125 24.4427 22.3125 22.5781C22.3125 20.6406 22.5938 18.9583 23.1562 17.5312C23.7188 16.0938 24.625 14.9792 25.875 14.1875C27.1354 13.3958 28.8021 13 30.875 13C32.9375 13 34.6146 13.3906 35.9062 14.1719C37.1979 14.9531 38.1458 16.0625 38.75 17.5C39.3646 18.9271 39.6719 20.6198 39.6719 22.5781C39.6719 24.4427 39.349 26.0729 38.7031 27.4688C38.0573 28.8646 37.0885 29.9479 35.7969 30.7188C34.5052 31.4792 32.8854 31.8594 30.9375 31.8594ZM30.9844 27.7188C32.6406 27.7188 33.8906 27.2344 34.7344 26.2656C35.5781 25.2969 36 24.0104 36 22.4062C36 20.7917 35.5781 19.5208 34.7344 18.5938C33.901 17.6562 32.6562 17.1875 31 17.1875C29.3125 17.1875 28.0573 17.6719 27.2344 18.6406C26.4219 19.599 26.0156 20.8906 26.0156 22.5156C26.0156 24.0885 26.4323 25.349 27.2656 26.2969C28.1094 27.2448 29.349 27.7188 30.9844 27.7188Z" fill="#D9EEFF"/>
    <path d="M13 13.875C13 13.4479 13.2135 13.2344 13.6406 13.2344H18.8125C19.2396 13.2344 19.4531 13.4479 19.4531 13.875C19.4531 16.7604 19.4583 19.651 19.4688 22.5469C19.4792 25.4323 19.4844 28.3229 19.4844 31.2188C19.4844 31.6458 19.2708 31.8594 18.8438 31.8594H16.2031C15.776 31.8594 15.5625 31.6458 15.5625 31.2188C15.5625 28.9479 15.5677 26.6771 15.5781 24.4062C15.5885 22.1354 15.5938 19.8698 15.5938 17.6094C15.5938 17.4323 15.4635 17.349 15.2031 17.3594C14.9427 17.3698 14.6406 17.3958 14.2969 17.4375C13.9635 17.4688 13.6667 17.4479 13.4062 17.375C13.1458 17.3021 13.0156 17.099 13.0156 16.7656C13.0156 16.276 13.0104 15.7917 13 15.3125C13 14.8333 13 14.3542 13 13.875Z" fill="#D9EEFF"/>
    <path d="M27.9375 29.8594C25.9896 29.8594 24.375 29.4792 23.0938 28.7188C21.8229 27.9479 20.875 26.8646 20.25 25.4688C19.625 24.0729 19.3125 22.4427 19.3125 20.5781C19.3125 18.6406 19.5938 16.9583 20.1562 15.5312C20.7188 14.0938 21.625 12.9792 22.875 12.1875C24.1354 11.3958 25.8021 11 27.875 11C29.9375 11 31.6146 11.3906 32.9062 12.1719C34.1979 12.9531 35.1458 14.0625 35.75 15.5C36.3646 16.9271 36.6719 18.6198 36.6719 20.5781C36.6719 22.4427 36.349 24.0729 35.7031 25.4688C35.0573 26.8646 34.0885 27.9479 32.7969 28.7188C31.5052 29.4792 29.8854 29.8594 27.9375 29.8594ZM27.9844 25.7188C29.6406 25.7188 30.8906 25.2344 31.7344 24.2656C32.5781 23.2969 33 22.0104 33 20.4062C33 18.7917 32.5781 17.5208 31.7344 16.5938C30.901 15.6562 29.6562 15.1875 28 15.1875C26.3125 15.1875 25.0573 15.6719 24.2344 16.6406C23.4219 17.599 23.0156 18.8906 23.0156 20.5156C23.0156 22.0885 23.4323 23.349 24.2656 24.2969C25.1094 25.2448 26.349 25.7188 27.9844 25.7188Z" fill="#0B68FF"/>
    <path d="M10 11.875C10 11.4479 10.2135 11.2344 10.6406 11.2344H15.8125C16.2396 11.2344 16.4531 11.4479 16.4531 11.875C16.4531 14.7604 16.4583 17.651 16.4688 20.5469C16.4792 23.4323 16.4844 26.3229 16.4844 29.2188C16.4844 29.6458 16.2708 29.8594 15.8438 29.8594H13.2031C12.776 29.8594 12.5625 29.6458 12.5625 29.2188C12.5625 26.9479 12.5677 24.6771 12.5781 22.4062C12.5885 20.1354 12.5938 17.8698 12.5938 15.6094C12.5938 15.4323 12.4635 15.349 12.2031 15.3594C11.9427 15.3698 11.6406 15.3958 11.2969 15.4375C10.9635 15.4688 10.6667 15.4479 10.4062 15.375C10.1458 15.3021 10.0156 15.099 10.0156 14.7656C10.0156 14.276 10.0104 13.7917 10 13.3125C10 12.8333 10 12.3542 10 11.875Z" fill="#0B68FF"/>
    </g>
    <defs>
    <clipPath id="clip0_12540_41220">
    <rect width="48" height="48" fill="white"/>
    </clipPath>
    </defs>
    </svg>
    