<?xml version="1.0" encoding="utf-8"?>
<!-- Generator: Adobe Illustrator 20.1.0, SVG Export Plug-In . SVG Version: 6.00 Build 0)  -->
<svg version="1.1" id="ad-welcome-screen-l" xmlns="http://www.w3.org/2000/svg" xmlns:xlink="http://www.w3.org/1999/xlink"
	 x="0px" y="0px" viewBox="0 0 82 82" style="enable-background:new 0 0 82 82;" xml:space="preserve">
<style type="text/css">
	.st_ws0{opacity:0;fill:#F2F2F2;}
	.st_ws1{fill:#D9EEFF;}
	.st_ws2{fill:#0B68FF;}
	.st_ws3{fill:#FFFFFF;}
</style>
<rect class="st_ws0" width="82" height="82"/>
<path class="st_ws1" d="M63,24.897v42.206C63,69.255,61.255,71,59.103,71H32.897C30.745,71,29,69.255,29,67.103V24.897
	C29,22.745,30.745,21,32.897,21h26.206C61.255,21,63,22.745,63,24.897z"/>
<path class="st_ws2" d="M55.1,68H28.9c-2.706,0-4.9-2.194-4.9-4.9l0,0V20.9c0-2.706,2.194-4.9,4.9-4.9h26.2c2.706,0,4.9,2.194,4.9,4.9
	c0,0,0,0,0,0v42.2C60,65.806,57.806,68,55.1,68L55.1,68z M28.9,18c-1.602,0-2.9,1.298-2.9,2.9v42.2c0,1.602,1.298,2.9,2.9,2.9l0,0
	h26.2c1.602,0,2.9-1.298,2.9-2.9c0,0,0,0,0,0V20.9c0-1.602-1.298-2.9-2.9-2.9l0,0H28.9z"/>
<path class="st_ws3" d="M52,55.035v3.93C52,59.537,51.537,60,50.965,60h-17.93C32.463,60,32,59.537,32,58.965v-3.93
	C32,54.463,32.463,54,33.035,54h17.93C51.537,54,52,54.463,52,55.035z"/>
<path class="st_ws2" d="M50.965,61h-17.93c-1.123-0.002-2.033-0.912-2.035-2.035v-3.93c0.002-1.123,0.912-2.033,2.035-2.035h17.93
	c1.123,0.002,2.033,0.912,2.035,2.035v3.93C52.998,60.088,52.088,60.998,50.965,61z M33.035,55L33,58.965
	C33,58.984,33.016,59,33.035,59h17.93L51,55.035L33.035,55z"/>
<path class="st_ws2" d="M54,27c-0.265,0-0.52-0.105-0.707-0.293l-4-4c-0.384-0.397-0.373-1.03,0.025-1.414
	c0.388-0.374,1.002-0.374,1.389,0l4,4c0.39,0.391,0.39,1.024,0,1.414C54.519,26.895,54.265,27,54,27z"/>
<path class="st_ws2" d="M50,27c-0.552,0-1-0.448-1-1c0-0.265,0.105-0.519,0.293-0.707l4-4c0.397-0.384,1.03-0.373,1.414,0.025
	c0.374,0.388,0.374,1.002,0,1.389l-4,4C50.52,26.895,50.265,27,50,27z"/>
<path class="st_ws3" d="M40.492,21.813H18.013c-2.054,0-3.719,1.665-3.719,3.719v12.729c0,2.054,1.665,3.719,3.719,3.719c0,0,0,0,0,0
	h14.281l6.833,6.833V41.98h1.365c2.054,0,3.719-1.665,3.719-3.719v0V25.532C44.211,23.478,42.546,21.813,40.492,21.813
	L40.492,21.813z"/>
<path class="st_ws2" d="M39.127,49.813c-0.265,0-0.52-0.105-0.707-0.293l-6.54-6.541H18.013c-2.605-0.003-4.716-2.114-4.719-4.719
	V25.532c0.003-2.605,2.114-4.716,4.719-4.719h22.479c2.605,0.003,4.716,2.114,4.719,4.719v12.729
	c-0.003,2.605-2.114,4.716-4.719,4.719h-0.365v5.834c0,0.552-0.448,1-1,1L39.127,49.813z M18.013,22.813
	c-1.501,0.002-2.717,1.218-2.719,2.719v12.729c0.002,1.501,1.218,2.717,2.719,2.719h14.281c0.265,0,0.52,0.105,0.707,0.293
	l5.126,5.127v-4.42c0-0.552,0.448-1,1-1h1.365c1.501-0.002,2.717-1.218,2.719-2.719V25.532c-0.002-1.501-1.218-2.717-2.719-2.719
	H18.013z"/>
<path class="st_ws2" d="M24.127,37.272c-0.552,0-1-0.448-1-1v-9c0-0.552,0.448-1,1-1s1,0.448,1,1v9
	C25.127,36.824,24.679,37.272,24.127,37.272z"/>
<path class="st_ws2" d="M29.377,37.272c-0.552,0-1-0.448-1-1v-9c0-0.552,0.448-1,1-1s1,0.448,1,1v9
	C30.377,36.824,29.929,37.272,29.377,37.272z"/>
<path class="st_ws2" d="M29.377,32.772h-5.25c-0.552,0-1-0.448-1-1s0.448-1,1-1h5.25c0.552,0,1,0.448,1,1S29.929,32.772,29.377,32.772z
	"/>
<path class="st_ws2" d="M33.377,37.209c-0.552,0-1-0.448-1-1v-6.072c0-0.552,0.448-1,1-1s1,0.448,1,1v6.073
	C34.376,36.762,33.929,37.209,33.377,37.209z"/>
<circle class="st_ws2" cx="33.378" cy="27.272" r="1"/>
</svg>
