<svg id="ad-web-layer-l" xmlns="http://www.w3.org/2000/svg" viewBox="0 0 82 82"><defs><style>.cls-1{fill:#f2f2f2;fill-opacity:0;}.cls-2{fill:#d9eeff;}.cls-3{fill:#0b68ff;}.cls-4{fill:#fff;}</style></defs><rect id="bg" class="cls-1" width="82" height="82"/><rect class="cls-2" x="26.95" y="19.58" width="39.58" height="54.43" rx="3.89" ry="3.89" transform="translate(93.53 0.05) rotate(90)"/><path class="cls-3" d="M65.07,62.57H18.42a4.9,4.9,0,0,1-4.89-4.89V25.88A4.9,4.9,0,0,1,18.42,21H65.07A4.9,4.9,0,0,1,70,25.88v31.8A4.9,4.9,0,0,1,65.07,62.57ZM18.42,23a2.89,2.89,0,0,0-2.89,2.89v31.8a2.89,2.89,0,0,0,2.89,2.89H65.07A2.89,2.89,0,0,0,68,57.68V25.88A2.89,2.89,0,0,0,65.07,23Z"/><circle class="cls-3" cx="20.08" cy="27.32" r="1.29"/><circle class="cls-3" cx="25.25" cy="27.32" r="1.29"/><circle class="cls-3" cx="30.41" cy="27.32" r="1.29"/><rect class="cls-4" x="29.36" y="31.74" width="29.46" height="17.09" rx="2.73" ry="2.73"/><path class="cls-3" d="M56.09,49.83h-24a3.73,3.73,0,0,1-3.73-3.73V34.47a3.73,3.73,0,0,1,3.73-3.73h24a3.73,3.73,0,0,1,3.73,3.73V46.1A3.74,3.74,0,0,1,56.09,49.83Zm-24-17.09a1.73,1.73,0,0,0-1.73,1.73V46.1a1.73,1.73,0,0,0,1.73,1.73h24a1.73,1.73,0,0,0,1.73-1.73V34.47a1.73,1.73,0,0,0-1.73-1.73Z"/><path class="cls-3" d="M47.54,38.91H40.65a1,1,0,0,1,0-2h6.89a1,1,0,0,1,0,2Z"/><path class="cls-3" d="M50.37,43.66H37.81a1,1,0,0,1,0-2H50.37a1,1,0,0,1,0,2Z"/><path class="cls-3" d="M50.09,55.83H47.88a1,1,0,0,1,0-2h2.22a1.73,1.73,0,0,0,1.73-1.73,1,1,0,0,1,2,0A3.74,3.74,0,0,1,50.09,55.83Zm-9.22,0h-7a1,1,0,0,1,0-2h7a1,1,0,0,1,0,2Zm-14,0h-.79a3.73,3.73,0,0,1-3.73-3.73V50.18a1,1,0,0,1,2,0V52.1a1.73,1.73,0,0,0,1.73,1.73h.79a1,1,0,0,1,0,2ZM23.36,44.18a1,1,0,0,1-1-1V40.47a3.73,3.73,0,0,1,3.73-3.73,1,1,0,0,1,0,2,1.73,1.73,0,0,0-1.73,1.73v2.71A1,1,0,0,1,23.36,44.18Z"/></svg>