<?xml version="1.0" encoding="utf-8"?>
<!-- Generator: Adobe Illustrator 20.1.0, SVG Export Plug-In . SVG Version: 6.00 Build 0)  -->
<svg version="1.1" id="ad-onboarding-l" xmlns="http://www.w3.org/2000/svg" xmlns:xlink="http://www.w3.org/1999/xlink" x="0px"
	 y="0px" viewBox="0 0 82 82" style="enable-background:new 0 0 82 82;" xml:space="preserve">
<style type="text/css">
	.st0{fill:#D9EEFF;}
	.st1{fill:#0B68FF;}
	.st2{fill:#FFFFFF;}
</style>
<path class="st0" d="M72.215,31.1v31.801c0,2.149-1.742,3.891-3.891,3.891H21.677c-2.149,0-3.891-1.742-3.891-3.891V31.1
	c0-2.149,1.742-3.891,3.891-3.891h46.647C70.473,27.209,72.215,28.951,72.215,31.1z"/>
<path class="st1" d="M64.323,63.791H17.676c-2.699-0.006-4.885-2.192-4.89-4.891V27.1c0.005-2.699,2.192-4.886,4.891-4.891h46.646
	c2.7,0.004,4.887,2.191,4.892,4.891v31.8C69.21,61.6,67.023,63.787,64.323,63.791z M17.676,24.208
	c-1.596,0.002-2.889,1.296-2.89,2.892v31.8c0.002,1.596,1.295,2.889,2.891,2.891h46.646c1.596-0.001,2.89-1.295,2.892-2.891V27.1
	c-0.002-1.596-1.296-2.89-2.892-2.891L17.676,24.208z"/>
<path class="st2" d="M58,20.897v42.206C58,65.255,56.255,67,54.103,67H27.897C25.745,67,24,65.255,24,63.103V20.897
	C24,18.745,25.745,17,27.897,17h26.206C56.255,17,58,18.745,58,20.897z"/>
<path class="st1" d="M54.1,68H27.9c-2.706,0-4.9-2.194-4.9-4.9l0,0V20.9c0-2.706,2.194-4.9,4.9-4.9h26.2c2.706,0,4.9,2.194,4.9,4.9
	l0,0v42.2C59,65.806,56.806,68,54.1,68L54.1,68z M27.9,18c-1.602,0-2.9,1.298-2.9,2.9v42.2c0,1.602,1.298,2.9,2.9,2.9l0,0h26.2
	c1.602,0,2.9-1.298,2.9-2.9l0,0V20.9c0-1.602-1.298-2.9-2.9-2.9l0,0H27.9z"/>
<path class="st1" d="M52,29.167H30c-0.552,0-1-0.448-1-1s0.448-1,1-1h22c0.552,0,1,0.448,1,1S52.552,29.167,52,29.167z"/>
<path class="st1" d="M48.25,35H34.462c-0.552,0-1-0.448-1-1s0.448-1,1-1H48.25c0.552,0,1,0.448,1,1S48.802,35,48.25,35z"/>
<path class="st1" d="M48.25,40.833H34.462c-0.552,0-1-0.448-1-1s0.448-1,1-1H48.25c0.552,0,1,0.448,1,1S48.802,40.833,48.25,40.833z
	"/>
<circle class="st0" cx="41" cy="58.958" r="1.875"/>
<circle class="st0" cx="47" cy="58.958" r="1.875"/>
<circle class="st1" cx="35" cy="58.958" r="1.875"/>
</svg>
