<svg xmlns="http://www.w3.org/2000/svg" viewBox="0 0 82 82"><title>sankey-after</title><rect width="82" height="82" style="fill:#fff;opacity:0"/><rect x="26.0073" y="18.7855" width="39.58267" height="54.42901" rx="3.89097" ry="3.89097" transform="translate(91.79863 0.20137) rotate(90)" style="fill:#d9eeff"/><path d="M48.413,60.79133H17.4751a3.891,3.891,0,0,1-3.891-3.891V53.542" style="fill:none;stroke:#0b68ff;stroke-linecap:round;stroke-linejoin:round;stroke-width:2px"/><path d="M13.58413,27.83333v-2.7337a3.891,3.891,0,0,1,3.891-3.891H48.413" style="fill:none;stroke:#0b68ff;stroke-linecap:round;stroke-linejoin:round;stroke-width:2px"/><path d="M21.81638,38.95966a2.33978,2.33978,0,0,1,0,4.08068L11.41969,49.48913a2.336,2.336,0,0,1-3.50407-2.02307V34.53394a2.336,2.336,0,0,1,3.50407-2.02307Z" style="fill:#fff;stroke:#0b68ff;stroke-linecap:round;stroke-linejoin:round;stroke-width:2px"/><path d="M28.17768,36.95875a9.54878,9.54878,0,0,0,5.1143-1.37612l7.30875-4.74776a9.54869,9.54869,0,0,1,5.1143-1.37612h2.69806" style="fill:none;stroke:#0b68ff;stroke-linecap:round;stroke-linejoin:round;stroke-width:2px"/><path d="M28.17759,45.04133a9.54874,9.54874,0,0,1,5.11429,1.37612l7.30875,4.74776a9.54871,9.54871,0,0,0,5.1143,1.37612H48.413" style="fill:none;stroke:#0b68ff;stroke-linecap:round;stroke-linejoin:round;stroke-width:2px"/><rect x="53.41299" y="44.85486" width="15.65074" height="15.65074" rx="2.9916" ry="2.9916" style="fill:#fff;stroke:#0b68ff;stroke-linecap:round;stroke-linejoin:round;stroke-width:2px"/><rect x="53.41299" y="21.4944" width="15.65074" height="15.65074" rx="2.9916" ry="2.9916" style="fill:#fff;stroke:#0b68ff;stroke-linecap:round;stroke-linejoin:round;stroke-width:2px"/><circle cx="20.34903" cy="27.50033" r="1.29167" style="fill:#0b68ff"/><circle cx="25.5157" cy="27.50033" r="1.29167" style="fill:#0b68ff"/><circle cx="30.68237" cy="27.50033" r="1.29167" style="fill:#0b68ff"/></svg>