<?xml version="1.0" encoding="utf-8"?>
<!-- Generator: Adobe Illustrator 24.1.2, SVG Export Plug-In . SVG Version: 6.00 Build 0)  -->
<svg version="1.1" xmlns="http://www.w3.org/2000/svg" xmlns:xlink="http://www.w3.org/1999/xlink" x="0px" y="0px"
	 viewBox="0 0 90 90" style="enable-background:new 0 0 90 90;" xml:space="preserve">
<style type="text/css">
	.st0{display:none;}
	.st1{display:inline;fill:none;stroke:#009FE3;stroke-width:0.25;stroke-miterlimit:10;}
	.st2{display:inline;fill:none;stroke:#FF00FF;stroke-width:0.25;stroke-miterlimit:10;}
	.st3{fill:#384350;}
</style>
<g id="Grid" class="st0">
	<rect id="canvas_60x60px_7_" x="15" y="15" class="st1" width="60" height="60"/>
	<rect id="canvas_70x70px_7_" x="10" y="10" class="st1" width="70" height="70"/>
</g>
<g id="Additional_bottom" class="st0">
	<rect id="_x38_x8p_canvas_26_" x="50" y="50" class="st2" width="34" height="34"/>
	<rect id="_x38_x8p_canvas_25_" x="54" y="54" class="st2" width="26" height="26"/>
</g>
<g id="Additional_center" class="st0">
	<rect id="_x38_x8p_canvas_24_" x="28" y="28" class="st2" width="34" height="34"/>
	<rect id="_x38_x8p_canvas_23_" x="32" y="32" class="st2" width="26" height="26"/>
</g>
<g id="Circle" class="st0">
	<circle class="st1" cx="45" cy="45" r="30"/>
</g>
<g id="Vertical_rectangle" class="st0">
	<path class="st1" d="M65,15H25c-2.2,0-4,1.8-4,4v52c0,2.2,1.8,4,4,4h40c2.2,0,4-1.8,4-4V19C69,16.8,67.2,15,65,15z"/>
</g>
<g id="Horizontal_rectangle" class="st0">
	<path class="st1" d="M71,21H19c-2.2,0-4,1.8-4,4v40c0,2.2,1.8,4,4,4h52c2.2,0,4-1.8,4-4V25C75,22.8,73.2,21,71,21z"/>
</g>
<g id="Square" class="st0">
	<path class="st1" d="M68,72H22c-2.2,0-4-1.8-4-4V22c0-2.2,1.8-4,4-4h46c2.2,0,4,1.8,4,4v46C72,70.2,70.2,72,68,72z"/>
</g>
<g id="icon">
	<g>
		<path class="st3" d="M30.4,46.3h14.4c0.2,0,0.4-0.1,0.5-0.2s0.2-0.3,0.2-0.5v-9.7c0-0.2-0.1-0.4-0.2-0.5s-0.3-0.2-0.5-0.2H30.4
			c-0.2,0-0.4,0.1-0.5,0.2c-0.1,0.1-0.2,0.3-0.2,0.5v9.7c0,0.2,0.1,0.4,0.2,0.5S30.2,46.3,30.4,46.3z M31.2,36.6h12.9l0,8.2H31.2
			V36.6z"/>
		<path class="st3" d="M44.9,49.6H30.4c-0.4,0-0.8,0.3-0.8,0.8c0,0.4,0.3,0.8,0.8,0.8h14.4c0.4,0,0.8-0.3,0.8-0.8
			C45.6,50,45.3,49.6,44.9,49.6z"/>
		<path class="st3" d="M39.4,53.8h-8.9c-0.4,0-0.8,0.3-0.8,0.8c0,0.4,0.3,0.8,0.8,0.8h8.9c0.4,0,0.8-0.3,0.8-0.8
			C40.1,54.1,39.8,53.8,39.4,53.8z"/>
		<path class="st3" d="M56.1,42.3h7.4c0.2,0,0.4-0.1,0.5-0.2s0.2-0.3,0.2-0.5v-5.8c0-0.2-0.1-0.4-0.2-0.5s-0.3-0.2-0.5-0.2H49
			c-0.2,0-0.4,0.1-0.5,0.2c-0.1,0.1-0.2,0.3-0.2,0.5v1.8v4v4c0,0.3,0.1,0.5,0.4,0.6s0.5,0.1,0.8,0L56.1,42.3z M49.8,37.6v-1.1h12.9
			v4.3h-6.8c-0.1,0-0.3,0-0.4,0.1l-5.7,3.3l0-2.7V37.6z"/>
		<path class="st3" d="M75.7,56.1l0-26.2c0-2.9-2.3-5.2-5.2-5.2H25c-2.9,0-5.2,2.3-5.2,5.2V61h-4.1c-0.8,0-1.4,0.6-1.4,1.4v4.2
			c0,1.6,1.3,3,3,3h36.5c1.3,6.3,6.8,11,13.5,11c7.6,0,13.7-6.2,13.7-13.7C81,62.5,78.9,58.7,75.7,56.1z M21.3,29.9
			c0-1,0.4-1.9,1.1-2.6c0.7-0.7,1.6-1.1,2.6-1.1h45.6c1,0,1.9,0.4,2.6,1.1c0.7,0.7,1.1,1.6,1.1,2.6v25.2c-2.1-1.2-4.5-2-7-2
			c-5.5,0-10.2,3.2-12.4,7.9H21.3V29.9z M17.2,68.2c-0.8,0-1.5-0.7-1.5-1.5v-4.2h38.4c-0.5,1.4-0.7,2.9-0.7,4.4c0,0.4,0,0.8,0.1,1.3
			H17.2z M75.9,75.6c-2.2,2.2-5.3,3.6-8.7,3.6c-3.4,0-6.4-1.4-8.7-3.6c-2.2-2.2-3.6-5.3-3.6-8.7c0-3.4,1.4-6.4,3.6-8.7
			c2.2-2.2,5.3-3.6,8.7-3.6c3.4,0,6.4,1.4,8.7,3.6c2.2,2.2,3.6,5.3,3.6,8.7C79.5,70.3,78.1,73.3,75.9,75.6z"/>
		<path class="st3" d="M67.2,61.8C67.2,61.8,67.2,61.8,67.2,61.8c-0.1,0-0.1,0-0.1,0h-4.5c-0.4,0-0.8,0.3-0.8,0.8v8.7
			c0,0.4,0.3,0.8,0.8,0.8c0.4,0,0.8-0.3,0.8-0.8v-3.6h3.1v3.6c0,0.4,0.3,0.8,0.8,0.8c0.4,0,0.8-0.3,0.8-0.8v-8.7
			C68,62.1,67.6,61.8,67.2,61.8z M63.4,66.1v-2.9h3.1v2.9H63.4z"/>
		<path class="st3" d="M71.6,61.8c-0.4,0-0.8,0.3-0.8,0.8v8.7c0,0.4,0.3,0.8,0.8,0.8c0.4,0,0.8-0.3,0.8-0.8v-8.7
			C72.3,62.1,72,61.8,71.6,61.8z"/>
	</g>
</g>
</svg>
