<?xml version="1.0" encoding="utf-8"?>
<!-- Generator: Adobe Illustrator 24.1.2, SVG Export Plug-In . SVG Version: 6.00 Build 0)  -->
<svg version="1.1" xmlns="http://www.w3.org/2000/svg" xmlns:xlink="http://www.w3.org/1999/xlink" x="0px" y="0px"
	 viewBox="0 0 90 90" style="enable-background:new 0 0 90 90;" xml:space="preserve">
<style type="text/css">
	.st0{display:none;}
	.st1{display:inline;fill:none;stroke:#009FE3;stroke-width:0.25;stroke-miterlimit:10;}
	.st2{display:inline;fill:none;stroke:#FF00FF;stroke-width:0.25;stroke-miterlimit:10;}
	.st3{fill:#384350;}
</style>
<g id="Grid" class="st0">
	<rect id="canvas_60x60px_5_" x="15" y="15" class="st1" width="60" height="60"/>
	<rect id="canvas_70x70px_5_" x="10" y="10" class="st1" width="70" height="70"/>
</g>
<g id="Additional_bottom" class="st0">
	<rect id="_x38_x8p_canvas_18_" x="50" y="50" class="st2" width="34" height="34"/>
	<rect id="_x38_x8p_canvas_17_" x="54" y="54" class="st2" width="26" height="26"/>
</g>
<g id="Additional_center" class="st0">
	<rect id="_x38_x8p_canvas_14_" x="28" y="28" class="st2" width="34" height="34"/>
	<rect id="_x38_x8p_canvas_13_" x="32" y="32" class="st2" width="26" height="26"/>
</g>
<g id="Circle" class="st0">
	<circle class="st1" cx="45" cy="45" r="30"/>
</g>
<g id="Vertical_rectangle" class="st0">
	<path class="st1" d="M65,15H25c-2.2,0-4,1.8-4,4v52c0,2.2,1.8,4,4,4h40c2.2,0,4-1.8,4-4V19C69,16.8,67.2,15,65,15z"/>
</g>
<g id="Horizontal_rectangle" class="st0">
	<path class="st1" d="M71,21H19c-2.2,0-4,1.8-4,4v40c0,2.2,1.8,4,4,4h52c2.2,0,4-1.8,4-4V25C75,22.8,73.2,21,71,21z"/>
</g>
<g id="Square" class="st0">
	<path class="st1" d="M68,72H22c-2.2,0-4-1.8-4-4V22c0-2.2,1.8-4,4-4h46c2.2,0,4,1.8,4,4v46C72,70.2,70.2,72,68,72z"/>
</g>
<g id="icon">
	<g>
		<path class="st3" d="M40.5,63c0.4,0,0.8-0.3,0.8-0.8h0V50.1c0-1.5-1.2-2.7-2.7-2.8h-4.7c-1.5,0-2.7,1.2-2.8,2.8v12.2
			c0,0.4,0.3,0.8,0.8,0.8c0.4,0,0.8-0.3,0.8-0.8l0-12.2c0-0.7,0.6-1.2,1.3-1.3h4.7c0.7,0,1.2,0.6,1.2,1.3v12.2
			C39.8,62.6,40.1,63,40.5,63z"/>
		<path class="st3" d="M16.3,23.1c1.2,0,2.1-0.9,2.1-2.1c0-1.2-0.9-2.1-2.1-2.1c-1.2,0-2.1,0.9-2.1,2.1
			C14.2,22.2,15.2,23.1,16.3,23.1z M16.3,20.4c0.3,0,0.6,0.3,0.6,0.6c0,0.3-0.3,0.6-0.6,0.6c-0.3,0-0.6-0.3-0.6-0.6
			C15.7,20.7,16,20.4,16.3,20.4z"/>
		<path class="st3" d="M21.3,23.1c1.2,0,2.1-0.9,2.1-2.1c0-1.2-0.9-2.1-2.1-2.1c-1.2,0-2.1,0.9-2.1,2.1
			C19.3,22.2,20.2,23.1,21.3,23.1z M21.3,20.4c0.3,0,0.6,0.3,0.6,0.6c0,0.3-0.3,0.6-0.6,0.6c-0.3,0-0.6-0.3-0.6-0.6
			C20.8,20.7,21,20.4,21.3,20.4z"/>
		<path class="st3" d="M26.3,23.1c1.2,0,2.1-0.9,2.1-2.1c0-1.2-0.9-2.1-2.1-2.1c-1.2,0-2.1,0.9-2.1,2.1
			C24.3,22.2,25.2,23.1,26.3,23.1z M26.3,20.4c0.3,0,0.6,0.3,0.6,0.6c0,0.3-0.3,0.6-0.6,0.6c-0.3,0-0.6-0.3-0.6-0.6
			C25.8,20.7,26,20.4,26.3,20.4z"/>
		<path class="st3" d="M75,29h-8.7c-0.4,0-0.8,0.3-0.8,0.8c0,0.4,0.3,0.8,0.8,0.8H75c0.4,0,0.8-0.3,0.8-0.8C75.7,29.4,75.4,29,75,29
			z"/>
		<path class="st3" d="M75.7,56.4V34.9c0-1.5-1.2-2.7-2.7-2.8h-4.7c-1.5,0-2.7,1.2-2.8,2.8v18.4c-2.6,0.3-5,1.3-7,2.9V41.9
			c0-1.5-1.2-2.7-2.7-2.8h-4.7c-1.5,0-2.7,1.2-2.8,2.8v20.3c0,0.4,0.3,0.8,0.8,0.8c0.4,0,0.8-0.3,0.8-0.8l0-20.3
			c0-0.7,0.6-1.2,1.3-1.3h4.7c0.7,0,1.2,0.6,1.2,1.3v15.6c-2.3,2.5-3.8,5.8-3.8,9.4c0,0.4,0,0.8,0.1,1.2H17c-0.7,0-1.2-0.6-1.3-1.2
			V39.6H23v22.6c0,0.4,0.3,0.8,0.8,0.8c0.4,0,0.8-0.3,0.8-0.8h0V39.6l11.6,0c2.6,0,5.2-0.9,7.2-2.6l15.5-13c1.7-1.5,3.9-2.3,6.2-2.3
			H75c0.4,0,0.7-0.3,0.7-0.7c0-0.4-0.3-0.8-0.7-0.8H64.9c-2.6,0-5.2,0.9-7.2,2.6l-15.5,13c-1.7,1.5-3.9,2.3-6.2,2.3H24.5v-4.7
			c0-1.5-1.2-2.7-2.7-2.8H17c-1.5,0-2.7,1.2-2.8,2.8V67c0,1.5,1.2,2.7,2.8,2.7h36.5c1.3,6.3,6.8,11,13.5,11
			c7.6,0,13.7-6.2,13.7-13.7C80.7,62.7,78.8,58.9,75.7,56.4z M17,32.2h4.7c0.7,0,1.2,0.6,1.2,1.3v4.7h-7.2v-4.7
			C15.8,32.7,16.3,32.2,17,32.2z M68.3,33.7H73c0.7,0,1.2,0.6,1.2,1.3v20.4c-2.1-1.3-4.6-2.1-7.2-2.1l0-18.3
			C67,34.2,67.6,33.7,68.3,33.7z M75.7,75.7c-2.2,2.2-5.3,3.6-8.7,3.6c-3.4,0-6.4-1.4-8.7-3.6c-2.2-2.2-3.6-5.3-3.6-8.7
			c0-3.4,1.4-6.4,3.6-8.7c2.2-2.2,5.3-3.6,8.7-3.6c3.4,0,6.4,1.4,8.7,3.6c2.2,2.2,3.6,5.3,3.6,8.7C79.2,70.4,77.9,73.4,75.7,75.7z"
			/>
		<path class="st3" d="M67,68.6c2.5,0,4.6-2,4.6-4.6c0-2.5-2-4.6-4.6-4.6c-2.5,0-4.6,2.1-4.6,4.6C62.4,66.5,64.5,68.6,67,68.6z
			 M64.8,61.8c0.6-0.6,1.3-0.9,2.2-0.9c0.8,0,1.6,0.3,2.2,0.9c0.6,0.6,0.9,1.3,0.9,2.2c0,0.8-0.3,1.6-0.9,2.2
			c-0.6,0.6-1.3,0.9-2.2,0.9c-0.8,0-1.6-0.3-2.2-0.9c-0.6-0.6-0.9-1.3-0.9-2.2C63.9,63.1,64.3,62.4,64.8,61.8z"/>
		<path class="st3" d="M73.6,70.8L73.6,70.8c-0.9-1.2-2.3-2.1-3.9-2.5c-0.1,0-0.2,0-0.3,0c-0.2,0-0.5,0.1-0.7,0.2L67,69.9l-1.8-1.4
			c-0.2-0.2-0.4-0.2-0.7-0.2c-0.1,0-0.2,0-0.3,0.1c-1.6,0.5-2.9,1.4-3.8,2.5l0,0l-0.3,0.3c-0.1,0.1-0.2,0.3-0.2,0.5s0.1,0.4,0.2,0.5
			c1.8,1.7,4.2,2.7,6.9,2.7c2.6,0,5-1,6.8-2.7c0.3-0.3,0.3-0.7,0.1-1L73.6,70.8z M61.8,71.6c0.7-0.8,1.6-1.4,2.7-1.8l1.9,1.5
			c0.2,0.2,0.4,0.2,0.7,0.2c0.2,0,0.5-0.1,0.7-0.2l1.9-1.5c1.1,0.4,2,1,2.7,1.8c-1.5,1.1-3.3,1.8-5.3,1.8
			C65,73.4,63.2,72.7,61.8,71.6z"/>
		<polygon class="st3" points="64.2,68.3 64.2,68.3 64.2,68.3 		"/>
		<polygon class="st3" points="68.8,68.5 68.8,68.5 68.8,68.5 		"/>
	</g>
</g>
</svg>
