<svg xmlns="http://www.w3.org/2000/svg" viewBox="0 0 82 82"><title>sankey-before</title><rect width="82" height="82" style="fill:#fff;opacity:0"/><rect x="27.20532" y="18.7855" width="39.58267" height="54.42901" rx="3.89097" ry="3.89097" transform="translate(92.99666 -0.99666) rotate(90)" style="fill:#d9eeff"/><path d="M34.38225,60.79133H65.32019a3.891,3.891,0,0,0,3.891-3.891V53.542" style="fill:none;stroke:#0b68ff;stroke-linecap:round;stroke-linejoin:round;stroke-width:2px"/><path d="M69.21116,27.83333v-2.7337a3.891,3.891,0,0,0-3.891-3.891H34.38225" style="fill:none;stroke:#0b68ff;stroke-linecap:round;stroke-linejoin:round;stroke-width:2px"/><path d="M74.68512,38.95966a2.33977,2.33977,0,0,1,0,4.08068L64.28844,49.48913a2.336,2.336,0,0,1-3.50407-2.02307V34.53394a2.336,2.336,0,0,1,3.50407-2.02307Z" style="fill:#fff;stroke:#0b68ff;stroke-linecap:round;stroke-linejoin:round;stroke-width:2px"/><path d="M54.61761,36.95875a9.54875,9.54875,0,0,1-5.1143-1.37612l-7.30875-4.74776a9.54871,9.54871,0,0,0-5.1143-1.37612H34.3822" style="fill:none;stroke:#0b68ff;stroke-linecap:round;stroke-linejoin:round;stroke-width:2px"/><path d="M54.6177,45.04133a9.5488,9.5488,0,0,0-5.1143,1.37612l-7.30874,4.74776a9.54871,9.54871,0,0,1-5.1143,1.37612H34.3823" style="fill:none;stroke:#0b68ff;stroke-linecap:round;stroke-linejoin:round;stroke-width:2px"/><rect x="12.87942" y="44.71596" width="15.65074" height="15.65074" rx="2.9916" ry="2.9916" style="fill:#fff;stroke:#0b68ff;stroke-linecap:round;stroke-linejoin:round;stroke-width:2px"/><rect x="12.87942" y="21.3555" width="15.65074" height="15.65074" rx="2.9916" ry="2.9916" style="fill:#fff;stroke:#0b68ff;stroke-linecap:round;stroke-linejoin:round;stroke-width:2px"/></svg>