<?xml version="1.0" encoding="utf-8"?>
<!-- Generator: Adobe Illustrator 24.1.2, SVG Export Plug-In . SVG Version: 6.00 Build 0)  -->
<svg version="1.1" xmlns="http://www.w3.org/2000/svg" xmlns:xlink="http://www.w3.org/1999/xlink" x="0px" y="0px"
	 viewBox="0 0 90 90" style="enable-background:new 0 0 90 90;" xml:space="preserve">
<style type="text/css">
	.st0{display:none;}
	.st1{display:inline;fill:none;stroke:#009FE3;stroke-width:0.25;stroke-miterlimit:10;}
	.st2{display:inline;fill:none;stroke:#FF00FF;stroke-width:0.25;stroke-miterlimit:10;}
	.st3{fill:#384350;}
</style>
<g id="Grid" class="st0">
	<rect id="canvas_60x60px_3_" x="15" y="15" class="st1" width="60" height="60"/>
	<rect id="canvas_70x70px_3_" x="10" y="10" class="st1" width="70" height="70"/>
</g>
<g id="Additional_bottom" class="st0">
	<rect id="_x38_x8p_canvas_10_" x="50" y="50" class="st2" width="34" height="34"/>
	<rect id="_x38_x8p_canvas_9_" x="54" y="54" class="st2" width="26" height="26"/>
</g>
<g id="Additional_center" class="st0">
	<rect id="_x38_x8p_canvas_6_" x="28" y="28" class="st2" width="34" height="34"/>
	<rect id="_x38_x8p_canvas_5_" x="32" y="32" class="st2" width="26" height="26"/>
</g>
<g id="Circle" class="st0">
	<circle class="st1" cx="45" cy="45" r="30"/>
</g>
<g id="Vertical_rectangle" class="st0">
	<path class="st1" d="M65,15H25c-2.2,0-4,1.8-4,4v52c0,2.2,1.8,4,4,4h40c2.2,0,4-1.8,4-4V19C69,16.8,67.2,15,65,15z"/>
</g>
<g id="Horizontal_rectangle" class="st0">
	<path class="st1" d="M71,21H19c-2.2,0-4,1.8-4,4v40c0,2.2,1.8,4,4,4h52c2.2,0,4-1.8,4-4V25C75,22.8,73.2,21,71,21z"/>
</g>
<g id="Square" class="st0">
	<path class="st1" d="M68,72H22c-2.2,0-4-1.8-4-4V22c0-2.2,1.8-4,4-4h46c2.2,0,4,1.8,4,4v46C72,70.2,70.2,72,68,72z"/>
</g>
<g id="icon">
	<g>
		<path class="st3" d="M43.5,37c3,0,5.7,1.2,7.7,3.2c2,2,3.2,4.7,3.2,7.7c0,0.2,0.1,0.4,0.2,0.5s0.3,0.2,0.5,0.2h7.3
			c0.2,0,0.4-0.1,0.5-0.2c0.1-0.1,0.2-0.3,0.2-0.5c0-2.9-0.6-5.6-1.7-8c0,0,0,0,0-0.1c0,0,0,0,0,0c-3.1-6.8-9.9-11.5-17.9-11.5
			c-10.9,0-19.7,8.8-19.7,19.7c0,0.2,0.1,0.4,0.2,0.5s0.3,0.2,0.5,0.2h7.3c0.2,0,0.4-0.1,0.5-0.2c0.1-0.1,0.2-0.3,0.2-0.5
			c0-2.7,1-5.2,2.7-7.2l4.1,4.1c-0.6,0.9-1,1.9-1,3.1c0,2.9,2.3,5.2,5.2,5.2c1.2,0,2.2-0.4,3.1-1l2.5,2.5c0.3,0.3,0.8,0.3,1.1,0
			c0.3-0.3,0.3-0.8,0-1.1L47.7,51c0.6-0.9,1-1.9,1-3.1c0-2.9-2.3-5.2-5.2-5.2c-1.2,0-2.2,0.4-3.1,1l-4.1-4.1
			C38.3,38.1,40.8,37,43.5,37z M61.6,47.2h-5.8c-0.1-1.2-0.3-2.3-0.7-3.3l5.2-2.6C61.1,43.1,61.6,45.1,61.6,47.2z M31.1,47.2h-5.8
			c0.2-4.7,2.2-9,5.3-12.1c3.3-3.3,7.8-5.3,12.9-5.3c5,0,9.6,2,12.9,5.3c1.4,1.4,2.5,3,3.4,4.8l-5.1,2.6c-2-4.1-6.2-6.9-11.1-6.9
			c-3.2,0-6,1.2-8.2,3.1l-2-2c-0.3-0.3-0.8-0.3-1.1,0c-0.3,0.3-0.3,0.8,0,1.1l2,2C32.4,41.7,31.3,44.3,31.1,47.2z M46.1,45.3
			c0.7,0.7,1.1,1.6,1.1,2.6c0,1-0.4,1.9-1.1,2.6c-0.7,0.7-1.6,1.1-2.6,1.1c-1,0-1.9-0.4-2.6-1.1c-0.7-0.7-1.1-1.6-1.1-2.6
			c0-1,0.4-1.9,1.1-2.6c0,0,0,0,0,0c0,0,0,0,0,0c0.7-0.7,1.6-1.1,2.6-1.1C44.5,44.2,45.4,44.6,46.1,45.3z"/>
		<path class="st3" d="M67,53.3c-7.6,0-13.7,6.2-13.8,13.7c0,2,0.4,3.8,1.2,5.5c-3.4,1.4-7.1,2.1-10.9,2.1c-8.1,0-15.4-3.3-20.7-8.6
			c-5.3-5.3-8.6-12.6-8.6-20.7c0-8.1,3.3-15.4,8.6-20.7c5.3-5.3,12.6-8.6,20.7-8.6c9.9,0,18.6,4.9,23.9,12.4l-2.8,1.7
			c-0.2,0.1-0.4,0.4-0.4,0.7s0.2,0.5,0.5,0.6l6.2,2.5c0.2,0.1,0.5,0.1,0.7-0.1c0.2-0.1,0.3-0.3,0.4-0.6l0.6-6.6
			c0-0.3-0.1-0.6-0.4-0.7c-0.2-0.1-0.5-0.2-0.8,0l-2.7,1.6c-5.6-7.9-14.8-13.1-25.2-13.1c-17,0-30.7,13.8-30.8,30.8
			c0,17,13.8,30.7,30.8,30.7c4.1,0,8-0.8,11.6-2.3c2.4,4.1,6.8,6.9,11.9,6.9c7.6,0,13.7-6.2,13.8-13.7C80.7,59.4,74.6,53.3,67,53.3z
			 M70.5,32.3l-3.8-1.6l4.2-2.6L70.5,32.3z M75.7,75.7c-2.2,2.2-5.3,3.6-8.7,3.6c-3.4,0-6.4-1.4-8.7-3.6c-2.2-2.2-3.6-5.3-3.6-8.7
			c0-3.4,1.4-6.4,3.6-8.7c2.2-2.2,5.3-3.6,8.7-3.6c3.4,0,6.4,1.4,8.7,3.6c2.2,2.2,3.6,5.3,3.6,8.7C79.2,70.4,77.9,73.4,75.7,75.7z"
			/>
		<path class="st3" d="M72.7,69.6c-0.4-0.2-0.8-0.1-1,0.3c-0.5,0.9-1.1,1.5-1.9,1.9c-0.8,0.4-1.7,0.7-2.8,0.7c-1.1,0-2-0.2-2.8-0.7
			c-0.8-0.4-1.4-1.1-1.9-1.9c-0.2-0.4-0.7-0.5-1-0.3c-0.4,0.2-0.5,0.7-0.3,1c0.6,1.1,1.5,1.9,2.5,2.5c1,0.6,2.2,0.8,3.5,0.8
			c1.3,0,2.5-0.3,3.5-0.8c1-0.6,1.9-1.4,2.5-2.5C73.2,70.3,73.1,69.8,72.7,69.6z"/>
		<path class="st3" d="M64.1,67.1c1.3,0,2.4-1.1,2.4-2.4c0-1.3-1.1-2.4-2.4-2.4c-1.3,0-2.4,1.1-2.4,2.4C61.7,66,62.7,67.1,64.1,67.1
			z M64.1,63.8c0.5,0,0.9,0.4,0.9,0.9c0,0.5-0.4,0.9-0.9,0.9c-0.5,0-0.9-0.4-0.9-0.9C63.2,64.2,63.6,63.8,64.1,63.8z"/>
		<path class="st3" d="M69.9,67.1c1.3,0,2.4-1.1,2.4-2.4c0-1.3-1.1-2.4-2.4-2.4c-1.3,0-2.4,1.1-2.4,2.4C67.6,66,68.6,67.1,69.9,67.1
			z M69.9,63.8c0.5,0,0.9,0.4,0.9,0.9c0,0.5-0.4,0.9-0.9,0.9c-0.5,0-0.9-0.4-0.9-0.9C69.1,64.2,69.5,63.8,69.9,63.8z"/>
	</g>
</g>
</svg>
