<svg xmlns="http://www.w3.org/2000/svg" viewBox="0 0 82 82"><title>recommendation-cart</title><rect width="82" height="82" style="fill:#fff;opacity:0"/><path d="M57.48681,61.36129,45.47834,55.50587a5.2795,5.2795,0,0,0-4.6278,0L28.84207,61.36129a2.53368,2.53368,0,0,1-3.64414-2.27737V33.695a4.61172,4.61172,0,0,1,4.61172-4.61172H56.51923A4.61173,4.61173,0,0,1,61.131,33.695V59.08392A2.53369,2.53369,0,0,1,57.48681,61.36129Z" style="fill:#d9eeff"/><path d="M57.131,44.44213V55.08392a2.53369,2.53369,0,0,1-3.64415,2.27737L41.47834,51.50587a5.2795,5.2795,0,0,0-4.6278,0L24.84207,57.36129a2.53368,2.53368,0,0,1-3.64414-2.27737V29.695a4.61172,4.61172,0,0,1,4.61172-4.61172h9.93812" style="fill:none;stroke:#0b68ff;stroke-linecap:round;stroke-linejoin:round;stroke-width:2px"/><path d="M57.39315,38.00557h-12.496a1.47085,1.47085,0,0,1-1.43663-1.07677l-2.22126-8.52929a1.436,1.436,0,0,1,1.43662-1.76632H59.61442a1.436,1.436,0,0,1,1.43663,1.76632L58.82978,36.9288A1.47084,1.47084,0,0,1,57.39315,38.00557Z" style="fill:#fff;stroke:#0b68ff;stroke-linecap:round;stroke-linejoin:round;stroke-width:2px"/><line x1="44.03741" y1="26.63319" x2="46.88051" y2="20.94699" style="fill:#fff;stroke:#0b68ff;stroke-linecap:round;stroke-linejoin:round;stroke-width:2px"/><line x1="58.25289" y1="26.63319" x2="55.4098" y2="20.94699" style="fill:#fff;stroke:#0b68ff;stroke-linecap:round;stroke-linejoin:round;stroke-width:2px"/></svg>