<?xml version="1.0" encoding="utf-8"?>
<!-- Generator: Adobe Illustrator 19.2.0, SVG Export Plug-In . SVG Version: 6.00 Build 0)  -->
<svg version="1.1" id="Layer_1" xmlns="http://www.w3.org/2000/svg" xmlns:xlink="http://www.w3.org/1999/xlink" x="0px" y="0px"
	 viewBox="0 0 48 48" style="enable-background:new 0 0 48 48;" xml:space="preserve">
<style type="text/css">
	.st0{fill:#FFFFFF;fill-opacity:0;}
	.st1{fill:#D9EEFF;}
	.st2{fill:none;stroke:#0B68FF;stroke-width:2;stroke-linecap:round;stroke-linejoin:round;}
</style>
<title>dahboard-donut-line</title>
<rect class="st0" width="48" height="48"/>
<g>
	<path class="st1" d="M26.3,8.6C16.7,8.6,8.9,16.4,8.9,26c0,9.6,7.8,17.4,17.4,17.4S43.6,35.6,43.6,26C43.6,16.4,35.8,8.6,26.3,8.6z
		 M26.3,40C18.4,40,12,33.6,12,25.7s6.4-14.2,14.2-14.2c7.9,0,14.2,6.4,14.2,14.2S34.1,40,26.3,40z"/>
	<path class="st2" d="M40.9,20.7c-1.3-7.2-6.9-12.8-14-14.1"/>
	<path class="st2" d="M13.8,37.9c7.9,5.5,18.7,3.6,24.2-4.2c1.5-2.1,2.4-4.5,2.9-7"/>
	<path class="st2" d="M20.7,6.6C11.3,8.3,5,17.4,6.7,26.8c0.4,2.4,1.3,4.6,2.7,6.6"/>
</g>
</svg>
