<?xml version="1.0" encoding="utf-8"?>
<!-- Generator: Adobe Illustrator 19.2.0, SVG Export Plug-In . SVG Version: 6.00 Build 0)  -->
<svg version="1.1" id="Layer_1" xmlns="http://www.w3.org/2000/svg" xmlns:xlink="http://www.w3.org/1999/xlink" x="0px" y="0px"
	 viewBox="0 0 48 48" style="enable-background:new 0 0 48 48;" xml:space="preserve">
<style type="text/css">
	.st0{fill:#FFFFFF;fill-opacity:0;}
	.st1{fill:#D9EEFF;}
	.st2{fill:none;stroke:#0B68FF;stroke-width:2;stroke-linecap:round;stroke-linejoin:round;}
</style>
<title>dahboard-donut</title>
<rect class="st0" width="48" height="48"/>
<g>
	<path class="st1" d="M27,9.6C17.4,9.6,9.6,17.4,9.6,27c0,9.6,7.8,17.4,17.4,17.4c9.6,0,17.4-7.8,17.4-17.4
		C44.4,17.4,36.6,9.6,27,9.6C27,9.6,27,9.6,27,9.6z M27,33.5c-3.6,0-6.5-2.9-6.5-6.5c0-3.6,2.9-6.5,6.5-6.5c3.6,0,6.5,2.9,6.5,6.5
		C33.5,30.6,30.6,33.5,27,33.5L27,33.5z"/>
	<path class="st2" d="M24,6.6C14.4,6.6,6.6,14.4,6.6,24S14.4,41.4,24,41.4c9.6,0,17.4-7.8,17.4-17.4C41.4,14.4,33.6,6.6,24,6.6
		C24,6.6,24,6.6,24,6.6z M24,30.5c-3.6,0-6.5-2.9-6.5-6.5c0-3.6,2.9-6.5,6.5-6.5c3.6,0,6.5,2.9,6.5,6.5c0,0,0,0,0,0
		C30.5,27.6,27.6,30.5,24,30.5z"/>
	<line class="st2" x1="24" y1="17.5" x2="24" y2="6.6"/>
	<line class="st2" x1="41.4" y1="24" x2="30.5" y2="24"/>
	<line class="st2" x1="19.4" y1="28.6" x2="11.7" y2="36.3"/>
</g>
</svg>
