<?xml version="1.0" encoding="utf-8"?>
<!-- Generator: Adobe Illustrator 19.2.0, SVG Export Plug-In . SVG Version: 6.00 Build 0)  -->
<svg version="1.1" id="Layer_1" xmlns="http://www.w3.org/2000/svg" xmlns:xlink="http://www.w3.org/1999/xlink" x="0px" y="0px"
	 viewBox="0 0 48 48" style="enable-background:new 0 0 48 48;" xml:space="preserve">
<style type="text/css">
	.st0{fill:#FFFFFF;fill-opacity:0;}
	.st1{fill:#D9EEFF;}
	.st2{fill:none;stroke:#0B68FF;stroke-width:2;stroke-linecap:round;stroke-linejoin:round;}
</style>
<title>dahboard-table</title>
<rect class="st0" width="48" height="48"/>
<g>
	<path class="st1" d="M11.1,12.2h31.8c0.8,0,1.4,0.6,1.4,1.4v27.3c0,0.8-0.6,1.4-1.4,1.4H11.1c-0.8,0-1.4-0.6-1.4-1.4V13.5
		C9.7,12.8,10.4,12.2,11.1,12.2z"/>
	<path class="st2" d="M8.1,9.2h31.8c0.8,0,1.4,0.6,1.4,1.4v27.3c0,0.8-0.6,1.4-1.4,1.4H8.1c-0.8,0-1.4-0.6-1.4-1.4V10.5
		C6.7,9.8,7.4,9.2,8.1,9.2z"/>
	<line class="st2" x1="6.7" y1="19.1" x2="41.3" y2="19.1"/>
	<line class="st2" x1="6.7" y1="29.1" x2="41.3" y2="29.1"/>
	<line class="st2" x1="24" y1="13.6" x2="24" y2="34.7"/>
</g>
</svg>
