<svg xmlns="http://www.w3.org/2000/svg" viewBox="0 0 82 82"><title>promotion-out</title><rect width="82" height="82" style="fill:#f2f2f2;opacity:0"/><path d="M24.70491,62.80952H65.0317c2.19234,0,3.96958-2.48619,3.96958-5.55307V33.52134c0-3.14381-1.82182-5.69237-4.06915-5.69237H25.07043c-2.24733,0-4.06915,2.54856-4.06915,5.69237V57.62849C21.00128,60.4899,22.65945,62.80952,24.70491,62.80952Z" style="fill:#d9eeff"/><line x1="64.51827" y1="34.32857" x2="64.51827" y2="37.63655" style="fill:none;stroke:#0b68ff;stroke-linecap:round;stroke-linejoin:round;stroke-width:2px"/><path d="M35.85059,58.4787H20.48784a3.96958,3.96958,0,0,1-3.96957-3.96958V31.829" style="fill:none;stroke:#0b68ff;stroke-linecap:round;stroke-linejoin:round;stroke-width:2px"/><path d="M46.07708,58.4787H56.33247v3.65523a2.19434,2.19434,0,0,0,3.511,1.75546L71.0198,55.507a3.10546,3.10546,0,0,0,0-4.96871L59.84343,42.1559a2.19434,2.19434,0,0,0-3.511,1.75546v3.6559H49.07708" style="fill:#fff"/><path d="M33.85059,58.4787H56.33247v3.65523a2.19434,2.19434,0,0,0,3.511,1.75546L71.0198,55.507a3.10546,3.10546,0,0,0,0-4.96871L59.84343,42.1559a2.19434,2.19434,0,0,0-3.511,1.75546v3.6559H33.85059" style="fill:none;stroke:#0b68ff;stroke-linecap:round;stroke-linejoin:round;stroke-width:2px"/><path d="M39.88539,42.95715V41.30221a2.66376,2.66376,0,0,0-2.66376-2.66376H30.8487a2.66377,2.66377,0,0,0-2.66377,2.66376V58.4787" style="fill:none;stroke:#0b68ff;stroke-linecap:round;stroke-linejoin:round;stroke-width:2px"/><path d="M55.36315,26.87758a6.9375,6.9375,0,1,1-13.875,0,6.9375,6.9375,0,0,1-13.875,0,6.9375,6.9375,0,0,1-13.875,0H13.738l2.47486-5.45379a1.97252,1.97252,0,0,1,1.79638-1.15747H64.967a1.97279,1.97279,0,0,1,1.79638,1.15747L69.238,26.87757h.00012a6.9375,6.9375,0,0,1-13.875,0Z" style="fill:#fff;stroke:#0b68ff;stroke-linecap:round;stroke-linejoin:round;stroke-width:2px"/></svg>