<svg xmlns="http://www.w3.org/2000/svg" viewBox="0 0 82 82"><title>promotion-in</title><rect width="82" height="82" transform="translate(82 0) rotate(90)" style="fill:#f2f2f2;opacity:0"/><path d="M25.75955,63.7372H66.08634c2.19234,0,3.96958-2.4862,3.96958-5.55308V34.449c0-3.14381-1.82182-5.69236-4.06915-5.69236H26.12507c-2.24733,0-4.06915,2.54855-4.06915,5.69236V58.55616C22.05592,61.41757,23.71409,63.7372,25.75955,63.7372Z" style="fill:#d9eeff"/><path d="M13.83723,58.95247h16.2554V62.6077a2.19434,2.19434,0,0,0,3.511,1.75546L44.78,55.98077a3.10547,3.10547,0,0,0,0-4.96872L33.60359,42.62966a2.19435,2.19435,0,0,0-3.511,1.75547V48.041H19.83723" style="fill:#fff"/><path d="M8.83409,58.95247H30.09263V62.6077a2.19434,2.19434,0,0,0,3.511,1.75546L44.78,55.98077a3.10547,3.10547,0,0,0,0-4.96872L33.60359,42.62966a2.19435,2.19435,0,0,0-3.511,1.75547V48.041H14.83409" style="fill:none;stroke:#0b68ff;stroke-linecap:round;stroke-linejoin:round;stroke-width:2px"/><line x1="4.61075" y1="48.04103" x2="9.03019" y2="48.04103" style="fill:none;stroke:#0b68ff;stroke-linecap:round;stroke-linejoin:round;stroke-width:2px"/><line x1="18.38925" y1="34.53919" x2="18.38925" y2="40.51739" style="fill:none;stroke:#0b68ff;stroke-linecap:round;stroke-linejoin:round;stroke-width:2px"/><path d="M48.38925,59.40637H62.41967a3.96958,3.96958,0,0,0,3.96958-3.96957V34.53919" style="fill:none;stroke:#0b68ff;stroke-linecap:round;stroke-linejoin:round;stroke-width:2px"/><path d="M46.02212,43.88483V42.22989a2.66377,2.66377,0,0,1,2.66377-2.66377h6.37293a2.66377,2.66377,0,0,1,2.66377,2.66377V59.40637" style="fill:none;stroke:#0b68ff;stroke-linecap:round;stroke-linejoin:round;stroke-width:2px"/><path d="M56.18092,27.80525a6.9375,6.9375,0,0,1-13.875,0,6.9375,6.9375,0,0,1-13.875,0,6.9375,6.9375,0,0,1-13.875,0H14.5558l2.47486-5.4538A1.97254,1.97254,0,0,1,18.827,21.194H65.78481a1.97283,1.97283,0,0,1,1.79639,1.15747l2.4746,5.4538h.00012a6.9375,6.9375,0,0,1-13.875,0Z" style="fill:#fff;stroke:#0b68ff;stroke-linecap:round;stroke-linejoin:round;stroke-width:2px"/></svg>