<svg xmlns="http://www.w3.org/2000/svg" viewBox="0 0 82 82"><title>ad_icon_recurring</title><rect width="82" height="82" style="fill:#ededed;opacity:0"/><path d="M1062.73,1675.6425h-23.8247a4.6792,4.6792,0,0,1-4.6792-4.6792v-31.3916a4.6792,4.6792,0,0,1,4.6792-4.6792h31.3916a4.6792,4.6792,0,0,1,4.6792,4.6792v23.8894Z" transform="translate(-1009.6008 -1610.2673)" style="fill:#d9eeff"/><line x1="24.6253" y1="35.1537" x2="65.3753" y2="35.1537" style="fill:#d9eeff"/><path d="M1046.0423,1671.6423H1034.905a4.6792,4.6792,0,0,1-4.6792-4.6792v-31.3916a4.6792,4.6792,0,0,1,4.6792-4.6792h31.3916a4.6792,4.6792,0,0,1,4.6792,4.6792v9.8494" transform="translate(-1009.6008 -1610.2673)" style="fill:none;stroke:#0b68ff;stroke-linecap:round;stroke-linejoin:round;stroke-width:2px"/><line x1="20.625" y1="31.1534" x2="55.2844" y2="31.1534" style="fill:none;stroke:#0b68ff;stroke-linecap:round;stroke-linejoin:round;stroke-width:2px"/><line x1="30.875" y1="16.3172" x2="30.875" y2="24.9034" style="fill:none;stroke:#0b68ff;stroke-linecap:round;stroke-miterlimit:10;stroke-width:2px"/><line x1="51.125" y1="16.3319" x2="51.125" y2="24.9181" style="fill:none;stroke:#0b68ff;stroke-linecap:round;stroke-miterlimit:10;stroke-width:2px"/><circle cx="53.6194" cy="54.058" r="12.6194" style="fill:#fff;stroke:#0b68ff;stroke-linecap:round;stroke-linejoin:round;stroke-width:2px"/><path d="M1070.0621,1664.3253a6.8419,6.8419,0,0,0-6.8419-6.8419" transform="translate(-1009.6008 -1610.2673)" style="fill:none;stroke:#0b68ff;stroke-linecap:round;stroke-linejoin:round;stroke-width:2px"/><path d="M1056.3783,1664.3253a6.8419,6.8419,0,0,0,6.8419,6.8419" transform="translate(-1009.6008 -1610.2673)" style="fill:none;stroke:#0b68ff;stroke-linecap:round;stroke-linejoin:round;stroke-width:2px"/></svg>