<svg xmlns="http://www.w3.org/2000/svg" viewBox="0 0 82 82"><title>ad_icon_multiple</title><rect width="82" height="82" style="fill:#ededed;opacity:0"/><path d="M1060.8422,1788.5826h-23.8247a4.6792,4.6792,0,0,1-4.6792-4.6792v-31.3916a4.6792,4.6792,0,0,1,4.6792-4.6792h31.3916a4.6792,4.6792,0,0,1,4.6792,4.6792v23.8894Z" transform="translate(-1007.7047 -1723.2371)" style="fill:#d9eeff"/><line x1="24.6336" y1="35.1239" x2="65.3836" y2="35.1239" style="fill:#d9eeff"/><path d="M1056.842,1784.5823h-23.8247a4.6792,4.6792,0,0,1-4.6792-4.6792v-31.3916a4.6792,4.6792,0,0,1,4.6792-4.6792h31.3916a4.6792,4.6792,0,0,1,4.6792,4.6792v23.8894Z" transform="translate(-1007.7047 -1723.2371)" style="fill:none;stroke:#0b68ff;stroke-linecap:round;stroke-linejoin:round;stroke-width:2px"/><line x1="20.6334" y1="31.1237" x2="55.2927" y2="31.1237" style="fill:none;stroke:#0b68ff;stroke-linecap:round;stroke-linejoin:round;stroke-width:2px"/><line x1="30.8834" y1="16.2874" x2="30.8834" y2="24.8737" style="fill:none;stroke:#0b68ff;stroke-linecap:round;stroke-miterlimit:10;stroke-width:2px"/><line x1="51.1334" y1="16.3021" x2="51.1334" y2="24.8884" style="fill:none;stroke:#0b68ff;stroke-linecap:round;stroke-miterlimit:10;stroke-width:2px"/><path d="M1069.088,1772.401h-7.0115a5.17,5.17,0,0,0-5.17,5.17v7.0116Z" transform="translate(-1007.7047 -1723.2371)" style="fill:#fff;stroke:#0b68ff;stroke-linecap:round;stroke-linejoin:round;stroke-width:2px"/><circle cx="29.7837" cy="40.5531" r="2.4172" style="fill:none;stroke:#0b68ff;stroke-linecap:round;stroke-linejoin:round;stroke-width:2px"/><circle cx="39.2499" cy="40.5531" r="2.4172" style="fill:none;stroke:#0b68ff;stroke-linecap:round;stroke-linejoin:round;stroke-width:2px"/><circle cx="48.7161" cy="40.5531" r="2.4172" style="fill:none;stroke:#0b68ff;stroke-linecap:round;stroke-linejoin:round;stroke-width:2px"/><circle cx="29.7837" cy="49.805" r="2.4172" style="fill:none;stroke:#0b68ff;stroke-linecap:round;stroke-linejoin:round;stroke-width:2px"/></svg>