<svg width="82" height="82" viewBox="0 0 82 82" fill="none" xmlns="http://www.w3.org/2000/svg">
<g clip-path="url(#clip0_13349_4703)">
<path d="M74.2112 61.9002V30.0995C74.2112 27.9505 72.4691 26.2085 70.3202 26.2085L23.6731 26.2085C21.5242 26.2085 19.7822 27.9505 19.7822 30.0995V61.9002C19.7822 64.0491 21.5242 65.7912 23.6731 65.7912H70.3202C72.4691 65.7912 74.2112 64.0491 74.2112 61.9002Z" fill="#D9EEFF"/>
<path d="M34.3822 60.7913H65.3201C65.8311 60.7913 66.3371 60.6907 66.8092 60.4951C67.2812 60.2996 67.7102 60.013 68.0715 59.6517C68.4328 59.2904 68.7194 58.8614 68.915 58.3893C69.1105 57.9173 69.2111 57.4113 69.2111 56.9003V53.542" stroke="#0B68FF" stroke-width="2" stroke-linecap="round" stroke-linejoin="round"/>
<path d="M69.2111 27.8332V25.0995C69.2111 24.0675 68.8012 23.0778 68.0715 22.3481C67.3418 21.6184 66.3521 21.2085 65.3201 21.2085H34.3822" stroke="#0B68FF" stroke-width="2" stroke-linecap="round" stroke-linejoin="round"/>
<path d="M74.6852 38.9595C75.0475 39.1629 75.3492 39.4591 75.5591 39.8177C75.7691 40.1763 75.8797 40.5844 75.8797 40.9999C75.8797 41.4154 75.7691 41.8235 75.5591 42.182C75.3492 42.5406 75.0475 42.8368 74.6852 43.0402L64.2885 49.489C63.9334 49.6941 63.5305 49.802 63.1205 49.802C62.7104 49.802 62.3076 49.6941 61.9524 49.4891C61.5973 49.284 61.3024 48.9891 61.0974 48.634C60.8923 48.2789 60.7844 47.876 60.7844 47.466V34.5338C60.7844 34.1238 60.8923 33.7209 61.0974 33.3658C61.3024 33.0107 61.5973 32.7158 61.9524 32.5107C62.3076 32.3057 62.7104 32.1977 63.1205 32.1978C63.5305 32.1978 63.9334 32.3057 64.2885 32.5108L74.6852 38.9595Z" fill="white" stroke="#0B68FF" stroke-width="2" stroke-linecap="round" stroke-linejoin="round"/>
<path d="M54.6176 36.9586C52.8172 36.9913 51.0442 36.5142 49.5033 35.5825L42.1946 30.8347C40.6537 29.903 38.8807 29.4259 37.0803 29.4586H34.3822" stroke="#0B68FF" stroke-width="2" stroke-linecap="round" stroke-linejoin="round"/>
<path d="M54.6177 45.0411C52.8173 45.0084 51.0443 45.4855 49.5034 46.4172L42.1947 51.165C40.6538 52.0968 38.8808 52.5738 37.0804 52.5411H34.3823" stroke="#0B68FF" stroke-width="2" stroke-linecap="round" stroke-linejoin="round"/>
<path d="M25.5385 44.7158H15.871C14.2188 44.7158 12.8794 46.0552 12.8794 47.7074V57.375C12.8794 59.0272 14.2188 60.3666 15.871 60.3666H25.5385C27.1908 60.3666 28.5301 59.0272 28.5301 57.375V47.7074C28.5301 46.0552 27.1908 44.7158 25.5385 44.7158Z" fill="white" stroke="#0B68FF" stroke-width="2" stroke-linecap="round" stroke-linejoin="round"/>
<path d="M25.5385 21.3555H15.871C14.2188 21.3555 12.8794 22.6949 12.8794 24.3471V34.0146C12.8794 35.6668 14.2188 37.0062 15.871 37.0062H25.5385C27.1908 37.0062 28.5301 35.6668 28.5301 34.0146V24.3471C28.5301 22.6949 27.1908 21.3555 25.5385 21.3555Z" fill="white" stroke="#0B68FF" stroke-width="2" stroke-linecap="round" stroke-linejoin="round"/>
</g>
<defs>
<clipPath id="clip0_13349_4703">
<rect width="82" height="82" fill="white"/>
</clipPath>
</defs>
</svg>
