<svg width="82" height="82" viewBox="0 0 82 82" fill="none" xmlns="http://www.w3.org/2000/svg">
<g clip-path="url(#clip0_13349_4702)">
<path d="M73.0132 61.9002V30.0995C73.0132 27.9505 71.2711 26.2085 69.1222 26.2085L22.4751 26.2085C20.3262 26.2085 18.5842 27.9505 18.5842 30.0995V61.9002C18.5842 64.0491 20.3262 65.7912 22.4751 65.7912H69.1222C71.2711 65.7912 73.0132 64.0491 73.0132 61.9002Z" fill="#D9EEFF"/>
<path d="M48.413 60.7913H17.4751C16.4431 60.7913 15.4535 60.3814 14.7238 59.6517C13.994 58.922 13.5841 57.9323 13.5841 56.9003V53.542" stroke="#0B68FF" stroke-width="2" stroke-linecap="round" stroke-linejoin="round"/>
<path d="M13.5841 27.8332V25.0995C13.5841 24.0675 13.994 23.0778 14.7238 22.3481C15.4535 21.6184 16.4431 21.2085 17.4751 21.2085H48.413" stroke="#0B68FF" stroke-width="2" stroke-linecap="round" stroke-linejoin="round"/>
<path d="M21.8164 38.9595C22.1788 39.1629 22.4804 39.4592 22.6903 39.8177C22.9003 40.1763 23.0109 40.5844 23.0109 40.9999C23.0109 41.4154 22.9003 41.8234 22.6903 42.182C22.4804 42.5406 22.1788 42.8368 21.8164 43.0402L11.4197 49.489C11.0646 49.6941 10.6618 49.802 10.2517 49.802C9.84162 49.802 9.43878 49.6941 9.08365 49.4891C8.72852 49.284 8.43362 48.9891 8.2286 48.634C8.02357 48.2789 7.91564 47.876 7.91565 47.466V34.5338C7.91564 34.1238 8.02357 33.7209 8.2286 33.3658C8.43362 33.0107 8.72852 32.7158 9.08365 32.5107C9.43878 32.3057 9.84162 32.1977 10.2517 32.1978C10.6618 32.1978 11.0646 32.3057 11.4197 32.5108L21.8164 38.9595Z" fill="white" stroke="#0B68FF" stroke-width="2" stroke-linecap="round" stroke-linejoin="round"/>
<path d="M28.1777 36.9586C29.9782 36.9913 31.7511 36.5142 33.292 35.5825L40.6008 30.8347C42.1417 29.903 43.9147 29.4259 45.7151 29.4586H48.4131" stroke="#0B68FF" stroke-width="2" stroke-linecap="round" stroke-linejoin="round"/>
<path d="M28.1776 45.0411C29.978 45.0084 31.751 45.4855 33.2919 46.4172L40.6007 51.165C42.1416 52.0968 43.9145 52.5738 45.715 52.5411H48.413" stroke="#0B68FF" stroke-width="2" stroke-linecap="round" stroke-linejoin="round"/>
<path d="M66.0721 44.855H56.4046C54.7523 44.855 53.413 46.1944 53.413 47.8466V57.5141C53.413 59.1663 54.7523 60.5057 56.4046 60.5057H66.0721C67.7243 60.5057 69.0637 59.1663 69.0637 57.5141V47.8466C69.0637 46.1944 67.7243 44.855 66.0721 44.855Z" fill="white" stroke="#0B68FF" stroke-width="2" stroke-linecap="round" stroke-linejoin="round"/>
<path d="M66.0721 21.4946H56.4046C54.7523 21.4946 53.413 22.834 53.413 24.4862V34.1538C53.413 35.806 54.7523 37.1454 56.4046 37.1454H66.0721C67.7243 37.1454 69.0637 35.806 69.0637 34.1538V24.4862C69.0637 22.834 67.7243 21.4946 66.0721 21.4946Z" fill="white" stroke="#0B68FF" stroke-width="2" stroke-linecap="round" stroke-linejoin="round"/>
<path d="M20.349 28.7918C21.0624 28.7918 21.6407 28.2135 21.6407 27.5002C21.6407 26.7868 21.0624 26.2085 20.349 26.2085C19.6357 26.2085 19.0574 26.7868 19.0574 27.5002C19.0574 28.2135 19.6357 28.7918 20.349 28.7918Z" fill="#0B68FF"/>
<path d="M25.5157 28.7918C26.229 28.7918 26.8073 28.2135 26.8073 27.5002C26.8073 26.7868 26.229 26.2085 25.5157 26.2085C24.8023 26.2085 24.224 26.7868 24.224 27.5002C24.224 28.2135 24.8023 28.7918 25.5157 28.7918Z" fill="#0B68FF"/>
<path d="M30.6824 28.7918C31.3958 28.7918 31.9741 28.2135 31.9741 27.5002C31.9741 26.7868 31.3958 26.2085 30.6824 26.2085C29.969 26.2085 29.3907 26.7868 29.3907 27.5002C29.3907 28.2135 29.969 28.7918 30.6824 28.7918Z" fill="#0B68FF"/>
</g>
<defs>
<clipPath id="clip0_13349_4702">
<rect width="82" height="82" fill="white"/>
</clipPath>
</defs>
</svg>
