<svg xmlns="http://www.w3.org/2000/svg" width="82" height="82">
  <g data-name="Group 999">
    <g transform="translate(17 11)">
      <path d="M23 12.35h-7.47a1 1 0 1 1 0-2H23a1 1 0 0 1 0 2z" data-name="Path 361" fill="#0b68ff" />
      <circle cx="1" cy="1" r="1" data-name="Ellipse 149" transform="translate(10.17 10.35)" fill="#0b68ff" />
      <rect
        width="27.58"
        height="27.58"
        data-name="Rectangle 624"
        rx="3.86"
        transform="translate(12.25 19.42)"
        fill="#d9eeff"
      />
      <g
        data-name="Group 898"
        stroke-miterlimit="10"
        fill="none"
        stroke="#0b68ff"
        stroke-linecap="round"
        stroke-width="2"
      >
        <path
          d="M37.925 35.563v4a4.264 4.264 0 0 1-4.252 4.249H13.252A4.264 4.264 0 0 1 9 39.561v-4.1"
          data-name="Path 378"
        />
        <path
          d="M9 24.573v-4.322a4.265 4.265 0 0 1 4.252-4.252h20.421a4.265 4.265 0 0 1 4.252 4.252v4.42"
          data-name="Path 379"
        />
      </g>
    </g>
    <path
      d="M24.9 40.6c0-.1-.1-.2-.2-.3l-4-4a.99.99 0 0 0-1.4 1.4l2.3 2.3H10a1 1 0 0 0 0 2h11.6l-2.3 2.3a.99.99 0 1 0 1.4 1.4l4-4a.908.908 0 0 0 .3-.7.6.6 0 0 0-.1-.4z"
      fill="#0b68ff"
    />
    <g data-name="arrow-right-m">
      <path
        d="M64.9 40.6c0-.1-.1-.2-.2-.3l-4-4a.99.99 0 0 0-1.4 1.4l2.3 2.3H50a1 1 0 0 0 0 2h11.6l-2.3 2.3a.99.99 0 1 0 1.4 1.4l4-4a.908.908 0 0 0 .3-.7.6.6 0 0 0-.1-.4z"
        data-name="path"
        fill="#0b68ff"
      />
    </g>
    <path d="M17.5 62.5h30" data-name="Line 322" fill="none" stroke="#0b68ff" stroke-linecap="round" stroke-width="2" />
    <path d="M52.5 62.5h9" data-name="Line 323" fill="none" stroke="#0b68ff" stroke-linecap="round" stroke-width="2" />
  </g>
</svg>
