<svg xmlns="http://www.w3.org/2000/svg" width="82" height="82">
  <rect
    width="39.58"
    height="54.43"
    data-name="Rectangle 626"
    rx="3.89"
    transform="rotate(90 22.855 47.605)"
    fill="#d9eeff"
  />
  <path
    d="M29.19 61.14H14a3.43 3.43 0 0 1-3.43-3.43V23.59A3.43 3.43 0 0 1 14 20.16h15.19a3.43 3.43 0 0 1 3.43 3.43v34.12a3.43 3.43 0 0 1-3.43 3.43zM14 22.16a1.43 1.43 0 0 0-1.43 1.43v34.12A1.43 1.43 0 0 0 14 59.14h15.19a1.43 1.43 0 0 0 1.43-1.43V23.59a1.43 1.43 0 0 0-1.43-1.43z"
    data-name="Path 363"
    fill="#0b68ff"
  />
  <path d="M26.48 44.26H15.91a1 1 0 0 1 0-2h10.57a1 1 0 0 1 0 2z" data-name="Path 364" fill="#0b68ff" />
  <path d="M21.86 49.37h-5.95a1 1 0 1 1 0-2h5.94a1 1 0 1 1 0 2z" data-name="Path 365" fill="#0b68ff" />
  <path d="M25.2 54.47h-9.29a1 1 0 0 1 0-2h9.29a1 1 0 0 1 0 2z" data-name="Path 366" fill="#0b68ff" />
  <path
    d="M21.39 16.82v15.41a1.46 1.46 0 0 0 .19.67l2.53 4 2.53-4a1.07 1.07 0 0 0 .17-.58v-15.5a1.27 1.27 0 0 0-1.27-1.27h-2.89a1.27 1.27 0 0 0-1.26 1.27z"
    data-name="Path 367"
    fill="#fff"
  />
  <path
    d="M24.1 37.85a1 1 0 0 1-.84-.46l-2.53-4a2.43 2.43 0 0 1-.35-1.2V16.82a2.27 2.27 0 0 1 2.27-2.27h2.85a2.27 2.27 0 0 1 2.27 2.27v15.5a2.07 2.07 0 0 1-.33 1.12l-2.53 4a1 1 0 0 1-.81.41zm-1.71-21v15.38a.7.7 0 0 0 0 .14L24.1 35l1.68-2.64V16.82a.27.27 0 0 0-.27-.27h-2.86a.27.27 0 0 0-.27.27z"
    data-name="Path 368"
    fill="#0b68ff"
  />
  <path
    d="M64.28 61.14h-25a3 3 0 0 1-3-3v-14.6a3 3 0 0 1 3-3h25a3 3 0 0 1 3 3v14.58a3 3 0 0 1-3 3.02zm-25-18.61a1 1 0 0 0-1 1v14.59a1 1 0 0 0 1 1h25a1 1 0 0 0 1-1V43.54a1 1 0 0 0-1-1z"
    data-name="Path 369"
    fill="#0b68ff"
  />
  <circle cx="1.29" cy="1.29" r="1.29" data-name="Ellipse 150" transform="translate(55.67 52.74)" fill="#0b68ff" />
  <circle cx="1.29" cy="1.29" r="1.29" data-name="Ellipse 151" transform="translate(50.5 52.74)" fill="#0b68ff" />
  <circle cx="1.29" cy="1.29" r="1.29" data-name="Ellipse 152" transform="translate(45.34 52.74)" fill="#0b68ff" />
  <path
    d="M50.3 21.16h14.53a1.38 1.38 0 0 1 1.38 1.38v11.92a1.38 1.38 0 0 1-1.38 1.38H50.3a1.38 1.38 0 0 1-1.38-1.38V22.54a1.38 1.38 0 0 1 1.38-1.38z"
    data-name="Path 377"
    fill="none"
  />
  <path
    d="M64.83 36.85H50.3a2.39 2.39 0 0 1-2.38-2.38V22.55a2.39 2.39 0 0 1 2.38-2.38h14.53a2.39 2.39 0 0 1 2.38 2.38v11.91a2.39 2.39 0 0 1-2.38 2.39zM50.3 22.16a.38.38 0 0 0-.38.38v11.92a.38.38 0 0 0 .38.38h14.53a.38.38 0 0 0 .38-.38V22.55a.38.38 0 0 0-.38-.38z"
    data-name="Path 370"
    fill="#0b68ff"
  />
  <path d="M37.91 36.85a1 1 0 0 1-1-1V21.17a1 1 0 1 1 2 0v14.68a1 1 0 0 1-1 1z" data-name="Path 371" fill="#0b68ff" />
  <path d="M42.91 36.85a1 1 0 0 1-1-1V21.17a1 1 0 1 1 2 0v14.68a1 1 0 0 1-1 1z" data-name="Path 376" fill="#0b68ff" />
</svg>
