<svg xmlns="http://www.w3.org/2000/svg" width="82" height="82">
  <g data-name="Group 897" transform="translate(-783 -359)">
    <path d="M823 388.35h-7.47a1 1 0 1 1 0-2H823a1 1 0 0 1 0 2z" data-name="Path 361" fill="#0b68ff" />
    <circle cx="1" cy="1" r="1" data-name="Ellipse 149" transform="translate(810.17 386.35)" fill="#0b68ff" />
    <rect
      width="27.58"
      height="27.58"
      data-name="Rectangle 624"
      rx="3.86"
      transform="translate(814.25 396.42)"
      fill="#d9eeff"
    />
    <path
      d="M833.89 420.92H814a4.87 4.87 0 0 1-4.86-4.86V396.2a4.87 4.87 0 0 1 4.86-4.86h19.89a4.87 4.87 0 0 1 4.86 4.86v19.85a4.87 4.87 0 0 1-4.86 4.87zM814 393.34a2.86 2.86 0 0 0-2.86 2.86v19.85a2.86 2.86 0 0 0 2.86 2.87h19.89a2.86 2.86 0 0 0 2.86-2.86V396.2a2.86 2.86 0 0 0-2.86-2.86z"
      data-name="Path 362"
      fill="#0b68ff"
    />
    <path
      d="M817.626 411.5a2.033 2.033 0 0 0 1.974 1.5h1.858a1 1 0 0 0 0-2l-1.9-.009-1.516-5.991H819l9.931-.008c.022 0 .043.009.065.009s.052-.007.079-.009H830a1 1 0 0 0 1.936.5 1.96 1.96 0 0 0-.35-1.7 2.043 2.043 0 0 0-1.628-.792h-.34l-1.718-3.447a1 1 0 1 0-1.789.895l1.271 2.552h-6.764l1.282-2.553a1 1 0 1 0-1.789-.895L818.382 403h-.34a2.04 2.04 0 0 0-1.628.793 1.957 1.957 0 0 0-.35 1.7l1.562 6z"
      fill="#0b68ff"
    />
    <path
      d="M827 412.086l-1.293-1.293a1 1 0 0 0-1.414 1.414l2 2a1 1 0 0 0 1.414 0l5-5a1 1 0 0 0-1.414-1.414zM794.447 399.105a1 1 0 0 0-1.347.447L791.382 403h-.34a2.04 2.04 0 0 0-1.628.793 1.957 1.957 0 0 0-.35 1.7l1.563 6A2.033 2.033 0 0 0 792.6 413h8.8a2.033 2.033 0 0 0 1.979-1.5l1.563-6a1.96 1.96 0 0 0-.35-1.7 2.043 2.043 0 0 0-1.634-.8h-.34l-1.723-3.447a1 1 0 1 0-1.789.895l1.276 2.552h-6.764l1.282-2.553a1 1 0 0 0-.448-1.342zm6.994 11.878a.058.058 0 0 1-.041.017l-8.833-.009-1.525-5.991H792l9.935-.008c.021 0 .041.008.062.008s.05-.007.075-.009H803z"
      fill="#0b68ff"
    />
    <path d="M851 417h10a3 3 0 0 0 3-3v-6a3 3 0 0 0-3-3h-10a3 3 0 0 0-3 3v6a3 3 0 0 0 3 3z" fill="#d9eeff" />
    <path
      d="M847 413h10a3 3 0 0 0 3-3v-6a3 3 0 0 0-3-3h-10a3 3 0 0 0-3 3v6a3 3 0 0 0 3 3zm-1-9a1 1 0 0 1 1-1h10a1 1 0 0 1 1 1v6a1 1 0 0 1-1 1h-10a1 1 0 0 1-1-1z"
      data-name="path3"
      fill="#0b68ff"
    />
    <path d="M851 409.989h5a1 1 0 0 0 0-2h-5a1 1 0 0 0 0 2z" data-name="path2" fill="#0b68ff" />
    <path
      d="M847.62 409.908a.846.846 0 0 0 .38.08 1.055 1.055 0 0 0 .71-.29 1.034 1.034 0 0 0 .21-1.09 1.165 1.165 0 0 0-.21-.33 1 1 0 1 0-1.09 1.63z"
      data-name="path1"
      fill="#0b68ff"
    />
  </g>
</svg>
