<svg xmlns="http://www.w3.org/2000/svg" width="82" height="82">
  <g data-name="Warstwa 38" transform="translate(0 3)">
    <rect width="50" height="34" data-name="Rectangle 628" rx="3.9" transform="rotate(90 23.01 38.99)" fill="#d9eeff" />
    <path
      d="M54.1 63H27.9a4.9 4.9 0 0 1-4.9-4.9V15.88A4.9 4.9 0 0 1 27.9 11h26.2a4.9 4.9 0 0 1 4.9 4.9v42.19A4.9 4.9 0 0 1 54.1 63zM27.9 13a2.9 2.9 0 0 0-2.9 2.9v42.19A2.9 2.9 0 0 0 27.9 61h26.2a2.9 2.9 0 0 0 2.9-2.9V15.88A2.9 2.9 0 0 0 54.1 13z"
      data-name="Path 380"
      fill="#0b68ff"
    />
    <rect width="42" height="24" data-name="Rectangle 629" rx="4.06" transform="translate(20 24.98)" fill="#fff" />
    <path
      d="M57.94 50H24.06A5.07 5.07 0 0 1 19 44.92V29a5.07 5.07 0 0 1 5.06-5h33.88A5.07 5.07 0 0 1 63 29v15.92A5.07 5.07 0 0 1 57.94 50zM24.06 26A3.07 3.07 0 0 0 21 29v15.92A3.07 3.07 0 0 0 24.06 48h33.88A3.07 3.07 0 0 0 61 44.92V29a3.07 3.07 0 0 0-3.06-3z"
      data-name="Path 381"
      fill="#0b68ff"
    />
    <path d="M44.18 19.15H33.77a1 1 0 0 1 0-2h10.41a1 1 0 0 1 0 2z" data-name="Path 382" fill="#0b68ff" />
    <circle cx="1" cy="1" r="1" data-name="Ellipse 153" transform="translate(48.55 17.15)" fill="#0b68ff" />
    <path d="M55.08 37H42a1 1 0 0 1 0-2h13.08a1 1 0 0 1 0 2z" data-name="Path 383" fill="#0b68ff" />
    <path d="M55.08 42H42a1 1 0 0 1 0-2h13.08a1 1 0 0 1 0 2z" data-name="Path 384" fill="#0b68ff" />
    <path d="M46.91 32H42a1 1 0 0 1 0-2h4.91a1 1 0 0 1 0 2z" data-name="Path 385" fill="#0b68ff" />
    <path
      d="M27.428 38.682l-.5 2.986a1 1 0 0 0 1.458 1.048L31 41.317l2.618 1.4a1 1 0 0 0 1.458-1.048l-.5-2.986 2.124-2.114a1 1 0 0 0-.558-1.7l-2.933-.434-1.309-2.706a1.041 1.041 0 0 0-1.8 0l-1.314 2.707-2.932.434a1 1 0 0 0-.558 1.7l2.132 2.112zm2.172-2.345a1 1 0 0 0 .753-.553L31 34.456l.646 1.329a1 1 0 0 0 .753.553l1.478.218-1.08 1.07a1 1 0 0 0-.282.877l.252 1.49-1.3-.693a1 1 0 0 0-.943 0l-1.294.691.252-1.49a1 1 0 0 0-.282-.877l-1.08-1.07 1.475-.217z"
      fill="#0b68ff"
    />
  </g>
</svg>
