<svg xmlns="http://www.w3.org/2000/svg" width="82" height="82">
  <path
    d="M71 53.15a7.151 7.151 0 1 1-.24-14.3H71v-7.642A2.223 2.223 0 0 0 68.761 29H23.238A2.223 2.223 0 0 0 21 31.208v7.643a7.15 7.15 0 1 1 .006 14.3v7.643A2.223 2.223 0 0 0 23.239 63h45.524A2.223 2.223 0 0 0 71 60.792V53.15z"
    data-name="Path 336"
    fill="#d9eeff"
  />
  <path
    d="M64.762 60H19.238A3.227 3.227 0 0 1 16 56.792v-7.643a1 1 0 0 1 1-1 6.15 6.15 0 0 0 .006-12.3 1 1 0 0 1-1-1v-7.641A3.227 3.227 0 0 1 19.239 24h45.524A3.227 3.227 0 0 1 68 27.208v7.642a1 1 0 0 1-1 1 6.151 6.151 0 0 0-.222 12.3H67a1 1 0 0 1 1 1v7.642A3.228 3.228 0 0 1 64.762 60zM18 50.089v6.7A1.226 1.226 0 0 0 19.238 58h45.524A1.225 1.225 0 0 0 66 56.792v-6.7a8.14 8.14 0 0 1 0-16.182v-6.7A1.224 1.224 0 0 0 64.762 26H19.238A1.224 1.224 0 0 0 18 27.208v6.7a8.139 8.139 0 0 1 0 16.177z"
    data-name="Path 337"
    fill="#0b68ff"
  />
  <path d="M50.088 50.088L33.912 33.912" data-name="Line 314" fill="none" />
  <path
    d="M50.088 51.089a1 1 0 0 1-.707-.293L33.2 34.619a1 1 0 0 1 1.414-1.419l16.181 16.182a1 1 0 0 1-.707 1.707z"
    data-name="Path 338"
    fill="#0b68ff"
  />
  <circle cx="3.867" cy="3.867" r="3.867" data-name="Ellipse 143" transform="translate(45.133 32)" fill="#fff" />
  <path
    d="M49 40.734a4.867 4.867 0 1 1 4.867-4.867A4.867 4.867 0 0 1 49 40.734zM49 33a2.867 2.867 0 1 0 2.867 2.867A2.868 2.868 0 0 0 49 33z"
    data-name="Path 339"
    fill="#0b68ff"
  />
  <circle cx="3.867" cy="3.867" r="3.867" data-name="Ellipse 144" transform="translate(31.132 44.266)" fill="#fff" />
  <path
    d="M35 53a4.867 4.867 0 1 1 4.867-4.867A4.873 4.873 0 0 1 35 53zm0-7.733a2.867 2.867 0 1 0 2.867 2.867A2.868 2.868 0 0 0 35 45.267z"
    data-name="Path 340"
    fill="#0b68ff"
  />
</svg>
