<svg xmlns="http://www.w3.org/2000/svg" width="82" height="82">
  <circle
    cx="24.973"
    cy="24.973"
    r="24.973"
    data-name="Ellipse 148"
    transform="translate(20.141 20.027)"
    fill="#d9eeff"
  />
  <path
    d="M41.114 66.973A25.973 25.973 0 1 1 67.087 41a25.974 25.974 0 0 1-25.973 25.973zm0-49.945A23.973 23.973 0 1 0 65.087 41a24 24 0 0 0-23.973-23.972z"
    data-name="Path 343"
    fill="#0b68ff"
  />
  <path d="M29 36.22a11.995 11.995 0 1 1 12 11.995A11.995 11.995 0 0 1 29 36.22z" data-name="Path 344" fill="#fff" />
  <path
    d="M41 49.215A13 13 0 1 1 54 36.22a12.995 12.995 0 0 1-13 12.995zm0-23.989A10.995 10.995 0 1 0 52 36.22a11 11 0 0 0-11-10.994z"
    data-name="Path 345"
    fill="#0b68ff"
  />
  <path
    d="M37.143 24.867l.018-.006.054-.017a12 12 0 0 1 15.536 13.787c-.322.019-.645.032-.972.032-6.594 0-12.169-3.941-14.008-9.36a10.284 10.284 0 0 1-8.538 4.591 12.033 12.033 0 0 1 7.91-9.027z"
    data-name="Path 346"
    fill="#fff"
  />
  <path
    d="M51.779 39.663a15.71 15.71 0 0 1-14.268-8.378 11.647 11.647 0 0 1-8.254 3.608 1 1 0 0 1-1.024-.976.928.928 0 0 1 .019-.217 13.033 13.033 0 0 1 8.542-9.771l.047-.017a12.994 12.994 0 0 1 16.889 14.92 1 1 0 0 1-.92.8c-.34.017-.684.031-1.031.031zM37.771 28.3a1 1 0 0 1 .947.679c1.762 5.193 7.011 8.682 13.061 8.682h.121a10.985 10.985 0 0 0-14.368-11.87l-.066.021a11.038 11.038 0 0 0-6.905 6.958 9.113 9.113 0 0 0 6.362-4 1 1 0 0 1 .848-.47zm-.628-3.436z"
    data-name="Path 347"
    fill="#0b68ff"
  />
  <path
    d="M49 49.888a1.017 1.017 0 0 0-.937.177l-6.43 5.144a1.016 1.016 0 0 1-1.27 0l-6.43-5.144a1.015 1.015 0 0 0-.933-.177 22.747 22.747 0 0 0-11.009 7.3 24.956 24.956 0 0 0 38.022 0A22.751 22.751 0 0 0 49 49.888z"
    data-name="Path 348"
    fill="#fff"
  />
  <path
    d="M41 66.973a25.94 25.94 0 0 1-19.771-9.14 1 1 0 0 1-.019-1.275 23.628 23.628 0 0 1 11.49-7.624 2 2 0 0 1 1.86.352l6.43 5.142 6.45-5.144a2 2 0 0 1 1.859-.35 23.628 23.628 0 0 1 11.49 7.624 1 1 0 0 1-.019 1.275A25.941 25.941 0 0 1 41 66.973zm-17.691-9.8a23.956 23.956 0 0 0 33.844 1.539q.8-.733 1.539-1.539a21.833 21.833 0 0 0-9.992-6.331h-.013l-6.427 5.147a2.01 2.01 0 0 1-2.52 0l-6.43-5.143a21.786 21.786 0 0 0-10 6.323z"
    data-name="Path 349"
    fill="#0b68ff"
  />
  <path
    d="M56.126 26.434a1 1 0 0 1-.915-1.4l2.726-6.218a3.419 3.419 0 0 1 3.129-2.044h7.544a1 1 0 0 1 0 2h-7.545a1.417 1.417 0 0 0-1.3.848l-2.726 6.218a1 1 0 0 1-.913.6zM68.609 14.39h-5.838a1 1 0 0 1 0-2h5.839a1 1 0 1 1 0 2z"
    data-name="Path 350"
    fill="#0b68ff"
  />
</svg>
