<svg xmlns="http://www.w3.org/2000/svg" width="82" height="82">
  <g data-name="Group 1000" transform="translate(-1 .162)">
    <path d="M16 35h39v34H16a4 4 0 0 1-4-4V39a4 4 0 0 1 4-4z" data-name="Path 360" fill="#d9eeff" />
    <path
      d="M68.552 36.385a1.818 1.818 0 0 0-1.295.535l-2.13 2.13a2.891 2.891 0 0 0 0 4.084l2.13 2.13a1.824 1.824 0 0 0 1.3.539h8.468a1.941 1.941 0 0 0 1.38-.566 1.935 1.935 0 0 0 .572-1.381v-5.51a1.954 1.954 0 0 0-1.954-1.954z"
      data-name="Path 453"
      fill="#d9eeff"
    />
    <path
      d="M65.167 32.838a1.987 1.987 0 0 0-1.413.586l-2.32 2.32a3.153 3.153 0 0 0 0 4.454l2.32 2.32a1.988 1.988 0 0 0 1.414.585H74.4a2.121 2.121 0 0 0 1.5-.617h.005a2.108 2.108 0 0 0 .623-1.507v-6a2.132 2.132 0 0 0-2.128-2.137zm9.285 8.244l-9.284.021-2.32-2.32a1.149 1.149 0 0 1 0-1.624l2.319-2.32 9.33.039a.124.124 0 0 1 .04.092l-.085 6.112"
      fill="#0b68ff"
    />
    <circle cx="1" cy="1" r="1" transform="translate(64.541 36.971)" fill="#0b68ff" />
    <path
      d="M68.552 52.385a1.818 1.818 0 0 0-1.295.535l-2.13 2.13a2.891 2.891 0 0 0 0 4.084l2.13 2.13a1.824 1.824 0 0 0 1.3.539h8.468a1.941 1.941 0 0 0 1.38-.566 1.935 1.935 0 0 0 .572-1.381v-5.51a1.954 1.954 0 0 0-1.954-1.954z"
      data-name="Path 454"
      fill="#d9eeff"
    />
    <path
      d="M65.167 48.838a1.987 1.987 0 0 0-1.413.586l-2.32 2.32a3.153 3.153 0 0 0 0 4.454l2.32 2.32a1.988 1.988 0 0 0 1.414.585H74.4a2.121 2.121 0 0 0 1.5-.617h.005a2.108 2.108 0 0 0 .623-1.507v-6a2.132 2.132 0 0 0-2.128-2.137zm9.285 8.244l-9.284.021-2.32-2.32a1.149 1.149 0 0 1 0-1.624l2.319-2.32 9.33.039a.124.124 0 0 1 .04.092l-.085 6.112"
      fill="#0b68ff"
    />
    <circle cx="1" cy="1" r="1" transform="translate(64.541 52.971)" fill="#0b68ff" />
    <path
      d="M68.552 20.386a1.818 1.818 0 0 0-1.295.535l-2.13 2.13a2.891 2.891 0 0 0 0 4.084l2.13 2.13a1.82 1.82 0 0 0 1.3.539h8.468a1.941 1.941 0 0 0 1.38-.566 1.935 1.935 0 0 0 .572-1.381v-5.51a1.954 1.954 0 0 0-1.954-1.954z"
      data-name="Path 455"
      fill="#d9eeff"
    />
    <path
      d="M65.167 16.838a1.987 1.987 0 0 0-1.413.586l-2.32 2.32a3.153 3.153 0 0 0 0 4.454l2.32 2.32a1.988 1.988 0 0 0 1.414.585H74.4a2.121 2.121 0 0 0 1.5-.617h.005a2.108 2.108 0 0 0 .623-1.507v-6a2.132 2.132 0 0 0-2.128-2.137zm9.285 8.244l-9.284.021-2.32-2.32a1.149 1.149 0 0 1 0-1.624l2.319-2.32 9.33.039a.124.124 0 0 1 .04.092l-.085 6.112"
      fill="#0b68ff"
    />
    <circle cx="1" cy="1" r="1" transform="translate(64.541 20.971)" fill="#0b68ff" />
    <path
      d="M12 31a4 4 0 0 0-4 4v24a3.305 3.305 0 0 0 .073.766A4.088 4.088 0 0 0 12 63h37V31H12m0-2h37a2 2 0 0 1 2 2v32a2 2 0 0 1-2 2H12a5.813 5.813 0 0 1-3.716-1.32 6.514 6.514 0 0 1-2.114-3.294A4.515 4.515 0 0 1 6 59V35a6.007 6.007 0 0 1 6-6z"
      data-name="Path 456"
      fill="#0b68ff"
    />
    <g data-name="Path 341">
      <path d="M43.922 39.356H14.786a1 1 0 0 1 0-2h29.136a1 1 0 0 1 0 2z" data-name="Path 457" fill="#0b68ff" />
    </g>
    <g data-name="Path 342">
      <path d="M28.021 47.356H14.786a1 1 0 0 1 0-2h13.235a1 1 0 0 1 0 2z" data-name="Path 458" fill="#0b68ff" />
    </g>
    <g data-name="Line 321">
      <path
        d="M43.5 55.5h-.005l-28.714-.145a1 1 0 0 1-.995-1.005 1.014 1.014 0 0 1 1.005-.995l28.714.145a1 1 0 0 1-.005 2z"
        data-name="Path 459"
        fill="#0b68ff"
      />
    </g>
    <g data-name="Line 320">
      <path d="M50.5 23.355h-42a1 1 0 0 1 0-2h42a1 1 0 0 1 0 2z" data-name="Path 460" fill="#0b68ff" />
    </g>
  </g>
</svg>
