<?xml version="1.0" encoding="utf-8"?>
<!-- Generator: Adobe Illustrator 24.1.2, SVG Export Plug-In . SVG Version: 6.00 Build 0)  -->
<svg version="1.1" xmlns="http://www.w3.org/2000/svg" xmlns:xlink="http://www.w3.org/1999/xlink" x="0px" y="0px"
	 viewBox="0 0 90 90" style="enable-background:new 0 0 90 90;" xml:space="preserve">
<style type="text/css">
	.st0{display:none;}
	.st1{display:inline;fill:none;stroke:#009FE3;stroke-width:0.25;stroke-miterlimit:10;}
	.st2{display:inline;fill:none;stroke:#FF00FF;stroke-width:0.25;stroke-miterlimit:10;}
	.st3{fill:#384350;}
</style>
<g id="Grid" class="st0">
	<rect id="canvas_60x60px_1_" x="15" y="15" class="st1" width="60" height="60"/>
	<rect id="canvas_70x70px_1_" x="10" y="10" class="st1" width="70" height="70"/>
</g>
<g id="Additional_bottom" class="st0">
	<rect id="_x38_x8p_canvas_36_" x="50" y="50" class="st2" width="34" height="34"/>
	<rect id="_x38_x8p_canvas_35_" x="54" y="54" class="st2" width="26" height="26"/>
</g>
<g id="Additional_center" class="st0">
	<rect id="_x38_x8p_canvas_2_" x="28" y="28" class="st2" width="34" height="34"/>
	<rect id="_x38_x8p_canvas_1_" x="32" y="32" class="st2" width="26" height="26"/>
</g>
<g id="Circle" class="st0">
	<circle class="st1" cx="45" cy="45" r="30"/>
</g>
<g id="Vertical_rectangle" class="st0">
	<path class="st1" d="M65,15H25c-2.2,0-4,1.8-4,4v52c0,2.2,1.8,4,4,4h40c2.2,0,4-1.8,4-4V19C69,16.8,67.2,15,65,15z"/>
</g>
<g id="Horizontal_rectangle" class="st0">
	<path class="st1" d="M71,21H19c-2.2,0-4,1.8-4,4v40c0,2.2,1.8,4,4,4h52c2.2,0,4-1.8,4-4V25C75,22.8,73.2,21,71,21z"/>
</g>
<g id="Square" class="st0">
	<path class="st1" d="M68,72H22c-2.2,0-4-1.8-4-4V22c0-2.2,1.8-4,4-4h46c2.2,0,4,1.8,4,4v46C72,70.2,70.2,72,68,72z"/>
</g>
<g id="icon">
	<g>
		<path class="st3" d="M46.5,57.2l5.5-5.5c0.9-0.9,1.3-2.1,1.3-3.3c0-1.2-0.4-2.4-1.3-3.3c-0.9-0.9-2.1-1.3-3.3-1.3
			c-1.2,0-2.4,0.4-3.3,1.3L40.7,50l-1.4-1.4l4.8-4.8c0.9-0.9,1.3-2.1,1.3-3.3c0-1.2-0.4-2.4-1.3-3.3c-0.9-0.9-2.1-1.3-3.3-1.3
			c-1.2,0-2.4,0.4-3.3,1.3L32,42.7l-3.9-3.9c0,0,0,0,0,0s0,0,0,0L25,35.8c-0.3-0.3-0.8-0.3-1.1,0c-0.3,0.3-0.3,0.8,0,1.1l2.5,2.5
			l-5,5c-3.3,3.3-5.1,7.8-5.1,12.2c0,3.2,0.9,6.4,2.9,9.2l-4,4c-0.3,0.3-0.3,0.8,0,1.1c0.3,0.3,0.8,0.3,1.1,0l3.9-3.9
			c0.6,0.8,1.3,1.4,2,2l-3.9,3.9c-0.3,0.3-0.3,0.8,0,1.1c0.3,0.3,0.8,0.3,1.1,0l4-4c2.8,2,6.1,3,9.4,3c4.2,0,8.5-1.6,11.7-4.8
			l5.3-5.3l2.5,2.5c0.3,0.3,0.8,0.3,1.1,0c0.3-0.3,0.3-0.8,0-1.1L46.5,57.2z M43.5,66.9c-2.9,2.9-6.8,4.4-10.6,4.4
			c-4.4,0-8.7-1.9-11.7-5.6C19,63,18,59.8,18,56.5c0-4,1.6-8.1,4.6-11.1l5-5l3.9,3.9c0,0,0,0,0,0c0.3,0.3,0.8,0.3,1.1,0l0,0l6-6
			c0.6-0.6,1.4-0.9,2.2-0.9c0.8,0,1.6,0.3,2.2,0.9c0.6,0.6,0.9,1.4,0.9,2.2c0,0.8-0.3,1.6-0.9,2.2L37.6,48c-0.3,0.3-0.3,0.8,0,1.1
			l2.5,2.5c0.1,0.1,0.3,0.2,0.5,0.2c0.2,0,0.4-0.1,0.5-0.2l5.3-5.3c0.6-0.6,1.4-0.9,2.2-0.9c0.8,0,1.6,0.3,2.2,0.9
			c0.6,0.6,0.9,1.4,0.9,2.2c0,0.8-0.3,1.6-0.9,2.2l-6,6c-0.3,0.3-0.3,0.8,0,1.1c0,0,0,0,0,0l3.9,3.9L43.5,66.9z"/>
		<path class="st3" d="M73.3,19c-0.3-0.3-0.8-0.3-1.1,0l-3.9,3.9c-0.2-0.3-0.5-0.5-0.7-0.8c-0.4-0.4-0.9-0.8-1.4-1.2l3.9-3.9
			c0.3-0.3,0.3-0.8,0-1.1c-0.3-0.3-0.8-0.3-1.1,0L65.1,20c-2.8-1.8-5.9-2.7-9.1-2.7c-4.2,0-8.5,1.6-11.7,4.8L39,27.4l-3.4-3.4
			c-0.3-0.3-0.8-0.3-1.1,0c-0.3,0.3-0.3,0.8,0,1.1l4,4c0,0,0,0,0,0s0,0,0,0l25.3,25.3c0.3,0.3,0.8,0.3,1.1,0c0.3-0.3,0.3-0.8,0-1.1
			l-2.5-2.5l5.3-5.3c3.2-3.2,4.8-7.5,4.8-11.7c0-3.4-1.1-6.8-3.2-9.7l4-4C73.6,19.8,73.6,19.3,73.3,19z M66.6,44.4l-5.3,5.3
			L40.1,28.4l5.3-5.3c2.9-2.9,6.8-4.4,10.6-4.4c3.8,0,7.7,1.5,10.6,4.4c2.9,2.9,4.4,6.8,4.4,10.6C71,37.6,69.5,41.4,66.6,44.4z"/>
	</g>
</g>
</svg>
