<svg xmlns="http://www.w3.org/2000/svg" viewBox="0 0 82 82"><title>ai-last-seen</title><rect width="82" height="82" style="fill:#fff;fill-opacity:0"/><path d="M45.07085,62.12143c-14.43158,0-25.90641-15.14671-26.38842-15.79044a2.87385,2.87385,0,0,1-.52385-1.45611,2.93548,2.93548,0,0,1,.52059-1.57765c.48527-.64665,11.9601-15.79335,26.39168-15.79335,14.49841,0,25.88738,14.76756,26.36668,15.39617a2.927,2.927,0,0,1,.56515,1.94807,2.855,2.855,0,0,1-.56787,1.88C70.95823,47.35387,59.56926,62.12143,45.07085,62.12143Z" style="fill:#d9eeff"/><path d="M65.03131,35.98264c1.48207,1.585,2.35593,2.7195,2.48146,2.88413a2.927,2.927,0,0,1,.56516,1.94808,2.85507,2.85507,0,0,1-.56788,1.88c-.47657.62571-11.86554,15.39327-26.364,15.39327-14.43157,0-25.9064-15.14671-26.38842-15.79044a2.874,2.874,0,0,1-.52385-1.45611,2.93567,2.93567,0,0,1,.52059-1.57765c.48528-.64665,11.96011-15.79335,26.39168-15.79335a23.13341,23.13341,0,0,1,6.35883.91933" style="fill:none;stroke:#0b68ff;stroke-linecap:round;stroke-linejoin:round;stroke-width:2px"/><circle cx="41.16053" cy="40.81265" r="8.19277" style="fill:#fff;stroke:#0b68ff;stroke-linecap:round;stroke-linejoin:round;stroke-width:2px"/><circle cx="58.25" cy="27.11995" r="7" style="fill:#fff;stroke:#0b68ff;stroke-linecap:round;stroke-linejoin:round;stroke-width:2px"/><polyline points="58.25 24.12 58.25 27.12 60.25 29.12" style="fill:#fff;stroke:#0b68ff;stroke-linecap:round;stroke-linejoin:round;stroke-width:2px"/></svg>