<svg xmlns="http://www.w3.org/2000/svg" viewBox="0 0 48 48"><title>layout-image-bg-text</title><rect width="48" height="48" style="fill:#f2f2f2;opacity:0"/><rect x="1359.4285" y="663.8969" width="35.1162" height="24.2068" rx="2.7557" ry="2.7557" transform="translate(703.9868 -1348.9863) rotate(90)" style="fill:#d9eeff"/><path d="M1360.8831,659.0269v-1.8293a2.7557,2.7557,0,0,1,2.7557-2.7557h1.83" transform="translate(-1349 -648)" style="fill:none;stroke:#0b68ff;stroke-linecap:round;stroke-linejoin:round;stroke-width:2px"/><line x1="11.8831" y1="21.2041" x2="11.8831" y2="16.6184" style="fill:none;stroke:#0b68ff;stroke-linecap:round;stroke-linejoin:round;stroke-width:2px"/><line x1="11.8831" y1="31.3809" x2="11.8831" y2="26.7954" style="fill:none;stroke:#0b68ff;stroke-linecap:round;stroke-linejoin:round;stroke-width:2px"/><path d="M1365.4686,689.5575h-1.83a2.7557,2.7557,0,0,1-2.7557-2.7557v-1.83" transform="translate(-1349 -648)" style="fill:none;stroke:#0b68ff;stroke-linecap:round;stroke-linejoin:round;stroke-width:2px"/><line x1="26.2785" y1="41.5575" x2="21.6937" y2="41.5575" style="fill:none;stroke:#0b68ff;stroke-linecap:round;stroke-linejoin:round;stroke-width:2px"/><line x1="21.6937" y1="6.4419" x2="26.2785" y2="6.4419" style="fill:none;stroke:#0b68ff;stroke-linecap:round;stroke-linejoin:round;stroke-width:2px"/><path d="M1385.09,684.9725v1.8293a2.7557,2.7557,0,0,1-2.7557,2.7557h-1.83" transform="translate(-1349 -648)" style="fill:none;stroke:#0b68ff;stroke-linecap:round;stroke-linejoin:round;stroke-width:2px"/><line x1="36.0898" y1="26.7953" x2="36.0898" y2="31.381" style="fill:none;stroke:#0b68ff;stroke-linecap:round;stroke-linejoin:round;stroke-width:2px"/><line x1="36.0898" y1="16.6186" x2="36.0898" y2="21.204" style="fill:none;stroke:#0b68ff;stroke-linecap:round;stroke-linejoin:round;stroke-width:2px"/><path d="M1380.5043,654.4419h1.83a2.7557,2.7557,0,0,1,2.7557,2.7557v1.83" transform="translate(-1349 -648)" style="fill:none;stroke:#0b68ff;stroke-linecap:round;stroke-linejoin:round;stroke-width:2px"/><line x1="17.9345" y1="22.1641" x2="30.0377" y2="22.1641" style="fill:none;stroke:#0b68ff;stroke-linecap:round;stroke-linejoin:round;stroke-width:2px"/><line x1="20.7696" y1="26.5904" x2="27.2026" y2="26.5904" style="fill:none;stroke:#0b68ff;stroke-linecap:round;stroke-linejoin:round;stroke-width:2px"/></svg>