<svg xmlns="http://www.w3.org/2000/svg" viewBox="0 0 48 48"><title>layout-image-bg</title><rect width="48" height="48" style="fill:#f2f2f2;opacity:0"/><rect x="1189.459" y="663.8969" width="35.1162" height="24.2068" rx="2.7557" ry="2.7557" transform="translate(704.0174 -1179.0169) rotate(90)" style="fill:#d9eeff"/><path d="M1190.9137,659.0269v-1.8293a2.7557,2.7557,0,0,1,2.7557-2.7557h1.83" transform="translate(-1179 -648)" style="fill:none;stroke:#0b68ff;stroke-linecap:round;stroke-linejoin:round;stroke-width:2px"/><line x1="11.9137" y1="21.2041" x2="11.9137" y2="16.6184" style="fill:none;stroke:#0b68ff;stroke-linecap:round;stroke-linejoin:round;stroke-width:2px"/><line x1="11.9137" y1="31.3809" x2="11.9137" y2="26.7954" style="fill:none;stroke:#0b68ff;stroke-linecap:round;stroke-linejoin:round;stroke-width:2px"/><path d="M1195.4992,689.5575h-1.83a2.7557,2.7557,0,0,1-2.7557-2.7557v-1.83" transform="translate(-1179 -648)" style="fill:none;stroke:#0b68ff;stroke-linecap:round;stroke-linejoin:round;stroke-width:2px"/><line x1="26.3091" y1="41.5575" x2="21.7243" y2="41.5575" style="fill:none;stroke:#0b68ff;stroke-linecap:round;stroke-linejoin:round;stroke-width:2px"/><line x1="21.7243" y1="6.4419" x2="26.3091" y2="6.4419" style="fill:none;stroke:#0b68ff;stroke-linecap:round;stroke-linejoin:round;stroke-width:2px"/><path d="M1215.12,684.9725v1.8293a2.7557,2.7557,0,0,1-2.7557,2.7557h-1.83" transform="translate(-1179 -648)" style="fill:none;stroke:#0b68ff;stroke-linecap:round;stroke-linejoin:round;stroke-width:2px"/><line x1="36.1203" y1="26.7953" x2="36.1203" y2="31.381" style="fill:none;stroke:#0b68ff;stroke-linecap:round;stroke-linejoin:round;stroke-width:2px"/><line x1="36.1203" y1="16.6186" x2="36.1203" y2="21.204" style="fill:none;stroke:#0b68ff;stroke-linecap:round;stroke-linejoin:round;stroke-width:2px"/><path d="M1210.5348,654.4419h1.83a2.7557,2.7557,0,0,1,2.7557,2.7557v1.83" transform="translate(-1179 -648)" style="fill:none;stroke:#0b68ff;stroke-linecap:round;stroke-linejoin:round;stroke-width:2px"/><circle cx="1206.3512" cy="664.6184" r="1.9687" transform="translate(-1298.7783 -355.3782) rotate(-13.1823)" style="fill:none;stroke:#0b68ff;stroke-linecap:round;stroke-linejoin:round;stroke-width:2px"/><polyline points="16.524 29.388 21.903 24.377 31.721 30.127" style="fill:none;stroke:#0b68ff;stroke-linecap:round;stroke-linejoin:round;stroke-width:2px"/></svg>