<?xml version="1.0" encoding="utf-8"?>
<!-- Generator: Adobe Illustrator 24.1.2, SVG Export Plug-In . SVG Version: 6.00 Build 0)  -->
<svg version="1.1" xmlns="http://www.w3.org/2000/svg" xmlns:xlink="http://www.w3.org/1999/xlink" x="0px" y="0px"
	 viewBox="0 0 90 90" style="enable-background:new 0 0 90 90;" xml:space="preserve">
<style type="text/css">
	.st0{display:none;}
	.st1{display:inline;fill:none;stroke:#009FE3;stroke-width:0.25;stroke-miterlimit:10;}
	.st2{display:inline;fill:none;stroke:#FF00FF;stroke-width:0.25;stroke-miterlimit:10;}
	.st3{fill:#384350;}
</style>
<g id="Grid" class="st0">
	<rect id="canvas_60x60px_2_" x="15" y="15" class="st1" width="60" height="60"/>
	<rect id="canvas_70x70px_2_" x="10" y="10" class="st1" width="70" height="70"/>
</g>
<g id="Additional_bottom" class="st0">
	<rect id="_x38_x8p_canvas_8_" x="50" y="50" class="st2" width="34" height="34"/>
	<rect id="_x38_x8p_canvas_7_" x="54" y="54" class="st2" width="26" height="26"/>
</g>
<g id="Additional_center" class="st0">
	<rect id="_x38_x8p_canvas_4_" x="28" y="28" class="st2" width="34" height="34"/>
	<rect id="_x38_x8p_canvas_3_" x="32" y="32" class="st2" width="26" height="26"/>
</g>
<g id="Circle" class="st0">
	<circle class="st1" cx="45" cy="45" r="30"/>
</g>
<g id="Vertical_rectangle" class="st0">
	<path class="st1" d="M65,15H25c-2.2,0-4,1.8-4,4v52c0,2.2,1.8,4,4,4h40c2.2,0,4-1.8,4-4V19C69,16.8,67.2,15,65,15z"/>
</g>
<g id="Horizontal_rectangle" class="st0">
	<path class="st1" d="M71,21H19c-2.2,0-4,1.8-4,4v40c0,2.2,1.8,4,4,4h52c2.2,0,4-1.8,4-4V25C75,22.8,73.2,21,71,21z"/>
</g>
<g id="Square" class="st0">
	<path class="st1" d="M68,72H22c-2.2,0-4-1.8-4-4V22c0-2.2,1.8-4,4-4h46c2.2,0,4,1.8,4,4v46C72,70.2,70.2,72,68,72z"/>
</g>
<g id="icon">
	<g>
		<polygon class="st3" points="24.9,44 24.9,44 24.9,44 		"/>
		<path class="st3" d="M72.7,54.5V37.9c0-2.6-2.1-4.7-4.8-4.8H55.7c-0.4-6-5.2-10.8-11.3-11.2v-4c0-0.4-0.3-0.8-0.8-0.8
			s-0.8,0.3-0.8,0.8v4c-6,0.4-10.9,5.2-11.3,11.2H22c-2.6,0-4.7,2.1-4.8,4.8V68c0,2.6,2.1,4.7,4.8,4.7h32.6c2.2,4.7,6.9,8,12.5,8
			c7.6,0,13.7-6.2,13.8-13.7C80.9,61.4,77.5,56.6,72.7,54.5z M36.2,26.5c1.9-1.9,4.6-3.1,7.5-3.1c0,0,0,0,0,0s0,0,0,0
			c2.9,0,5.6,1.2,7.5,3.1c1.7,1.7,2.9,4.1,3.1,6.6H33.1C33.3,30.6,34.5,28.2,36.2,26.5z M22,71.3c-1.8,0-3.2-1.5-3.2-3.2V37.9
			c0-1.8,1.5-3.2,3.2-3.3h9.6c0.2,4,2.3,7.5,5.5,9.5c0.3,0.2,0.8,0.1,1-0.2s0.1-0.8-0.2-1l0,0c-2.8-1.8-4.6-4.8-4.8-8.2h21.5
			c0.1,0.1,0.2,0.1,0.3,0.1s0.2,0,0.3-0.1H68c1.8,0,3.2,1.5,3.2,3.3v16c-1.3-0.4-2.7-0.6-4.1-0.6c-4.1,0-7.7,1.8-10.3,4.6l-3.7-3.1
			l11.9-10.4c0.3-0.3,0.3-0.7,0.1-1.1c-0.3-0.3-0.7-0.3-1.1-0.1L50.6,55c-1.6,1.4-3.5,2.1-5.4,2.1c-1.9,0-3.8-0.7-5.4-2.1L25.9,42.9
			c-0.3-0.3-0.8-0.2-1.1,0.1s-0.2,0.8,0.1,1.1l11.9,10.5l-9.1,7c-0.3,0.3-0.4,0.7-0.1,1.1c0.3,0.3,0.7,0.4,1.1,0.1l9.4-7.2l0.8,0.7
			c1.9,1.7,4.1,2.5,6.4,2.5c2.3,0,4.5-0.9,6.4-2.5l0.4-0.4l3.9,3.3c-1.6,2.2-2.5,5-2.5,7.9c0,1.5,0.2,2.9,0.7,4.2H22z M75.8,75.7
			c-2.2,2.2-5.3,3.6-8.7,3.6c-3.4,0-6.4-1.4-8.7-3.6c-2.2-2.2-3.6-5.3-3.6-8.7c0-3.4,1.4-6.4,3.6-8.7c2.2-2.2,5.3-3.6,8.7-3.6
			c3.4,0,6.4,1.4,8.7,3.6c2.2,2.2,3.6,5.3,3.6,8.7C79.4,70.4,78,73.4,75.8,75.7z"/>
		<path class="st3" d="M70.2,65.6l-0.4,0.6L70.2,65.6l-3.1-1.8c-0.3-0.2-0.7-0.3-1-0.3c-0.5,0-1,0.2-1.4,0.6
			C64.3,64.5,64,65,64,65.6v3.6c0,0.6,0.2,1.1,0.6,1.5c0.4,0.4,0.9,0.6,1.4,0.6c0.3,0,0.7-0.1,1-0.3l3.1-1.8c0.7-0.4,1-1.1,1-1.8
			C71.2,66.7,70.8,66,70.2,65.6z M69.4,67.8l-3.1,1.8c-0.1,0.1-0.2,0.1-0.3,0.1c-0.1,0-0.3-0.1-0.4-0.2c-0.1-0.1-0.2-0.2-0.2-0.4
			v-3.6c0-0.2,0.1-0.3,0.2-0.4c0.1-0.1,0.2-0.2,0.4-0.2c0.1,0,0.2,0,0.3,0.1l3.1,1.8l0,0c0.2,0.1,0.3,0.3,0.3,0.5
			C69.7,67.5,69.6,67.7,69.4,67.8z"/>
	</g>
</g>
</svg>
