<svg xmlns="http://www.w3.org/2000/svg" viewBox="0 0 82 82"><title>Zasób 1</title><g id="Warstwa_2" data-name="Warstwa 2"><g id="Warstwa_1-2" data-name="Warstwa 1"><rect width="82" height="82" style="fill:#fff;fill-opacity:0;opacity:0"/><path d="M25.20391,63.01338H19.53567a2.11211,2.11211,0,0,1-2.11211-2.11211h0V54.77921a2.11211,2.11211,0,0,1,2.11211-2.11212h5.66861a3.5853,3.5853,0,0,0,3.50536-2.83243L32.10879,33.993A13.93192,13.93192,0,0,1,45.73011,22.9866H52.462a2.1121,2.1121,0,0,1,2.11212,2.1121h0v6.12206a2.11212,2.11212,0,0,1-2.1121,2.11214H45.72955a3.58508,3.58508,0,0,0-3.50514,2.83224L38.82523,52.007A13.932,13.932,0,0,1,25.20391,63.01338Z" style="fill:#d9eeff"/><path d="M37.51546,35.46713l.70891-3.302a3.58514,3.58514,0,0,1,3.50518-2.83222H48.462A2.112,2.112,0,0,0,50.57412,27.221v-6.1223a2.112,2.112,0,0,0-2.11189-2.11211H41.73018A13.932,13.932,0,0,0,28.10879,29.993l-2.987,13.92234" style="fill:none;stroke:#0b68ff;stroke-linecap:round;stroke-linejoin:round;stroke-width:2px"/><path d="M25.12179,43.91536l-.41215,1.9193a3.58515,3.58515,0,0,1-3.50524,2.83243H15.53567a2.11212,2.11212,0,0,0-2.11211,2.11212v6.12206a2.11211,2.11211,0,0,0,2.11211,2.11211h5.66816A13.932,13.932,0,0,0,34.82523,48.007h0a3.50264,3.50264,0,0,1,3.429-2.78817H44.97" style="fill:none;stroke:#0b68ff;stroke-linecap:round;stroke-linejoin:round;stroke-width:2px"/><path d="M64.8082,57.43035a14.45685,14.45685,0,0,0,0-19.46835" style="fill:none;stroke:#0b68ff;stroke-linecap:round;stroke-linejoin:round;stroke-width:2px"/><path d="M48.50532,37.962a14.45683,14.45683,0,0,0,0,19.46835" style="fill:none;stroke:#0b68ff;stroke-linecap:round;stroke-linejoin:round;stroke-width:2px"/><line x1="60.22892" y1="44.12402" x2="53.0846" y2="51.26834" style="fill:none;stroke:#0b68ff;stroke-linecap:round;stroke-linejoin:round;stroke-width:2px"/><line x1="60.22892" y1="51.26834" x2="53.0846" y2="44.12402" style="fill:none;stroke:#0b68ff;stroke-linecap:round;stroke-linejoin:round;stroke-width:2px"/></g></g></svg>