<svg xmlns="http://www.w3.org/2000/svg" viewBox="0 0 82 82"><title>Zasób 2</title><g id="Warstwa_2" data-name="Warstwa 2"><g id="Warstwa_1-2" data-name="Warstwa 1"><rect width="82" height="82" style="fill:#fff;fill-opacity:0;opacity:0"/><path d="M54.93985,24.32334h-6.18a2.10264,2.10264,0,0,0-1.58771.72414L29.407,45.50905a2.10266,2.10266,0,0,0-.51492,1.37849v6.587a2.10263,2.10263,0,0,0,2.10263,2.10263H47.66626v6.44814a2.10263,2.10263,0,0,0,2.10263,2.10263h5.171a2.10263,2.10263,0,0,0,2.10264-2.10263V55.57713h2.74114a2.10263,2.10263,0,0,0,2.10263-2.10263v-5.171a2.10263,2.10263,0,0,0-2.10263-2.10263H57.04249V26.426A2.10263,2.10263,0,0,0,54.93985,24.32334ZM47.66626,46.2009h-6.4425l6.4425-7.4204Z" style="fill:#d9eeff"/><path d="M51.18913,20.57261h-6.18a2.10265,2.10265,0,0,0-1.58771.72415L25.65624,41.75833a2.10264,2.10264,0,0,0-.51492,1.37848v6.587A2.10263,2.10263,0,0,0,27.244,51.8264H43.91553v6.44814a2.10263,2.10263,0,0,0,2.10263,2.10264h5.171a2.10263,2.10263,0,0,0,2.10263-2.10264V51.8264H56.0329a2.10263,2.10263,0,0,0,2.10263-2.10263v-5.171a2.10263,2.10263,0,0,0-2.10263-2.10264H53.29176V22.67524A2.10263,2.10263,0,0,0,51.18913,20.57261Zm-7.2736,21.87756H37.473l6.4425-7.4204Z" style="fill:none;stroke:#0b68ff;stroke-linecap:round;stroke-linejoin:round;stroke-width:2px"/><circle cx="30.48441" cy="28.24277" r="10.37067" style="fill:#fff;stroke:#0b68ff;stroke-linecap:round;stroke-linejoin:round;stroke-width:2px"/><polyline points="26.483 30.243 30.484 26.242 34.486 30.243" style="fill:none;stroke:#0b68ff;stroke-linecap:round;stroke-linejoin:round;stroke-width:2px"/></g></g></svg>