<svg xmlns="http://www.w3.org/2000/svg" viewBox="0 0 82 82"><title>promotion-mobile</title><rect width="82" height="82" style="fill:#f2f2f2;opacity:0"/><rect x="20.56812" y="27" width="50" height="34" rx="3.89706" ry="3.89706" transform="translate(89.56812 -1.56812) rotate(90)" style="fill:#d9eeff"/><line x1="34.33333" y1="21.16529" x2="44.75277" y2="21.16529" style="fill:none;stroke:#0b68ff;stroke-linecap:round;stroke-linejoin:round;stroke-width:2px"/><circle cx="50.11595" cy="21.16529" r="1" style="fill:#0b68ff"/><path d="M58.56812,54.70238v6.40056A3.89706,3.89706,0,0,1,54.67105,65H28.46518a3.89706,3.89706,0,0,1-3.89706-3.89706V18.89706A3.89706,3.89706,0,0,1,28.46518,15H54.67105a3.89706,3.89706,0,0,1,3.89707,3.89706v4.78765" style="fill:none;stroke:#0b68ff;stroke-linecap:round;stroke-linejoin:round;stroke-width:2px"/><path d="M42.49779,29.70238h21.039a3.462,3.462,0,0,1,3.4805,3.44329V44.93189a3.462,3.462,0,0,1-3.4805,3.44329H50.17056L43.775,54.70238v-6.3272H42.49779a3.462,3.462,0,0,1-3.4805-3.44329V33.14567A3.462,3.462,0,0,1,42.49779,29.70238Z" style="fill:#fff;stroke:#0b68ff;stroke-linecap:round;stroke-linejoin:round;stroke-width:2px"/><circle cx="53.0176" cy="39.27991" r="1.67591" style="fill:#0b68ff"/><circle cx="60.43458" cy="39.27991" r="1.67528" style="fill:#0b68ff"/><circle cx="45.60063" cy="39.27991" r="1.67591" style="fill:#0b68ff"/></svg>