<?xml version="1.0" encoding="utf-8"?>
<!-- Generator: Adobe Illustrator 24.1.2, SVG Export Plug-In . SVG Version: 6.00 Build 0)  -->
<svg version="1.1" xmlns="http://www.w3.org/2000/svg" xmlns:xlink="http://www.w3.org/1999/xlink" x="0px" y="0px"
	 viewBox="0 0 90 90" style="enable-background:new 0 0 90 90;" xml:space="preserve">
<style type="text/css">
	.st0{display:none;}
	.st1{display:inline;fill:none;stroke:#009FE3;stroke-width:0.25;stroke-miterlimit:10;}
	.st2{display:inline;fill:none;stroke:#FF00FF;stroke-width:0.25;stroke-miterlimit:10;}
	.st3{fill:#384350;}
</style>
<g id="Grid" class="st0">
	<rect id="canvas_60x60px_8_" x="15" y="15" class="st1" width="60" height="60"/>
	<rect id="canvas_70x70px_8_" x="10" y="10" class="st1" width="70" height="70"/>
</g>
<g id="Additional_bottom" class="st0">
	<rect id="_x38_x8p_canvas_32_" x="50" y="50" class="st2" width="34" height="34"/>
	<rect id="_x38_x8p_canvas_31_" x="54" y="54" class="st2" width="26" height="26"/>
</g>
<g id="Additional_center" class="st0">
	<rect id="_x38_x8p_canvas_28_" x="28" y="28" class="st2" width="34" height="34"/>
	<rect id="_x38_x8p_canvas_27_" x="32" y="32" class="st2" width="26" height="26"/>
</g>
<g id="Circle" class="st0">
	<circle class="st1" cx="45" cy="45" r="30"/>
</g>
<g id="Vertical_rectangle" class="st0">
	<path class="st1" d="M65,15H25c-2.2,0-4,1.8-4,4v52c0,2.2,1.8,4,4,4h40c2.2,0,4-1.8,4-4V19C69,16.8,67.2,15,65,15z"/>
</g>
<g id="Horizontal_rectangle" class="st0">
	<path class="st1" d="M71,21H19c-2.2,0-4,1.8-4,4v40c0,2.2,1.8,4,4,4h52c2.2,0,4-1.8,4-4V25C75,22.8,73.2,21,71,21z"/>
</g>
<g id="Square" class="st0">
	<path class="st1" d="M68,72H22c-2.2,0-4-1.8-4-4V22c0-2.2,1.8-4,4-4h46c2.2,0,4,1.8,4,4v46C72,70.2,70.2,72,68,72z"/>
</g>
<g id="icon">
	<g>
		<path class="st3" d="M49.7,75.8h-9.4c-0.4,0-0.8,0.3-0.8,0.8c0,0.4,0.3,0.8,0.8,0.8h9.4c0.4,0,0.8-0.3,0.8-0.8
			C50.4,76.2,50.1,75.8,49.7,75.8z"/>
		<path class="st3" d="M44.9,44.5c0.2,0,0.4-0.1,0.5-0.2c0.1-0.1,0.2-0.3,0.2-0.5c0-0.2-0.1-0.4-0.2-0.5c-0.1-0.1-0.3-0.2-0.5-0.2
			c-0.2,0-0.4,0.1-0.5,0.2c-0.1,0.1-0.2,0.3-0.2,0.5c0,0.2,0.1,0.4,0.2,0.5C44.5,44.4,44.7,44.5,44.9,44.5z"/>
		<path class="st3" d="M44.5,14.6c0.4,0,0.8-0.3,0.8-0.8V8.2c0-0.4-0.3-0.8-0.8-0.8c-0.4,0-0.8,0.3-0.8,0.8v5.6
			C43.7,14.3,44.1,14.6,44.5,14.6z"/>
		<path class="st3" d="M73.8,43.7c0,0.4,0.3,0.8,0.8,0.8H80c0.4,0,0.8-0.3,0.8-0.8c0-0.4-0.3-0.8-0.8-0.8h-5.4
			C74.2,43,73.8,43.3,73.8,43.7z"/>
		<path class="st3" d="M14.4,43H9c-0.4,0-0.8,0.3-0.8,0.8c0,0.4,0.3,0.8,0.8,0.8h5.4c0.4,0,0.8-0.3,0.8-0.8
			C15.2,43.3,14.8,43,14.4,43z"/>
		<path class="st3" d="M70.5,28.6l5.2-3.8c0.3-0.2,0.4-0.7,0.2-1c-0.2-0.3-0.7-0.4-1-0.2l-5.2,3.8c-0.3,0.2-0.4,0.7-0.2,1
			C69.7,28.8,70.2,28.9,70.5,28.6z"/>
		<path class="st3" d="M18.4,28.6c0.3,0.2,0.8,0.2,1-0.2c0.2-0.3,0.2-0.8-0.2-1L14.6,24c-0.3-0.2-0.8-0.2-1,0.2
			c-0.2,0.3-0.2,0.8,0.2,1L18.4,28.6z"/>
		<path class="st3" d="M69.9,53.5c1.1-3,1.8-6.2,1.8-9.6c0-14.8-12-26.7-26.7-26.7c-14.8,0-26.7,12-26.7,26.7
			c0,5.5,1.7,10.6,4.5,14.9l-3.9,2.8c-0.3,0.2-0.4,0.7-0.2,1c0.2,0.3,0.7,0.4,1,0.2l4.4-3.3c0,0,0.1-0.1,0.1-0.1
			c0,0,0.1-0.1,0.1-0.1c0,0,0-0.1,0-0.1c0,0,0-0.1,0-0.1c0,0,0-0.1,0-0.1c0,0,0-0.1,0-0.1c0,0,0-0.1-0.1-0.1c0,0,0-0.1-0.1-0.1
			c-2.9-4.1-4.7-9.2-4.7-14.6c0-7,2.8-13.3,7.4-17.8c4.6-4.6,10.9-7.4,17.8-7.4c7,0,13.3,2.8,17.8,7.4c4.6,4.6,7.4,10.9,7.4,17.8
			c0,3.3-0.6,6.4-1.8,9.3c-0.5-0.1-1-0.1-1.5-0.1c-1,0-1.9,0.1-2.9,0.3c1.5-2.9,2.4-6.2,2.4-9.8c0-11.8-9.6-21.4-21.4-21.4
			c-11.8,0-21.4,9.6-21.4,21.4c0,6.7,3.1,12.7,8,16.7h-1c-1.6,0-2.8,1.3-2.9,2.8v1.2c0,1.6,1.3,2.8,2.9,2.8h2.4
			c-0.2,0.4-0.4,0.9-0.4,1.4v1.2c0,1.6,1.3,2.8,2.8,2.8h18.9c2.2,4.7,6.9,8,12.5,8c7.6,0,13.7-6.2,13.7-13.7
			C80.6,60.4,76,54.9,69.9,53.5z M34.1,60.3c-5.4-3.6-9-9.7-9-16.7c0-5.5,2.2-10.5,5.8-14.1c3.6-3.6,8.6-5.8,14.1-5.8
			c5.5,0,10.5,2.2,14.1,5.8c3.6,3.6,5.8,8.6,5.8,14.1c0,3.8-1.1,7.4-2.9,10.4c-3.1,1.2-5.6,3.4-7.2,6.3h-5.9c0,0,0-0.1,0-0.1l0-10.1
			c0-1.6,0.6-3.1,1.7-4.1c1.1-1.1,2.5-1.7,4.1-1.7c0.4,0,0.7-0.3,0.7-0.7c0-0.4-0.3-0.8-0.7-0.8c-4,0-7.3,3.3-7.3,7.3v10.1
			c0,0,0,0.1,0,0.1h-4.8c0,0,0-0.1,0-0.1l0-10.1c0-4-3.3-7.3-7.3-7.3c-0.4,0-0.8,0.3-0.8,0.8c0,0.4,0.3,0.8,0.8,0.8v0
			c1.6,0,3.1,0.6,4.1,1.7c1.1,1.1,1.7,2.5,1.7,4.1v10.1c0,0,0,0.1,0,0.1L34.1,60.3C34.1,60.3,34.1,60.3,34.1,60.3z M29.6,65.4
			c-0.2-0.2-0.4-0.6-0.4-1v-1.2c0-0.4,0.2-0.7,0.4-1c0.2-0.2,0.6-0.4,1-0.4H54c-0.5,1.2-0.8,2.5-0.9,3.9H35.4h-4.9
			C30.2,65.8,29.8,65.6,29.6,65.4z M35.4,71.2c-0.4,0-0.7-0.2-1-0.4c-0.2-0.2-0.4-0.6-0.4-1v-1.2c0-0.4,0.2-0.7,0.4-1
			c0.2-0.2,0.6-0.4,1-0.4h17.7c0,1.4,0.3,2.7,0.7,3.9H35.4z M75.5,75.6c-2.2,2.2-5.3,3.6-8.7,3.6c-3.4,0-6.4-1.4-8.7-3.6
			c-2.2-2.2-3.6-5.3-3.6-8.7c0-3.4,1.4-6.4,3.6-8.7c2.2-2.2,5.3-3.6,8.7-3.6c3.4,0,6.4,1.4,8.7,3.6c2.2,2.2,3.6,5.3,3.6,8.7
			C79.1,70.3,77.7,73.3,75.5,75.6z"/>
		<polygon class="st3" points="61.4,68.7 61.4,68.7 61.4,68.7 		"/>
		<polygon class="st3" points="64.5,72.9 64.5,72.9 64.5,72.9 		"/>
		<path class="st3" d="M74.1,61.8L74,61.7l0-0.1L72.3,60c-0.3-0.3-0.7-0.4-1.1-0.4c-0.4,0-0.8,0.2-1.1,0.4c0,0,0,0,0,0l0,0l-0.9,0.9
			l-7.8,7.8c-0.2,0.2-0.4,0.5-0.4,0.8l-0.6,2.9l0,0.2c0,0.6,0.5,1,1,1l0.2,0l0,0l2.9-0.6c0.3-0.1,0.6-0.2,0.8-0.4l7.8-7.8l0.9-0.9
			c0.1-0.1,0.3-0.3,0.3-0.5l0-0.1l0-0.1l0-0.1c0-0.1,0-0.2,0-0.3C74.4,62.4,74.3,62.1,74.1,61.8L74.1,61.8z M64.2,71.4L64.2,71.4
			L64.2,71.4L62,71.9l0.5-2.2l0,0l0,0l7.2-7.2l1.7,1.7L64.2,71.4z M72.9,62.7L72.9,62.7l-0.4,0.4l-1.7-1.7l0.4-0.4l0,0l0,0
			L72.9,62.7L72.9,62.7L72.9,62.7L72.9,62.7z"/>
	</g>
</g>
</svg>
