<svg xmlns="http://www.w3.org/2000/svg" width="48" height="48" data-name="Group 382">
    <path d="M0 0h48v48H0z" data-name="Rectangle 321" fill="transparent"/>
    <path d="M14.2 19.8h28.1a3.585 3.585 0 0 1 3.6 3.6v15.3a3.585 3.585 0 0 1-3.6 3.6H14.2a3.585 3.585 0 0 1-3.6-3.6V23.4a3.585 3.585 0 0 1 3.6-3.6z" data-name="Path 192" fill="#d9eeff"/>
    <path d="M38.1 15.5a3.585 3.585 0 0 1 3.6 3.6v15.3a3.585 3.585 0 0 1-3.6 3.6h-28a3.585 3.585 0 0 1-3.6-3.6V19a3.585 3.585 0 0 1 3.6-3.6h2.6" data-name="Path 193" stroke-width="2" stroke-linecap="round" stroke-linejoin="round" fill="none" stroke="#0b68ff"/>
    <circle cx="1.7" cy="1.7" r="1.7" data-name="Ellipse 53" transform="translate(27 13.7)" fill="#fff"/>
    <circle cx="4.3" cy="4.3" r="4.3" data-name="Ellipse 54" transform="translate(15.8 20.6)" fill="#fff"/>
    <g data-name="Group 381" stroke-miterlimit="10" stroke-width="1.6" fill="none" stroke="#0b68ff">
        <g data-name="Group 378" stroke-linecap="round" stroke-linejoin="round">
            <circle cx="1.9" cy="1.9" r="1.9" data-name="Ellipse 55" transform="translate(18.2 23)"/>
            <path d="M24.6 12a4.6 4.6 0 0 0-4.5-3.6 4.6 4.6 0 1 0 0 9.2V23" data-name="Path 194"/>
        </g>
        <g data-name="Group 379">
            <circle cx="1.9" cy="1.9" r="1.9" data-name="Ellipse 56" transform="translate(18.2 11.2)"/>
            <path d="M29 23.5a4.528 4.528 0 0 0 5.3-2.1 4.6 4.6 0 1 0-7.9-4.7L21.7 14" data-name="Path 195" stroke-linecap="round" stroke-linejoin="round"/>
        </g>
        <g data-name="Group 380" stroke-linecap="round" stroke-linejoin="round">
            <circle cx="1.9" cy="1.9" r="1.9" data-name="Ellipse 57" transform="translate(28.4 17.4)"/>
            <path d="M16.8 21.6a4.551 4.551 0 1 0 7 1.2l4.6-2.6" data-name="Path 196"/>
        </g>
    </g>
</svg>
