<?xml version="1.0" encoding="utf-8"?>
<!-- Generator: Adobe Illustrator 21.1.0, SVG Export Plug-In . SVG Version: 6.00 Build 0)  -->
<svg version="1.1" id="Layer_1" xmlns="http://www.w3.org/2000/svg" xmlns:xlink="http://www.w3.org/1999/xlink" x="0px" y="0px"
	 viewBox="0 0 82 82" style="enable-background:new 0 0 82 82;" xml:space="preserve">
<style type="text/css">
	.st_rp0{display:none;fill:#F1F1F1;}
	.st_rp1{fill:#D9EDFB;stroke:#D9EEFF;stroke-miterlimit:10;}
	.st_rp2{fill:none;stroke:#0B68FF;stroke-width:2;stroke-linecap:round;stroke-miterlimit:10;}
	.st_rp3{fill:none;stroke:#0B68FF;stroke-width:2;stroke-linecap:round;stroke-linejoin:round;stroke-miterlimit:10;}
	.st_rp4{fill:#FFFFFF;stroke:#0B68FF;stroke-width:2;stroke-linecap:round;stroke-linejoin:round;stroke-miterlimit:10;}
	.st_rp5{fill:#0B68FF;}
</style>
<rect class="st_rp0" width="82" height="82"/>
<path class="st_rp1" d="M30.4,66.3h20.8c3.8,0,7-3.1,7-7V34.2c0-2.3-1.1-4.5-3-5.9L42.7,19c-1.2-0.9-2.6-1.3-4.1-1.3h-8.2
	c-3.8,0-7,3.1-7,7v34.8C23.4,63.2,26.6,66.3,30.4,66.3z"/>
<path class="st_rp2" d="M53.9,40.6l0-1.4V30c0-2.3-1.1-4.5-3-5.9l-12.5-9.3c-1.2-0.9-2.6-1.3-4.1-1.3h-8.2c-3.8,0-7,3.1-7,7v34.8
	c0,3.8,3.1,6.9,6.9,6.9h8.5"/>
<g>
	<line class="st_rp3" x1="42.3" y1="32.6" x2="26.3" y2="32.6"/>
	<line class="st_rp3" x1="32.3" y1="37.6" x2="26.3" y2="37.6"/>
	<line class="st_rp3" x1="42.3" y1="42.5" x2="26.3" y2="42.5"/>
	<line class="st_rp3" x1="32.3" y1="47.5" x2="26.3" y2="47.5"/>
</g>
<g>
	
		<ellipse transform="matrix(0.7071 -0.7071 0.7071 0.7071 -25.4321 53.2278)" class="st_rp4" cx="51.5" cy="57.3" rx="11.3" ry="11.3"/>
</g>
<g>
	<path class="st_rp2" d="M46.2,56.4c0,0.3-0.1,0.6-0.1,0.9c0,3,2.4,5.5,5.5,5.5c0.3,0,0.6,0,0.9-0.1"/>
	<path class="st_rp2" d="M56.9,58.2c0-0.3,0.1-0.6,0.1-0.9c0-3-2.4-5.5-5.5-5.5c-0.3,0-0.6,0-0.9,0.1"/>
</g>
<g>
	<circle class="st_rp5" cx="26.3" cy="22.6" r="1"/>
	<circle class="st_rp5" cx="30.3" cy="22.6" r="1"/>
	<circle class="st_rp5" cx="34.3" cy="22.6" r="1"/>
</g>
</svg>
