<?xml version="1.0" encoding="utf-8"?>
<!-- Generator: Adobe Illustrator 24.1.2, SVG Export Plug-In . SVG Version: 6.00 Build 0)  -->
<svg version="1.1" xmlns="http://www.w3.org/2000/svg" xmlns:xlink="http://www.w3.org/1999/xlink" x="0px" y="0px"
	 viewBox="0 0 90 90" style="enable-background:new 0 0 90 90;" xml:space="preserve">
<style type="text/css">
	.st0{display:none;}
	.st1{display:inline;fill:none;stroke:#009FE3;stroke-width:0.25;stroke-miterlimit:10;}
	.st2{display:inline;fill:none;stroke:#FF00FF;stroke-width:0.25;stroke-miterlimit:10;}
	.st3{fill:#384350;}
</style>
<g id="Grid" class="st0">
	<rect id="canvas_60x60px_6_" x="15" y="15" class="st1" width="60" height="60"/>
	<rect id="canvas_70x70px_6_" x="10" y="10" class="st1" width="70" height="70"/>
</g>
<g id="Additional_bottom" class="st0">
	<rect id="_x38_x8p_canvas_22_" x="50" y="50" class="st2" width="34" height="34"/>
	<rect id="_x38_x8p_canvas_21_" x="54" y="54" class="st2" width="26" height="26"/>
</g>
<g id="Additional_center" class="st0">
	<rect id="_x38_x8p_canvas_20_" x="28" y="28" class="st2" width="34" height="34"/>
	<rect id="_x38_x8p_canvas_19_" x="32" y="32" class="st2" width="26" height="26"/>
</g>
<g id="Circle" class="st0">
	<circle class="st1" cx="45" cy="45" r="30"/>
</g>
<g id="Vertical_rectangle" class="st0">
	<path class="st1" d="M65,15H25c-2.2,0-4,1.8-4,4v52c0,2.2,1.8,4,4,4h40c2.2,0,4-1.8,4-4V19C69,16.8,67.2,15,65,15z"/>
</g>
<g id="Horizontal_rectangle" class="st0">
	<path class="st1" d="M71,21H19c-2.2,0-4,1.8-4,4v40c0,2.2,1.8,4,4,4h52c2.2,0,4-1.8,4-4V25C75,22.8,73.2,21,71,21z"/>
</g>
<g id="Square" class="st0">
	<path class="st1" d="M68,72H22c-2.2,0-4-1.8-4-4V22c0-2.2,1.8-4,4-4h46c2.2,0,4,1.8,4,4v46C72,70.2,70.2,72,68,72z"/>
</g>
<g id="icon">
	<g>
		<path class="st3" d="M80.6,57.1c0.4,0,0.8-0.3,0.8-0.8c0-0.4-0.3-0.8-0.8-0.8h-1.8v-2.1c0-0.4-0.3-0.7-0.7-0.7
			c-0.4,0-0.7,0.3-0.7,0.7l0,2.5L76.4,57c-0.2-0.2-0.4-0.4-0.6-0.6c0,0,0,0,0,0l0-26.5c0-2.9-2.3-5.2-5.2-5.2H25
			c-2.9,0-5.2,2.3-5.2,5.2V61h-4.1c-0.8,0-1.4,0.6-1.4,1.4v4.2c0,1.6,1.3,3,3,3h36.3C54.7,76,60.3,80.7,67,80.8
			c7.6,0,13.7-6.2,13.7-13.7c0-3.4-1.3-6.6-3.3-9l0.9-0.9H80.6z M21.3,29.9c0-1,0.4-1.9,1.1-2.6c0.7-0.7,1.6-1.1,2.6-1.1h45.6
			c1,0,1.9,0.4,2.6,1.1c0.7,0.7,1.1,1.6,1.1,2.6v25.4c-2.1-1.3-4.6-2.1-7.2-2.1c-5.4,0-10.1,3.2-12.4,7.8H21.3V29.9z M17.2,68.2
			c-0.8,0-1.5-0.7-1.5-1.5v-4.2H54c-0.5,1.4-0.8,2.9-0.8,4.5c0,0.4,0,0.8,0.1,1.2H17.2z M79.2,67c0,3.4-1.4,6.4-3.6,8.7
			c-2.2,2.2-5.3,3.6-8.7,3.6c-3.4,0-6.4-1.4-8.7-3.6c-2.2-2.2-3.6-5.3-3.6-8.7c0-3.4,1.4-6.4,3.6-8.7c2.2-2.2,5.3-3.6,8.7-3.6
			c3.2,0,6.1,1.2,8.3,3.3l-2.7,2.7c-1.5-1.3-3.5-2.2-5.7-2.2c-4.7,0-8.5,3.8-8.5,8.5c0,4.7,3.8,8.5,8.5,8.5c4.7,0,8.5-3.8,8.5-8.5
			c0-2-0.7-3.8-1.8-5.2l2.7-2.7C78.2,61.2,79.2,64,79.2,67z M71.6,61.7l-2.7,2.7c0,0,0,0,0,0c-0.5-0.4-1.2-0.6-1.9-0.6
			c-1.7,0-3.2,1.4-3.2,3.2c0,1.7,1.4,3.2,3.2,3.2c1.7,0,3.2-1.4,3.2-3.2c0-0.5-0.1-1-0.3-1.4c0,0,0.1,0,0.1-0.1l0,0l2.7-2.7
			C73.5,64,74,65.4,74,67c0,1.9-0.8,3.7-2.1,4.9c-1.3,1.3-3,2-4.9,2.1c-1.9,0-3.7-0.8-4.9-2.1c-1.3-1.3-2-3-2.1-4.9
			c0-1.9,0.8-3.7,2.1-5c1.3-1.3,3-2,4.9-2.1C68.8,60,70.4,60.7,71.6,61.7z M68.7,67c0,0.9-0.7,1.7-1.7,1.7c-0.9,0-1.7-0.7-1.7-1.7
			c0-0.9,0.7-1.7,1.7-1.7C67.9,65.3,68.7,66.1,68.7,67z"/>
		<path class="st3" d="M30.4,46.3h14.4c0.2,0,0.4-0.1,0.5-0.2s0.2-0.3,0.2-0.5v-9.7c0-0.2-0.1-0.4-0.2-0.5s-0.3-0.2-0.5-0.2H30.4
			c-0.2,0-0.4,0.1-0.5,0.2c-0.1,0.1-0.2,0.3-0.2,0.5v9.7c0,0.2,0.1,0.4,0.2,0.5S30.2,46.3,30.4,46.3z M31.2,36.6h12.9l0,8.2H31.2
			V36.6z"/>
		<path class="st3" d="M44.9,49.6H30.4c-0.4,0-0.8,0.3-0.8,0.8c0,0.4,0.3,0.8,0.8,0.8h14.4c0.4,0,0.8-0.3,0.8-0.8
			C45.6,50,45.3,49.6,44.9,49.6z"/>
		<path class="st3" d="M39.4,53.8h-8.9c-0.4,0-0.8,0.3-0.8,0.8c0,0.4,0.3,0.8,0.8,0.8h8.9c0.4,0,0.8-0.3,0.8-0.8
			C40.1,54.1,39.8,53.8,39.4,53.8z"/>
		<path class="st3" d="M56.1,42.3h7.4c0.2,0,0.4-0.1,0.5-0.2s0.2-0.3,0.2-0.5v-5.8c0-0.2-0.1-0.4-0.2-0.5s-0.3-0.2-0.5-0.2H49
			c-0.2,0-0.4,0.1-0.5,0.2c-0.1,0.1-0.2,0.3-0.2,0.5v1.8v4v4c0,0.3,0.1,0.5,0.4,0.6s0.5,0.1,0.8,0L56.1,42.3z M49.8,37.6v-1.1h12.9
			v4.3h-6.8c-0.1,0-0.3,0-0.4,0.1l-5.7,3.3l0-2.7V37.6z"/>
	</g>
</g>
</svg>
