<svg xmlns="http://www.w3.org/2000/svg" viewBox="0 0 82 82"><title>ai-reco-metric_1</title><rect width="82" height="82" style="fill:#fff;fill-opacity:0"/><path d="M59.03771,61.1595,47.02924,55.30408a5.27952,5.27952,0,0,0-4.62781,0L30.393,61.1595a2.53368,2.53368,0,0,1-3.64414-2.27737V34.4932a4.61173,4.61173,0,0,1,4.61173-4.61172H58.07013a4.61172,4.61172,0,0,1,4.61172,4.61172V58.88213A2.53368,2.53368,0,0,1,59.03771,61.1595Z" style="fill:#d9eeff"/><path d="M58.68185,42.72687V54.88213a2.53368,2.53368,0,0,1-3.64414,2.27737L43.02924,51.30408a5.27952,5.27952,0,0,0-4.62781,0L26.393,57.1595a2.53368,2.53368,0,0,1-3.64414-2.27737V30.4932a4.61173,4.61173,0,0,1,4.61173-4.61172h9.80164" style="fill:none;stroke:#0b68ff;stroke-linecap:round;stroke-linejoin:round;stroke-width:2px"/><path d="M50.30474,20.581h0a8.37709,8.37709,0,0,1,8.37709,8.37709v8.37711a0,0,0,0,1,0,0H50.30474a8.37709,8.37709,0,0,1-8.37709-8.37709v0A8.37709,8.37709,0,0,1,50.30474,20.581Z" style="fill:#fff;stroke:#0b68ff;stroke-linecap:round;stroke-linejoin:round;stroke-width:2px"/><line x1="63.25118" y1="37.33521" x2="58.68185" y2="37.33521" style="fill:#fff;stroke:#0b68ff;stroke-linecap:round;stroke-linejoin:round;stroke-width:2px"/><circle cx="50.30475" cy="28.95811" r="2.28466" style="fill:#fff;stroke:#0b68ff;stroke-linecap:round;stroke-linejoin:round;stroke-width:2px"/></svg>