<?xml version="1.0" encoding="utf-8"?>
<!-- Generator: Adobe Illustrator 24.1.2, SVG Export Plug-In . SVG Version: 6.00 Build 0)  -->
<svg version="1.1" xmlns="http://www.w3.org/2000/svg" xmlns:xlink="http://www.w3.org/1999/xlink" x="0px" y="0px"
	 viewBox="0 0 90 90" style="enable-background:new 0 0 90 90;" xml:space="preserve">
<style type="text/css">
	.st0{display:none;}
	.st1{display:inline;fill:none;stroke:#009FE3;stroke-width:0.25;stroke-miterlimit:10;}
	.st2{display:inline;fill:none;stroke:#FF00FF;stroke-width:0.25;stroke-miterlimit:10;}
	.st3{fill:#384350;}
</style>
<g id="Grid" class="st0">
	<rect id="canvas_60x60px_4_" x="15" y="15" class="st1" width="60" height="60"/>
	<rect id="canvas_70x70px_4_" x="10" y="10" class="st1" width="70" height="70"/>
</g>
<g id="Additional_bottom" class="st0">
	<rect id="_x38_x8p_canvas_16_" x="50" y="50" class="st2" width="34" height="34"/>
	<rect id="_x38_x8p_canvas_15_" x="54" y="54" class="st2" width="26" height="26"/>
</g>
<g id="Additional_center" class="st0">
	<rect id="_x38_x8p_canvas_12_" x="28" y="28" class="st2" width="34" height="34"/>
	<rect id="_x38_x8p_canvas_11_" x="32" y="32" class="st2" width="26" height="26"/>
</g>
<g id="Circle" class="st0">
	<circle class="st1" cx="45" cy="45" r="30"/>
</g>
<g id="Vertical_rectangle" class="st0">
	<path class="st1" d="M65,15H25c-2.2,0-4,1.8-4,4v52c0,2.2,1.8,4,4,4h40c2.2,0,4-1.8,4-4V19C69,16.8,67.2,15,65,15z"/>
</g>
<g id="Horizontal_rectangle" class="st0">
	<path class="st1" d="M71,21H19c-2.2,0-4,1.8-4,4v40c0,2.2,1.8,4,4,4h52c2.2,0,4-1.8,4-4V25C75,22.8,73.2,21,71,21z"/>
</g>
<g id="Square" class="st0">
	<path class="st1" d="M68,72H22c-2.2,0-4-1.8-4-4V22c0-2.2,1.8-4,4-4h46c2.2,0,4,1.8,4,4v46C72,70.2,70.2,72,68,72z"/>
</g>
<g id="icon">
	<g>
		<path class="st3" d="M44.9,48.3c4,0,7.4-2.9,8.2-6.7c0,0,0,0,0,0c0-0.2,0.1-0.4,0.1-0.6c0-0.1,0-0.1,0-0.2c0-0.3,0-0.6,0-0.9
			c0-4.6-3.7-8.4-8.4-8.4c-0.3,0-0.5,0-0.8,0c-0.1,0-0.2,0-0.3,0c-0.2,0-0.3,0-0.5,0.1c-0.1,0-0.2,0-0.3,0.1c-0.1,0-0.2,0.1-0.4,0.1
			c-0.1,0-0.2,0.1-0.4,0.1c0,0,0,0,0,0l0,0l0,0l0,0l0,0c0,0,0,0,0,0l0,0c0,0-0.1,0-0.1,0c-0.3,0.1-0.5,0.2-0.8,0.3
			c-0.1,0-0.1,0.1-0.2,0.1c-0.6,0.3-1.2,0.7-1.7,1.1c-0.1,0-0.1,0.1-0.2,0.1c-0.2,0.2-0.4,0.4-0.6,0.6c0,0.1-0.1,0.1-0.1,0.2
			c-0.4,0.5-0.8,1.1-1.1,1.7c0,0.1-0.1,0.1-0.1,0.2c-0.1,0.2-0.2,0.5-0.3,0.8c0,0.1-0.1,0.1-0.1,0.2c-0.1,0.3-0.2,0.7-0.3,1
			c0,0,0,0,0,0c0,0,0,0,0,0c-0.1,0.5-0.2,1.1-0.2,1.6C36.5,44.6,40.2,48.3,44.9,48.3z M49.7,44.8c-1.2,1.2-3,2-4.8,2
			c-1.9,0-3.6-0.8-4.8-2c-1.2-1.2-2-3-2-4.8c0-0.3,0-0.5,0-0.8c1.8-0.2,3.4-1,4.6-2.2c1.6,3,4.9,5.1,8.7,5.2
			C51,43.2,50.4,44.1,49.7,44.8z M49.7,35.1c1.2,1.2,2,3,2,4.8c0,0.3,0,0.5-0.1,0.8c-3.9,0-7.1-2.3-8.1-5.4
			c-0.1-0.3-0.3-0.5-0.6-0.5c-0.3,0-0.6,0.1-0.7,0.3c-0.7,1.2-2.1,2.1-3.8,2.4c0.1-0.2,0.2-0.4,0.2-0.6c0-0.1,0.1-0.1,0.1-0.2
			c0.3-0.5,0.6-0.9,0.9-1.4c0,0,0.1-0.1,0.1-0.1c0.2-0.2,0.3-0.3,0.5-0.5c0,0,0.1-0.1,0.1-0.1c0.4-0.4,0.9-0.7,1.4-0.9
			c0,0,0.1,0,0.1-0.1c0.2-0.1,0.4-0.2,0.7-0.3c0,0,0.1,0,0.1,0c0.3-0.1,0.6-0.2,1-0.2c0.1,0,0.1,0,0.2,0c0.3-0.1,0.7-0.1,1-0.1
			C46.7,33.1,48.5,33.9,49.7,35.1z"/>
		<path class="st3" d="M56.8,53.6c0.2-0.3,0.2-0.7,0-1c-1.7-2.1-4.1-3.7-7-4.6l0,0c-0.1,0-0.3-0.1-0.4-0.1c-0.3,0-0.6,0.1-0.8,0.3
			l-3.8,3l-3.8-3c-0.2-0.2-0.5-0.3-0.8-0.3c-0.1,0-0.3,0-0.4,0.1c-2.9,0.9-5.3,2.5-7,4.6c-0.2,0.3-0.2,0.7,0,1
			c2.9,3.4,7.2,5.5,12,5.5C49.6,59.1,53.9,57,56.8,53.6z M49.7,48.7l-0.2,0.6v0L49.7,48.7z M34.5,53.1c1.4-1.6,3.4-2.9,5.7-3.6
			l3.8,3c0.2,0.2,0.6,0.3,0.8,0.3c0.3,0,0.6-0.1,0.8-0.3l3.8-3c2.3,0.7,4.3,2,5.7,3.6c-2.6,2.8-6.3,4.5-10.4,4.5
			C40.7,57.6,37.1,55.9,34.5,53.1z"/>
		<polygon class="st3" points="39.8,48 39.8,48 39.8,48 		"/>
		<path class="st3" d="M65.9,16.7h9c0.4,0,0.8-0.3,0.8-0.8c0-0.4-0.3-0.8-0.8-0.8h-9c-0.4,0-0.8,0.3-0.8,0.8
			C65.1,16.3,65.5,16.7,65.9,16.7z"/>
		<path class="st3" d="M76.9,44.7h-1.3c-0.2-9.6-4.8-18.1-11.9-23.6c0.1,0,0.3-0.1,0.5-0.1h10.7c0.4,0,0.7-0.3,0.7-0.7
			c0-0.4-0.3-0.8-0.7-0.8H64.2c-0.7,0-1.3,0.2-1.8,0.6c-4.7-3.3-10.5-5.3-16.6-5.5v-2.1c0-0.4-0.3-0.8-0.8-0.8
			c-0.4,0-0.8,0.3-0.8,0.8v2.1C27.8,15,14.5,28.3,14.1,44.7h-1c-0.4,0-0.8,0.3-0.8,0.8c0,0.4,0.3,0.8,0.8,0.8h1
			c0.5,16.4,13.7,29.6,30.1,29.9v1.3c0,0.4,0.3,0.8,0.8,0.8c0.4,0,0.8-0.3,0.8-0.8v-1.3C62,75.7,75.1,62.5,75.6,46.2h1.3
			c0.4,0,0.8-0.3,0.8-0.8C77.6,45.1,77.3,44.7,76.9,44.7z M74.1,44.7h-3.2c-0.2-6.9-3-13.2-7.5-17.8c-0.6-0.6-1.3-1.2-2-1.8l1.2-3
			c1,0.8,2,1.6,2.9,2.6C70.7,29.9,73.9,36.9,74.1,44.7z M61.4,21.3c0,0.1-0.1,0.1-0.1,0.2l0,0l-1.1,2.8c-4.1-2.9-9-4.7-14.4-4.9
			v-3.2C51.5,16.3,56.9,18.2,61.4,21.3z M24.2,66.1C19.1,61,15.8,54,15.6,46.2h4.2c0.4,0,0.8-0.3,0.8-0.8c0-0.4-0.3-0.8-0.8-0.8
			h-4.2c0.2-7.8,3.4-14.9,8.6-20c5.2-5.2,12.2-8.4,20.1-8.6v4c0,0.4,0.3,0.8,0.8,0.8c0,0,0,0,0,0c5.5,0,10.5,1.8,14.5,4.8l-2.9,7
			c-0.2,0.4,0,0.8,0.4,1c0.4,0.2,0.8,0,1-0.4h0l2.7-6.6c5.3,4.5,8.6,11.2,8.6,18.7c0,13.6-10.8,24.5-24.4,24.5
			c-0.4,0-0.8,0.3-0.8,0.8v4C36.4,74.5,29.3,71.2,24.2,66.1z M65.5,66.1c-5.1,5.1-12.1,8.3-19.8,8.5v-3.3c6.9-0.2,13.1-3.1,17.6-7.6
			c4.5-4.5,7.3-10.7,7.5-17.5h3.2C73.9,54,70.6,61,65.5,66.1z"/>
	</g>
</g>
</svg>
