<svg version="1.1" id="Warstwa_1" xmlns="http://www.w3.org/2000/svg" xmlns:xlink="http://www.w3.org/1999/xlink" x="0px" y="0px" viewBox="0 0 800 118.035" style="enable-background:new 0 0 800 118.035;" xml:space="preserve">
<style type="text/css">
	.st0{fill:#fff;}
</style>
<g>
	<g>
		<path class="st0" d="M79.331,57.579c-6.036-4.091-16.879-7.381-33.105-10.056l-2.777-0.392    c-11.777-1.639-26.433-3.675-26.433-15.965c0-9.966,8.649-14.81,26.444-14.81h21.462c4.488,0,8.278-3.745,8.278-8.177    C73.2,3.745,69.41,0,64.922,0H43.46C14.623,0,0,10.486,0,31.165c0,9.142,1.91,14.878,6.388,19.181    c4.89,4.702,7.121,6.846,15.636,9.079c9.16,2.4,10.117,2.65,20.745,4.454c10.829,1.904,18.334,3.876,22.306,5.858    c3.967,1.978,5.978,5.585,5.978,10.719c0,14.08-9.206,21.22-27.364,21.22H17.399c-4.77,0-8.508,3.689-8.508,8.399    c0,4.685,3.499,7.958,8.508,7.958H43.69c30.434,0,44.609-11.94,44.609-37.577C88.298,69.31,85.282,61.612,79.331,57.579z     M533.275,0h-8.51c-33.659,0-52.195,15.542-52.195,43.763v66.312c0,4.685,3.403,7.958,8.276,7.958    c4.984,0,8.739-3.421,8.739-7.958V43.763c0-17.674,12.496-27.408,35.18-27.408h8.51c4.656,0,8.738-3.821,8.738-8.177    C542.013,3.823,537.931,0,533.275,0z M568.932,37.056c-4.849,0-8.507,3.516-8.507,8.178v64.62c0,4.685,3.499,7.958,8.507,7.958    c4.737,0,8.738-3.643,8.738-7.958v-64.62C577.67,40.879,573.588,37.056,568.932,37.056z M209.018,0    c-2.209,0-4.346,0.884-6.016,2.488L159.2,45.808c-0.5,0.494-1.187,0.774-1.904,0.774c-0.718,0-1.405-0.279-1.905-0.774    L111.586,2.488C109.917,0.884,107.781,0,105.571,0c-2.212,0-4.347,0.884-6.017,2.489c-3.292,3.165-3.368,8.643-0.164,11.723    l45.696,43.925c2.312,2.224,3.585,5.177,3.585,8.319v43.398c0,4.685,3.499,7.958,8.509,7.958c4.737,0,8.74-3.643,8.74-7.958    V66.456c0-3.143,1.272-6.097,3.583-8.319l45.696-43.925c3.204-3.08,3.128-8.558-0.163-11.723C213.365,0.884,211.229,0,209.018,0z     M683.695,57.579c-6.041-4.091-16.881-7.381-33.104-10.056l-2.781-0.392c-11.776-1.639-26.433-3.675-26.433-15.965    c0-9.966,8.65-14.81,26.445-14.81h21.462c4.488,0,8.277-3.745,8.277-8.177c0-4.433-3.79-8.178-8.277-8.178h-21.462    c-28.84,0-43.46,10.486-43.46,31.165c0,9.14,1.909,14.876,6.387,19.178c4.89,4.703,7.123,6.849,15.615,9.075    c9.172,2.406,10.129,2.657,20.769,4.46c10.831,1.906,18.334,3.876,22.301,5.855c3.971,1.981,5.982,5.587,5.982,10.722    c0,14.08-9.206,21.22-27.362,21.22h-26.293c-4.771,0-8.507,3.689-8.507,8.399c0,4.685,3.499,7.958,8.507,7.958h26.293    c30.434,0,44.607-11.94,44.607-37.577C692.661,69.312,689.646,61.614,683.695,57.579z M282.944,0    c-28.022,0-50.819,21.913-50.819,48.849v60.902c0,4.569,3.87,8.285,8.626,8.285c4.753,0,8.618-3.715,8.618-8.285V48.849    c0-17.795,15.061-32.273,33.574-32.273c18.513,0,33.574,14.478,33.574,32.273v60.902c0,4.569,3.866,8.285,8.618,8.285h0.01    c4.751,0,8.616-3.715,8.616-8.285V48.849C333.762,21.913,310.965,0,282.944,0z M398.341,49.529c-4.753,0-8.618,3.719-8.618,8.292    c0,4.567,3.865,8.283,8.618,8.283h16.294c4.754,0,8.622-3.721,8.622-8.293c0-4.568-3.867-8.283-8.622-8.283H398.341z     M445.532,8.284c0-4.569-3.865-8.284-8.618-8.284H410.68c-28.022,0-50.818,21.913-50.818,48.849v20.333    c0,26.937,22.797,48.85,50.818,48.85h26.234c4.753,0,8.618-3.715,8.618-8.292c0-4.569-3.865-8.284-8.618-8.284H410.68    c-18.513,0-33.574-14.478-33.574-32.274V48.849c0-17.795,15.061-32.273,33.574-32.273h26.234    C441.667,16.576,445.532,12.861,445.532,8.284z M752.809,49.529c-4.753,0-8.618,3.719-8.618,8.292    c0,4.567,3.865,8.283,8.618,8.283h16.295c4.755,0,8.621-3.721,8.621-8.293c0-4.568-3.867-8.283-8.621-8.283H752.809z     M791.382,101.457h-26.235c-18.514,0-33.575-14.478-33.575-32.274V48.849c0-17.795,15.061-32.273,33.575-32.273h26.235    c4.753,0,8.618-3.715,8.618-8.292C800,3.715,796.135,0,791.382,0h-26.235c-28.022,0-50.819,21.913-50.819,48.849v20.333    c0,26.937,22.797,48.85,50.819,48.85h26.235c4.753,0,8.618-3.715,8.618-8.292C800,105.172,796.135,101.457,791.382,101.457z"/>
	</g>
</g>
</svg>