<?xml version="1.0" encoding="utf-8"?>
<svg version="1.2" baseProfile="tiny"
	 xmlns="http://www.w3.org/2000/svg" xmlns:xlink="http://www.w3.org/1999/xlink" x="0px" y="0px" viewBox="0 0 334.2 48.1"
	 overflow="visible" xml:space="preserve">
<g>
	<path d="M23.3,39.4c1.1,0,2.1-0.3,3-0.8c2.2-1.2,3.1-4.1,1.9-6.3C27.3,30.6,25,30,24,29.7c-2.1-0.5-4.3-1-6.4-1.4
		c-2.5-0.5-5-1-7.4-1.6c-1.6-0.4-3.2-1.1-4.5-2.1c-3.5-2.4-5.3-5.7-5.6-9.9C0,13.2,0,11.6,0.4,10.1C1,6.7,2.9,4.2,5.8,2.4
		c1.7-1,3.6-1.7,5.6-2.1C12.7,0.1,14,0,15.3,0c3.9,0,7.8,0,11.6,0c0.6,0,1.2,0,1.7,0.1c1.8,0.5,3.1,2.5,2.9,4.5
		c-0.2,2.1-1.7,3.7-3.7,3.8c-0.9,0.1-8.4,0-11.2,0c-1.3,0-2.2,0.1-3.5,0.2c-1,0.1-2.3,0.5-3.2,1c-1.1,0.7-1.8,1.6-2,2.8
		c-0.2,1-0.1,2,0.3,3c0.3,0.8,0.9,1.4,1.7,1.9c1.1,0.5,1.7,0.8,2.9,1.2c2.2,0.6,4.5,1,6.7,1.5s4.4,0.9,6.6,1.5
		c2.5,0.7,4.7,1.9,6.5,3.7c2.5,2.4,3.8,5.4,3.9,8.8c0.1,1.3,0,2.6-0.3,3.9c-0.7,3.3-2.5,5.9-5.3,7.7c-2,1.3-4.2,1.9-6.6,2.3
		c-1.3,0.2-2.7,0.3-4,0.3c-4.5,0-14.1,0-14.4,0c-3.1,0.1-5.3-3.4-3.6-6.4c0.7-1.2,1.7-1.9,3.1-2C6,39.6,20.4,39.5,23.3,39.4z"/>
	<path d="M277.3,39.4c1.1,0,2.1-0.3,3-0.8c2.2-1.2,3.1-4.1,1.9-6.3c-0.9-1.7-3.2-2.3-4.2-2.6c-2.1-0.5-4.3-1-6.4-1.4
		c-2.5-0.5-5-1-7.4-1.6c-1.6-0.4-3.2-1.1-4.5-2.1c-3.5-2.4-5.3-5.7-5.6-9.9c-0.1-1.5-0.1-3.1,0.3-4.6c0.7-3.4,2.6-5.9,5.5-7.7
		c1.7-1,3.6-1.7,5.6-2.1c1.3-0.2,2.6-0.4,3.9-0.4c3.9,0,7.8,0,11.6,0c0.6,0,1.2,0,1.7,0.1c1.8,0.5,3.1,2.5,2.9,4.5
		c-0.2,2.1-1.7,3.7-3.7,3.8c-0.9,0.1-8.4,0-11.2,0c-1.3,0-2.2,0.1-3.5,0.2c-1,0.1-2.3,0.5-3.2,1c-1.1,0.7-1.8,1.6-2,2.8
		c-0.2,1-0.1,2,0.3,3c0.3,0.8,0.9,1.4,1.7,1.9c1.1,0.5,1.7,0.8,2.9,1.2c2.2,0.6,4.5,1,6.7,1.5s4.4,0.9,6.6,1.5
		c2.5,0.7,4.7,1.9,6.5,3.7c2.5,2.4,3.8,5.4,3.9,8.8c0.1,1.3,0,2.6-0.3,3.9c-0.7,3.3-2.5,5.9-5.3,7.7c-2,1.3-4.2,1.9-6.6,2.3
		c-1.3,0.2-2.7,0.3-4,0.3c-4.5,0-14.1,0-14.4,0c-3.1,0.1-5.3-3.4-3.6-6.4c0.7-1.2,1.7-1.9,3.1-2C259.9,39.6,274.3,39.5,277.3,39.4z"
		/>
	<path d="M140.2,43c0,0.5,0,1.1-0.1,1.6c-0.3,2-1.9,3.4-3.9,3.5s-3.8-1.2-4.2-3.2c-0.1-0.6-0.2-1.2-0.2-1.9c0-7.4,0-14.8,0-22.3
		c0-1,0-2-0.2-3c-1.2-5.1-4.4-8.2-9.5-9.3c-4.3-1-8.2,0.2-11.4,3.2c-2.4,2.2-3.6,5.1-3.6,8.3c0,1.9,0,17.1,0,22.8c0,0.4,0,0.9,0,1.3
		c0,2.2-2,3.9-4.1,3.9c-2.3,0-4.1-1.6-4.2-3.9c0-0.4,0-0.8,0-1.1c0-7.5,0.1-14.9,0-22.4c-0.2-10.7,7.9-19,17.5-20.3
		c7.7-1.1,14.3,1.3,19.4,7.2c3.2,3.6,4.6,8,4.6,12.8C140.2,23.9,140.2,39,140.2,43z"/>
	<path d="M182.7,0c0.7,0,1.3,0.1,2,0.4c1.6,0.8,2.6,2.5,2.4,4.2c-0.3,1.9-1.8,3.3-3.7,3.5c-0.4,0-7.6,0-10.8,0
		c-3.3,0-6.2,1.1-8.6,3.4c-2.4,2.3-3.7,5.1-3.8,8.4c-0.1,2.8-0.1,5.5,0,8.3c0.2,6.7,5.4,10.8,10.3,11.5c0.9,0.1,1.9,0.2,2.9,0.2
		c2.9,0,9.5,0,9.9,0c2.2,0,3.8,1.9,3.8,4c0,2-1.6,3.9-3.7,4.1c-0.3,0-7.8,0.1-11.2,0c-6.6-0.2-12-2.8-16.2-8
		c-2.8-3.5-4.1-7.5-4.2-12c0-2.5,0-5.1,0-7.6c-0.1-8.9,5.5-16.2,13.4-19.2c2.2-0.8,4.5-1.3,6.9-1.3C173.7,0,180.8,0,182.7,0z"/>
	<path d="M329.8,0c0.8,0,1.5,0.1,2.2,0.5c1.6,0.9,2.5,2.6,2.1,4.5c-0.3,1.6-1.8,2.9-3.5,3.1c-0.5,0-1,0-1.4,0c-3.1,0-6.2,0-9.3,0
		c-3,0-5.8,0.9-8.1,2.9c-2.8,2.3-4.3,5.3-4.3,9c0,2.7,0,5.4,0,8c0,5.5,4.1,10.6,10.2,11.6c0.9,0.2,1.9,0.2,2.9,0.2
		c2.9,0,9.6,0,10.1,0c2.1,0.2,3.7,1.9,3.7,4s-1.7,3.8-3.7,4.1c-0.2,0-0.4,0-0.6,0c-3.6,0-7.3,0.1-10.9,0
		c-7.6-0.3-13.4-3.7-17.4-10.2c-1.8-2.9-2.6-6.1-2.6-9.6c0-2.7,0-5.4,0-8c0.1-7.5,3.5-13.2,9.8-17.1c3.2-2,6.7-3,10.5-3
		C320.9,0,327.9,0,329.8,0z"/>
	<path d="M67,18.1c0,0,17.3-16.8,17.7-17.1c1.4-1.1,3.2-1.3,4.7-0.4c1.6,0.9,2.2,2.3,2,4.1c-0.1,0.8-0.4,1.5-0.9,2.1
		C90.2,7.1,72.6,24,72.4,24.3c-0.7,0.7-1.1,1.6-1.1,2.6c0,0.4,0,16.8,0,17.2c-0.2,1.7-1,2.9-2.6,3.5c-1.6,0.7-3.2,0.4-4.6-0.7
		c-0.6-0.5-1-1.2-1.1-2c-0.1-0.6-0.1-1.2-0.1-1.9c0-4.8,0-15.2,0-15.5c0.1-1.6-0.5-2.7-1.6-3.8C55.7,18.6,44.1,7.3,43.7,6.9
		c-1.4-1.5-1.5-3.8-0.2-5.4s3.7-2,5.4-0.9C50,1.3,67,18.1,67,18.1z"/>
	<path d="M199.1,18c0-1.8,0.2-3.6,0.6-5.4c1.2-4.5,3.8-7.8,7.9-9.9c2.4-1.3,5.1-2,7.8-2.4c2.8-0.4,5.6-0.3,8.5-0.3
		c1.3,0,2.4,0.6,3.2,1.6c1.2,1.4,1.2,3.3,0.1,4.8c-0.9,1.1-2.1,1.7-3.5,1.7c-1.5,0-3.1,0-4.6,0c-1.7,0-3.4,0.3-5.1,0.9
		c-0.9,0.3-1.7,0.7-2.5,1.1c-2.4,1.4-3.7,3.6-4,6.3c-0.1,0.9-0.1,1.8-0.1,2.7c0,7.9,0,15.9,0,23.8c0,0.6,0,1.2-0.1,1.9
		c-0.2,1.2-0.8,2-1.8,2.6c-1.2,0.7-2.5,0.8-3.9,0.4c-1.5-0.5-2.3-1.6-2.5-3.2c0-0.5,0-1,0-1.4C199.1,38.7,199.1,22,199.1,18z"/>
	<path d="M232.4,19.4c0-0.6,0-1.3,0.2-1.8c0.5-1.9,2.2-3,4.2-2.9s3.6,1.5,3.9,3.4c0.1,0.5,0.1,1,0.1,1.4c0,7.9,0,15.9,0,23.8
		c0,0.2,0,0.5,0,0.7c-0.1,1.7-0.9,2.9-2.4,3.6c-1.6,0.7-3.1,0.5-4.5-0.5c-0.9-0.7-1.3-1.6-1.4-2.7c0-0.4,0-0.9,0-1.3
		C232.4,39.2,232.4,23.4,232.4,19.4z"/>
	<path d="M330.4,19.6c1.6,0.1,2.8,1,3.4,2.5c1.1,2.5-0.6,5.3-3.4,5.6c-0.2,0-0.4,0-0.6,0c-2.1,0-4.1,0-6.2,0c-0.8,0-1.5-0.2-2.2-0.6
		c-1.6-0.9-2.3-2.5-2-4.2c0.3-1.8,1.7-3.1,3.5-3.3c0.4,0,0.8,0,1.1-0.1C325,19.5,329.2,19.5,330.4,19.6z"/>
	<path d="M182.7,19.5c0.6,0,1.2,0.1,1.7,0.3c1.8,0.7,2.8,2.4,2.6,4.3c-0.2,1.8-1.7,3.3-3.6,3.5c-0.2,0-4.7,0-6.7,0
		c-0.5,0-1.1-0.1-1.5-0.3c-1.9-0.6-3-2.4-2.8-4.3c0.2-1.8,1.8-3.3,3.7-3.5C177.2,19.5,181.7,19.5,182.7,19.5z"/>
</g>
</svg>
