<svg id="icons" xmlns="http://www.w3.org/2000/svg" viewBox="0 0 24 24"><defs><style>.cls-1{fill:none;}</style></defs><title>01-27-arrange-hor-m</title><rect id="canvas" class="cls-1" width="24" height="24"/><path d="M18.51807,15.26172l-4.376-4.46289a.7503.7503,0,0,0-1.07129,1.05078l3.12586,3.1875H6.01758a.75.75,0,1,0,0,1.5H16.19666l-3.12586,3.1875a.7503.7503,0,0,0,1.07129,1.05078l4.376-4.46289A.75136.75136,0,0,0,18.51807,15.26172Z"/><path d="M17.98242,7.46289H7.80334l3.12586-3.1875A.7503.7503,0,0,0,9.85791,3.22461L5.48193,7.6875a.75136.75136,0,0,0,0,1.05078l4.376,4.46289a.7503.7503,0,0,0,1.07129-1.05078L7.80334,8.96289H17.98242a.75.75,0,0,0,0-1.5Z"/></svg>