<svg id="icons" xmlns="http://www.w3.org/2000/svg" viewBox="0 0 24 24"><defs><style>.cls-1{fill:none;}</style></defs><title>03-02-arrow-back-m</title><rect id="canvas" class="cls-1" x="0.08941" width="24" height="24"/><path d="M16.51562,11.25l-9.8554-.00586,4.01654-3.96A.74994.74994,0,0,0,9.624,6.21582l-5.32519,5.25a.74981.74981,0,0,0,0,1.06836l5.32519,5.25a.74994.74994,0,0,0,1.05274-1.06836L6.64832,12.74414,16.5127,12.75a1.84861,1.84861,0,0,1,1.875,1.769V15a.75.75,0,0,0,1.5,0v-.481A3.36741,3.36741,0,0,0,16.51562,11.25Z"/></svg>