<svg id="icons" xmlns="http://www.w3.org/2000/svg" viewBox="0 0 24 24"><defs><style>.cls-1{fill:none;}</style></defs><title>01-20-delete-m</title><rect id="canvas" class="cls-1" width="24" height="24"/><path d="M18.38428,19H7.70361A2.717,2.717,0,0,1,5.23,17.38086l-1.89746-4.2627a2.753,2.753,0,0,1,0-2.23632L5.23,6.61914A2.717,2.717,0,0,1,7.70361,5H18.38428a2.735,2.735,0,0,1,2.71386,2.75v8.5A2.735,2.735,0,0,1,18.38428,19ZM7.70361,6.5a1.21593,1.21593,0,0,0-1.10351.72852L4.70264,11.49121a1.256,1.256,0,0,0,0,1.01758L6.6001,16.77148A1.21593,1.21593,0,0,0,7.70361,17.5H18.38428a1.23353,1.23353,0,0,0,1.21386-1.25V7.75A1.23353,1.23353,0,0,0,18.38428,6.5Z"/><path d="M14.06055,12l1.96972-1.96973a.74992.74992,0,0,0-1.06054-1.06054L13,10.93945,11.03027,8.96973a.74992.74992,0,0,0-1.06054,1.06054L11.93945,12,9.96973,13.96973a.74992.74992,0,1,0,1.06054,1.06054L13,13.06055l1.96973,1.96972a.74992.74992,0,0,0,1.06054-1.06054Z"/></svg>