<svg id="icons" xmlns="http://www.w3.org/2000/svg" viewBox="0 0 24 24"><defs><style>.cls-1{fill:none;}</style></defs><title>01-12-notifications-play-m</title><rect id="canvas" class="cls-1" width="24" height="24"/><path d="M17.25,11.55a.76.76,0,0,0-.75.75v3.92h-9V10.36A4.53,4.53,0,0,1,12,5.5.75.75,0,0,0,12,4a6.06,6.06,0,0,0-6,6.36V17a.76.76,0,0,0,.75.75h2s0,0,0,.05a3.24,3.24,0,0,0,6.48,0s0,0,0-.05h2A.76.76,0,0,0,18,17V12.3A.76.76,0,0,0,17.25,11.55Zm-3.51,6.22a1.74,1.74,0,0,1-3.48,0s0,0,0-.05h3.5S13.74,17.75,13.74,17.77Z"/><path d="M15.29,10.5a1.19,1.19,0,0,1-.58-.15,1.18,1.18,0,0,1-.6-1V5.17a1.18,1.18,0,0,1,.6-1,1.2,1.2,0,0,1,1.2,0l3.41,2.08h0a1.17,1.17,0,0,1,0,2l-3.42,2.08A1.26,1.26,0,0,1,15.29,10.5Zm.32-4.75v3l2.47-1.5Z"/></svg>