<svg id="icons" xmlns="http://www.w3.org/2000/svg" viewBox="0 0 24 24"><defs><style>.cls-1{fill:none;}</style></defs><title>04-03-replace-query-m</title><rect id="canvas" class="cls-1" width="24" height="24"/><path d="M19.5459,18.48535,15.82935,14.7688a6.49953,6.49953,0,1,0-11.595-4.03442.75.75,0,0,0,1.5,0A5,5,0,1,1,13.05176,15.166a.74979.74979,0,1,0,.69629,1.32812,6.52294,6.52294,0,0,0,1.01245-.6731l3.72485,3.72486a.74992.74992,0,0,0,1.06055-1.06055Z"/><path d="M8.1001,19.2998H5.7251a3,3,0,0,1,0-6h2.375a3,3,0,0,1,0,6Zm-2.375-4.5a1.5,1.5,0,0,0,0,3h2.375a1.5,1.5,0,0,0,0-3Z"/></svg>