<svg id="icons" xmlns="http://www.w3.org/2000/svg" viewBox="0 0 24 24"><defs><style>.cls-1{fill:none;}</style></defs><title>01-08-file-check-m</title><rect id="canvas" class="cls-1" width="24" height="24"/><g id="vertical_rectangle"><path d="M11.25,20H8.75A2.7528,2.7528,0,0,1,6,17.25V6.75A2.7528,2.7528,0,0,1,8.75,4h2.96436a3.22758,3.22758,0,0,1,2.29834.95215L17.04785,7.9873A3.22758,3.22758,0,0,1,18,10.28564V11.25a.75.75,0,0,1-1.5,0v-.96436a1.73967,1.73967,0,0,0-.5127-1.23779L12.95215,6.0127A1.73967,1.73967,0,0,0,11.71436,5.5H8.75A1.25116,1.25116,0,0,0,7.5,6.75v10.5A1.25116,1.25116,0,0,0,8.75,18.5h2.5a.75.75,0,0,1,0,1.5Z"/></g><path d="M16.50732,19.19043a.74837.74837,0,0,1-.51757-.207l-1.74756-1.66651A.75013.75013,0,1,1,15.27734,16.231L16.49658,17.394,19.231,14.67725a.75027.75027,0,1,1,1.05761,1.06445l-3.25244,3.231A.74916.74916,0,0,1,16.50732,19.19043Z"/></svg>