<svg id="icons" xmlns="http://www.w3.org/2000/svg" viewBox="0 0 24 24"><defs><style>.cls-1{fill:none;}</style></defs><title>01-06-file-block-m</title><rect id="canvas" class="cls-1" width="24" height="24"/><path d="M11.25,20H8.75A2.7528,2.7528,0,0,1,6,17.25V6.75A2.7528,2.7528,0,0,1,8.75,4h2.96436a3.22758,3.22758,0,0,1,2.29834.95215L17.04785,7.9873A3.22758,3.22758,0,0,1,18,10.28564V11.25a.75.75,0,0,1-1.5,0v-.96436a1.73967,1.73967,0,0,0-.5127-1.23779L12.95215,6.0127A1.73967,1.73967,0,0,0,11.71436,5.5H8.75A1.25116,1.25116,0,0,0,7.5,6.75v10.5A1.25116,1.25116,0,0,0,8.75,18.5h2.5a.75.75,0,0,1,0,1.5Z"/><path d="M17.25,13.28223a3.75,3.75,0,1,0,3.75,3.75A3.7541,3.7541,0,0,0,17.25,13.28223Zm-2.25,3.75a2.25246,2.25246,0,0,1,2.25-2.25,2.223,2.223,0,0,1,.97821.23315L15.233,18.01019A2.22349,2.22349,0,0,1,15,17.03223Zm2.25,2.25a2.2258,2.2258,0,0,1-.95007-.21784l2.98236-2.982a2.22587,2.22587,0,0,1,.21771.94983A2.25246,2.25246,0,0,1,17.25,19.28223Z"/></svg>