<svg id="icons" xmlns="http://www.w3.org/2000/svg" viewBox="0 0 24 24"><defs><style>.cls-1{fill:none;}</style></defs><title>01-02- file-download-m</title><rect id="canvas" class="cls-1" width="24" height="24"/><path d="M8.75,5.5h2.96436a1.73967,1.73967,0,0,1,1.23779.5127L15.9873,9.04785A1.73967,1.73967,0,0,1,16.5,10.28564V11.25a.75.75,0,0,0,1.5,0v-.96436a3.22758,3.22758,0,0,0-.95215-2.29834L14.0127,4.95215A3.22758,3.22758,0,0,0,11.71436,4H8.75A2.7528,2.7528,0,0,0,6,6.75v10.5A2.7528,2.7528,0,0,0,8.75,20h2.5a.75.75,0,0,0,0-1.5H8.75A1.25116,1.25116,0,0,1,7.5,17.25V6.75A1.25116,1.25116,0,0,1,8.75,5.5Z"/><path d="M20.78027,14.96973a.74972.74972,0,0,0-1.06054,0L17.25,17.43945l-2.46973-2.46972a.74992.74992,0,1,0-1.06054,1.06054l3,3a.74971.74971,0,0,0,1.06054,0l3-3A.74972.74972,0,0,0,20.78027,14.96973Z"/></svg>