<svg xmlns="http://www.w3.org/2000/svg" viewBox="0 0 24 24">
  <title>Asset 2</title>
  <g id="Layer_2" data-name="Layer 2">
    <g id="Layer_1-2" data-name="Layer 1">
      <g id="transparent_canvas" data-name="transparent canvas">
        <rect id="canvas" width="24" height="24" style="fill: none"/>
      </g>
      <g id="icons">
        <path d="M15.68945,19.5a3.77923,3.77923,0,1,1,3.74317-3.7793A3.76527,3.76527,0,0,1,15.68945,19.5Zm0-6.05859a2.27959,2.27959,0,1,0,2.24317,2.27929A2.26372,2.26372,0,0,0,15.68945,13.44141Z"/>
        <path d="M12.6499,16.46582H5.31738a.75.75,0,0,1,0-1.5H12.6499a.75.75,0,0,1,0,1.5Z"/>
        <path d="M8.31055,12.05811A3.77923,3.77923,0,1,1,12.05371,8.2793,3.76549,3.76549,0,0,1,8.31055,12.05811ZM8.31055,6a2.27934,2.27934,0,1,0,2.24316,2.2793A2.264,2.264,0,0,0,8.31055,6Z"/>
        <path d="M18.68262,9.03418H11.3501a.75.75,0,0,1,0-1.5h7.33252a.75.75,0,1,1,0,1.5Z"/>
      </g>
    </g>
  </g>
</svg>
