<svg id="icons" xmlns="http://www.w3.org/2000/svg" viewBox="0 0 24 24"><defs><style>.cls-1{fill:none;}</style></defs><title>01-09-file-edit-m</title><rect id="canvas" class="cls-1" width="24" height="24"/><g id="vertical_rectangle"><path d="M11.25,20H8.75A2.7528,2.7528,0,0,1,6,17.25V6.75A2.7528,2.7528,0,0,1,8.75,4h2.96484a3.22766,3.22766,0,0,1,2.29786.95215L17.04785,7.9873A3.2301,3.2301,0,0,1,18,10.28564V11.25a.75.75,0,0,1-1.5,0v-.96436a1.74255,1.74255,0,0,0-.5127-1.23779L12.95215,6.0127A1.73687,1.73687,0,0,0,11.71484,5.5H8.75A1.25116,1.25116,0,0,0,7.5,6.75v10.5A1.25116,1.25116,0,0,0,8.75,18.5h2.5a.75.75,0,0,1,0,1.5Z"/></g><path d="M16.04242,19.24689,14.98487,19.25l-.00656-1.06031L19.166,13.96058l.00345-.00345a.75.75,0,0,1,1.06412,1.0572l-4.18768,4.22911Z"/></svg>