<svg id="icons" xmlns="http://www.w3.org/2000/svg" viewBox="0 0 24 24"><defs><style>.cls-1{fill:none;}</style></defs><title>01-03-file-upload-m</title><rect id="canvas" class="cls-1" width="24" height="24"/><g id="vertical_rectangle"><path d="M11.25,20H8.75A2.7528,2.7528,0,0,1,6,17.25V6.75A2.7528,2.7528,0,0,1,8.75,4h2.96436a3.22758,3.22758,0,0,1,2.29834.95215L17.04785,7.9873A3.22758,3.22758,0,0,1,18,10.28564V11.25a.75.75,0,0,1-1.5,0v-.96436a1.73967,1.73967,0,0,0-.5127-1.23779L12.95215,6.0127A1.73967,1.73967,0,0,0,11.71436,5.5H8.75A1.25116,1.25116,0,0,0,7.5,6.75v10.5A1.25116,1.25116,0,0,0,8.75,18.5h2.5a.75.75,0,0,1,0,1.5Z"/></g><path d="M20.25,19.2749a.74757.74757,0,0,1-.53027-.21972L17.25,16.58545l-2.46973,2.46973a.74992.74992,0,0,1-1.06054-1.06055l3-3a.74972.74972,0,0,1,1.06054,0l3,3A.75.75,0,0,1,20.25,19.2749Z"/></svg>