<svg id="icons" xmlns="http://www.w3.org/2000/svg" viewBox="0 0 24 24"><defs><style>.cls-1{fill:none;}</style></defs><title>01-07-file-code-m</title><rect id="canvas" class="cls-1" width="24" height="24"/><g id="vertical_rectangle"><path d="M11.25,20H8.75A2.7528,2.7528,0,0,1,6,17.25V6.75A2.7528,2.7528,0,0,1,8.75,4h2.96436a3.22758,3.22758,0,0,1,2.29834.95215L17.04785,7.9873A3.22758,3.22758,0,0,1,18,10.28564V11.25a.75.75,0,0,1-1.5,0v-.96436a1.73967,1.73967,0,0,0-.5127-1.23779L12.95215,6.0127A1.73967,1.73967,0,0,0,11.71436,5.5H8.75A1.25116,1.25116,0,0,0,7.5,6.75v10.5A1.25116,1.25116,0,0,0,8.75,18.5h2.5a.75.75,0,0,1,0,1.5Z"/></g><path d="M18.49316,20.3999a.75.75,0,0,1-.54638-1.26367l1.624-1.72705-1.624-1.727a.74993.74993,0,1,1,1.09277-1.02734l2.10693,2.24072a.74973.74973,0,0,1,0,1.02734l-2.10693,2.24072A.74645.74645,0,0,1,18.49316,20.3999Z"/><path d="M16.07227,20.38135a.74645.74645,0,0,1-.54639-.23633L13.419,17.9043a.74974.74974,0,0,1,0-1.02735l2.10693-2.24072a.74993.74993,0,0,1,1.09277,1.02734l-1.624,1.727,1.624,1.72706a.75.75,0,0,1-.54638,1.26367Z"/></svg>