<svg id="icons" xmlns="http://www.w3.org/2000/svg" viewBox="0 0 24 24"><defs><style>.cls-1{fill:none;}</style></defs><title>01-10-file-action-m</title><rect id="canvas" class="cls-1" width="24" height="24"/><path d="M11.25,20H8.75A2.7528,2.7528,0,0,1,6,17.25V6.75A2.7528,2.7528,0,0,1,8.75,4h2.96484a3.22766,3.22766,0,0,1,2.29786.95215L17.04785,7.9873A3.2301,3.2301,0,0,1,18,10.28564V11.25a.75.75,0,0,1-1.5,0v-.96436a1.74255,1.74255,0,0,0-.5127-1.23779L12.95215,6.0127A1.73687,1.73687,0,0,0,11.71484,5.5H8.75A1.25116,1.25116,0,0,0,7.5,6.75v10.5A1.25116,1.25116,0,0,0,8.75,18.5h2.5a.75.75,0,0,1,0,1.5Z"/><path d="M19.58789,15.95166l-.001-.001-3.418-2.07763a1.188,1.188,0,0,0-1.19727-.02051,1.17216,1.17216,0,0,0-.59863,1.01953v4.15576a1.17157,1.17157,0,0,0,.59863,1.01953,1.18729,1.18729,0,0,0,1.19629-.02l3.41894-2.07861a1.167,1.167,0,0,0,.001-1.99707Zm-3.71484,2.49951V15.44873l2.46972,1.50147Z"/></svg>