<svg id="icons" xmlns="http://www.w3.org/2000/svg" viewBox="0 0 24 24"><defs><style>.cls-1{fill:none;}</style></defs><title>02-01-attachment-m</title><rect id="canvas" class="cls-1" width="24" height="24"/><path d="M16.79,13.15186l-4.17633,4.27392-.00141.001a3.59679,3.59679,0,0,1-5.05664,0,3.75809,3.75809,0,0,1-.00085-5.22162l.00085-.00055,5.84961-5.98584A2.35142,2.35142,0,0,1,15.09766,5.5h.001A2.35117,2.35117,0,0,1,16.79,6.21875a2.52749,2.52749,0,0,1,0,3.51221l-5.292,5.41552a1.21656,1.21656,0,0,1-1.71387,0,1.29677,1.29677,0,0,1,0-1.80175l3.62109-3.70508A.75.75,0,1,0,12.333,8.59082L8.71191,12.2959a2.80581,2.80581,0,0,0,0,3.89941,2.68871,2.68871,0,0,0,3.8584,0l5.292-5.41552a4.03592,4.03592,0,0,0,0-5.60938A3.8366,3.8366,0,0,0,15.09863,4h-.001A3.84193,3.84193,0,0,0,12.333,5.16992L6.4834,11.15576l-.00171.00263A5.26535,5.26535,0,0,0,6.4834,18.4751a5.01329,5.01329,0,0,0,7.20117,0l4.17773-4.27539A.74962.74962,0,1,0,16.79,13.15186Z"/></svg>