<svg id="icons" xmlns="http://www.w3.org/2000/svg" viewBox="0 0 24 24"><defs><style>.cls-1{fill:none;}</style></defs><title>03-01-camera-m</title><rect id="canvas" class="cls-1" width="24" height="24"/><path d="M17.3252,6.52148H15.39258l-.51953-1.062a1.76271,1.76271,0,0,0-1.57227-.98095H10.54883a1.7627,1.7627,0,0,0-1.57227.981L8.457,6.52148H6.6748a2.75311,2.75311,0,0,0-2.75,2.75v7.5a2.75311,2.75311,0,0,0,2.75,2.75H17.3252a2.75311,2.75311,0,0,0,2.75-2.75v-7.5A2.75311,2.75311,0,0,0,17.3252,6.52148Zm1.25,10.25a1.25116,1.25116,0,0,1-1.25,1.25H6.6748a1.25116,1.25116,0,0,1-1.25-1.25v-7.5a1.25116,1.25116,0,0,1,1.25-1.25h2.25a.75053.75053,0,0,0,.67383-.42041l.72559-1.48242a.24761.24761,0,0,1,.22461-.14013h2.75195a.24761.24761,0,0,1,.22461.14013L14.251,7.60107a.75053.75053,0,0,0,.67382.42041h2.4004a1.25116,1.25116,0,0,1,1.25,1.25Z"/><path d="M12,8.5A3.5,3.5,0,1,0,15.5,12,3.50424,3.50424,0,0,0,12,8.5ZM12,14a2,2,0,1,1,2-2A2.00229,2.00229,0,0,1,12,14Z"/></svg>