<svg id="icons" xmlns="http://www.w3.org/2000/svg" viewBox="0 0 24 24"><defs><style>.cls-1{fill:none;}</style></defs><title>04-01-folder-m</title><rect id="canvas" class="cls-1" width="24" height="24"/><path d="M17.25,8.0752H13.65527a1.24682,1.24682,0,0,1-.97265-.46485L11.7832,6.49707a2.73662,2.73662,0,0,0-2.13867-1.022H6.75A2.7528,2.7528,0,0,0,4,8.2251v7.5498a2.7528,2.7528,0,0,0,2.75,2.75h10.5a2.7528,2.7528,0,0,0,2.75-2.75V10.8252A2.75311,2.75311,0,0,0,17.25,8.0752Zm1.25,7.6997a1.25116,1.25116,0,0,1-1.25,1.25H6.75a1.25116,1.25116,0,0,1-1.25-1.25V8.2251a1.25116,1.25116,0,0,1,1.25-1.25H9.64453a1.24643,1.24643,0,0,1,.97266.46435l.89941,1.11328A2.73556,2.73556,0,0,0,13.65527,9.5752H17.25a1.25116,1.25116,0,0,1,1.25,1.25Z"/></svg>