<svg id="icons" xmlns="http://www.w3.org/2000/svg" viewBox="0 0 24 24"><defs><style>.cls-1{fill:none;}</style></defs><title>05-01-image-m</title><rect id="canvas" class="cls-1" width="24" height="24"/><path d="M17.25,5H6.75A2.7528,2.7528,0,0,0,4,7.75v8.5A2.7528,2.7528,0,0,0,6.75,19h10.5A2.7528,2.7528,0,0,0,20,16.25V7.75A2.7528,2.7528,0,0,0,17.25,5ZM6.75,17.5A1.25116,1.25116,0,0,1,5.5,16.25v-.38812L9.02051,13.167,14.02008,17.5ZM18.5,16.25a1.25116,1.25116,0,0,1-1.25,1.25h-.9458c-.00549-.00507-.00751-.01215-.01318-.01709L9.541,11.6333a.75041.75041,0,0,0-.94727-.02881L5.5,13.97235V7.75A1.25116,1.25116,0,0,1,6.75,6.5h10.5A1.25116,1.25116,0,0,1,18.5,7.75Z"/><polygon points="15.5 10 16.25 10 15.5 9.999 15.5 10"/><path d="M15.5,8.5A1.5,1.5,0,1,0,17,10,1.50164,1.50164,0,0,0,15.5,8.5Zm0,1.50049V9.999l.75.001Z"/></svg>