<svg id="icons" xmlns="http://www.w3.org/2000/svg" viewBox="0 0 24 24"><defs><style>.cls-1{fill:none;}</style></defs><title>06-01-package-m</title><rect id="canvas" class="cls-1" width="24" height="24"/><path d="M7.96582,10.37354V14.02a.75.75,0,1,0,1.5,0V10.37354a.75.75,0,1,0-1.5,0Z"/><path d="M5.52051,10.37354V14.02a.75.75,0,0,0,1.5,0V10.37354a.75.75,0,0,0-1.5,0Z"/><path d="M3.8252,14.77a.7502.7502,0,0,0,.75-.75V10.37354a.75.75,0,1,0-1.5,0V14.02A.75019.75019,0,0,0,3.8252,14.77Z"/><path d="M16.71484,13.69678a1.5,1.5,0,1,1,1.5-1.5A1.50164,1.50164,0,0,1,16.71484,13.69678Z"/><path d="M19.56348,9.248a3.74417,3.74417,0,0,0-3.09961-.79248l-4.68555.90088a1.56128,1.56128,0,0,0-1.26562,1.53173v2.627a1.56029,1.56029,0,0,0,1.26855,1.53271l4.69043.8916a3.78422,3.78422,0,0,0,.7041.06641,3.75373,3.75373,0,0,0,3.749-3.75244v-.11133A3.74089,3.74089,0,0,0,19.56348,9.248Zm-.13868,3.00537a2.25333,2.25333,0,0,1-2.67382,2.2124l-4.68946-.95068v-2.686l4.68555-.90088A2.2528,2.2528,0,0,1,19.4248,12.1416Z"/><circle cx="16.71484" cy="12.19678" r="1.5"/><path d="M3.875,7.5498a.75019.75019,0,0,0,.75-.75,1.25116,1.25116,0,0,1,1.25-1.25H17.0752a1.25116,1.25116,0,0,1,1.25,1.25.75.75,0,1,0,1.5,0,2.7528,2.7528,0,0,0-2.75-2.75H5.875a2.7528,2.7528,0,0,0-2.75,2.75A.75019.75019,0,0,0,3.875,7.5498Z"/><path d="M19.0752,16.4502a.75018.75018,0,0,0-.75.75,1.25116,1.25116,0,0,1-1.25,1.25H5.875a1.25116,1.25116,0,0,1-1.25-1.25.75.75,0,0,0-1.5,0,2.7528,2.7528,0,0,0,2.75,2.75H17.0752a2.7528,2.7528,0,0,0,2.75-2.75A.75019.75019,0,0,0,19.0752,16.4502Z"/></svg>