<?xml version="1.0" encoding="UTF-8"?>
<svg width="96px" height="96px" viewBox="0 0 96 96" version="1.1" xmlns="http://www.w3.org/2000/svg" xmlns:xlink="http://www.w3.org/1999/xlink">
    <!-- Generator: Sketch 64 (93537) - https://sketch.com -->
    <title>Actions / 04 XL / 01-add-xl</title>
    <desc>Created with Sketch.</desc>
    <g id="Actions-/-04-XL-/-01-add-xl" stroke="none" stroke-width="1" fill="none" fill-rule="evenodd" stroke-linecap="round" stroke-linejoin="round">
        <g id="Group" transform="translate(18.000000, 18.000000)" stroke="currentColor" stroke-width="1.5">
            <path d="M55.0704038,46.4825984 C58.1865674,41.7524166 60,36.0879833 60,30 C60,13.4314575 46.5685425,0 30,0 C13.4314575,0 0,13.4314575 0,30 C0,46.5685425 13.4314575,60 30,60 C34.5135668,60 38.7943259,59.0032316 42.6341607,57.2178112" id="Path"></path>
            <line x1="19.1200753" y1="30.3713073" x2="40.586742" y2="30.3713073" id="Path"></line>
            <line x1="29.8534087" y1="19.637974" x2="29.8534087" y2="41.1046407" id="Path"></line>
            <path d="M43.3886327,50.7710334 L59.1282694,38.1181077 C59.289543,37.9884408 59.5102143,37.963387 59.6960416,38.0536459 C59.8818689,38.1439049 60,38.3335228 60,38.5415197 L60,59.2382552 C60,59.6805895 59.7226249,60.0745557 59.3085148,60.2204014 C58.8944047,60.3662471 58.4341208,60.2320771 58.1610406,59.8859196 L54.1751274,54.8333133 L50.4111702,62.4249044 C50.2888128,62.6716923 50.0742485,62.8593559 49.8146802,62.9466101 C49.555112,63.0338644 49.2718027,63.0135617 49.0270787,62.8901687 L46.3758934,61.5534037 C45.8662945,61.2964613 45.6597303,60.6715807 45.9145158,60.1576836 L49.649319,52.6248396 L44.0317016,52.6248396 C43.5932489,52.6248435 43.2026939,52.3453713 43.0579197,51.9280235 C42.9131454,51.5106758 43.0457846,51.0466414 43.3886327,50.7710334 Z" id="Path" transform="translate(51.500000, 50.500000) scale(-1, 1) translate(-51.500000, -50.500000) "></path>
        </g>
    </g>
</svg>