<?xml version="1.0" encoding="utf-8"?>
<!-- Generator: Adobe Illustrator 26.5.3, SVG Export Plug-In . SVG Version: 6.00 Build 0)  -->
<svg version="1.1" id="Warstwa_1" xmlns="http://www.w3.org/2000/svg" xmlns:xlink="http://www.w3.org/1999/xlink" x="0px" y="0px"
	 viewBox="0 0 96 96" style="enable-background:new 0 0 96 96;" xml:space="preserve">
<g fill="currentColor">
	<path class="st0" d="M54.9,20.1H22.7c-1.6,0-2.8,1.3-2.8,2.8v50c0,1.6,1.3,2.8,2.8,2.8h32.2c1.6,0,2.8-1.3,2.8-2.8v-50
		C57.7,21.3,56.5,20.1,54.9,20.1z M56.2,72.9c0,0.7-0.6,1.3-1.3,1.3H22.7c-0.7,0-1.3-0.6-1.3-1.3v-50c0-0.7,0.6-1.3,1.3-1.3h32.2
		c0.7,0,1.3,0.6,1.3,1.3V72.9z"/>
	<path class="st0" d="M73.1,51.1h-9.9c-1.6,0-2.8,1.3-2.8,2.8v19c0,1.6,1.3,2.8,2.8,2.8h9.9c1.6,0,2.8-1.3,2.8-2.8V54
		C75.9,52.4,74.6,51.1,73.1,51.1z M74.4,72.9c0,0.7-0.6,1.3-1.3,1.3h-9.9c-0.7,0-1.3-0.6-1.3-1.3V54c0-0.7,0.6-1.3,1.3-1.3h9.9
		c0.7,0,1.3,0.6,1.3,1.3V72.9z"/>
	<path class="st0" d="M67.6,48c0.3,0.3,0.7,0.3,1,0l4-3.8c0.1-0.1,0.2-0.3,0.2-0.5V23.1c0-1.7-1.4-3.1-3.1-3.1h-3.3
		c-1.7,0-3.1,1.4-3.1,3.1v20.6c0,0.2,0.1,0.4,0.2,0.5L67.6,48z M68.1,46.5l-3.2-3.1v-1.6h6.5v1.6L68.1,46.5z M66.5,21.5h3.3
		c0.9,0,1.6,0.7,1.6,1.6v17.2h-6.5V23.1C64.9,22.2,65.6,21.5,66.5,21.5z"/>
	<path class="st0" d="M48.5,53.5H29.1c-1.6,0-2.8,1.3-2.8,2.8V66c0,1.6,1.3,2.8,2.8,2.8h19.3c1.6,0,2.8-1.3,2.8-2.8v-9.7
		C51.3,54.8,50,53.5,48.5,53.5z M49.8,66c0,0.7-0.6,1.3-1.3,1.3H29.1c-0.7,0-1.3-0.6-1.3-1.3v-9.7c0-0.7,0.6-1.3,1.3-1.3h19.3
		c0.7,0,1.3,0.6,1.3,1.3V66z"/>
	<path class="st0" d="M42.1,60.4h-2.5v-2.5c0-0.4-0.3-0.8-0.8-0.8c-0.4,0-0.8,0.3-0.8,0.8v2.5h-2.5c-0.4,0-0.8,0.3-0.8,0.8
		c0,0.4,0.3,0.8,0.8,0.8h2.5v2.5c0,0.4,0.3,0.8,0.8,0.8c0.4,0,0.8-0.3,0.8-0.8v-2.5h2.5c0.4,0,0.8-0.3,0.8-0.8
		C42.8,60.7,42.5,60.4,42.1,60.4z"/>
	<path class="st0" d="M50.6,48.3H27.1c-0.4,0-0.8,0.3-0.8,0.8c0,0.4,0.3,0.8,0.8,0.8h23.5c0.4,0,0.8-0.3,0.8-0.8
		C51.3,48.7,51,48.3,50.6,48.3z"/>
	<path class="st0" d="M50.6,43.1H27.1c-0.4,0-0.8,0.3-0.8,0.8c0,0.4,0.3,0.8,0.8,0.8h23.5c0.4,0,0.8-0.3,0.8-0.8
		C51.3,43.5,51,43.1,50.6,43.1z"/>
	<path class="st0" d="M50.6,38H27.1c-0.4,0-0.8,0.3-0.8,0.8c0,0.4,0.3,0.8,0.8,0.8h23.5c0.4,0,0.8-0.3,0.8-0.8
		C51.3,38.3,51,38,50.6,38z"/>
	<path class="st0" d="M27.1,34.3h11.7c0.4,0,0.8-0.3,0.8-0.8c0-0.4-0.3-0.8-0.8-0.8H27.1c-0.4,0-0.8,0.3-0.8,0.8
		C26.3,33.9,26.7,34.3,27.1,34.3z"/>
</g>
</svg>
