<?xml version="1.0" encoding="UTF-8"?>
<svg width="96px" height="96px" viewBox="0 0 96 96" version="1.1" xmlns="http://www.w3.org/2000/svg" xmlns:xlink="http://www.w3.org/1999/xlink">
    <!-- Generator: Sketch 64 (93537) - https://sketch.com -->
    <title>Analytics / 04 XL / 05-after-event-xl</title>
    <desc>Created with Sketch.</desc>
    <g id="Analytics-/-04-XL-/-05-after-event-xl" stroke="none" stroke-width="1" fill="none" fill-rule="evenodd">
        <g id="Group" transform="translate(18.000000, 24.000000)" stroke="currentColor" stroke-width="1.5">
            <path d="M11,34.0027283 C13.7581776,33.9460793 16.4743048,34.7726236 18.8349241,36.3869728 L30.0317263,44.6130272 C32.3923456,46.2273764 35.1084728,47.0539207 37.8666504,46.9972717 L42,46.9972717" id="Path" stroke-linecap="round" stroke-linejoin="round"></path>
            <path d="M11,1.00251843 C13.7581776,0.95022709 16.4743048,1.71319101 18.8349241,3.20335955 L30.0317263,10.7966404 C32.3923456,12.286809 35.1084728,13.0497729 37.8666504,12.9974816 L42,12.9974816" id="Path" stroke-linecap="round" stroke-linejoin="round" transform="translate(26.500000, 7.000000) scale(1, -1) translate(-26.500000, -7.000000) "></path>
            <path d="M11,15.5028332 C13.7581776,15.4440055 16.4743048,16.3023399 18.8349241,17.9787795 L30.0317263,26.5212205 C32.3923456,28.1976601 35.1084728,29.0559945 37.8666504,28.9971668 L42,28.9971668" id="Path" stroke-linecap="round" stroke-linejoin="round" transform="translate(26.500000, 22.250000) scale(1, -1) translate(-26.500000, -22.250000) "></path>
            <path d="M11,19.0028332 C13.7581776,18.9440055 16.4743048,19.8023399 18.8349241,21.4787795 L30.0317263,30.0212205 C32.3923456,31.6976601 35.1084728,32.5559945 37.8666504,32.4971668 L42,32.4971668" id="Path" stroke-linecap="round" stroke-linejoin="round"></path>
            <rect id="Rectangle-Copy-3" x="0" y="12.5" width="6" height="22" rx="2"></rect>
            <rect id="Rectangle-Copy-2" x="47" y="0" width="13" height="13" rx="2"></rect>
            <rect id="Rectangle-Copy-4" x="47" y="17.5" width="13" height="13" rx="2"></rect>
            <rect id="Rectangle-Copy-5" x="47" y="35" width="13" height="13" rx="2"></rect>
        </g>
    </g>
</svg>