<?xml version="1.0" encoding="UTF-8"?>
<svg width="96px" height="96px" viewBox="0 0 96 96" version="1.1" xmlns="http://www.w3.org/2000/svg" xmlns:xlink="http://www.w3.org/1999/xlink">
    <!-- Generator: Sketch 64 (93537) - https://sketch.com -->
    <title>Analytics / 04 XL / 06-analytics-insights-xl</title>
    <desc>Created with Sketch.</desc>
    <defs>
        <path d="M8,8 L0,0" id="path-1"></path>
    </defs>
    <g id="Analytics-/-04-XL-/-06-analytics-insights-xl" stroke="none" stroke-width="1" fill="none" fill-rule="evenodd" stroke-linecap="round">
        <g id="Group-2" transform="translate(61.000000, 52.000000) rotate(-180.000000) translate(-61.000000, -52.000000) translate(48.000000, 39.000000)">
            <circle id="Oval" stroke="currentColor" stroke-width="1.5" stroke-linejoin="round" cx="15.5" cy="15.5" r="10.5"></circle>
            <path d="M20.5,11.5 L20.5,21.5 L20.5,11.5 Z" id="Rectangle" stroke="currentColor" stroke-width="1.5" stroke-linejoin="round" stroke-dasharray="0,4"></path>
            <path d="M10,11.5 L10,21.5 L10,11.5 Z" id="Rectangle-Copy" stroke="currentColor" stroke-width="1.5" stroke-linejoin="round" stroke-dasharray="0,4"></path>
            <g id="Path-2">
                <use stroke="currentColor" stroke-width="1" xlink:href="#path-1"></use>
                <use stroke="currentColor" stroke-width="1.5" xlink:href="#path-1"></use>
            </g>
        </g>
        <g id="Group" transform="translate(21.000000, 22.000000)" stroke="currentColor" stroke-width="1.5">
            <path d="M43,43.5 C43,40.6081814 43,38.4393175 43,36.9934082" id="Path"></path>
            <path d="M43,17.8713379 C43,15.1246809 43,10.5809016 43,4.24 C43,2.45059741 44.2312169,1 45.75,1 L51.25,1 C52.7687831,1 54,2.45059741 54,4.24 L54,36.1429887" id="Path"></path>
            <path d="M21.6,43.5 L21.6,14.5571429 C21.6,12.7582725 22.8312169,11.3 24.35,11.3 L29.85,11.3 C31.3687831,11.3 32.6,12.7582725 32.6,14.5571429 C32.6,16.0578185 32.6,17.1671889 32.6,17.8852539" id="Path"></path>
            <path d="M32.6,37.2739258 C32.6,38.6574978 32.6,40.7328559 32.6,43.5" id="Path"></path>
            <path d="M0,15.8785 L3.9430778,6.1385808 C4.27259725,5.3734695 5.01916476,4.8785 5.84210526,4.8785 L15,4.8785" id="Stroke-13" stroke-linejoin="round" transform="translate(7.500000, 10.378500) scale(-1, 1) translate(-7.500000, -10.378500) "></path>
            <line x1="8.968" y1="0.5" x2="3.7658765e-13" y2="0.5" id="Stroke-15" stroke-linejoin="round" transform="translate(4.484000, 0.500000) scale(-1, 1) translate(-4.484000, -0.500000) "></line>
            <path d="M0,43.5 L0,23.8823529 C0,22.0695595 1.23121694,20.6 2.75,20.6 L8.25,20.6 C9.76878306,20.6 11,22.0695595 11,23.8823529 L11,43.5" id="Path"></path>
            <line x1="0" y1="48.7" x2="54" y2="48.7" id="Path" stroke-linejoin="round"></line>
        </g>
    </g>
</svg>