<svg width="96" height="96" viewBox="0 0 96 96"  xmlns="http://www.w3.org/2000/svg">
<g fill="currentColor">
<path d="M48.0972 72.5898C43.1865 72.5899 38.2806 72.283 33.4082 71.6709C31.1666 71.3854 29.083 70.3647 27.4834 68.7686C25.8889 67.1676 24.8698 65.0834 24.5854 62.8418C23.3588 53.0701 23.3565 43.1835 24.5786 33.4112C24.8653 31.1699 25.8862 29.0867 27.4819 27.4869C29.0829 25.8928 31.1669 24.8739 33.4081 24.5894C43.1441 23.3603 52.9957 23.3556 62.7328 24.5752C64.9914 24.841 67.0975 25.8505 68.7192 27.4449C70.3368 29.0453 71.3753 31.1388 71.6708 33.3951C72.8887 43.0996 72.8958 52.9178 71.6918 62.6241C71.4434 64.9035 70.4382 67.0338 68.8368 68.6748C67.2282 70.3146 65.116 71.3675 62.8383 71.6651L62.6264 71.6924C57.8064 72.2904 52.9541 72.5901 48.0972 72.5898ZM48.1245 25.1641C43.2672 25.1637 38.4147 25.4688 33.5957 26.0776C31.6846 26.3199 29.9075 27.1885 28.5425 28.5478C27.1819 29.9115 26.3114 31.6874 26.0669 33.5981C24.8604 43.2464 24.8627 53.0076 26.0737 62.6553C26.3163 64.5663 27.1852 66.343 28.5444 67.708C29.9077 69.0691 31.6841 69.9395 33.5952 70.1826C43.1715 71.3841 52.8599 71.3913 62.438 70.2041L62.646 70.1767C64.5896 69.9235 66.3921 69.0253 67.7646 67.626C69.1332 66.2223 69.9915 64.4002 70.2021 62.4512C71.3919 52.8653 71.3855 43.1687 70.1831 33.5845C69.9303 31.6614 69.0448 29.877 67.666 28.5127C66.282 27.1522 64.4846 26.2911 62.5571 26.0649L62.5498 26.0639C57.7647 25.4644 52.947 25.1638 48.1245 25.1641Z" />
<path d="M48.1074 63.6445C45.0379 63.6447 41.9714 63.4529 38.9258 63.0703C37.4673 62.8843 36.1116 62.2201 35.0708 61.1816C34.0333 60.1403 33.3704 58.7844 33.1855 57.3262C32.4184 51.2173 32.417 45.0365 33.1811 38.9272C33.3676 37.469 34.0317 36.1136 35.0698 35.0728C36.1114 34.0358 37.4672 33.3731 38.9253 33.188C45.0113 32.42 51.1695 32.4169 57.2563 33.1787C58.7252 33.3521 60.0949 34.0087 61.1499 35.0454C62.2017 36.0868 62.8771 37.4485 63.0698 38.916C63.831 44.9834 63.8354 51.1219 63.083 57.1904C62.9207 58.6713 62.2671 60.0551 61.2265 61.1211C60.1798 62.1872 58.8061 62.8721 57.3247 63.0664L57.1904 63.083C54.1772 63.4569 51.1437 63.6445 48.1074 63.6445ZM48.1274 34.1094C45.1136 34.1093 42.1028 34.2986 39.1128 34.6763C37.9848 34.8192 36.936 35.3319 36.1303 36.1343C35.3272 36.9387 34.8135 37.9867 34.6694 39.1143C33.9209 45.0995 33.9223 51.1548 34.6738 57.1397C34.8169 58.2673 35.3296 59.3158 36.1318 60.1211C36.9365 60.9244 37.9849 61.4382 39.1128 61.5821C45.0531 62.327 51.063 62.3312 57.0044 61.5947L57.1348 61.5781C58.2812 61.4276 59.3442 60.8974 60.1543 60.0723C60.9619 59.2439 61.4686 58.1687 61.5933 57.0186C62.3315 51.0703 62.3277 45.0533 61.5821 39.106C61.4322 37.9713 60.9095 36.9186 60.0962 36.1133C59.2793 35.3102 58.2183 34.8019 57.0806 34.6685L57.0738 34.6675C54.1061 34.2957 51.1182 34.1093 48.1274 34.1094Z" />
<path d="M78.5034 41.9668H71.8403C71.6414 41.9667 71.4507 41.8877 71.31 41.7471C71.1694 41.6064 71.0904 41.4157 71.0903 41.2168C71.0904 41.0179 71.1694 40.8272 71.31 40.6865C71.4507 40.5459 71.6414 40.4669 71.8403 40.4668H78.5034C78.7023 40.4669 78.893 40.5459 79.0337 40.6865C79.1743 40.8272 79.2534 41.0179 79.2534 41.2168C79.2533 41.4157 79.1743 41.6064 79.0337 41.7471C78.893 41.8877 78.7023 41.9667 78.5034 41.9668Z" />
<path d="M78.5034 35.5H71.8403C71.6414 35.4999 71.4507 35.4209 71.31 35.2803C71.1694 35.1396 71.0904 34.9489 71.0903 34.75C71.0904 34.5511 71.1694 34.3604 71.31 34.2197C71.4507 34.0791 71.6414 34.0001 71.8403 34H78.5034C78.7023 34.0001 78.893 34.0791 79.0337 34.2197C79.1743 34.3604 79.2533 34.5511 79.2534 34.75C79.2533 34.9489 79.1743 35.1396 79.0337 35.2803C78.893 35.4209 78.7023 35.4999 78.5034 35.5Z" />
<path d="M78.5034 48.4336H71.8403C71.6414 48.4335 71.4507 48.3545 71.31 48.2139C71.1694 48.0732 71.0904 47.8825 71.0903 47.6836C71.0904 47.4847 71.1694 47.294 71.31 47.1533C71.4507 47.0127 71.6414 46.9336 71.8403 46.9336H78.5034C78.7023 46.9336 78.893 47.0127 79.0337 47.1533C79.1743 47.294 79.2533 47.4847 79.2534 47.6836C79.2534 47.8825 79.1743 48.0732 79.0337 48.2139C78.893 48.3545 78.7023 48.4335 78.5034 48.4336Z" />
<path d="M78.5034 54.9004H71.8403C71.6414 54.9003 71.4507 54.8213 71.31 54.6807C71.1694 54.54 71.0904 54.3493 71.0903 54.1504C71.0904 53.9515 71.1694 53.7608 71.31 53.6201C71.4507 53.4795 71.6414 53.4004 71.8403 53.4004H78.5034C78.7023 53.4004 78.893 53.4795 79.0337 53.6201C79.1743 53.7608 79.2533 53.9515 79.2534 54.1504C79.2533 54.3493 79.1743 54.54 79.0337 54.6807C78.893 54.8213 78.7023 54.9003 78.5034 54.9004Z" />
<path d="M78.5034 61.3672H75.1719H71.8403C71.6414 61.3671 71.4507 61.2881 71.31 61.1475C71.1694 61.0068 71.0904 60.8161 71.0903 60.6172C71.0904 60.4183 71.1694 60.2276 71.31 60.0869C71.4507 59.9463 71.6414 59.8672 71.8403 59.8672H78.5034C78.7023 59.8672 78.893 59.9463 79.0337 60.0869C79.1743 60.2276 79.2534 60.4183 79.2534 60.6172C79.2533 60.8161 79.1743 61.0068 79.0337 61.1475C78.893 61.2881 78.7023 61.3671 78.5034 61.3672Z" />
<path d="M24.4131 42.1279H17.75C17.5511 42.1279 17.3604 42.0488 17.2197 41.9082C17.0791 41.7676 17.0001 41.5768 17 41.3779C17.0001 41.179 17.0791 40.9883 17.2197 40.8477C17.3604 40.707 17.5511 40.628 17.75 40.6279H24.4131C24.612 40.628 24.8027 40.707 24.9434 40.8477C25.084 40.9883 25.163 41.179 25.1631 41.3779C25.163 41.5768 25.084 41.7676 24.9434 41.9082C24.8027 42.0488 24.612 42.1279 24.4131 42.1279Z" />
<path d="M24.4131 35.6611H17.75C17.5511 35.6611 17.3604 35.582 17.2197 35.4414C17.0791 35.3008 17.0001 35.11 17 34.9111C17.0001 34.7122 17.0791 34.5215 17.2197 34.3809C17.3604 34.2402 17.5511 34.1612 17.75 34.1611H24.4131C24.612 34.1612 24.8027 34.2402 24.9434 34.3809C25.084 34.5215 25.163 34.7122 25.1631 34.9111C25.163 35.11 25.084 35.3008 24.9434 35.4414C24.8027 35.582 24.612 35.6611 24.4131 35.6611Z" />
<path d="M24.4131 48.5947H17.75C17.5511 48.5947 17.3604 48.5156 17.2197 48.375C17.0791 48.2344 17.0001 48.0436 17 47.8447C17.0001 47.6458 17.0791 47.4551 17.2197 47.3144C17.3604 47.1738 17.5511 47.0948 17.75 47.0947H24.4131C24.612 47.0948 24.8027 47.1738 24.9434 47.3144C25.084 47.4551 25.163 47.6458 25.1631 47.8447C25.163 48.0436 25.084 48.2344 24.9434 48.375C24.8027 48.5156 24.612 48.5947 24.4131 48.5947Z" />
<path d="M24.4131 55.0615H17.75C17.5511 55.0615 17.3604 54.9824 17.2197 54.8418C17.0791 54.7012 17.0001 54.5104 17 54.3115C17.0001 54.1126 17.0791 53.9219 17.2197 53.7812C17.3604 53.6406 17.5511 53.5616 17.75 53.5615H24.4131C24.612 53.5616 24.8027 53.6406 24.9434 53.7812C25.084 53.9219 25.163 54.1126 25.1631 54.3115C25.163 54.5104 25.084 54.7012 24.9434 54.8418C24.8027 54.9824 24.612 55.0615 24.4131 55.0615Z" />
<path d="M24.4131 61.5283H17.75C17.5511 61.5283 17.3604 61.4492 17.2197 61.3086C17.0791 61.1679 17.0001 60.9772 17 60.7783C17.0001 60.5794 17.0791 60.3887 17.2197 60.248C17.3604 60.1074 17.5511 60.0284 17.75 60.0283H24.4131C24.612 60.0284 24.8027 60.1074 24.9434 60.248C25.084 60.3887 25.163 60.5794 25.1631 60.7783C25.163 60.9772 25.084 61.1679 24.9434 61.3086C24.8027 61.4492 24.612 61.5283 24.4131 61.5283Z" />
<path d="M54.5932 79.2539C54.3943 79.2539 54.2036 79.1748 54.063 79.0342C53.9223 78.8935 53.8433 78.7028 53.8432 78.5039V71.8408C53.8433 71.6419 53.9223 71.4512 54.063 71.3105C54.2036 71.1699 54.3943 71.0909 54.5932 71.0908C54.7921 71.0909 54.9829 71.1699 55.1235 71.3105C55.2642 71.4512 55.3432 71.6419 55.3432 71.8408V78.5039C55.3432 78.7028 55.2642 78.8935 55.1235 79.0342C54.9829 79.1748 54.7921 79.2539 54.5932 79.2539Z" />
<path d="M61.0601 79.2539C60.8612 79.2539 60.6704 79.1748 60.5298 79.0342C60.3892 78.8935 60.3101 78.7028 60.3101 78.5039V71.8408C60.3101 71.6419 60.3892 71.4512 60.5298 71.3105C60.6704 71.1699 60.8612 71.0909 61.0601 71.0908C61.259 71.0909 61.4497 71.1699 61.5904 71.3105C61.731 71.4512 61.81 71.6419 61.8101 71.8408V78.5039C61.81 78.7028 61.731 78.8935 61.5904 79.0342C61.4497 79.1748 61.259 79.2539 61.0601 79.2539Z" />
<path d="M48.1264 79.2539C47.9276 79.2539 47.7368 79.1748 47.5962 79.0342C47.4555 78.8935 47.3765 78.7028 47.3764 78.5039V71.8408C47.3765 71.6419 47.4555 71.4512 47.5962 71.3105C47.7368 71.1699 47.9276 71.0909 48.1264 71.0908C48.3253 71.0909 48.5161 71.1699 48.6567 71.3105C48.7974 71.4512 48.8764 71.6419 48.8764 71.8408V78.5039C48.8764 78.7028 48.7974 78.8935 48.6567 79.0342C48.5161 79.1748 48.3253 79.2539 48.1264 79.2539Z" />
<path d="M41.6601 79.2539C41.4612 79.2539 41.2705 79.1748 41.1299 79.0342C40.9892 78.8935 40.9102 78.7028 40.9101 78.5039V71.8408C40.9102 71.6419 40.9892 71.4512 41.1299 71.3105C41.2705 71.1699 41.4612 71.0909 41.6601 71.0908C41.859 71.0909 42.0498 71.1699 42.1904 71.3105C42.3311 71.4512 42.4101 71.6419 42.4101 71.8408V78.5039C42.4101 78.7028 42.3311 78.8935 42.1904 79.0342C42.0498 79.1748 41.859 79.2539 41.6601 79.2539Z" />
<path d="M35.1933 79.2539C34.9944 79.2539 34.8037 79.1748 34.6631 79.0342C34.5224 78.8935 34.4434 78.7028 34.4433 78.5039V71.8408C34.4434 71.6419 34.5224 71.4512 34.6631 71.3105C34.8037 71.1699 34.9944 71.0909 35.1933 71.0908C35.3922 71.0909 35.583 71.1699 35.7236 71.3105C35.8643 71.4512 35.9433 71.6419 35.9433 71.8408V78.5039C35.9433 78.7028 35.8643 78.8935 35.7236 79.0342C35.583 79.1748 35.3922 79.2539 35.1933 79.2539Z" />
<path d="M55.1308 25.1631C54.9319 25.163 54.7412 25.084 54.6006 24.9434C54.4599 24.8027 54.3809 24.612 54.3808 24.4131V17.75C54.3809 17.5511 54.4599 17.3604 54.6006 17.2197C54.7412 17.0791 54.9319 17.0001 55.1308 17C55.3297 17.0001 55.5205 17.0791 55.6611 17.2197C55.8018 17.3604 55.8808 17.5511 55.8808 17.75V24.4131C55.8808 24.612 55.8018 24.8027 55.6611 24.9434C55.5205 25.084 55.3297 25.163 55.1308 25.1631Z" />
<path d="M61.5976 25.1631C61.3987 25.163 61.208 25.084 61.0674 24.9434C60.9267 24.8027 60.8477 24.612 60.8476 24.4131V17.75C60.8477 17.5511 60.9267 17.3604 61.0674 17.2197C61.208 17.0791 61.3987 17.0001 61.5976 17C61.7965 17.0001 61.9873 17.0791 62.1279 17.2197C62.2686 17.3604 62.3476 17.5511 62.3476 17.75V24.4131C62.3476 24.612 62.2686 24.8027 62.1279 24.9434C61.9873 25.084 61.7965 25.163 61.5976 25.1631Z" />
<path d="M48.6641 25.1631C48.4652 25.163 48.2745 25.084 48.1338 24.9434C47.9932 24.8027 47.9141 24.612 47.9141 24.4131V17.75C47.9141 17.5511 47.9932 17.3604 48.1338 17.2197C48.2744 17.0791 48.4652 17.0001 48.6641 17C48.863 17 49.0537 17.0791 49.1944 17.2197C49.335 17.3604 49.414 17.5511 49.4141 17.75V24.4131C49.414 24.612 49.335 24.8027 49.1944 24.9434C49.0537 25.084 48.863 25.163 48.6641 25.1631Z" />
<path d="M42.1977 25.1631C41.9988 25.163 41.8081 25.084 41.6675 24.9434C41.5268 24.8027 41.4478 24.612 41.4477 24.4131V17.75C41.4478 17.5511 41.5268 17.3604 41.6675 17.2197C41.8081 17.0791 41.9988 17 42.1977 17C42.3966 17.0001 42.5874 17.0791 42.728 17.2197C42.8687 17.3604 42.9477 17.5511 42.9477 17.75V24.4131C42.9477 24.612 42.8687 24.8027 42.728 24.9434C42.5874 25.084 42.3966 25.163 42.1977 25.1631Z" />
<path d="M35.7309 25.1631C35.532 25.163 35.3413 25.084 35.2007 24.9434C35.06 24.8027 34.981 24.612 34.9809 24.4131V17.75C34.981 17.5511 35.06 17.3604 35.2007 17.2197C35.3413 17.0791 35.532 17.0001 35.7309 17C35.9298 17.0001 36.1206 17.0791 36.2612 17.2197C36.4019 17.3604 36.4809 17.5511 36.4809 17.75V24.4131C36.4809 24.612 36.4019 24.8027 36.2612 24.9434C36.1206 25.084 35.9298 25.163 35.7309 25.1631Z" />
</g>
</svg>
