<?xml version="1.0" encoding="utf-8"?>
<!-- Generator: Adobe Illustrator 26.0.2, SVG Export Plug-In . SVG Version: 6.00 Build 0)  -->
<svg version="1.1" id="icon" xmlns="http://www.w3.org/2000/svg" xmlns:xlink="http://www.w3.org/1999/xlink" x="0px" y="0px"
	 viewBox="0 0 96 96" style="enable-background:new 0 0 96 96;" xml:space="preserve">

<g fill="currentColor">
	<path class="st0" d="M67.4,62.5l-6.3-10.2l0,0c-0.3-0.5-0.7-0.9-1.1-1.1c-0.5-0.3-1-0.4-1.5-0.4c-1.1,0-2.1,0.6-2.6,1.5l0,0
		l-6.3,10.2l0,0C49.2,63,49,63.5,49,64c0,1.7,1.4,3,3,3h12.7c0.5,0,1.1-0.1,1.5-0.4c1-0.6,1.5-1.6,1.5-2.6
		C67.8,63.5,67.7,63,67.4,62.5L67.4,62.5z M65.6,65.4c-0.2,0.1-0.5,0.2-0.8,0.2H52.1c-0.9,0-1.5-0.7-1.5-1.5c0-0.3,0.1-0.5,0.2-0.8
		L57.1,53l0,0c0.3-0.5,0.8-0.8,1.4-0.8c0.3,0,0.5,0.1,0.8,0.2c0.2,0.1,0.5,0.3,0.6,0.6l0,0l6.3,10.2c0.1,0.2,0.2,0.5,0.2,0.8
		C66.3,64.6,66.1,65.1,65.6,65.4z"/>
	<path class="st0" d="M32.8,45.7h8.9c2.1,0,3.7-1.7,3.7-3.7v-8.9c0-2.1-1.7-3.7-3.7-3.7h-8.9c-2.1,0-3.7,1.7-3.7,3.7V42
		C29,44,30.7,45.7,32.8,45.7z M30.5,33.1c0-1.2,1-2.2,2.2-2.2h8.9c1.2,0,2.2,1,2.2,2.2V42c0,1.2-1,2.2-2.2,2.2h-8.9
		c-1.2,0-2.2-1-2.2-2.2V33.1z"/>
	<path class="st0" d="M37.2,50.6c-4.7,0-8.6,3.8-8.6,8.6c0,4.7,3.8,8.6,8.6,8.6c4.7,0,8.6-3.8,8.6-8.6
		C45.8,54.4,41.9,50.6,37.2,50.6z M42.2,64.2c-1.3,1.3-3,2.1-5,2.1c-2,0-3.7-0.8-5-2.1c-1.3-1.3-2.1-3-2.1-5c0-2,0.8-3.7,2.1-5
		c1.3-1.3,3-2.1,5-2.1c2,0,3.7,0.8,5,2.1c1.3,1.3,2.1,3,2.1,5C44.3,61.1,43.5,62.9,42.2,64.2z"/>
	<path class="st0" d="M53.5,45.3c0.1,0.2,0.4,0.4,0.6,0.4h8.6c0.3,0,0.5-0.1,0.6-0.4l4.3-7.4c0.1-0.2,0.1-0.5,0-0.8l-4.3-7.4
		c-0.1-0.2-0.4-0.4-0.6-0.4h-8.6c-0.3,0-0.5,0.1-0.6,0.4l-4.3,7.4c-0.1,0.2-0.1,0.5,0,0.8L53.5,45.3z M54.6,30.9h7.7l3.9,6.7
		l-3.8,6.7h-7.7l-3.8-6.7L54.6,30.9z"/>
	<path class="st0" d="M71,20.2H25c-2.6,0-4.7,2.1-4.8,4.8v46c0,2.6,2.1,4.7,4.8,4.8h46c2.6,0,4.7-2.1,4.8-4.8V25
		C75.7,22.4,73.6,20.3,71,20.2z M74.2,71c0,1.8-1.5,3.2-3.2,3.2H25c-1.8,0-3.2-1.5-3.2-3.2V25c0-1.8,1.5-3.2,3.2-3.2h46
		c1.8,0,3.2,1.5,3.2,3.2V71z"/>
</g>
</svg>
