<?xml version="1.0" encoding="utf-8"?>
<!-- Generator: Adobe Illustrator 26.5.3, SVG Export Plug-In . SVG Version: 6.00 Build 0)  -->
<svg version="1.1" id="Warstwa_1" xmlns="http://www.w3.org/2000/svg" xmlns:xlink="http://www.w3.org/1999/xlink" x="0px" y="0px"
	 viewBox="0 0 96 96" style="enable-background:new 0 0 96 96;" xml:space="preserve">
<g fill="currentColor">
	<path class="st0" d="M59.8,48.3H36.9c-1.6,0-3-0.6-4.1-1.7c-1-1-1.7-2.5-1.7-4.1c0-1.6,0.6-3,1.7-4.1c1-1,2.5-1.7,4.1-1.7h17.5
		c0.4,0,0.8-0.3,0.8-0.8c0-0.4-0.3-0.8-0.8-0.8H36.9c-4,0-7.3,3.3-7.3,7.3c0,4,3.3,7.3,7.3,7.3h22.9c1.6,0,3,0.6,4.1,1.7
		c1,1,1.7,2.5,1.7,4.1v0c0,1.6-0.6,3-1.7,4.1c-1,1-2.5,1.7-4.1,1.7H30.4c-0.4,0-0.8,0.3-0.8,0.8c0,0.4,0.3,0.8,0.8,0.8h29.4
		c4,0,7.3-3.3,7.3-7.3v0C67.1,51.6,63.8,48.3,59.8,48.3z"/>
	<path class="st0" d="M78.9,19.8c0-0.8-0.3-1.6-0.9-2.2l-2.3-2.3c-0.6-0.6-1.4-0.9-2.2-0.9c-0.8,0-1.6,0.3-2.2,0.9l-4.8,4.8
		c-0.1,0-0.1,0-0.2,0H23.1c-1.6,0-2.8,1.3-2.8,2.8v50c0,1.6,1.3,2.8,2.8,2.8h50.1c1.6,0,2.8-1.3,2.8-2.8V24c0,0,0,0,0,0l2-2
		C78.6,21.4,78.9,20.6,78.9,19.8z M74.5,72.9c0,0.7-0.6,1.3-1.3,1.3H23.1c-0.7,0-1.3-0.6-1.3-1.3v-50c0-0.7,0.6-1.3,1.3-1.3h42
		L58.7,28l0,0l0,0l-1.9,1.9c-0.1,0.1-0.2,0.3-0.2,0.5l0.1,5.5c0,0.4,0.3,0.7,0.7,0.7l5.5,0.1c0.2,0,0.4-0.1,0.5-0.2l11-11V72.9z
		 M59.2,29.6l4.6,4.6l-1.1,1.1l-4.5-0.1l-0.1-4.5L59.2,29.6z M77,20.9L64.8,33.1l-4.6-4.6l12.1-12.1c0.3-0.3,0.7-0.5,1.1-0.5
		c0.4,0,0.8,0.2,1.1,0.5c0,0,0,0,0,0l2.3,2.3c0.3,0.3,0.5,0.7,0.5,1.1C77.4,20.2,77.3,20.6,77,20.9z"/>
</g>
</svg>
