<?xml version="1.0" encoding="UTF-8"?>
<svg width="96px" height="96px" viewBox="0 0 96 96" version="1.1" xmlns="http://www.w3.org/2000/svg"
    xmlns:xlink="http://www.w3.org/1999/xlink">
    <!-- Generator: Sketch 64 (93537) - https://sketch.com -->
    <title>Finance / 04 XL / 03-billing-xl</title>
    <desc>Created with Sketch.</desc>
    <g id="Finance-/-04-XL-/-03-billing-xl" stroke="none" stroke-width="1" fill="none"
        fill-rule="evenodd">
        <g id="Group" transform="translate(21.000000, 18.000000)">
            <path
                d="M34.2642024,22.53046 L34.2642024,27.3898301 C33.2485856,27.3811145 32.2582661,27.07201 31.4180124,26.5014601 C31.1031616,26.233638 30.6309807,26.2710046 30.362174,26.5850152 C30.0933673,26.8990258 30.1292551,27.3713213 30.4424224,27.6411101 C31.5564709,28.4441124 32.8910205,28.8840817 34.2642024,28.9010601 L34.2642024,30.2500001 C34.2642024,30.6642136 34.5999889,31 35.0142024,31 C35.428416,31 35.7642024,30.6642136 35.7642024,30.2500001 L35.7642024,28.8346601 C36.3687838,28.7593398 36.9590489,28.5957522 37.5161525,28.3491201 C38.9022999,27.782741 39.7976042,26.422422 39.7695725,24.92529 C39.7695725,22.64612 37.6829625,21.88867 35.7642024,21.37317 L35.7642024,17.01367 C36.635049,17.1003875 37.4979302,17.2539977 38.3452025,17.47314 C38.7445816,17.5830309 39.1574266,17.3483542 39.2673175,16.948975 C39.3772083,16.5495958 39.1425317,16.1367509 38.7431525,16.02686 C37.7664732,15.7685378 36.7700617,15.5916187 35.7641524,15.49792 L35.7641524,13.75 C35.7641524,13.3357864 35.428366,13 35.0141524,13 C34.5999389,13 34.2641524,13.3357864 34.2641524,13.75 L34.2641524,15.44788 C33.1573134,15.4175148 32.0674163,15.7245135 31.1391524,16.32812 C30.3908047,16.9040601 29.9671576,17.8063275 30.0019924,18.75 C30.0019924,21.221 32.2465024,21.99524 34.2642024,22.53046 Z M35.7642024,22.93359 C37.3373224,23.38806 38.2695725,23.86292 38.2695725,24.92529 C38.3011447,25.8379499 37.7450928,26.6683921 36.8892024,26.9868201 C36.5296073,27.1423413 36.1515071,27.2509787 35.7642024,27.3100601 L35.7642024,22.93359 Z M32.0478924,17.522 C32.7137224,17.1158365 33.4849045,16.915907 34.2642024,16.94742 L34.2642024,20.973 C32.5295224,20.4812 31.5019924,19.97235 31.5019924,18.75 C31.4663253,18.2749889 31.6713577,17.8137693 32.0478924,17.522 Z"
                fill-rule="nonzero" fill="currentColor"></path>
            <path
                d="M16,43.4558854 L16,1.91975604 C16,1.36747129 16.4477153,0.919756045 17,0.919756045 C17.2050411,0.919756045 17.4051265,0.982785189 17.5731479,1.10030408 L20.1718109,2.91788244 C20.5154899,3.15826128 20.9726512,3.15864432 21.3167326,2.91884175 L24.9322416,0.399064624 C25.2762261,0.159329604 25.7332393,0.159638818 26.076899,0.399839097 L29.6793465,2.91776262 C30.0233175,3.15818048 30.4808071,3.15825286 30.8248541,2.91794385 L34.4306519,0.399376556 C34.7741891,0.159423733 35.2308986,0.159108217 35.5747669,0.398586148 L39.1946086,2.91952832 C39.5384267,3.15897129 39.9950596,3.15869396 40.3385866,2.91883356 L43.9451844,0.40060378 C44.2896944,0.160057047 44.7478306,0.160528433 45.0918448,0.401783603 L48.6771848,2.91616144 C49.0212682,3.15746506 49.4795102,3.1578838 49.824034,2.91720943 L52.427324,1.09862607 C52.8800771,0.782345878 53.5035016,0.89297895 53.8197818,1.34573195 C53.9370915,1.5136599 54,1.71356323 54,1.91840791 L54,48.2977802 L54,48.2977802 C54,53.8206277 49.5228475,58.2977802 44,58.2977802 L8.5,58.2977802"
                id="Path" stroke="currentColor" stroke-width="1.5" stroke-linecap="round"
                stroke-linejoin="round"></path>
            <path
                d="M0,33.2977802 L16,33.2977802 L16,50.2977802 C16,54.7160582 12.418278,58.2977802 8,58.2977802 C3.581722,58.2977802 5.41083001e-16,54.7160582 0,50.2977802 L0,33.2977802 L0,33.2977802 Z"
                id="Rectangle" stroke="currentColor" stroke-width="1.5" stroke-linejoin="round"
                transform="translate(8.000000, 45.797780) scale(-1, 1) translate(-8.000000, -45.797780) "></path>

            <line x1="44" y1="40.5" x2="23" y2="40.5" id="Path-Copy-3" stroke="currentColor"
                stroke-width="1.5" stroke-linecap="round" stroke-linejoin="round"></line>
            <line x1="33" y1="46.5" x2="23" y2="46.5" id="Path-Copy-4" stroke="currentColor"
                stroke-width="1.5" stroke-linecap="round" stroke-linejoin="round"></line>
            <line x1="37" y1="46.5" x2="38.71704" y2="46.5" id="Path" stroke="currentColor"
                stroke-width="1.5" stroke-linecap="round" stroke-linejoin="round"></line>
        </g>
    </g>
</svg>