<?xml version="1.0" encoding="UTF-8"?>
<svg width="96px" height="96px" viewBox="0 0 96 96" version="1.1" xmlns="http://www.w3.org/2000/svg" xmlns:xlink="http://www.w3.org/1999/xlink">
    <!-- Generator: Sketch 64 (93537) - https://sketch.com -->
    <title>Internet / 04 XL / 03-browser-close-xl</title>
    <desc>Created with Sketch.</desc>
    <g id="Internet-/-04-XL-/-03-browser-close-xl" stroke="none" stroke-width="1" fill="none" fill-rule="evenodd">
        <g id="Group-3" transform="translate(18.000000, 24.000000)" stroke="currentColor" stroke-width="1.5">
            <line x1="39" y1="8.00000005" x2="51" y2="20.0000001" id="Path" stroke-linecap="round" stroke-linejoin="round"></line>
            <line x1="39" y1="20.0000001" x2="51" y2="8.00000005" id="Path" stroke-linecap="round" stroke-linejoin="round"></line>
            <path d="M60,38 L60,3 C60,1.34314575 58.6568543,-3.04359188e-16 57,0 L35.2712382,0 C33.5472881,-3.23602917e-15 31.9449385,0.888098483 31.0312467,2.3500053 L21.4687533,17.6499947 C20.5550616,19.1119015 18.952712,20 17.2287618,20 L3.00000003,20 C1.34314578,20 3.12502378e-08,21.3431458 3.1250238e-08,23 L3.1250238e-08,38 L3.1250238e-08,38" id="Path-2" stroke-linecap="round"></path>
            <path d="M38,4.9999926e-08 L3,4.9999926e-08 C1.34314575,4.99999263e-08 -2.02906125e-16,1.3431458 0,3.00000005 L0,27 L0,27" id="Path-5"></path>
            <line x1="59.5" y1="28.5" x2="32.1333008" y2="28.5" id="Path" stroke-linecap="round"></line>
            <line x1="22.2214355" y1="28.5" x2="7.5" y2="28.5" id="Path" stroke-linecap="round"></line>
            <path d="M18.3200504,31.7276681 L31.2821042,21.0992105 C31.4149177,20.9902903 31.5966471,20.9692451 31.7496813,21.0450626 C31.9027155,21.1208802 32,21.2801592 32,21.4548766 L32,38.8401344 C32,39.2116952 31.7715734,39.5426268 31.4305416,39.6651372 C31.0895098,39.7876476 30.7104524,39.6749448 30.4855628,39.3841725 L27.2030461,35.1399832 L24.1033167,41.5169197 C24.0025517,41.7242216 23.8258517,41.881859 23.6120896,41.9551525 C23.3983275,42.0284461 23.165014,42.0113919 22.9634766,41.9077417 L20.7801475,40.7848592 C20.3604778,40.5690275 20.1903661,40.0441279 20.4001895,39.6124543 L23.4759098,33.2848653 L18.8496366,33.2848653 C18.4885579,33.2848686 18.1669244,33.050112 18.0476985,32.6995398 C17.9284727,32.3489677 18.0377049,31.9591788 18.3200504,31.7276681 Z" id="Path" stroke-linecap="round" stroke-linejoin="round"></path>
        </g>
    </g>
</svg>