<?xml version="1.0" encoding="UTF-8"?>
<svg width="96px" height="96px" viewBox="0 0 96 96" version="1.1" xmlns="http://www.w3.org/2000/svg" xmlns:xlink="http://www.w3.org/1999/xlink">
    <!-- Generator: Sketch 64 (93537) - https://sketch.com -->
    <title>Internet / 04 XL / 02-browser-code-xl</title>
    <desc>Created with Sketch.</desc>
    <g id="Internet-/-04-XL-/-02-browser-code-xl" stroke="none" stroke-width="1" fill="none" fill-rule="evenodd" stroke-linecap="round" stroke-linejoin="round">
        <g id="Group" transform="translate(18.000000, 24.000000)" stroke="currentColor" stroke-width="1.5">
            <circle id="Oval" cx="8.00000003" cy="8.00000003" r="2"></circle>
            <circle id="Oval" cx="22" cy="8.00000003" r="2"></circle>
            <circle id="Oval" cx="15" cy="8.00000003" r="2"></circle>
            <path d="M60,21.1247559 C60,17.0970324 60,12.0554471 60,4.00000002 C60,1.79086103 58.2091391,2.4999963e-08 56,2.4999963e-08 L4.00000002,2.4999963e-08 C1.79086102,2.4999963e-08 1.87499722e-08,1.79086103 1.87499722e-08,4.00000002 L1.87499722e-08,44 C1.87499722e-08,46.2091391 1.79086102,48 4.00000002,48 L56,48 C58.2091391,48 60,46.2091391 60,44 C60,43.0949436 60,42.4161513 60,41.9636231" id="Path"></path>
            <rect id="horizontal_rectangle" transform="translate(47.500020, 31.009055) rotate(180.000000) translate(-47.500020, -31.009055) " x="30.00002" y="21.16057" width="35" height="19.69697" rx="3"></rect>
            <line x1="41.1674901" y1="31.0090601" x2="36.5347601" y2="26.3763301" id="Path"></line>
            <line x1="41.1674901" y1="31.0090601" x2="36.5347601" y2="35.6417901" id="Path"></line>
            <line x1="44.6139601" y1="35.6033501" x2="49.4652901" y2="35.6033501" id="Path"></line>
            <line x1="6.62847003" y1="18.47545" x2="21.62847" y2="18.47545" id="Path"></line>
            <line x1="6.62847003" y1="30.47545" x2="21.62847" y2="30.47545" id="Path"></line>
            <line x1="6.62847003" y1="24.47545" x2="13.62847" y2="24.47545" id="Path"></line>
            <line x1="6.62847003" y1="36.47545" x2="13.62847" y2="36.47545" id="Path-Copy"></line>
        </g>
    </g>
</svg>