<?xml version="1.0" encoding="utf-8"?>
<!-- Generator: Adobe Illustrator 24.3.0, SVG Export Plug-In . SVG Version: 6.00 Build 0)  -->
<svg version="1.1" id="Warstwa_1" xmlns="http://www.w3.org/2000/svg" xmlns:xlink="http://www.w3.org/1999/xlink" x="0px" y="0px"
	 viewBox="0 0 96 96" style="enable-background:new 0 0 96 96;" xml:space="preserve">

<g fill="currentColor">
	<path class="st0" d="M69.5,25.3h-8v-3.6c0-0.4-0.3-0.8-0.8-0.8S60,21.3,60,21.7v3.6H33.3v-3.6c0-0.4-0.3-0.8-0.8-0.8
		s-0.8,0.3-0.8,0.8v3.6h-8.4c-2.6,0-4.7,2.1-4.8,4.8v41c0,2.6,2.1,4.7,4.7,4.7c0,0,0,0,0,0h36.7c0,0,0,0,0,0c0.1,0,0.1,0,0.2,0
		c0,0,0,0,0.1,0c0.1,0,0.2-0.1,0.2-0.1l13.1-13.1c0.3-0.1,0.5-0.4,0.5-0.7V30C74.2,27.4,72.1,25.3,69.5,25.3z M23.4,26.8h8.4v3.5
		c0,0.4,0.3,0.8,0.8,0.8s0.8-0.3,0.8-0.8v-3.5H60v3.5c0,0.4,0.3,0.8,0.8,0.8s0.8-0.3,0.8-0.8v-3.5h8c1.8,0,3.2,1.5,3.2,3.3v7.9H20.1
		V30C20.1,28.2,21.6,26.8,23.4,26.8z M20.1,71V39.4h52.6v21.5h-7c-3.5,0-6.4,2.9-6.4,6.4c0,0,0,0,0,0v6.9H23.4
		C21.6,74.2,20.1,72.8,20.1,71z M60.8,67.3c0-2.7,2.2-4.9,4.9-4.9c0,0,0,0,0,0h5.8L60.8,73.2L60.8,67.3z"/>
	<path class="st0" d="M28.4,53.2c0.3,0.2,0.5,0.4,0.8,0.6c1,0.7,2.6,1.8,2.6,1.8c0.2,0.2,0.6,0.2,0.8,0c0,0,0.9-0.5,1.7-1.1
		c0.4-0.3,0.9-0.6,1.2-0.8c0.1-0.1,0.1-0.1,0.2-0.1l25.3,0c2,0,3.6-1.6,3.6-3.6c0-2-1.6-3.6-3.6-3.6H36.4c-0.1-1.1-1-2-2.2-2h-4
		c-1.2,0-2.2,1-2.2,2.2v6c0,0.2,0,0.3,0.1,0.4C28.3,53.1,28.3,53.2,28.4,53.2z M63.1,50c0,1.1-0.9,2.1-2.1,2.1H36.4v-4.1h24.6
		C62.2,47.9,63.1,48.8,63.1,50z M30.2,45.9h4c0.4,0,0.7,0.3,0.7,0.7v5.7c-0.1,0.1-0.4,0.3-0.6,0.5c-0.5,0.3-1.1,0.7-1.6,1
		c-0.2,0.1-0.3,0.2-0.4,0.3L32.1,54c-0.5-0.3-1.2-0.8-1.8-1.2c-0.3-0.2-0.6-0.4-0.7-0.5l0,0v-5.7C29.6,46.2,29.9,45.9,30.2,45.9z"/>
	<path class="st0" d="M47.7,55.9h-4c-1.1,0-2.1,0.9-2.1,2h-9.9c-2,0-3.6,1.6-3.6,3.6s1.6,3.6,3.6,3.6c0,0,0,0,0,0h10.6
		c0.1,0.1,0.3,0.2,0.4,0.3c1,0.7,2.6,1.8,2.6,1.8c0.2,0.2,0.6,0.2,0.8,0c0,0,0.9-0.5,1.7-1.1c0.4-0.3,0.9-0.6,1.2-0.8
		c0.2-0.1,0.3-0.2,0.4-0.4l0.2-0.2l0.1-0.2c0.1-0.1,0.1-0.2,0.1-0.4v-6C49.9,56.9,48.9,55.9,47.7,55.9z M29.6,61.5
		c0-1.1,0.9-2.1,2.1-2.1h9.9v4.1l-9.9,0C30.5,63.6,29.6,62.6,29.6,61.5z M47.8,64.3c-0.5,0.3-1.1,0.7-1.6,1
		c-0.2,0.1-0.3,0.2-0.4,0.3l-0.1-0.1c-0.5-0.3-1.2-0.8-1.8-1.2c-0.3-0.2-0.6-0.4-0.7-0.5l0,0v-5.7c0-0.4,0.3-0.7,0.7-0.7h4
		c0.4,0,0.7,0.3,0.7,0.7v5.7C48.3,63.9,48,64.1,47.8,64.3L47.8,64.3z"/>
</g>
</svg>
