<?xml version="1.0" encoding="utf-8"?>
<!-- Generator: Adobe Illustrator 24.3.0, SVG Export Plug-In . SVG Version: 6.00 Build 0)  -->
<svg version="1.1" id="Warstwa_1" xmlns="http://www.w3.org/2000/svg" xmlns:xlink="http://www.w3.org/1999/xlink" x="0px" y="0px"
	 viewBox="0 0 96 96" style="enable-background:new 0 0 96 96;" xml:space="preserve">

<g fill="currentColor">
	<path class="st0" d="M34.1,43.4c-1.7,0-3.2,1.4-3.2,3.2s1.4,3.2,3.2,3.2c1.7,0,3.2-1.4,3.2-3.2C37.3,44.8,35.9,43.4,34.1,43.4z
		 M34.1,48.3c-0.9,0-1.7-0.7-1.7-1.7c0-0.9,0.7-1.7,1.7-1.7c0.9,0,1.7,0.7,1.7,1.7c0,0,0,0,0,0C35.8,47.5,35,48.3,34.1,48.3
		L34.1,48.3z"/>
	<path class="st0" d="M34.1,53.7c-1.7,0-3.2,1.4-3.2,3.2s1.4,3.2,3.2,3.2c1.7,0,3.2-1.4,3.2-3.2C37.3,55.1,35.9,53.7,34.1,53.7z
		 M34.1,58.6c-0.9,0-1.7-0.7-1.7-1.7c0-0.9,0.7-1.7,1.7-1.7c0.9,0,1.7,0.7,1.7,1.7c0,0,0,0,0,0C35.8,57.8,35,58.6,34.1,58.6
		L34.1,58.6z"/>
	<path class="st0" d="M62.4,49.8c1.7,0,3.2-1.4,3.2-3.2s-1.4-3.2-3.2-3.2c-1.7,0-3.2,1.4-3.2,3.2C59.2,48.3,60.6,49.8,62.4,49.8z
		 M62.4,44.9c0.9,0,1.7,0.7,1.7,1.7c0,0.9-0.7,1.7-1.7,1.7c-0.9,0-1.7-0.7-1.7-1.7C60.7,45.7,61.4,44.9,62.4,44.9L62.4,44.9z"/>
	<path class="st0" d="M48,43.4c-1.7,0-3.2,1.4-3.2,3.2s1.4,3.2,3.2,3.2c1.7,0,3.2-1.4,3.2-3.2C51.1,44.8,49.7,43.4,48,43.4z
		 M48,48.3c-0.9,0-1.7-0.7-1.7-1.7c0-0.9,0.7-1.7,1.7-1.7c0.9,0,1.7,0.7,1.7,1.7c0,0,0,0,0,0C49.6,47.5,48.9,48.3,48,48.3L48,48.3z"
		/>
	<path class="st0" d="M48,64c-1.7,0-3.2,1.4-3.2,3.2s1.4,3.2,3.2,3.2c1.7,0,3.2-1.4,3.2-3.2C51.1,65.5,49.7,64,48,64z M48,68.9
		c-0.9,0-1.7-0.7-1.7-1.7s0.7-1.7,1.7-1.7c0.9,0,1.7,0.7,1.7,1.7c0,0,0,0,0,0C49.6,68.1,48.9,68.9,48,68.9L48,68.9z"/>
	<path class="st0" d="M75.8,61.7l0-31.7c0-2.6-2.1-4.7-4.7-4.8c0,0,0,0,0,0h-8v-3.6c0-0.4-0.3-0.8-0.8-0.8s-0.8,0.3-0.8,0.8v3.6
		H34.8v-3.6c0-0.4-0.3-0.8-0.8-0.8s-0.8,0.3-0.8,0.8v3.6h-8.4c-2.6,0-4.7,2.1-4.8,4.8v41c0,2.6,2.1,4.7,4.7,4.7c0,0,0,0,0,0h36.7
		c0,0,0,0,0,0c0.1,0,0.1,0,0.2,0c0,0,0,0,0.1,0c0.1,0,0.2-0.1,0.2-0.1l13.1-13.1C75.6,62.3,75.8,62,75.8,61.7z M24.9,26.8h8.4v3.5
		c0,0.4,0.3,0.8,0.8,0.8s0.8-0.3,0.8-0.8l0,0v-3.5h26.8v3.5c0,0.4,0.3,0.8,0.8,0.8s0.8-0.3,0.8-0.8v-3.5h8c1.8,0,3.2,1.5,3.2,3.3
		v7.9H21.6V30C21.6,28.2,23.1,26.8,24.9,26.8L24.9,26.8z M21.6,71V39.4h52.6v21.5h-7c-3.5,0-6.4,2.9-6.4,6.4c0,0,0,0,0,0v6.9H24.9
		C23.1,74.2,21.6,72.8,21.6,71L21.6,71z M62.3,67.3c0-2.7,2.2-4.9,4.9-4.9c0,0,0,0,0,0h5.8L62.3,73.2V67.3z"/>
</g>
</svg>
