<?xml version="1.0" encoding="utf-8"?>
<!-- Generator: Adobe Illustrator 24.3.0, SVG Export Plug-In . SVG Version: 6.00 Build 0)  -->
<svg version="1.1" id="Warstwa_1" xmlns="http://www.w3.org/2000/svg" xmlns:xlink="http://www.w3.org/1999/xlink" x="0px" y="0px"
	 viewBox="0 0 96 96" style="enable-background:new 0 0 96 96;" xml:space="preserve">

<g fill="currentColor">
	<path class="st0" d="M75.5,57.4V30c0-2.6-2.1-4.8-4.8-4.8l0,0h-7.8v-3.5c0-0.4-0.3-0.8-0.8-0.8s-0.8,0.3-0.8,0.8v3.5H34.6v-3.5
		c0-0.4-0.3-0.8-0.8-0.8s-0.8,0.3-0.8,0.8v3.5h-8.4c-2.6,0-4.7,2.1-4.8,4.8v41c0,2.6,2.1,4.7,4.7,4.7c0,0,0,0,0,0h32.8
		c3.2,6.9,11.3,9.9,18.2,6.7c6.9-3.2,9.9-11.3,6.7-18.2C81.1,61.2,78.6,58.7,75.5,57.4z M24.7,26.7h8.4v3.5c0,0.4,0.3,0.8,0.8,0.8
		s0.8-0.3,0.8-0.8v-3.5h26.8v3.6c0,0.4,0.3,0.8,0.8,0.8s0.8-0.3,0.8-0.8v-3.6h7.8c1.8,0,3.2,1.5,3.2,3.3v7.9H21.5V30
		C21.5,28.2,22.9,26.8,24.7,26.7z M24.7,74.2c-1.8,0-3.2-1.5-3.2-3.2V39.4H74v17.4C66.7,54.6,59,58.7,56.8,66
		c-0.8,2.7-0.8,5.6,0.1,8.2H24.7z M78.7,78.7c-4.8,4.8-12.5,4.8-17.3,0s-4.8-12.5,0-17.3s12.5-4.8,17.3,0c2.3,2.3,3.6,5.4,3.6,8.7
		C82.3,73.2,81,76.4,78.7,78.7L78.7,78.7z"/>
	<path class="st0" d="M33.9,43.4c-1.7,0-3.2,1.4-3.2,3.2c0,1.7,1.4,3.2,3.2,3.2c1.7,0,3.2-1.4,3.2-3.2C37,44.8,35.6,43.4,33.9,43.4
		C33.9,43.4,33.9,43.4,33.9,43.4z M33.9,48.3c-0.9,0-1.7-0.7-1.7-1.7c0-0.9,0.7-1.7,1.7-1.7c0.9,0,1.7,0.7,1.7,1.7
		C35.5,47.5,34.8,48.3,33.9,48.3L33.9,48.3z"/>
	<path class="st0" d="M33.9,53.7c-1.7,0-3.2,1.4-3.2,3.2c0,1.7,1.4,3.2,3.2,3.2c1.7,0,3.2-1.4,3.2-3.2C37,55.1,35.6,53.7,33.9,53.7
		C33.9,53.7,33.9,53.7,33.9,53.7z M33.9,58.6c-0.9,0-1.7-0.7-1.7-1.7c0-0.9,0.7-1.7,1.7-1.7c0.9,0,1.7,0.7,1.7,1.7
		C35.5,57.8,34.8,58.6,33.9,58.6L33.9,58.6z"/>
	<path class="st0" d="M62.1,49.8c1.7,0,3.2-1.4,3.2-3.2s-1.4-3.2-3.2-3.2c-1.7,0-3.2,1.4-3.2,3.2C59,48.3,60.4,49.8,62.1,49.8z
		 M62.1,44.9c0.9,0,1.7,0.7,1.7,1.7c0,0.9-0.7,1.7-1.7,1.7c-0.9,0-1.7-0.7-1.7-1.7C60.5,45.7,61.2,44.9,62.1,44.9L62.1,44.9z"/>
	<path class="st0" d="M47.7,43.4c-1.7,0-3.2,1.4-3.2,3.2c0,1.7,1.4,3.2,3.2,3.2c1.7,0,3.2-1.4,3.2-3.2
		C50.9,44.8,49.5,43.4,47.7,43.4C47.7,43.4,47.7,43.4,47.7,43.4z M47.7,48.3c-0.9,0-1.7-0.7-1.7-1.7c0-0.9,0.7-1.7,1.7-1.7
		c0.9,0,1.7,0.7,1.7,1.7C49.4,47.5,48.6,48.3,47.7,48.3L47.7,48.3z"/>
	<path class="st0" d="M47.7,64c-1.7,0-3.2,1.4-3.2,3.2s1.4,3.2,3.2,3.2c1.7,0,3.2-1.4,3.2-3.2C50.9,65.5,49.5,64,47.7,64z
		 M47.7,68.9c-0.9,0-1.7-0.7-1.7-1.7c0-0.9,0.7-1.7,1.7-1.7c0.9,0,1.7,0.7,1.7,1.7c0,0,0,0,0,0C49.4,68.1,48.6,68.9,47.7,68.9
		L47.7,68.9z"/>
	<path class="st0" d="M70,62.4c-0.4,0-0.8,0.3-0.8,0.8s0.3,0.8,0.8,0.8c3.4,0,6.1,2.7,6.1,6.1c0,0,0,0,0,0c0,0.4,0.3,0.8,0.8,0.8
		s0.8-0.3,0.8-0.8C77.6,65.8,74.2,62.4,70,62.4z"/>
	<path class="st0" d="M70,76.1c-3.4,0-6.1-2.7-6.1-6.1c0-0.4-0.3-0.8-0.7-0.8c-0.4,0-0.8,0.3-0.8,0.7c0,0,0,0,0,0h0
		c0,4.2,3.4,7.6,7.6,7.6c0,0,0,0,0,0c0.4,0,0.7-0.3,0.7-0.7C70.7,76.4,70.4,76.1,70,76.1z"/>
</g>
</svg>
