<?xml version="1.0" encoding="UTF-8"?>
<svg width="96px" height="96px" viewBox="0 0 96 96" version="1.1" xmlns="http://www.w3.org/2000/svg" xmlns:xlink="http://www.w3.org/1999/xlink">
    <!-- Generator: Sketch 64 (93537) - https://sketch.com -->
    <title>Finance / 04 XL / 01-card-visa-xl</title>
    <desc>Created with Sketch.</desc>
    <g id="Finance-/-04-XL-/-01-card-visa-xl" stroke="none" stroke-width="1" fill="none" fill-rule="evenodd">
        <g id="Group" transform="translate(18.000000, 24.000000)" stroke="currentColor" stroke-width="1.5">
            <rect id="Rectangle" stroke-linecap="round" stroke-linejoin="round" x="1.87500291e-08" y="2.4999963e-08" width="60.0000001" height="48" rx="4"></rect>
            <rect id="Rectangle" stroke-linecap="round" stroke-linejoin="round" x="1.87500433e-08" y="8.00000005" width="60.0000001" height="10"></rect>
            <polyline id="Path" stroke-linecap="round" stroke-linejoin="round" points="37.9715554 32.3580694 39.9715554 30.5578287 39.9715554 36.5578287"></polyline>
            <path d="M46.9715554,36.5578287 L42.9715554,36.5578287 L42.9715554,36.5151799 L45.5642387,34.0116554 C46.2180586,33.5050664 46.6107423,32.7819152 46.6509206,32.0104636 C46.6939368,31.6191544 46.5395826,31.2310508 46.2296801,30.9513091 C45.9197775,30.6715673 45.4864122,30.5291504 45.047004,30.5626459 C44.5835717,30.5578287 44.1378077,30.7209834 43.8119813,31.014839 C43.4861548,31.3086946 43.3082343,31.7079691 43.3190391,32.121059" id="Path" stroke-linecap="round" stroke-linejoin="round"></path>
            <path d="M50.0000001,36.5462094 L51.0526349,36.5462094 C51.5625608,36.601869 52.0742893,36.4557268 52.449772,36.1472072 C52.8252547,35.8386876 53.0258089,35.3995749 52.9973312,34.948328 C53.0229317,34.5383918 52.8426141,34.1392401 52.5041166,33.8565461 C52.1656191,33.5738522 51.7030776,33.4361245 51.2389478,33.4798257 L50.7584381,33.4798257 L50.7584381,33.3331832 L51.2102296,33.3331832 C51.6216144,33.362875 52.0274675,33.2344607 52.3230709,32.9810738 C52.6186743,32.7276869 52.7750744,32.3741461 52.751917,32.0116717 C52.7820036,31.6208128 52.6192607,31.2374886 52.3052686,30.959637 C51.9912765,30.6817854 51.5564503,30.5363208 51.1118865,30.5604088 L50.0000001,30.5604088" id="Path" stroke-linecap="round" stroke-linejoin="round"></path>
            <path d="M15.0326236,37.043427 C15.9466365,38.2331408 17.3837635,39 19.0000001,39 C21.7614238,39 24.0000001,36.7614238 24.0000001,34 C24.0000001,31.2385763 21.7614238,29 19.0000001,29 C17.3454431,29 15.8785896,29.8036543 14.9684977,31.0419047" id="Path"></path>
            <circle id="Oval" cx="11" cy="34" r="5"></circle>
        </g>
    </g>
</svg>