<?xml version="1.0" encoding="UTF-8"?>
<svg width="96px" height="96px" viewBox="0 0 96 96" version="1.1" xmlns="http://www.w3.org/2000/svg" xmlns:xlink="http://www.w3.org/1999/xlink">
    <!-- Generator: Sketch 64 (93537) - https://sketch.com -->
    <title>Campaigns / 04 XL / 14-check-out-xl</title>
    <desc>Created with Sketch.</desc>
    <g id="Campaigns-/-04-XL-/-14-check-out-xl" stroke="none" stroke-width="1" fill="none" fill-rule="evenodd">
        <g id="Group" transform="translate(25.000000, 18.000000)" stroke="currentColor" stroke-width="1.5">
            <path d="M2.86254021,6.26958553 L20.1469052,1.14286711 C21.735358,0.671715843 23.4049971,1.57746774 23.8761483,3.1659206 C23.9582856,3.44284043 24,3.73017099 24,4.01901544 L24,55.9809846 C24,57.6378388 22.6568542,58.9809846 21,58.9809846 C20.7111555,58.9809846 20.423825,58.9392701 20.1469052,58.8571329 L2.86254021,53.7304145 C1.16461582,53.2267928 3.36288849e-15,51.6665898 0,49.89555 L0,10.10445 C-1.10506824e-15,8.33341016 1.16461582,6.77320717 2.86254021,6.26958553 Z" id="Rectangle"></path>
            <path d="M24,5 L37.8125,5 C39.5729076,5 41,6.39237989 41,8.10996752 L41,19" id="Path" stroke-linecap="round"></path>
            <path d="M41,41 L41,52.9099749 C41,54.6165486 39.5729076,56 37.8125,56 L24,56" id="Path" stroke-linecap="round"></path>
            <path d="M46.3577776,42.5629782 L46.3577776,30.9641969 L48.8067776,33.4131969 C49.6249251,34.2313404 50.9514,34.2313404 51.7695476,33.4131969 L54.1383176,31.0443969 C54.9564461,30.2262423 54.9564327,28.8997751 54.1382876,28.0816369 L44.1073576,18.0506269 C43.2892112,17.2324902 41.962744,17.2324902 41.1445976,18.0506269 L37.2943976,21.9008269 L31.1135976,28.0816269 C30.2954675,28.8997722 30.2954675,30.2262317 31.1135976,31.0443769 L33.4824176,33.4131969 C34.3005651,34.2313404 35.62704,34.2313404 36.4451876,33.4131969 L38.8941376,30.9641969 L38.8941376,42.5629782" id="Path" stroke-linecap="round" stroke-linejoin="round" transform="translate(42.625953, 30.000001) rotate(-270.000000) translate(-42.625953, -30.000001) "></path>
        </g>
    </g>
</svg>