<?xml version="1.0" encoding="UTF-8"?>
<svg width="96px" height="96px" viewBox="0 0 96 96" version="1.1" xmlns="http://www.w3.org/2000/svg"
    xmlns:xlink="http://www.w3.org/1999/xlink">
    <g id="Campaigns-/-04-XL-/-13-check-in-xl" stroke="none" stroke-width="1" fill="none"
        fill-rule="evenodd">
        <g id="Group" transform="translate(23.000000, 18.000000)">
            <path
                d="M41.81885,54.3427703 C41.6286313,54.3429092 41.4454932,54.2706314 41.30664,54.1406201 L36.23779,49.4023401 C35.9359736,49.1192992 35.9203973,48.6453013 36.2029801,48.3430562 C36.4855629,48.040811 36.9595366,48.0245159 37.26221,48.30664 L41.80811,52.5561501 L50.72656,43.87015 C50.9180648,43.6810949 51.1961779,43.6091288 51.4553476,43.6815646 C51.7145173,43.7540005 51.9150154,43.9597347 51.9807471,44.2206853 C52.0464789,44.481636 51.9673683,44.7578017 51.77344,44.94437 L42.34229,54.1299101 C42.2022995,54.2664925 42.0144314,54.3428902 41.81885,54.3427703 Z"
                fill="currentColor" fill-rule="nonzero"></path>
            <path
                d="M43.0584768,35.900712 C44.8392006,32.0127814 45.999122,27.9291569 45.999122,23.8877462 C46.071178,15.3783672 41.7033973,7.48343816 34.5578357,3.20718778 C27.4122741,-1.06906259 18.5877259,-1.06906259 11.4421643,3.20718778 C4.29660269,7.48343816 -0.0711779978,15.3783672 0.000877959737,23.8877462 C0.000877959737,40.9078896 20.5734696,58.6766451 21.4492428,59.423824 C21.566215,59.5076806 21.6903558,59.5804038 21.8201295,59.6410942 C21.9031998,59.6971141 21.9895817,59.7477465 22.0787725,59.7926966 C22.3691335,59.9232761 22.6816231,59.9937167 22.9984136,60 C23.3183769,59.9937167 23.6308665,59.9232761 23.9212275,59.7926966 C24.0104183,59.7477465 24.0968002,59.6971141 24.1798705,59.6410942 C24.3096442,59.5804038 24.433785,59.5076806 24.5507572,59.423824 C24.8705726,59.1510053 27.8170938,56.6082159 31.4292273,52.6608669"
                id="Path" stroke="currentColor" stroke-width="1.5" fill-rule="nonzero"></path>
            <path
                d="M33,22 C33,16.4771525 28.5228475,12 23,12 C17.4771525,12 13,16.4771525 13,22 C13,27.5228475 17.4771525,32 23,32 C28.5202046,31.9936246 32.9936246,27.5202046 33,22 L33,22 Z"
                id="Path" stroke="currentColor" stroke-width="1.5" fill-rule="nonzero"></path>
            <circle id="Oval" stroke="currentColor" stroke-width="1.5" stroke-linecap="round"
                stroke-linejoin="round" cx="44" cy="49" r="13"></circle>
        </g>
    </g>
</svg>