<?xml version="1.0" encoding="UTF-8"?>
<svg width="96px" height="96px" viewBox="0 0 96 96" version="1.1" xmlns="http://www.w3.org/2000/svg"
    xmlns:xlink="http://www.w3.org/1999/xlink">
    <title>Actions / 04 XL / 06-check-xl</title>
    <g id="Actions-/-04-XL-/-06-check-xl" stroke="none" stroke-width="1" fill="currentColor">
        <path
            d="M47.75,17 C64.706,17 78.5,30.794 78.5,47.75 C78.5,64.706 64.706,78.5 47.75,78.5 C30.794,78.5 17,64.706 17,47.75 C17,30.794 30.794,17 47.75,17 Z M47.75,18.5 C31.622,18.5 18.5,31.622 18.5,47.75 C18.5,63.878 31.622,77 47.75,77 C63.878,77 77,63.878 77,47.75 C77,31.622 63.878,18.5 47.75,18.5 Z M56.4733,36.6934 C57.8203,36.6934 59.0843,37.2154 60.0313,38.1634 C60.9783,39.1104 61.5003,40.3744 61.5003,41.7214 C61.5003,43.0694 60.9783,44.3334 60.0313,45.2794 L47.9733,57.3364 C46.9923,58.3174 45.7033,58.8074 44.4153,58.8084 C43.1263,58.8084 41.8383,58.3174 40.8573,57.3364 L35.4683,51.9484 C33.5073,49.9874 33.5073,46.7954 35.4683,44.8324 C37.4303,42.8714 40.6243,42.8704 42.5853,44.8324 L44.4163,46.6614 L52.9143,38.1634 C53.8613,37.2154 55.1263,36.6934 56.4733,36.6934 Z M53.9753,39.2234 L44.9463,48.2524 C44.6533,48.5454 44.1783,48.5454 43.8853,48.2524 L41.5243,45.8924 C40.8363,45.2044 39.9313,44.8604 39.0273,44.8604 C38.1223,44.8604 37.2183,45.2044 36.5293,45.8924 C35.1523,47.2704 35.1523,49.5114 36.5293,50.8884 L41.9183,56.2764 C43.2453,57.6034 45.5863,57.6024 46.9123,56.2764 L58.9703,44.2194 C59.6343,43.5554 60.0003,42.6684 60.0003,41.7214 C60.0003,40.7744 59.6343,39.8874 58.9703,39.2234 C57.6423,37.8954 55.3033,37.8954 53.9753,39.2234 Z"></path>
    </g>
</svg>