<?xml version="1.0" encoding="utf-8"?>
<!-- Generator: Adobe Illustrator 25.0.1, SVG Export Plug-In . SVG Version: 6.00 Build 0)  -->
<svg version="1.1" id="icon" xmlns="http://www.w3.org/2000/svg" xmlns:xlink="http://www.w3.org/1999/xlink" x="0px" y="0px"
	 viewBox="0 0 96 96" style="enable-background:new 0 0 96 96;" xml:space="preserve">
<g fill="currentColor">
	<polygon class="st0" points="40.2,23.7 40.2,23.7 40.2,23.7 	"/>
	<polygon class="st0" points="46.5,39.1 46.5,39.1 46.5,39.1 	"/>
	<path class="st0" d="M75,56.6h-3.6v-9.4c0-1.5-1.3-2.8-2.8-2.8H48.8v-5c0.8-0.2,1.5-0.7,1.9-1.4l0,0l6.3-10.1l0,0
		c0.3-0.5,0.4-1,0.4-1.5c0-1.7-1.4-3-3-3H41.7c-0.5,0-1.1,0.1-1.5,0.4c-1,0.6-1.5,1.6-1.5,2.6c0,0.5,0.1,1,0.4,1.5l0,0L45.4,38l0,0
		c0.3,0.5,0.7,0.9,1.1,1.1c0.2,0.1,0.5,0.2,0.7,0.3v5H27c-1.5,0-2.8,1.3-2.8,2.8v9.4H21c-2.1,0-3.7,1.7-3.7,3.7v8.8
		c0,2.1,1.7,3.7,3.7,3.7h8.8c2.1,0,3.7-1.7,3.7-3.7v-8.8c0-2.1-1.7-3.7-3.7-3.7h-4.1v-9.4c0-0.7,0.6-1.3,1.3-1.3h20.3v10.7h-3.6
		c-2.1,0-3.7,1.7-3.7,3.7v8.8c0,2.1,1.7,3.7,3.7,3.7h8.8c2.1,0,3.7-1.7,3.7-3.7v-8.8c0-2.1-1.7-3.7-3.7-3.7h-3.6V45.9h19.8
		c0.7,0,1.3,0.6,1.3,1.3v9.4h-3.6c-2.1,0-3.7,1.7-3.7,3.7v8.8c0,2.1,1.7,3.7,3.7,3.7H75c2.1,0,3.7-1.7,3.7-3.7v-8.8
		C78.7,58.2,77.1,56.6,75,56.6z M32,60.3v8.8c0,1.2-1,2.2-2.2,2.2H21c-1.2,0-2.2-1-2.2-2.2v-8.8c0-1.2,1-2.2,2.2-2.2h8.8
		C31,58.1,32,59.1,32,60.3z M54.6,60.3v8.8c0,1.2-1,2.2-2.2,2.2h-8.8c-1.2,0-2.2-1-2.2-2.2v-8.8c0-1.2,1-2.2,2.2-2.2h8.8
		C53.6,58.1,54.6,59.1,54.6,60.3z M47.2,37.8c-0.2-0.1-0.4-0.3-0.6-0.6l0,0L40.4,27c-0.1-0.2-0.2-0.5-0.2-0.8c0-0.5,0.3-1,0.8-1.3
		l0,0c0.2-0.1,0.5-0.2,0.8-0.2h12.6c0.8,0,1.5,0.7,1.5,1.5c0,0.3-0.1,0.5-0.2,0.8l-6.3,10.1l0,0C49.1,37.7,48.5,38,48,38
		C47.7,38,47.5,37.9,47.2,37.8L47.2,37.8z M77.2,69.1c0,1.2-1,2.2-2.2,2.2h-8.8c-1.2,0-2.2-1-2.2-2.2v-8.8c0-1.2,1-2.2,2.2-2.2H75
		c1.2,0,2.2,1,2.2,2.2V69.1z"/>
</g>
</svg>
