<?xml version="1.0" encoding="utf-8"?>
<!-- Generator: Adobe Illustrator 26.5.3, SVG Export Plug-In . SVG Version: 6.00 Build 0)  -->
<svg version="1.1" id="icon" xmlns="http://www.w3.org/2000/svg" xmlns:xlink="http://www.w3.org/1999/xlink" x="0px" y="0px"
	 viewBox="0 0 96 96" style="enable-background:new 0 0 96 96;" xml:space="preserve">

<g fill="currentColor">
	<path class="st0" d="M75.9,23.6H20.1c-1.6,0-2.8,1.3-2.8,2.8v32.7c0,0.1,0,0.2,0,0.2c-3.1,2.5-5.1,6.4-5.1,10.7
		c0,7.6,6.2,13.7,13.8,13.8c6.7,0,12.2-4.7,13.5-11h36.5c1.6,0,2.8-1.3,2.8-2.8V26.4C78.7,24.8,77.5,23.6,75.9,23.6z M34.6,78.7
		c-2.2,2.2-5.3,3.6-8.7,3.6c-3.4,0-6.4-1.4-8.7-3.6c-2.2-2.2-3.6-5.3-3.6-8.7c0-3.4,1.4-6.4,3.6-8.7c2.2-2.2,5.3-3.6,8.7-3.6
		c3.4,0,6.4,1.4,8.7,3.6c2.2,2.2,3.6,5.3,3.6,8.7C38.2,73.4,36.9,76.4,34.6,78.7z M77.2,69.9c0,0.7-0.6,1.3-1.3,1.3H39.7
		c0-0.4,0.1-0.8,0.1-1.2c0-7.6-6.2-13.7-13.8-13.8c-2.7,0-5.1,0.8-7.2,2.1V26.4c0-0.7,0.6-1.3,1.3-1.3h55.9c0.7,0,1.3,0.6,1.3,1.3
		V69.9z"/>
	<path class="st0" d="M50.3,40.7c0.2-0.5,0.5-0.8,0.7-1c0.2-0.2,0.4-0.3,0.6-0.3h2.2c0.4,0,0.8-0.3,0.8-0.8c0-0.4-0.3-0.8-0.8-0.8
		h-2.2c-0.6,0-1.1,0.2-1.6,0.6c-0.4,0.4-0.8,0.9-1.1,1.5L46.1,46c-0.2,0.5-0.5,0.8-0.7,1c-0.2,0.2-0.4,0.3-0.6,0.3h-2.6
		c-0.4,0-0.8,0.3-0.8,0.8c0,0.4,0.3,0.8,0.8,0.8h2.6c0.2,0,0.3,0.1,0.6,0.3c0.2,0.2,0.5,0.5,0.7,1L49,56c0.3,0.6,0.7,1.1,1.1,1.5
		c0.4,0.4,1,0.6,1.6,0.6h2.2c0.4,0,0.8-0.3,0.8-0.8c0-0.4-0.3-0.8-0.8-0.8h-2.2c-0.2,0-0.3-0.1-0.6-0.3c-0.2-0.2-0.5-0.5-0.7-1
		l-2.8-5.9c-0.3-0.6-0.6-1-1-1.4c0.4-0.4,0.7-0.8,1-1.4L50.3,40.7z"/>
	<path class="st0" d="M36.2,41h-6.5c-2.1,0-3.7,1.7-3.7,3.7v6.5c0,2.1,1.7,3.7,3.7,3.7h6.5c2.1,0,3.7-1.7,3.7-3.7v-6.5
		C39.9,42.7,38.2,41,36.2,41z M38.4,51.3c0,1.2-1,2.2-2.2,2.2h-6.5c-1.2,0-2.2-1-2.2-2.2v-6.5c0-1.2,1-2.2,2.2-2.2h6.5
		c1.2,0,2.2,1,2.2,2.2V51.3z"/>
	<path class="st0" d="M66.3,31.6h-6.5c-2.1,0-3.7,1.7-3.7,3.7v6.5c0,2.1,1.7,3.7,3.7,3.7h6.5c2.1,0,3.7-1.7,3.7-3.7v-6.5
		C70.1,33.3,68.4,31.6,66.3,31.6z M68.6,41.9c0,1.2-1,2.2-2.2,2.2h-6.5c-1.2,0-2.2-1-2.2-2.2v-6.5c0-1.2,1-2.2,2.2-2.2h6.5
		c1.2,0,2.2,1,2.2,2.2V41.9z"/>
	<path class="st0" d="M66.3,50.3h-6.5c-2.1,0-3.7,1.7-3.7,3.7v6.5c0,2.1,1.7,3.7,3.7,3.7h6.5c2.1,0,3.7-1.7,3.7-3.7v-6.5
		C70.1,52,68.4,50.3,66.3,50.3z M68.6,60.6c0,1.2-1,2.2-2.2,2.2h-6.5c-1.2,0-2.2-1-2.2-2.2v-6.5c0-1.2,1-2.2,2.2-2.2h6.5
		c1.2,0,2.2,1,2.2,2.2V60.6z"/>
	<path class="st0" d="M32.1,68c0,0-0.4,0-0.7,0l-0.2-0.1l0,0l0-0.1l0.1-0.1l0.5-0.5c0.3-0.3,0.3-0.8,0-1.1L30,64.3
		c-0.3-0.3-0.8-0.3-1.1,0l-0.5,0.5l-0.2,0.1l-0.1,0c-0.1,0-0.1-0.1-0.1-0.2v-0.7c0-0.2-0.1-0.4-0.2-0.5c-0.1-0.1-0.3-0.2-0.5-0.2
		h-2.5c-0.2,0-0.4,0.1-0.5,0.2S24,63.7,24,63.9l0,0.7c0,0.1-0.1,0.2-0.1,0.2l-0.1,0l-0.2-0.1l-0.5-0.5c-0.3-0.3-0.8-0.3-1.1,0
		L20.2,66c-0.3,0.3-0.3,0.8,0,1.1l0.5,0.5l0.1,0.2l0,0.1c0,0.1-0.1,0.1-0.2,0.1l-0.7,0c-0.2,0-0.4,0.1-0.5,0.2
		c-0.1,0.1-0.2,0.3-0.2,0.5v2.5c0,0.4,0.3,0.7,0.7,0.8l0.9,0l0.1,0.3l-0.6,0.6C20.1,73,20,73.2,20,73.4s0.1,0.4,0.2,0.5l1.8,1.8
		c0.1,0.1,0.3,0.2,0.5,0.2c0.2,0,0.4-0.1,0.5-0.2l0.5-0.5l0.2-0.1l0.1,0c0.1,0,0.2,0.1,0.2,0.2v0.7c0,0.2,0.1,0.4,0.2,0.5
		s0.3,0.2,0.5,0.2h2.5c0.2,0,0.4-0.1,0.5-0.2c0.1-0.1,0.2-0.3,0.2-0.5l0-0.7v0l0.1-0.2l0.1,0l0.2,0.1l0.5,0.5
		c0.1,0.1,0.3,0.2,0.5,0.2c0.2,0,0.4-0.1,0.5-0.2l1.8-1.8c0.1-0.1,0.2-0.3,0.2-0.4v0c0-0.2-0.1-0.5-0.2-0.6l-0.5-0.5l-0.1-0.1l0-0.1
		l0-0.1l0.2-0.1l0,0v0l0.6,0c0.4,0,0.7-0.3,0.7-0.7l0.1-2.5c0-0.2-0.1-0.4-0.2-0.6S32.3,68,32.1,68z M29.8,71.5L29.8,71.5
		c-0.1,0.3-0.2,0.5-0.2,0.7c0,0.4,0.2,0.9,0.5,1.2l0,0l-0.7,0.7c-0.3-0.3-0.8-0.5-1.2-0.5c-0.2,0-0.4,0-0.7,0.1
		c-0.6,0.3-1.1,0.9-1.1,1.6h-1c0-0.7-0.4-1.3-1.1-1.6c-0.2-0.1-0.4-0.1-0.6-0.1c-0.4,0-0.9,0.2-1.2,0.5l-0.7-0.7l0.1-0.1
		c0.3-0.3,0.4-0.6,0.4-1c0-0.2,0-0.4-0.1-0.5l-0.2-0.4c-0.2-0.5-0.7-0.9-1.3-0.9l-0.2,0v-1l0,0l0,0c0.7,0,1.3-0.4,1.6-1.1
		c0.1-0.2,0.1-0.4,0.1-0.7c0-0.4-0.2-0.9-0.5-1.2l0.7-0.7c0.3,0.3,0.8,0.5,1.2,0.5c0.2,0,0.4,0,0.7-0.1c0.6-0.3,1.1-0.9,1.1-1.6h1
		c0,0.7,0.4,1.3,1.1,1.6c0.2,0.1,0.4,0.1,0.7,0.1c0.4,0,0.9-0.2,1.2-0.5l0.7,0.7c-0.3,0.3-0.5,0.8-0.5,1.2c0,0.2,0,0.4,0.1,0.7l0,0
		c0.3,0.6,0.9,1,1.5,1l-0.1,1C30.6,70.5,30,70.9,29.8,71.5z"/>
	<polygon class="st0" points="20.8,70.5 20.8,70.5 20.8,70.5 	"/>
	<path class="st0" d="M26.1,67.2c-1.5,0-2.7,1.2-2.7,2.7c0,1.5,1.2,2.7,2.7,2.7c1.5,0,2.7-1.2,2.7-2.7
		C28.8,68.4,27.6,67.2,26.1,67.2z M26.1,71.1c-0.7,0-1.2-0.5-1.2-1.2c0-0.7,0.5-1.2,1.2-1.2c0.7,0,1.2,0.5,1.2,1.2
		C27.3,70.5,26.8,71,26.1,71.1z"/>
</g>
</svg>
