<?xml version="1.0" encoding="utf-8"?>
<!-- Generator: Adobe Illustrator 26.5.3, SVG Export Plug-In . SVG Version: 6.00 Build 0)  -->
<svg version="1.1" id="icon" xmlns="http://www.w3.org/2000/svg" xmlns:xlink="http://www.w3.org/1999/xlink" x="0px" y="0px"
	 viewBox="0 0 96 96" style="enable-background:new 0 0 96 96;" xml:space="preserve">

<g fill="currentColor">
	<path class="st0" d="M46.8,46.3l4-8.4c0.3-0.7,0.7-1.2,1.1-1.6c0.4-0.3,0.7-0.4,1-0.4h3c0.4,0,0.8-0.3,0.8-0.8
		c0-0.4-0.3-0.8-0.8-0.8h-3c-0.7,0-1.4,0.3-2,0.8c-0.6,0.5-1.1,1.2-1.5,2l-4,8.4c-0.3,0.7-0.7,1.2-1.1,1.6c-0.4,0.3-0.7,0.4-1,0.4
		h-3.7c-0.4,0-0.8,0.3-0.8,0.8c0,0.4,0.3,0.8,0.8,0.8h3.7c0.3,0,0.6,0.1,1,0.4c0.4,0.3,0.8,0.8,1.1,1.6l4,8.4c0.4,0.8,0.9,1.5,1.5,2
		c0.6,0.5,1.3,0.8,2,0.8h3c0.4,0,0.8-0.3,0.8-0.8c0-0.4-0.3-0.8-0.8-0.8h-3c-0.3,0-0.6-0.1-1-0.4c-0.4-0.3-0.8-0.8-1.1-1.6l-4-8.4
		c-0.4-0.8-0.9-1.5-1.5-2c0,0-0.1,0-0.1-0.1c0,0,0.1,0,0.1-0.1C46,47.8,46.4,47.1,46.8,46.3z"/>
	<path class="st0" d="M32.4,38.8H20.7c-2.1,0-3.7,1.7-3.7,3.7v11.7c0,2.1,1.7,3.7,3.7,3.7h11.7c2.1,0,3.7-1.7,3.7-3.7V42.5
		C36.1,40.4,34.4,38.8,32.4,38.8z M34.6,54.2c0,1.2-1,2.2-2.2,2.2H20.7c-1.2,0-2.2-1-2.2-2.2V42.5c0-1.2,1-2.2,2.2-2.2h11.7
		c1.2,0,2.2,1,2.2,2.2V54.2z"/>
	<path class="st0" d="M75,25.6H63.3c-2.1,0-3.7,1.7-3.7,3.7V41c0,2.1,1.7,3.7,3.7,3.7H75c2.1,0,3.7-1.7,3.7-3.7V29.3
		C78.7,27.2,77.1,25.6,75,25.6z M77.2,41c0,1.2-1,2.2-2.2,2.2H63.3c-1.2,0-2.2-1-2.2-2.2V29.3c0-1.2,1-2.2,2.2-2.2H75
		c1.2,0,2.2,1,2.2,2.2V41z"/>
	<path class="st0" d="M75,52H63.3c-2.1,0-3.7,1.7-3.7,3.7v11.7c0,2.1,1.7,3.7,3.7,3.7H75c2.1,0,3.7-1.7,3.7-3.7V55.7
		C78.7,53.7,77.1,52,75,52z M77.2,67.4c0,1.2-1,2.2-2.2,2.2H63.3c-1.2,0-2.2-1-2.2-2.2V55.7c0-1.2,1-2.2,2.2-2.2H75
		c1.2,0,2.2,1,2.2,2.2V67.4z"/>
</g>
</svg>
