<?xml version="1.0" encoding="utf-8"?>
<!-- Generator: Adobe Illustrator 25.2.3, SVG Export Plug-In . SVG Version: 6.00 Build 0)  -->
<svg version="1.1" id="Warstwa_1" xmlns="http://www.w3.org/2000/svg" xmlns:xlink="http://www.w3.org/1999/xlink" x="0px" y="0px"
	 viewBox="0 0 96 96" style="enable-background:new 0 0 96 96;" xml:space="preserve">

<g fill="currentColor">
	<polygon class="st0" points="44.4,58.7 44.4,58.7 44.4,58.7 	"/>
	<polygon class="st0" points="65.9,23.5 65.9,23.5 65.9,23.5 	"/>
	<polygon class="st0" points="78.5,48.8 78.5,48.8 78.5,48.8 	"/>
	<polygon class="st0" points="51.2,48.8 51.2,48.8 51.2,48.8 	"/>
	<polygon class="st0" points="67,24.6 67,24.6 67,24.6 	"/>
	<path class="st0" d="M78.8,49.9C78.8,49.8,78.7,49.8,78.8,49.9L78.8,49.9c0-0.4-0.1-0.7-0.2-1.1L67,24.6c-0.2-0.5-0.6-0.9-1.1-1.1
		c-0.3-0.1-0.6-0.2-0.9-0.2c0,0,0,0,0,0c0,0,0,0-0.1,0c-0.4,0-0.8,0.1-1.1,0.3L48,28v-4c0-0.4-0.3-0.8-0.8-0.8s-0.8,0.3-0.8,0.8v4.5
		L30,33.2c-0.2,0.1-0.3,0.2-0.4,0.3c-0.4,0.2-0.8,0.6-1,1L17.1,58.7l0,0c-0.2,0.3-0.2,0.7-0.2,1l0,0v0v0l0,0l0,0
		C17.1,67.1,23,73,30.4,73.3h0c0.1,0,0.3,0,0.4,0c7.5,0,13.7-6,13.9-13.5l0,0l0,0c0,0,0,0,0,0c0,0,0,0,0,0l0,0c0-0.4-0.1-0.7-0.2-1
		L33,34.5c-0.1-0.2-0.2-0.4-0.4-0.5l13.9-4v8.8c0,0.4,0.3,0.8,0.8,0.8s0.8-0.3,0.8-0.8v-9.3l14.3-4.1L51.2,48.8
		c-0.2,0.3-0.2,0.7-0.2,1l0,0l0,0c0.2,7.4,6.1,13.3,13.5,13.5c0.1,0,0.3,0,0.4,0C72.3,63.4,78.5,57.4,78.8,49.9L78.8,49.9L78.8,49.9
		C78.7,49.9,78.8,49.9,78.8,49.9z M30.8,71.8c-0.1,0-0.2,0-0.4,0h0c-6.3-0.2-11.4-5.1-12-11.3h24.7C42.5,66.9,37.2,71.8,30.8,71.8z
		 M42.9,59H18.6L30,35.2c0.2-0.3,0.5-0.5,0.8-0.5c0.1,0,0.3,0,0.4,0.1c0.2,0.1,0.3,0.2,0.4,0.4L42.9,59z M64.9,24.8
		c0.1,0,0.2,0,0.3,0.1l0,0c0.2,0.1,0.3,0.2,0.4,0.4l0,0L77,49.1H52.7L64,25.3c0.1-0.1,0.2-0.3,0.3-0.3L64.9,24.8z M64.9,61.9
		c-0.1,0-0.2,0-0.4,0c-6.3-0.2-11.4-5.1-12-11.3h24.7C76.6,56.9,71.3,61.9,64.9,61.9z"/>
</g>
</svg>
