<?xml version="1.0" encoding="UTF-8"?>
<svg width="96px" height="96px" viewBox="0 0 96 96" version="1.1" xmlns="http://www.w3.org/2000/svg" xmlns:xlink="http://www.w3.org/1999/xlink">
    <!-- Generator: Sketch 64 (93537) - https://sketch.com -->
    <title>Campaigns / 04 XL / 09-coupon-xl</title>
    <desc>Created with Sketch.</desc>
    <g id="Campaigns-/-04-XL-/-09-coupon-xl" stroke="none" stroke-width="1" fill="none" fill-rule="evenodd" stroke-linecap="round" stroke-linejoin="round">
        <g id="Group" transform="translate(17.707760, 23.999937)" stroke="currentColor" stroke-width="1.5">
            <path d="M60.3897,14.3643728 L60.3897,2.66631282 C60.3794729,1.18370647 59.1694073,-0.00997330886 57.6868,-7.10542736e-15 L2.70285,-7.10542736e-15 C1.22024269,-0.00997330886 0.0101770904,1.18370647 -1.38555833e-13,2.66631282 L-1.38555833e-13,14.3650628 C3.11005211,14.3271969 6.00019995,15.9646926 7.56625965,18.651943 C9.13231935,21.3391935 9.13231935,24.6609922 7.56625965,27.3482426 C6.00019995,30.0354931 3.11005211,31.6729888 -1.38555833e-13,31.6351228 L-1.38555833e-13,43.3338128 C0.0101770904,44.8164192 1.22024269,46.010099 2.70285,46.0001256 L57.68685,46.0001256 C59.1694573,46.010099 60.3795229,44.8164192 60.3897,43.3338128 L60.3897,14.3643728 L60.3897,14.3643728 Z" id="Path"></path>
            <line x1="47.96748" y1="32.6653328" x2="28.61656" y2="13.3352328" id="Path"></line>
            <ellipse id="Oval" cx="46.66648" cy="15.6713228" rx="4.62576" ry="4.62078"></ellipse>
            <ellipse id="Oval" cx="29.91756" cy="30.3292428" rx="4.62532" ry="4.62035"></ellipse>
            <line x1="16.79224" y1="0.000132824582" x2="16.79224" y2="7.77582282" id="Path"></line>
            <line x1="16.79224" y1="12.7415628" x2="16.79224" y2="20.5172428" id="Path"></line>
            <line x1="16.79224" y1="25.4829828" x2="16.79224" y2="33.2586628" id="Path"></line>
            <line x1="16.79224" y1="38.2244028" x2="16.79224" y2="46.0000828" id="Path"></line>
        </g>
    </g>
</svg>