<?xml version="1.0" encoding="UTF-8"?>
<svg width="96px" height="96px" viewBox="0 0 96 96" version="1.1" xmlns="http://www.w3.org/2000/svg" xmlns:xlink="http://www.w3.org/1999/xlink">
    <!-- Generator: Sketch 64 (93537) - https://sketch.com -->
    <title>Objects / 04 XL / 01-cup-xl</title>
    <desc>Created with Sketch.</desc>
    <g id="Objects-/-04-XL-/-01-cup-xl" stroke="none" stroke-width="1" fill="none" fill-rule="evenodd">
        <g id="Group" transform="translate(23.000000, 21.000000)" stroke="currentColor" stroke-width="1.5">
            <path d="M42.4204,21.84022 C42.4204,32.15182 34.65884,40.51102 25.08447,40.51102 C15.5101,40.51102 7.74853,32.15182 7.74853,21.84022 L7.74853,2 C7.74853,0.8954305 8.6439605,0 9.74853,0 L40.4204,0 C41.5249695,0 42.4204,0.8954305 42.4204,2 L42.4204,21.84022 Z" id="Path" stroke-linecap="round" stroke-linejoin="round"></path>
            <path d="M42.4204,3.8086077 L48,3.8086077 C49.1045695,3.8086077 50,4.7040382 50,5.8086077 L50,14.5753037 C50,18.7614012 46.6064975,22.1549037 42.4204,22.1549037 L42.4204,22.1549037 L42.4204,22.1549037" id="Path" stroke-linecap="round" stroke-linejoin="round"></path>
            <path d="M0,3.8086077 L5.5796,3.8086077 C6.6841695,3.8086077 7.5796,4.7040382 7.5796,5.8086077 L7.5796,14.5753037 C7.5796,18.7614012 4.18609749,22.1549037 0,22.1549037 L0,22.1549037 L0,22.1549037" id="Path" stroke-linecap="round" stroke-linejoin="round" transform="translate(3.789800, 12.981756) scale(-1, 1) translate(-3.789800, -12.981756) "></path>
            <line x1="25.5554" y1="10.00598" x2="25.5554" y2="20.31643" id="Path" stroke-linecap="round" stroke-linejoin="round"></line>
            <line x1="23.36821" y1="20.31643" x2="27.74258" y2="20.31643" id="Path" stroke-linecap="round" stroke-linejoin="round"></line>
            <line x1="22.46224" y1="12.0641" x2="25.5554" y2="10.00598" id="Path" stroke-linecap="round" stroke-linejoin="round"></line>
            <line x1="25" y1="41" x2="25" y2="49.5" id="Path-13"></line>
            <line x1="14.5" y1="49.5" x2="35.605" y2="49.5" id="Path-14" stroke-linecap="round"></line>
        </g>
    </g>
</svg>