<?xml version="1.0" encoding="UTF-8"?>
<svg width="96px" height="96px" viewBox="0 0 96 96" version="1.1" xmlns="http://www.w3.org/2000/svg" xmlns:xlink="http://www.w3.org/1999/xlink">
    <!-- Generator: Sketch 64 (93537) - https://sketch.com -->
    <title>Ecommerce / 04 XL / 03-discount-xl</title>
    <desc>Created with Sketch.</desc>
    <g id="Ecommerce-/-04-XL-/-03-discount-xl" stroke="none" stroke-width="1" fill="none" fill-rule="evenodd" stroke-linecap="round" stroke-linejoin="round">
        <g id="Group" transform="translate(-0.000000, -0.000000)" stroke="currentColor" stroke-width="1.5">
            <circle id="Oval" cx="55.6789701" cy="55.6897601" r="4.03448"></circle>
            <circle id="Oval" cx="40.33351" cy="40.32188" r="4.03448"></circle>
            <line x1="56.7750001" y1="39.22533" x2="39.225" y2="56.7746701" id="Path"></line>
            <path d="M49.2319101,21.52694 L57.2296501,18.93794 C59.0984505,18.3329637 61.1299791,19.1744421 62.0236501,20.92366 L65.8482201,28.4096 C66.2311774,29.1591722 66.8408379,29.7688327 67.5904101,30.15179 L75.0763501,33.97636 C76.825568,34.870031 77.6670464,36.9015596 77.0620701,38.77036 L74.4730701,46.7681 C74.21383,47.5689157 74.21383,48.4311044 74.4730701,49.2319201 L77.0620701,57.2296601 C77.6670464,59.0984605 76.825568,61.1299891 75.0763501,62.0236601 L67.5904101,65.8482301 C66.8408379,66.2311874 66.2311774,66.8408479 65.8482201,67.5904201 L62.0236501,75.0763601 C61.1299791,76.825578 59.0984505,77.6670564 57.2296501,77.0620801 L49.2319101,74.4730801 C48.4310944,74.21384 47.5689057,74.21384 46.76809,74.4730801 L38.77035,77.0620801 C36.9015496,77.6670564 34.870021,76.825578 33.97635,75.0763601 L30.15178,67.5904201 C29.7688227,66.8408479 29.1591622,66.2311874 28.40959,65.8482301 L20.92365,62.0236601 C19.1744321,61.1299891 18.3329537,59.0984605 18.93793,57.2296601 L21.52693,49.2319201 C21.7861701,48.4311044 21.7861701,47.5689157 21.52693,46.7681 L18.93793,38.77036 C18.3329537,36.9015596 19.1744321,34.870031 20.92365,33.97636 L28.40959,30.15179 C29.1591622,29.7688327 29.7688227,29.1591722 30.15178,28.4096 L33.97635,20.92366 C34.870021,19.1744421 36.9015496,18.3329637 38.77035,18.93794 L46.76809,21.52694 C47.5689057,21.7861801 48.4310944,21.7861801 49.2319101,21.52694 Z" id="Path"></path>
        </g>
    </g>
</svg>