<svg width="96" height="96" viewBox="0 0 96 96" fill="none" xmlns="http://www.w3.org/2000/svg">
    <path fill-rule="evenodd" clip-rule="evenodd"
        d="M18.5 47.75C18.5 31.622 31.622 18.5 47.75 18.5C63.878 18.5 77 31.622 77 47.75C77 63.878 63.878 77 47.75 77C31.622 77 18.5 63.878 18.5 47.75ZM17 47.75C17 64.706 30.794 78.5 47.75 78.5C64.706 78.5 78.5 64.706 78.5 47.75C78.5 30.794 64.706 17 47.75 17C30.794 17 17 30.794 17 47.75ZM44.487 38.4882C42.8361 36.8373 40.1391 36.8373 38.4882 38.4882C36.8373 40.1391 36.8373 42.8361 38.4882 44.487L42.3803 48.3792L38.4881 52.2714C36.8373 53.9222 36.8373 56.6193 38.4881 58.2702C40.139 59.9211 42.8362 59.921 44.487 58.2702L48.3792 54.378L52.2714 58.2702C53.9222 59.9211 56.6193 59.9211 58.2702 58.2702C59.9211 56.6193 59.9211 53.9222 58.2702 52.2714L54.378 48.3792L58.2702 44.487C59.921 42.8361 59.921 40.1391 58.2701 38.4882C56.6192 36.8373 53.9222 36.8373 52.2714 38.4881L48.3792 42.3803L44.487 38.4882ZM39.5488 39.5488C40.614 38.4837 42.3612 38.4837 43.4264 39.5488L47.8488 43.9713C47.9895 44.112 48.1803 44.191 48.3792 44.191C48.5781 44.191 48.7689 44.112 48.9095 43.9713L53.332 39.5488C54.397 38.4838 56.1443 38.4838 57.2095 39.5489C58.2746 40.614 58.2746 42.3613 57.2095 43.4263L52.787 47.8488C52.6464 47.9895 52.5674 48.1803 52.5674 48.3792C52.5674 48.5781 52.6464 48.7689 52.787 48.9095L57.2095 53.332C58.2746 54.3971 58.2747 56.1444 57.2095 57.2095C56.1444 58.2747 54.3971 58.2746 53.332 57.2095L48.9095 52.787C48.7689 52.6464 48.5781 52.5674 48.3792 52.5674C48.1803 52.5674 47.9895 52.6464 47.8488 52.787L43.4263 57.2095C42.3613 58.2746 40.6139 58.2746 39.5488 57.2095C38.4837 56.1445 38.4838 54.3971 39.5488 53.332L43.9713 48.9095C44.112 48.7689 44.191 48.5781 44.191 48.3792C44.191 48.1803 44.112 47.9895 43.9713 47.8488L39.5488 43.4264C38.4837 42.3612 38.4837 40.614 39.5488 39.5488Z"
        fill="currentColor" />
</svg>