<?xml version="1.0" encoding="UTF-8"?>
<svg width="96px" height="96px" viewBox="0 0 96 96" version="1.1" xmlns="http://www.w3.org/2000/svg"
    xmlns:xlink="http://www.w3.org/1999/xlink">
    <title>Information / 04 XL / 03-event-xl</title>
    <g id="Information-/-04-XL-/-03-event-xl" stroke="none" stroke-width="1" fill-rule="evenodd"
        fill="currentColor">
        <path
            d="M47.9707,18 C50.6107,18 52.7587,20.148 52.7587,22.789 L52.7587,22.789 L52.7587,23.784 C60.7957,25.928 66.7787,33.298 66.7787,41.946 L66.7787,41.946 L66.7787,52.787 C66.7787,55.222 67.2087,57.613 68.0567,59.893 L68.0567,59.893 L70.9947,67.8 C71.0797,68.03 71.0467,68.288 70.9067,68.489 C70.7667,68.691 70.5367,68.811 70.2917,68.811 L70.2917,68.811 L57.0597,68.811 C56.9107,73.517 53.0447,77.302 48.3027,77.302 C43.5607,77.302 39.6947,73.517 39.5447,68.811 L39.5447,68.811 L25.6497,68.811 C25.4047,68.811 25.1747,68.691 25.0347,68.489 C24.8947,68.288 24.8617,68.03 24.9467,67.8 L24.9467,67.8 L27.8557,59.969 C28.7227,57.638 29.1627,55.195 29.1627,52.706 L29.1627,52.706 L29.1627,42.42 C29.1627,37.245 31.2997,32.178 35.0267,28.52 C37.3677,26.223 40.1627,24.622 43.1817,23.792 L43.1817,23.792 L43.1817,22.789 C43.1817,20.148 45.3297,18 47.9707,18 Z M55.5597,68.811 L41.0447,68.811 C41.1937,72.69 44.3877,75.802 48.3027,75.802 C52.2177,75.802 55.4117,72.69 55.5597,68.811 L55.5597,68.811 Z M48.3007,24.64 C46.9207,24.616 45.5617,24.782 44.2387,25.089 C44.1767,25.117 44.1087,25.126 44.0397,25.136 C41.0937,25.858 38.3477,27.362 36.0777,29.591 C32.6357,32.969 30.6627,37.644 30.6627,42.42 L30.6627,42.42 L30.6627,52.706 C30.6627,55.374 30.1907,57.993 29.2627,60.491 L29.2627,60.491 L26.7287,67.311 L69.2127,67.311 L66.6497,60.415 C65.7407,57.967 65.2787,55.401 65.2787,52.787 L65.2787,52.787 L65.2787,41.946 C65.2787,33.876 59.6197,27.009 52.0667,25.146 C52.0467,25.148 52.0297,25.158 52.0087,25.158 C51.8627,25.158 51.7347,25.105 51.6197,25.033 C50.5447,24.799 49.4367,24.662 48.3007,24.64 Z M35.2526,45.5546 C35.6666,45.5546 36.0026,45.8906 36.0026,46.3046 L36.0026,46.3046 L36.0026,57.2176 C36.0026,57.6316 35.6666,57.9676 35.2526,57.9676 C34.8386,57.9676 34.5026,57.6316 34.5026,57.2176 L34.5026,57.2176 L34.5026,46.3046 C34.5026,45.8906 34.8386,45.5546 35.2526,45.5546 Z M35.3385,38.6616 C35.7525,38.6616 36.0885,38.9976 36.0885,39.4116 L36.0885,39.4116 L36.0885,41.1296 C36.0885,41.5436 35.7525,41.8796 35.3385,41.8796 C34.9245,41.8796 34.5885,41.5436 34.5885,41.1296 L34.5885,41.1296 L34.5885,39.4116 C34.5885,38.9976 34.9245,38.6616 35.3385,38.6616 Z M61.8681,20.1178 C62.0231,19.7338 62.4591,19.5468 62.8431,19.6998 C67.5051,21.5618 71.1031,25.3638 72.7111,30.1318 C73.4811,32.4148 73.7551,34.7948 73.5261,37.2068 C73.4901,37.5948 73.1631,37.8858 72.7811,37.8858 C72.7571,37.8858 72.7331,37.8848 72.7091,37.8818 C72.2971,37.8428 71.9941,37.4778 72.0331,37.0648 C72.2421,34.8648 71.9921,32.6928 71.2901,30.6108 C69.8221,26.2608 66.5411,22.7918 62.2861,21.0928 C61.9021,20.9398 61.7141,20.5028 61.8681,20.1178 Z M33.7601,19.7003 C34.1451,19.5463 34.5821,19.7333 34.7351,20.1183 C34.8891,20.5033 34.7021,20.9393 34.3171,21.0923 C30.0641,22.7923 26.7821,26.2613 25.3141,30.6113 C24.6121,32.6933 24.3621,34.8643 24.5711,37.0653 C24.6101,37.4773 24.3081,37.8433 23.8961,37.8823 C23.8721,37.8843 23.8481,37.8853 23.8241,37.8853 C23.4411,37.8853 23.1151,37.5943 23.0781,37.2063 C22.8491,34.7953 23.1231,32.4153 23.8931,30.1323 C25.5011,25.3643 29.0981,21.5623 33.7601,19.7003 Z M47.9707,19.5 C46.1567,19.5 44.6817,20.976 44.6817,22.789 L44.6817,22.789 L44.6817,23.437 C45.8737,23.217 47.0937,23.116 48.3297,23.14 C49.3287,23.159 50.3027,23.279 51.2587,23.451 L51.2587,23.451 L51.2587,22.789 C51.2587,20.976 49.7837,19.5 47.9707,19.5 Z"
            fill-rule="nonzero"></path>
    </g>
</svg>