<?xml version="1.0" encoding="UTF-8"?>
<svg width="96px" height="96px" viewBox="0 0 96 96" version="1.1" xmlns="http://www.w3.org/2000/svg" xmlns:xlink="http://www.w3.org/1999/xlink">
    <!-- Generator: Sketch 64 (93537) - https://sketch.com -->
    <title>Files / 04 XL / 04-file-up-xl</title>
    <desc>Created with Sketch.</desc>
    <g id="Files-/-04-XL-/-04-file-up-xl" stroke="none" stroke-width="1" fill="none" fill-rule="evenodd">
        <g id="Group" transform="translate(24.126600, 18.000000)" stroke="currentColor" stroke-width="1.5">
            <path d="M41.9791129,60 C33.53931,60 20.8796057,60 4,60 C1.790861,60 -2.62900812e-13,58.209139 -2.62900812e-13,56 L-2.62900812e-13,4 C-2.62900812e-13,1.790861 1.790861,0 4,0 L29.25984,0 C30.3207065,0 31.3381233,0.421424836 32.08827,1.17157 L46.88015,15.96345 C47.6302952,16.7135967 48.05172,17.7310135 48.05172,18.79188 C48.05172,28.1496773 48.05172,35.1680252 48.05172,39.8469238" id="Path" stroke-linecap="round" stroke-linejoin="round"></path>
            <path d="M27.7674,-3.55271368e-15 L27.7674,16.106 C27.7674,18.315139 29.558261,20.106 31.7674,20.106 L47.8734,20.106" id="Path" stroke-linecap="round" stroke-linejoin="round"></path>
            <line x1="33.6768668" y1="51" x2="0.01293" y2="51" id="Path" stroke-linecap="round" stroke-linejoin="round"></line>
            <line x1="41.6553824" y1="42" x2="0.01293" y2="42" id="Path" stroke-linecap="round" stroke-linejoin="round"></line>
            <line x1="9.8734" y1="42" x2="9.8734" y2="60" id="Path-4"></line>
            <line x1="19.8734" y1="42" x2="19.8734" y2="60" id="Path-4-Copy"></line>
            <path d="M57.38575,49.64461 L47.35482,39.6136 C46.5366736,38.7954632 45.2102064,38.7954632 44.39206,39.6136 L40.54186,43.4638 L34.36106,49.6446 C33.5429299,50.4627453 33.5429299,51.7892047 34.36106,52.60735 L36.72988,54.97617 C37.5480275,55.7943134 38.8745025,55.7943134 39.69265,54.97617 L42.1416,52.52717 L42.1416,60.905 C42.1416,62.0620326 43.0795574,62.9999974 44.23659,62.9999974 L47.51024,62.9999974 C48.6672766,62.9999974 49.60524,62.0620366 49.60524,60.905 L49.60524,52.52717 L52.05424,54.97617 C52.8723875,55.7943134 54.1988625,55.7943134 55.01701,54.97617 L57.38578,52.60737 C58.2039085,51.7892153 58.2038951,50.4627481 57.38575,49.64461 Z" id="Path" stroke-linecap="round" stroke-linejoin="round"></path>
        </g>
    </g>
</svg>