<?xml version="1.0" encoding="UTF-8"?>
<svg width="96px" height="96px" viewBox="0 0 96 96" version="1.1" xmlns="http://www.w3.org/2000/svg" xmlns:xlink="http://www.w3.org/1999/xlink">
    <!-- Generator: Sketch 64 (93537) - https://sketch.com -->
    <title>Files / 04 XL / 04-file-down-xl</title>
    <desc>Created with Sketch.</desc>
    <g id="Files-/-04-XL-/-04-file-down-xl" stroke="none" stroke-width="1" fill="none" fill-rule="evenodd">
        <g id="Group" stroke="#384350" stroke-width="1.5">
            <path d="M66.1057 78C57.6659 78 45.0062 78 28.1266 78C25.9174 78 24.1266 76.2091 24.1266 74V22C24.1266 19.7909 25.9174 18 28.1266 18H53.3864C54.4473 18 55.4647 18.4214 56.2149 19.1716L71.0067 33.9635C71.7569 34.7136 72.1783 35.731 72.1783 36.7919C72.1783 46.1497 72.1783 52.3211 72.1783 57" stroke="#384350" stroke-width="1.5" stroke-linecap="round" stroke-linejoin="round"/>
            <path d="M51.894 18V34.106C51.894 36.3151 53.6849 38.106 55.894 38.106H72" stroke="#384350" stroke-width="1.5" stroke-linecap="round" stroke-linejoin="round"/>
            <path d="M57.8035 69H24.1395" stroke="#384350" stroke-width="1.5" stroke-linecap="round" stroke-linejoin="round"/>
            <path d="M65.782 60H24.1395" stroke="#384350" stroke-width="1.5" stroke-linecap="round" stroke-linejoin="round"/>
            <path d="M34 60V78" stroke="#384350" stroke-width="1.5"/>
            <path d="M44 60V78" stroke="#384350" stroke-width="1.5"/>
            <path fill-rule="evenodd" clip-rule="evenodd" d="M58.4873 70.3554L68.5183 80.3864C69.3364 81.2045 70.6629 81.2045 71.481 80.3864L75.3312 76.5362L81.512 70.3554C82.3301 69.5373 82.3301 68.2108 81.512 67.3926L79.1432 65.0238C78.325 64.2057 76.9986 64.2057 76.1804 65.0238L73.7315 67.4728L73.7315 59.095C73.7315 57.938 72.7935 57 71.6365 57L68.3628 57C67.2058 57 66.2678 57.938 66.2678 59.095L66.2678 67.4728L63.8188 65.0238C63.0007 64.2057 61.6742 64.2057 60.8561 65.0238L58.4873 67.3926C57.6692 68.2108 57.6692 69.5372 58.4873 70.3554Z" stroke="#384350" stroke-width="1.5" stroke-linecap="round" stroke-linejoin="round"/>
        </g>
    </g>
</svg>
