<?xml version="1.0" encoding="UTF-8"?>
<svg width="96px" height="96px" viewBox="0 0 96 96" version="1.1" xmlns="http://www.w3.org/2000/svg" xmlns:xlink="http://www.w3.org/1999/xlink">
    <!-- Generator: Sketch 64 (93537) - https://sketch.com -->
    <title>Files / 04 XL / 03-file-url-xl</title>
    <desc>Created with Sketch.</desc>
    <g id="Files-/-04-XL-/-03-file-url-xl" stroke="none" stroke-width="1" fill="none" fill-rule="evenodd" stroke-linecap="round">
        <g id="Group" transform="translate(23.974140, 18.000000)" stroke="currentColor" stroke-width="1.5">
            <path d="M48.05172,56 C48.05172,58.209139 46.260859,60 44.05172,60 L4,60 C1.790861,60 -2.66453526e-13,58.209139 -2.66453526e-13,56 L-2.66453526e-13,4 C-2.66453526e-13,1.790861 1.790861,0 4,0 L29.25986,0 C30.3207231,0 31.3381358,0.421427286 32.08828,1.17157 L46.88015,15.96345 C47.6302952,16.7135967 48.05172,17.7310135 48.05172,18.79188 L48.05172,52.8988 L48.05172,56 Z" id="Path" stroke-linejoin="round"></path>
            <path d="M27.91986,-3.55271368e-15 L27.91986,16.106 C27.91986,18.315139 29.710721,20.106 31.91986,20.106 L48.02586,20.106" id="Path" stroke-linejoin="round"></path>
            <line x1="48.02586" y1="50.29116" x2="-1.31450406e-13" y2="50.29116" id="Path" stroke-linejoin="round"></line>
            <path d="M22.02586,32.251626 C23.7337631,30.5827913 26.5028213,30.5827913 28.2107244,32.251626 L31.7449326,35.7049889 C33.4528358,37.3738236 33.4528358,40.0795393 31.7449326,41.748374 C30.0370295,43.4172087 27.2679714,43.4172087 25.5600682,41.748374 L23.02586,39.2950111" id="Path"></path>
            <path d="M25.02586,34.748374 C23.3179569,36.4172087 20.5488987,36.4172087 18.8409956,34.748374 L15.3067874,31.2950111 C13.5988842,29.6261764 13.5988842,26.9204607 15.3067874,25.251626 C17.0146905,23.5827913 19.7837486,23.5827913 21.4916518,25.251626 L24.02586,27.7049889" id="Path"></path>
        </g>
    </g>
</svg>