<?xml version="1.0" encoding="UTF-8"?>
<svg width="96px" height="96px" viewBox="0 0 96 96" version="1.1" xmlns="http://www.w3.org/2000/svg" xmlns:xlink="http://www.w3.org/1999/xlink">
    <!-- Generator: Sketch 64 (93537) - https://sketch.com -->
    <title>Campaigns / 04 XL / 07-first-run-xl</title>
    <desc>Created with Sketch.</desc>
    <g id="Campaigns-/-04-XL-/-07-first-run-xl" stroke="none" stroke-width="1" fill="none" fill-rule="evenodd" stroke-linecap="round" stroke-linejoin="round">
        <g id="Group" transform="translate(18.024442, 18.069187)" stroke="currentColor" stroke-width="1.5">
            <circle id="Oval" cx="53.267648" cy="50.7617234" r="13"></circle>
            <line x1="53.705298" y1="45.7810134" x2="53.705298" y2="55.7424334" id="Path"></line>
            <line x1="51.592148" y1="55.7424334" x2="55.818448" y2="55.7424334" id="Path"></line>
            <line x1="50.716848" y1="47.7694534" x2="53.705298" y2="45.7810134" id="Path"></line>
            <path d="M41.552348,27.4975734 C42.4322131,27.9914333 42.9769238,28.9218238 42.9769238,29.9308134 C42.9769238,30.9398031 42.4322131,31.8701936 41.552348,32.3640534 L29.153558,40.0546934 C28.2915982,40.5523414 27.2296228,40.5523387 26.3676656,40.0546863 C25.5057083,39.5570339 24.974718,38.6373365 24.974718,37.6420334 L24.974718,22.2195934 C24.974718,21.2242904 25.5057083,20.304593 26.3676656,19.8069406 C27.2296228,19.3092882 28.2915982,19.3092855 29.153558,19.8069334 L41.552348,27.4975734 Z" id="play"></path>
            <path d="M41.905078,57.4432634 C29.0080217,63.0482666 13.9483246,58.9299405 5.69829673,47.5419134 C-2.55173119,36.1538864 -1.77198136,20.5607124 7.57298461,10.0525378 C16.9179506,-0.455636773 32.3133728,-3.0510289 44.586922,3.81265164 C56.8604713,10.6763322 62.7092966,25.1520473 58.648768,38.6154134" id="Path"></path>
            <line x1="19.975558" y1="37.4308134" x2="19.975558" y2="22.9308134" id="Path"></line>
        </g>
    </g>
</svg>