<?xml version="1.0" encoding="UTF-8"?>
<svg width="96px" height="96px" viewBox="0 0 96 96" version="1.1" xmlns="http://www.w3.org/2000/svg" xmlns:xlink="http://www.w3.org/1999/xlink">
    <!-- Generator: Sketch 64 (93537) - https://sketch.com -->
    <title>Files / 04 XL / 05-folder-check-xl</title>
    <desc>Created with Sketch.</desc>
    <g id="Files-/-04-XL-/-05-folder-check-xl" stroke="none" stroke-width="1" fill="none" fill-rule="evenodd" stroke-linecap="round" stroke-linejoin="round">
        <g id="Group" transform="translate(18.000000, 24.000000)" stroke="currentColor" stroke-width="1.5">
            <line x1="29.05746" y1="36.6254" x2="9.91192" y2="36.6254" id="Path"></line>
            <line x1="22.14776" y1="30.64242" x2="9.91192" y2="30.64242" id="Path"></line>
            <path d="M39.078,48 L4.19734,48 C1.988201,48 0.19734,46.209139 0.19734,44 L0.19734,4 C0.19734,1.790861 1.988201,0 4.19734,0 L20.00517,0 C20.7665625,0 21.5121397,0.217307337 22.1543,0.62639 L32.74585,7.37361 C33.388016,7.78269632 34.1336007,8 34.895,8 L56.19734,8 C58.406479,8 60.19734,9.790861 60.19734,12 L60.19734,35.50372" id="Path"></path>
            <circle id="Oval" cx="52" cy="46.00964" r="13"></circle>
            <polyline id="Path" points="46 46.594 49.61 50.204 58 41.815"></polyline>
        </g>
    </g>
</svg>