<?xml version="1.0" encoding="utf-8"?>
<!-- Generator: Adobe Illustrator 26.5.3, SVG Export Plug-In . SVG Version: 6.00 Build 0)  -->
<svg version="1.1" id="icon" xmlns="http://www.w3.org/2000/svg" xmlns:xlink="http://www.w3.org/1999/xlink" x="0px" y="0px"
	 viewBox="0 0 96 96" style="enable-background:new 0 0 96 96;" xml:space="preserve">

<g fill="currentColor">
	<path class="st0" d="M47.1,59.9H27.9c-0.4,0-0.8,0.3-0.8,0.8c0,0.4,0.3,0.8,0.8,0.8h19.1c0.4,0,0.8-0.3,0.8-0.8
		C47.8,60.2,47.5,59.9,47.1,59.9z"/>
	<path class="st0" d="M27.9,55.4h12.2c0.4,0,0.8-0.3,0.8-0.8c0-0.4-0.3-0.8-0.8-0.8H27.9c-0.4,0-0.8,0.3-0.8,0.8
		C27.2,55.1,27.5,55.4,27.9,55.4z"/>
	<path class="st0" d="M78.9,59.6C78.9,59.5,78.9,59.5,78.9,59.6l0-2.7v-0.8V36c0-2.6-2.1-4.7-4.8-4.8H52.9c-0.6,0-1.2-0.2-1.7-0.5
		L40.6,24c-0.8-0.5-1.6-0.7-2.6-0.7H22.2c-2.6,0-4.7,2.1-4.8,4.8v40c0,2.6,2.1,4.7,4.8,4.8h34.5c1.2,6.4,6.8,11.2,13.5,11.2
		c7.6,0,13.7-6.2,13.8-13.8C83.9,65.9,82,62.1,78.9,59.6z M22.2,71.2c-1.8,0-3.2-1.5-3.2-3.2V28c0-1.8,1.5-3.2,3.2-3.2H38
		c0.6,0,1.2,0.2,1.7,0.5L50.3,32c0.8,0.5,1.6,0.7,2.6,0.7h21.3c1.8,0,3.2,1.5,3.2,3.2v20.1v0.8v1.6c-2.1-1.3-4.6-2.1-7.3-2.1
		c-7.6,0-13.7,6.2-13.8,13.8c0,0.4,0,0.7,0.1,1.1H22.2z M78.9,78.8c-2.2,2.2-5.3,3.6-8.7,3.6c-3.4,0-6.4-1.4-8.7-3.6
		c-2.2-2.2-3.6-5.3-3.6-8.7c0-3.4,1.4-6.4,3.6-8.7c2.2-2.2,5.3-3.6,8.7-3.6c3.4,0,6.4,1.4,8.7,3.6c2.2,2.2,3.6,5.3,3.6,8.7
		C82.4,73.6,81.1,76.6,78.9,78.8z"/>
	<path class="st0" d="M75,67h-1.6v-1.6c0-1.1-0.9-1.9-1.9-1.9h-2.5c-1.1,0-1.9,0.9-1.9,1.9V67h-1.6c-1.1,0-1.9,0.9-1.9,1.9v2.5
		c0,1.1,0.9,1.9,1.9,1.9H67v1.6c0,1.1,0.9,1.9,1.9,1.9h2.5c1.1,0,1.9-0.9,1.9-1.9v-1.6H75c1.1,0,1.9-0.9,1.9-1.9v-2.5
		C76.9,67.9,76,67,75,67z M75.4,71.4c0,0.2-0.2,0.4-0.4,0.4h-2.3c-0.2,0-0.4,0.1-0.5,0.2c-0.1,0.1-0.2,0.3-0.2,0.5v2.3
		c0,0.2-0.2,0.4-0.4,0.4h-2.5c-0.2,0-0.4-0.2-0.4-0.4v-2.3c0-0.2-0.1-0.4-0.2-0.5c-0.1-0.1-0.3-0.2-0.5-0.2h-2.3
		c-0.2,0-0.4-0.2-0.4-0.4v-2.5c0-0.2,0.2-0.4,0.4-0.4h2.3c0.2,0,0.4-0.1,0.5-0.2s0.2-0.3,0.2-0.5v-2.3c0-0.2,0.2-0.4,0.4-0.4h2.5
		c0.2,0,0.4,0.2,0.4,0.4v2.3c0,0.2,0.1,0.4,0.2,0.5s0.3,0.2,0.5,0.2H75c0.2,0,0.4,0.2,0.4,0.4V71.4z"/>
</g>
</svg>
