<?xml version="1.0" encoding="UTF-8"?>
<svg width="96px" height="96px" viewBox="0 0 96 96" version="1.1" xmlns="http://www.w3.org/2000/svg" xmlns:xlink="http://www.w3.org/1999/xlink">
    <!-- Generator: Sketch 64 (93537) - https://sketch.com -->
    <title>Files / 04 XL / 06-folder-user-xl</title>
    <desc>Created with Sketch.</desc>
    <g id="Files-/-04-XL-/-06-folder-user-xl" stroke="none" stroke-width="1" fill="none" fill-rule="evenodd" stroke-linecap="round" stroke-linejoin="round">
        <g id="Group" transform="translate(18.000000, 24.000000)" stroke="currentColor" stroke-width="1.5">
            <line x1="28.86012" y1="36.6254" x2="9.71459" y2="36.6254" id="Path"></line>
            <line x1="21.95042" y1="30.64242" x2="9.71459" y2="30.64242" id="Path"></line>
            <path d="M38.88062,48 L4,48 C1.790861,48 0,46.209139 0,44 L0,4 C0,1.790861 1.790861,0 4,0 L19.80784,0 C20.5692291,0 21.3148026,0.217309165 21.95696,0.62639 L32.54851,7.37361 C33.1906703,7.78269266 33.9362475,8 34.69764,8 L56,8 C58.209139,8 60,9.790861 60,12 L60,35.50372" id="Path"></path>
            <circle id="Oval" cx="52.01175" cy="46.00964" r="13"></circle>
            <path d="M48.01729,43.79882 C47.9258658,42.1581452 48.8440584,40.6275519 50.3346273,39.9359041 C51.8251962,39.2442564 53.5868322,39.5313665 54.7806494,40.6605134 C55.9744666,41.7896603 56.3591424,43.532594 55.7514952,45.0593347 C55.1438481,46.5860755 53.6667101,47.588002 52.02349,47.588 C49.8724706,47.6437056 48.0813448,45.949607 48.01729,43.79882 Z" id="Path"></path>
            <path d="M49.498,47.20808 C48.153549,47.5828567 46.9466288,48.3394718 46.02346,49.38626 C47.5704186,51.0587407 49.7452431,52.0096387 52.02346,52.0096387 C54.3016769,52.0096387 56.4765014,51.0587407 58.02346,49.38626 C57.1003155,48.3394817 55.8934238,47.5828671 54.549,47.20808" id="Path"></path>
        </g>
    </g>
</svg>