<?xml version="1.0" encoding="utf-8"?>
<!-- Generator: Adobe Illustrator 26.5.2, SVG Export Plug-In . SVG Version: 6.00 Build 0)  -->
<svg version="1.1" id="Warstwa_1" xmlns="http://www.w3.org/2000/svg" xmlns:xlink="http://www.w3.org/1999/xlink" x="0px" y="0px"
	 viewBox="0 0 96 96" style="enable-background:new 0 0 96 96;" xml:space="preserve">

<g fill="currentColor">
	<path class="st0" d="M46.9,59.9H27.7c-0.4,0-0.8,0.3-0.8,0.8c0,0.4,0.3,0.8,0.8,0.8h19.1c0.4,0,0.8-0.3,0.8-0.8
		S47.3,59.9,46.9,59.9z"/>
	<path class="st0" d="M27.7,55.5H40c0.4,0,0.8-0.3,0.8-0.8c-0.1-0.5-0.4-0.8-0.8-0.8H27.7c-0.4,0-0.8,0.3-0.8,0.8
		C26.9,55.1,27.2,55.5,27.7,55.5z"/>
	<path class="st0" d="M74,31.1H52.7c-0.6,0-1.2-0.2-1.7-0.5l-10.6-6.7c-0.8-0.5-1.6-0.7-2.6-0.7H22c-2.6,0-4.7,2.1-4.8,4.8v40
		c0,2.6,2.1,4.7,4.8,4.8h34.4h0.5H74c2.6,0,4.7-2.1,4.8-4.8v-8.7v-3.2V35.9C78.8,33.3,76.7,31.2,74,31.1z M77.2,68
		c0,1.8-1.5,3.2-3.2,3.2H56.9L22,71.1c-1.8,0-3.2-1.5-3.2-3.2v-40c0-1.8,1.5-3.2,3.2-3.2h15.8c0.6,0,1.2,0.2,1.7,0.5l10.6,6.7
		c0.8,0.5,1.6,0.7,2.6,0.7H74c1.8,0,3.2,1.5,3.2,3.2v20.3v3.2V68z"/>
</g>
</svg>
