<?xml version="1.0" encoding="UTF-8"?>
<svg width="96px" height="96px" viewBox="0 0 96 96" version="1.1" xmlns="http://www.w3.org/2000/svg"
    xmlns:xlink="http://www.w3.org/1999/xlink">
    <title>Edit / 04 XL / 03-form-xl</title>
    <g id="Edit-/-04-XL-/-03-form-xl" stroke="none" stroke-width="1" fill-rule="evenodd"
        fill="currentColor">
        <path
            d="M71.75,39.0009 C73.818,39.0009 75.5,40.6829 75.5,42.7509 L75.5,42.7509 L75.5,61.5839 C75.5,61.6229 75.484,61.6569 75.478,61.6939 L75.478,61.6939 L82.597,67.3699 L82.597,67.3699 L82.7019155,67.4628138 C83.0650556,67.8191361 83.1894167,68.3414833 83.018,68.8319 C82.831,69.3659 82.343,69.7109 81.777,69.7109 L81.777,69.7109 L75.607,69.7109 L78.941,76.3779 C79.172,76.8409 79.209,77.3659 79.046,77.8569 C78.882,78.3469 78.538,78.7439 78.075,78.9749 L78.075,78.9749 L75.474,80.2759 C75.197,80.4139 74.902,80.4799 74.612,80.4799 C73.901,80.4799 73.216,80.0869 72.877,79.4109 L72.877,79.4109 L69.496,72.6479 L65.116,78.1529 C64.762,78.5969 64.19,78.7609 63.655,78.5749 C63.12,78.3879 62.775,77.9009 62.775,77.3349 L62.775,77.3349 L62.775,72.4809 L23.75,72.4809 C21.683,72.4809 20,70.7979 20,68.7309 L20,68.7309 L20,42.7509 C20,40.6829 21.683,39.0009 23.75,39.0009 L23.75,39.0009 Z M64.275,54.6819 L64.275,76.8009 L69.054,70.7939 C69.197,70.6139 69.414,70.5109 69.641,70.5109 C69.667,70.5109 69.693,70.5119 69.719,70.5149 C69.974,70.5419 70.197,70.6959 70.312,70.9249 L70.312,70.9249 L74.219,78.7389 C74.326,78.9539 74.588,79.0399 74.803,78.9339 L74.803,78.9339 L77.405,77.6329 C77.509,77.5809 77.586,77.4919 77.623,77.3819 C77.66,77.2719 77.651,77.1529 77.599,77.0489 L77.599,77.0489 L73.723,69.2959 C73.607,69.0639 73.62,68.7879 73.756,68.5659 C73.893,68.3459 74.134,68.2109 74.394,68.2109 L74.394,68.2109 L81.246,68.2109 L64.275,54.6819 Z M71.75,40.5009 L23.75,40.5009 C22.51,40.5009 21.5,41.5099 21.5,42.7509 L21.5,42.7509 L21.5,68.7309 C21.5,69.9709 22.51,70.9809 23.75,70.9809 L23.75,70.9809 L62.775,70.9809 L62.775,54.2949 C62.775,53.7859 63.06,53.3329 63.517,53.1119 C63.975,52.8919 64.508,52.9509 64.906,53.2669 L64.906,53.2669 L74,60.5169 L74,42.7509 C74,41.5099 72.991,40.5009 71.75,40.5009 L71.75,40.5009 Z M71.7499,17 C73.8179,17 75.4999,18.682 75.4999,20.75 L75.4999,20.75 L75.4999,31.75 C75.4999,33.818 73.8179,35.5 71.7499,35.5 L71.7499,35.5 L55.7729,35.5 C53.7049,35.5 52.0229,33.818 52.0229,31.75 L52.0229,31.75 L52.0229,20.75 C52.0229,18.682 53.7049,17 55.7729,17 L55.7729,17 Z M44.75,28 C46.818,28 48.5,29.682 48.5,31.75 C48.5,33.818 46.818,35.5 44.75,35.5 L44.75,35.5 L23.75,35.5 C21.682,35.5 20,33.818 20,31.75 C20,29.682 21.682,28 23.75,28 L23.75,28 Z M71.7499,18.5 L55.7729,18.5 C54.5319,18.5 53.5229,19.509 53.5229,20.75 L53.5229,20.75 L53.5229,31.75 C53.5229,32.991 54.5319,34 55.7729,34 L55.7729,34 L71.7499,34 C72.9909,34 73.9999,32.991 73.9999,31.75 L73.9999,31.75 L73.9999,20.75 C73.9999,19.509 72.9909,18.5 71.7499,18.5 L71.7499,18.5 Z M44.75,29.5 L23.75,29.5 C22.509,29.5 21.5,30.509 21.5,31.75 C21.5,32.991 22.509,34 23.75,34 L23.75,34 L44.75,34 C45.991,34 47,32.991 47,31.75 C47,30.509 45.991,29.5 44.75,29.5 L44.75,29.5 Z M63.7615,22.572 C64.1755,22.572 64.5115,22.908 64.5115,23.322 L64.5115,23.322 L64.5115,25.5 L66.6885,25.5 C67.1025,25.5 67.4385,25.836 67.4385,26.25 C67.4385,26.664 67.1025,27 66.6885,27 L66.6885,27 L64.5115,27 L64.5115,29.176 C64.5115,29.59 64.1755,29.926 63.7615,29.926 C63.3475,29.926 63.0115,29.59 63.0115,29.176 L63.0115,29.176 L63.0115,27 L60.8345,27 C60.4205,27 60.0845,26.664 60.0845,26.25 C60.0845,25.836 60.4205,25.5 60.8345,25.5 L60.8345,25.5 L63.0115,25.5 L63.0115,23.322 C63.0115,22.908 63.3475,22.572 63.7615,22.572 Z M44.75,17 C46.818,17 48.5,18.682 48.5,20.75 C48.5,22.818 46.818,24.5 44.75,24.5 L44.75,24.5 L23.75,24.5 C21.682,24.5 20,22.818 20,20.75 C20,18.682 21.682,17 23.75,17 L23.75,17 Z M44.75,18.5 L23.75,18.5 C22.509,18.5 21.5,19.509 21.5,20.75 C21.5,21.991 22.509,23 23.75,23 L23.75,23 L44.75,23 C45.991,23 47,21.991 47,20.75 C47,19.509 45.991,18.5 44.75,18.5 L44.75,18.5 Z"
            fill-rule="nonzero"></path>
    </g>
</svg>