<svg width="96" height="96" viewBox="0 0 96 96" fill="none" xmlns="http://www.w3.org/2000/svg">
<g fill="currentColor">
<path fill-rule="evenodd" clip-rule="evenodd" d="M18.4776 38.8006L47.9186 70.3116L77.3616 38.8006H18.4776ZM47.9186 72.1596C47.7106 72.1596 47.5126 72.0736 47.3716 71.9216L16.2026 38.5626C15.9986 38.3446 15.9436 38.0266 16.0626 37.7516C16.1806 37.4786 16.4516 37.3006 16.7496 37.3006H79.0886C79.3876 37.3006 79.6586 37.4786 79.7766 37.7516C79.8956 38.0266 79.8406 38.3446 79.6366 38.5626L48.4666 71.9216C48.3256 72.0736 48.1266 72.1596 47.9186 72.1596V72.1596Z" />
<path fill-rule="evenodd" clip-rule="evenodd" d="M37.8409 38.8006L47.9189 69.0376L57.9979 38.8006H37.8409ZM47.9189 72.1596C47.5959 72.1596 47.3099 71.9526 47.2069 71.6476L36.0879 38.2876C36.0119 38.0596 36.0509 37.8076 36.1919 37.6126C36.3319 37.4166 36.5589 37.3006 36.7999 37.3006H59.0389C59.2799 37.3006 59.5069 37.4166 59.6479 37.6126C59.7879 37.8076 59.8269 38.0596 59.7509 38.2876L48.6309 71.6476C48.5289 71.9526 48.2419 72.1596 47.9189 72.1596V72.1596Z" />
<mask id="mask0_143_63907" style="mask-type:luminance" maskUnits="userSpaceOnUse" x="16" y="23" width="64" height="16">
<path fill-rule="evenodd" clip-rule="evenodd" d="M16 23.0006H79.839V38.8006H16V23.0006Z" fill="white"/>
</mask>
<g mask="url(#mask0_143_63907)">
<path fill-rule="evenodd" clip-rule="evenodd" d="M18.2481 37.3006H77.5911L68.0121 24.5006H27.8271L18.2481 37.3006ZM79.0891 38.8006H16.7501C16.4661 38.8006 16.2061 38.6406 16.0791 38.3866C15.9521 38.1326 15.9791 37.8286 16.1491 37.6016L26.8521 23.3016C26.9931 23.1126 27.2161 23.0006 27.4521 23.0006H68.3871C68.6231 23.0006 68.8461 23.1126 68.9871 23.3016L79.6891 37.6016C79.8591 37.8286 79.8871 38.1326 79.7601 38.3866C79.6331 38.6406 79.3731 38.8006 79.0891 38.8006V38.8006Z" />
</g>
<mask id="mask1_143_63907" style="mask-type:luminance" maskUnits="userSpaceOnUse" x="26" y="23" width="44" height="16">
<path fill-rule="evenodd" clip-rule="evenodd" d="M26.7022 23H69.1368V38.8044H26.7022V23Z" fill="white"/>
</mask>
<g mask="url(#mask1_143_63907)">
<path fill-rule="evenodd" clip-rule="evenodd" d="M59.0391 38.8006C58.8091 38.8006 58.5901 38.6946 58.4471 38.5106L47.9191 24.9726L37.3921 38.5106C37.2431 38.7016 37.0131 38.8316 36.7691 38.7996C36.5271 38.7896 36.3051 38.6636 36.1721 38.4606L26.8241 24.1606C26.5981 23.8146 26.6951 23.3496 27.0421 23.1226C27.3871 22.8956 27.8521 22.9926 28.0801 23.3406L36.8521 36.7606L47.3271 23.2906C47.6101 22.9236 48.2271 22.9236 48.5111 23.2906L58.9861 36.7606L67.7591 23.3406C67.9841 22.9926 68.4511 22.8956 68.7971 23.1226C69.1431 23.3496 69.2411 23.8146 69.0151 24.1606L59.6671 38.4606C59.5341 38.6636 59.3111 38.7896 59.0691 38.7996C59.0601 38.8006 59.0491 38.8006 59.0391 38.8006" />
</g>
</g>
</svg>
