<?xml version="1.0" encoding="UTF-8"?>
<svg width="96px" height="96px" viewBox="0 0 96 96" version="1.1" xmlns="http://www.w3.org/2000/svg"
    xmlns:xlink="http://www.w3.org/1999/xlink">
    <title>Actions / 04 XL / 05-inbox-no-results-xl</title>
    <g id="Actions-/-04-XL-/-05-inbox-no-results-xl" stroke="none" stroke-width="1"
        fill-rule="evenodd" fill="currentColor">
        <path
            d="M67.1185,18 C68.3335,18 69.4495,18.662 70.0305,19.728 L70.0305,19.728 L77.7455,33.854 C77.7505,33.863 77.7485,33.874 77.7525,33.883 C77.8025,33.984 77.8375,34.093 77.8375,34.213 L77.8375,34.213 L77.8375,53.463 C77.8375,53.522 77.8165,53.574 77.8035,53.629 C81.2485,56.13 83.5005,60.178 83.5005,64.75 C83.5005,72.332 77.3325,78.5 69.7505,78.5 C62.9265,78.5 57.2635,73.497 56.1965,66.97 L56.1965,66.97 L22.5005,66.97 C19.4675,66.97 17.0005,64.502 17.0005,61.47 L17.0005,61.47 L17.0005,34.213 C17.0005,34.093 17.0345,33.984 17.0845,33.883 C17.0895,33.874 17.0865,33.863 17.0915,33.854 L17.0915,33.854 L24.8045,19.732 C25.3885,18.664 26.5065,18 27.7245,18 L27.7245,18 Z M69.7505,52.5 C62.9955,52.5 57.5005,57.995 57.5005,64.75 C57.5005,71.505 62.9955,77 69.7505,77 C76.5055,77 82.0005,71.505 82.0005,64.75 C82.0005,57.995 76.5055,52.5 69.7505,52.5 Z M64.91,59.909 C65.203,59.616 65.677,59.616 65.97,59.909 L65.97,59.909 L69.75,63.689 L73.531,59.909 C73.824,59.616 74.298,59.616 74.591,59.909 C74.884,60.202 74.884,60.677 74.591,60.97 L74.591,60.97 L70.811,64.75 L74.591,68.53 C74.884,68.823 74.884,69.298 74.591,69.591 C74.445,69.737 74.253,69.811 74.061,69.811 C73.869,69.811 73.677,69.737 73.531,69.591 L73.531,69.591 L69.75,65.811 L65.97,69.591 C65.824,69.737 65.632,69.811 65.44,69.811 C65.248,69.811 65.056,69.737 64.91,69.591 C64.617,69.298 64.617,68.823 64.91,68.53 L64.91,68.53 L68.69,64.75 L64.91,60.97 C64.617,60.677 64.617,60.202 64.91,59.909 Z M34.1325,34.963 L18.5005,34.963 L18.5005,61.47 C18.5005,63.675 20.2945,65.47 22.5005,65.47 L22.5005,65.47 L56.0375,65.47 C56.0245,65.23 56.0005,64.993 56.0005,64.75 C56.0005,57.168 62.1685,51 69.7505,51 C72.1355,51 74.3795,51.612 76.3375,52.686 L76.3375,52.686 L76.3375,34.963 L60.9655,34.963 C60.5815,39.677 56.6305,43.398 51.8205,43.398 L51.8205,43.398 L43.2795,43.398 C38.4675,43.398 34.5165,39.677 34.1325,34.963 L34.1325,34.963 Z M67.1185,19.5 L27.7245,19.5 C27.0555,19.5 26.4415,19.865 26.1205,20.451 L26.1205,20.451 L19.0145,33.463 L34.8445,33.463 C35.2585,33.463 35.5945,33.799 35.5945,34.213 C35.5945,38.451 39.0415,41.898 43.2795,41.898 L43.2795,41.898 L51.8205,41.898 C56.0565,41.898 59.5035,38.451 59.5035,34.213 C59.5035,33.799 59.8395,33.463 60.2535,33.463 L60.2535,33.463 L75.8235,33.463 L68.7145,20.446 C68.3955,19.863 67.7845,19.5 67.1185,19.5 L67.1185,19.5 Z"
            fill-rule="nonzero"></path>
    </g>
</svg>