<?xml version="1.0" encoding="UTF-8"?>
<svg width="96px" height="96px" viewBox="0 0 96 96" version="1.1" xmlns="http://www.w3.org/2000/svg"
    xmlns:xlink="http://www.w3.org/1999/xlink">
    <title>Information / 04 XL / 04-info-xl</title>
    <g id="Information-/-04-XL-/-04-info-xl" stroke="none" stroke-width="1" fill-rule="evenodd"
        fill="currentColor">
        <path
            d="M47.75,17 C64.706,17 78.5,30.794 78.5,47.75 C78.5,64.706 64.706,78.5 47.75,78.5 C30.794,78.5 17,64.706 17,47.75 C17,30.794 30.794,17 47.75,17 Z M47.75,18.5 C31.622,18.5 18.5,31.622 18.5,47.75 C18.5,63.878 31.622,77 47.75,77 C63.878,77 77,63.878 77,47.75 C77,31.622 63.878,18.5 47.75,18.5 Z M47.75,45.0381 C50.089,45.0381 51.992,46.9411 51.992,49.2801 L51.992,57.4541 C51.992,59.7921 50.089,61.6951 47.75,61.6951 C45.412,61.6951 43.509,59.7921 43.509,57.4541 L43.509,49.2801 C43.509,46.9411 45.412,45.0381 47.75,45.0381 Z M47.75,46.5381 C46.239,46.5381 45.009,47.7681 45.009,49.2801 L45.009,57.4541 C45.009,58.9661 46.239,60.1951 47.75,60.1951 C49.262,60.1951 50.492,58.9661 50.492,57.4541 L50.492,49.2801 C50.492,47.7681 49.262,46.5381 47.75,46.5381 Z M47.75,33.8037 C50.089,33.8037 51.992,35.7067 51.992,38.0457 C51.992,40.3857 50.089,42.2877 47.75,42.2877 C45.412,42.2877 43.509,40.3857 43.509,38.0457 C43.509,35.7067 45.412,33.8037 47.75,33.8037 Z M47.75,35.3037 C46.238,35.3037 45.009,36.5337 45.009,38.0457 C45.009,39.5577 46.238,40.7877 47.75,40.7877 C49.262,40.7877 50.492,39.5577 50.492,38.0457 C50.492,36.5337 49.262,35.3037 47.75,35.3037 Z"
            fill-rule="nonzero"></path>
    </g>
</svg>