<?xml version="1.0" encoding="UTF-8"?>
<svg width="96px" height="96px" viewBox="0 0 96 96" version="1.1" xmlns="http://www.w3.org/2000/svg"
    xmlns:xlink="http://www.w3.org/1999/xlink">
    <title>Internet / 04 XL / 07-integration-xl</title>
    <g id="Internet-/-04-XL-/-07-integration-xl" stroke="none" stroke-width="1" fill-rule="evenodd"
        fill="currentColor">
        <path
            d="M41.6405,40.093 C42.7545,40.093 43.6605,40.998 43.6605,42.113 L43.6605,42.113 L43.6605,53.684 C43.6605,54.799 42.7545,55.705 41.6405,55.705 L41.6405,55.705 L36.8495,55.705 C33.7015,55.705 31.1405,53.143 31.1405,49.994 L31.1405,49.994 L31.1405,48.451 L23.7375,48.451 C20.8475,48.451 18.4975,50.802 18.4975,53.692 L18.4975,53.692 L18.4975,65.864 C18.4975,68.753 20.8475,71.104 23.7375,71.104 L23.7375,71.104 L72.2625,71.104 C75.1525,71.104 77.5025,68.753 77.5025,65.864 L77.5025,65.864 L77.5025,58.682 C77.5025,58.269 77.8375,57.934 78.2515,57.934 C78.6645,57.934 78.9995,58.269 78.9995,58.682 L78.9995,58.682 L78.9995,65.864 C78.9995,69.579 75.9775,72.601 72.2625,72.601 L72.2625,72.601 L23.7375,72.601 C20.0225,72.601 17.0005,69.579 17.0005,65.864 L17.0005,65.864 L17.0005,53.692 C17.0005,49.976 20.0225,46.954 23.7375,46.954 L23.7375,46.954 L31.1405,46.954 L31.1405,45.355 C31.1405,42.453 33.5015,40.093 36.4035,40.093 L36.4035,40.093 Z M72.2628,23.0005 C75.9778,23.0005 78.9998,26.0225 78.9998,29.7375 L78.9998,29.7375 L78.9998,41.9095 C78.9998,45.6245 75.9778,48.6465 72.2628,48.6465 L72.2628,48.6465 L64.0038,48.6465 L64.0038,50.4905 C64.0038,53.3655 61.6648,55.7045 58.7898,55.7045 L58.7898,55.7045 L53.5028,55.7045 C52.3878,55.7045 51.4828,54.7985 51.4828,53.6845 L51.4828,53.6845 L51.4828,51.4655 L46.9018,51.4655 C46.4888,51.4655 46.1538,51.1305 46.1538,50.7175 C46.1538,50.3035 46.4888,49.9685 46.9018,49.9685 L46.9018,49.9685 L51.4828,49.9685 L51.4828,45.8285 L46.9018,45.8285 C46.4888,45.8285 46.1538,45.4935 46.1538,45.0795 C46.1538,44.6665 46.4888,44.3315 46.9018,44.3315 L46.9018,44.3315 L51.4828,44.3315 L51.4828,42.1135 C51.4828,40.9985 52.3878,40.0925 53.5028,40.0925 L53.5028,40.0925 L58.7428,40.0925 C61.6428,40.0925 64.0038,42.4515 64.0038,45.3525 L64.0038,45.3525 L64.0038,47.1495 L72.2628,47.1495 C75.1528,47.1495 77.5028,44.7985 77.5028,41.9095 L77.5028,41.9095 L77.5028,29.7375 C77.5028,26.8475 75.1528,24.4975 72.2628,24.4975 L72.2628,24.4975 L23.7378,24.4975 C20.8478,24.4975 18.4978,26.8475 18.4978,29.7375 L18.4978,29.7375 L18.4978,36.9185 C18.4978,37.3315 18.1618,37.6675 17.7488,37.6675 C17.3358,37.6675 17.0008,37.3315 17.0008,36.9185 L17.0008,36.9185 L17.0008,29.7375 C17.0008,26.0225 20.0228,23.0005 23.7378,23.0005 L23.7378,23.0005 Z M58.7628,41.5305 L53.5128,41.5305 C53.2288,41.5305 52.9888,41.7705 52.9888,42.0555 L52.9888,42.0555 L52.9888,53.6485 C52.9888,53.9375 53.2238,54.1725 53.5128,54.1725 L53.5128,54.1725 L58.8098,54.1725 C60.8638,54.1725 62.5338,52.5025 62.5338,50.4485 L62.5338,50.4485 L62.5338,45.3015 C62.5338,43.2225 60.8418,41.5305 58.7628,41.5305 L58.7628,41.5305 Z M41.6285,41.531 L36.3815,41.531 C34.3005,41.531 32.6085,43.223 32.6085,45.304 L32.6085,45.304 L32.6085,47.314 C32.6625,47.418 32.7015,47.531 32.7015,47.656 C32.7015,47.781 32.6625,47.894 32.6085,47.998 L32.6085,47.998 L32.6085,49.952 C32.6085,52.28 34.5015,54.173 36.8285,54.173 L36.8285,54.173 L41.6285,54.173 C41.9125,54.173 42.1525,53.933 42.1525,53.648 L42.1525,53.648 L42.1525,42.055 C42.1525,41.766 41.9175,41.531 41.6285,41.531 L41.6285,41.531 Z"
            fill-rule="nonzero"></path>
    </g>
</svg>