<?xml version="1.0" encoding="utf-8"?>
<!-- Generator: Adobe Illustrator 26.5.3, SVG Export Plug-In . SVG Version: 6.00 Build 0)  -->
<svg version="1.1" id="icon" xmlns="http://www.w3.org/2000/svg" xmlns:xlink="http://www.w3.org/1999/xlink" x="0px" y="0px"
	 viewBox="0 0 96 96" style="enable-background:new 0 0 96 96;" xml:space="preserve">

<g fill="currentColor">
	<path class="st0" d="M59.9,53.1H59c-1.2,0-2.2-1-2.2-2.2v-5.8c0-1.2,1-2.2,2.2-2.2h5.8c1.2,0,2.2,1,2.2,2.2v4.8
		c0,0.4,0.3,0.8,0.8,0.8c0.4,0,0.8-0.3,0.8-0.8v-4.8c0-2.1-1.7-3.7-3.7-3.7H59c-2.1,0-3.7,1.7-3.7,3.7v5.8c0,2.1,1.7,3.7,3.7,3.7
		h0.9c0.4,0,0.8-0.3,0.8-0.8C60.6,53.5,60.3,53.1,59.9,53.1z"/>
	<path class="st0" d="M31.1,54.6H37c2.1,0,3.7-1.7,3.7-3.7v-5.8c0-2.1-1.7-3.7-3.7-3.7h-5.8c-2.1,0-3.7,1.7-3.7,3.7v5.8
		C27.4,53,29.1,54.6,31.1,54.6z M28.9,45.1c0-1.2,1-2.2,2.2-2.2H37c1.2,0,2.2,1,2.2,2.2v5.8c0,1.2-1,2.2-2.2,2.2h-5.8
		c-1.2,0-2.2-1-2.2-2.2V45.1z"/>
	<path class="st0" d="M57.7,71.1h-36c-1.6,0-2.9-1.3-2.9-2.9v-1.4h33.9c0,0,0,0,0,0h4.9c0.4,0,0.8-0.3,0.8-0.8
		c0-0.4-0.3-0.8-0.8-0.8H18.8V27.7c0-1.6,1.3-2.9,2.9-2.9h33.5h1.3h17.8c1.6,0,2.9,1.3,2.9,2.9v28.7c0,0.4,0.3,0.8,0.8,0.8
		c0.4,0,0.8-0.3,0.8-0.8V27.7c0-2.4-2-4.4-4.4-4.4H56.5h-1.3H21.7c-2.4,0-4.4,2-4.4,4.4V66l0,0v0v2.2c0,2.4,2,4.4,4.4,4.4h36
		c0.4,0,0.8-0.3,0.8-0.8C58.4,71.5,58.1,71.1,57.7,71.1z"/>
	<path class="st0" d="M28.6,32c0-1.5-1.2-2.7-2.8-2.8c-1.5,0-2.7,1.2-2.8,2.8c0,1.5,1.2,2.7,2.8,2.8C27.4,34.7,28.6,33.5,28.6,32z
		 M25.9,33.2c-0.7,0-1.2-0.6-1.2-1.2c0-0.7,0.6-1.2,1.2-1.2c0.7,0,1.2,0.6,1.2,1.2C27.1,32.7,26.6,33.2,25.9,33.2z"/>
	<path class="st0" d="M42.6,32c0-1.5-1.2-2.7-2.8-2.8c-1.5,0-2.7,1.2-2.8,2.8c0,1.5,1.2,2.7,2.8,2.8C41.4,34.7,42.6,33.5,42.6,32z
		 M39.9,33.2c-0.7,0-1.2-0.6-1.2-1.2c0-0.7,0.6-1.2,1.2-1.2c0.7,0,1.2,0.6,1.2,1.2C41.1,32.7,40.6,33.2,39.9,33.2z"/>
	<path class="st0" d="M35.6,32c0-1.5-1.2-2.7-2.8-2.8c-1.5,0-2.7,1.2-2.8,2.8c0,1.5,1.2,2.7,2.8,2.8C34.4,34.7,35.6,33.5,35.6,32z
		 M31.6,32c0-0.7,0.6-1.2,1.2-1.2c0.7,0,1.2,0.6,1.2,1.2c0,0.7-0.6,1.2-1.2,1.2C32.2,33.2,31.6,32.7,31.6,32z"/>
	<path class="st0" d="M81.3,62.9L63.6,48.8c-0.2-0.2-0.5-0.3-0.8-0.3c-0.3,0-0.7,0.1-0.9,0.4c-0.2,0.2-0.4,0.6-0.4,1v23
		c0,0.4,0.2,0.7,0.4,1c0.2,0.2,0.6,0.4,0.9,0.4c0.4,0,0.8-0.2,1-0.5l4.4-5.5l3.4,6.8c0.3,0.7,1,1.1,1.7,1.1c0.3,0,0.6-0.1,0.9-0.2
		l2.6-1.3c0.7-0.3,1.1-1,1.1-1.7c0-0.3-0.1-0.6-0.2-0.9l-3.3-6.7h6.2c0.4,0,0.7-0.2,1-0.4c0.2-0.2,0.4-0.6,0.4-0.9
		C81.8,63.5,81.6,63.1,81.3,62.9z M72.4,64.8l3.9,7.8l0,0.2c0,0.2-0.1,0.3-0.2,0.4l-2.6,1.3l-0.2,0c-0.2,0-0.3-0.1-0.4-0.2L69,66.4
		c-0.1-0.2-0.3-0.4-0.6-0.4s-0.5,0.1-0.7,0.3l-4.8,6V50.2l17,13.5h-6.9c-0.3,0-0.5,0.1-0.6,0.4C72.3,64.3,72.3,64.6,72.4,64.8z"/>
	<path class="st0" d="M48.5,51.5c0.3,0.3,0.8,0.3,1.1,0l3-3c0.1-0.1,0.2-0.3,0.2-0.5s-0.1-0.4-0.2-0.5l-3-3c-0.3-0.3-0.8-0.3-1.1,0
		s-0.3,0.8,0,1.1l1.8,1.8h-6.7c-0.4,0-0.8,0.3-0.8,0.8c0,0.4,0.3,0.8,0.8,0.8h6.6l-1.7,1.7C48.3,50.8,48.3,51.2,48.5,51.5z"/>
</g>
</svg>
