<?xml version="1.0" encoding="UTF-8"?>
<svg width="96px" height="96px" viewBox="0 0 96 96" version="1.1" xmlns="http://www.w3.org/2000/svg" xmlns:xlink="http://www.w3.org/1999/xlink">
    <title>Actions / 04 XL / 09-launch-xl</title>
    <g id="Actions-/-04-XL-/-09-launch-xl" stroke="none" stroke-width="1" fill-rule="evenodd" fill="currentColor">
        <path d="M73.0095549,17.0097 C74.4235549,16.9197 75.8095549,17.4447 76.8185549,18.4547 C77.8295549,19.4647 78.3555549,20.8537 78.2645549,22.2637 C77.6625549,31.4957 73.8665549,40.3857 67.5685549,47.3237 C67.5315549,47.4157 67.4755549,47.5007 67.4045549,47.5717 L67.4045549,47.5717 L63.4705549,51.5057 C65.7645549,56.7757 64.6155549,62.9687 60.5285549,67.0557 L60.5285549,67.0557 L49.6705549,77.9137 C49.5285549,78.0557 49.3365549,78.1327 49.1405549,78.1327 C49.0875549,78.1327 49.0355549,78.1277 48.9825549,78.1167 C48.7345549,78.0637 48.5295549,77.8877 48.4385549,77.6497 L48.4385549,77.6497 L43.5845549,64.8737 C41.2625549,64.5107 39.1185549,63.4407 37.4245549,61.7477 L37.4245549,61.7477 L36.0055549,60.3287 L33.6575549,62.6767 C33.5105549,62.8237 33.3185549,62.8967 33.1265549,62.8967 C32.9345549,62.8967 32.7435549,62.8237 32.5965549,62.6767 C32.3035549,62.3837 32.3035549,61.9097 32.5965549,61.6167 L32.5965549,61.6167 L34.9455549,59.2677 L33.5265549,57.8487 C31.7805549,56.1027 30.6955549,53.8777 30.3685549,51.4727 L30.3685549,51.4727 L17.4835549,46.5777 C17.2455549,46.4867 17.0695549,46.2817 17.0165549,46.0337 C16.9635549,45.7847 17.0395549,45.5257 17.2195549,45.3457 L17.2195549,45.3457 L28.0785549,34.4877 C32.2355549,30.3297 38.5765549,29.2067 43.9065549,31.6647 L43.9065549,31.6647 L47.7015549,27.8697 C47.7725549,27.7977 47.8575549,27.7417 47.9495549,27.7047 C54.8885549,21.4067 63.7775549,17.6107 73.0095549,17.0097 Z M25.6401549,62.2667 C29.7031549,62.2667 33.0071549,65.5717 33.0071549,69.6327 C33.0071549,73.6947 29.7031549,76.9987 25.6411549,76.9987 L25.6411549,76.9987 L19.0241549,76.9987 C18.6101549,76.9987 18.2741549,76.6627 18.2741549,76.2487 L18.2741549,76.2487 L18.2741549,69.6327 C18.2741549,65.5717 21.5791549,62.2667 25.6401549,62.2667 Z M62.3275549,52.6487 L53.2285549,61.7477 C51.1185549,63.8577 48.3125549,65.0207 45.3275549,65.0207 L45.3275549,65.0207 L45.2435549,65.0167 L49.4295549,76.0327 L59.4685549,65.9947 C62.9785549,62.4847 64.0715549,57.2327 62.3275549,52.6487 L62.3275549,52.6487 Z M25.6411549,63.7667 C22.4061549,63.7667 19.7741549,66.3977 19.7741549,69.6327 L19.7741549,69.6327 L19.7741549,75.4987 L25.6411549,75.4987 C28.8761549,75.4987 31.5071549,72.8677 31.5071549,69.6327 C31.5071549,66.3977 28.8761549,63.7667 25.6411549,63.7667 Z M73.3164973,18.499009 L73.1075549,18.5067 C69.5245549,18.7397 65.9985549,19.4807 62.6235549,20.6697 C64.9835549,22.2477 67.2025549,24.0487 69.2135549,26.0597 C70.2435549,27.0897 71.2305549,28.1817 72.1485549,29.3047 C72.4105549,29.6257 72.3635549,30.0987 72.0425549,30.3597 C71.9035549,30.4747 71.7355549,30.5297 71.5685549,30.5297 C71.3505549,30.5297 71.1355549,30.4357 70.9875549,30.2537 C70.1015549,29.1687 69.1475549,28.1147 68.1525549,27.1197 C65.9895549,24.9567 63.5865549,23.0287 61.0125549,21.3907 C60.9785549,21.3687 60.9585549,21.3357 60.9295549,21.3107 C56.4905549,23.1037 52.3555549,25.6917 48.7715549,28.9847 C48.7125549,29.0397 48.6465549,29.0827 48.5775549,29.1147 L48.5775549,29.1147 L34.5865549,43.1057 C32.7595549,44.9327 31.7525549,47.3617 31.7525549,49.9467 C31.7525549,52.5307 32.7595549,54.9607 34.5865549,56.7887 L34.5865549,56.7887 L36.0055549,58.2077 L49.2675549,44.9457 C49.5605549,44.6527 50.0355549,44.6527 50.3285549,44.9457 C50.6215549,45.2387 50.6215549,45.7127 50.3285549,46.0057 L50.3285549,46.0057 L37.0665549,59.2677 L38.4845549,60.6867 C40.3125549,62.5147 42.7425549,63.5207 45.3275549,63.5207 C47.9115549,63.5207 50.3415549,62.5147 52.1685549,60.6867 L52.1685549,60.6867 L66.1675549,46.6877 C66.1965549,46.6207 66.2375549,46.5577 66.2885549,46.5017 C72.4605549,39.7867 76.1825549,31.1437 76.7675549,22.1667 C76.8305549,21.1867 76.4635549,20.2207 75.7585549,19.5157 C75.0525549,18.8107 74.0835549,18.4397 73.1075549,18.5067 Z M42.7645549,32.8067 C38.1155549,30.9097 32.7205549,31.9667 29.1385549,35.5487 L29.1385549,35.5487 L19.1005549,45.5867 L30.2585549,49.8267 C30.2895549,46.8867 31.4445549,44.1267 33.5265549,42.0447 L33.5265549,42.0447 Z M60.7153549,28.8479 C62.2403549,28.8479 63.6743549,29.4419 64.7533549,30.5209 C65.8313549,31.5989 66.4253549,33.0329 66.4253549,34.5579 C66.4253549,36.0829 65.8313549,37.5169 64.7533549,38.5959 C63.6743549,39.6739 62.2403549,40.2679 60.7153549,40.2679 C59.1903549,40.2679 57.7563549,39.6739 56.6783549,38.5959 C55.5993549,37.5169 55.0053549,36.0829 55.0053549,34.5579 C55.0053549,33.0329 55.5993549,31.5989 56.6783549,30.5209 C57.7563549,29.4419 59.1903549,28.8479 60.7153549,28.8479 Z M60.7153549,30.3499 C59.6373549,30.3499 58.5593549,30.7609 57.7383549,31.5809 C56.0973549,33.2229 56.0973549,35.8929 57.7383549,37.5349 C59.3803549,39.1769 62.0503549,39.1759 63.6923549,37.5349 C65.3333549,35.8929 65.3333549,33.2229 63.6923549,31.5809 C62.8713549,30.7609 61.7933549,30.3499 60.7153549,30.3499 Z" id="Combined-Shape"  fill-rule="nonzero"></path>
    </g>
</svg>