<?xml version="1.0" encoding="UTF-8"?>
<svg width="96px" height="96px" viewBox="0 0 96 96" version="1.1" xmlns="http://www.w3.org/2000/svg" xmlns:xlink="http://www.w3.org/1999/xlink">
    <!-- Generator: Sketch 64 (93537) - https://sketch.com -->
    <title>Customers / 04 XL / 04-loyality-boost-xl</title>
    <desc>Created with Sketch.</desc>
    <g id="Customers-/-04-XL-/-04-loyality-boost-xl" stroke="none" stroke-width="1" fill="none" fill-rule="evenodd" stroke-linecap="round" stroke-linejoin="round">
        <g id="Group" transform="translate(17.000000, 17.000000)" stroke="currentColor" stroke-width="1.5">
            <path d="M42.6632836,58.2911967 C39.0113264,59.8731563 34.9829225,60.75 30.7498,60.75 C14.1818,60.75 0.7498,47.318 0.7498,30.75 C0.7498,14.181 14.1818,0.75 30.7498,0.75 C41.1058,0.75 50.2348,5.997 55.6268,13.977" id="Stroke-1"></path>
            <path d="M49.6796,33.2901 C49.6796,22.8351 41.2046,14.3601 30.7496,14.3601 C20.2956,14.3601 11.8206,22.8351 11.8206,33.2901 L19.1006,33.2901 C19.1006,26.8561 24.3166,21.6411 30.7496,21.6411 C37.1836,21.6411 42.3996,26.8561 42.3996,33.2901 L49.6796,33.2901 Z" id="Stroke-3"></path>
            <path d="M35.1962,33.2901 C35.1962,30.8341 33.2062,28.8441 30.7502,28.8441 C28.2952,28.8441 26.3032,30.8341 26.3032,33.2901 C26.3032,35.7451 28.2952,37.7361 30.7502,37.7361 C33.2062,37.7361 35.1962,35.7451 35.1962,33.2901 Z" id="Stroke-5"></path>
            <line x1="27.6064" y1="30.1461" x2="20.0174" y2="22.5571" id="Stroke-7"></line>
            <line x1="36.8817" y1="39.421" x2="34.2397" y2="36.78" id="Stroke-9"></line>
            <path d="M54.2499,65.3575 C47.0819,65.3575 41.2499,59.5255 41.2499,52.3575 C41.2499,45.1885 47.0819,39.3575 54.2499,39.3575 C61.4179,39.3575 67.2499,45.1885 67.2499,52.3575 C67.2499,59.5255 61.4179,65.3575 54.2499,65.3575 Z" id="Stroke-13"></path>
            <path d="M48.8817,55.6251 C50.0197,57.5911 51.8247,58.5881 54.2497,58.5881 C56.6747,58.5881 58.4807,57.5911 59.6177,55.6251" id="Stroke-17"></path>
            <path d="M51.3046,48.4317 C52.2016,48.4317 52.9296,49.1587 52.9296,50.0567 C52.9296,50.9537 52.2016,51.6817 51.3046,51.6817 C50.4076,51.6817 49.6796,50.9537 49.6796,50.0567 C49.6796,49.1587 50.4076,48.4317 51.3046,48.4317 Z" id="Stroke-21"></path>
            <path d="M57.1952,48.4317 C58.0922,48.4317 58.8202,49.1587 58.8202,50.0567 C58.8202,50.9537 58.0922,51.6817 57.1952,51.6817 C56.2982,51.6817 55.5702,50.9537 55.5702,50.0567 C55.5702,49.1587 56.2982,48.4317 57.1952,48.4317 Z" id="Stroke-25"></path>
            <line x1="41.5185" y1="28.8439" x2="48.0175" y2="25.5339" id="Stroke-27"></line>
            <path d="M57.7321907,21 L54.7497433,21 C54.3374928,21 53.9565565,20.7940073 53.7504293,20.4596122 C53.5443022,20.125217 53.5442999,19.713224 53.7504232,19.3788268 L55.2416949,16.9596171 L56.7328812,14.5404173 C56.9389999,14.2060075 57.3199415,14 57.7322013,14 C58.1444611,14 58.5254028,14.2060075 58.7315214,14.5404173 L60.2227504,16.9596171 L61.7139687,19.3788268 C61.9200921,19.713224 61.9200898,20.125217 61.7139626,20.4596122 C61.5078355,20.7940073 61.1268992,21 60.7146486,21 L57.7321907,21 Z" id="Path" transform="translate(57.732196, 17.500000) rotate(-210.000000) translate(-57.732196, -17.500000) "></path>
        </g>
    </g>
</svg>