<?xml version="1.0" encoding="UTF-8"?>
<svg width="96px" height="96px" viewBox="0 0 96 96" version="1.1" xmlns="http://www.w3.org/2000/svg" xmlns:xlink="http://www.w3.org/1999/xlink">
    <!-- Generator: Sketch 64 (93537) - https://sketch.com -->
    <title>Campaigns / 04 XL / 15-marketing-automation-xl</title>
    <desc>Created with Sketch.</desc>
    <g id="Campaigns-/-04-XL-/-15-marketing-automation-xl" stroke="none" stroke-width="1" fill="none" fill-rule="evenodd" stroke-linecap="round" stroke-linejoin="round">
        <g id="Group" transform="translate(21.000000, 13.000000)" stroke="currentColor" stroke-width="1.5">
            <path d="M36.8920898,54.0004 C29.5827365,54.0004 18.6187066,54.0004 4,54.0004 C1.791,54.0004 0,52.2094 0,50.0004 L0,19.9014 C0,17.6924 1.791,15.9014 4,15.9014 L50,15.9014 C52.209,15.9014 54,17.6924 54,19.9014 C54,27.222349 54,32.7130607 54,36.3735352" id="Path"></path>
            <path d="M7.4434,25.4775 L21.2744,37.6085 C24.8134,40.7125 29.5674,40.7125 33.1054,37.6085 L46.5564,25.8105" id="Stroke-3"></path>
            <line x1="38.8826516" y1="40.8831915" x2="34.0132" y2="36.8123" id="Stroke-5"></line>
            <line x1="19.6909" y1="36.812" x2="10.1999" y2="44.101" id="Stroke-7"></line>
            <path d="M19.5479,25.5268 C16.4159,23.5108 14.3409,19.9938 14.3409,15.9928 C14.3409,9.7348 19.4129,4.6628 25.6709,4.6628 C31.9279,4.6628 36.9999,9.7348 36.9999,15.9928" id="Stroke-9"></path>
            <line x1="25.6704" y1="4.663" x2="25.6704" y2="0" id="Stroke-11"></line>
            <path d="M49.1201,62.0004 C41.9521,62.0004 36.1201,56.1684 36.1201,49.0004 C36.1201,41.8314 41.9521,36.0004 49.1201,36.0004 C56.2881,36.0004 62.1201,41.8314 62.1201,49.0004 C62.1201,56.1684 56.2881,62.0004 49.1201,62.0004 Z" id="Stroke-15"></path>
            <path d="M51.7793,48.2455 L48.6793,46.4565 C47.8293,45.9655 46.7653,46.5795 46.7653,47.5605 L46.7653,51.1405 C46.7653,52.1225 47.8293,52.7365 48.6793,52.2455 L51.7793,50.4565 C52.6303,49.9655 52.6303,48.7365 51.7793,48.2455 Z" id="Stroke-17"></path>
        </g>
    </g>
</svg>