<svg width="96" height="96" viewBox="0 0 96 96" fill="none" xmlns="http://www.w3.org/2000/svg">
<path d="M68.2602 69.9057C66.6875 69.967 65.1194 69.6978 63.6572 69.1155C62.1949 68.5332 60.871 67.6508 59.7708 66.5253C57.2562 63.8749 55.0638 60.9364 53.2393 57.771L47.67 48.4675C45.7272 45.0702 43.4724 41.8612 40.9349 38.8818C39.2075 37.0462 37.4247 35.399 34.6155 35.399C32.4757 35.399 30.4252 36.8572 28.5212 39.7326L27.1416 38.8193C29.372 35.4523 31.886 33.7449 34.6155 33.7449C38.3718 33.7449 40.7303 36.2509 42.1394 37.7478C44.7627 40.8107 47.0895 44.1155 49.0888 47.6178L54.6587 56.9224C56.3889 59.9673 58.4866 62.7881 60.9048 65.3213C61.8539 66.3021 63.0003 67.0704 64.2682 67.5755C65.5361 68.0807 66.8967 68.3111 68.2602 68.2516C69.8174 68.3138 71.3618 67.9472 72.725 67.1917C74.0881 66.4363 75.2176 65.3211 75.9904 63.9676C77.5084 61.1183 78.2396 57.9158 78.1087 54.69C78.2598 48.0349 76.4315 41.4848 72.8555 35.8701C69.7345 31.2167 65.6454 28.6542 61.3399 28.6542C58.5806 28.7779 55.9628 29.9105 53.9835 31.837C52.4254 33.246 51.0145 34.8096 49.7727 36.5039C50.4221 37.345 51.0887 38.2571 51.765 39.2285C55.0981 34.3215 57.7882 32.3153 61.0158 32.3153C64.1367 32.3153 67.1327 34.2855 69.4513 37.863C72.2438 42.1734 73.8452 48.3748 73.8452 54.8762C73.8452 60.4041 71.966 63.2063 68.2603 63.2063C66.4219 63.2063 65.0359 62.3943 63.3161 60.3093C60.6242 56.6678 58.1532 52.868 55.9165 48.9305L54.3194 46.2689C53.2263 44.4467 52.1764 42.7863 51.1694 41.2876L51.0973 41.1815C50.0645 39.6496 49.0511 38.2517 48.083 37.0267L47.8401 36.7198C46.4476 34.9337 44.8723 33.298 43.1399 31.8392C40.8135 29.7918 37.8222 28.6598 34.7232 28.6542C30.2556 28.6542 26.0254 31.3815 22.813 36.3332L21.4248 35.4329C24.9022 30.0736 29.7489 27 34.7232 27C38.2015 27.0151 41.5589 28.2775 44.1856 30.5576C45.8408 31.9436 47.3563 33.4885 48.7102 35.1701C49.9527 33.5105 51.3545 31.9765 52.8958 30.59C55.1824 28.4095 58.1831 27.1338 61.3399 27C66.2141 27 70.7921 29.8232 74.2296 34.9488C77.9889 40.8357 79.9147 47.7067 79.7628 54.6899C79.8967 58.2064 79.0888 61.6949 77.4227 64.7946C76.5091 66.4032 75.1717 67.7303 73.5562 68.6315C71.9407 69.5327 70.1089 69.9734 68.2602 69.9057ZM52.7708 40.7082C53.7261 42.1437 54.715 43.7135 55.7378 45.4176L57.3348 48.0792C59.5342 51.9433 61.9575 55.6757 64.5922 59.2571C66.1753 61.1762 67.1359 61.552 68.2602 61.552C69.9478 61.552 72.191 60.8595 72.191 54.8762C72.191 48.7765 70.6478 42.7527 68.0621 38.7622C66.0601 35.6714 63.5573 33.9693 61.0158 33.9693C58.3741 33.9693 56.0555 35.8135 53.0131 40.3356C52.9334 40.4551 52.8516 40.5811 52.7708 40.7082Z" fill="#384350"/>
<path d="M28.3168 69.9057C26.3144 70.0152 24.3207 69.57 22.555 68.6192C20.7893 67.6684 19.3203 66.2488 18.3095 64.5168C17.7067 63.4997 17.2301 62.413 16.8901 61.2806C16.2741 59.1734 15.9747 56.9863 16.0017 54.7911C15.9569 47.9574 17.8359 41.249 21.424 35.4329L22.8121 36.3332C19.3957 41.8802 17.6089 48.2765 17.6558 54.7911C17.629 56.822 17.9038 58.8457 18.4711 60.796C18.772 61.7997 19.1938 62.7631 19.7273 63.665C21.5796 66.7514 24.3888 68.2516 28.3168 68.2516C31.9827 68.2516 34.6734 66.5705 37.9144 62.2563C39.9018 59.606 40.9238 57.9486 44.7469 51.1694L46.9428 47.2806C46.2024 46.0804 45.4685 44.9432 44.7502 43.884L42.7848 46.9037C42.2091 47.7879 41.5512 48.8271 40.8463 49.9406C39.127 52.6545 37.1783 55.7313 35.4208 58.164C32.3564 62.4028 30.5601 63.2061 28.3168 63.2061C27.4507 63.2127 26.5983 62.9899 25.8461 62.5603C25.094 62.1308 24.4689 61.5098 24.0344 60.7605C23.0894 59.0032 22.632 57.025 22.7098 55.0313C22.6614 49.3217 24.1953 43.7103 27.1414 38.8192L28.5198 39.7325C25.7498 44.3511 24.3115 49.6459 24.364 55.0313C24.294 56.7175 24.6654 58.3927 25.4414 59.8914C25.7279 60.4005 26.1459 60.8233 26.6518 61.1154C27.1576 61.4076 27.7327 61.5584 28.3168 61.552C29.7976 61.552 31.1621 61.2311 34.08 57.1948C35.8079 54.804 37.7421 51.7499 39.449 49.0549C40.1576 47.9354 40.8199 46.8903 41.3988 46.0013L44.7044 40.9219L45.4071 41.9229C46.4452 43.4016 47.5227 45.0536 48.6088 46.8332L48.8618 47.2478L46.1878 51.9825C42.3195 58.8404 41.2803 60.5257 39.2374 63.2493C35.6857 67.9769 32.5222 69.9057 28.3168 69.9057Z" fill="#384350"/>
</svg>
