<svg xmlns="http://www.w3.org/2000/svg" width="96" height="96" fill="none" viewBox="0 0 96 96">
  <g clip-path="url(#a)">
    <path stroke="currentColor" stroke-width="1.5" d="M46.614 35c.482 0 .93.193 1.266.514.33.316.549.756.58 1.25l.218 3.594.02-.007c.11-.039.228-.066.349-.08l.184-.01a2.617 2.617 0 0 1 1.978.895l.028.035.014-.01a1.6 1.6 0 0 1 .803-.327l.184-.01a2.617 2.617 0 0 1 1.978.894l.028.036.014-.01a1.6 1.6 0 0 1 .803-.328l.185-.01c.71 0 1.353.28 1.823.73.482.46.781 1.1.794 1.805v4.847c0 .75-.311 1.878-.69 2.529-.254.416-1.695 2.718-1.695 3.499V56.6H53.34l-.817-1.658-.817 1.658h-5.683v-1.764c0-.823-2.704-2.91-2.714-2.919-.548-.483-1.209-1.444-1.468-2.124l-1.45-3.81a1.3 1.3 0 0 1-.001-.907c.107-.291.322-.524.598-.668l.243-.075c.62-.173 1.166-.178 1.673-.06l.215.057a3.221 3.221 0 0 1 1.627 1.126l.095.146V36.8c0-.436.152-.835.405-1.146l.114-.128c.32-.325.762-.526 1.254-.526Z" clip-rule="evenodd"/>
    <path fill="currentColor" d="M48.5 73a1.5 1.5 0 1 0 0-3 1.5 1.5 0 0 0 0 3Z"/>
    <rect width="12" height="1.5" x="42" y="21" fill="currentColor" rx=".75"/>
    <rect width="42.5" height="60.5" x="26.75" y="16.75" stroke="currentColor" stroke-width="1.5" rx="5.25"/>
  </g>
  <defs>
    <clipPath id="a">
      <path fill="#fff" d="M0 0h96v96H0z"/>
    </clipPath>
  </defs>
</svg>
