<?xml version="1.0" encoding="UTF-8"?>
<svg width="96px" height="96px" viewBox="0 0 96 96" version="1.1" xmlns="http://www.w3.org/2000/svg"
    xmlns:xlink="http://www.w3.org/1999/xlink">
    <g id="Campaigns-/-04-XL-/-03-mobile-promotion-xl" stroke="none" stroke-width="1" fill="none"
        fill-rule="evenodd">
        <g id="Group" transform="translate(26.482840, 18.011070)">
            <path
                d="M43.25351,36.98893 L43.25351,55.84421 C43.2468318,58.1243938 41.4000338,59.9711873 39.11985,59.97786 L4.13366,59.97786 C1.85347617,59.9711873 0.00667823093,58.1243938 -6.8567374e-13,55.84421 L-6.8567374e-13,24.39193"
                id="Path" stroke="currentColor" stroke-width="1.5" stroke-linecap="round"
                stroke-linejoin="round"></path>
            <path
                d="M-7.17648163e-13,24.39193 L-7.17648163e-13,4.13365 C0.00667823093,1.85346619 1.85347617,0.00667271479 4.13366,-3.55271368e-15 L39.11985,-3.55271368e-15 C41.4000338,0.00667271479 43.2468318,1.85346619 43.25351,4.13365 L43.25351,12.9889299"
                id="Path" stroke="currentColor" stroke-width="1.5" stroke-linecap="round"
                stroke-linejoin="round"></path>
            <line x1="0.21919" y1="49.36697" x2="43.25351" y2="49.36697" id="Path"
                stroke="currentColor" stroke-width="1.5" stroke-linecap="round"
                stroke-linejoin="round"></line>
            <circle id="Oval" stroke="currentColor" stroke-width="1.5" stroke-linecap="round"
                stroke-linejoin="round" cx="21.40153" cy="54.53851" r="1.88437"></circle>
            <path
                d="M32.89558,25.51939 L32.89558,30.37876 C31.8799632,30.3700445 30.8896436,30.06094 30.04939,29.49039 C29.7345392,29.2225679 29.2623583,29.2599346 28.9935516,29.5739451 C28.7247449,29.8879557 28.7606327,30.3602513 29.0738,30.63004 C30.1878485,31.4330424 31.5223981,31.8730117 32.89558,31.88999 L32.89558,33.23893 C32.89558,33.6531436 33.2313664,33.98893 33.64558,33.98893 C34.0597936,33.98893 34.39558,33.6531436 34.39558,33.23893 L34.39558,31.82359 C35.0001613,31.7482698 35.5904265,31.5846822 36.14753,31.33805 C37.5336774,30.7716709 38.4289818,29.411352 38.40095,27.91422 C38.40095,25.63505 36.31434,24.8776 34.39558,24.3621 L34.39558,20.0026 C35.2664265,20.0893174 36.1293078,20.2429277 36.97658,20.46207 C37.3759592,20.5719608 37.7888042,20.3372842 37.898695,19.937905 C38.0085859,19.5385258 37.7739092,19.1256808 37.37453,19.01579 C36.3978507,18.7574678 35.4014392,18.5805487 34.39553,18.48685 L34.39553,16.73893 C34.39553,16.3247164 34.0597436,15.98893 33.64553,15.98893 C33.2313164,15.98893 32.89553,16.3247164 32.89553,16.73893 L32.89553,18.43681 C31.788691,18.4064447 30.6987939,18.7134435 29.77053,19.31705 C29.0221822,19.8929901 28.5985352,20.7952574 28.63337,21.73893 C28.63337,24.20993 30.87788,24.98417 32.89558,25.51939 Z M34.39558,25.92252 C35.9687,26.37699 36.90095,26.85185 36.90095,27.91422 C36.9325222,28.8268798 36.3764704,29.657322 35.52058,29.97575 C35.1609849,30.1312712 34.7828847,30.2399087 34.39558,30.29899 L34.39558,25.92252 Z M30.67927,20.51093 C31.3450999,20.1047665 32.1162821,19.9048369 32.89558,19.93635 L32.89558,23.96193 C31.1609,23.47013 30.13337,22.96128 30.13337,21.73893 C30.0977028,21.2639189 30.3027352,20.8026992 30.67927,20.51093 Z"
                fill="currentColor" fill-rule="nonzero"></path>
            <path
                d="M33.51716,9.98893 C41.8014312,9.98893 48.51716,16.7046588 48.51716,24.98893 C48.51716,33.2732012 41.8014312,39.98893 33.51716,39.98893 L18.51716,39.98893 L18.51716,39.98893 L18.51716,24.98893 C18.51716,16.7046588 25.2328888,9.98893 33.51716,9.98893 Z"
                id="Rectangle" stroke="currentColor" stroke-width="1.5" stroke-linejoin="round"></path>
        </g>
    </g>
</svg>