<?xml version="1.0" encoding="UTF-8"?>
<svg width="96px" height="96px" viewBox="0 0 96 96" version="1.1" xmlns="http://www.w3.org/2000/svg" xmlns:xlink="http://www.w3.org/1999/xlink">
    <!-- Generator: Sketch 64 (93537) - https://sketch.com -->
    <title>Campaigns / 04 XL / 04-mobile-update-xl</title>
    <desc>Created with Sketch.</desc>
    <g id="Campaigns-/-04-XL-/-04-mobile-update-xl" stroke="none" stroke-width="1" fill="none" fill-rule="evenodd" stroke-linecap="round" stroke-linejoin="round">
        <g id="Group" transform="translate(26.370000, 18.011070)" stroke="currentColor" stroke-width="1.5">
            <path d="M-6.75015599e-13,24.39193 L-6.75015599e-13,4.13365 C0.00667823093,1.85346619 1.85347617,0.00667271479 4.13366,-1.77635684e-14 L39.11985,-1.77635684e-14 C41.4000338,0.00667271479 43.2468318,1.85346619 43.25351,4.13365 L43.25351,55.84421 C43.2468318,58.1243938 41.4000338,59.9711873 39.11985,59.97786 L4.13366,59.97786 C1.85347617,59.9711873 0.00667823093,58.1243938 -6.75015599e-13,55.84421 L-6.75015599e-13,24.39193" id="Path"></path>
            <line x1="0.21919" y1="49.36697" x2="43.25351" y2="49.36697" id="Path"></line>
            <circle id="Oval" cx="21.59152" cy="54.53851" r="1.88437"></circle>
            <circle id="Oval" cx="21.62676" cy="25.98893" r="13"></circle>
            <path d="M16.38635,25.08893 C16.38635,25.38893 16.2863266,25.68893 16.2863266,25.98893 C16.2820841,27.4489243 16.8601767,28.8503507 17.892553,29.882727 C18.9249293,30.9151033 20.3263557,31.4931959 21.78635,31.48893 C22.0898051,31.505217 22.3938714,31.4714318 22.68635,31.38893" id="Path"></path>
            <path d="M27.08635,26.88893 C27.08635,26.58893 27.1863734,26.28893 27.1863734,25.98893 C27.1906159,24.5289357 26.6125233,23.1275093 25.580147,22.095133 C24.5477707,21.0627567 23.1463443,20.4846641 21.68635,20.48893 C21.3828949,20.472643 21.0788286,20.5064282 20.78635,20.58893" id="Path"></path>
        </g>
    </g>
</svg>