<?xml version="1.0" encoding="UTF-8"?>
<svg width="96px" height="96px" viewBox="0 0 96 96" version="1.1" xmlns="http://www.w3.org/2000/svg" xmlns:xlink="http://www.w3.org/1999/xlink">
    <!-- Generator: Sketch 64 (93537) - https://sketch.com -->
    <title>Campaigns / 04 XL /12-multivalue-xl</title>
    <desc>Created with Sketch.</desc>
    <g id="Campaigns-/-04-XL-/12-multivalue-xl" stroke="none" stroke-width="1" fill="none" fill-rule="evenodd" stroke-linecap="round" stroke-linejoin="round">
        <g id="Group" transform="translate(18.000000, 18.000000)" stroke="currentColor" stroke-width="1.5">
            <rect id="Rectangle" x="36.4388501" y="0.76151002" width="22.69356" height="22.69356" rx="2"></rect>
            <circle id="Oval" cx="13.39106" cy="45.3814001" r="12.30932"></circle>
            <path d="M24.02914,24.08922 L2.75298083,24.08922 C2.0384572,24.08922 1.37820015,23.7080268 1.02093232,23.089224 C0.663664485,22.4704213 0.663663608,21.7080236 1.02093002,21.08922 L11.659,2.66353276 C12.0162645,2.04473378 12.6765209,1.66353276 13.391055,1.66353276 C14.1055892,1.66353276 14.7658455,2.04473378 15.12311,2.66353276 L25.76119,21.08922 C26.1184556,21.7080221 26.1184556,22.4704176 25.7611902,23.0892197 C25.4039249,23.7080218 24.7436711,24.08922 24.02914,24.08922 Z" id="Path"></path>
            <path d="M59.2500001,51.7742401 L59.2500001,40.8457301 C59.2500001,40.1311992 58.868802,39.4709455 58.2500001,39.1136801 L48.7856301,33.6494201 C48.1668279,33.2921545 47.4044322,33.2921545 46.7856301,33.6494201 L37.3212701,39.1136801 C36.7024682,39.4709455 36.3212701,40.1311992 36.3212701,40.8457301 L36.3212701,51.7742401 C36.3212701,52.488771 36.7024682,53.1490246 37.3212701,53.5062901 L46.7856301,58.9705401 C47.4044322,59.3278057 48.1668279,59.3278057 48.7856301,58.9705401 L58.2500001,53.5062901 C58.868802,53.1490246 59.2500001,52.488771 59.2500001,51.7742401 Z" id="Path"></path>
        </g>
    </g>
</svg>