<?xml version="1.0" encoding="UTF-8"?>
<svg width="96px" height="96px" viewBox="0 0 96 96" version="1.1" xmlns="http://www.w3.org/2000/svg" xmlns:xlink="http://www.w3.org/1999/xlink">
    <!-- Generator: Sketch 64 (93537) - https://sketch.com -->
    <title>Database / 04 XL / 01-network-file-xl</title>
    <desc>Created with Sketch.</desc>
    <g id="Database-/-04-XL-/-01-network-file-xl" stroke="none" stroke-width="1" fill="none" fill-rule="evenodd" stroke-linecap="round" stroke-linejoin="round">
        <g id="Group" transform="translate(23.863010, 20.739440)" stroke="currentColor" stroke-width="1.5">
            <circle id="Oval" cx="24.13699" cy="50.25379" r="4.00677"></circle>
            <line x1="24.13699" y1="37.72124" x2="24.13699" y2="46.24703" id="Path"></line>
            <path d="M3.8407,37.72124 L44.16814,37.72124 C46.2892961,37.72124 48.00885,36.0017161 48.00885,33.88056 L48.00885,10.69911 C48.00885,9.68049129 47.6042046,8.70359271 46.8839315,7.98332145 C46.1636583,7.26305019 45.1867587,6.85840735 44.16814,6.85841 L25.5953,6.85841 C24.5766782,6.85840715 23.5997769,6.45376182 22.8795,5.73349 L18.27093,1.12492 C17.5506605,0.404643177 16.5737601,-2.13162821e-14 15.55514,-2.13162821e-14 L3.8407,-2.13162821e-14 C2.82208129,-2.13162821e-14 1.84518271,0.404645389 1.12491145,1.12491852 C0.404640194,1.84519165 8.17124146e-14,2.82209129 8.17124146e-14,3.84071 L8.17124146e-14,33.88056 C8.17124146e-14,36.0017122 1.71954777,37.72124 3.8407,37.72124 Z" id="folder-m"></path>
            <path d="M18.76399,20.61549 C18.76399,20.91549 18.6639666,21.21549 18.6639666,21.51549 C18.6597241,22.9754843 19.2378167,24.3769107 20.270193,25.409287 C21.3025693,26.4416633 22.7039957,27.0197559 24.16399,27.01549 C24.4674451,27.031777 24.7715114,26.9979918 25.06399,26.91549" id="Path"></path>
            <path d="M29.46399,22.41549 C29.46399,22.11549 29.5640134,21.81549 29.5640134,21.51549 C29.5682559,20.0554957 28.9901633,18.6540693 27.957787,17.621693 C26.9254107,16.5893167 25.5239843,16.0112241 24.06399,16.01549 C23.760535,15.9992047 23.4564689,16.0329898 23.16399,16.11549" id="Path"></path>
            <line x1="3.13699" y1="49.96819" x2="20.11669" y2="49.96819" id="Path"></line>
            <line x1="28.13699" y1="49.96819" x2="45.19389" y2="49.96819" id="Path"></line>
        </g>
    </g>
</svg>