<?xml version="1.0" encoding="UTF-8"?>
<svg width="96px" height="96px" viewBox="0 0 96 96" version="1.1" xmlns="http://www.w3.org/2000/svg"
    xmlns:xlink="http://www.w3.org/1999/xlink">
    <title>Security / 04 XL / 01-no-permission-xl</title>
    <g id="Security-/-04-XL-/-01-no-permission-xl" stroke="none" stroke-width="1"
        fill-rule="evenodd" fill="currentColor">
        <path
            d="M51.7733,20.9995 C56.3663,20.9995 60.1023,24.7235 60.1023,29.2995 L60.1023,29.2995 L60.1023,38.4315 L68.0293,38.4315 C70.6483,38.4315 72.7793,40.5625 72.7793,43.1815 L72.7793,43.1815 L72.7793,72.2075 C72.7793,74.8265 70.6483,76.9575 68.0293,76.9575 L68.0293,76.9575 L27.7503,76.9575 C25.1313,76.9575 23.0003,74.8265 23.0003,72.2075 L23.0003,72.2075 L23.0003,43.1815 C23.0003,40.5625 25.1313,38.4315 27.7503,38.4315 L27.7503,38.4315 L35.6763,38.4315 L35.6763,29.2995 C35.6763,24.7235 39.4123,20.9995 44.0053,20.9995 L44.0053,20.9995 Z M68.0293,39.9315 L27.7503,39.9315 C25.9583,39.9315 24.5003,41.3895 24.5003,43.1815 L24.5003,43.1815 L24.5003,72.2075 C24.5003,73.9995 25.9583,75.4575 27.7503,75.4575 L27.7503,75.4575 L68.0293,75.4575 C69.8213,75.4575 71.2793,73.9995 71.2793,72.2075 L71.2793,72.2075 L71.2793,43.1815 C71.2793,41.3895 69.8213,39.9315 68.0293,39.9315 L68.0293,39.9315 Z M47.8901,47.5044 C51.5731,47.5044 54.5701,50.4914 54.5701,54.1624 C54.5701,56.0764 53.7571,57.8684 52.3271,59.1354 L52.3271,64.9024 C52.3271,67.3424 50.3371,69.3264 47.8901,69.3264 C45.4431,69.3264 43.4521,67.3424 43.4521,64.9024 L43.4521,59.1354 C42.0221,57.8694 41.2091,56.0764 41.2091,54.1624 C41.2091,50.4914 44.2061,47.5044 47.8901,47.5044 Z M47.8901,49.0044 C45.0331,49.0044 42.7091,51.3184 42.7091,54.1624 C42.7091,55.7394 43.4231,57.2104 44.6681,58.1984 C44.8481,58.3404 44.9521,58.5564 44.9521,58.7854 L44.9521,64.9024 C44.9521,66.5154 46.2701,67.8264 47.8901,67.8264 C49.5101,67.8264 50.8271,66.5154 50.8271,64.9024 L50.8271,58.7854 C50.8271,58.5564 50.9321,58.3404 51.1111,58.1984 C52.3561,57.2104 53.0701,55.7394 53.0701,54.1624 C53.0701,51.3184 50.7461,49.0044 47.8901,49.0044 Z M51.7733,22.4995 L44.0053,22.4995 C40.2393,22.4995 37.1763,25.5505 37.1763,29.2995 L37.1763,29.2995 L37.1763,38.4315 L58.6023,38.4315 L58.6023,29.2995 C58.6023,25.5505 55.5393,22.4995 51.7733,22.4995 L51.7733,22.4995 Z"
            fill-rule="nonzero"></path>
    </g>
</svg>