<?xml version="1.0" encoding="UTF-8"?>
<svg width="96px" height="96px" viewBox="0 0 96 96" version="1.1" xmlns="http://www.w3.org/2000/svg" xmlns:xlink="http://www.w3.org/1999/xlink">
    <!-- Generator: Sketch 64 (93537) - https://sketch.com -->
    <title>Information / 04 XL / 01-notifications-edit-xl</title>
    <desc>Created with Sketch.</desc>
    <g id="Information-/-04-XL-/-01-notifications-edit-xl" stroke="none" stroke-width="1" fill="none" fill-rule="evenodd" stroke-linecap="round" stroke-linejoin="round">
        <g id="Group-2" transform="translate(27.322470, 18.000000)" stroke="currentColor" stroke-width="1.5">
            <path d="M28.0461813,7.18747318 C25.6957624,6.29579581 23.1980109,5.8431197 20.67753,5.85548321 C8.68939,5.85548321 6.75015599e-14,15.57413 6.75015599e-14,27.56226 L6.75015599e-14,50.05874 L41.3552508,50.05874 L41.3552508,27.56226 C41.3560577,27.0598992 41.3410537,26.5580463 41.3102282,26.0574484" id="Path"></path>
            <path d="M30.24227,50.31527 C30.24227,55.6639987 25.9062687,60 20.55754,60 C15.2088113,60 10.87281,55.6639987 10.87281,50.31527" id="Path"></path>
            <line x1="5.86411" y1="44.45857" x2="5.86411" y2="33.54543" id="Path"></line>
            <line x1="5.95031" y1="28.36996" x2="5.95031" y2="26.65292" id="Path"></line>
            <circle id="Oval" cx="39.67753" cy="13" r="13"></circle>
            <path d="M41.8160941,8.1444 L42.7310941,7.2294 L35.0360941,14.9234 C34.9310941,15.0284 34.8580941,15.1614 34.8250941,15.3074 L34.1840941,18.2214 C34.1410941,18.4174 34.3160941,18.5924 34.5120941,18.5494 L37.4260941,17.9064 C37.5720941,17.8754 37.7040941,17.8024 37.8100941,17.6964 L44.5890941,10.9174" id="Path"></path>
            <path d="M44.5891941,10.9175 L45.5041941,10.0025 C45.5801941,9.9265 45.6381941,9.8385 45.6761941,9.7445 C45.6941941,9.6975 45.7091941,9.6485 45.7191941,9.6005 C45.7571941,9.4025 45.7191941,9.1935 45.6051941,9.0215 C45.5751941,8.9785 45.5421941,8.9375 45.5041941,8.8985 L43.8341941,7.2295 C43.5291941,6.9235 43.0351941,6.9235 42.7311941,7.2295 L41.8161941,8.1445" id="Path"></path>
        </g>
    </g>
</svg>