<svg width="96" height="96" viewBox="0 0 96 96" fill="none" xmlns="http://www.w3.org/2000/svg">
<path fill-rule="evenodd" clip-rule="evenodd" d="M47.75 18.5C31.622 18.5 18.5 31.622 18.5 47.75C18.5 63.878 31.622 77 47.75 77C63.878 77 77 63.878 77 47.75C77 31.622 63.878 18.5 47.75 18.5ZM47.75 78.5C30.794 78.5 17 64.706 17 47.75C17 30.794 30.794 17 47.75 17C64.706 17 78.5 30.794 78.5 47.75C78.5 64.706 64.706 78.5 47.75 78.5ZM41.3857 61.5H39.6143C38.5897 61.4989 37.6075 61.0914 36.8831 60.3669C36.1586 59.6425 35.7511 58.6603 35.75 57.6357V38.8643C35.7511 37.8397 36.1586 36.8575 36.8831 36.1331C37.6075 35.4086 38.5897 35.0011 39.6143 35H41.3857C42.4103 35.0011 43.3925 35.4086 44.1169 36.1331C44.8414 36.8575 45.2489 37.8397 45.25 38.8643V57.6357C45.2489 58.6603 44.8414 59.6425 44.1169 60.3669C43.3925 61.0914 42.4103 61.4989 41.3857 61.5ZM39.6143 36.5C38.9874 36.5007 38.3865 36.75 37.9432 37.1932C37.5 37.6365 37.2507 38.2374 37.25 38.8643V57.6357C37.2507 58.2626 37.5 58.8635 37.9432 59.3068C38.3865 59.75 38.9874 59.9993 39.6143 60H41.3857C42.0126 59.9993 42.6135 59.75 43.0568 59.3068C43.5 58.8635 43.7493 58.2626 43.75 57.6357V38.8643C43.7493 38.2374 43.5 37.6365 43.0568 37.1932C42.6135 36.75 42.0126 36.5007 41.3857 36.5H39.6143ZM54.6152 61.5H56.3867C57.4112 61.4989 58.3935 61.0914 59.1179 60.3669C59.8424 59.6425 60.2499 58.6603 60.251 57.6357V38.8643C60.2499 37.8397 59.8424 36.8575 59.1179 36.1331C58.3935 35.4086 57.4112 35.0011 56.3867 35H54.6152C53.5907 35.0011 52.6085 35.4086 51.884 36.1331C51.1596 36.8575 50.7521 37.8397 50.751 38.8643V57.6357C50.7521 58.6603 51.1596 59.6425 51.884 60.3669C52.6085 61.0914 53.5907 61.4989 54.6152 61.5ZM52.9442 37.1932C53.3874 36.75 53.9884 36.5007 54.6152 36.5H56.3867C57.0135 36.5007 57.6145 36.75 58.0577 37.1932C58.501 37.6365 58.7503 38.2374 58.751 38.8643V57.6357C58.7503 58.2626 58.501 58.8635 58.0577 59.3068C57.6145 59.75 57.0135 59.9993 56.3867 60H54.6152C53.9884 59.9993 53.3874 59.75 52.9442 59.3068C52.501 58.8635 52.2517 58.2626 52.251 57.6357V38.8643C52.2517 38.2374 52.501 37.6365 52.9442 37.1932Z" fill="#6A7580"/>
</svg>
