<svg width="96" height="96" viewBox="0 0 96 96" fill="none" xmlns="http://www.w3.org/2000/svg">
<path fill-rule="evenodd" clip-rule="evenodd" d="M18.5 47.75C18.5 31.622 31.622 18.5 47.75 18.5C63.878 18.5 77 31.622 77 47.75C77 63.878 63.878 77 47.75 77C31.622 77 18.5 63.878 18.5 47.75ZM17 47.75C17 64.706 30.794 78.5 47.75 78.5C64.706 78.5 78.5 64.706 78.5 47.75C78.5 30.794 64.706 17 47.75 17C30.794 17 17 30.794 17 47.75ZM39.5296 35.78C39.8427 35.5993 40.1978 35.5042 40.5593 35.5042C40.9208 35.5042 41.2759 35.5993 41.5889 35.78L50.5605 40.9598L59.532 46.1395C59.8451 46.3203 60.105 46.5802 60.2858 46.8933C60.4665 47.2063 60.5617 47.5614 60.5617 47.9229C60.5617 48.2844 60.4665 48.6395 60.2858 48.9526C60.105 49.2656 59.8451 49.5256 59.532 49.7063L50.5605 54.8861L41.5889 60.0658C41.2759 60.2465 40.9208 60.3417 40.5593 60.3417C40.1978 60.3417 39.8427 60.2465 39.5296 60.0658C39.2166 59.885 38.9566 59.6251 38.7759 59.312C38.5952 58.999 38.5 58.6439 38.5 58.2824V37.5634C38.5 37.2019 38.5952 36.8468 38.7759 36.5338C38.9566 36.2207 39.2166 35.9608 39.5296 35.78ZM40.5593 34.0042C39.9345 34.0042 39.3207 34.1686 38.7796 34.481C38.2386 34.7934 37.7892 35.2427 37.4769 35.7838C37.1645 36.3249 37 36.9386 37 37.5634V58.2824C37 58.9072 37.1645 59.521 37.4769 60.062C37.7892 60.6031 38.2386 61.0524 38.7796 61.3648C39.3207 61.6772 39.9345 61.8417 40.5593 61.8417C41.1841 61.8417 41.7978 61.6772 42.3389 61.3648L51.3105 56.1851L60.282 51.0053C60.8231 50.693 61.2724 50.2436 61.5848 49.7026C61.8972 49.1615 62.0617 48.5477 62.0617 47.9229C62.0617 47.2981 61.8972 46.6844 61.5848 46.1433C61.2724 45.6022 60.8231 45.1529 60.282 44.8405L51.3105 39.6607L42.3389 34.481C41.7978 34.1686 41.1841 34.0042 40.5593 34.0042Z" fill="#6A7580"/>
</svg>
