<?xml version="1.0" encoding="UTF-8"?>
<svg width="96px" height="96px" viewBox="0 0 96 96" version="1.1" xmlns="http://www.w3.org/2000/svg" xmlns:xlink="http://www.w3.org/1999/xlink">
    <!-- Generator: Sketch 64 (93537) - https://sketch.com -->
    <title>Ecommerce / 04 XL / 06-products-last-seen-xl</title>
    <desc>Created with Sketch.</desc>
    <g id="Ecommerce-/-04-XL-/-06-products-last-seen-xl" stroke="none" stroke-width="1" fill="none" fill-rule="evenodd" stroke-linecap="round">
        <g id="Group" transform="translate(18.000000, 18.000000)" stroke="currentColor" stroke-width="1.5">
            <path d="M58.3618925,39.8027228 C59.4234463,36.7308455 60,33.4327534 60,30 C60,13.4314575 46.5685425,0 30,0 C13.4314575,0 0,13.4314575 0,30 C0,46.5685425 13.4314575,60 30,60 C36.4823669,60 42.4845307,57.9440065 47.3899707,54.4485403" id="Path" stroke-linejoin="round"></path>
            <path d="M54,30.0828124 C54,16.8279784 43.254834,6.08281237 30,6.08281237" id="Path" stroke-linejoin="round"></path>
            <path d="M23.9513433,6.52299554 C13.6170729,9.26357499 6,18.6915146 6,29.9007603 C6,43.2561389 16.8130384,54.0828124 30.1515971,54.0828124 C32.6495001,54.0828124 35.0588336,53.7031231 37.3251693,52.9982414" id="Path" stroke-linejoin="round" stroke-dasharray="3,5"></path>
            <path d="M51.4999711,55 C49.53894,54.9724392 47.6066103,54.527146 45.8331107,53.6941078 C44.200285,52.9390311 42.6678053,51.985554 41.2707055,50.8554738 C39.7295634,49.6379603 38.3256128,48.2578361 37.0834532,46.7392834 C36.9721823,46.5989649 36.9721823,46.4010304 37.0834532,46.2607118 C38.3256114,44.7421578 39.7295621,43.3620335 41.2707055,42.1445214 C42.6678042,41.0144409 44.2002841,40.0609653 45.8331107,39.3058922 C47.6066103,38.472854 49.53894,38.0275608 51.4999711,38 C53.461003,38.027555 55.3933339,38.4728485 57.1668315,39.3058922 C58.7996767,40.0609641 60.3321758,41.0144396 61.7292945,42.1445214 C63.2704379,43.3620335 64.6743886,44.7421578 65.9165468,46.2607118 C66.0278177,46.4010304 66.0278177,46.5989649 65.9165468,46.7392834 C64.6743872,48.2578361 63.2704366,49.6379603 61.7292945,50.8554738 C60.3321747,51.9855553 58.7996758,52.9390323 57.1668315,53.6941078 C55.3933339,54.5271515 53.461003,54.972445 51.4999711,55 Z" id="Path" stroke-linejoin="round"></path>
            <circle id="Oval" stroke-linejoin="round" cx="51.5" cy="46.5" r="3.5"></circle>
            <line x1="30" y1="11" x2="30" y2="35.0237777" id="Path-2"></line>
            <line x1="46.0237777" y1="31" x2="26.0237777" y2="31" id="Path-2"></line>
        </g>
    </g>
</svg>