<?xml version="1.0" encoding="UTF-8"?>
<svg width="96px" height="96px" viewBox="0 0 96 96" version="1.1" xmlns="http://www.w3.org/2000/svg" xmlns:xlink="http://www.w3.org/1999/xlink">
    <!-- Generator: Sketch 64 (93537) - https://sketch.com -->
    <title>Campaigns / 04 XL / 01-push-xl</title>
    <desc>Created with Sketch.</desc>
    <g id="Campaigns-/-04-XL-/-01-push-xl" stroke="none" stroke-width="1" fill="none" fill-rule="evenodd" stroke-linecap="round" stroke-linejoin="round">
        <g id="Group" transform="translate(26.373250, 18.011070)" stroke="currentColor" stroke-width="1.5">
            <path d="M-5.54223334e-13,24.39193 L-5.54223334e-13,4.13365 C0.00667274218,1.8534678 1.8534678,0.00667274218 4.13365,-2.13162821e-14 L39.11985,-2.13162821e-14 C41.4000322,0.00667274218 43.2468273,1.8534678 43.2535,4.13365 L43.2535,55.84421 C43.2468273,58.1243922 41.4000322,59.9711873 39.11985,59.97786 L4.13365,59.97786 C1.8534678,59.9711873 0.00667274218,58.1243922 -5.54223334e-13,55.84421 L-5.54223334e-13,24.39193" id="Path"></path>
            <line x1="0.21919" y1="49.36697" x2="43.2535" y2="49.36697" id="Path"></line>
            <circle id="Oval" cx="21.51112" cy="54.53851" r="1.88437"></circle>
            <line x1="21.62675" y1="16.18956" x2="21.62675" y2="12.98893" id="Path"></line>
            <path d="M21.62675,16.18956 C16.57875,16.18956 12.91975,20.28183 12.91975,25.32986 L12.91975,34.80281 L30.33375,34.80281 L30.33375,25.32986 C30.33375,20.28183 26.67475,16.18956 21.62675,16.18956 Z" id="Path"></path>
            <path d="M25.65433,34.91083 C25.650807,37.1606117 23.8260095,38.982554 21.576225,38.982554 C19.3264405,38.982554 17.501643,37.1606117 17.49812,34.91083" id="Path"></path>
        </g>
    </g>
</svg>