<?xml version="1.0" encoding="utf-8"?>
<!-- Generator: Adobe Illustrator 25.2.3, SVG Export Plug-In . SVG Version: 6.00 Build 0)  -->
<svg version="1.1" id="Warstwa_1" xmlns="http://www.w3.org/2000/svg" xmlns:xlink="http://www.w3.org/1999/xlink" x="0px" y="0px"
	 viewBox="0 0 96 96" style="enable-background:new 0 0 96 96;" xml:space="preserve">

<g fill="currentColor">
	<path class="st0" d="M83.1,70.6L83.1,70.6l-8.6-6.9c2.9-4.9,4.4-10.4,4.4-15.7c0-10.4-5.3-20.5-14.8-26.3c-5-3-10.5-4.5-15.9-4.5
		c-10.4,0-20.5,5.3-26.3,14.8c-3,5-4.5,10.5-4.5,15.9c0,10.4,5.3,20.5,14.8,26.3c4.9,3,10.4,4.5,15.9,4.5c5.2,0,10.5-1.4,15.2-4v5.9
		c0,0.7,0.6,1.3,1.3,1.3c0.4,0,0.8-0.2,1-0.5l0,0l4.4-5.5l3.4,6.8l0,0c0.3,0.7,1,1.1,1.7,1.1c0.3,0,0.6-0.1,0.9-0.2l2.6-1.3
		c0.7-0.3,1.1-1,1.1-1.7c0-0.3-0.1-0.6-0.2-0.9L76.2,73h6.2c0.7,0,1.3-0.6,1.3-1.3C83.6,71.3,83.5,70.9,83.1,70.6z M48.1,77.2
		c-5.3,0-10.5-1.4-15.2-4.2c-9.1-5.5-14.1-15.1-14.1-25c0-5.2,1.4-10.4,4.2-15.1c5.5-9.1,15.1-14.1,25-14.1c5.2,0,10.4,1.4,15.1,4.2
		c9.1,5.5,14.1,15.1,14.1,25c0,5-1.3,10.1-4,14.8l-7.9-6.3l0,0c-0.2-0.2-0.5-0.3-0.8-0.3c-0.4,0-0.8,0.2-1,0.5l0,0
		c-0.2,0.2-0.3,0.5-0.3,0.8V73C58.7,75.8,53.4,77.2,48.1,77.2z M74.3,72.6l3.9,7.8l0,0.2c0,0.2-0.1,0.3-0.2,0.4l0,0l-2.6,1.3l-0.2,0
		c-0.2,0-0.3-0.1-0.4-0.2l0,0l-3.9-7.8c-0.1-0.2-0.3-0.4-0.6-0.4c-0.3,0-0.5,0.1-0.7,0.3l-4.8,6V58l17,13.5h-6.9
		c-0.3,0-0.5,0.1-0.6,0.4C74.2,72.1,74.2,72.3,74.3,72.6z"/>
	<path class="st0" d="M27,33.2c-1.2,1.7-2.2,3.5-2.9,5.4c-0.2,0.4,0,0.8,0.4,1c0.4,0.2,0.8,0,1-0.4c0.7-1.8,1.6-3.5,2.7-5.1
		c0.2-0.3,0.2-0.8-0.2-1C27.7,32.8,27.3,32.9,27,33.2z"/>
	<path class="st0" d="M23.9,48c0-1.1,0.1-2.1,0.2-3.2c0.1-0.4-0.2-0.8-0.6-0.8s-0.8,0.2-0.8,0.6c-0.1,1.1-0.2,2.2-0.2,3.4
		c0,0.9,0.1,1.9,0.1,2.8c0,0.4,0.4,0.7,0.8,0.7c0.4,0,0.7-0.4,0.7-0.8C23.9,49.8,23.9,48.9,23.9,48z"/>
	<path class="st0" d="M42.4,24.4c1.8-0.5,3.8-0.7,5.8-0.7c6.7,0,12.8,2.7,17.1,7.1c4.4,4.4,7.1,10.4,7.1,17.1c0,0.4,0.3,0.8,0.8,0.8
		s0.8-0.3,0.8-0.8c0-14.2-11.5-25.7-25.8-25.8C46,22.2,44,22.5,42,23c-0.4,0.1-0.6,0.5-0.6,0.9C41.6,24.3,42,24.5,42.4,24.4z"/>
	<path class="st0" d="M25.3,56.3c-0.1-0.4-0.6-0.6-1-0.4c-0.4,0.1-0.6,0.6-0.4,1c0.7,2,1.7,3.8,2.8,5.5c0.2,0.3,0.7,0.4,1,0.2
		c0.3-0.2,0.4-0.7,0.2-1C26.9,59.9,26,58.1,25.3,56.3z"/>
	<path class="st0" d="M47.6,72.2c-2,0-3.9-0.3-5.7-0.8c-0.4-0.1-0.8,0.1-0.9,0.5s0.1,0.8,0.5,0.9c2,0.5,4,0.8,6.1,0.9
		c0.4,0,0.8-0.3,0.8-0.7C48.3,72.6,48,72.3,47.6,72.2z"/>
	<path class="st0" d="M36.4,69.3c-1.7-0.9-3.3-2.1-4.7-3.4c-0.3-0.3-0.8-0.3-1.1,0c-0.3,0.3-0.3,0.8,0,1.1c1.5,1.4,3.2,2.6,5,3.6
		c0.4,0.2,0.8,0.1,1-0.3C36.9,69.9,36.8,69.5,36.4,69.3z"/>
	<path class="st0" d="M36.2,25.2c-1.8,1-3.5,2.1-5.1,3.5c-0.3,0.3-0.3,0.7-0.1,1.1c0.3,0.3,0.7,0.3,1.1,0.1c1.5-1.3,3.1-2.4,4.8-3.3
		c0.4-0.2,0.5-0.6,0.3-1C37.1,25.1,36.6,25,36.2,25.2z"/>
	<path class="st0" d="M67.6,48.8c0.4,0,0.8-0.3,0.8-0.8c0-0.4-0.3-0.8-0.8-0.8H48.9V28.5c0-0.4-0.3-0.8-0.8-0.8s-0.8,0.3-0.8,0.8
		v18.8h-3.2c-0.4,0-0.8,0.3-0.8,0.8c0,0.4,0.3,0.8,0.8,0.8h3.2V52c0,0.4,0.3,0.8,0.8,0.8s0.8-0.3,0.8-0.8v-3.2H67.6z"/>
</g>
</svg>
