<?xml version="1.0" encoding="utf-8"?>
<!-- Generator: Adobe Illustrator 25.0.1, SVG Export Plug-In . SVG Version: 6.00 Build 0)  -->
<svg version="1.1" id="icon" xmlns="http://www.w3.org/2000/svg" xmlns:xlink="http://www.w3.org/1999/xlink" x="0px" y="0px"
	 viewBox="0 0 96 96" style="enable-background:new 0 0 96 96;" xml:space="preserve">
<g fill="currentColor">
	<path class="st0" d="M78,71.4H18.8V24c0-0.4-0.3-0.8-0.8-0.8s-0.8,0.3-0.8,0.8v48.1c0,0.2,0.1,0.4,0.2,0.5s0.3,0.2,0.5,0.2h60
		c0.4,0,0.8-0.3,0.8-0.8C78.8,71.7,78.4,71.4,78,71.4z"/>
	<path class="st0" d="M32.2,60.5c2.3,0,4.2-1.9,4.2-4.2c0-0.9-0.3-1.6-0.7-2.3l4.9-4.6c0.7,0.5,1.5,0.8,2.4,0.8
		c2.1,0,3.8-1.5,4.1-3.4h2.6c0.4,2,2.1,3.4,4.1,3.4c2.3,0,4.2-1.9,4.2-4.2c0-0.9-0.3-1.7-0.7-2.3l4.9-4.5c0.7,0.5,1.5,0.8,2.4,0.8
		c2.3,0,4.2-1.9,4.2-4.2c0-2.3-1.9-4.2-4.2-4.2c-2.3,0-4.2,1.9-4.2,4.2c0,0.9,0.3,1.7,0.7,2.4l-4.9,4.5c-0.7-0.5-1.5-0.8-2.4-0.8
		c-2.1,0-3.8,1.5-4.1,3.4h-2.6c-0.4-2-2.1-3.4-4.1-3.4c-2.3,0-4.2,1.9-4.2,4.2c0,0.9,0.3,1.7,0.7,2.3l-4.9,4.6
		c-0.7-0.5-1.5-0.8-2.4-0.8c-2.3,0-4.2,1.9-4.2,4.2C28,58.6,29.9,60.5,32.2,60.5z M64.6,33.1c1.5,0,2.7,1.2,2.7,2.7
		c0,1.5-1.2,2.7-2.7,2.7c-1.5,0-2.7-1.2-2.7-2.7C61.9,34.3,63.1,33.1,64.6,33.1z M53.8,43.4c0.7,0,1.4,0.3,1.9,0.8c0,0,0,0,0,0
		c0,0,0,0,0,0c0.5,0.5,0.8,1.1,0.8,1.9c0,1.5-1.2,2.7-2.7,2.7c-1.5,0-2.7-1.2-2.7-2.7C51.1,44.6,52.3,43.4,53.8,43.4z M43,43.4
		c1.5,0,2.7,1.2,2.7,2.7c0,1.5-1.2,2.7-2.7,2.7c-1.5,0-2.7-1.2-2.7-2.7C40.3,44.6,41.5,43.4,43,43.4z M32.2,53.6
		c1.5,0,2.7,1.2,2.7,2.7c0,1.5-1.2,2.7-2.7,2.7c-1.5,0-2.7-1.2-2.7-2.7C29.5,54.8,30.7,53.6,32.2,53.6z"/>
	<path class="st0" d="M43,37.1c1.5,0,2.7-1.2,2.8-2.8c0-1.5-1.2-2.7-2.8-2.8c-1.5,0-2.7,1.2-2.8,2.8C40.3,35.9,41.5,37.1,43,37.1z
		 M43,33.1c0.7,0,1.2,0.6,1.2,1.2c0,0.7-0.6,1.2-1.2,1.2c-0.7,0-1.2-0.6-1.2-1.2C41.8,33.7,42.3,33.1,43,33.1z"/>
	<path class="st0" d="M53.8,35.8c1.5,0,2.7-1.2,2.8-2.8c0-1.5-1.2-2.7-2.8-2.8c-1.5,0-2.7,1.2-2.8,2.8C51,34.6,52.3,35.8,53.8,35.8z
		 M53.8,31.8c0.7,0,1.2,0.6,1.2,1.2c0,0.7-0.6,1.2-1.2,1.2c-0.7,0-1.2-0.6-1.2-1.2C52.5,32.4,53.1,31.8,53.8,31.8z"/>
	<path class="st0" d="M40.2,59.8c0,1.5,1.2,2.7,2.8,2.8c1.5,0,2.7-1.2,2.8-2.8c0-1.5-1.2-2.7-2.8-2.8C41.5,57,40.3,58.2,40.2,59.8z
		 M44.2,59.8c0,0.7-0.6,1.2-1.2,1.2c-0.7,0-1.2-0.6-1.2-1.2c0-0.7,0.6-1.2,1.2-1.2C43.7,58.5,44.2,59.1,44.2,59.8z"/>
	<path class="st0" d="M51,59.8c0,1.5,1.2,2.7,2.8,2.8c1.5,0,2.7-1.2,2.8-2.8c0-1.5-1.2-2.7-2.8-2.8C52.3,57,51,58.2,51,59.8z
		 M55,59.8c0,0.7-0.6,1.2-1.2,1.2c-0.7,0-1.2-0.6-1.2-1.2c0-0.7,0.6-1.2,1.2-1.2C54.5,58.5,55,59.1,55,59.8z"/>
	<path class="st0" d="M64.8,46c-1.5,0-2.7,1.2-2.8,2.8c0,1.5,1.2,2.7,2.8,2.7c1.5,0,2.7-1.2,2.8-2.7C67.6,47.2,66.3,46,64.8,46z
		 M64.8,50c-0.7,0-1.2-0.6-1.2-1.2c0-0.7,0.6-1.2,1.2-1.2c0.7,0,1.2,0.6,1.2,1.2C66.1,49.4,65.5,50,64.8,50z"/>
	<path class="st0" d="M32.2,46.9c1.5,0,2.7-1.2,2.8-2.8c0-1.5-1.2-2.7-2.8-2.8c-1.5,0-2.7,1.2-2.8,2.8
		C29.5,45.6,30.7,46.9,32.2,46.9z M32.2,42.9c0.7,0,1.2,0.6,1.2,1.2c0,0.7-0.6,1.2-1.2,1.2c-0.7,0-1.2-0.6-1.2-1.2
		C31,43.4,31.5,42.9,32.2,42.9z"/>
</g>
</svg>
