<?xml version="1.0" encoding="UTF-8"?>
<svg width="96px" height="96px" viewBox="0 0 96 96" version="1.1" xmlns="http://www.w3.org/2000/svg"
    xmlns:xlink="http://www.w3.org/1999/xlink">
    <title>Actions / 04 XL / 04-search-no-results-xl</title>
    <g id="Actions-/-04-XL-/-04-search-no-results-xl" stroke="none" stroke-width="1"
        fill-rule="evenodd" fill="currentColor">
        <path
            d="M47.427,20.0004 C62.551,20.0004 74.854,32.3044 74.854,47.4284 C74.854,53.8844 72.606,59.8224 68.859,64.5134 L68.859,64.5134 L73.935,69.5884 C75.519,71.1724 75.519,73.7514 73.935,75.3374 C73.143,76.1294 72.102,76.5254 71.061,76.5254 C70.02,76.5254 68.979,76.1294 68.187,75.3374 L68.187,75.3374 L62.906,70.0554 C58.498,73.0814 53.166,74.8564 47.427,74.8564 C32.304,74.8564 20,62.5514 20,47.4284 C20,32.3044 32.304,20.0004 47.427,20.0004 Z M67.891,65.6654 C66.75,66.9434 65.491,68.1134 64.133,69.1604 L64.133,69.1604 L69.247,74.2764 C70.248,75.2764 71.875,75.2754 72.874,74.2764 C73.874,73.2764 73.874,71.6484 72.874,70.6494 L72.874,70.6494 Z M47.427,21.5004 C33.131,21.5004 21.5,33.1314 21.5,47.4284 C21.5,61.7244 33.131,73.3564 47.427,73.3564 C61.724,73.3564 73.354,61.7244 73.354,47.4284 C73.354,33.1314 61.724,21.5004 47.427,21.5004 Z M47.4268,25.311 C59.6218,25.311 69.5438,35.232 69.5438,47.428 C69.5438,59.624 59.6218,69.545 47.4268,69.545 C47.0128,69.545 46.6768,69.209 46.6768,68.795 C46.6768,68.381 47.0128,68.045 47.4268,68.045 C58.7948,68.045 68.0438,58.796 68.0438,47.428 C68.0438,36.06 58.7948,26.811 47.4268,26.811 C47.0128,26.811 46.6768,26.476 46.6768,26.061 C46.6768,25.646 47.0128,25.311 47.4268,25.311 Z M39.6441,40.0245 C39.9371,39.7315 40.4121,39.7315 40.7051,40.0245 L40.7051,40.0245 L47.3701,46.6905 L54.0361,40.0245 C54.3291,39.7315 54.8041,39.7315 55.0971,40.0245 C55.3901,40.3175 55.3901,40.7915 55.0971,41.0845 L55.0971,41.0845 L48.4311,47.7505 L55.0971,54.4165 C55.3901,54.7095 55.3901,55.1845 55.0971,55.4775 C54.9501,55.6235 54.7591,55.6975 54.5661,55.6975 C54.3741,55.6975 54.1821,55.6235 54.0361,55.4775 L54.0361,55.4775 L47.3701,48.8115 L40.7051,55.4775 C40.5581,55.6235 40.3671,55.6975 40.1751,55.6975 C39.9821,55.6975 39.7911,55.6235 39.6441,55.4775 C39.3511,55.1845 39.3511,54.7095 39.6441,54.4165 L39.6441,54.4165 L46.3091,47.7505 L39.6441,41.0855 C39.3511,40.7925 39.3511,40.3175 39.6441,40.0245 Z"
            fill-rule="nonzero"></path>
    </g>
</svg>