<?xml version="1.0" encoding="utf-8"?>
<!-- Generator: Adobe Illustrator 26.5.3, SVG Export Plug-In . SVG Version: 6.00 Build 0)  -->
<svg version="1.1" id="Warstwa_1" xmlns="http://www.w3.org/2000/svg" xmlns:xlink="http://www.w3.org/1999/xlink" x="0px" y="0px"
	 viewBox="0 0 96 96" style="enable-background:new 0 0 96 96;" xml:space="preserve">

<g>
	<path fill="currentColor" d="M80.4,71.8L72,63.4c0,0-0.1-0.1-0.2-0.1c3.6-4.8,5.8-10.8,5.8-17.3c0-15.8-12.8-28.7-28.8-28.8
		c-11,0-20.5,6.2-25.4,15.3c0,0.1,0,0.1-0.1,0.2h-6.3c-1.5,0-2.7,1.2-2.8,2.8v12.3c0,0.1,0,0.2,0,0.2c0,0.1,0,0.2,0,0.3v8.1
		c0,1.5,1.2,2.7,2.8,2.8h6.3c4.8,9.1,14.3,15.4,25.5,15.4c6.4,0,12.4-2.1,17.1-5.7c0,0.1,0.1,0.1,0.1,0.2l8.4,8.4
		c0.8,0.8,1.8,1.2,2.9,1.2c1,0,2.1-0.4,2.9-1.2c0.8-0.8,1.2-1.8,1.2-2.9C81.6,73.6,81.2,72.6,80.4,71.8z M16.3,57.4
		c-0.2-0.2-0.4-0.5-0.4-0.9v-8.7c0.1-0.7,0.7-1.3,1.5-1.3h3.8v1.3c0,1.3,0.5,2.5,1.4,3.3c0.8,0.8,2,1.3,3.3,1.3h3.6
		c0.5,0,1-0.2,1.3-0.6c0.3-0.3,0.5-0.7,0.5-1.2v-8.9c0-0.5-0.2-1-0.6-1.3c-0.3-0.3-0.7-0.5-1.2-0.5h-4c-2.3,0-4.2,1.9-4.2,4.2V45
		h-3.8c-0.6,0-1.1,0.2-1.5,0.4v-10c0-0.3,0.1-0.7,0.4-0.9c0.2-0.2,0.5-0.4,0.9-0.4h34.2c0.3,0,0.7,0.1,0.9,0.4
		c0.2,0.2,0.4,0.5,0.4,0.9V44c0,0.4-0.2,0.8-0.4,1c-0.3,0.3-0.6,0.4-1.1,0.4h-3.9v-0.8c0-2.4-2-4.4-4.5-4.5h-3.8
		c-0.5,0-0.9,0.2-1.2,0.5c-0.3,0.3-0.6,0.8-0.6,1.3v1.5h-3.5c-0.4,0-0.8,0.3-0.8,0.8c0,0.4,0.3,0.8,0.8,0.8h3.5v2.9h-3.5
		c-0.4,0-0.8,0.3-0.8,0.8c0,0.4,0.3,0.8,0.8,0.8h3.5v1.5c0,0.5,0.2,0.9,0.5,1.2c0.3,0.3,0.8,0.6,1.3,0.6h3.8c2.4,0,4.4-2,4.5-4.4V47
		h3.9c0.6,0,1.1-0.2,1.6-0.4v10c0,0.3-0.1,0.7-0.4,0.9c-0.2,0.2-0.5,0.4-0.9,0.4H17.2C16.9,57.7,16.5,57.6,16.3,57.4z M29.6,41.6
		l0.2,0.1l0.1,0.2v8.9L29.8,51L29.6,51H26c-0.8,0-1.6-0.3-2.2-0.9c-0.6-0.6-0.9-1.3-0.9-2.2v-3.5c0-0.7,0.3-1.4,0.8-1.9
		c0.5-0.5,1.2-0.8,1.9-0.8H29.6z M38.9,51.1l-0.2-0.1l-0.1-0.2V42l0.1-0.2l0.2-0.1h3.8c0.8,0,1.5,0.3,2.1,0.9
		c0.5,0.5,0.9,1.3,0.9,2.1v1.1c-0.1,0.1-0.1,0.2-0.1,0.4s0,0.2,0.1,0.4v1.6c0,0.8-0.3,1.5-0.9,2.1c-0.5,0.5-1.3,0.9-2.1,0.9H38.9z
		 M25.3,59.2h26.1c1.5,0,2.7-1.2,2.8-2.8V44c0,0,0,0,0-0.1l0-0.2v-8.2c0-1.5-1.2-2.7-2.8-2.8H25.1c4.7-8.4,13.5-14,23.8-14
		c7.5,0,14.4,3.1,19.3,8c4.9,4.9,8,11.8,8,19.2c0,7.5-3,14.3-8,19.2c-4.9,4.9-11.7,8-19.2,8C38.8,73.2,29.9,67.5,25.3,59.2z
		 M79.4,76.5c-0.5,0.5-1.2,0.8-1.8,0.8c-0.7,0-1.3-0.2-1.8-0.8l-8.4-8.4c0,0,0,0,0,0c1.3-1.1,2.5-2.3,3.7-3.6c0,0,0,0,0,0l8.4,8.4
		c0.5,0.5,0.8,1.2,0.8,1.8C80.1,75.3,79.9,76,79.4,76.5z"/>
	<path fill="currentColor" d="M48.9,25.6c-4,0-7.7,1.1-10.9,3.1c-0.4,0.2-0.5,0.7-0.2,1s0.7,0.5,1,0.2c3-1.8,6.4-2.9,10.1-2.9
		c5.2,0,9.9,2.1,13.3,5.5c3.4,3.4,5.5,8.1,5.5,13.3c0,5.2-2.1,9.9-5.5,13.3c-3.4,3.4-8.1,5.5-13.3,5.5c-3.7,0-7-1-9.9-2.8
		c-0.3-0.2-0.8-0.1-1,0.2s-0.1,0.8,0.2,1c3.1,2,6.8,3,10.7,3c11.2,0,20.3-9.1,20.3-20.3C69.2,34.8,60.1,25.7,48.9,25.6z"/>
</g>
</svg>
