<?xml version="1.0" encoding="utf-8"?>
<!-- Generator: Adobe Illustrator 26.5.3, SVG Export Plug-In . SVG Version: 6.00 Build 0)  -->
<svg version="1.1" id="Warstwa_1" xmlns="http://www.w3.org/2000/svg" xmlns:xlink="http://www.w3.org/1999/xlink" x="0px" y="0px"
	 viewBox="0 0 96 96" style="enable-background:new 0 0 96 96;" xml:space="preserve">

<g fill="currentColor">
	<path  d="M30.9,39.6C30.9,39.5,30.8,39.5,30.9,39.6c-0.1-0.1-0.1-0.1-0.1-0.2c0,0-0.1-0.1-0.1-0.1c0,0,0,0-0.1-0.1
		c0,0,0,0-0.1,0c0,0-0.1,0-0.1,0c0,0-0.1,0-0.1,0c0,0-0.1,0-0.1,0c-0.1,0-0.1,0-0.1,0c0,0,0,0-0.1,0c0,0,0,0-0.1,0.1
		c0,0-0.1,0.1-0.1,0.1c0,0-0.1,0.1-0.1,0.1c0,0,0,0-0.1,0.1l-5.7,11.3c-0.2,0.4,0,0.8,0.3,1c0.4,0.2,0.8,0,1-0.3l1.2-2.3
		c0.1,0,0.2,0.1,0.3,0.1H34c0,0,0,0,0.1,0l1.2,2.3c0.2,0.4,0.6,0.5,1,0.3c0.4-0.2,0.5-0.6,0.3-1L30.9,39.6z M27.1,47.8l3.1-6.2
		l3.1,6.2H27.1z"/>
	<path  d="M40.7,39.1c-0.4,0-0.8,0.3-0.8,0.8v11.3c0,0.4,0.3,0.8,0.8,0.8c0.4,0,0.8-0.3,0.8-0.8V39.9
		C41.5,39.5,41.1,39.1,40.7,39.1z"/>
	<path  d="M80.1,71.6l-8.3-8.3c0,0-0.1-0.1-0.1-0.1c3.6-4.8,5.8-10.7,5.8-17.2c0-15.7-12.8-28.4-28.5-28.5
		c-10.9,0-20.4,6.2-25.2,15.2c0,0,0,0.1,0,0.1h-6.2c-1.5,0-2.7,1.2-2.8,2.8v20.8c0,1.5,1.2,2.7,2.8,2.8h6.2
		C28.5,68.3,38,74.5,49,74.5c6.4,0,12.2-2.1,17-5.6c0,0.1,0.1,0.1,0.1,0.2l8.3,8.3c0.8,0.8,1.8,1.2,2.9,1.2c1,0,2.1-0.4,2.9-1.2
		c0.8-0.8,1.2-1.8,1.2-2.9C81.3,73.4,80.9,72.4,80.1,71.6z M16.6,57.3c-0.2-0.2-0.4-0.5-0.4-0.9V35.6c0-0.3,0.1-0.7,0.4-0.9
		c0.2-0.2,0.5-0.4,0.9-0.4h33.9c0.3,0,0.7,0.1,0.9,0.4c0.2,0.2,0.4,0.5,0.4,0.9v20.8c0,0.3-0.1,0.7-0.4,0.9
		c-0.2,0.2-0.5,0.4-0.9,0.4H17.5C17.2,57.6,16.8,57.5,16.6,57.3z M25.5,59.1h25.9c1.5,0,2.7-1.2,2.8-2.8V35.6c0-1.5-1.2-2.7-2.8-2.8
		h-26C30,24.6,38.8,19,48.9,19c7.4,0,14.2,3,19.1,7.9c4.9,4.9,7.9,11.6,7.9,19.1c0,7.4-3,14.2-7.9,19.1C63.2,69.9,56.4,72.9,49,73
		C38.9,72.9,30.1,67.4,25.5,59.1z M79.1,76.3c-0.5,0.5-1.2,0.8-1.8,0.8c-0.7,0-1.3-0.2-1.8-0.8L67.1,68c0,0,0,0,0,0
		c1.3-1.1,2.6-2.3,3.7-3.6c0,0,0,0,0,0l8.3,8.3c0.5,0.5,0.8,1.2,0.8,1.8C79.8,75.1,79.6,75.8,79.1,76.3z"/>
	<path  d="M63.2,31.6c-3.7-3.7-8.7-5.9-14.3-5.9c-3.9,0-7.7,1.1-10.8,3.1c-0.3,0.2-0.5,0.7-0.2,1c0.2,0.3,0.7,0.5,1,0.2
		c2.9-1.8,6.3-2.9,10-2.9c10.4,0,18.7,8.4,18.8,18.8c0,10.4-8.4,18.7-18.8,18.8c-3.6,0-6.9-1.1-9.8-2.8c-0.4-0.2-0.8-0.1-1,0.3
		c-0.2,0.4-0.1,0.8,0.3,1c3.1,1.9,6.7,3,10.6,3c5.6,0,10.7-2.3,14.3-5.9c3.7-3.7,5.9-8.7,5.9-14.3C69.2,40.3,66.9,35.2,63.2,31.6z"
		/>
</g>
</svg>
