<?xml version="1.0" encoding="utf-8"?>
<!-- Generator: Adobe Illustrator 26.5.3, SVG Export Plug-In . SVG Version: 6.00 Build 0)  -->
<svg version="1.1" id="Warstwa_1" xmlns="http://www.w3.org/2000/svg" xmlns:xlink="http://www.w3.org/1999/xlink" x="0px" y="0px"
	 viewBox="0 0 96 96" style="enable-background:new 0 0 96 96;" xml:space="preserve">
<style type="text/css">
	.st0{display:none;}
	.st1{display:inline;fill:#FFFFFF;}
	.st2{display:inline;fill:none;stroke:#009FE3;stroke-width:0.25;stroke-miterlimit:10;}
	.st3{display:inline;}
	.st4{fill:none;stroke:#FF00FF;stroke-width:0.25;stroke-miterlimit:10;}
	.st5{display:inline;fill:none;stroke:#FF00FF;stroke-width:0.25;stroke-miterlimit:10;}
	.st6{fill:#384350;}
</style>
<g id="canvas" class="st0">
	<rect y="0" class="st1" width="96" height="96"/>
</g>
<g id="Grid" class="st0">
	
		<rect id="canvas_60x60px_00000142155984401312943500000005732706890794793378_" x="18" y="18" class="st2" width="60" height="60"/>
	
		<rect id="canvas_70x70px_00000101793509371960612160000012640285490995076788_" x="13" y="13" class="st2" width="70" height="70"/>
</g>
<g id="Additional_bottom_right" class="st0">
	<g class="st3">
		
			<rect id="_x38_x8p_canvas_00000037661770967779633110000007712110901029627053_" x="57" y="57" class="st4" width="26" height="26"/>
		
			<rect id="_x38_x8p_canvas_00000031195459762204617400000010276819310135257221_" x="53" y="53" class="st4" width="34" height="34"/>
	</g>
</g>
<g id="Additional_bottom_left" class="st0">
	<g class="st3">
		
			<rect id="_x38_x8p_canvas_00000094616690940471596470000017547931885427194517_" x="13" y="57" class="st4" width="26" height="26"/>
		
			<rect id="_x38_x8p_canvas_00000012438409850413870030000009576253248721710737_" x="9" y="53" class="st4" width="34" height="34"/>
	</g>
</g>
<g id="additional_up_left" class="st0">
	<g class="st3">
		
			<rect id="_x38_x8p_canvas_00000097464396710753415880000014664315496582576525_" x="13" y="13" class="st4" width="26" height="26"/>
		
			<rect id="_x38_x8p_canvas_00000073000467405762726510000018360254879285436577_" x="9" y="9" class="st4" width="34" height="34"/>
	</g>
</g>
<g id="additional_up_right" class="st0">
	<g class="st3">
		
			<rect id="_x38_x8p_canvas_00000044866428843259787840000005042365702427328673_" x="56.7" y="13" class="st4" width="26" height="26"/>
		
			<rect id="_x38_x8p_canvas_00000176001119878976147900000012579809629989615526_" x="52.7" y="9" class="st4" width="34" height="34"/>
	</g>
</g>
<g id="Additional_center" class="st0">
	
		<rect id="_x38_x8p_canvas_00000118361365481383368950000011423836465938964671_" x="31" y="31" class="st5" width="34" height="34"/>
	
		<rect id="_x38_x8p_canvas_00000097464405036653797140000017973416784960654761_" x="35" y="35" class="st5" width="26" height="26"/>
</g>
<g id="Vertical_rectangle" class="st0">
	<path class="st2" d="M68,18H28c-2.2,0-4,1.8-4,4v52c0,2.2,1.8,4,4,4h40c2.2,0,4-1.8,4-4V22C72,19.8,70.2,18,68,18z"/>
</g>
<g id="Horizontal_rectangle" class="st0">
	<path class="st2" d="M74,24H22c-2.2,0-4,1.8-4,4v40c0,2.2,1.8,4,4,4h52c2.2,0,4-1.8,4-4V28C78,25.8,76.2,24,74,24z"/>
</g>
<g id="square" class="st0">
	<path class="st2" d="M71,75H25c-2.2,0-4-1.8-4-4V25c0-2.2,1.8-4,4-4h46c2.2,0,4,1.8,4,4v46C75,73.2,73.2,75,71,75z"/>
</g>
<g>
	<path class="st6" d="M30.9,39.6C30.9,39.5,30.8,39.5,30.9,39.6c-0.1-0.1-0.1-0.1-0.1-0.2c0,0-0.1-0.1-0.1-0.1c0,0,0,0-0.1-0.1
		c0,0,0,0-0.1,0c0,0-0.1,0-0.1,0c0,0-0.1,0-0.1,0c0,0-0.1,0-0.1,0c-0.1,0-0.1,0-0.1,0c0,0,0,0-0.1,0c0,0,0,0-0.1,0.1
		c0,0-0.1,0.1-0.1,0.1c0,0-0.1,0.1-0.1,0.1c0,0,0,0-0.1,0.1l-5.7,11.3c-0.2,0.4,0,0.8,0.3,1c0.4,0.2,0.8,0,1-0.3l1.2-2.3
		c0.1,0,0.2,0.1,0.3,0.1H34c0,0,0,0,0.1,0l1.2,2.3c0.2,0.4,0.6,0.5,1,0.3c0.4-0.2,0.5-0.6,0.3-1L30.9,39.6z M27.1,47.8l3.1-6.2
		l3.1,6.2H27.1z"/>
	<path class="st6" d="M40.7,39.1c-0.4,0-0.8,0.3-0.8,0.8v11.3c0,0.4,0.3,0.8,0.8,0.8c0.4,0,0.8-0.3,0.8-0.8V39.9
		C41.5,39.5,41.1,39.1,40.7,39.1z"/>
	<path class="st6" d="M80.1,71.6l-8.3-8.3c0,0-0.1-0.1-0.1-0.1c3.6-4.8,5.8-10.7,5.8-17.2c0-15.7-12.8-28.4-28.5-28.5
		c-10.9,0-20.4,6.2-25.2,15.2c0,0,0,0.1,0,0.1h-6.2c-1.5,0-2.7,1.2-2.8,2.8v20.8c0,1.5,1.2,2.7,2.8,2.8h6.2
		C28.5,68.3,38,74.5,49,74.5c6.4,0,12.2-2.1,17-5.6c0,0.1,0.1,0.1,0.1,0.2l8.3,8.3c0.8,0.8,1.8,1.2,2.9,1.2c1,0,2.1-0.4,2.9-1.2
		c0.8-0.8,1.2-1.8,1.2-2.9C81.3,73.4,80.9,72.4,80.1,71.6z M16.6,57.3c-0.2-0.2-0.4-0.5-0.4-0.9V35.6c0-0.3,0.1-0.7,0.4-0.9
		c0.2-0.2,0.5-0.4,0.9-0.4h33.9c0.3,0,0.7,0.1,0.9,0.4c0.2,0.2,0.4,0.5,0.4,0.9v20.8c0,0.3-0.1,0.7-0.4,0.9
		c-0.2,0.2-0.5,0.4-0.9,0.4H17.5C17.2,57.6,16.8,57.5,16.6,57.3z M25.5,59.1h25.9c1.5,0,2.7-1.2,2.8-2.8V35.6c0-1.5-1.2-2.7-2.8-2.8
		h-26C30,24.6,38.8,19,48.9,19c7.4,0,14.2,3,19.1,7.9c4.9,4.9,7.9,11.6,7.9,19.1c0,7.4-3,14.2-7.9,19.1C63.2,69.9,56.4,72.9,49,73
		C38.9,72.9,30.1,67.4,25.5,59.1z M79.1,76.3c-0.5,0.5-1.2,0.8-1.8,0.8c-0.7,0-1.3-0.2-1.8-0.8L67.1,68c0,0,0,0,0,0
		c1.3-1.1,2.6-2.3,3.7-3.6c0,0,0,0,0,0l8.3,8.3c0.5,0.5,0.8,1.2,0.8,1.8C79.8,75.1,79.6,75.8,79.1,76.3z"/>
	<path class="st6" d="M63.2,31.6c-3.7-3.7-8.7-5.9-14.3-5.9c-3.9,0-7.7,1.1-10.8,3.1c-0.3,0.2-0.5,0.7-0.2,1c0.2,0.3,0.7,0.5,1,0.2
		c2.9-1.8,6.3-2.9,10-2.9c10.4,0,18.7,8.4,18.8,18.8c0,10.4-8.4,18.7-18.8,18.8c-3.6,0-6.9-1.1-9.8-2.8c-0.4-0.2-0.8-0.1-1,0.3
		c-0.2,0.4-0.1,0.8,0.3,1c3.1,1.9,6.7,3,10.6,3c5.6,0,10.7-2.3,14.3-5.9c3.7-3.7,5.9-8.7,5.9-14.3C69.2,40.3,66.9,35.2,63.2,31.6z"
		/>
</g>
</svg>
