<?xml version="1.0" encoding="utf-8"?>
<!-- Generator: Adobe Illustrator 26.5.3, SVG Export Plug-In . SVG Version: 6.00 Build 0)  -->
<svg version="1.1" id="Warstwa_1" xmlns="http://www.w3.org/2000/svg" xmlns:xlink="http://www.w3.org/1999/xlink" x="0px" y="0px"
	 viewBox="0 0 96 96" style="enable-background:new 0 0 96 96;" xml:space="preserve">
<g>
	<path fill="currentColor" d="M48,34.5L45,34.4v-3c0-0.3-0.2-0.6-0.5-0.7c-0.3-0.1-0.6-0.1-0.8,0.2l-3.3,3.3c-0.1,0.1-0.2,0.3-0.2,0.5v3.4
		c0,0-0.1,0.1-0.2,0.2c-1.8-1.6-4.1-2.5-6.7-2.5c-5.7,0-10.2,4.6-10.2,10.2c0,5.7,4.6,10.2,10.2,10.2c5.7,0,10.2-4.6,10.2-10.2
		c0-2.6-0.9-4.9-2.5-6.7c0,0,0,0,0.1-0.1h3.6c0.2,0,0.4-0.1,0.5-0.2l3.3-3.3c0.2-0.2,0.3-0.5,0.2-0.8C48.6,34.6,48.3,34.5,48,34.5z
		 M39.5,52.2c-1.6,1.6-3.8,2.6-6.2,2.6c-2.4,0-4.6-1-6.2-2.6c-1.6-1.6-2.6-3.8-2.6-6.2c0-2.4,1-4.6,2.6-6.2c1.6-1.6,3.8-2.6,6.2-2.6
		c2.1,0,4.1,0.8,5.6,2.1c-0.4,0.4-1,1-1.8,1.8c-1.1-0.8-2.4-1.3-3.9-1.3c-3.5,0-6.2,2.8-6.2,6.2c0,3.5,2.8,6.2,6.2,6.2
		c3.5,0,6.2-2.8,6.2-6.2c0-1.5-0.5-2.8-1.3-3.9c0.8-0.8,1.3-1.3,1.8-1.8c1.3,1.5,2.1,3.5,2.1,5.6C42,48.4,41.1,50.6,39.5,52.2z
		 M38,46c0,1.3-0.5,2.5-1.4,3.4c-0.9,0.9-2,1.4-3.4,1.4c-1.3,0-2.5-0.5-3.4-1.4c-0.9-0.9-1.4-2-1.4-3.4c0-1.3,0.5-2.5,1.4-3.4
		c0.9-0.9,2-1.4,3.4-1.4c1,0,2,0.3,2.8,0.9c-0.6,0.6-1.2,1.2-2,2C33.9,44,33.6,44,33.3,44c-1.1,0-2,0.9-2,2c0,1.1,0.9,2,2,2
		c1.1,0,2-0.9,2-2c0-0.3-0.1-0.6-0.2-0.8c0.7-0.7,1.4-1.4,2-2C37.7,44,38,45,38,46z M44.4,37.8h-2.7V35l1.8-1.8v1.9
		c0,0.4,0.3,0.7,0.7,0.7l2.1,0.1L44.4,37.8z"/>
	<path fill="currentColor" d="M80.4,71.8L72,63.4c0,0-0.1-0.1-0.2-0.1c3.6-4.8,5.8-10.8,5.8-17.3c0-15.8-12.8-28.7-28.8-28.8
		c-11,0-20.5,6.2-25.4,15.3c0,0.1,0,0.1-0.1,0.2h-6.1c-1.6,0-2.9,1.3-3,3v20.6c0,1.6,1.3,2.9,3,3h6.1c4.8,9.1,14.3,15.4,25.5,15.4
		c6.4,0,12.4-2.1,17.1-5.7c0,0.1,0.1,0.1,0.1,0.2l8.4,8.4c0.8,0.8,1.8,1.2,2.9,1.2c1,0,2.1-0.4,2.9-1.2c0.8-0.8,1.2-1.8,1.2-2.9
		C81.6,73.6,81.2,72.6,80.4,71.8z M25.3,59.2h25.9c1.6,0,2.9-1.3,3-3V35.7c0-1.6-1.3-2.9-3-3h-1.1c-0.4,0-0.8,0.3-0.8,0.8
		c0,0.4,0.3,0.8,0.8,0.8h1.1c0.4,0,0.8,0.2,1,0.4c0.3,0.3,0.4,0.6,0.4,1v20.6c0,0.4-0.2,0.8-0.4,1c-0.3,0.3-0.6,0.4-1,0.4H17.4
		c-0.4,0-0.8-0.2-1-0.4c-0.3-0.3-0.4-0.6-0.4-1V35.7c0-0.4,0.2-0.8,0.4-1c0.3-0.3,0.6-0.4,1-0.4h19.4c0.4,0,0.8-0.3,0.8-0.8
		c0-0.4-0.3-0.8-0.8-0.8H25.1c4.7-8.4,13.5-14,23.8-14c7.5,0,14.4,3.1,19.3,8c4.9,4.9,8,11.8,8,19.2c0,7.5-3,14.3-8,19.2
		c-4.9,4.9-11.7,8-19.2,8C38.8,73.2,29.9,67.5,25.3,59.2z M79.4,76.5c-0.5,0.5-1.2,0.8-1.8,0.8c-0.7,0-1.3-0.2-1.8-0.8l-8.4-8.4
		c0,0,0,0,0,0c1.3-1.1,2.5-2.3,3.7-3.6c0,0,0,0,0,0l8.4,8.4c0.5,0.5,0.8,1.2,0.8,1.8C80.1,75.3,79.9,76,79.4,76.5z"/>
	<path fill="currentColor" d="M48.9,25.6c-4,0-7.7,1.1-10.9,3.1c-0.4,0.2-0.5,0.7-0.2,1s0.7,0.5,1,0.2c3-1.8,6.4-2.9,10.1-2.9
		c5.2,0,9.9,2.1,13.3,5.5c3.4,3.4,5.5,8.1,5.5,13.3c0,5.2-2.1,9.9-5.5,13.3c-3.4,3.4-8.1,5.5-13.3,5.5c-3.7,0-7-1-9.9-2.8
		c-0.3-0.2-0.8-0.1-1,0.2s-0.1,0.8,0.2,1c3.1,2,6.8,3,10.7,3c11.2,0,20.3-9.1,20.3-20.3C69.2,34.8,60.1,25.7,48.9,25.6z"/>
</g>
</svg>
