<?xml version="1.0" encoding="utf-8"?>
<!-- Generator: Adobe Illustrator 26.0.2, SVG Export Plug-In . SVG Version: 6.00 Build 0)  -->
<svg version="1.1" id="icon" xmlns="http://www.w3.org/2000/svg" xmlns:xlink="http://www.w3.org/1999/xlink" x="0px" y="0px"
	 viewBox="0 0 96 96" style="enable-background:new 0 0 96 96;" xml:space="preserve">

<g fill="currentColor">
	<path class="st0" d="M51.8,55.5c2.1,0,3.7-1.7,3.7-3.7v-7.6c0-2.1-1.7-3.7-3.7-3.7h-7.6c-2.1,0-3.7,1.7-3.7,3.7v7.6
		c0,2.1,1.7,3.7,3.7,3.7H51.8z M42,51.8v-7.6c0-1.2,1-2.2,2.2-2.2h7.6c1.2,0,2.2,1,2.2,2.2v7.6c0,1.2-1,2.2-2.2,2.2h-7.6
		C43,54,42,53,42,51.8z"/>
	<path class="st0" d="M24,55.5h7.6c2.1,0,3.7-1.7,3.7-3.7v-7.6c0-2.1-1.7-3.7-3.7-3.7H24c-2.1,0-3.7,1.7-3.7,3.7v7.6
		C20.3,53.9,21.9,55.5,24,55.5z M21.8,44.2c0-1.2,1-2.2,2.2-2.2h7.6c1.2,0,2.2,1,2.2,2.2v7.6c0,1.2-1,2.2-2.2,2.2H24
		c-1.2,0-2.2-1-2.2-2.2V44.2z"/>
	<path class="st0" d="M72,40.5h-7.6c-2.1,0-3.7,1.7-3.7,3.7v7.6c0,2.1,1.7,3.7,3.7,3.7H72c2.1,0,3.7-1.7,3.7-3.7v-7.6
		C75.7,42.1,74.1,40.5,72,40.5z M74.2,51.8c0,1.2-1,2.2-2.2,2.2h-7.6c-1.2,0-2.2-1-2.2-2.2v-7.6c0-1.2,1-2.2,2.2-2.2H72
		c1.2,0,2.2,1,2.2,2.2V51.8z"/>
	<path class="st0" d="M71,60.7L71,60.7H25h0c-2.6,0-4.7,2.1-4.7,4.7v0v0V71v0v0c0,2.6,2.1,4.7,4.7,4.7h0H71h0c2.6,0,4.7-2.1,4.7-4.7
		v0v0v-5.6v0C75.7,62.8,73.6,60.7,71,60.7z M74.2,71c0,1.8-1.4,3.2-3.2,3.2H25c-1.8,0-3.2-1.5-3.2-3.2v0v0v-5.6v0v0
		c0-1.8,1.4-3.2,3.2-3.2h46c1.8,0,3.2,1.5,3.2,3.2v0V71L74.2,71L74.2,71z"/>
	<path class="st0" d="M71,20.2L71,20.2H25h0c-2.6,0-4.7,2.1-4.7,4.7v0v0v5.6v0v0c0,2.6,2.1,4.7,4.7,4.7h0H71h0
		c2.6,0,4.7-2.1,4.7-4.7v0v0V25v0C75.7,22.4,73.6,20.3,71,20.2z M74.2,30.6c0,1.8-1.4,3.2-3.2,3.2H25c-1.8,0-3.2-1.5-3.2-3.2v0v0V25
		v0v0c0-1.8,1.4-3.2,3.2-3.2h46c1.8,0,3.2,1.5,3.2,3.2v0V30.6L74.2,30.6L74.2,30.6z"/>
</g>
</svg>
