<svg width="96" height="96" viewBox="0 0 96 96" fill="none" xmlns="http://www.w3.org/2000/svg">
<path fill-rule="evenodd" clip-rule="evenodd" d="M63.3096 64.0449C64.0827 62.5063 65.8877 61.7935 67.503 62.3896C69.1184 62.9859 70.0284 64.7011 69.6163 66.373L73.004 68.3085C73.6283 67.4435 74.6296 66.9301 75.6964 66.9277C77.2718 66.926 78.6338 68.0274 78.962 69.5683C79.29 71.1092 78.4942 72.6692 77.0548 73.3095C75.6152 73.9497 73.9247 73.4953 73.0001 72.2197L69.5997 74.1084C70.0472 75.7974 69.153 77.5527 67.5235 78.1835C65.8939 78.8143 64.0505 78.1186 63.2442 76.5683C62.4379 75.018 62.9268 73.1097 64.379 72.1376C65.8311 71.1657 67.7814 71.4411 68.9073 72.7773L72.4132 70.83C72.3371 70.457 72.3377 70.0721 72.4141 69.6992L68.9415 67.7158C67.846 69.0438 65.9279 69.3372 64.4854 68.3974C63.0428 67.4572 62.5366 65.5835 63.3096 64.0449ZM67.0782 73.2285C66.3911 72.9438 65.6004 73.1011 65.0743 73.6269C64.5482 74.1528 64.3905 74.9435 64.6749 75.6308C64.9594 76.3182 65.6301 76.7664 66.3741 76.7666C67.3894 76.7656 68.2126 75.943 68.2139 74.9277C68.214 74.1839 67.7653 73.5133 67.0782 73.2285ZM76.3995 68.5673C75.7123 68.2828 74.9215 68.4408 74.3956 68.9668C73.8697 69.4928 73.7124 70.2835 73.9971 70.9707C74.2819 71.6579 74.9525 72.1055 75.6964 72.1054C76.7112 72.1038 77.5338 71.2814 77.5352 70.2666C77.5351 69.5228 77.0866 68.852 76.3995 68.5673ZM66.3741 63.7666C65.3585 63.7667 64.5354 64.5907 64.5352 65.6064C64.5352 66.622 65.3584 67.445 66.3741 67.4453C67.3895 67.4443 68.2128 66.6219 68.2139 65.6064C68.214 64.5906 67.3899 63.7666 66.3741 63.7666Z" fill="currentColor"/>
<path fill-rule="evenodd" clip-rule="evenodd" d="M45.1026 36.7021C46.9362 35.5889 49.2378 35.5888 51.0714 36.7021L76.7735 52.3076C78.0716 53.0959 78.4846 54.7877 77.6964 56.0859C77.4672 56.4631 77.1508 56.7796 76.7735 57.0087L75.9737 57.538C80.4438 59.8078 83.5068 64.4481 83.5069 69.8046C83.5069 77.3986 77.3508 83.5546 69.7569 83.5546C62.1632 83.5544 56.0069 77.3984 56.0069 69.8046C56.0069 69.7414 56.008 69.6782 56.0089 69.6152L51.0714 72.6142C49.2377 73.7275 46.9363 73.7275 45.1026 72.6142L19.4014 57.0087C18.1033 56.2206 17.6897 54.5296 18.4776 53.2314C18.7068 52.854 19.024 52.5367 19.4014 52.3076L45.1026 36.7021ZM69.7569 57.5546C62.9917 57.5549 57.5071 63.0394 57.5069 69.8046C57.5069 76.57 62.9916 82.0544 69.7569 82.0546C76.5224 82.0546 82.0069 76.5701 82.0069 69.8046C82.0068 63.0393 76.5223 57.5546 69.7569 57.5546ZM50.293 37.9853C48.9377 37.1624 47.2363 37.1614 45.8809 37.9843L20.1798 53.5898C20.0083 53.6939 19.864 53.8383 19.7598 54.0097C19.4018 54.5998 19.5898 55.3683 20.1798 55.7265L45.8819 71.332C47.2372 72.1547 48.9378 72.1548 50.293 71.332L56.1573 67.7714C57.1401 61.1419 62.8541 56.0548 69.7569 56.0546C71.3579 56.0546 72.8953 56.3289 74.3243 56.832L75.9698 55.7421L75.9952 55.7265C76.1664 55.6225 76.3101 55.4788 76.4141 55.3076C76.7724 54.7175 76.5843 53.9481 75.9942 53.5898L50.293 37.9853Z" fill="currentColor" />
<path d="M40.873 49.155C43.8979 47.1384 48.5775 46.7423 52.2649 48.1905C55.9522 49.6386 57.72 52.5665 56.5688 55.3189C55.4176 58.0714 51.6369 59.9554 47.3645 59.9058C46.2359 59.8936 45.1189 59.7454 44.0685 59.4679C43.7756 59.3904 43.5665 59.2142 43.5198 59.0059C43.4731 58.7974 43.5965 58.5884 43.843 58.4573C44.0894 58.3263 44.4217 58.2934 44.7148 58.3709C48.2636 59.3076 52.2981 58.3497 54.1667 56.1273C56.035 53.9048 55.1649 51.0982 52.1287 49.5518C49.0923 48.0054 44.8196 48.193 42.1182 49.9913C41.7735 50.2209 41.2154 50.2201 40.8716 49.9892C40.5278 49.7583 40.5286 49.3848 40.873 49.155ZM43.986 51.2458C44.3307 51.0161 44.8888 51.017 45.2327 51.248C45.5765 51.4789 45.5759 51.8524 45.2312 52.0822C43.9677 52.9246 43.9652 54.2941 45.226 55.1409C46.4867 55.9876 48.5333 55.991 49.797 55.1487C51.0607 54.3062 51.0631 52.9368 49.8022 52.09C49.4585 51.8591 49.4592 51.4856 49.8037 51.2558C50.1483 51.026 50.7065 51.027 51.0503 51.258C52.9955 52.5676 52.9919 54.6821 51.0422 55.985C49.0892 57.2869 45.9263 57.2816 43.9779 55.9729C42.0295 54.6642 42.0332 52.5478 43.986 51.2458Z" fill="currentColor" />
</svg>
