<svg width="96" height="96" viewBox="0 0 96 96" fill="none" xmlns="http://www.w3.org/2000/svg">
    <path fill="currentColor" d="M45.1026 19.1318C46.9362 18.0186 49.2378 18.0185 51.0714 19.1318L76.7735 34.7373C78.0716 35.5256 78.4846 37.2174 77.6964 38.5156C77.4672 38.8928 77.1508 39.2093 76.7735 39.4384L65.8223 46.0869L76.7755 52.7373C78.0735 53.5256 78.4865 55.2174 77.6983 56.5156C77.4692 56.8928 77.1527 57.2093 76.7755 57.4384C76.6112 57.5382 76.4572 57.631 76.3145 57.7177C80.5978 60.047 83.5049 64.5861 83.505 69.8046C83.505 77.3986 77.3489 83.5546 69.755 83.5546C64.5172 83.5545 59.9641 80.6256 57.6427 76.3164C56.9738 76.7394 56.0099 77.3683 54.9171 78.0761C53.5304 78.9743 51.9489 79.9912 50.5528 80.8388C49.0381 81.7584 47.1369 81.7585 45.6221 80.8388L19.4024 64.9189C18.1042 64.1307 17.6904 62.4388 18.4786 61.1406C18.7078 60.7632 19.025 60.4469 19.4024 60.2177C19.4102 60.213 19.4179 60.2075 19.4259 60.2031L21.7882 58.8867L19.4034 57.4384C18.1053 56.6503 17.6916 54.9593 18.4796 53.6611C18.7088 53.2837 19.026 52.9664 19.4034 52.7373L30.3526 46.0878L19.4014 39.4384C18.1033 38.6503 17.6897 36.9593 18.4776 35.6611C18.7068 35.2837 19.024 34.9664 19.4014 34.7373L45.1026 19.1318ZM69.755 57.5546C62.9898 57.5549 57.5051 63.0394 57.505 69.8046C57.505 76.57 62.9897 82.0544 69.755 82.0546C76.5204 82.0546 82.005 76.5701 82.005 69.8046C82.0048 63.0393 76.5204 57.5546 69.755 57.5546ZM20.1798 61.498C20.0083 61.6022 19.865 61.7484 19.7608 61.9199C19.403 62.5097 19.5902 63.2774 20.1798 63.6357L46.4014 79.5576C47.4378 80.1865 48.7383 80.1857 49.7745 79.5566C51.15 78.7215 52.715 77.7155 54.1016 76.8173C55.2623 76.0655 56.3094 75.383 57.0011 74.9492C56.388 73.4306 56.0378 71.7779 56.0079 70.0468C54.7275 70.8243 52.9095 71.929 50.5538 73.3593C49.0391 74.2788 47.1378 74.279 45.6231 73.3593L23.2628 59.7812L20.1798 61.498ZM51.0714 55.0439C49.2377 56.1572 46.9363 56.1572 45.1026 55.0439L31.797 46.9648L20.1817 54.0195C20.0102 54.1236 19.866 54.268 19.7618 54.4394C19.4037 55.0295 19.5917 55.798 20.1817 56.1562L46.4024 72.0771C47.4387 72.7062 48.7392 72.7062 49.7755 72.0771C52.547 70.3943 54.5745 69.1628 55.8575 68.3837C55.9305 68.3394 56.0089 68.3111 56.088 68.2939C56.8403 61.4111 62.6719 56.0549 69.755 56.0546C71.4871 56.0546 73.1444 56.3763 74.671 56.9609C74.8124 56.8752 74.9818 56.7733 75.1778 56.6543C75.4119 56.5121 75.6851 56.3457 75.9971 56.1562C76.1684 56.0522 76.312 55.9085 76.4161 55.7373C76.7744 55.1472 76.5863 54.3778 75.9962 54.0195L64.4014 46.9794C64.3934 46.9745 64.3858 46.969 64.378 46.9638L51.0714 55.0439ZM50.293 20.415C48.9377 19.5921 47.2363 19.5911 45.8809 20.414L20.1798 36.0195C20.0083 36.1236 19.864 36.268 19.7598 36.4394C19.4018 37.0295 19.5898 37.798 20.1798 38.1562L45.8819 53.7617C47.2372 54.5844 48.9378 54.5845 50.293 53.7617L75.9952 38.1562C76.1664 38.0522 76.3101 37.9085 76.4141 37.7373C76.7724 37.1472 76.5843 36.3778 75.9942 36.0195L50.293 20.415Z" />
<path  d="M62.6827 63.5527C63.4557 62.0141 65.2607 61.3013 66.8761 61.8974C68.4915 62.4937 69.4014 64.2089 68.9893 65.8808L72.377 67.8164C73.0014 66.9514 74.0026 66.4379 75.0694 66.4355C76.6449 66.4339 78.0069 67.5352 78.335 69.0761C78.663 70.617 77.8673 72.1771 76.4278 72.8173C74.9883 73.4575 73.2978 73.0031 72.3731 71.7275L68.9727 73.6162C69.4203 75.3052 68.526 77.0605 66.8966 77.6914C65.2669 78.3221 63.4236 77.6264 62.6173 76.0761C61.811 74.5258 62.2999 72.6175 63.752 71.6455C65.2041 70.6735 67.1544 70.949 68.2803 72.2851L71.7862 70.3378C71.7101 69.9649 71.7108 69.5799 71.7872 69.207L68.3145 67.2236C67.2191 68.5517 65.3009 68.845 63.8585 67.9052C62.4159 66.9651 61.9097 65.0913 62.6827 63.5527ZM66.4512 72.7363C65.7641 72.4516 64.9734 72.6089 64.4473 73.1347C63.9212 73.6606 63.7635 74.4513 64.0479 75.1386C64.3324 75.826 65.0032 76.2742 65.7471 76.2744C66.7624 76.2734 67.5856 75.4508 67.587 74.4355C67.587 73.6917 67.1384 73.0211 66.4512 72.7363ZM75.7725 68.0751C75.0854 67.7906 74.2946 67.9486 73.7686 68.4746C73.2427 69.0006 73.0855 69.7913 73.3702 70.4785C73.6549 71.1657 74.3256 71.6133 75.0694 71.6132C76.0843 71.6116 76.9068 70.7892 76.9083 69.7744C76.9082 69.0307 76.4596 68.3598 75.7725 68.0751ZM65.7471 63.2744C64.7315 63.2745 63.9085 64.0985 63.9083 65.1142C63.9083 66.1298 64.7315 66.9528 65.7471 66.9531C66.7626 66.9521 67.5858 66.1297 67.587 65.1142C67.587 64.0984 66.7629 63.2745 65.7471 63.2744Z" fill="currentColor" />
<path d="M40.873 32.6042C43.8979 30.5876 48.5775 30.1916 52.2649 31.6397C55.9522 33.0878 57.72 36.0158 56.5688 38.7681C55.4176 41.5206 51.6369 43.4046 47.3645 43.3551C46.2359 43.3428 45.1189 43.1946 44.0685 42.9171C43.7756 42.8396 43.5665 42.6634 43.5198 42.4551C43.4731 42.2466 43.5965 42.0376 43.843 41.9066C44.0894 41.7755 44.4217 41.7426 44.7148 41.8201C48.2636 42.7568 52.2981 41.7989 54.1667 39.5765C56.035 37.354 55.1649 34.5474 52.1287 33.001C49.0923 31.4546 44.8196 31.6422 42.1182 33.4405C41.7735 33.6702 41.2154 33.6693 40.8716 33.4384C40.5278 33.2075 40.5286 32.834 40.873 32.6042ZM43.986 34.695C44.3307 34.4653 44.8888 34.4662 45.2327 34.6972C45.5765 34.9281 45.5759 35.3016 45.2312 35.5314C43.9677 36.3739 43.9652 37.7433 45.226 38.5901C46.4867 39.4368 48.5333 39.4403 49.797 38.5979C51.0607 37.7555 51.0631 36.386 49.8022 35.5392C49.4585 35.3083 49.4592 34.9348 49.8037 34.705C50.1483 34.4753 50.7065 34.4762 51.0503 34.7072C52.9955 36.0168 52.9919 38.1314 51.0422 39.4343C49.0892 40.7361 45.9263 40.7308 43.9779 39.4221C42.0295 38.1135 42.0332 35.997 43.986 34.695Z" fill="currentColor"/>
<path d="M55.8915 51.9531C57.3796 53.4452 57.8879 55.334 57.1298 57.1465C55.9785 59.8988 52.197 61.7829 47.9247 61.7334C46.7962 61.7211 45.6791 61.5724 44.6288 61.2949C44.3361 61.2174 44.1267 61.0413 44.08 60.833C44.0334 60.6246 44.1569 60.4152 44.4032 60.2842C44.6497 60.1532 44.9822 60.1208 45.2753 60.1982C48.8241 61.135 52.8589 60.1766 54.7275 57.9541C56.1197 56.2977 55.9909 54.3171 54.578 52.7754L55.8915 51.9531Z" fill="currentColor" />
<path d="M45.0087 54.7588C44.637 55.5094 44.8951 56.3687 45.787 56.9678C47.0478 57.8144 49.0937 57.8178 50.3573 56.9756C51.2026 56.4121 51.4801 55.6145 51.1962 54.8936L52.5907 54.0205C53.4648 55.2626 53.1352 56.7882 51.6025 57.8125C49.6495 59.1141 46.4873 59.1082 44.539 57.7998C42.9754 56.7496 42.669 55.18 43.6181 53.9277C44.1043 54.2178 44.5743 54.4988 45.0087 54.7588Z" fill="currentColor" />
</svg>
