<?xml version="1.0" encoding="UTF-8"?>
<svg width="96px" height="96px" viewBox="0 0 96 96" version="1.1" xmlns="http://www.w3.org/2000/svg" xmlns:xlink="http://www.w3.org/1999/xlink">
    <!-- Generator: Sketch 64 (93537) - https://sketch.com -->
    <title>Actions / 04 XL / 02-show-xl</title>
    <desc>Created with Sketch.</desc>
    <g id="Actions-/-04-XL-/-02-show-xl" stroke="none" stroke-width="1" fill="none" fill-rule="evenodd" stroke-linecap="round" stroke-linejoin="round">
        <g id="Group" transform="translate(17.720936, 21.944470)" stroke="currentColor" stroke-width="1.5">
            <path d="M30.1132439,50.05553 C26.0406144,49.9979979 22.0275916,49.0684654 18.3444239,47.32953 C14.9534048,45.7533363 11.7707824,43.7629893 8.86931388,41.40399 C5.66870157,38.862477 2.75300568,35.9815207 0.173313875,32.8116 C-0.0577712917,32.5186904 -0.0577712917,32.1055096 0.173313875,31.8126 C2.75300265,28.6426765 5.66869886,25.7617199 8.86931388,23.22021 C11.7707801,20.8612102 14.953403,18.8708663 18.3444239,17.29468 C22.0275916,15.5557446 26.0406144,14.6262121 30.1132439,14.56868 C34.1858748,14.6262 38.1989002,15.5557331 41.8820639,17.29468 C45.2731233,18.8708637 48.4557862,20.8612075 51.3572939,23.22021 C54.5579089,25.7617199 57.4736051,28.6426765 60.0532939,31.8126 C60.284379,32.1055096 60.284379,32.5186904 60.0532939,32.8116 C57.4736021,35.9815207 54.5579062,38.862477 51.3572939,41.40399 C48.4557839,43.7629919 45.2731214,45.7533387 41.8820639,47.32953 C38.1989002,49.0684769 34.1858748,49.99801 30.1132439,50.05553 Z" id="Path"></path>
            <circle id="Oval" cx="30.1133039" cy="32.3121" r="7.85997"></circle>
            <line x1="18.2793439" y1="10.1858" x2="15.9164739" y2="2.67139" id="Path"></line>
            <line x1="7.42996388" y1="16.43065" x2="2.67301388" y2="10.87059" id="Path"></line>
            <line x1="30.2369539" y1="7.87088" x2="30.2369539" y2="-2.84217094e-14" id="Path"></line>
            <line x1="42.2787839" y1="10.1858" x2="44.6416539" y2="2.67139" id="Path"></line>
            <line x1="53.1281639" y1="16.43065" x2="57.8851139" y2="10.87059" id="Path"></line>
        </g>
    </g>
</svg>