<?xml version="1.0" encoding="UTF-8"?>
<svg width="96px" height="96px" viewBox="0 0 96 96" version="1.1" xmlns="http://www.w3.org/2000/svg" xmlns:xlink="http://www.w3.org/1999/xlink">
    <!-- Generator: Sketch 64 (93537) - https://sketch.com -->
    <title>Campaigns / 04 XL / 02-silent-push-xl</title>
    <desc>Created with Sketch.</desc>
    <g id="Campaigns-/-04-XL-/-02-silent-push-xl" stroke="none" stroke-width="1" fill="none" fill-rule="evenodd" stroke-linecap="round" stroke-linejoin="round">
        <g id="Group" transform="translate(26.275610, 18.011070)" stroke="currentColor" stroke-width="1.5">
            <path d="M21.62676,16.18956 C16.57876,16.18956 12.91976,20.28183 12.91976,25.32986 L12.91976,34.80281 L30.33376,34.80281 L30.33376,25.32986 C30.33376,20.28183 26.67479,16.18956 21.62676,16.18956 Z" id="Path"></path>
            <path d="M25.65433,34.91083 C25.65433,37.1631024 23.8285024,38.98893 21.57623,38.98893 C19.3239576,38.98893 17.49813,37.1631024 17.49813,34.91083" id="Path"></path>
            <path d="M-6.75015599e-13,24.39193 L-6.75015599e-13,4.13365 C0.00667823093,1.85346619 1.85347617,0.00667271479 4.13366,-2.13162821e-14 L39.11986,-2.13162821e-14 C41.4000422,0.00667274218 43.2468373,1.8534678 43.25351,4.13365 L43.25351,55.84421 C43.2468373,58.1243922 41.4000422,59.9711873 39.11986,59.97786 L4.13366,59.97786 C1.85347617,59.9711873 0.00667823093,58.1243938 -6.75015599e-13,55.84421 L-6.75015599e-13,24.39193" id="Path"></path>
            <line x1="0.21919" y1="49.36697" x2="43.25351" y2="49.36697" id="Path"></line>
            <circle id="Oval" cx="21.60876" cy="54.53851" r="1.88437"></circle>
            <line x1="21.62676" y1="16.18956" x2="21.62676" y2="12.98893" id="Path"></line>
            <line x1="34.72439" y1="13.98893" x2="8.85475" y2="39.85857" id="Path"></line>
        </g>
    </g>
</svg>