<?xml version="1.0" encoding="utf-8"?>
<!-- Generator: Adobe Illustrator 26.5.3, SVG Export Plug-In . SVG Version: 6.00 Build 0)  -->
<svg version="1.1" id="Warstwa_1" xmlns="http://www.w3.org/2000/svg" xmlns:xlink="http://www.w3.org/1999/xlink" x="0px" y="0px"
	 viewBox="0 0 96 96" style="enable-background:new 0 0 96 96;" xml:space="preserve">

<g fill="currentColor">
	<path d="M47.6,17c-17.1,0-30.9,13.9-30.9,31c0,17.1,13.9,30.9,30.9,31c17.1,0,30.9-13.9,31-31
		C78.5,30.9,64.7,17.1,47.6,17z M77,48c0,8.1-3.3,15.5-8.6,20.8c-5.3,5.3-12.7,8.6-20.8,8.6c-8.1,0-15.5-3.3-20.8-8.6
		c-5.3-5.3-8.6-12.7-8.6-20.8c0-8.1,3.3-15.5,8.6-20.8c5.3-5.3,12.7-8.6,20.8-8.6c8.1,0,15.5,3.3,20.8,8.6C73.8,32.5,77,39.9,77,48z
		"/>
	<path d="M63.8,34.8c-0.6-0.5-1.4-0.8-2.3-0.8h-27c-0.9,0-1.7,0.3-2.3,0.8c-0.6,0.5-1.1,1.2-1.1,2.1v17v2.3v6.4
		c0,0.3,0.1,0.5,0.4,0.6c0.2,0.1,0.5,0.1,0.7,0l8.5-4.2h20.7c0.9,0,1.7-0.3,2.3-0.8c0.6-0.5,1.1-1.2,1.1-2.1V36.9
		C64.9,36.1,64.5,35.3,63.8,34.8z M63.3,56.2c0,0.3-0.2,0.6-0.5,0.9c-0.3,0.3-0.8,0.4-1.4,0.4H40.6c-0.1,0-0.2,0-0.3,0.1l-7.6,3.8
		v-5.2v-2.3v-17c0-0.3,0.2-0.6,0.5-0.9c0.3-0.3,0.8-0.4,1.4-0.4h27c0.6,0,1.1,0.2,1.4,0.4c0.3,0.3,0.5,0.6,0.5,0.9V56.2z"/>
	<path d="M59,43.1H39.5c-0.4,0-0.8,0.3-0.8,0.8c0,0.4,0.3,0.8,0.8,0.8H59c0.4,0,0.8-0.3,0.8-0.8
		C59.8,43.5,59.4,43.1,59,43.1z"/>
	<path d="M46.8,48.6h-7.3c-0.4,0-0.8,0.3-0.8,0.8c0,0.4,0.3,0.8,0.8,0.8h7.3c0.4,0,0.8-0.3,0.8-0.8
		C47.5,49,47.2,48.6,46.8,48.6z"/>
</g>
</svg>
