<svg width="96" height="96" viewBox="0 0 96 96" fill="none" xmlns="http://www.w3.org/2000/svg">
<path fill-rule="evenodd" clip-rule="evenodd" d="M18.5 47.75C18.5 31.622 31.622 18.5 47.75 18.5C63.878 18.5 77 31.622 77 47.75C77 63.878 63.878 77 47.75 77C31.622 77 18.5 63.878 18.5 47.75ZM17 47.75C17 64.706 30.794 78.5 47.75 78.5C64.706 78.5 78.5 64.706 78.5 47.75C78.5 30.794 64.706 17 47.75 17C30.794 17 17 30.794 17 47.75ZM36.1331 59.3669C36.8575 60.0914 37.8397 60.4989 38.8643 60.5H56.6357C57.6603 60.4989 58.6425 60.0914 59.3669 59.3669C60.0914 58.6425 60.4989 57.6603 60.5 56.6357V38.8643C60.4989 37.8397 60.0914 36.8575 59.3669 36.1331C58.6425 35.4086 57.6603 35.0011 56.6357 35H38.8643C37.8397 35.0011 36.8575 35.4086 36.1331 36.1331C35.4086 36.8575 35.0011 37.8397 35 38.8643V56.6357C35.0011 57.6603 35.4086 58.6425 36.1331 59.3669ZM37.1932 37.1932C37.6365 36.75 38.2374 36.5007 38.8643 36.5H56.6357C57.2626 36.5007 57.8635 36.75 58.3068 37.1932C58.75 37.6365 58.9993 38.2374 59 38.8643V56.6357C58.9993 57.2626 58.75 57.8635 58.3068 58.3068C57.8635 58.75 57.2626 58.9993 56.6357 59H38.8643C38.2374 58.9993 37.6365 58.75 37.1932 58.3068C36.75 57.8635 36.5007 57.2626 36.5 56.6357V38.8643C36.5007 38.2374 36.75 37.6365 37.1932 37.1932Z" fill="currentColor" />
</svg>
