<svg width="96" height="96" viewBox="0 0 96 96" fill="none" xmlns="http://www.w3.org/2000/svg">
<path d="M47.4961 79.2421C41.4143 79.2421 35.4691 77.4387 30.4123 74.0598C25.3555 70.681 21.4142 65.8785 19.0868 60.2596C16.7594 54.6408 16.1504 48.458 17.3369 42.4931C18.5234 36.5282 21.4521 31.0491 25.7526 26.7486C30.053 22.4481 35.5321 19.5195 41.4971 18.333C47.462 17.1465 53.6448 17.7554 59.2636 20.0828C64.8824 22.4102 69.6849 26.3515 73.0638 31.4083C76.4426 36.4652 78.2461 42.4104 78.2461 48.4921C78.2369 56.6447 74.9943 64.4608 69.2295 70.2256C63.4648 75.9903 55.6487 79.233 47.4961 79.2421ZM47.4961 19.2421C41.711 19.2421 36.0558 20.9576 31.2457 24.1716C26.4355 27.3857 22.6865 31.9539 20.4726 37.2986C18.2588 42.6434 17.6795 48.5246 18.8081 54.1985C19.9367 59.8725 22.7225 65.0843 26.8132 69.175C30.9039 73.2657 36.1158 76.0515 41.7897 77.1801C47.4636 78.3087 53.3448 77.7295 58.6896 75.5156C64.0343 73.3017 68.6025 69.5527 71.8166 64.7426C75.0306 59.9324 76.7461 54.2772 76.7461 48.4921C76.7373 40.7372 73.6528 33.3025 68.1692 27.819C62.6857 22.3354 55.251 19.2509 47.4961 19.2421Z" fill="#384350"/>
<path d="M47.6426 37.9824C47.4437 37.9823 47.2529 37.9033 47.1123 37.7626C46.9717 37.622 46.8926 37.4313 46.8926 37.2324V15.75C46.8926 15.5511 46.9716 15.3603 47.1123 15.2197C47.2529 15.079 47.4437 15 47.6426 15C47.8415 15 48.0323 15.079 48.1729 15.2197C48.3136 15.3603 48.3926 15.5511 48.3926 15.75V37.2324C48.3925 37.4313 48.3135 37.622 48.1729 37.7626C48.0322 37.9033 47.8415 37.9823 47.6426 37.9824Z" fill="#384350"/>
<path d="M47.6426 81.2421C47.4437 81.2421 47.2529 81.163 47.1123 81.0224C46.9717 80.8818 46.8926 80.691 46.8926 80.4921V59.9658C46.8926 59.7669 46.9716 59.5761 47.1123 59.4354C47.2529 59.2948 47.4437 59.2158 47.6426 59.2158C47.8415 59.2158 48.0323 59.2948 48.1729 59.4354C48.3136 59.5761 48.3926 59.7669 48.3926 59.9658V80.4921C48.3925 80.691 48.3135 80.8818 48.1729 81.0224C48.0322 81.163 47.8415 81.2421 47.6426 81.2421Z" fill="#384350"/>
<path d="M79.5342 49.3486H59.0088C58.8099 49.3486 58.6191 49.2696 58.4785 49.1289C58.3378 48.9883 58.2588 48.7975 58.2588 48.5986C58.2588 48.3997 58.3378 48.2089 58.4785 48.0683C58.6191 47.9276 58.8099 47.8486 59.0088 47.8486H79.5342C79.7331 47.8486 79.9239 47.9276 80.0645 48.0683C80.2052 48.2089 80.2842 48.3997 80.2842 48.5986C80.2842 48.7975 80.2052 48.9883 80.0645 49.1289C79.9239 49.2696 79.7331 49.3486 79.5342 49.3486Z" fill="#384350"/>
<path d="M36.2759 49.3486H15.75C15.5511 49.3486 15.3603 49.2696 15.2197 49.1289C15.079 48.9883 15 48.7975 15 48.5986C15 48.3997 15.079 48.2089 15.2197 48.0683C15.3603 47.9276 15.5511 47.8486 15.75 47.8486H36.2759C36.4748 47.8486 36.6656 47.9276 36.8062 48.0683C36.9469 48.2089 37.0259 48.3997 37.0259 48.5986C37.0259 48.7975 36.9469 48.9883 36.8062 49.1289C36.6656 49.2696 36.4748 49.3486 36.2759 49.3486Z" fill="#384350"/>
<path d="M47.6426 65.3349C44.3113 65.335 41.0549 64.3472 38.285 62.4965C35.5152 60.6457 33.3563 58.0152 32.0815 54.9376C30.8067 51.8599 30.4731 48.4733 31.123 45.2061C31.7729 41.9388 33.377 38.9377 35.7325 36.5821C38.0881 34.2266 41.0893 32.6224 44.3565 31.9725C47.6237 31.3226 51.0103 31.6562 54.088 32.931C57.1656 34.2059 59.7962 36.3647 61.6469 39.1346C63.4976 41.9044 64.4854 45.1609 64.4854 48.4921C64.4803 52.9576 62.7042 57.2386 59.5466 60.3962C56.3891 63.5537 52.108 65.3298 47.6426 65.3349ZM47.6426 33.1489C44.608 33.1489 41.6416 34.0487 39.1184 35.7345C36.5953 37.4204 34.6287 39.8166 33.4674 42.6202C32.306 45.4237 32.0021 48.5087 32.5941 51.485C33.1861 54.4612 34.6473 57.1951 36.7931 59.3409C38.9388 61.4867 41.6726 62.948 44.6489 63.5401C47.6251 64.1321 50.7101 63.8283 53.5137 62.6671C56.3172 61.5058 58.7135 59.5393 60.3995 57.0162C62.0854 54.4931 62.9853 51.5267 62.9854 48.4921C62.9808 44.4243 61.3629 40.5244 58.4866 37.648C55.6103 34.7716 51.7104 33.1536 47.6426 33.1489Z" fill="#384350"/>
<path d="M47.6426 51.5546C47.0368 51.5547 46.4446 51.3751 45.9409 51.0386C45.4372 50.702 45.0446 50.2237 44.8128 49.6641C44.5809 49.1044 44.5202 48.4886 44.6384 47.8944C44.7566 47.3003 45.0483 46.7545 45.4766 46.3262C45.905 45.8978 46.4507 45.6061 47.0449 45.488C47.639 45.3698 48.2549 45.4305 48.8145 45.6623C49.3742 45.8942 49.8525 46.2868 50.189 46.7905C50.5255 47.2942 50.7051 47.8864 50.7051 48.4921C50.7041 49.304 50.3811 50.0824 49.807 50.6565C49.2329 51.2306 48.4545 51.5536 47.6426 51.5546ZM47.6426 46.9291C47.3335 46.9291 47.0313 47.0207 46.7743 47.1924C46.5173 47.364 46.317 47.6081 46.1986 47.8936C46.0803 48.1792 46.0493 48.4934 46.1096 48.7965C46.1698 49.0997 46.3186 49.3782 46.5371 49.5967C46.7556 49.8153 47.0341 49.9642 47.3372 50.0246C47.6403 50.0849 47.9546 50.054 48.2401 49.9358C48.5257 49.8175 48.7698 49.6173 48.9416 49.3603C49.1133 49.1034 49.205 48.8012 49.2051 48.4921C49.2046 48.0778 49.0398 47.6806 48.7469 47.3876C48.454 47.0946 48.0569 46.9298 47.6426 46.9291Z" fill="#384350"/>
</svg>
