<?xml version="1.0" encoding="UTF-8"?>
<svg width="96px" height="96px" viewBox="0 0 96 96" version="1.1" xmlns="http://www.w3.org/2000/svg" xmlns:xlink="http://www.w3.org/1999/xlink">
    <!-- Generator: Sketch 64 (93537) - https://sketch.com -->
    <title>Actions / 04 XL / 03-tools-xl</title>
    <desc>Created with Sketch.</desc>
    <g id="Actions-/-04-XL-/-03-tools-xl" stroke="none" stroke-width="1" fill="none" fill-rule="evenodd">
        <g id="Group" transform="translate(21.000000, 20.518707)" stroke="currentColor" stroke-width="1.5">
            <path d="M26.8368514,21.4051256 C30.9117706,17.2796873 37.0241495,11.0915299 45.1739881,2.84065331 C46.9642966,1.02817347 49.8669601,1.02817347 51.6572686,2.84065331 C53.4475771,4.65313315 53.4475771,7.59174359 51.6572686,9.40422343 C43.5417096,17.6204134 37.4550404,23.7825559 33.3972609,27.8906509" id="Path" stroke-linejoin="round"></path>
            <path d="M29.4828052,31.8536449 C28.1504237,33.2025476 25.7582699,35.6243635 22.3063438,39.1190927 C23.6749668,43.1757392 22.7611955,47.8471464 19.5650298,51.0828937 C16.6328357,54.0514004 12.5071121,55.0751612 8.75168343,54.154176 L14.0542414,48.7856442 C15.0900627,47.7369951 15.1270563,46.0600686 14.1652222,44.9665426 L14.0542414,44.8475021 L10.164273,40.90936 C9.12845167,39.860711 7.47203835,39.8232592 6.39188901,40.7970048 L6.27430468,40.90936 L0.615847165,46.6387553 C-0.753256608,42.5818798 0.160403811,37.9099778 3.35682842,34.6739684 C6.8041854,31.183919 11.9013002,30.3819977 16.106799,32.2682044 C19.4779815,28.8552274 21.8120615,26.4922106 23.1090389,25.1791538" id="Path" stroke-linejoin="round"></path>
            <path d="M31.9930596,37.1868525 L52.3601061,37.1868525 C56.1940931,37.1868525 59.3021537,40.2949131 59.3021537,44.1289001 C59.3021537,47.9628871 56.1940931,51.0709477 52.3601061,51.0709477 L31.9930596,51.0709477 L31.9930596,51.0709477 L31.9930596,37.1868525 Z" id="Rectangle" stroke-linejoin="round" transform="translate(45.647607, 44.128900) rotate(-315.000000) translate(-45.647607, -44.128900) "></path>
            <polygon id="Path" stroke-linecap="round" stroke-linejoin="round" points="17.8835074 7.85626803 18.5357721 13.744553 37.6286402 32.837421 34.3561276 36.1099336 15.2632595 17.0170656 9.36920066 16.3590269 1.51870657 3.27251261 4.79121918 -3.19744231e-14"></polygon>
            <line x1="36" y1="44.4812934" x2="42" y2="38.4812934" id="Path-10" stroke-linecap="round"></line>
        </g>
    </g>
</svg>