<?xml version="1.0" encoding="UTF-8"?>
<svg width="96px" height="96px" viewBox="0 0 96 96" version="1.1" xmlns="http://www.w3.org/2000/svg" xmlns:xlink="http://www.w3.org/1999/xlink">
    <!-- Generator: Sketch 64 (93537) - https://sketch.com -->
    <title>Customers / 04 XL / 01-user-circle-xl</title>
    <desc>Created with Sketch.</desc>
    <g id="Customers-/-04-XL-/-01-user-circle-xl" stroke="none" stroke-width="1" fill="none" fill-rule="evenodd" stroke-linecap="round" stroke-linejoin="round">
        <g id="Group" transform="translate(18.000000, 18.000000)" stroke="currentColor" stroke-width="1.5">
            <path d="M41.75847,19.29651 C41.75847,13.0187 33.91314,12.234 30,12.234 C27.500289,12.1817388 25.0116253,12.5804769 22.65337,13.41109 C20.2029,14.392 18.24158,16.15763 18.24158,19.29654 L18.24158,23.6427 C18.24158,25.69507 18.94504,28.1096 18.86688,30.70524 C18.78872,33.30088 19.80488,35.4817 22.69688,37.74145 C25.58888,40.0012 24.719,41.26881 30,41.26881 C35.281,41.26881 34.41117,40.00118 37.30317,37.74142 C40.19517,35.48166 41.2113,33.30083 41.13317,30.70521 C41.05504,28.10959 41.75847,25.69504 41.75847,23.64267 L41.75847,19.29651 Z" id="Path"></path>
            <line x1="21.37871" y1="36.58975" x2="21.37871" y2="44.35198" id="Path"></line>
            <line x1="38.65353" y1="36.58975" x2="38.65353" y2="44.35198" id="Path"></line>
            <path d="M21.37871,41.26881 C21.37871,41.26881 18.50532,44.10324 15.5778,44.352 C13.81475,44.5018 8.96217,46.88686 6.99388,47.954" id="Path"></path>
            <path d="M38.7773,41.26878 C38.7773,41.26878 41.6507,44.1032 44.57822,44.35194 C46.34122,44.50174 51.19384,46.8868 53.16213,47.95394" id="Path"></path>
            <circle id="Oval" cx="30" cy="30" r="30"></circle>
            <path d="M41.44734,23.61834 C31.46439,25.30123 25.22058,20.746 25.22058,20.746 L18.64571,25.98747" id="Path"></path>
        </g>
    </g>
</svg>