<?xml version="1.0" encoding="UTF-8"?>
<svg width="96px" height="96px" viewBox="0 0 96 96" version="1.1" xmlns="http://www.w3.org/2000/svg" xmlns:xlink="http://www.w3.org/1999/xlink">
    <!-- Generator: Sketch 64 (93537) - https://sketch.com -->
    <title>Customers / 04 XL / 03-user-id-xl</title>
    <desc>Created with Sketch.</desc>
    <g id="Customers-/-04-XL-/-03-user-id-xl" stroke="none" stroke-width="1" fill="none" fill-rule="evenodd" stroke-linecap="round" stroke-linejoin="round">
        <g id="Group" transform="translate(16.000000, 15.000000)" stroke="currentColor" stroke-width="1.5">
            <path d="M62.4953,33.5359 C62.4953,50.1039 49.0633,63.5359 32.4953,63.5359 C15.9273,63.5359 2.4953,50.1039 2.4953,33.5359 C2.4953,16.9669 15.9273,3.5359 32.4953,3.5359 C49.0633,3.5359 62.4953,16.9669 62.4953,33.5359 Z" id="Stroke-1"></path>
            <path d="M23.4204559,28.5151 C23.4204559,23.5521516 27.492077,19.5151 32.4948654,19.5151 C37.4988461,19.5151 41.5704672,23.5521516 41.5704672,28.5151 C41.5704672,33.4780484 37.4988461,37.5151 32.4948654,37.5151 C27.492077,37.5151 23.4204559,33.4780484 23.4204559,28.5151 Z" id="Stroke-3"></path>
            <path d="M41.3856645,30.4910852 C41.1424403,30.5054941 40.8980238,30.5151 40.6500305,30.5151 C35.6627417,30.5151 31.4432783,27.5132443 30.0518927,23.3838916 C28.7976188,25.4167483 26.3832607,26.8132116 23.5933358,26.8816539" id="Path"></path>
            <path d="M38.2156422,39.5499086 C37.985533,39.4742345 37.7351551,39.5238569 37.5455833,39.6801673 L32.9493609,43.5072918 C32.6834834,43.7281113 32.3067243,43.7281113 32.0408469,43.5072918 L27.4446245,39.6801673 C27.2562449,39.5238569 27.005867,39.4742345 26.7745656,39.5499086 C23.5041536,40.6118271 20.7857653,42.544618 18.9043544,44.9773542 C22.1795354,48.9769163 27.0511735,51.5151 32.4951039,51.5151 C37.9402265,51.5151 42.8106723,48.9769163 46.0870456,44.9773542 C44.2044425,42.544618 41.4860541,40.6118271 38.2156422,39.5499086 Z" id="Stroke-7"></path>
            <line x1="32.6428" y1="0.7502" x2="32.6428" y2="8.2522" id="Stroke-9"></line>
            <line x1="32.6428" y1="58.778" x2="32.6428" y2="65.536" id="Stroke-11"></line>
            <path d="M47,19.5015 L51.595,8.3245 C51.979,7.4465 52.849,6.8785 53.808,6.8785 L64.48,6.8785" id="Stroke-13"></path>
            <line x1="64.5353" y1="33.6428" x2="57.7783" y2="33.6428" id="Stroke-17"></line>
            <line x1="7.507" y1="33.6428" x2="0.75" y2="33.6428" id="Stroke-19"></line>
            <line x1="64.4805" y1="2.5" x2="55.5125" y2="2.5" id="Stroke-15"></line>
        </g>
    </g>
</svg>