<?xml version="1.0" encoding="UTF-8"?>
<svg width="96px" height="96px" viewBox="0 0 96 96" version="1.1" xmlns="http://www.w3.org/2000/svg"
    xmlns:xlink="http://www.w3.org/1999/xlink">
    <title>Information / 04 XL / 05-warning-xl</title>
    <g id="Information-/-04-XL-/-05-warning-xl" stroke="none" stroke-width="1" fill="currentColor">
        <path
            d="M47.8502,17.9995 C49.2052,17.9995 50.4182,18.7005 51.0952,19.8735 L82.1932,73.7365 C82.8712,74.9095 82.8712,76.3105 82.1942,77.4825 C81.5172,78.6565 80.3042,79.3565 78.9492,79.3565 L16.7532,79.3565 C15.3982,79.3565 14.1852,78.6565 13.5082,77.4835 C12.8312,76.3105 12.8302,74.9105 13.5072,73.7365 L44.6072,19.8735 C45.2832,18.7005 46.4962,17.9995 47.8502,17.9995 Z M47.8512,19.4995 C47.0392,19.4995 46.3122,19.9195 45.9052,20.6235 L14.8062,74.4865 C14.4012,75.1895 14.4012,76.0305 14.8072,76.7335 C15.2132,77.4365 15.9412,77.8565 16.7532,77.8565 L78.9492,77.8565 C79.7612,77.8565 80.4892,77.4365 80.8952,76.7325 C81.3012,76.0295 81.3002,75.1905 80.8942,74.4865 L49.7972,20.6235 C49.3902,19.9195 48.6632,19.4995 47.8512,19.4995 Z M47.851,60.1406 C50.19,60.1406 52.093,62.0436 52.093,64.3826 C52.093,66.7216 50.19,68.6246 47.851,68.6246 C45.513,68.6246 43.61,66.7216 43.61,64.3826 C43.61,62.0436 45.513,60.1406 47.851,60.1406 Z M47.851,61.6406 C46.339,61.6406 45.11,62.8706 45.11,64.3826 C45.11,65.8946 46.339,67.1246 47.851,67.1246 C49.363,67.1246 50.593,65.8946 50.593,64.3826 C50.593,62.8706 49.363,61.6406 47.851,61.6406 Z M47.851,40.7329 C50.19,40.7329 52.093,42.6359 52.093,44.9739 L52.093,53.1479 C52.093,55.4869 50.19,57.3899 47.851,57.3899 C45.513,57.3899 43.61,55.4869 43.61,53.1479 L43.61,44.9739 C43.61,42.6359 45.513,40.7329 47.851,40.7329 Z M47.851,42.2329 C46.339,42.2329 45.11,43.4619 45.11,44.9739 L45.11,53.1479 C45.11,54.6599 46.339,55.8899 47.851,55.8899 C49.363,55.8899 50.593,54.6599 50.593,53.1479 L50.593,44.9739 C50.593,43.4619 49.363,42.2329 47.851,42.2329 Z"></path>
    </g>
</svg>