<?xml version="1.0" encoding="UTF-8"?>
<svg width="96px" height="96px" viewBox="0 0 96 96" version="1.1" xmlns="http://www.w3.org/2000/svg" xmlns:xlink="http://www.w3.org/1999/xlink">
    <!-- Generator: Sketch 64 (93537) - https://sketch.com -->
    <title>Internet / 04 XL / 05-webhook-xl</title>
    <desc>Created with Sketch.</desc>
    <g id="Internet-/-04-XL-/-05-webhook-xl" stroke="none" stroke-width="1" fill="none" fill-rule="evenodd" stroke-linecap="round" stroke-linejoin="round">
        <g id="Group" transform="translate(21.072405, 23.038715)" stroke="currentColor" stroke-width="1.5">
            <path d="M38.4694149,11.005555 C38.4683301,5.6487518 34.6108566,1.07061894 29.331863,0.160911215 C24.0528694,-0.74879651 18.8855363,2.27412772 17.0915264,7.32158944 C15.2975166,12.3690512 17.3978651,17.9751139 22.0668149,20.601185" id="Path"></path>
            <path d="M36.6907749,48.043975 C41.1641719,51.0576279 47.1624231,50.3852736 50.857575,46.4559941 C54.5527269,42.5267145 54.8557782,36.498511 51.573328,32.2184518 C48.2908778,27.9383927 42.3903,26.6678578 37.6372149,29.217675" id="Path"></path>
            <path d="M6.11059485,29.058345 C1.24932826,31.4741751 -1.12500552,37.0732393 0.517757765,42.2471621 C2.16052105,47.4210849 7.32986388,50.6249694 12.6943492,49.7940387 C18.0588344,48.963108 22.0166647,44.3454722 22.0171749,38.917015" id="Path"></path>
            <circle id="Oval" cx="27.4626649" cy="11.005555" r="5.52349"></circle>
            <circle id="Oval" cx="42.8447549" cy="38.917015" r="5.52349"></circle>
            <circle id="Oval" cx="11.0104349" cy="38.917015" r="5.52349"></circle>
            <line x1="22.0671749" y1="20.600535" x2="13.8320049" y2="34.242825" id="Path"></line>
            <line x1="37.6374249" y1="29.218075" x2="30.3778349" y2="15.696675" id="Path"></line>
            <line x1="22.0171749" y1="38.917015" x2="37.3212649" y2="38.917015" id="Path"></line>
        </g>
    </g>
</svg>