<?xml version="1.0" encoding="UTF-8"?>
<svg width="96px" height="96px" viewBox="0 0 96 96" version="1.1" xmlns="http://www.w3.org/2000/svg" xmlns:xlink="http://www.w3.org/1999/xlink">
    <!-- Generator: Sketch 64 (93537) - https://sketch.com -->
    <title>Campaigns / 04 XL / 15-weblayer-xl</title>
    <desc>Created with Sketch.</desc>
    <g id="Campaigns-/-04-XL-/-15-weblayer-xl" stroke="none" stroke-width="1" fill="none" fill-rule="evenodd" stroke-linejoin="round">
        <g id="Group" transform="translate(16.000000, 5.284271)" stroke="currentColor" stroke-width="1.5">
            <path d="M37.6234169,32.0029106 L50.8001916,28.7821257 C51.8731731,28.519858 52.9556065,29.1770714 53.2178743,30.250053 C53.2941343,30.5620457 53.2941343,30.8878157 53.2178743,31.1998084 C53.0444205,31.9094372 52.9143301,32.4416588 52.8276032,32.7964732 M47.6237581,54.0862822 C47.2673586,55.5443727 46.7041859,57.8484072 45.9342401,60.9983856 C45.5799021,62.448042 44.448042,63.5799021 42.9983856,63.9342401 L13.1998084,71.2178743 C12.1268269,71.480142 11.0443935,70.8229286 10.7821257,69.749947 C10.7058657,69.4379543 10.7058657,69.1121843 10.7821257,68.8001916 L14.0963447,55.2411624" id="Shape" stroke-linecap="round" transform="translate(32.000000, 50.000000) rotate(-315.000000) translate(-32.000000, -50.000000) "></path>
            <path d="M21.591414,17.9215959 L50.8001916,10.7821257 C51.8731731,10.519858 52.9556065,11.1770714 53.2178743,12.250053 C53.2941343,12.5620457 53.2941343,12.8878157 53.2178743,13.1998084 L46.0784041,42.408586 C45.6354817,44.2206566 44.2206566,45.6354817 42.408586,46.0784041 L13.1998084,53.2178743 C12.1268269,53.480142 11.0443935,52.8229286 10.7821257,51.749947 C10.7058657,51.4379543 10.7058657,51.1121843 10.7821257,50.8001916 L17.9215959,21.591414 C18.3645183,19.7793434 19.7793434,18.3645183 21.591414,17.9215959 Z" id="Rectangle" transform="translate(32.000000, 32.000000) rotate(-315.000000) translate(-32.000000, -32.000000) "></path>
            <circle id="Oval" stroke-linecap="round" cx="53.6693" cy="64.7157288" r="13"></circle>
            <path d="M15,40.5500066 L15,40.5500066 L29.3170918,31.6637291 C30.7429114,30.778757 32.5320835,30.778757 33.957903,31.6637291 L49,41 L49,41" id="Path" stroke-linecap="round" stroke-dasharray="1,5"></path>
            <line x1="53.6693" y1="70.0064388" x2="53.6693" y2="59.4250188" id="Path" stroke-linecap="round"></line>
            <line x1="48.37859" y1="64.7157288" x2="58.96001" y2="64.7157288" id="Path" stroke-linecap="round"></line>
        </g>
    </g>
</svg>