<svg width="96" height="96" viewBox="0 0 96 96" fill="none" xmlns="http://www.w3.org/2000/svg">
<g fill="currentColor">
<path d="M46.1909 76.458C45.992 76.458 45.8013 76.3789 45.6606 76.2383C45.52 76.0976 45.441 75.9069 45.4409 75.708C45.4332 68.8968 42.724 62.3667 37.9077 57.5505C33.0913 52.7342 26.5612 50.0252 19.75 50.0176C19.5511 50.0176 19.3603 49.9385 19.2197 49.7979C19.079 49.6572 19 49.4665 19 49.2676C19 49.0687 19.079 48.8779 19.2197 48.7372C19.3603 48.5966 19.5511 48.5176 19.75 48.5176C26.5613 48.5098 33.0915 45.8005 37.9078 40.9841C42.7241 36.1677 45.4332 29.6375 45.4409 22.8262C45.4409 22.6273 45.5199 22.4365 45.6606 22.2958C45.8012 22.1552 45.992 22.0762 46.1909 22.0762C46.3898 22.0762 46.5806 22.1552 46.7213 22.2958C46.8619 22.4365 46.9409 22.6273 46.9409 22.8262C46.9486 29.6375 49.6578 36.1677 54.4741 40.9841C59.2904 45.8005 65.8205 48.5098 72.6318 48.5176C72.8307 48.5176 73.0215 48.5966 73.1622 48.7372C73.3028 48.8779 73.3818 49.0687 73.3818 49.2676C73.3818 49.4665 73.3028 49.6572 73.1622 49.7979C73.0215 49.9385 72.8307 50.0176 72.6318 50.0176C65.8206 50.0252 59.2905 52.7342 54.4742 57.5505C49.6579 62.3667 46.9486 68.8968 46.9409 75.708C46.9409 75.9069 46.8618 76.0976 46.7212 76.2383C46.5806 76.3789 46.3898 76.458 46.1909 76.458ZM26.1059 49.2676C30.975 50.4488 35.4249 52.9478 38.9678 56.4907C42.5107 60.0335 45.0097 64.4834 46.1909 69.3526C47.3723 64.4834 49.8714 60.0335 53.4143 56.4907C56.9572 52.9478 61.4072 50.4488 66.2764 49.2676C61.4071 48.0863 56.957 45.5872 53.4141 42.0441C49.8711 38.5011 47.3721 34.051 46.1909 29.1816C45.0099 34.0509 42.5109 38.501 38.9681 42.0441C35.4252 45.5871 30.9752 48.0863 26.1059 49.2676Z" />
<path d="M66.5723 40.584C66.3734 40.5839 66.1826 40.5049 66.042 40.3643C65.9013 40.2236 65.8223 40.0329 65.8223 39.834C65.8194 37.238 64.787 34.7492 62.9514 32.9135C61.1159 31.0778 58.6272 30.0451 56.0312 30.042C55.8323 30.042 55.6416 29.963 55.5009 29.8223C55.3603 29.6817 55.2812 29.4909 55.2812 29.292C55.2812 29.0931 55.3603 28.9023 55.5009 28.7617C55.6416 28.621 55.8323 28.542 56.0312 28.542C58.6272 28.5389 61.1159 27.5062 62.9514 25.6705C64.787 23.8348 65.8194 21.346 65.8223 18.75C65.8223 18.5511 65.9013 18.3603 66.0419 18.2197C66.1826 18.079 66.3733 18 66.5723 18C66.7712 18 66.9619 18.079 67.1026 18.2197C67.2432 18.3603 67.3223 18.5511 67.3223 18.75C67.3252 21.3461 68.3577 23.8351 70.1935 25.6708C72.0292 27.5065 74.5181 28.5391 77.1143 28.542C77.3132 28.542 77.5039 28.621 77.6446 28.7617C77.7852 28.9023 77.8643 29.0931 77.8643 29.292C77.8643 29.4909 77.7852 29.6817 77.6446 29.8223C77.5039 29.963 77.3132 30.042 77.1143 30.042C74.5181 30.0449 72.0292 31.0775 70.1935 32.9132C68.3577 34.7489 67.3252 37.2379 67.3223 39.834C67.3222 40.0329 67.2432 40.2236 67.1025 40.3643C66.9619 40.5049 66.7711 40.5839 66.5723 40.584ZM60.0791 29.292C61.5539 29.8627 62.8933 30.7351 64.0114 31.8534C65.1296 32.9717 66.0018 34.3112 66.5723 35.7861C67.1427 34.311 68.0151 32.9714 69.1334 31.8531C70.2517 30.7348 71.5913 29.8625 73.0664 29.292C71.5913 28.7215 70.2517 27.8491 69.1334 26.7308C68.0151 25.6125 67.1427 24.2729 66.5723 22.7978C66.0018 24.2728 65.1296 25.6123 64.0115 26.7306C62.8933 27.8489 61.5539 28.7213 60.0791 29.292Z" />
<path d="M66.5723 78.8389C66.3734 78.8388 66.1826 78.7598 66.042 78.6191C65.9013 78.4785 65.8223 78.2878 65.8223 78.0889C65.8194 75.4929 64.787 73.0041 62.9514 71.1684C61.1159 69.3327 58.6272 68.3 56.0312 68.2969C55.8323 68.2969 55.6416 68.2178 55.5009 68.0772C55.3603 67.9365 55.2812 67.7458 55.2812 67.5469C55.2812 67.3479 55.3603 67.1572 55.5009 67.0165C55.6416 66.8759 55.8323 66.7969 56.0312 66.7969C58.627 66.7938 61.1157 65.7613 62.9512 63.9258C64.7867 62.0903 65.8192 59.6017 65.8223 57.0059C65.8223 56.8069 65.9013 56.6162 66.0419 56.4755C66.1826 56.3349 66.3733 56.2559 66.5723 56.2559C66.7712 56.2559 66.9619 56.3349 67.1026 56.4755C67.2432 56.6162 67.3223 56.8069 67.3223 57.0059C67.3254 59.6018 68.358 62.0905 70.1938 63.9261C72.0295 65.7616 74.5183 66.794 77.1143 66.7969C77.3132 66.7969 77.5039 66.8759 77.6446 67.0165C77.7852 67.1572 77.8643 67.3479 77.8643 67.5469C77.8643 67.7458 77.7852 67.9365 77.6446 68.0772C77.5039 68.2178 77.3132 68.2969 77.1143 68.2969C74.5181 68.2998 72.0292 69.3324 70.1935 71.1681C68.3577 73.0038 67.3252 75.4928 67.3223 78.0889C67.3222 78.2878 67.2432 78.4785 67.1025 78.6191C66.9619 78.7598 66.7711 78.8388 66.5723 78.8389ZM60.0791 67.5469C61.5539 68.1175 62.8933 68.99 64.0114 70.1083C65.1296 71.2266 66.0018 72.5661 66.5723 74.041C67.1427 72.5659 68.0151 71.2263 69.1334 70.108C70.2517 68.9897 71.5913 68.1174 73.0664 67.5469C71.5915 66.9764 70.2519 66.1042 69.1336 64.9861C68.0153 63.8679 67.1429 62.5286 66.5723 61.0537C66.0016 62.5284 65.1293 63.8677 64.0112 64.9858C62.8931 66.104 61.5538 66.9762 60.0791 67.5469Z" />
</g>
</svg>
