<svg xmlns="http://www.w3.org/2000/svg" width="24" height="24" viewBox="0 0 24 24">
    <g fill="none" fill-rule="evenodd">
        <path d="M0 0H24V24H0z"/>
        <path fill="#232936" fill-rule="nonzero" d="M8.6 13.183c2.549.002 4.615 2.068 4.618 4.618 0 .414-.336.75-.75.75H3.732c-.414 0-.75-.336-.75-.75.003-2.55 2.069-4.615 4.618-4.618zm7.782.017c2.54.005 4.6 2.057 4.618 4.596 0 .418-.336.754-.75.754h-4.817c-.415 0-.75-.336-.75-.75s.335-.75.75-.75h3.957c-.35-1.378-1.587-2.344-3.008-2.35h-.5c-.49-.001-.973.114-1.41.337-.24.121-.525.106-.75-.04-.224-.147-.354-.402-.34-.67.015-.267.171-.507.41-.628.648-.33 1.364-.5 2.09-.499zM8.6 14.683h-1c-1.43.004-2.673.98-3.016 2.368h7.032c-.343-1.388-1.587-2.364-3.016-2.368zm7.741-8.268c1.481-.002 2.684 1.198 2.686 2.68.002 1.48-1.196 2.684-2.677 2.687-1.484 0-2.687-1.2-2.69-2.684 0-1.481 1.2-2.682 2.681-2.683zM8.089 5.387c1.765-.002 3.197 1.427 3.2 3.192.003 1.765-1.424 3.199-3.19 3.203-1.767 0-3.2-1.43-3.205-3.198 0-1.765 1.43-3.196 3.195-3.197zm8.26 2.528c-.651.007-1.179.531-1.19 1.183 0 .653.529 1.183 1.182 1.184.653.002 1.183-.526 1.186-1.18.002-.652-.524-1.184-1.177-1.187zM8.1 6.887c-.934.01-1.69.763-1.705 1.697 0 .937.758 1.697 1.695 1.698.936.002 1.697-.755 1.7-1.692.003-.937-.753-1.699-1.69-1.703z"/>
    </g>
</svg>
