<svg xmlns="http://www.w3.org/2000/svg" width="24" height="24" viewBox="0 0 24 24">
    <g fill="none" fill-rule="evenodd">
        <path d="M0 0H24V24H0z"/>
        <path fill="#232936" fill-rule="nonzero" d="M14.44 19.5c.415 0 .75.336.75.75s-.335.75-.75.75H9.56c-.415 0-.75-.336-.75-.75s.335-.75.75-.75zM12.11 3.001c2.701.082 5.072 1.818 5.966 4.367.895 2.55.128 5.386-1.93 7.137-.59.482-.94 1.2-.956 1.962v2.058H8.81v-2.061c-.008-.75-.347-1.458-.927-1.935-1.408-1.19-2.251-2.918-2.322-4.761-.07-1.843.637-3.63 1.95-4.925 1.226-1.205 2.882-1.868 4.6-1.842zm-.025 1.5c-1.317-.03-2.59.48-3.522 1.412-1.012.998-1.557 2.376-1.503 3.796.054 1.421.703 2.753 1.788 3.672.92.76 1.455 1.89 1.462 3.083v.561h3.38v-.561c.016-1.202.559-2.336 1.485-3.102 1.58-1.347 2.172-3.527 1.488-5.488-.683-1.961-2.502-3.3-4.578-3.373z"/>
    </g>
</svg>
