<?xml version="1.0" encoding="utf-8"?>
<!-- Generator: Adobe Illustrator 24.0.1, SVG Export Plug-In . SVG Version: 6.00 Build 0)  -->
<svg version="1.1" id="Layer_1" xmlns="http://www.w3.org/2000/svg" xmlns:xlink="http://www.w3.org/1999/xlink" x="0px" y="0px"
	 viewBox="0 0 234.69 34.5" style="enable-background:new 0 0 234.69 34.5;" xml:space="preserve">
<style type="text/css">
	.st0{fill-rule:evenodd;clip-rule:evenodd;fill:#1D1D1B;}
</style>
<path class="st0" d="M131.15,2.6c-0.01-1.45-1.19-2.62-2.63-2.61h-8.27c-8.18-0.16-14.95,6.34-15.13,14.52v4.96
	c0.18,8.18,6.95,14.68,15.13,14.52h8.27c1.44,0.04,2.64-1.1,2.68-2.54c0.04-1.44-1.1-2.64-2.54-2.68c-0.05,0-0.1,0-0.14,0h-8.27
	c-5.29,0.15-9.7-4.01-9.86-9.3v-4.96c0.16-5.29,4.57-9.45,9.86-9.3h8.27C129.96,5.22,131.14,4.05,131.15,2.6z M82.55-0.01
	c-8.18,0.11-14.73,6.82-14.65,15v16.89c0.04,1.45,1.25,2.6,2.71,2.56c1.4-0.04,2.52-1.16,2.56-2.56V14.99
	c-0.21-5.18,3.81-9.55,8.99-9.77c5.18-0.21,9.55,3.81,9.77,8.99c0.01,0.26,0.01,0.52,0,0.77v16.89c0.04,1.45,1.25,2.6,2.71,2.56
	c1.4-0.04,2.52-1.16,2.56-2.56V14.99C97.28,6.81,90.73,0.1,82.55-0.01L82.55-0.01z M118.26,14.39c-1.44,0-2.61,1.17-2.61,2.61
	s1.17,2.61,2.61,2.61h4.07c1.44,0,2.61-1.17,2.61-2.61s-1.17-2.61-2.61-2.61H118.26z M168.71,9.22c-1.45-0.01-2.63,1.16-2.63,2.61
	v20c0.04,1.45,1.25,2.6,2.71,2.56c1.4-0.04,2.52-1.16,2.56-2.56v-20c-0.01-1.44-1.19-2.61-2.63-2.6L168.71,9.22z M158.17-0.02h-4.09
	c-8.18-0.16-14.95,6.34-15.13,14.52v17.37c0.01,1.46,1.19,2.63,2.65,2.63c1.46-0.01,2.63-1.19,2.63-2.65V14.51
	c0.16-5.29,4.57-9.45,9.86-9.3h4.09c1.44,0.04,2.64-1.1,2.68-2.54s-1.1-2.64-2.54-2.68C158.26-0.01,158.21-0.01,158.17-0.02
	L158.17-0.02z M18.2,15.25L7.55,11.71C5.79,11.14,4.84,9.25,5.41,7.5c0.45-1.38,1.75-2.31,3.2-2.3h8.88
	c1.44,0.04,2.64-1.1,2.68-2.54c0.04-1.44-1.1-2.64-2.54-2.68c-0.05,0-0.1,0-0.14,0H8.62C3.9-0.07,0.03,3.73-0.01,8.45
	c-0.03,3.73,2.35,7.05,5.89,8.21l10.65,3.54c1.37,0.45,2.3,1.73,2.3,3.17v0.33c-0.02,2.77-2.27,5.01-5.05,5H3.94
	c-1.44,0-2.61,1.17-2.61,2.61s1.17,2.61,2.61,2.61h9.85c5.67,0.02,10.28-4.56,10.31-10.23v-0.33C24.09,19.67,21.72,16.4,18.2,15.25
	L18.2,15.25z M197.46,15.25l-10.65-3.54c-1.75-0.57-2.71-2.46-2.13-4.21c0.45-1.38,1.75-2.31,3.21-2.3h8.88
	c1.44,0.04,2.64-1.1,2.68-2.54c0.04-1.44-1.1-2.64-2.54-2.68c-0.05,0-0.1,0-0.14,0h-8.88c-4.73-0.04-8.59,3.75-8.63,8.48
	c-0.03,3.73,2.35,7.05,5.89,8.21l10.65,3.54c1.37,0.45,2.3,1.73,2.3,3.17v0.33c-0.02,2.77-2.28,5.01-5.05,5h-9.85
	c-1.44,0-2.61,1.17-2.61,2.61s1.17,2.61,2.61,2.61h9.85c5.67,0.02,10.28-4.56,10.31-10.23v-0.33
	C203.35,19.68,200.97,16.4,197.46,15.25z M57.82,0.84l-12,11.9c-0.34,0.33-0.88,0.33-1.21,0L32.57,0.8
	c-0.81-0.83-2.07-1.06-3.11-0.55c-1.29,0.64-1.81,2.2-1.17,3.49c0.13,0.26,0.3,0.49,0.5,0.69l13.34,13.23
	c0.29,0.29,0.46,0.68,0.46,1.09v13c-0.02,1.43,1.08,2.64,2.51,2.74h0.12c0.68,0,1.33-0.26,1.82-0.72c0.52-0.49,0.81-1.17,0.81-1.89
	V18.75c0-0.41,0.16-0.8,0.46-1.09L61.64,4.44c1.02-1.01,1.03-2.66,0.01-3.68c-0.03-0.03-0.07-0.06-0.1-0.1
	C60.46-0.26,58.83-0.19,57.82,0.84L57.82,0.84z M232.02,28.77h-8.27c-5.29,0.15-9.7-4.01-9.86-9.3v-4.96
	c0.16-5.29,4.57-9.45,9.86-9.3h8.27c1.44,0.04,2.64-1.1,2.68-2.54c0.04-1.44-1.1-2.64-2.54-2.68c-0.05,0-0.1,0-0.14,0h-8.27
	c-8.18-0.16-14.95,6.34-15.13,14.52v4.96c0.18,8.18,6.95,14.68,15.13,14.52h8.27c1.44,0.04,2.64-1.1,2.68-2.54
	c0.04-1.44-1.1-2.64-2.54-2.68C232.12,28.77,232.07,28.77,232.02,28.77z M221.77,14.4c-1.44,0-2.61,1.17-2.61,2.61
	s1.17,2.61,2.61,2.61h4.07c1.44,0,2.61-1.17,2.61-2.61s-1.17-2.61-2.61-2.61l0,0H221.77z"/>
</svg>
