<?xml version="1.0" encoding="UTF-8"?>
<svg width="48px" height="48px" viewBox="0 0 48 48" version="1.1" xmlns="http://www.w3.org/2000/svg" xmlns:xlink="http://www.w3.org/1999/xlink">
    <title>Actions / 03 L / 02-add-l</title>
    <g id="Actions-/-03-L-/-02-add-l" stroke="none" stroke-width="1" fill-rule="evenodd" fill="currentColor">
        <path d="M23.7501,5.9999 C33.0003136,5.9999 40.5001,13.4996864 40.5001,22.7499 C40.5001,25.9488233 39.6007553,29.0149184 37.9374601,31.6579195 L40.8729439,33.9987492 C41.6881671,34.6477922 41.2287823,35.9605 40.1878,35.9605 L40.1878,35.9605 L36.808,35.96 L38.6787213,39.6983007 C39.0217079,40.3899588 38.7788253,41.2209227 38.1367369,41.6224532 L38.1367369,41.6224532 L38.0117127,41.6925689 L36.3946821,42.4995824 C35.6603443,42.8687688 34.7676434,42.5712018 34.3979796,41.8359102 L34.3979796,41.8359102 L32.493,38.027 L30.0475508,41.1036439 C29.4235485,41.887415 28.1858017,41.4939706 28.0915135,40.5361129 L28.0915135,40.5361129 L28.0858,40.4185 L28.0854325,38.9333826 C26.6834981,39.3078956 25.2295113,39.4999 23.7501,39.4999 C14.4988864,39.4999 7.0001,32.0011136 7.0001,22.7499 C7.0001,13.4993483 14.4992246,5.9999 23.7501,5.9999 Z M29.585,26.917 L29.5844427,37.8724049 C29.5856056,37.8888181 29.5862193,37.9051989 29.5862955,37.9215238 L29.585,39.274 L32.0518037,36.1736646 C32.3703259,35.7731564 32.9763774,35.8075615 33.255123,36.2126376 L33.255123,36.2126376 L33.3096204,36.3050898 L35.733,41.153 L37.33,40.355 L34.9240631,35.5460771 C34.6901583,35.0785584 34.9942458,34.5335168 35.4926336,34.4672128 L35.4926336,34.4672128 L35.5948,34.4605 L39.046,34.46 L29.585,26.917 Z M23.7501,7.4999 C15.3276662,7.4999 8.5001,14.3277609 8.5001,22.7499 C8.5001,31.1726864 15.3273136,37.9999 23.7501,37.9999 C25.2353941,37.9999 26.6911404,37.787752 28.0860585,37.3750697 L28.0858,26.0895 C28.0858,25.1681861 29.148721,24.6554555 29.872352,25.2280743 L29.872352,25.2280743 L36.7566713,30.7162393 C38.2138988,28.3431309 39.0001,25.606126 39.0001,22.7499 C39.0001,14.3281136 32.1718864,7.4999 23.7501,7.4999 Z M23.687,16.16 C24.0666958,16.16 24.380491,16.4421539 24.4301534,16.8082294 L24.437,16.91 L24.4361,22.0279 L29.5559,22.0288 C29.9701136,22.0288 30.3059,22.3645864 30.3059,22.7788 C30.3059,23.1584958 30.0237461,23.472291 29.6576706,23.5219534 L29.5559,23.5288 L24.4361,23.5279 L24.437,28.647 C24.437,29.0612136 24.1012136,29.397 23.687,29.397 C23.3073042,29.397 22.993509,29.1148461 22.9438466,28.7487706 L22.937,28.647 L22.9361,23.5279 L17.8179,23.5288 C17.4036864,23.5288 17.0679,23.1930136 17.0679,22.7788 C17.0679,22.3991042 17.3500539,22.085309 17.7161294,22.0356466 L17.8179,22.0288 L22.9361,22.0279 L22.937,16.91 C22.937,16.4957864 23.2727864,16.16 23.687,16.16 Z" id="Combined-Shape" fill-rule="nonzero"></path>
    </g>
</svg>