<?xml version="1.0" encoding="UTF-8"?>
<svg width="48px" height="48px" viewBox="0 0 48 48" version="1.1" xmlns="http://www.w3.org/2000/svg" xmlns:xlink="http://www.w3.org/1999/xlink">
    <!-- Generator: Sketch 64 (93537) - https://sketch.com -->
    <title>Edit / 03 L / 06-button-submit-l</title>
    <desc>Created with Sketch.</desc>
    <g id="Edit-/-03-L-/-06-button-submit-l" stroke="none" stroke-width="1" fill="none" fill-rule="evenodd" stroke-linecap="round" stroke-linejoin="round">
        <g id="Group" transform="translate(7.000000, 14.000000)" stroke="currentColor" stroke-width="1.5">
            <polyline id="Path-4" transform="translate(25.000000, 10.000000) rotate(-135.000000) translate(-25.000000, -10.000000) " points="27 12 23 12 23 8"></polyline>
            <path d="M27,14.9333333 L27,24.7333333 C27,25.9851788 25.6224146,27 23.9230769,27 L10.0769231,27 C8.37758539,27 7,25.9851788 7,24.7333333 L7,-4.73333333 C7,-5.98517877 8.37758539,-7 10.0769231,-7 L23.9230769,-7 C25.6224146,-7 27,-5.98517877 27,-4.73333333 L27,4.17931912" id="Path-Copy" transform="translate(17.000000, 10.000000) rotate(-270.000000) translate(-17.000000, -10.000000) "></path>
            <path d="M22.8758855,19.4568909 L12.5351041,11.3209461 C12.4361039,11.2430519 12.3006483,11.2280058 12.1865822,11.2822329 C12.072516,11.33646 12,11.4503764 12,11.575335 L12,24.8681534 C12,25.0064435 12.0887133,25.1295773 12.2209951,25.175172 C12.353277,25.2207667 12.500308,25.1788613 12.5875985,25.0706861 L15.5756885,21.3635268 L17.85957,25.8719661 C17.9417463,26.0341882 18.0858512,26.1575465 18.2601826,26.2149031 C18.4345139,26.2722597 18.624791,26.2589159 18.7891539,26.1778074 L20.3100424,25.4272759 C20.6522856,25.2583624 20.7909958,24.8476097 20.6198647,24.5098212 L18.3538477,20.0366682 L22.6703155,20.0366682 C22.8104127,20.0366548 22.9352021,19.9492597 22.9814768,19.8187493 C23.0277515,19.6882389 22.9854048,19.5431177 22.8758855,19.4568909 L22.8758855,19.4568909 Z" id="Path"></path>
        </g>
    </g>
</svg>