<?xml version="1.0" encoding="UTF-8"?>
<svg width="48px" height="48px" viewBox="0 0 48 48" version="1.1" xmlns="http://www.w3.org/2000/svg" xmlns:xlink="http://www.w3.org/1999/xlink">
    <!-- Generator: Sketch 64 (93537) - https://sketch.com -->
    <title>Edit / 03 L / 05-button-l</title>
    <desc>Created with Sketch.</desc>
    <g id="Edit-/-03-L-/-05-button-l" stroke="none" stroke-width="1" fill="none" fill-rule="evenodd" stroke-linecap="round" stroke-linejoin="round">
        <g id="Group" transform="translate(7.000000, 13.000000)" stroke="currentColor" stroke-width="1.5">
            <path d="M27,13.9333333 L27,24.7333333 C27,25.9851788 25.6224146,27 23.9230769,27 L10.0769231,27 C8.37758539,27 7,25.9851788 7,24.7333333 L7,-4.73333333 C7,-5.98517877 8.37758539,-7 10.0769231,-7 L23.9230769,-7 C25.6224146,-7 27,-5.98517877 27,-4.73333333 L27,2.93333333" id="Path-Copy" transform="translate(17.000000, 10.000000) rotate(-270.000000) translate(-17.000000, -10.000000) "></path>
            <path d="M24.8758855,19.4568909 L14.5351041,11.3209461 C14.4361039,11.2430519 14.3006483,11.2280058 14.1865822,11.2822329 C14.072516,11.33646 14,11.4503764 14,11.575335 L14,24.8681534 C14,25.0064435 14.0887133,25.1295773 14.2209951,25.175172 C14.353277,25.2207667 14.500308,25.1788613 14.5875985,25.0706861 L17.5756885,21.3635268 L19.85957,25.8719661 C19.9417463,26.0341882 20.0858512,26.1575465 20.2601826,26.2149031 C20.4345139,26.2722597 20.624791,26.2589159 20.7891539,26.1778074 L22.3100424,25.4272759 C22.6522856,25.2583624 22.7909958,24.8476097 22.6198647,24.5098212 L20.3538477,20.0366682 L24.6703155,20.0366682 C24.8104127,20.0366548 24.9352021,19.9492597 24.9814768,19.8187493 C25.0277515,19.6882389 24.9854048,19.5431177 24.8758855,19.4568909 L24.8758855,19.4568909 Z" id="Path"></path>
        </g>
    </g>
</svg>