<?xml version="1.0" encoding="UTF-8"?>
<svg width="48px" height="48px" viewBox="0 0 48 48" version="1.1" xmlns="http://www.w3.org/2000/svg" xmlns:xlink="http://www.w3.org/1999/xlink">
    <title>Actions / 03 L / 05-check-l</title>
    <g id="Actions-/-03-L-/-05-check-l" stroke="none" stroke-width="1"  fill="currentColor">
        <path d="M24,7.25 C33.2504802,7.25 40.75,14.7495198 40.75,24 C40.75,33.2504802 33.2504802,40.75 24,40.75 C14.7495198,40.75 7.25,33.2504802 7.25,24 C7.25,14.7495198 14.7495198,7.25 24,7.25 Z M24,8.75 C15.5779469,8.75 8.75,15.5779469 8.75,24 C8.75,32.4220531 15.5779469,39.25 24,39.25 C32.4220531,39.25 39.25,32.4220531 39.25,24 C39.25,15.5779469 32.4220531,8.75 24,8.75 Z M30.6,19 C30.9,18.7 31.3,18.7 31.6,18.9 C31.9,19.2 31.9,19.7 31.6,20 L31.6,20 L22.9,28.7 C22.8,28.8 22.6,28.9 22.4,28.9 C22.2,28.9 22,28.8 21.9,28.7 L21.9,28.7 L17.5,24.3 C17.2,24 17.2,23.5 17.5,23.2 C17.8,22.9 18.3,22.9 18.6,23.2 L18.6,23.2 L22.5,27.1 Z" id="Combined-Shape" ></path>
    </g>
</svg>