<?xml version="1.0" encoding="UTF-8"?>
<svg width="48px" height="48px" viewBox="0 0 48 48" version="1.1" xmlns="http://www.w3.org/2000/svg" xmlns:xlink="http://www.w3.org/1999/xlink">
    <title>Actions / 03 L / 06-close-l</title>
    <g id="Actions-/-03-L-/-06-close-l" stroke="none" stroke-width="1" fill="none" fill-rule="evenodd">
        <path d="M24,7.25 C33.2504802,7.25 40.75,14.7495198 40.75,24 C40.75,33.2504802 33.2504802,40.75 24,40.75 C14.7495198,40.75 7.25,33.2504802 7.25,24 C7.25,14.7495198 14.7495198,7.25 24,7.25 Z M24,8.75 C15.5779469,8.75 8.75,15.5779469 8.75,24 C8.75,32.4220531 15.5779469,39.25 24,39.25 C32.4220531,39.25 39.25,32.4220531 39.25,24 C39.25,15.5779469 32.4220531,8.75 24,8.75 Z M18.6962117,17.6478518 L18.7803301,17.7204699 L24.175,23.115 L29.5696699,17.7200699 C29.8625631,17.4271767 30.3374369,17.4271767 30.6303301,17.7200699 C30.8965966,17.9863365 30.9208027,18.4030002 30.7029482,18.6966117 L30.6303301,18.7807301 L25.235,24.175 L30.6303301,29.5704699 C30.9232233,29.8633631 30.9232233,30.3382369 30.6303301,30.6311301 C30.3640635,30.8973966 29.9473998,30.9216027 29.6537883,30.7037482 L29.5696699,30.6311301 L24.174,25.236 L18.7803301,30.6307301 C18.4874369,30.9236233 18.0125631,30.9236233 17.7196699,30.6307301 C17.4534034,30.3644635 17.4291973,29.9477998 17.6470518,29.6541883 L17.7196699,29.5700699 L23.114,24.176 L17.7196699,18.7811301 C17.4267767,18.4882369 17.4267767,18.0133631 17.7196699,17.7204699 C17.9859365,17.4542034 18.4026002,17.4299973 18.6962117,17.6478518 Z" id="Combined-Shape" fill="currentColor" fill-rule="nonzero"></path>
    </g>
</svg>