<?xml version="1.0" encoding="UTF-8"?>
<svg width="48px" height="48px" viewBox="0 0 48 48" version="1.1" xmlns="http://www.w3.org/2000/svg" xmlns:xlink="http://www.w3.org/1999/xlink">
    <!-- Generator: Sketch 64 (93537) - https://sketch.com -->
    <title>Analytics / 03 L / 01-column-l</title>
    <desc>Created with Sketch.</desc>
    <g id="Analytics-/-03-L-/-01-column-l" stroke="none" stroke-width="1" fill="none" fill-rule="evenodd" stroke-linecap="round">
        <g id="Group" transform="translate(7.000000, 9.000000)" stroke="currentColor" stroke-width="1.5">
            <path d="M1.13686838e-13,25 L1.13686838e-13,10 C1.13686838e-13,8.8954305 0.8954305,8 2,8 L6,8 C7.1045695,8 8,8.8954305 8,10 L8,25" id="Path"></path>
            <path d="M13,25 L13,6 C13,4.8954305 13.8954305,4 15,4 L19,4 C20.1045695,4 21,4.8954305 21,6 L21,25" id="Path"></path>
            <path d="M26,25 L26,2 C26,0.8954305 26.8954305,0 28,0 L32,0 C33.1045695,0 34,0.8954305 34,2 L34,25" id="Path"></path>
            <line x1="0" y1="29.96268" x2="34" y2="29.96268" id="Path" stroke-linejoin="round"></line>
        </g>
    </g>
</svg>