<?xml version="1.0" encoding="UTF-8"?>
<svg width="48px" height="48px" viewBox="0 0 48 48" version="1.1" xmlns="http://www.w3.org/2000/svg" xmlns:xlink="http://www.w3.org/1999/xlink">
    <!-- Generator: Sketch 64 (93537) - https://sketch.com -->
    <title>Edit / 03 L / 15-countdown-l</title>
    <desc>Created with Sketch.</desc>
    <g id="Edit-/-03-L-/-15-countdown-l" stroke="none" stroke-width="1" fill="none" fill-rule="evenodd">
        <g id="Group" transform="translate(6.500000, 9.500000)" stroke="currentColor" stroke-width="1.5">
            <path d="M21,6 C22.1045695,6 23,6.8954305 23,8 L23,21 C23,22.1045695 22.1045695,23 21,23 L-3,23 C-4.1045695,23 -5,22.1045695 -5,21 L-5,8 C-5,6.8954305 -4.1045695,6 -3,6" id="Path" stroke-linecap="round" stroke-linejoin="round" transform="translate(9.000000, 14.500000) rotate(-270.000000) translate(-9.000000, -14.500000) "></path>
            <path d="M14,23 C12.8954305,23 12,22.1045695 12,21 L12,8 C12,6.8954305 12.8954305,6 14,6 L38,6 C39.1045695,6 40,6.8954305 40,8 L40,21 C40,22.1045695 39.1045695,23 38,23" id="Path" stroke-linecap="round" stroke-linejoin="round" transform="translate(26.000000, 14.500000) rotate(-270.000000) translate(-26.000000, -14.500000) "></path>
            <rect id="Rectangle" x="7" y="10" width="4" height="9" rx="2"></rect>
            <polyline id="Path-11" stroke-linecap="round" stroke-linejoin="round" points="24 10 28 10 24 19"></polyline>
            <path d="M17.5,6.5 L17.5,24.5 L17.5,6.5 Z" id="Rectangle" stroke-linecap="round" stroke-linejoin="round" stroke-dasharray="0,4"></path>
        </g>
    </g>
</svg>