<svg xmlns="http://www.w3.org/2000/svg" width="48" height="48" viewBox="0 0 48 48">
    <g fill="none" fill-rule="evenodd">
        <g fill="currentColor" fill-rule="nonzero">
            <g>
                <g>
                    <path d="M26.115 13c.834 0 1.596.475 1.961 1.224l.834 1.704h2.972c1.934 0 3.513 1.517 3.613 3.425l.005.192v10.752c0 1.998-1.62 3.616-3.618 3.616H16.617c-1.998 0-3.617-1.618-3.617-3.616V19.544c0-1.997 1.62-3.617 3.617-3.617h2.756l.836-1.704c.342-.7 1.028-1.16 1.796-1.218l.165-.007zm0 1.5H22.17c-.26 0-.499.148-.614.383l-1.041 2.125c-.126.258-.387.42-.674.42h-3.224c-1.169 0-2.117.948-2.117 2.117v10.752c0 1.17.948 2.116 2.117 2.116h15.265c1.17 0 2.118-.947 2.118-2.116V19.544c0-1.168-.948-2.117-2.118-2.117h-3.44c-.286 0-.547-.163-.673-.42l-1.04-2.126c-.115-.234-.353-.383-.614-.383zM24.25 19.48c2.59 0 4.692 2.101 4.692 4.692 0 2.592-2.1 4.692-4.692 4.692-2.591 0-4.693-2.1-4.693-4.692 0-2.59 2.102-4.692 4.693-4.692zm0 1.5c-1.763 0-3.193 1.43-3.193 3.192 0 1.763 1.43 3.192 3.193 3.192 1.763 0 3.192-1.429 3.192-3.192 0-1.762-1.43-3.192-3.192-3.192z" transform="translate(-2847 -4003) translate(2831 3987) translate(16 16)"/>
                </g>
            </g>
        </g>
    </g>
</svg>
