<?xml version="1.0" encoding="utf-8"?>
<!-- Generator: Adobe Illustrator 26.5.2, SVG Export Plug-In . SVG Version: 6.00 Build 0)  -->
<svg version="1.1" id="Warstwa_1" xmlns="http://www.w3.org/2000/svg" xmlns:xlink="http://www.w3.org/1999/xlink" x="0px" y="0px"
	 viewBox="0 0 48 48" style="enable-background:new 0 0 48 48;" xml:space="preserve">

<g fill="currentColor">
	<path d="M23.6,27.7h-6.8c-0.4,0-0.8,0.3-0.8,0.8c0,0.4,0.3,0.8,0.8,0.8h6.8c0.4,0,0.8-0.3,0.8-0.8
		C24.3,28.1,24,27.7,23.6,27.7z"/>
	<path d="M16.8,25.1h4.3c0.4,0,0.8-0.3,0.8-0.8c0-0.4-0.3-0.8-0.8-0.8h-4.3c-0.4,0-0.8,0.3-0.8,0.8
		C16,24.8,16.4,25.1,16.8,25.1z"/>
	<path d="M35.4,19.7c0-1.2-1-2.2-2.2-2.2h-7.6c-0.1,0-0.3,0-0.4-0.1l-3.8-2.4c-0.3-0.2-0.8-0.3-1.2-0.3h-5.6
		c-1.2,0-2.2,1-2.2,2.2v14.2c0,1.2,1,2.2,2.2,2.2H27h0.2h6.1c1.2,0,2.2-1,2.2-2.2v-3c0,0,0,0,0,0V19.7z M33.9,31.1
		c0,0.4-0.3,0.7-0.7,0.7h-6.1H27H14.8c-0.4,0-0.7-0.3-0.7-0.7V16.9c0-0.4,0.3-0.7,0.7-0.7h5.6c0.1,0,0.3,0,0.4,0.1l3.8,2.4
		c0.3,0.2,0.8,0.3,1.2,0.3h7.6c0.4,0,0.7,0.3,0.7,0.7v7.1c0,0,0,0,0,0V31.1z"/>
</g>
</svg>
