<?xml version="1.0" encoding="utf-8"?>

<svg version="1.1" id="Warstwa_1" xmlns="http://www.w3.org/2000/svg" xmlns:xlink="http://www.w3.org/1999/xlink" x="0px" y="0px"
	 viewBox="0 0 48 48" style="enable-background:new 0 0 48 48;" xml:space="preserve">
<style type="text/css">
	.st0{display:none;}
	.st1{display:inline;fill:#FFFFFF;}
	.st2{display:inline;fill:none;stroke:#009FE3;stroke-width:0.25;stroke-miterlimit:10;}
	.st3{display:inline;}
	.st4{fill:none;stroke:#FF00FF;stroke-width:0.25;stroke-miterlimit:10;}
	.st5{display:inline;fill:none;stroke:#FF00FF;stroke-width:0.25;stroke-miterlimit:10;}
	.st6{fill:#384350;}
</style>
<g id="canvas" class="st0">
	<rect y="0" class="st1" width="48" height="48"/>
</g>
<g id="Grid" class="st0">
	<rect id="canvas_60x60px_00000087376369248780979740000018112378809641165755_" x="9" y="9" class="st2" width="30" height="30"/>
	
		<rect id="canvas_70x70px_00000139263555812846683340000006351513766945674637_" x="6.5" y="6.5" class="st2" width="35" height="35"/>
</g>
<g id="Additional_bottom_right" class="st0">
	<g class="st3">
		<rect id="_x38_x8p_canvas_490_" x="28.5" y="28.5" class="st4" width="13" height="13"/>
		<rect id="_x38_x8p_canvas_489_" x="26.5" y="26.5" class="st4" width="17" height="17"/>
	</g>
</g>
<g id="Additional_bottom_left" class="st0">
	<g class="st3">
		
			<rect id="_x38_x8p_canvas_00000119817039860293797140000002009875867054448289_" x="6.5" y="28.5" class="st4" width="13" height="13"/>
		
			<rect id="_x38_x8p_canvas_00000008113701418413873710000004605491709688509882_" x="4.5" y="26.5" class="st4" width="17" height="17"/>
	</g>
</g>
<g id="additional_up_left" class="st0">
	<g class="st3">
		<rect id="_x38_x8p_canvas_442_" x="6.5" y="6.5" class="st4" width="13" height="13"/>
		<rect id="_x38_x8p_canvas_441_" x="4.5" y="4.5" class="st4" width="17" height="17"/>
	</g>
</g>
<g id="additional_up_right" class="st0">
	<g class="st3">
		
			<rect id="_x38_x8p_canvas_00000128455225134807733230000012416498725566947234_" x="28.5" y="6.5" class="st4" width="13" height="13"/>
		
			<rect id="_x38_x8p_canvas_00000077323326945600381840000016795754213672988288_" x="26.5" y="4.5" class="st4" width="17" height="17"/>
	</g>
</g>
<g id="Additional_center" class="st0">
	<rect id="_x38_x8p_canvas_298_" x="15.5" y="15.5" class="st5" width="17" height="17"/>
	<rect id="_x38_x8p_canvas_297_" x="17.5" y="17.5" class="st5" width="13" height="13"/>
</g>
<g id="Circle" class="st0">
	<circle class="st2" cx="24" cy="24" r="15"/>
</g>
<g id="Vertical_rectangle" class="st0">
	<path class="st2" d="M32,9H16c-2.2,0-4,1.8-4,4v22c0,2.2,1.8,4,4,4h16c2.2,0,4-1.8,4-4V13C36,10.8,34.2,9,32,9z"/>
</g>
<g id="Horizontal_rectangle" class="st0">
	<path class="st2" d="M35,12H13c-2.2,0-4,1.8-4,4v16c0,2.2,1.8,4,4,4h22c2.2,0,4-1.8,4-4V16C39,13.8,37.2,12,35,12z"/>
</g>
<g id="square" class="st0">
	<path class="st2" d="M33.5,37.5h-19c-2.2,0-4-1.8-4-4v-19c0-2.2,1.8-4,4-4h19c2.2,0,4,1.8,4,4v19C37.5,35.7,35.7,37.5,33.5,37.5z"
		/>
</g>
<g>
	<path class="st6" d="M27.3,35.4H10.7c-0.9,0-1.7-0.8-1.7-1.7v-11h29.3v7.3c0,0.4,0.3,0.8,0.8,0.8c0.4,0,0.8-0.3,0.8-0.8V18.9
		c0-1.8-1.4-3.2-3.2-3.2H24.6c-0.5,0-0.9-0.2-1.2-0.5l-3-3c-0.6-0.6-1.4-0.9-2.3-0.9h-7.5c-1.8,0-3.2,1.4-3.2,3.2v19.2
		c0,1.8,1.4,3.2,3.2,3.2h16.6c0.4,0,0.8-0.3,0.8-0.8C28.1,35.8,27.7,35.4,27.3,35.4z M10.7,12.8h7.5c0.5,0,0.9,0.2,1.2,0.5l3,3
		c0.6,0.6,1.4,0.9,2.3,0.9h11.9c0.9,0,1.7,0.8,1.7,1.7v2.4H9v-6.8C9,13.5,9.8,12.8,10.7,12.8z"/>
	<path class="st6" d="M42.2,33.3c-0.1-0.3-0.3-0.5-0.6-0.5l-4.1-0.6l-1.8-3.7c-0.1-0.3-0.4-0.4-0.7-0.4s-0.5,0.2-0.7,0.4l-1.8,3.7
		l-4.1,0.6c-0.3,0-0.5,0.2-0.6,0.5c-0.1,0.3,0,0.6,0.2,0.8l3,2.9L30.3,41c0,0.3,0.1,0.6,0.3,0.7s0.5,0.2,0.8,0.1l3.7-1.9l3.7,1.9
		c0.3,0.1,0.6,0.1,0.8-0.1s0.3-0.5,0.3-0.7L39,37l3-2.9C42.2,33.9,42.3,33.6,42.2,33.3z M37.7,36.2c-0.2,0.2-0.3,0.4-0.2,0.7l0.5,3
		l-2.7-1.4c-0.2-0.1-0.5-0.1-0.7,0L32,39.8l0.5-3c0-0.2,0-0.5-0.2-0.7l-2.2-2.1l3-0.4c0.2,0,0.5-0.2,0.6-0.4l1.3-2.7l1.3,2.7
		c0.1,0.2,0.3,0.4,0.6,0.4l3,0.4L37.7,36.2z"/>
</g>
</svg>
