<?xml version="1.0" encoding="utf-8"?>
<!-- Generator: Adobe Illustrator 28.1.0, SVG Export Plug-In . SVG Version: 6.00 Build 0)  -->
<svg version="1.1" id="Warstwa_1" xmlns="http://www.w3.org/2000/svg" xmlns:xlink="http://www.w3.org/1999/xlink" x="0px" y="0px"
	 viewBox="0 0 48 48" style="enable-background:new 0 0 48 48;" xml:space="preserve">

<path  fill="currentColor" d="M36.5,15.6H24.6c-0.5,0-0.9-0.2-1.2-0.5l-3-3c-0.6-0.6-1.4-0.9-2.3-0.9h-7.5c-1.8,0-3.2,1.4-3.2,3.2v19.2
	c0,1.8,1.4,3.2,3.2,3.2h25.8c1.8,0,3.2-1.4,3.2-3.2V18.9C39.7,17.1,38.3,15.6,36.5,15.6z M10.7,12.8h7.5c0.5,0,0.9,0.2,1.2,0.5l3,3
	c0.6,0.6,1.4,0.9,2.3,0.9h11.9c0.9,0,1.7,0.8,1.7,1.7v2.4H9v-6.8C9,13.5,9.8,12.8,10.7,12.8z M36.5,35.4H10.7
	c-0.9,0-1.7-0.8-1.7-1.7v-11h29.3v11C38.2,34.7,37.5,35.4,36.5,35.4z"/>
</svg>
