<?xml version="1.0" encoding="utf-8"?>

<svg version="1.1" id="Warstwa_1" xmlns="http://www.w3.org/2000/svg" xmlns:xlink="http://www.w3.org/1999/xlink" x="0px" y="0px"
	 viewBox="0 0 48 48" style="enable-background:new 0 0 48 48;" xml:space="preserve">

<g fill="currentColor">
	<path d="M27.3,35.4H10.7c-0.9,0-1.7-0.8-1.7-1.7v-11h29.3v7.3c0,0.4,0.3,0.8,0.8,0.8c0.4,0,0.8-0.3,0.8-0.8V18.9
		c0-1.8-1.4-3.2-3.2-3.2H24.6c-0.5,0-0.9-0.2-1.2-0.5l-3-3c-0.6-0.6-1.4-0.9-2.3-0.9h-7.5c-1.8,0-3.2,1.4-3.2,3.2v19.2
		c0,1.8,1.4,3.2,3.2,3.2h16.6c0.4,0,0.8-0.3,0.8-0.8C28.1,35.8,27.7,35.4,27.3,35.4z M10.7,12.8h7.5c0.5,0,0.9,0.2,1.2,0.5l3,3
		c0.6,0.6,1.4,0.9,2.3,0.9h11.9c0.9,0,1.7,0.8,1.7,1.7v2.4H9v-6.8C9,13.5,9.8,12.8,10.7,12.8z"/>
	<path d="M42.2,33.3c-0.1-0.3-0.3-0.5-0.6-0.5l-4.1-0.6l-1.8-3.7c-0.1-0.3-0.4-0.4-0.7-0.4s-0.5,0.2-0.7,0.4l-1.8,3.7
		l-4.1,0.6c-0.3,0-0.5,0.2-0.6,0.5c-0.1,0.3,0,0.6,0.2,0.8l3,2.9L30.3,41c0,0.3,0.1,0.6,0.3,0.7s0.5,0.2,0.8,0.1l3.7-1.9l3.7,1.9
		c0.3,0.1,0.6,0.1,0.8-0.1s0.3-0.5,0.3-0.7L39,37l3-2.9C42.2,33.9,42.3,33.6,42.2,33.3z M37.7,36.2c-0.2,0.2-0.3,0.4-0.2,0.7l0.5,3
		l-2.7-1.4c-0.2-0.1-0.5-0.1-0.7,0L32,39.8l0.5-3c0-0.2,0-0.5-0.2-0.7l-2.2-2.1l3-0.4c0.2,0,0.5-0.2,0.6-0.4l1.3-2.7l1.3,2.7
		c0.1,0.2,0.3,0.4,0.6,0.4l3,0.4L37.7,36.2z"/>
</g>
</svg>
