<?xml version="1.0" encoding="utf-8"?>
<!-- Generator: Adobe Illustrator 26.5.2, SVG Export Plug-In . SVG Version: 6.00 Build 0)  -->
<svg version="1.1" id="Warstwa_1" xmlns="http://www.w3.org/2000/svg" xmlns:xlink="http://www.w3.org/1999/xlink" x="0px" y="0px"
	 viewBox="0 0 48 48" style="enable-background:new 0 0 48 48;" xml:space="preserve">
<g fill="currentColor">
	<path d="M16.8,29.3h6.8c0.4,0,0.8-0.3,0.8-0.8c-0.1-0.4-0.4-0.8-0.8-0.8h-6.8c-0.4,0-0.8,0.3-0.8,0.8
		C16,28.9,16.3,29.3,16.8,29.3z"/>
	<path d="M16.8,25.1h4.3c0.4,0,0.8-0.3,0.8-0.8c0-0.4-0.3-0.8-0.8-0.8h-4.3c-0.4,0-0.8,0.3-0.8,0.8S16.4,25.1,16.8,25.1
		z"/>
	<path d="M39,29.4c-0.1-0.3-0.3-0.5-0.6-0.5l-2.1-0.3l-0.9-1.9c-0.1-0.3-0.4-0.4-0.7-0.4s-0.5,0.2-0.7,0.4l-0.9,1.9
		L31,28.8c-0.3,0-0.5,0.2-0.6,0.5c-0.1,0.3,0,0.6,0.2,0.8l1.5,1.5l-0.4,2.1c0,0.3,0.1,0.6,0.3,0.7c0.2,0.2,0.5,0.2,0.8,0.1l1.8-1
		l1.8,1c0.3,0.1,0.6,0.1,0.8-0.1c0.2-0.2,0.3-0.5,0.3-0.7l-0.4-2.1l1.5-1.5C39,29.9,39.1,29.6,39,29.4z M36,30.8
		c-0.2,0.2-0.3,0.4-0.2,0.7l0.2,0.9l-0.8-0.4c-0.2-0.1-0.5-0.1-0.7,0l-0.8,0.4l0.2-0.9c0-0.2,0-0.5-0.2-0.7l-0.7-0.7l1-0.1
		c0.2,0,0.5-0.2,0.6-0.4l0.4-0.9l0.4,0.9c0.1,0.2,0.3,0.4,0.6,0.4l1,0.1L36,30.8z"/>
	<path d="M30.2,31.8C30.2,31.8,30.2,31.8,30.2,31.8l-3.1,0H27H14.8c-0.4,0-0.7-0.3-0.7-0.7V16.9c0-0.4,0.3-0.7,0.7-0.7
		h5.6c0.1,0,0.3,0,0.4,0.1l3.8,2.4c0.3,0.2,0.8,0.3,1.2,0.3h7.6c0.4,0,0.7,0.3,0.7,0.7v5c0,0,0,0,0,0c0,0,0,0,0,0
		c0,0.4,0.3,0.7,0.7,0.7s0.7-0.3,0.7-0.7c0,0,0,0,0,0c0,0,0,0,0,0l-0.1-5c0-1.2-1-2.2-2.2-2.2h-7.6c-0.1,0-0.3,0-0.4-0.1L21.4,15
		c-0.3-0.2-0.8-0.3-1.2-0.3h-5.6c-1.2,0-2.2,1-2.2,2.2v14.2c0,1.2,1,2.2,2.2,2.2H27h0.2h2.9c0,0,0,0,0,0c0.4,0,0.8-0.3,0.8-0.8
		C30.9,32.1,30.6,31.8,30.2,31.8z"/>
</g>
</svg>
