<?xml version="1.0" encoding="UTF-8"?>
<svg width="48px" height="48px" viewBox="0 0 48 48" version="1.1" xmlns="http://www.w3.org/2000/svg" xmlns:xlink="http://www.w3.org/1999/xlink">
    <!-- Generator: Sketch 64 (93537) - https://sketch.com -->
    <title>Edit / 03 L / 25-form-l</title>
    <desc>Created with Sketch.</desc>
    <g id="Edit-/-03-L-/-25-form-l" stroke="none" stroke-width="1" fill="none" fill-rule="evenodd">
        <g id="Group-3" transform="translate(7.000000, 10.000000)" stroke="currentColor" stroke-width="1.5">
            <path d="M2,0 L32,0 C33.1045695,-2.02906125e-16 34,0.8954305 34,2 L34,9 C34,10.1045695 33.1045695,11 32,11 L2,11 C0.8954305,11 1.3527075e-16,10.1045695 0,9 L0,2 C-1.3527075e-16,0.8954305 0.8954305,2.02906125e-16 2,0 Z" id="Rectangle-Copy"></path>
            <line x1="4.01189122" y1="2.93090148" x2="4.01189122" y2="7.93090148" id="Path-10" stroke-linecap="round"></line>
            <path d="M12,24.1818182 L12,25.8181818 C12,27.0231667 11.0231667,28 9.81818182,28 L2.18181818,28 C0.976833273,28 0,27.0231667 0,25.8181818 L0,18.1818182 C0,16.9768333 0.976833273,16 2.18181818,16 L6.54545455,16" id="Path" stroke-linecap="round"></path>
            <polyline id="Path-3" stroke-linecap="round" stroke-linejoin="round" points="4 21.0404854 6.6377208 23.5 12 18.5"></polyline>
            <rect id="Rectangle-Copy-3" x="17" y="16" width="17" height="12" rx="2"></rect>
            <line x1="22" y1="22" x2="29" y2="22" id="Path-Copy-3" stroke-linecap="round" stroke-linejoin="round"></line>
        </g>
    </g>
</svg>