<?xml version="1.0" encoding="UTF-8"?>
<svg width="48px" height="48px" viewBox="0 0 48 48" version="1.1" xmlns="http://www.w3.org/2000/svg" xmlns:xlink="http://www.w3.org/1999/xlink">
    <!-- Generator: Sketch 64 (93537) - https://sketch.com -->
    <title>Edit / 03 L / 26-form-edit-l</title>
    <desc>Created with Sketch.</desc>
    <g id="Edit-/-03-L-/-26-form-edit-l" stroke="none" stroke-width="1" fill="none" fill-rule="evenodd">
        <g id="Group-2" transform="translate(7.000000, 10.000000)">
            <path d="M5,-3 L29,-3 C30.1045695,-3 31,-2.1045695 31,-1 L31,29 C31,30.1045695 30.1045695,31 29,31 L5,31 C3.8954305,31 3,30.1045695 3,29 L3,-1 C3,-2.1045695 3.8954305,-3 5,-3 Z" id="Rectangle" stroke="currentColor" stroke-width="1.5" stroke-linecap="round" stroke-linejoin="round" stroke-dasharray="3" transform="translate(17.000000, 14.000000) rotate(-270.000000) translate(-17.000000, -14.000000) "></path>
            <path d="M25.62451,7.26854997 C25.18725,6.53616494 24.4360253,6.0470042 23.58936,5.94335997 C22.7486708,5.84110056 21.9082059,6.13539005 21.31494,6.73974997 L10.59229,17.59668 C10.21108,17.9852661 9.99828855,18.5083797 9.99998972,19.05273 L10.01416,21.33105 C10.0169408,21.7433154 10.3518852,22.07617 10.76416,22.07617 L10.769,22.07617 L13.04443,22.062 C13.5878349,22.0605881 14.1079608,21.8412444 14.48828,21.45311 L25.16113,10.647 C26.0611541,9.7548848 26.2510945,8.37005107 25.62451,7.26854997 Z M13.42041,20.3999 C13.3188313,20.5032696 13.1800854,20.5616528 13.03516,20.56201 L11.50928,20.57129 L11.4999938,19.04346 C11.4993064,18.8966519 11.5567043,18.7555278 11.65967,18.65088 L20.18219,10.0213 L21.93512,11.77844 L13.42041,20.3999 Z M24.09375,9.59276998 L22.98907,10.71124 L21.23615,8.95409998 L22.38867,7.78709997 C22.6196135,7.55448139 22.93388,7.42370622 23.26167,7.4238199 C23.3116015,7.42385593 23.3614888,7.42679087 23.41108,7.43260997 C23.8008907,7.48032852 24.1457681,7.70807628 24.34272,8.04783998 C24.6172507,8.56009908 24.5153073,9.19268749 24.09375,9.59276998 Z" id="Shape" fill="currentColor" fill-rule="nonzero"></path>
        </g>
    </g>
</svg>