<svg width="48" height="48" viewBox="0 0 48 48" fill="none" xmlns="http://www.w3.org/2000/svg">
    <path fill-rule="evenodd" clip-rule="evenodd"
        d="M24.1025 11.9922H24.1237C26.7556 12.0294 29.3491 12.6301 31.7253 13.752C33.8837 14.7552 35.9095 16.0221 37.7497 17.5183C39.7763 19.1276 41.6226 20.9518 43.2632 22.9679C43.6213 23.4219 43.6213 24.0623 43.2561 24.5252C41.6226 26.5324 39.7763 28.3566 37.7564 29.9605C35.9095 31.4621 33.8837 32.729 31.7293 33.7303C29.3491 34.8541 26.7556 35.4549 24.1025 35.492C21.4705 35.4549 18.8771 34.8541 16.5009 33.7323C14.3424 32.729 12.3166 31.4621 10.4765 29.966C8.44989 28.3566 6.60365 26.5324 4.96306 24.5163C4.60489 24.0623 4.60489 23.4219 4.97016 22.959C6.60364 20.9518 8.44989 19.1276 10.4698 17.5237C12.3166 16.0221 14.3424 14.7552 16.4968 13.7539C18.8771 12.6301 21.4705 12.0294 24.1025 11.9922ZM24.1118 13.4917L23.6407 13.5058C21.3892 13.6019 19.1777 14.1469 17.1331 15.1122C15.0871 16.0632 13.1668 17.2642 11.4093 18.693C9.46757 20.2349 7.69865 21.9827 6.14069 23.897L6.26881 23.7417L6.6092 24.15C7.89368 25.6603 9.30706 27.0568 10.8369 28.3265L11.4161 28.7967C13.1668 30.22 15.0871 31.421 17.1372 32.3739C19.3237 33.4062 21.706 33.958 24.1025 33.9922C26.5202 33.958 28.9025 33.4062 31.093 32.372C33.1391 31.421 35.0594 30.22 36.8169 28.7913C38.7587 27.2494 40.5276 25.5015 42.0855 23.5872L41.9558 23.7417L41.617 23.3342C40.3326 21.8239 38.9192 20.4275 37.3893 19.1577L36.8102 18.6875C35.0594 17.2642 33.1391 16.0632 31.0889 15.1103C28.9025 14.078 26.5202 13.5262 24.1025 13.492L24.1118 13.4917Z"
        fill="currentColor" />
    <path fill-rule="evenodd" clip-rule="evenodd"
        d="M18.4902 23.74C18.4902 20.6346 21.0076 18.1172 24.113 18.1172C27.2184 18.1172 29.7358 20.6346 29.7358 23.74C29.7358 26.8453 27.2184 29.3627 24.113 29.3627C21.0076 29.3627 18.4902 26.8453 18.4902 23.74ZM28.2358 23.74C28.2358 21.463 26.39 19.6172 24.113 19.6172C21.8361 19.6172 19.9902 21.463 19.9902 23.74C19.9902 26.0169 21.8361 27.8627 24.113 27.8627C26.39 27.8627 28.2358 26.0169 28.2358 23.74Z"
        fill="currentColor" />
    <path d="M6 35L42 13" stroke="currentColor" stroke-width="1.5" stroke-linecap="round" />
</svg>