<?xml version="1.0" encoding="UTF-8"?>
<svg width="48px" height="48px" viewBox="0 0 48 48" version="1.1" xmlns="http://www.w3.org/2000/svg" xmlns:xlink="http://www.w3.org/1999/xlink">
    <title>Actions / 03 L / 04-inbox-no-results-l</title>
    <g id="Actions-/-03-L-/-04-inbox-no-results-l" stroke="none" stroke-width="1" fill="none" fill-rule="evenodd">
        <path d="M33.96,10.25 C34.6563088,10.25 35.2996983,10.6029524 35.6761851,11.1803427 L35.7582314,11.3175122 L39.6582314,18.4585122 L39.6751877,18.4904594 C39.682876,18.5062717 39.690025,18.5223945 39.6966107,18.5388042 L39.6582314,18.4585122 C39.6815109,18.5011376 39.7001739,18.5445624 39.7144852,18.5883402 C39.7190331,18.6024616 39.7233057,18.6172784 39.7271265,18.6322758 C39.7326341,18.6525424 39.736944,18.6725721 39.7403978,18.6926018 C39.7411111,18.6999708 39.7423477,18.7080793 39.7434534,18.7162294 L39.7454365,18.7265445 C39.7484432,18.7506736 39.7502263,18.7747683 39.7508292,18.7987551 L39.7503,18.818 L39.7509687,23.5335353 C42.2853477,24.9414127 44.0003,27.6455428 44.0003,30.7504 C44.0003,35.3069213 40.3068213,39.0004 35.7503,39.0004 C32.9950702,39.0004 30.5553997,37.6499315 29.0570758,35.5747817 C28.953146,35.6641958 28.8230955,35.7237775 28.6802706,35.7431534 L28.5785,35.75 L11.4015,35.75 C9.7212938,35.75 8.34818733,34.4348317 8.25548819,32.7778026 L8.2505,32.599 L8.24980333,18.8532455 C8.24606143,18.7760965 8.25439225,18.6972287 8.27628397,18.6191508 C8.27824624,18.6151255 8.27950867,18.6106753 8.28081095,18.6062422 C8.28530563,18.5886547 8.29126677,18.571138 8.29793699,18.553697 L8.30779933,18.529973 C8.31063859,18.5231524 8.31357564,18.5163828 8.31660875,18.5096658 L8.34178982,18.4588734 L12.2415783,11.3192609 C12.575316,10.7074085 13.1945537,10.3102336 13.8821975,10.256616 L14.042,10.2504 L33.96,10.25 Z M35.7503,24.0004 C32.0222059,24.0004 29.0003,27.0223059 29.0003,30.7504 C29.0003,34.4784941 32.0222059,37.5004 35.7503,37.5004 C39.4783941,37.5004 42.5003,34.4784941 42.5003,30.7504 C42.5003,27.0223059 39.4783941,24.0004 35.7503,24.0004 Z M38.2499389,19.567 L31.1838513,19.5674888 C30.8303935,21.9046482 28.8502108,23.7242173 26.441816,23.8277478 L26.225,23.8324 L21.908,23.8324 C19.403051,23.8324 17.3141226,21.9752795 16.9494008,19.5691542 L9.74993895,19.568 L9.7505,32.599 C9.7505,33.4627977 10.4139493,34.17171 11.2590505,34.2439396 L11.4015,34.25 L28.277245,34.2502862 C27.7788188,33.1878122 27.5003,32.0016464 27.5003,30.7504 C27.5003,26.1938787 31.1937787,22.5004 35.7503,22.5004 C36.6221041,22.5004 37.4623143,22.6356093 38.2511057,22.8862031 L38.2499389,19.567 Z M33.6965117,27.6474518 L33.7806301,27.7200699 L35.7499389,29.69 L37.7199699,27.7200699 C38.0128631,27.4271767 38.4877369,27.4271767 38.7806301,27.7200699 C39.0468966,27.9863365 39.0711027,28.4030002 38.8532482,28.6966117 L38.7806301,28.7807301 L36.8099389,30.75 L38.7806301,32.7200699 C39.0735233,33.0129631 39.0735233,33.4878369 38.7806301,33.7807301 C38.5143635,34.0469966 38.0976998,34.0712027 37.8040883,33.8533482 L37.7199699,33.7807301 L35.7499389,31.81 L33.7806301,33.7807301 C33.4877369,34.0736233 33.0128631,34.0736233 32.7199699,33.7807301 C32.4537034,33.5144635 32.4294973,33.0977998 32.6473518,32.8041883 L32.7199699,32.7200699 L34.6899389,30.75 L32.7199699,28.7807301 C32.4270767,28.4878369 32.4270767,28.0129631 32.7199699,27.7200699 C32.9862365,27.4538034 33.4029002,27.4295973 33.6965117,27.6474518 Z M33.96,11.75 L29.6139389,11.749 L29.6,11.7504 L14.042,11.7504 C13.8692366,11.7504 13.7083047,11.8312885 13.6049044,11.9661328 L13.5582102,12.0379266 L10.264,18.068 L17.643,18.0684 L17.643,18.0684 C18.0572136,18.0684 18.393,18.4041864 18.393,18.8184 C18.393,20.6849506 19.8725448,22.2264745 21.716041,22.3271688 L21.908,22.3324 L26.225,22.3324 C28.1566584,22.3324 29.74,20.7493144 29.74,18.8184 C29.74,18.7753417 29.7436285,18.7331309 29.7505964,18.6920567 C29.804939,18.3706613 30.0635836,18.1188886 30.3882294,18.0748466 L30.49,18.068 L37.735,18.067 L34.4419405,12.0368023 C34.3588491,11.8848325 34.2116614,11.7826705 34.0448406,11.7565827 L33.96,11.75 Z" id="Combined-Shape" fill="currentColor" fill-rule="nonzero"></path>
    </g>
</svg>