<svg xmlns="http://www.w3.org/2000/svg" width="48" height="48" viewBox="0 0 48 48">
    <g fill="none" fill-rule="evenodd">
        <g fill="currentColor" fill-rule="nonzero">
            <g>
                <g>
                    <path d="M24 8.2c8.6.1 15.7 7.1 15.7 15.8 0 4-1.5 7.6-4 10.4l3.8 3.8c.3.3.3.8.1 1.1-.3.3-.8.3-1.1 0l-3.8-3.8c-2.8 2.7-6.5 4.3-10.7 4.3-8.7-.1-15.8-7.1-15.8-15.8 0-8.7 7.1-15.7 15.8-15.8zm0 1.6c-4 0-7.5 1.5-10.1 4.2-2.6 2.6-4.2 6.2-4.2 10.1 0 4 1.6 7.5 4.2 10.1 2.6 2.6 6.2 4.2 10.1 4.2 4 0 7.5-1.6 10.1-4.2 2.6-2.6 4.2-6.2 4.2-10.1 0-4-1.6-7.5-4.2-10.1-2.6-2.6-6.2-4.2-10.1-4.2zm5.9 7.1c.3-.3.8-.3 1.1 0 .3.3.3.8 0 1.1l-5.9 6 5.9 5.8c.3.3.3.8 0 1.1-.3.3-.8.3-1.1 0L24 25l-5.9 5.9c-.3.3-.8.3-1.1 0-.2-.3-.2-.7 0-1l6-5.9-6-5.9c-.3-.3-.3-.8 0-1.1.3-.3.8-.3 1.1 0l5.9 5.9z" transform="translate(-2015 -810) translate(1931 810) translate(84)"/>
                </g>
            </g>
        </g>
    </g>
</svg>
