<?xml version="1.0" encoding="UTF-8"?>
<svg width="48px" height="48px" viewBox="0 0 48 48" version="1.1" xmlns="http://www.w3.org/2000/svg" xmlns:xlink="http://www.w3.org/1999/xlink">
    <title>Information / 03 L / 01-info-l</title>
    <g id="Information-/-03-L-/-01-info-l" stroke="none" stroke-width="1" fill="none" fill-rule="evenodd">
        <path d="M23.75,7.0001 C14.4995198,7.0001 7,14.4996198 7,23.7501 C7,33.0005802 14.4995198,40.5001 23.75,40.5001 C33.0004802,40.5001 40.5,33.0005802 40.5,23.7501 C40.5,14.4996198 33.0004802,7.0001 23.75,7.0001 Z M23.75,8.5001 C32.1720531,8.5001 39,15.3280469 39,23.7501 C39,32.1721531 32.1720531,39.0001 23.75,39.0001 C15.3279469,39.0001 8.5,32.1721531 8.5,23.7501 C8.5,15.3280469 15.3279469,8.5001 23.75,8.5001 Z M23.75,21.4636 C24.1296958,21.4636 24.443491,21.7457539 24.4931534,22.1118294 L24.5,22.2136 L24.5,29.9766 C24.5,30.3908136 24.1642136,30.7266 23.75,30.7266 C23.3703042,30.7266 23.056509,30.4444461 23.0068466,30.0783706 L23,29.9766 L23,22.2136 C23,21.7993864 23.3357864,21.4636 23.75,21.4636 Z M23.75,16.7161 C24.1296958,16.7161 24.443491,16.9982539 24.4931534,17.3643294 L24.5,17.4661 L24.5,18.6251 C24.5,19.0393136 24.1642136,19.3751 23.75,19.3751 C23.3703042,19.3751 23.056509,19.0929461 23.0068466,18.7268706 L23,18.6251 L23,17.4661 C23,17.0518864 23.3357864,16.7161 23.75,16.7161 Z" id="Combined-Shape" fill="currentColor" fill-rule="nonzero"></path>
    </g>
</svg>