<?xml version="1.0" encoding="UTF-8"?>
<svg width="48px" height="48px" viewBox="0 0 48 48" version="1.1" xmlns="http://www.w3.org/2000/svg" xmlns:xlink="http://www.w3.org/1999/xlink">
    <!-- Generator: Sketch 64 (93537) - https://sketch.com -->
    <title>Maps / 03 L / 01-location-l</title>
    <desc>Created with Sketch.</desc>
    <g id="Maps-/-03-L-/-01-location-l" stroke="none" stroke-width="1" fill="none" fill-rule="evenodd">
        <g id="Group" transform="translate(10.000000, 6.000000)" fill-rule="nonzero" stroke="currentColor" stroke-width="1.5">
            <path d="M13.0560608,35.6542944 C13.1272613,35.7046084 13.2028252,35.7482423 13.281818,35.7846565 C13.3323825,35.8182684 13.3849628,35.8486479 13.4392528,35.875618 C13.6159943,35.9539656 13.8062053,35.99623 13.9990344,36 L14,36 L14.0009656,36 C14.1937947,35.99623 14.3840057,35.9539656 14.5607472,35.875618 C14.6150372,35.8486479 14.6676175,35.8182684 14.718182,35.7846565 C14.7971748,35.7482423 14.8727387,35.7046084 14.9439392,35.6542944 C15.4770185,35.2060471 27.9994656,24.5447337 27.9994656,14.3326477 C28.0433257,9.22702032 25.3846766,4.49006289 21.0352044,1.92431267 C16.6857321,-0.641437556 11.3142679,-0.641437556 6.96479565,1.92431267 C2.61532338,4.49006289 -0.0433257378,9.22702032 0.000534410275,14.3326477 C0.000534410275,24.5447337 12.5229815,35.2059871 13.0560608,35.6542944 Z" id="Path"></path>
            <path d="M20,14 C20,10.6862915 17.3137085,8 14,8 C10.6862915,8 8,10.6862915 8,14 C8,17.3137085 10.6862915,20 14,20 C17.3121227,19.9961748 19.9961748,17.3121227 20,14 L20,14 Z" id="Path"></path>
        </g>
    </g>
</svg>