<?xml version="1.0" encoding="UTF-8"?>
<svg width="48px" height="48px" viewBox="0 0 48 48" version="1.1" xmlns="http://www.w3.org/2000/svg" xmlns:xlink="http://www.w3.org/1999/xlink">
    <!-- Generator: Sketch 64 (93537) - https://sketch.com -->
    <title>Devices / 03 L / 01-mobile-click-l</title>
    <desc>Created with Sketch.</desc>
    <g id="Devices-/-03-L-/-01-mobile-click-l" stroke="none" stroke-width="1" fill="none" fill-rule="evenodd">
        <g id="Group" transform="translate(12.000000, 7.000000)">
            <path d="M2,0 L22,0 C23.1045695,-2.02906125e-16 24,0.8954305 24,2 L24,32 C24,33.1045695 23.1045695,34 22,34 L2,34 C0.8954305,34 1.3527075e-16,33.1045695 0,32 L0,2 C-1.3527075e-16,0.8954305 0.8954305,2.02906125e-16 2,0 Z" id="Rectangle" stroke="currentColor" stroke-width="1.5" stroke-linecap="round" stroke-linejoin="round"></path>
            <line x1="15.2824" y1="4.75" x2="7.86315" y2="4.75" id="Path" stroke="currentColor" stroke-width="1.5" stroke-linecap="round" stroke-linejoin="round"></line>
            <path d="M3.75,5.5 C4.16421356,5.5 4.5,5.16421356 4.5,4.75 C4.5,4.33578644 4.16421356,4 3.75,4 C3.33578644,4 3,4.33578644 3,4.75 C3,5.16421356 3.33578644,5.5 3.75,5.5 Z" id="Oval" fill="currentColor" fill-rule="nonzero"></path>
            <path d="M18.148,18.818 L9.30323,11.76718 C9.21855233,11.6996749 9.10269323,11.6866355 9.00512914,11.7336301 C8.90756506,11.7806248 8.84554,11.8793476 8.84554,11.98764 L8.84554,23.50754 C8.84554,23.6273857 8.92141902,23.7340966 9.03456355,23.7736102 C9.14770808,23.8131238 9.27346795,23.7768075 9.34813,23.68306 L11.90393,20.47034 L13.8574,24.37747 C13.9276877,24.5180558 14.0509449,24.6249614 14.2000555,24.6746681 C14.3491662,24.7243747 14.5119157,24.7128107 14.6525,24.64252 L15.95336,23.99209 C16.2460905,23.8457051 16.3647334,23.4897363 16.21836,23.197 L14.28017,19.32045 L17.97217,19.32045 C18.0919992,19.3204384 18.1987352,19.2446995 18.2383153,19.1315958 C18.2778954,19.0184922 18.241675,18.8927264 18.148,18.818 L18.148,18.818 Z" id="Path" stroke="currentColor" stroke-width="1.5" stroke-linecap="round" stroke-linejoin="round"></path>
        </g>
    </g>
</svg>