<?xml version="1.0" encoding="UTF-8"?>
<svg width="48px" height="48px" viewBox="0 0 48 48" version="1.1" xmlns="http://www.w3.org/2000/svg" xmlns:xlink="http://www.w3.org/1999/xlink">
    <!-- Generator: Sketch 64 (93537) - https://sketch.com -->
    <title>Devices / 03 L / 04-mobile-block-l</title>
    <desc>Created with Sketch.</desc>
    <g id="Devices-/-03-L-/-04-mobile-block-l" stroke="none" stroke-width="1" fill="none" fill-rule="evenodd">
        <g id="Group" transform="translate(12.000000, 7.000000)">
            <path d="M2,0 L22,0 C23.1045695,-2.02906125e-16 24,0.8954305 24,2 L24,32 C24,33.1045695 23.1045695,34 22,34 L2,34 C0.8954305,34 1.3527075e-16,33.1045695 0,32 L0,2 C-1.3527075e-16,0.8954305 0.8954305,2.02906125e-16 2,0 Z" id="Rectangle" stroke="currentColor" stroke-width="1.5" stroke-linecap="round" stroke-linejoin="round"></path>
            <line x1="15.2824" y1="4.75" x2="7.86315" y2="4.75" id="Path" stroke="currentColor" stroke-width="1.5" stroke-linecap="round" stroke-linejoin="round"></line>
            <path d="M3.75,5.5 C4.16421356,5.5 4.5,5.16421356 4.5,4.75 C4.5,4.33578644 4.16421356,4 3.75,4 C3.33578644,4 3,4.33578644 3,4.75 C3,5.16421356 3.33578644,5.5 3.75,5.5 Z" id="Oval" fill="currentColor" fill-rule="nonzero"></path>
            <circle id="Oval" stroke="currentColor" stroke-width="1.5" stroke-linecap="round" stroke-linejoin="round" cx="12" cy="19" r="6.5"></circle>
            <line x1="5.82316" y1="25.17684" x2="18.17684" y2="12.82316" id="Path" stroke="currentColor" stroke-width="1.5" stroke-linecap="round" stroke-linejoin="round"></line>
        </g>
    </g>
</svg>