<?xml version="1.0" encoding="UTF-8"?>
<svg width="32px" height="26px" viewBox="0 0 32 26" version="1.1" xmlns="http://www.w3.org/2000/svg"
    xmlns:xlink="http://www.w3.org/1999/xlink">
    <title>Artboard</title>
    <g id="Artboard" stroke="none" stroke-width="1" fill-rule="evenodd" fill="currentColor">
        <path
            d="M28.349,24 L20.328,24 L11.172,24 L3.152,24 C2.242,24 1.5,23.26 1.5,22.349 L1.5,9.318 L8.719,9.318 C9.084,11.726 11.15,13.583 13.658,13.583 L17.975,13.583 C20.483,13.583 22.548,11.726 22.913,9.318 L30,9.318 L30,22.349 C30,23.26 29.259,24 28.349,24 L28.349,24 Z M5.308,1.788 C5.405,1.611 5.59,1.5 5.791,1.5 L21.35,1.5 C21.351,1.5 21.352,1.5 21.352,1.5 L25.709,1.5 C25.911,1.5 26.095,1.61 26.192,1.786 L29.486,7.818 L22.24,7.818 C21.826,7.818 21.49,8.154 21.49,8.568 C21.49,10.506 19.912,12.083 17.975,12.083 L13.658,12.083 C11.72,12.083 10.143,10.506 10.143,8.568 C10.143,8.154 9.807,7.818 9.393,7.818 L2.014,7.818 L5.308,1.788 Z M31.414,8.236 C31.41,8.228 31.412,8.217 31.408,8.209 L27.508,1.066 C27.147,0.409 26.458,0 25.709,0 L21.35,0 C21.349,0 21.348,0 21.348,0 L5.791,0 C5.041,0 4.352,0.41 3.992,1.069 L0.091,8.209 C0.086,8.219 0.088,8.23 0.083,8.24 C0.034,8.34 0,8.449 0,8.568 L0,8.578 L0,8.585 L0,22.349 C0,24.086 1.414,25.5 3.152,25.5 L11.172,25.5 L20.328,25.5 L28.349,25.5 C30.086,25.5 31.5,24.086 31.5,22.349 L31.5,8.568 C31.5,8.447 31.465,8.337 31.414,8.236 L31.414,8.236 Z"
        ></path>
    </g>
</svg>