<?xml version="1.0" encoding="UTF-8"?>
<svg width="48px" height="48px" viewBox="0 0 48 48" version="1.1" xmlns="http://www.w3.org/2000/svg" xmlns:xlink="http://www.w3.org/1999/xlink">
    <title>Security / 03 L / 01-no-permission-l</title>
    <g id="Security-/-03-L-/-01-no-permission-l" stroke="none" stroke-width="1" fill="none" fill-rule="evenodd">
        <path d="M23.9074,8.25 C26.9678884,8.25 29.46291,10.6731674 29.5773023,13.7054006 L29.5814,13.923 L29.5814,17.568 C29.5814,17.60604 29.578568,17.6434186 29.5731033,17.6799364 L34,17.6796 C35.518501,17.6796 36.75,18.9106737 36.75,20.4296 L36.75,20.4296 L36.75,36.8776 C36.75,38.3965263 35.518501,39.6276 34,39.6276 L34,39.6276 L14,39.6276 C12.481499,39.6276 11.25,38.3965263 11.25,36.8776 L11.25,36.8776 L11.25,20.4296 C11.25,18.9106737 12.481499,17.6796 14,17.6796 L14,17.6796 L18.2416967,17.6799364 C18.2411907,17.6765551 18.2407073,17.6731664 18.2402466,17.6697706 L18.2334,17.568 L18.2334,13.923 C18.2334,10.7896083 20.7733646,8.25 23.9074,8.25 Z M34,19.1796 L14,19.1796 C13.3098102,19.1796 12.75,19.7392169 12.75,20.4296 L12.75,20.4296 L12.75,36.8776 C12.75,37.5679831 13.3098102,38.1276 14,38.1276 L14,38.1276 L34,38.1276 C34.6901898,38.1276 35.25,37.5679831 35.25,36.8776 L35.25,36.8776 L35.25,20.4296 C35.25,19.7392169 34.6901898,19.1796 34,19.1796 L34,19.1796 Z M24.161922,23.575 C25.957406,23.575 27.4125,25.0296292 27.4125,26.824422 C27.4125,28.3613193 26.3455819,29.6494994 24.9117508,29.988082 L24.9119,33.3791 C24.9119,33.7933136 24.5761136,34.1291 24.1619,34.1291 C23.7822042,34.1291 23.468409,33.8469461 23.4187466,33.4808706 L23.4119,33.3791 L23.4114433,29.9878316 C21.9787481,29.6488389 20.9125,28.3607605 20.9125,26.824422 C20.9125,25.0298616 22.3673616,23.575 24.161922,23.575 Z M24.161922,25.075 C23.1957887,25.075 22.4125,25.8582887 22.4125,26.824422 C22.4125,27.7908829 23.1961164,28.575 24.161922,28.575 C25.1287585,28.575 25.9125,27.7910082 25.9125,26.824422 C25.9125,25.8581636 25.1290861,25.075 24.161922,25.075 Z M23.9074,9.75 C21.671613,9.75 19.8470346,11.5065808 19.7385071,13.7147053 L19.7334,13.923 L19.7334,17.568 C19.7334,17.60604 19.730568,17.6434186 19.7251033,17.6799364 L28.0896967,17.6799364 C28.0891907,17.6765551 28.0887073,17.6731664 28.0882466,17.6697706 L28.0814,17.568 L28.0814,13.923 C28.0814,11.6184514 26.2124243,9.75 23.9074,9.75 Z" id="Combined-Shape" fill="currentColor" fill-rule="nonzero"></path>
    </g>
</svg>