<?xml version="1.0" encoding="UTF-8"?>
<svg width="48px" height="48px" viewBox="0 0 48 48" version="1.1" xmlns="http://www.w3.org/2000/svg" xmlns:xlink="http://www.w3.org/1999/xlink">
    <!-- Generator: Sketch 64 (93537) - https://sketch.com -->
    <title>Edit / 03 L / 16-quote-l</title>
    <desc>Created with Sketch.</desc>
    <g id="Edit-/-03-L-/-16-quote-l" stroke="none" stroke-width="1" fill="none" fill-rule="evenodd">
        <g id="Group" transform="translate(8.000000, 12.000000)" stroke="currentColor" stroke-width="1.5">
            <path d="M2,0 L11,0 C12.1045695,-2.02906125e-16 13,0.8954305 13,2 L13,13 L13,13 L2,13 C0.8954305,13 1.3527075e-16,12.1045695 0,11 L0,2 C-1.3527075e-16,0.8954305 0.8954305,2.02906125e-16 2,0 Z" id="Rectangle"></path>
            <path d="M21,0 L30,0 C31.1045695,-2.02906125e-16 32,0.8954305 32,2 L32,13 L32,13 L21,13 C19.8954305,13 19,12.1045695 19,11 L19,2 C19,0.8954305 19.8954305,2.02906125e-16 21,0 Z" id="Rectangle-Copy"></path>
            <path d="M13,8 L13,16 C13,19.3137085 10.3137085,22 7,22 L2,22 L2,22" id="Path-16" stroke-linecap="round"></path>
            <path d="M31.9727667,8 L31.9727667,16 C31.9727667,19.3137085 29.2864752,22 25.9727667,22 L20.9727667,22 L20.9727667,22" id="Path-16-Copy" stroke-linecap="round"></path>
        </g>
    </g>
</svg>