<?xml version="1.0" encoding="utf-8"?>
<!-- Generator: Adobe Illustrator 24.2.3, SVG Export Plug-In . SVG Version: 6.00 Build 0)  -->
<svg version="1.1" id="Warstwa_1" xmlns="http://www.w3.org/2000/svg" xmlns:xlink="http://www.w3.org/1999/xlink" x="0px" y="0px"
	 viewBox="0 0 48 48" style="enable-background:new 0 0 48 48;" xml:space="preserve">
<style type="text/css">
	.st0{fill:none;stroke-width:1.5;stroke-linecap:round;stroke-linejoin:round;}
	.st1{fill:none;stroke-width:1.5;}
</style>
<g stroke="currentColor">
	<path class="st0" d="M11.5,26.5c1.4,0,2.5-1.1,2.5-2.5c0-1.4-1.1-2.5-2.5-2.5C10.1,21.5,9,22.6,9,24
		C9,25.4,10.1,26.5,11.5,26.5z M11.5,13.5c1.4,0,2.5-1.1,2.5-2.5c0-1.4-1.1-2.5-2.5-2.5C10.1,8.5,9,9.6,9,11
		C9,12.4,10.1,13.5,11.5,13.5z M13.9,12.2L34,22.7 M11.5,34.5c1.4,0,2.5,1.1,2.5,2.5c0,1.4-1.1,2.5-2.5,2.5
		C10.1,39.5,9,38.4,9,37C9,35.6,10.1,34.5,11.5,34.5z M36.5,26.5c1.4,0,2.5-1.1,2.5-2.5c0-1.4-1.1-2.5-2.5-2.5
		c-1.4,0-2.5,1.1-2.5,2.5C34,25.4,35.1,26.5,36.5,26.5z M34,25.3L13.8,35.8"/>
	<path class="st1" d="M14,24h20"/>
</g>
</svg>
