<?xml version="1.0" encoding="UTF-8"?>
<svg width="48px" height="48px" viewBox="0 0 48 48" version="1.1" xmlns="http://www.w3.org/2000/svg" xmlns:xlink="http://www.w3.org/1999/xlink">
    <title>Actions / 03 L / 03-search-no-results-l</title>
    <g id="Actions-/-03-L-/-03-search-no-results-l" stroke="none" stroke-width="1" fill="none" fill-rule="evenodd">
        <path d="M22.5,8.25 C30.3698136,8.25 36.75,14.6301864 36.75,22.5 C36.75,25.7008393 35.6945632,28.6552583 33.9127359,31.0342109 C33.9295243,31.0413787 33.9448793,31.051898 33.9599117,31.0630518 L34.0440301,31.1356699 L39.1370301,36.2286699 C40.1538623,37.2455022 40.1538623,38.9060936 39.1370301,39.9243301 C38.1633931,40.8979671 36.6014715,40.9402991 35.5766793,40.0513262 L35.4403699,39.9243301 L30.3483699,34.8323301 C30.2571538,34.741114 30.1943453,34.6322478 30.1599443,34.516725 C27.9496446,35.9304909 25.3204906,36.75 22.5,36.75 C14.6301864,36.75 8.25,30.3698136 8.25,22.5 C8.25,14.6301864 14.6301864,8.25 22.5,8.25 Z M32.9641848,32.1727251 C32.4561684,32.7220393 31.9054407,33.2312745 31.3172787,33.6951538 C31.3197849,33.6952731 31.3223529,33.6971532 31.3249117,33.6990518 L31.4090301,33.7716699 L36.5010301,38.8636699 C36.9331369,39.2957767 37.6442631,39.2957767 38.076004,38.864036 C38.4767138,38.4627728 38.505336,37.8207027 38.1621634,37.3858087 L38.0763699,37.2893301 L32.9833699,32.1963301 Z M22.5,9.75 C15.4586136,9.75 9.75,15.4586136 9.75,22.5 C9.75,29.5413864 15.4586136,35.25 22.5,35.25 C29.5413864,35.25 35.25,29.5413864 35.25,22.5 C35.25,15.4586136 29.5413864,9.75 22.5,9.75 Z M18.5943588,17.5835988 L18.6964117,17.6472518 L18.7805301,17.7198699 L22.75,21.689 L26.7198699,17.7198699 C27.0127631,17.4269767 27.4876369,17.4269767 27.7805301,17.7198699 C28.0467966,17.9861365 28.0710027,18.4028002 27.8531482,18.6964117 L27.7805301,18.7805301 L23.811,22.75 L27.7805301,26.7198699 C28.0734233,27.0127631 28.0734233,27.4876369 27.7805301,27.7805301 C27.5142635,28.0467966 27.0975998,28.0710027 26.8039883,27.8531482 L26.7198699,27.7805301 L22.75,23.811 L18.7805301,27.7805301 C18.4876369,28.0734233 18.0127631,28.0734233 17.7198699,27.7805301 C17.4536034,27.5142635 17.4293973,27.0975998 17.6472518,26.8039883 L17.7198699,26.7198699 L21.689,22.75 L17.7198699,18.7805301 C17.4269767,18.4876369 17.4269767,18.0127631 17.7198699,17.7198699 C17.9565513,17.4831885 18.312065,17.4377648 18.5943588,17.5835988 Z" id="Combined-Shape" fill="currentColor" fill-rule="nonzero"></path>
    </g>
</svg>