<?xml version="1.0" encoding="UTF-8"?>
<svg width="48px" height="48px" viewBox="0 0 48 48" version="1.1" xmlns="http://www.w3.org/2000/svg" xmlns:xlink="http://www.w3.org/1999/xlink">
    <!-- Generator: Sketch 64 (93537) - https://sketch.com -->
    <title>Edit / 03 L / 19-select-l</title>
    <desc>Created with Sketch.</desc>
    <g id="Edit-/-03-L-/-19-select-l" stroke="none" stroke-width="1" fill="none" fill-rule="evenodd">
        <path d="M32,26.38 C31.8020028,26.3756915 31.6128457,26.2971735 31.47,26.16 L28.22,22.91 C27.9317099,22.6115888 27.9317099,22.1384112 28.22,21.84 C28.5128175,21.5475466 28.9871824,21.5475466 29.28,21.84 L32,24.56 L34.72,21.84 C35.0128176,21.5475466 35.4871825,21.5475466 35.78,21.84 C36.0682901,22.1384112 36.0682901,22.6115888 35.78,22.91 L32.53,26.16 C32.3871543,26.2971735 32.1979972,26.3756915 32,26.38 L32,26.38 Z" id="Path" fill="currentColor" fill-rule="nonzero"></path>
        <path d="M34,28.74027 L34,39 C34,40.1045695 33.1045695,41 32,41 L16,41 C14.8954305,41 14,40.1045695 14,39 L14,9 C14,7.8954305 14.8954305,7 16,7 L32,7 C33.1045695,7 34,7.8954305 34,9 L34,19.25973 L34,28.74027 Z" id="Path" stroke="currentColor" stroke-width="1.5" stroke-linecap="round" stroke-linejoin="round" transform="translate(24.000000, 24.000000) rotate(-270.000000) translate(-24.000000, -24.000000) "></path>
    </g>
</svg>