<?xml version="1.0" encoding="UTF-8"?>
<svg width="48px" height="48px" viewBox="0 0 48 48" version="1.1" xmlns="http://www.w3.org/2000/svg" xmlns:xlink="http://www.w3.org/1999/xlink">
    <title>Actions / 03 L / 07-show-l</title>
    <g id="Actions-/-03-L-/-07-show-l" stroke="none" stroke-width="1" fill="none" fill-rule="evenodd">
        <g id="Group" transform="translate(4.695504, 11.993500)" fill="currentColor" fill-rule="nonzero">
            <path d="M19.4283542,0 L19.4071687,0 C16.7752091,0.03718047 14.1817706,0.637896034 11.8015029,1.7616928 C9.64713237,2.76305457 7.62133495,4.0299447 5.77449891,5.53149103 C3.75457831,7.13538421 1.90833238,8.95963271 0.274849484,10.9668577 C-0.0904239413,11.4297174 -0.0904239413,12.0701268 0.26774647,12.524122 C1.90833446,14.54021 3.75457983,16.3644579 5.78123689,17.9737672 C7.62133622,19.469899 9.64713276,20.7367907 11.8055776,21.7400665 C14.1817706,22.8619544 16.7752091,23.4626699 19.4071687,23.4998504 C22.0603162,23.4626778 24.6537577,22.8619615 27.0340242,21.7381567 C29.1884126,20.7367942 31.2142338,19.4699031 33.0610965,17.9683565 C35.0810197,16.3644579 36.927265,14.54021 38.5607495,12.5329871 C38.9260234,12.0701268 38.9260234,11.4297174 38.567853,10.9757222 C36.9272671,8.95963271 35.0810212,7.13538421 33.054362,5.52607653 C31.2142351,4.02994052 29.188413,2.763051 27.0299428,1.75978174 C24.6537577,0.637888941 22.0603162,0.0371726653 19.4283542,0 Z M18.9453391,1.51357268 L19.4164959,1.49950021 L19.4071709,1.49985042 C21.8248473,1.53399661 24.2071395,2.08580456 26.3936126,3.11811291 C28.4437845,4.07105943 30.3641331,5.27198894 32.1148389,6.69535904 L32.6939784,7.16554307 C34.2238538,8.43527476 35.6372382,9.83172962 36.9217104,11.341998 L37.2604959,11.7495002 L37.3902175,11.5950502 C35.8322562,13.509334 34.0633421,15.257172 32.1215731,16.7990742 C30.3641315,18.2278551 28.4437826,19.4287868 26.3976926,20.3798262 C24.2071395,21.4140459 21.8248473,21.9658538 19.4071709,22 C17.0106794,21.9658467 14.6283873,21.4140387 12.4419105,20.3817366 C10.3917699,19.4287873 8.47144598,18.227856 6.72076408,16.804488 L6.1416241,16.3343027 C4.61174761,15.0645681 3.19836286,13.6681129 1.91388919,12.1578453 L1.57349587,11.7495002 L1.44538202,11.904794 C3.00334165,9.99050836 4.77225551,8.24267054 6.71402581,6.7007705 C8.47144436,5.27198812 10.391768,4.071059 12.4378344,3.12002335 C14.4823504,2.15475914 16.6938926,1.60972216 18.9453391,1.51357268 Z" id="Path"></path>
            <path d="M19.4177997,6.1271498 C16.3124283,6.1271498 13.7950274,8.64455071 13.7950274,11.7499221 C13.7950274,14.8552935 16.3124283,17.3726944 19.4177997,17.3726944 C22.5231711,17.3726944 25.0405721,14.8552935 25.0405721,11.7499221 C25.0405721,8.64455071 22.5231711,6.1271498 19.4177997,6.1271498 Z M19.4177997,7.6271498 C21.694744,7.6271498 23.5405721,9.47297784 23.5405721,11.7499221 C23.5405721,14.0268664 21.694744,15.8726944 19.4177997,15.8726944 C17.1408555,15.8726944 15.2950274,14.0268664 15.2950274,11.7499221 C15.2950274,9.47297784 17.1408555,7.6271498 19.4177997,7.6271498 Z" id="Oval"></path>
        </g>
        <rect id="Bg"  opacity="0" x="0" y="0" width="48" height="48"></rect>
    </g>
</svg>