<?xml version="1.0" encoding="UTF-8"?>
<svg width="48px" height="48px" viewBox="0 0 48 48" version="1.1" xmlns="http://www.w3.org/2000/svg" xmlns:xlink="http://www.w3.org/1999/xlink">
    <!-- Generator: Sketch 64 (93537) - https://sketch.com -->
    <title>Actions / 03 L / 01-spinner-l</title>
    <desc>Created with Sketch.</desc>
    <g id="Actions-/-03-L-/-01-spinner-l" stroke="none" stroke-width="1" fill="none" fill-rule="evenodd">
        <path d="M24,8.24999997 C32.6984848,8.24999997 39.75,15.3015152 39.75,24 C39.75,32.6984848 32.6984848,39.75 24,39.75 C15.3015152,39.75 8.24999997,32.6984848 8.24999997,24 C8.24999997,23.5857864 8.58578641,23.25 8.99999997,23.25 C9.41421353,23.25 9.74999997,23.5857864 9.74999997,24 C9.74999997,31.8700577 16.1299423,38.25 24,38.25 C31.8700577,38.25 38.25,31.8700577 38.25,24 C38.25,16.1299423 31.8700577,9.74999997 24,9.74999997 C23.5857864,9.74999997 23.25,9.41421353 23.25,8.99999997 C23.25,8.58578641 23.5857864,8.24999997 24,8.24999997 Z" id="Path" fill="currentColor" fill-rule="nonzero"></path>
    </g>
</svg>