<?xml version="1.0" encoding="UTF-8"?>
<svg width="48px" height="48px" viewBox="0 0 48 48" version="1.1" xmlns="http://www.w3.org/2000/svg" xmlns:xlink="http://www.w3.org/1999/xlink">
    <!-- Generator: Sketch 64 (93537) - https://sketch.com -->
    <title>Analytics / 03 L / 02-stacked-l</title>
    <desc>Created with Sketch.</desc>
    <g id="Analytics-/-03-L-/-02-stacked-l" stroke="none" stroke-width="1" fill="none" fill-rule="evenodd">
        <g id="Group" transform="translate(7.000000, 9.000000)" stroke="currentColor" stroke-width="1.5">
            <path d="M1.13686838e-13,25 L1.13686838e-13,6 C1.13686838e-13,4.8954305 0.8954305,4 2,4 L6,4 C7.1045695,4 8,4.8954305 8,6 L8,25" id="Path" stroke-linecap="round"></path>
            <path d="M13,25 L13,6 C13,4.8954305 13.8954305,4 15,4 L19,4 C20.1045695,4 21,4.8954305 21,6 L21,25" id="Path" stroke-linecap="round"></path>
            <path d="M26,25 L26,2 C26,0.8954305 26.8954305,0 28,0 L32,0 C33.1045695,0 34,0.8954305 34,2 L34,25" id="Path" stroke-linecap="round"></path>
            <line x1="0" y1="29.96268" x2="34" y2="29.96268" id="Path" stroke-linecap="round" stroke-linejoin="round"></line>
            <line x1="13" y1="18" x2="21" y2="18" id="Path-13-Copy"></line>
            <line x1="26" y1="9" x2="34" y2="9" id="Path-13-Copy-2"></line>
            <line x1="0" y1="13" x2="8" y2="13" id="Path-13"></line>
        </g>
    </g>
</svg>