<svg width="48" height="48" viewBox="0 0 48 48" xmlns="http://www.w3.org/2000/svg">
    <g fill="currentColor">
        <path d="M23.75 7C32.9863 7 40.5 14.5137 40.5 23.75C40.5 32.9863 32.9863 40.5 23.75 40.5C14.5137 40.5 7 32.9863 7 23.75C7 14.5137 14.5137 7 23.75 7ZM23.75 8.05957C15.0981 8.05976 8.05958 15.098 8.05957 23.75C8.05957 32.402 15.098 39.4402 23.75 39.4404C32.4021 39.4404 39.4414 32.4021 39.4414 23.75C39.4414 15.0979 32.4021 8.05957 23.75 8.05957ZM23.75 9.70312C24.1256 9.70312 24.5047 9.7186 24.874 9.74805C25.129 9.76863 25.3269 9.96582 25.3574 10.21L25.3604 10.3184C25.3376 10.5948 25.1053 10.8055 24.832 10.8057C24.8173 10.8056 24.8033 10.8042 24.793 10.8037H24.7891C24.4483 10.7759 24.0983 10.7627 23.75 10.7627L23.749 10.7617V10.7627C16.5882 10.7627 10.7617 16.5891 10.7617 23.75C10.7617 30.9109 16.5881 36.7373 23.749 36.7373C23.7516 36.7373 23.7542 36.7373 23.7568 36.7373C24.1007 36.7371 24.4491 36.7244 24.79 36.6973L24.7969 36.6963C25.0396 36.6899 25.2699 36.8401 25.3398 37.0762L25.3604 37.1826V37.1836C25.3827 37.4745 25.1648 37.7302 24.873 37.7529C24.505 37.7816 24.1306 37.7947 23.7598 37.7949C23.7562 37.795 23.7526 37.7969 23.749 37.7969C16.0039 37.7968 9.70215 31.4951 9.70215 23.75C9.70218 16.0049 16.004 9.70316 23.749 9.70312H23.75ZM28.8379 35.7168C29.0445 35.6768 29.2572 35.7631 29.376 35.9375L29.4277 36.0322L29.459 36.1348C29.506 36.3765 29.3784 36.6262 29.1426 36.7246H29.1416C28.6341 36.9356 28.1112 37.1176 27.5811 37.2676L27.0479 37.4072C27.0069 37.4168 26.9658 37.4219 26.9238 37.4219C26.6851 37.4219 26.4679 37.2587 26.4092 37.0166C26.3409 36.7318 26.5158 36.4455 26.7998 36.377C27.4584 36.219 28.1099 36.0068 28.7354 35.7471L28.8379 35.7168ZM32.2803 33.5586C32.4948 33.4401 32.7713 33.4828 32.9385 33.6777H32.9395C33.1294 33.8995 33.1032 34.2347 32.8799 34.4248C32.322 34.9019 31.7239 35.3393 31.1016 35.7217L31.1006 35.7207C31.0145 35.7739 30.9184 35.7998 30.8242 35.7998C30.6469 35.7996 30.4732 35.7096 30.373 35.5469C30.2209 35.2985 30.2976 34.9716 30.5469 34.8184C31.1225 34.4644 31.6772 34.0619 32.1934 33.6201L32.2803 33.5586ZM34.8926 30.4492C35.0606 30.2699 35.3377 30.2265 35.5557 30.3613C35.8046 30.5146 35.8827 30.8402 35.7295 31.0889C35.4411 31.5584 35.1237 32.0126 34.7832 32.4443L34.4355 32.8682C34.331 32.991 34.1816 33.0545 34.0332 33.0547C33.9112 33.0547 33.7875 33.013 33.6875 32.9277V32.9268C33.4662 32.7362 33.4411 32.4034 33.6299 32.1807L33.9512 31.7881C34.2663 31.3888 34.561 30.9684 34.8281 30.5342L34.8926 30.4492ZM37.0176 26.3955L37.0186 26.3965C37.3025 26.465 37.4786 26.7499 37.4102 27.0352C37.2825 27.5696 37.1216 28.0993 36.9307 28.6162L36.7295 29.1279C36.6452 29.3324 36.4481 29.454 36.2412 29.4541C36.1738 29.4541 36.1037 29.4417 36.0371 29.4141C35.7675 29.3022 35.6397 28.9914 35.752 28.7217C36.0115 28.097 36.2225 27.4461 36.3799 26.7881L36.415 26.6865C36.5055 26.4951 36.7053 26.3773 36.9131 26.3828L37.0176 26.3955ZM23.75 13.6367C24.8512 13.6367 25.748 14.5335 25.748 15.6348V23.2109H30.2021C31.303 23.2111 32.1989 24.1062 32.1992 25.207C32.1992 26.3081 31.3033 27.2049 30.2021 27.2051H23.8154C23.8045 27.2051 23.7931 27.2033 23.7822 27.2031C23.7773 27.2032 23.7725 27.2041 23.7676 27.2041C23.7617 27.2043 23.7559 27.2061 23.75 27.2061C23.6878 27.206 23.6262 27.2019 23.5654 27.1963C22.5497 27.1036 21.7512 26.2474 21.751 25.208C21.751 25.1957 21.7527 25.1831 21.7529 25.1709V15.6348C21.7529 14.5337 22.6488 13.6368 23.75 13.6367ZM25.5107 24.2705C25.6602 24.5502 25.7461 24.8694 25.7461 25.208C25.746 25.5467 25.6603 25.8657 25.5107 26.1455H30.2021C30.719 26.1453 31.1406 25.724 31.1406 25.207C31.1403 24.6904 30.7188 24.2707 30.2021 24.2705H25.5107ZM23.749 24.2705C23.3031 24.2705 22.9286 24.5832 22.834 25.001C22.861 25.0644 22.8769 25.1338 22.877 25.207C22.877 25.7128 23.2798 26.1257 23.7812 26.1436C24.2831 26.1262 24.6873 25.7139 24.6875 25.208C24.6874 24.6913 24.2659 24.2708 23.749 24.2705ZM37.1875 22.1729C37.4595 22.1548 37.7308 22.3647 37.7539 22.6602C37.7817 23.0224 37.7959 23.3895 37.7959 23.75C37.7959 23.9336 37.7923 24.1191 37.7852 24.3047L37.7529 24.8604C37.7309 25.1375 37.4987 25.3486 37.2246 25.3486C37.2107 25.3486 37.1975 25.3481 37.1875 25.3477H37.1836V25.3467C36.8923 25.324 36.6738 25.0686 36.6963 24.7773C36.7231 24.4357 36.7363 24.09 36.7363 23.75C36.7363 23.4165 36.7239 23.0769 36.6982 22.7412C36.6763 22.4501 36.8951 22.1954 37.1865 22.1729H37.1875ZM23.75 14.6963C23.2331 14.6964 22.8125 15.1177 22.8125 15.6348V23.4443C23.0918 23.2956 23.4101 23.211 23.748 23.2109C23.7631 23.2109 23.778 23.2126 23.793 23.2129C23.8003 23.2126 23.808 23.2109 23.8154 23.2109H24.6885V15.6348C24.6885 15.1177 24.267 14.6963 23.75 14.6963ZM36.0459 18.1025C36.3153 17.9935 36.6243 18.1202 36.7373 18.3906L36.9365 18.9033C37.1262 19.4201 37.2874 19.9505 37.415 20.4863C37.4743 20.7355 37.3465 20.9851 37.123 21.0889L37.0225 21.124C36.982 21.1338 36.9404 21.1386 36.8994 21.1387C36.6605 21.1387 36.4428 20.9749 36.3848 20.7314C36.2273 20.0716 36.0159 19.4198 35.7578 18.7949C35.6464 18.5246 35.7756 18.2151 36.0459 18.1035V18.1025ZM33.7002 14.585C33.923 14.3962 34.2579 14.4231 34.4473 14.6455C34.8035 15.0635 35.1366 15.5059 35.4424 15.9639L35.7393 16.4268V16.4277C35.8904 16.6769 35.8129 17.0025 35.5635 17.1553C35.4768 17.2081 35.381 17.2334 35.2871 17.2334C35.1094 17.2333 34.9362 17.144 34.8359 16.9814V16.9805C34.482 16.4021 34.0797 15.8477 33.6406 15.332C33.4507 15.1095 33.477 14.7743 33.7002 14.585ZM30.4531 11.876C30.5978 11.7222 30.8216 11.6698 31.0195 11.7412L31.1162 11.7871C31.7387 12.1712 32.3361 12.6091 32.8936 13.0869L32.9678 13.1641C33.1186 13.3587 33.117 13.6386 32.9512 13.833V13.834C32.8463 13.9558 32.6976 14.0175 32.5488 14.0176C32.4271 14.0176 32.3047 13.9754 32.2051 13.8906H32.2041C31.8177 13.5589 31.4095 13.2487 30.9873 12.9648L30.5605 12.6904C30.3114 12.5366 30.2354 12.2096 30.3887 11.9609L30.4531 11.876ZM27.0654 10.0977H27.0664C27.7783 10.2695 28.4826 10.5 29.1592 10.7832C29.3956 10.882 29.5222 11.1324 29.4746 11.374L29.4434 11.4766C29.358 11.6797 29.1609 11.8018 28.9541 11.8018C28.8856 11.8017 28.8175 11.7885 28.752 11.7617L28.751 11.7607C28.282 11.5648 27.7988 11.3967 27.3096 11.2578L26.8184 11.1289C26.5342 11.0598 26.3592 10.7729 26.4277 10.4883L26.4639 10.3867C26.5702 10.1639 26.8233 10.0417 27.0654 10.0977Z"/>
    </g>
</svg>
