<?xml version="1.0" encoding="UTF-8"?>
<svg width="48px" height="48px" viewBox="0 0 48 48" version="1.1" xmlns="http://www.w3.org/2000/svg" xmlns:xlink="http://www.w3.org/1999/xlink">
    <!-- Generator: Sketch 64 (93537) - https://sketch.com -->
    <title>Edit / 03 L / 14-video-l</title>
    <desc>Created with Sketch.</desc>
    <g id="Edit-/-03-L-/-14-video-l" stroke="none" stroke-width="1" fill="none" fill-rule="evenodd">
        <g id="Group" transform="translate(6.932609, 9.954695)">
            <rect id="Rectangle" stroke="currentColor" stroke-width="1.5" stroke-linecap="round" stroke-linejoin="round" transform="translate(17.067391, 14.045305) rotate(-270.000000) translate(-17.067391, -14.045305) " x="3.06739106" y="-2.95469456" width="28" height="34" rx="2"></rect>
            <path d="M13.284141,8.36073542 C14.0468094,7.9128009 14.9797852,7.88196253 15.766023,8.2685711 L15.932141,8.35780542 L21.9775511,11.8368254 C22.7745814,12.2863886 23.2675863,13.1304893 23.2675863,14.0455654 C23.2675863,14.8996365 22.8381243,15.6918801 22.1328475,16.1592282 L21.9775511,16.2543055 L15.932161,19.7327655 C15.114177,20.2103788 14.1020857,20.2092585 13.285161,19.7298355 C12.542576,19.3107551 12.0650416,18.5480753 12.0061592,17.7054708 L12,17.5237855 L12,10.5667854 C11.9981048,9.65345314 12.4890074,8.81011501 13.284141,8.36073542 Z M15.184091,9.65760543 C14.8289134,9.45071104 14.3898045,9.45127668 14.035161,9.65908543 C13.7408537,9.82068077 13.5459545,10.1137532 13.5071357,10.4421701 L13.500001,10.5667954 L13.500001,17.5237955 C13.4988798,17.9017463 13.7043401,18.250113 14.035651,18.4319955 C14.3510971,18.6150075 14.7321324,18.6356436 15.0624054,18.4938023 L15.183651,18.4329955 L21.2295011,14.9539954 C21.5613077,14.7721713 21.7675894,14.4239096 21.7675894,14.0455504 C21.7675894,13.7092312 21.6046014,13.3966926 21.3353434,13.2036908 L21.2295011,13.1371054 L15.184091,9.65760543 Z" id="Shape" fill="currentColor" fill-rule="nonzero"></path>
        </g>
    </g>
</svg>