<?xml version="1.0" encoding="UTF-8"?>
<svg width="48px" height="48px" viewBox="0 0 48 48" version="1.1" xmlns="http://www.w3.org/2000/svg" xmlns:xlink="http://www.w3.org/1999/xlink">
    <title>Information / 03 L / 02-warning-l</title>
    <g id="Information-/-03-L-/-02-warning-l" stroke="none" stroke-width="1" fill="currentColor">
        <path d="M20.5912136,10.1236331 C22.0328311,7.62549627 25.6375376,7.62549627 27.080334,10.1235095 L27.080334,10.1235095 L40.9141832,34.0852485 C42.3570547,36.5821412 40.5544126,39.7055 37.6708095,39.7055 L37.6708095,39.7055 L10.0018095,39.7055 C7.11697656,39.7055 5.31435116,36.5829438 6.75629667,34.0854892 L6.75629667,34.0854892 Z M25.7813544,10.8736107 C24.9160814,9.37550373 22.7547879,9.37550373 21.8903223,10.8735108 L21.8903223,10.8735108 L8.05532409,34.8355077 C7.19073057,36.3329867 8.27171674,38.2055 10.0018095,38.2055 L10.0018095,38.2055 L37.6708095,38.2055 C39.3994892,38.2055 40.4804227,36.3326139 39.6152849,34.8354905 L39.6152849,34.8354905 Z M23.7500095,30.8513 C24.1297052,30.8513 24.4435004,31.1334539 24.4931629,31.4995294 L24.5000095,31.6013 L24.5000095,32.7603 C24.5000095,33.1745136 24.164223,33.5103 23.7500095,33.5103 C23.3703137,33.5103 23.0565185,33.2281461 23.0068561,32.8620706 L23.0000095,32.7603 L23.0000095,31.6013 C23.0000095,31.1870864 23.3357959,30.8513 23.7500095,30.8513 Z M23.7500095,19.4997 C24.1297052,19.4997 24.4435004,19.7818539 24.4931629,20.1479294 L24.5000095,20.2497 L24.5000095,28.0127 C24.5000095,28.4269136 24.164223,28.7627 23.7500095,28.7627 C23.3703137,28.7627 23.0565185,28.4805461 23.0068561,28.1144706 L23.0000095,28.0127 L23.0000095,20.2497 C23.0000095,19.8354864 23.3357959,19.4997 23.7500095,19.4997 Z" id="Combined-Shape" ></path>
    </g>
</svg>