<?xml version="1.0" encoding="utf-8"?>
<!-- Generator: Adobe Illustrator 26.5.3, SVG Export Plug-In . SVG Version: 6.00 Build 0)  -->
<svg version="1.1" id="Layer_1" xmlns="http://www.w3.org/2000/svg" xmlns:xlink="http://www.w3.org/1999/xlink" x="0px" y="0px"
	 viewBox="0 0 96 96" style="enable-background:new 0 0 96 96;" xml:space="preserve">
<style type="text/css">
	.st0{fill:none;}
	.st1{fill:#00F3BD;}
</style>
<g>
	<rect x="12" y="14.9" class="st0" width="72" height="66.2"/>
	<path d="M77.3,80.9l6.6-6.6c0.2-0.2,0.2-0.5,0-0.7l-15-15c-0.2-0.2-0.5-0.2-0.7,0l-6.6,6.6c-0.2,0.2-0.2,0.5,0,0.7l15,15
		C76.7,81.1,77.1,81.1,77.3,80.9z"/>
	<path class="st1" d="M79,46L79,46C79,28.9,65.1,15,47.9,14.9v0c-12.6,0-23.5,7.5-28.4,18.3h12.1c3.8-4.8,9.7-7.9,16.3-7.9v0
		c11.5,0,20.8,9.3,20.8,20.7c0,11.5-9.3,20.7-20.8,20.7c-6.7,0-12.6-3.1-16.4-8h-12c4.9,10.8,15.8,18.4,28.4,18.4
		C65,77.2,79,63.3,79,46L79,46C79,46.1,79,46.1,79,46C79,46.1,79,46,79,46z"/>
	<path d="M17,51.1c2.8,0,5-2.2,5-5s-2.2-5-5-5c-2.8,0-5,2.2-5,5S14.2,51.1,17,51.1z"/>
	<path d="M32.7,51.1c2.8,0,5-2.2,5-5s-2.2-5-5-5c-2.8,0-5,2.2-5,5S29.9,51.1,32.7,51.1z"/>
	<path d="M48.4,51.1c2.8,0,5-2.2,5-5s-2.2-5-5-5s-5,2.2-5,5S45.7,51.1,48.4,51.1z"/>
</g>
</svg>
