<?xml version="1.0" encoding="utf-8"?>
<!-- Generator: Adobe Illustrator 28.2.0, SVG Export Plug-In . SVG Version: 6.00 Build 0)  -->
<svg version="1.1" id="Layer_1" xmlns="http://www.w3.org/2000/svg" xmlns:xlink="http://www.w3.org/1999/xlink" x="0px" y="0px"
	 viewBox="0 0 96 96" style="enable-background:new 0 0 96 96;" xml:space="preserve">
<style type="text/css">
	.st0{fill:#00F3BD;}
</style>
<g>
	<g>
		<path d="M39,39.1c6.5-6.5,15.8-8.5,24-6c-1.1-3.7-3.1-7.1-6-10c-9.4-9.4-24.6-9.4-34,0c-9.4,9.4-9.4,24.6,0,34
			c2.9,2.9,6.3,4.9,9.9,6C30.5,54.8,32.5,45.5,39,39.1z"/>
		<path class="st0" d="M57,56.9c-6.5,6.5-15.8,8.5-24,6c1.1,3.7,3.1,7.1,6,10c9.4,9.4,24.6,9.4,34,0s9.4-24.6,0-34
			c-2.9-2.9-6.3-4.9-9.9-6C65.5,41.2,63.5,50.5,57,56.9z"/>
	</g>
	<circle class="st0" cx="48" cy="48" r="4"/>
</g>
</svg>
