<?xml version="1.0" encoding="UTF-8"?>
<svg width="24px" height="24px" viewBox="0 0 24 24" version="1.1" xmlns="http://www.w3.org/2000/svg" xmlns:xlink="http://www.w3.org/1999/xlink">
    <!-- Generator: Sketch 64 (93537) - https://sketch.com -->
    <title>01 App menu / 03 Elements / 02 Icons / 09 AI Search / 01 Active</title>
    <desc>Created with Sketch.</desc>
    <g id="01-App-menu-/-03-Elements-/-02-Icons-/-09-AI-Search-/-01-Active" stroke="none" stroke-width="1" fill="none" fill-rule="evenodd">
        <rect id="canvas-copy-2" x="-7.46069873e-14" y="1.0658141e-14" width="24.0000001" height="24.0000001"></rect>
        <path d="M17.1666667,16.92846 C17.8109989,16.2841278 18.8556678,16.2841278 19.5,16.92846 L21.8333333,19.2617933 C22.4776655,19.9061255 22.4776655,20.9507945 21.8333333,21.5951267 C21.1890011,22.2394589 20.1443322,22.2394589 19.5,21.5951267 L17.1666667,19.2617933 C16.5223345,18.6174611 16.5223345,17.5727922 17.1666667,16.92846 Z" id="Rectangle-Copy-2" fill="#F97600" fill-rule="nonzero"></path>
        <path d="M3.21118806,11.7617933 C3.21118806,10.429007 4.29162486,9.3485702 5.6244112,9.3485702 C6.88650191,9.3485702 7.92230407,10.3174267 8.02863814,11.5519601 L8.03763434,11.7617933 C8.03763434,13.9344176 9.79889433,15.6956776 11.9715186,15.6956776 C14.0530329,15.6956776 15.7569609,14.0790389 15.8962105,12.0328537 L15.9054029,11.7617933 C15.9054029,10.429007 16.9858397,9.3485702 18.3186261,9.3485702 C19.6514124,9.3485702 20.7318492,10.429007 20.7318492,11.7617933 C20.7318492,16.5999903 16.8097156,20.5221239 11.9715186,20.5221239 C7.13332166,20.5221239 3.21118806,16.5999903 3.21118806,11.7617933 Z" id="Path-Copy" fill="#FAB700" fill-rule="nonzero"></path>
        <path d="M3.21118806,11.7617933 C3.21118806,6.92359636 7.13332166,3.00146276 11.9715186,3.00146276 C16.8097156,3.00146276 20.7318492,6.92359636 20.7318492,11.7617933 C20.7318492,13.0945797 19.6514124,14.1750165 18.3186261,14.1750165 C17.0565354,14.1750165 16.0207332,13.20616 15.9143991,11.9716266 L15.9054029,11.7617933 C15.9054029,9.58916903 14.1441429,7.82790904 11.9715186,7.82790904 C9.89000438,7.82790904 8.18607634,9.44454778 8.04682676,11.490733 L8.03763434,11.7617933 C8.03763434,13.0945797 6.95719754,14.1750165 5.6244112,14.1750165 C4.29162486,14.1750165 3.21118806,13.0945797 3.21118806,11.7617933 Z" id="Path-Copy-2" fill="#FFDA24" fill-rule="nonzero"></path>
        <path d="M3.21118806,11.7617933 C3.21118806,10.429007 4.29162486,9.3485702 5.6244112,9.3485702 C6.88650191,9.3485702 7.92230407,10.3174267 8.02863814,11.5519601 L8.03763434,11.7617933 C8.03763434,13.9126914 9.76384526,15.6604113 11.9064647,15.6951506 L11.9715186,15.6956776 C13.304305,15.6956776 14.3847418,16.7761144 14.3847418,18.1089008 C14.3847418,19.4416871 13.304305,20.5221239 11.9715186,20.5221239 C7.13332166,20.5221239 3.21118806,16.5999903 3.21118806,11.7617933 Z" id="Path-Copy-4" fill="#FAB700" fill-rule="nonzero"></path>
    </g>
</svg>