<svg id="icons" xmlns="http://www.w3.org/2000/svg" viewBox="0 0 24 24"><title>01-01-analytics-m_1</title><rect id="canvas" width="24" height="24" style="fill:none"/><path d="M4.125,14.5h3.75A1.125,1.125,0,0,1,9,15.625V20a0,0,0,0,1,0,0H4.125A1.125,1.125,0,0,1,3,18.875v-3.25A1.125,1.125,0,0,1,4.125,14.5Z" style="fill:#ffd1c7"/><path d="M16.125,4h3.75A1.125,1.125,0,0,1,21,5.125v13.75A1.125,1.125,0,0,1,19.875,20H15a0,0,0,0,1,0,0V5.125A1.125,1.125,0,0,1,16.125,4Z" style="fill:#f52922"/><path d="M13.875,9h-3.75A1.125,1.125,0,0,0,9,10.125V20h6V10.125A1.125,1.125,0,0,0,13.875,9Z" style="fill:#ff8475"/></svg>