<svg id="icons" xmlns="http://www.w3.org/2000/svg" viewBox="0 0 24 24"><defs><style>.cls-1{fill:none;}</style></defs><title>01-17-arrow-ru-circle-m</title><rect id="canvas" class="cls-1" width="24" height="24"/><path d="M12,19.99609a7.97514,7.97514,0,0,1-5.65723-2.33886h0A8.01128,8.01128,0,1,1,12,19.99609ZM7.40332,16.59668a6.50051,6.50051,0,1,0,0-9.19287,6.51063,6.51063,0,0,0,0,9.19287Z"/><path d="M14.29785,8.9541h-4a.75.75,0,0,0,0,1.5H12.4834L9.16992,13.76758a.74992.74992,0,1,0,1.06055,1.06054l3.31738-3.31738v2.18457a.75.75,0,0,0,1.5,0V9.7041A.7502.7502,0,0,0,14.29785,8.9541Z"/></svg>