<svg id="icons" xmlns="http://www.w3.org/2000/svg" viewBox="0 0 24 24"><title>01-02-assets-base-m_1</title><rect id="canvas" width="24" height="24" style="fill:none"/><path d="M19.5,6.98773H12.34135A.99994.99994,0,0,1,11.7299,6.779L9.95225,5.40521a2,2,0,0,0-1.223-.41748H4.5c-.82843,0-1.5.67157-1.5,2v3.35065H21V8.98773C21,7.6593,20.32841,6.98773,19.5,6.98773Z" style="fill:#6a7580"/><path d="M3,10.33838H21a0,0,0,0,1,0,0V18.5A1.5,1.5,0,0,1,19.5,20H4.5A1.5,1.5,0,0,1,3,18.5V10.33838A0,0,0,0,1,3,10.33838Z" style="fill:#dbe0e3"/></svg>