<svg id="icons" xmlns="http://www.w3.org/2000/svg" viewBox="0 0 24 24"><title>02-01-bookmark-m</title><rect id="canvas" width="24" height="24" style="fill:none"/><path d="M15.25,3.5H8.75A2.76962,2.76962,0,0,0,6,6.28271V19.75a.75017.75017,0,0,0,1.11768.65381l4.88916-2.74951,4.87451,2.749A.75022.75022,0,0,0,18,19.75V6.28271A2.76962,2.76962,0,0,0,15.25,3.5ZM8.75,5h6.5A1.26784,1.26784,0,0,1,16.5,6.28271V7.8999h-9V6.28271A1.26784,1.26784,0,0,1,8.75,5Zm3.62549,11.14014a.75088.75088,0,0,0-.73584-.00049L7.5,18.46777V9.3999h9v9.06592Z"/></svg>