<svg width="24" height="24" viewBox="0 0 24 24"  xmlns="http://www.w3.org/2000/svg">
<path fill-rule="evenodd" clip-rule="evenodd" d="M10.072 3.69995C9.65283 3.69995 9.31282 4.03974 9.31282 4.45905V4.8665C9.31282 5.35973 9.47239 5.81571 9.73661 6.18887C9.02311 6.66087 8.50768 7.40695 8.33801 8.27686C7.53094 8.54321 7.04693 9.29442 6.81077 10.1067C6.38412 10.0331 6.08721 9.86862 5.88699 9.63386C5.64637 9.35172 5.50535 8.9214 5.50535 8.29262V7.87942C5.50535 7.46013 5.16541 7.12032 4.74625 7.12032C4.32713 7.12032 3.98712 7.46011 3.98712 7.87942V8.29262C3.98712 9.24624 4.23721 10.0471 4.74288 10.634C5.19591 11.1598 5.83074 11.4868 6.60405 11.6109V12.8937H3.64435C3.2252 12.8937 2.88525 13.2335 2.88525 13.6528C2.88525 14.072 3.2252 14.4119 3.64435 14.4119H6.60405V14.9038C6.60405 15.1793 6.63071 15.4477 6.67299 15.7068C5.88796 15.8194 5.24107 16.1368 4.77625 16.6563C4.24843 17.2463 3.98712 18.0613 3.98712 19.0358V19.449C3.98712 19.8683 4.32707 20.2081 4.74622 20.2081C5.16537 20.2081 5.50532 19.8683 5.50532 19.449V19.0358C5.50532 18.36 5.6683 17.9134 5.94447 17.6324C6.19245 17.3801 6.57314 17.2192 7.13333 17.1852C7.99401 19.0228 9.86147 20.3 12.0231 20.3C14.1836 20.3 16.0502 19.0243 16.9114 17.1882C17.454 17.2284 17.8234 17.3908 18.0648 17.6418C18.3354 17.9231 18.495 18.3672 18.495 19.0358V19.449C18.495 19.8683 18.8349 20.2081 19.2541 20.2081C19.6732 20.2081 20.0133 19.8684 20.0133 19.449V19.0358C20.0133 18.068 19.7499 17.2584 19.2251 16.67C18.7626 16.1515 18.1204 15.8311 17.3447 15.7124C17.3817 15.4453 17.3963 15.175 17.3963 14.9038V14.4119H20.356C20.7752 14.4119 21.1151 14.072 21.1151 13.6528C21.1151 13.2335 20.7752 12.8937 20.356 12.8937H17.3963V11.6074C18.168 11.4793 18.8043 11.1484 19.2586 10.6196C19.7612 10.0345 20.0133 9.23927 20.0133 8.29262V7.87942C20.0133 7.46013 19.6733 7.12032 19.2542 7.12032C18.835 7.12032 18.4951 7.46014 18.4951 7.87942V8.29262C18.4951 8.9136 18.3572 9.34115 18.1218 9.62338C17.9277 9.85607 17.6414 10.0208 17.2319 10.099C16.9947 9.28956 16.51 8.54238 15.7055 8.27684C15.5362 7.4073 15.023 6.6611 14.3097 6.18889C14.5739 5.81574 14.7335 5.35976 14.7335 4.8665V4.45905C14.7335 4.03977 14.3936 3.69995 13.9744 3.69995C13.5553 3.69995 13.2153 4.03971 13.2153 4.45905V4.8665C13.2153 5.29072 12.8598 5.63968 12.4191 5.63968H11.6272C11.1865 5.63968 10.8311 5.29072 10.8311 4.8665V4.45905C10.8311 4.03977 10.4911 3.69995 10.072 3.69995ZM9.79802 8.88948C9.79802 7.93499 10.5751 7.15792 11.5296 7.15792H12.5167C13.4712 7.15792 14.2483 7.93499 14.2483 8.88948C14.2483 9.12254 14.0582 9.31258 13.8252 9.31258H10.2211C9.98807 9.31258 9.79802 9.12254 9.79802 8.88948ZM8.12229 11.449C8.12229 11.1194 8.17806 10.7194 8.29982 10.3794C8.37168 10.1787 8.4585 10.0203 8.55435 9.90653C8.8994 10.4641 9.52321 10.8308 10.2212 10.8308H11.2411V18.7023C9.47218 18.3393 8.12229 16.7718 8.12229 14.9039V11.449ZM13.8252 10.8308C14.5252 10.8308 15.1301 10.4629 15.4688 9.9096C15.5605 10.022 15.6429 10.1778 15.7107 10.3755C15.8272 10.7154 15.8781 11.1163 15.8781 11.449V14.9038C15.8781 16.792 14.5423 18.3669 12.7593 18.7115V10.8308H13.8252Z" />
</svg>
