<svg id="icons" xmlns="http://www.w3.org/2000/svg" viewBox="0 0 24 24"><title>10-04-button-m</title><rect id="canvas" width="24" height="24" style="fill:none"/><path d="M18.1875,15a.75.75,0,0,1,0-1.5A1.30655,1.30655,0,0,0,19.5,12.20264V5.79736A1.30655,1.30655,0,0,0,18.1875,4.5H5.8125A1.30655,1.30655,0,0,0,4.5,5.79736v6.40528A1.30655,1.30655,0,0,0,5.8125,13.5H9.32422a.75.75,0,0,1,0,1.5H5.8125A2.80815,2.80815,0,0,1,3,12.20264V5.79736A2.80815,2.80815,0,0,1,5.8125,3h12.375A2.80815,2.80815,0,0,1,21,5.79736v6.40528A2.80815,2.80815,0,0,1,18.1875,15Z"/><path d="M12.71,20.96387a.91731.91731,0,0,1-.917-.91944V13.09814A.91824.91824,0,0,1,13.29,12.38525l5.24414,4.249a.91976.91976,0,0,1-.57617,1.63525H16.56055a2.67369,2.67369,0,0,0-1.17285.27246h0a2.67023,2.67023,0,0,0-.919.74658L13.43262,20.6123A.91967.91967,0,0,1,12.71,20.96387Zm.583-6.646v4.03906a4.15347,4.15347,0,0,1,3.03418-1.58056Zm1.76367,3.55127h0Zm2.5332-.06982.002.001ZM12.3457,13.5498l.001.00147Z"/><path d="M9.93066,12.17969H7.874a.75.75,0,0,1,0-1.5H9.93066a.75.75,0,0,1,0,1.5Z"/><path d="M17.10254,12.17969H15.04688a.75.75,0,0,1,0-1.5h2.05566a.75.75,0,0,1,0,1.5Z"/><path d="M12.48828,9.59277a.75019.75019,0,0,1-.75-.75V6.75293a.75.75,0,1,1,1.5,0V8.84277A.75019.75019,0,0,1,12.48828,9.59277Z"/><path d="M10.45215,10.123A.74481.74481,0,0,1,9.918,9.89893L8.46387,8.42139A.7496.7496,0,1,1,9.53223,7.36963l1.4541,1.47754a.74951.74951,0,0,1-.53418,1.27588Z"/><path d="M14.52441,10.123a.74952.74952,0,0,1-.53418-1.27588l1.45411-1.47754A.7496.7496,0,1,1,16.5127,8.42139L15.05859,9.89893A.74481.74481,0,0,1,14.52441,10.123Z"/></svg>