<?xml version="1.0" encoding="utf-8"?>
<!-- Generator: Adobe Illustrator 25.2.1, SVG Export Plug-In . SVG Version: 6.00 Build 0)  -->
<svg version="1.1" id="Warstwa_1" xmlns="http://www.w3.org/2000/svg" xmlns:xlink="http://www.w3.org/1999/xlink" x="0px" y="0px"
	 viewBox="0 0 26 26" style="enable-background:new 0 0 26 26;" xml:space="preserve">
<style type="text/css">
	.st0{fill:#D41640;}
	.st1{fill:#FF7586;}
	.st2{fill:#FF2F52;}
</style>
<g>
	<path class="st0" d="M13.75,16.7196V18.5c0,1.7949-1.4551,3.25-3.25,3.25c-1.733,0-3.1492-1.3565-3.2449-3.0656L7.25,18.5v-3
		L13.75,16.7196z"/>
	<path class="st1" d="M21.288,4.4705c-0.4531-0.4091-1.048-0.5625-1.6145-0.4163L7.0363,7.2575C5.2632,7.6953,4,9.4604,4,11.5003
		s1.2632,3.805,3.0363,4.2428l1.2007,0.3044l7.1689,1.8172l4.2676,1.0818c0.5665,0.1451,1.161-0.0082,1.6145-0.4163
		c0.4505-0.4023,0.7127-1.0138,0.712-1.6603V6.1302C22.0008,5.4838,21.7385,4.8724,21.288,4.4705z"/>
	<path class="st2" d="M21.288,4.4705c-0.4531-0.4091-1.048-0.5625-1.6145-0.4163c-1.2614,0.3198-2.2075,0.5596-2.8382,0.7194
		c-0.2574,0.0652-0.53,0.1343-0.8178,0.2073c-0.1198,8.6622-0.1077,13.0115,0.0362,13.048c0.8044,0.2039,2.011,0.5098,3.6198,0.9176
		c0.5665,0.1451,1.161-0.0082,1.6145-0.4163c0.4505-0.4023,0.7127-1.0138,0.712-1.6603V6.1302
		C22.0008,5.4838,21.7385,4.8724,21.288,4.4705z"/>
</g>
</svg>
