<svg id="icons" xmlns="http://www.w3.org/2000/svg" viewBox="0 0 24 24"><title>07-01-chat-m</title><rect id="canvas" width="24" height="24" style="fill:none"/><path d="M12.26758,20a1.665,1.665,0,0,1-1.66406-1.6665l-.00782-1.87745H9.81445A6.22816,6.22816,0,0,1,9.81445,4h4.3711A6.23023,6.23023,0,0,1,18.5752,14.60742h0c.0039,0-.12012.1211-5.16016,4.93262A1.65594,1.65594,0,0,1,12.26758,20ZM9.81445,5.5a4.72821,4.72821,0,0,0,0,9.45605h1.52832a.7502.7502,0,0,1,.75.74707l.01075,2.62549a.17113.17113,0,0,0,.10253.15869l.06153.0127a.15964.15964,0,0,0,.1123-.04541h0s4.95313-4.72852,5.12891-4.90234A4.73006,4.73006,0,0,0,14.18555,5.5Z"/></svg>