<svg id="icons" xmlns="http://www.w3.org/2000/svg" viewBox="0 0 24 24"><title>01-03-check-2-m</title><rect id="canvas" width="24" height="24" style="fill:none"/><path d="M11.498,14.5498a.74833.74833,0,0,1-.51758-.207l-1.74805-1.6665a.75014.75014,0,0,1,1.03516-1.08594l1.21972,1.16309,2.73389-2.71631a.75027.75027,0,1,1,1.05762,1.06445l-3.252,3.23047A.74919.74919,0,0,1,11.498,14.5498Z"/><path d="M12,20a8,8,0,1,1,8-8A8.00917,8.00917,0,0,1,12,20ZM12,5.5A6.5,6.5,0,1,0,18.5,12,6.50753,6.50753,0,0,0,12,5.5Z"/></svg>