<svg width="24" height="24" viewBox="0 0 24 24" fill="none" xmlns="http://www.w3.org/2000/svg">
<path d="M18.5332 5.4668C18.3926 5.32612 18.2019 5.24707 18.003 5.24707C17.8041 5.24707 17.6133 5.32612 17.4727 5.4668L13.5 9.43946V5.75C13.5 5.33579 13.1642 5 12.75 5C12.3358 5 12 5.33579 12 5.75V11.25C12.0001 11.6642 12.3358 11.9999 12.75 12H18.25C18.6642 12 19 11.6642 19 11.25C19 10.8358 18.6642 10.5 18.25 10.5H14.5606L18.5332 6.52735C18.6739 6.38674 18.753 6.19598 18.753 5.99708C18.753 5.79817 18.6739 5.60741 18.5332 5.4668Z" />
<path d="M4.46676 19.5332C4.60737 19.6739 4.79812 19.7529 4.99703 19.7529C5.19594 19.7529 5.38669 19.6739 5.5273 19.5332L9.5 15.5605L9.5 19.25C9.5 19.6642 9.83579 20 10.25 20C10.6642 20 11 19.6642 11 19.25L11 13.75C10.9999 13.3358 10.6642 13.0001 10.25 13L4.75 13C4.33579 13 4 13.3358 4 13.75C4 14.1642 4.33579 14.5 4.75 14.5L8.43941 14.5L4.46676 18.4726C4.32608 18.6133 4.24703 18.804 4.24703 19.0029C4.24703 19.2018 4.32607 19.3926 4.46676 19.5332Z" />
</svg>
