<svg id="icons" xmlns="http://www.w3.org/2000/svg" viewBox="0 0 24 24"><title>11-01-coupons-m</title><rect id="canvas" width="24" height="24" style="fill:none"/><path d="M10.375,21.082h0a1.367,1.367,0,0,1-.97754-.40723L7.84863,19.10938a.75007.75007,0,0,1-.001-1.0542,1.349,1.349,0,0,0,.01855-1.89063,1.27,1.27,0,0,0-.90723-.37842h0a1.322,1.322,0,0,0-.94336.397.748.748,0,0,1-.53222.22168h0a.75075.75075,0,0,1-.5332-.22217L3.40039,14.61768a1.40181,1.40181,0,0,1,.00586-1.96534l9.22852-9.3208A1.38582,1.38582,0,0,1,13.625,2.918h0a1.367,1.367,0,0,1,.97754.40723l1.54883,1.56542a.75037.75037,0,0,1,0,1.05518,1.348,1.348,0,0,0-.01953,1.89209,1.33123,1.33123,0,0,0,1.85254-.02.75245.75245,0,0,1,.5332-.22217h0a.75076.75076,0,0,1,.5332.22217l1.54883,1.56445a1.40181,1.40181,0,0,1-.00586,1.96534l-9.22852,9.3208A1.38582,1.38582,0,0,1,10.375,21.082ZM9.36719,18.51172l1.01074,1.02148L19.459,10.3623l-1.01171-1.022a2.804,2.804,0,0,1-3.81543-3.853L13.62207,4.4668,4.541,13.6377l1.01367,1.02294A2.80334,2.80334,0,0,1,6.959,14.28613H6.96a2.76122,2.76122,0,0,1,1.97266.82276A2.84838,2.84838,0,0,1,9.36719,18.51172Z"/><path d="M12.31055,15.18164a.74673.74673,0,0,1-.53028-.21973L9.17969,12.36182a.74992.74992,0,0,1,1.06054-1.06055l2.60059,2.6001a.75.75,0,0,1-.53027,1.28027Z"/><path d="M14.43164,13.06006a.74671.74671,0,0,1-.53027-.21973l-2.60059-2.6001a.74992.74992,0,1,1,1.06055-1.06054l2.60058,2.6001a.75.75,0,0,1-.53027,1.28027Z"/></svg>