<svg id="icons" xmlns="http://www.w3.org/2000/svg" viewBox="0 0 24 24"><title>01-18-crop-m</title><rect id="canvas" width="24" height="24" style="fill:none"/><path d="M19.25,15.4082H16.89258V8.88184a1.78943,1.78943,0,0,0-1.78516-1.79h-6.5V4.72363a.75.75,0,0,0-1.5,0V7.0918H4.75a.75.75,0,1,0,0,1.5H7.10742v6.52636a1.78943,1.78943,0,0,0,1.78516,1.79h6.5v2.36817a.75.75,0,0,0,1.5,0V16.9082H19.25a.75.75,0,0,0,0-1.5Zm-10.35742,0a.28781.28781,0,0,1-.28516-.29V8.5918h6.5a.28781.28781,0,0,1,.28516.29V15.4082Z"/></svg>