<svg id="icons" xmlns="http://www.w3.org/2000/svg" viewBox="0 0 24 24"><title>02-08-cup-m</title><rect id="canvas" width="24" height="24" style="fill:none"/><path d="M19.36035,6.18994H17.34961V5.18018a1.75212,1.75212,0,0,0-1.75-1.75H8.3999a1.75212,1.75212,0,0,0-1.75,1.75V6.18994H4.64014A1.67169,1.67169,0,0,0,2.97021,7.85986V9.7002A3.514,3.514,0,0,0,6.48,13.21h.302a4.74422,4.74422,0,0,0,4.468,3.665v2.19482H9.24023a.75.75,0,0,0,0,1.5h5.51954a.75.75,0,0,0,0-1.5H12.75V16.875a4.744,4.744,0,0,0,4.46753-3.665h.302A3.51456,3.51456,0,0,0,21.03027,9.7002V7.85986A1.67168,1.67168,0,0,0,19.36035,6.18994ZM4.47021,9.7002V7.85986a.17.17,0,0,1,.16993-.16992H6.6499v4.02H6.48A2.01178,2.01178,0,0,1,4.47021,9.7002Zm8.12989,5.68994H11.3999a3.25377,3.25377,0,0,1-3.25-3.25v-6.96a.25048.25048,0,0,1,.25-.25h7.19971a.25048.25048,0,0,1,.25.25v6.96A3.25366,3.25366,0,0,1,12.6001,15.39014ZM19.53027,9.7002A2.0126,2.0126,0,0,1,17.51953,11.71h-.16992v-4.02h2.01074a.17.17,0,0,1,.16992.16992Z"/></svg>