<svg id="icons" xmlns="http://www.w3.org/2000/svg" viewBox="0 0 24 24"><title>01-04-customers-m_1</title><rect id="canvas" width="24" height="24" style="fill:none"/><ellipse cx="16.13772" cy="10.94674" rx="2.47168" ry="2.44815" style="fill:#089b9c"/><path d="M16.13784,15.10227a6.8654,6.8654,0,0,0-2.1073.36365,6.08665,6.08665,0,0,1,1.43982,3.0072,1.21835,1.21835,0,0,1-1.05164,1.52546h5.74054a.94781.94781,0,0,0,.81812-1.18677C20.46608,16.34544,18.90426,15.17924,16.13784,15.10227Z" style="fill:#089b9c"/><ellipse cx="9.2495" cy="8.36348" rx="3.17705" ry="3.14682" style="fill:#13c2bc"/><path d="M14.41874,19.99859a1.21832,1.21832,0,0,0,1.05161-1.52544,6.0792,6.0792,0,0,0-1.44994-3.0199A6.48667,6.48667,0,0,0,9.24967,13.705c-3.55483.09891-5.56314,1.59795-6.2206,4.76812a1.21832,1.21832,0,0,0,1.05159,1.52552Z" style="fill:#13c2bc"/></svg>