<svg id="icons" xmlns="http://www.w3.org/2000/svg" viewBox="0 0 24 24"><defs><style>.cls-1{fill:none;}</style></defs><title>01-14-cut-m</title><rect id="canvas" class="cls-1" width="24" height="24"/><path d="M19.69727,18.9541a.7494.7494,0,0,1-.53565-.22461L15.05615,14.543a.7503.7503,0,0,1,1.07129-1.05078l4.10547,4.18652a.75049.75049,0,0,1-.53564,1.27539Z"/><path d="M20.22217,5.25879a.74976.74976,0,0,0-1.06055.00976l-5.5495,5.65925L8.67236,5.89062c-.00659-.00671-.01568-.00872-.02246-.01513A2.96465,2.96465,0,0,0,6.55078,5,3.043,3.043,0,1,0,9.43915,8.81567l3.12213,3.18372L9.4389,15.18347A2.99989,2.99989,0,1,0,6.55078,19a2.96519,2.96519,0,0,0,2.10529-.88068c.00488-.0047.01153-.006.01629-.01092L20.23291,6.31934A.74977.74977,0,0,0,20.22217,5.25879ZM6.55078,9.585A1.54312,1.54312,0,1,1,8.04932,8.043,1.52192,1.52192,0,0,1,6.55078,9.585ZM5.05273,15.957a1.49894,1.49894,0,1,1,1.498,1.543A1.52192,1.52192,0,0,1,5.05273,15.957Z"/></svg>