<?xml version="1.0" encoding="utf-8"?>
<!-- Generator: Adobe Illustrator 25.2.1, SVG Export Plug-In . SVG Version: 6.00 Build 0)  -->
<svg version="1.1" id="Warstwa_1" xmlns="http://www.w3.org/2000/svg" xmlns:xlink="http://www.w3.org/1999/xlink" x="0px" y="0px"
	 viewBox="0 0 18 18" style="enable-background:new 0 0 18 18;" xml:space="preserve">
<style type="text/css">
	.st0{fill:#8BCAFF;}
	.st1{fill:#0B68FF;}
	.st2{fill:#4DA7FE;}
</style>
<g>
	<path class="st0" d="M2,0h14c1.105,0,2,0.895,2,2v14c0,1.105-0.895,2-2,2H2c-1.105,0-2-0.895-2-2V2C0,0.895,0.895,0,2,0z"/>
	<path class="st1" d="M8,10.5h10V16c0,1.105-0.895,2-2,2H8l0,0V10.5z"/>
	<path class="st2" d="M8,0h8c1.105,0,2,0.895,2,2v9l0,0H8V0z"/>
</g>
</svg>
