<svg id="icons" xmlns="http://www.w3.org/2000/svg" viewBox="0 0 24 24"><defs><style>.cls-1{fill:none;}</style></defs><rect id="canvas" class="cls-1" width="24" height="24"/><path d="M9.06055,12l3.89453-3.89453a.74992.74992,0,0,0-1.06055-1.06055l-4.4248,4.42481a.74972.74972,0,0,0,0,1.06054l4.4248,4.42481a.74992.74992,0,0,0,1.06055-1.06055Z"/><path d="M12.63574,12l3.89453-3.89453a.74992.74992,0,0,0-1.06054-1.06055l-4.42481,4.42481a.74972.74972,0,0,0,0,1.06054l4.42481,4.42481a.74992.74992,0,0,0,1.06054-1.06055Z"/></svg>