<svg id="icons" xmlns="http://www.w3.org/2000/svg" viewBox="0 0 24 24"><defs><style>.cls-1{fill:none;}</style></defs><rect id="canvas" class="cls-1" width="24" height="24"/><path d="M12.14844,7.04492a.74992.74992,0,0,0-1.06055,1.06055L14.98242,12l-3.89453,3.89453a.74992.74992,0,1,0,1.06055,1.06055l4.4248-4.42481a.74972.74972,0,0,0,0-1.06054Z"/><path d="M12.998,11.46973,8.57324,7.04492A.74992.74992,0,0,0,7.5127,8.10547L11.40723,12,7.5127,15.89453a.74992.74992,0,1,0,1.06054,1.06055L12.998,12.53027A.74972.74972,0,0,0,12.998,11.46973Z"/></svg>