<svg id="icons" xmlns="http://www.w3.org/2000/svg" viewBox="0 0 24 24"><title>01-28-dropbox-m</title><rect id="canvas" width="24" height="24" style="fill:none"/><path d="M20.58008,11.23828,17.83173,9.89337l2.74835-1.34552a.75059.75059,0,0,0,0-1.34765l-4.125-2.01856a.75328.75328,0,0,0-.66016,0L12,7.0387,8.20508,5.18164a.75328.75328,0,0,0-.66016,0L3.41992,7.2002a.75059.75059,0,0,0,0,1.34765L6.16827,9.89337,3.41992,11.23828a.75059.75059,0,0,0,0,1.34766L7.125,14.399v1.727a.751.751,0,0,0,.41992.67382l4.125,2.01856a.75328.75328,0,0,0,.66016,0l4.125-2.01856A.751.751,0,0,0,16.875,16.126V14.399l3.70508-1.813a.75059.75059,0,0,0,0-1.34766ZM14.41827,9.89337,12,11.07678,9.58173,9.89337,12,8.70947ZM16.125,6.69043,18.544,7.874,16.12549,9.05835,13.70624,7.874Zm-8.25,0L10.29376,7.874,7.87451,9.05835,5.45605,7.874ZM7.87457,10.7287l2.41889,1.18365L7.875,13.0957,5.45605,11.91211ZM12,17.30957,8.625,15.6582V14.399L12,12.74744,15.375,14.399V15.6582Zm4.125-4.21387-2.41846-1.18335,2.41889-1.18365L18.544,11.91211Z"/></svg>