<svg id="icons" xmlns="http://www.w3.org/2000/svg" viewBox="0 0 24 24"><defs><style>.cls-1{fill:none;}</style></defs><title>01-11-duplicate-s</title><rect id="canvas" class="cls-1" width="24" height="24"/><path d="M17.25,13.89a.76.76,0,0,1-.75-.75V7.91a.41.41,0,0,0-.41-.41H10.87a.75.75,0,1,1,0-1.5h5.22A1.92,1.92,0,0,1,18,7.91v5.23A.76.76,0,0,1,17.25,13.89Z"/><path d="M13.13,18H7.91A1.92,1.92,0,0,1,6,16.08V10.8A1.93,1.93,0,0,1,7.91,8.87h5.22A1.93,1.93,0,0,1,15,10.8v5.28A1.92,1.92,0,0,1,13.13,18ZM7.91,10.37a.42.42,0,0,0-.41.43v5.28a.41.41,0,0,0,.41.42h5.22a.41.41,0,0,0,.41-.42V10.8a.42.42,0,0,0-.41-.43Z"/></svg>