<svg id="icons" xmlns="http://www.w3.org/2000/svg" viewBox="0 0 24 24"><title>01-11-duplicate-m</title><rect id="canvas" width="24" height="24" style="fill:none"/><path d="M10.38867,14.49707a.86883.86883,0,0,1-.86133-.87353.75.75,0,0,0-1.5,0,2.37043,2.37043,0,0,0,2.36133,2.37353.75.75,0,0,0,0-1.5Z"/><path d="M17.63867,3.94434h-7.25A2.37043,2.37043,0,0,0,8.02734,6.31787V8.00293h-1.666A2.37043,2.37043,0,0,0,4,10.37646v7.30567a2.37043,2.37043,0,0,0,2.36133,2.37353h7.25a2.37043,2.37043,0,0,0,2.36133-2.37353V15.99707h1.666A2.37043,2.37043,0,0,0,20,13.62354V6.31787A2.37043,2.37043,0,0,0,17.63867,3.94434Zm-3.166,10.55273H13.34277a.75.75,0,0,0,0,1.5h1.12989v1.68506a.86883.86883,0,0,1-.86133.87353h-7.25A.86883.86883,0,0,1,5.5,17.68213V10.37646a.86883.86883,0,0,1,.86133-.87353h1.666v.98193a.75.75,0,0,0,1.5,0V9.50293h4.084a.86883.86883,0,0,1,.86133.87353Zm1.5-4.12061a2.37043,2.37043,0,0,0-2.36133-2.37353h-4.084V6.31787a.86883.86883,0,0,1,.86133-.87353h7.25A.86883.86883,0,0,1,18.5,6.31787v7.30567a.86883.86883,0,0,1-.86133.87353h-1.666Z"/></svg>