<svg id="icons" xmlns="http://www.w3.org/2000/svg" viewBox="0 0 24 24"><title>01-17-facebook-fill-m</title><rect id="canvas" width="24" height="24" style="fill:none"/><path d="M15.62891,3.87988H8.375A4.41063,4.41063,0,0,0,4,8.31494v7.37354a4.40688,4.40688,0,0,0,4.37109,4.43164h3.60352V13.48633h-.69922a.74976.74976,0,1,1,0-1.49951h.69922v-.76075a2.91009,2.91009,0,0,1,2.88867-2.92431H15.625a.75.75,0,0,1,0,1.5h-.76172a1.40862,1.40862,0,0,0-1.38867,1.42431v.76075H15.625a.74976.74976,0,1,1,0,1.49951H13.47461v6.63379h2.1543A4.40688,4.40688,0,0,0,20,15.68848v-7.377A4.40657,4.40657,0,0,0,15.62891,3.87988Z"/></svg>