<svg id="icons" xmlns="http://www.w3.org/2000/svg" viewBox="0 0 24 24"><title>01-16-facebook-m</title><rect id="canvas" width="24" height="24" style="fill:none"/><path d="M15.62891,3.87988H8.375A4.41063,4.41063,0,0,0,4,8.31494v7.37354a4.40688,4.40688,0,0,0,4.37109,4.43164h7.25782A4.40688,4.40688,0,0,0,20,15.68848v-7.377A4.40657,4.40657,0,0,0,15.62891,3.87988ZM18.5,15.68848a2.9054,2.9054,0,0,1-2.87109,2.93164h-2.1543V13.48633H15.625a.74976.74976,0,1,0,0-1.49951H13.47461v-.76075a1.40862,1.40862,0,0,1,1.38867-1.42431H15.625a.75.75,0,0,0,0-1.5h-.76172a2.91009,2.91009,0,0,0-2.88867,2.92431v.76075h-.69922a.74976.74976,0,1,0,0,1.49951h.69922v5.13379H8.37109A2.9054,2.9054,0,0,1,5.5,15.68848V8.31494A2.90915,2.90915,0,0,1,8.375,5.37988h7.25391A2.90509,2.90509,0,0,1,18.5,8.31152Z"/></svg>