<svg id="icons" xmlns="http://www.w3.org/2000/svg" viewBox="0 0 32 32"><defs><style>.cls-1{fill:#fff;opacity:0;}</style></defs><title>file-type-txt</title><rect id="canvas" class="cls-1" width="32" height="32"/><path d="M18.10938,14.21729l-.01758.01855-7.58789,7.66357a.7529.7529,0,0,0-.2168.53223l.01172,1.92285a.75043.75043,0,0,0,.75.74512h.00195l1.919-.00586a.77227.77227,0,0,0,.53711-.22852l7.59668-7.67187A2.10952,2.10952,0,0,0,21.085,14.2085,2.11956,2.11956,0,0,0,18.10938,14.21729Zm1.92773,1.92089L12.6543,23.59473l-.86035.00293-.00489-.86426L19.167,15.28125l.00879-.00879a.616.616,0,0,1,.85645.0044.60945.60945,0,0,1,.00488.86132Z"/><path d="M18.88379,3.09814A3.94785,3.94785,0,0,0,16.14551,2H9.17383A3.96645,3.96645,0,0,0,5.21191,5.96191V26.03809A3.96645,3.96645,0,0,0,9.17383,30H22.82617a3.96645,3.96645,0,0,0,3.96192-3.96191V12.34717A3.97591,3.97591,0,0,0,25.56348,9.4834Zm6.4043,22.94A2.46481,2.46481,0,0,1,22.82617,28.5H9.17383a2.46481,2.46481,0,0,1-2.46192-2.46191V5.96191A2.46481,2.46481,0,0,1,9.17383,3.5h6.97168a2.45066,2.45066,0,0,1,1.70117.68213l6.68066,6.38574a2.47223,2.47223,0,0,1,.76075,1.7793Z"/></svg>