<svg id="icons" xmlns="http://www.w3.org/2000/svg" viewBox="0 0 32 32"><defs><style>.cls-1{fill:#fff;opacity:0;}</style></defs><title>file-type-xls</title><rect id="canvas" class="cls-1" width="32" height="32"/><path d="M18.88379,3.09814A3.94785,3.94785,0,0,0,16.14551,2H9.17383A3.96645,3.96645,0,0,0,5.21191,5.96191V26.03809A3.96645,3.96645,0,0,0,9.17383,30H22.82617a3.96645,3.96645,0,0,0,3.96192-3.96191V12.34717A3.97591,3.97591,0,0,0,25.56348,9.4834ZM6.71191,20.09961h2.5v3.5h-2.5Zm4,0h2.5v3.5h-2.5Zm2.5,5V28.5h-2.5V25.09961Zm1.5,0h2.5V28.5h-2.5Zm0-1.5v-3.5h2.5v3.5Zm4-3.5h6.57618v3.5H18.71191ZM9.17383,3.5h6.97168a2.45066,2.45066,0,0,1,1.70117.68213l6.68066,6.38574a2.47223,2.47223,0,0,1,.76075,1.7793v6.25244H6.71191V5.96191A2.46481,2.46481,0,0,1,9.17383,3.5ZM6.71191,26.03809v-.93848h2.5V28.5H9.17383A2.46481,2.46481,0,0,1,6.71191,26.03809ZM22.82617,28.5H18.71191V25.09961h6.57618v.93848A2.46481,2.46481,0,0,1,22.82617,28.5Z"/></svg>