<svg id="icons" xmlns="http://www.w3.org/2000/svg" viewBox="0 0 32 32"><defs><style>.cls-1{fill:#fff;opacity:0;}</style></defs><title>file-type-pdf</title><rect id="canvas" class="cls-1" width="32" height="32"/><path d="M22.21948,19.78284a.74894.74894,0,0,0-.01416-.15619.72767.72767,0,0,0-.05761-.12488.43394.43394,0,0,0-.17023-.22614.721.721,0,0,0-.11164-.09454.75155.75155,0,0,0-.13623-.05133.71029.71029,0,0,0-.12414-.04675c-.01233-.002-.02332-.00208-.03565-.00409l-.00244-.0008c-.26239-.02917-6.209-.76611-8.33038-6.08862a6.53331,6.53331,0,0,0-.28-.72241.7024.7024,0,0,0-.058-.07556.733.733,0,0,0-.09015-.11743.71561.71561,0,0,0-.10974-.0868.58541.58541,0,0,0-.2525-.10974.71412.71412,0,0,0-.15345-.02142.72789.72789,0,0,0-.13263.01489.70173.70173,0,0,0-.10492.01178c-.01971.00629-.03326.02124-.05206.02893-.01526.00623-.03149.00476-.04657.01209a.70071.70071,0,0,0-.06744.05127.72723.72723,0,0,0-.13263.101.71358.71358,0,0,0-.0766.0968.58933.58933,0,0,0-.11548.25739.71924.71924,0,0,0-.02264.15692.72714.72714,0,0,0,.01489.13556.70117.70117,0,0,0,.01123.10248c.07758.243.17535.46191.26538.69012.46387,1.42535,1.23956,5.28223-1.71655,10.08527l-.00055.00146-.02191.0376a.70688.70688,0,0,0-.03736.1239.75611.75611,0,0,0-.042.13934.7259.7259,0,0,0,.00592.14374.73989.73989,0,0,0,.01434.14209.74809.74809,0,0,0,.05652.12482.72318.72318,0,0,0,.06952.132.75161.75161,0,0,0,.105.098.71007.71007,0,0,0,.09558.08923c.00812.005.01709.00647.02527.01105.00537.003.0083.00848.0138.01141.00934.005.01989.00281.02936.00739a.70943.70943,0,0,0,.694-.01892c.03674-.02075.05889-.06024.09191-.08722a.7152.7152,0,0,0,.17786-.16882c.00794-.01288.01355-.02521.02142-.038l.001-.001c.02625-.04864,2.72266-4.91876,9.8692-3.79437.05591.00751.10224.01324.11908.01508a.75067.75067,0,0,0,.08106.0039,159.758,159.758,0,0,0,.21252-.03973.72669.72669,0,0,0,.16132-.0744.74674.74674,0,0,0,.08075-.04944.73582.73582,0,0,0,.127-.13379.71964.71964,0,0,0,.06018-.07709.74709.74709,0,0,0,.06385-.1673.68849.68849,0,0,0,.03363-.08813c.00116-.007-.00171-.01343-.0008-.02039.00092-.00665.005-.012.00568-.01867A.7113.7113,0,0,0,22.21948,19.78284Zm-9.08191.81506a13.6497,13.6497,0,0,0,.64-3.91913,11.43289,11.43289,0,0,0,3.146,2.42658A10.58759,10.58759,0,0,0,13.13757,20.5979Z"/><path d="M25.56348,9.4834,18.88379,3.09814A3.94785,3.94785,0,0,0,16.14551,2H9.17383A3.96645,3.96645,0,0,0,5.21191,5.96191V26.03809A3.96645,3.96645,0,0,0,9.17383,30H22.82617a3.96645,3.96645,0,0,0,3.96192-3.96191V12.34717A3.97591,3.97591,0,0,0,25.56348,9.4834Zm-.27539,16.55469A2.46481,2.46481,0,0,1,22.82617,28.5H9.17383a2.46481,2.46481,0,0,1-2.46192-2.46191V5.96191A2.46481,2.46481,0,0,1,9.17383,3.5h6.97168a2.45066,2.45066,0,0,1,1.70117.68213l6.68066,6.38574a2.47223,2.47223,0,0,1,.76075,1.7793Z"/></svg>