<svg id="icons" xmlns="http://www.w3.org/2000/svg" viewBox="0 0 32 32"><defs><style>.cls-1{fill:#fff;opacity:0;}</style></defs><title>file-type-mp3</title><rect id="canvas" class="cls-1" width="32" height="32"/><path d="M19.31348,13.62012l-4.97071.87646a2.55738,2.55738,0,0,0-2.07422,2.44971v3.75452a2.24844,2.24844,0,0,0-.77246-.14417,2.27149,2.27149,0,1,0,2.27246,2.27148c0-.0595-.01306-.11541-.01757-.17376a.70575.70575,0,0,0,.01757-.087V19.087l5.50684-.97089v2.11975a2.24593,2.24593,0,0,0-.77148-.144,2.272,2.272,0,1,0,2.24347,2.54986.71433.71433,0,0,0,.028-.13873v-7.665a1.23555,1.23555,0,0,0-.43555-.95312A1.25915,1.25915,0,0,0,19.31348,13.62012Zm-7.81739,9.97949a.77149.77149,0,1,1,.77246-.77149A.77186.77186,0,0,1,11.49609,23.59961Zm2.27246-6.0351v-.61822a1.06253,1.06253,0,0,1,.834-.97217l4.67285-.82422v1.44336Zm4.73536,5.57123a.772.772,0,1,1,.77148-.77148A.77269.77269,0,0,1,18.50391,23.13574Z"/><path d="M18.88379,3.09814A3.94785,3.94785,0,0,0,16.14551,2H9.17383A3.96645,3.96645,0,0,0,5.21191,5.96191V26.03809A3.96645,3.96645,0,0,0,9.17383,30H22.82617a3.96645,3.96645,0,0,0,3.96192-3.96191V12.34717A3.97591,3.97591,0,0,0,25.56348,9.4834Zm6.4043,22.94A2.46481,2.46481,0,0,1,22.82617,28.5H9.17383a2.46481,2.46481,0,0,1-2.46192-2.46191V5.96191A2.46481,2.46481,0,0,1,9.17383,3.5h6.97168a2.45066,2.45066,0,0,1,1.70117.68213l6.68066,6.38574a2.47223,2.47223,0,0,1,.76075,1.7793Z"/></svg>