<svg id="icons" xmlns="http://www.w3.org/2000/svg" viewBox="0 0 32 32"><defs><style>.cls-1{fill:#fff;opacity:0;}</style></defs><title>file-type-svg</title><rect id="canvas" class="cls-1" width="32" height="32"/><path d="M23.30762,19.92969H18.80078V18.72754a.7502.7502,0,0,0-.75-.75h-3.9043a.7502.7502,0,0,0-.75.75v1.20215H8.88965a.75.75,0,0,0,0,1.5h2.0285a4.24418,4.24418,0,0,0-1.05389,2.78222.75.75,0,0,0,1.5,0,2.77774,2.77774,0,0,1,2.03222-2.6665v1.0874a.75019.75019,0,0,0,.75.75h3.9043a.75019.75019,0,0,0,.75-.75v-1.0874a2.77774,2.77774,0,0,1,2.03223,2.6665.75.75,0,1,0,1.5,0,4.24414,4.24414,0,0,0-1.0539-2.78222h2.02851a.75.75,0,0,0,0-1.5Zm-6.00684,1.95312h-2.4043V19.47754h2.4043Z"/><path d="M18.88379,3.09814A3.94785,3.94785,0,0,0,16.14551,2H9.17383A3.96645,3.96645,0,0,0,5.21191,5.96191V26.03809A3.96645,3.96645,0,0,0,9.17383,30H22.82617a3.96645,3.96645,0,0,0,3.96192-3.96191V12.34717A3.97591,3.97591,0,0,0,25.56348,9.4834Zm6.4043,22.94A2.46481,2.46481,0,0,1,22.82617,28.5H9.17383a2.46481,2.46481,0,0,1-2.46192-2.46191V5.96191A2.46481,2.46481,0,0,1,9.17383,3.5h6.97168a2.45066,2.45066,0,0,1,1.70117.68213l6.68066,6.38574a2.47223,2.47223,0,0,1,.76075,1.7793Z"/></svg>