<svg id="icons" xmlns="http://www.w3.org/2000/svg" viewBox="0 0 32 32"><defs><style>.cls-1{fill:#fff;opacity:0;}</style></defs><title>file-type-video</title><rect id="canvas" class="cls-1" width="32" height="32"/><path d="M16,13.0708a6.27906,6.27906,0,1,0,6.2793,6.27881A6.286,6.286,0,0,0,16,13.0708Zm0,11.05811a4.77906,4.77906,0,1,1,4.7793-4.7793A4.78417,4.78417,0,0,1,16,24.12891Z"/><path d="M18.27148,18.42969l-2.66015-1.61817a1.095,1.095,0,0,0-1.09863-.01709,1.07964,1.07964,0,0,0-.54981.938v3.23535a1.07815,1.07815,0,0,0,.55078.93848,1.08571,1.08571,0,0,0,1.09863-.01953l2.66114-1.61817a1.07437,1.07437,0,0,0-.002-1.83886Zm-2.80859,1.793v-1.7461l1.43555.873Zm2.0293-.51075h.001l.001.001Z"/><path d="M18.88379,3.09814A3.94785,3.94785,0,0,0,16.14551,2H9.17383A3.96645,3.96645,0,0,0,5.21191,5.96191V26.03809A3.96645,3.96645,0,0,0,9.17383,30H22.82617a3.96645,3.96645,0,0,0,3.96192-3.96191V12.34717A3.97591,3.97591,0,0,0,25.56348,9.4834Zm6.4043,22.94A2.46481,2.46481,0,0,1,22.82617,28.5H9.17383a2.46481,2.46481,0,0,1-2.46192-2.46191V5.96191A2.46481,2.46481,0,0,1,9.17383,3.5h6.97168a2.45066,2.45066,0,0,1,1.70117.68213l6.68066,6.38574a2.47223,2.47223,0,0,1,.76075,1.7793Z"/></svg>