<svg id="icons" xmlns="http://www.w3.org/2000/svg" viewBox="0 0 32 32"><defs><style>.cls-1{fill:#fff;opacity:0;}</style></defs><title>file-type-html</title><rect id="canvas" class="cls-1" width="32" height="32"/><path d="M18.35156,14.85889a.75029.75029,0,0,0-1.09375,1.02734l3.27246,3.48-3.27246,3.48047A.75029.75029,0,0,0,18.35156,23.874l3.75489-3.99414a.75173.75173,0,0,0,0-1.02734Z"/><path d="M14.709,14.793a.74926.74926,0,0,0-1.06054.03271L9.89355,18.81934a.75173.75173,0,0,0,0,1.02734l3.75489,3.99414a.75029.75029,0,0,0,1.09375-1.02734L11.46973,19.333l3.27246-3.48A.7504.7504,0,0,0,14.709,14.793Z"/><path d="M18.88379,3.09814A3.94785,3.94785,0,0,0,16.14551,2H9.17383A3.96645,3.96645,0,0,0,5.21191,5.96191V26.03809A3.96645,3.96645,0,0,0,9.17383,30H22.82617a3.96645,3.96645,0,0,0,3.96192-3.96191V12.34717A3.97591,3.97591,0,0,0,25.56348,9.4834Zm6.4043,22.94A2.46481,2.46481,0,0,1,22.82617,28.5H9.17383a2.46481,2.46481,0,0,1-2.46192-2.46191V5.96191A2.46481,2.46481,0,0,1,9.17383,3.5h6.97168a2.45066,2.45066,0,0,1,1.70117.68213l6.68066,6.38574a2.47223,2.47223,0,0,1,.76075,1.7793Z"/></svg>