<svg id="file-m" xmlns="http://www.w3.org/2000/svg" viewBox="0 0 24 24" style="enable-background:new 0 0 24 24">
  <rect id="bg" width="24" height="24" style="opacity:0;fill:#f2f2f2"/>
  <path id="path" d="M16.744 7.262l-3.6-2.677A2.9825 2.9825 0 0 0 11.37 4H9.006C7.348 4.001 6.004 5.342 6 7v10c0 1.657 1.343 3 3 3h5.991c1.659.001 3.005-1.341 3.009-3V9.757a3.1244 3.1244 0 0 0-1.256-2.495zM16 17c0 .552-.448 1-1 1H9c-.552 0-1-.448-1-1V7c0-.552.448-1 1-1h2.37c.208 0 .41.067.577.19l3.6 2.677c.282.209.448.539.449.89L16 17z"/>
</svg>
