<svg id="icons" xmlns="http://www.w3.org/2000/svg" viewBox="0 0 24 24"><title>10-01-input-m</title><rect id="canvas" width="24" height="24" style="fill:none"/><path d="M5.92773,17H8.79346v2.5H7.2749a.75.75,0,1,0,0,1.5h4.5a.75.75,0,1,0,0-1.5H10.29346V17h8.13427a2.75279,2.75279,0,0,0,2.75-2.75V9.75a2.75279,2.75279,0,0,0-2.75-2.75H10.29346V4.5H11.7749a.75.75,0,0,0,0-1.5h-4.5a.75.75,0,1,0,0,1.5H8.79346V7H5.92773a2.7528,2.7528,0,0,0-2.75,2.75v4.5A2.7528,2.7528,0,0,0,5.92773,17Zm12.5-8.5a1.25116,1.25116,0,0,1,1.25,1.25v4.5a1.25116,1.25116,0,0,1-1.25,1.25H10.29346v-7Zm-13.75,1.25a1.25116,1.25116,0,0,1,1.25-1.25H8.79346v7H5.92773a1.25116,1.25116,0,0,1-1.25-1.25Z"/></svg>