<svg id="icons" xmlns="http://www.w3.org/2000/svg" viewBox="0 0 24 24"><title>01-21-instagram-fill-m</title><rect id="canvas" width="24" height="24" style="fill:none"/><ellipse cx="12" cy="12" rx="2.0918" ry="2.15039"/><path d="M15.55566,4H8.44434A4.34013,4.34013,0,0,0,4.146,8.37109v7.25782A4.34013,4.34013,0,0,0,8.44434,20h7.11132A4.34013,4.34013,0,0,0,19.854,15.62891V8.37109A4.34013,4.34013,0,0,0,15.55566,4ZM12,15.65039A3.65087,3.65087,0,1,1,15.5918,12,3.62567,3.62567,0,0,1,12,15.65039Zm4.17444-6.63788a1,1,0,0,1-.00342-2h.00269a1,1,0,0,1,.00073,2Z"/></svg>