<svg id="icons" xmlns="http://www.w3.org/2000/svg" viewBox="0 0 24 24"><title>01-20-instagram-m</title><rect id="canvas" width="24" height="24" style="fill:none"/><path d="M15.55566,4H8.44434A4.34013,4.34013,0,0,0,4.146,8.37109v7.25782A4.34013,4.34013,0,0,0,8.44434,20h7.11132A4.34013,4.34013,0,0,0,19.854,15.62891V8.37109A4.34013,4.34013,0,0,0,15.55566,4ZM18.354,15.62891A2.83873,2.83873,0,0,1,15.55566,18.5H8.44434A2.83873,2.83873,0,0,1,5.646,15.62891V8.37109A2.83873,2.83873,0,0,1,8.44434,5.5h7.11132A2.83873,2.83873,0,0,1,18.354,8.37109Z"/><path d="M12,8.34961A3.65087,3.65087,0,1,0,15.5918,12,3.62567,3.62567,0,0,0,12,8.34961Zm0,5.80078A2.15121,2.15121,0,1,1,14.0918,12,2.12429,2.12429,0,0,1,12,14.15039Z"/><path d="M16.17371,7.01251H16.171a1.00135,1.00135,0,1,0,.00269,0Z"/></svg>