<svg id="icons" xmlns="http://www.w3.org/2000/svg" viewBox="0 0 24 24"><title>02-07-like-m</title><rect id="canvas" width="24" height="24" style="fill:none"/><path d="M20.20166,10.45312a2.576,2.576,0,0,0-2.144-1.14453H15.606V6.68994a2.606,2.606,0,0,0-.59278-1.65234,2.5756,2.5756,0,0,0-2.00048-.92383A2.52293,2.52293,0,0,0,11.044,5.105L7.71472,9.43915a1.62618,1.62618,0,0,0-1.09363-.42743h-1.96A1.653,1.653,0,0,0,3.00977,10.6626v7.57275a1.653,1.653,0,0,0,1.65136,1.65088h1.96a1.6381,1.6381,0,0,0,1.58753-1.25165l.39831.42841a2.5877,2.5877,0,0,0,1.89014.82324H17.001a2.59369,2.59369,0,0,0,2.48047-1.8667l1.40771-4.89062a2.57669,2.57669,0,0,0-.33545-2.14991ZM6.75977,18.24756a.13858.13858,0,0,1-.13868.13867h-1.96a.15139.15139,0,0,1-.15136-.15088V10.6626a.15139.15139,0,0,1,.15136-.15088h1.96a.13858.13858,0,0,1,.13868.13867Zm12.688-5.53369L18.04,17.60449a1.08693,1.08693,0,0,1-1.03906.78174H10.49707a1.08446,1.08446,0,0,1-.792-.34473L8.25977,16.48657V11.19214L12.2334,6.019a1.03062,1.03062,0,0,1,.80469-.40527,1.018,1.018,0,0,1,.81689.37695,1.10157,1.10157,0,0,1,.251.69922v3.36865a.75018.75018,0,0,0,.75.75h3.20166a1.078,1.078,0,0,1,.89746.479l.35205.52588A1.07806,1.07806,0,0,1,19.44775,12.71387Z"/></svg>