<svg id="icons" xmlns="http://www.w3.org/2000/svg" viewBox="0 0 24 24"><title>01-23-linkedin-fill-m</title><rect id="canvas" width="24" height="24" style="fill:none"/><path d="M16.12891,3H7.875A4.88,4.88,0,0,0,3,7.875v8.25391A4.87711,4.87711,0,0,0,7.87109,21h8.25782A4.87711,4.87711,0,0,0,21,16.12891V7.87109A4.87711,4.87711,0,0,0,16.12891,3ZM8.44019,7.64062h.002a.749.749,0,1,1-.002,0ZM9.19238,16.125a.75.75,0,0,1-1.5,0V11.1748a.75.75,0,1,1,1.5,0Zm7.42481,0a.75.75,0,0,1-1.5,0V13.2373a1.3125,1.3125,0,1,0-2.625,0V16.125a.75.75,0,0,1-1.5,0V13.2373a2.8125,2.8125,0,1,1,5.625,0Z"/></svg>