<svg id="icons" xmlns="http://www.w3.org/2000/svg" viewBox="0 0 24 24"><title>01-22-linkedin-m</title><rect id="canvas" width="24" height="24" style="fill:none"/><path d="M16.12891,3H7.875A4.88,4.88,0,0,0,3,7.875v8.25391A4.87711,4.87711,0,0,0,7.87109,21h8.25782A4.87711,4.87711,0,0,0,21,16.12891V7.87109A4.87711,4.87711,0,0,0,16.12891,3ZM19.5,16.12891A3.37547,3.37547,0,0,1,16.12891,19.5H7.87109A3.37547,3.37547,0,0,1,4.5,16.12891V7.875A3.37837,3.37837,0,0,1,7.875,4.5h8.25391A3.37547,3.37547,0,0,1,19.5,7.87109Z"/><path d="M8.44238,10.4248a.7502.7502,0,0,0-.75.75V16.125a.75.75,0,0,0,1.5,0V11.1748A.75019.75019,0,0,0,8.44238,10.4248Z"/><path d="M13.80469,10.4248a2.81573,2.81573,0,0,0-2.8125,2.8125V16.125a.75.75,0,0,0,1.5,0V13.2373a1.3125,1.3125,0,1,1,2.625,0V16.125a.75.75,0,0,0,1.5,0V13.2373A2.81573,2.81573,0,0,0,13.80469,10.4248Z"/><path d="M8.44238,7.43457h-.001a.95655.95655,0,1,0,.001,0Z"/></svg>