<svg id="icons" xmlns="http://www.w3.org/2000/svg" viewBox="0 0 24 24"><title>10-06-menu-m</title><rect id="canvas" width="24" height="24" style="fill:none"/><path d="M18.40967,5.7168l-2.5249.00195h-.0044a1.21489,1.21489,0,0,1-.876-.376L13.24756,3.5293A1.72109,1.72109,0,0,0,12.00244,3H12.002a1.72412,1.72412,0,0,0-1.24511.5293L8.99707,5.34473a1.21175,1.21175,0,0,1-.87549.37695H5.75244a2.785,2.785,0,0,0-2.75,2.81348v9.65136A2.785,2.785,0,0,0,5.75244,21h12.6792a2.70129,2.70129,0,0,0,1.92432-.80371,2.82407,2.82407,0,0,0,.82568-2.0166l-.022-9.65625A2.786,2.786,0,0,0,18.40967,5.7168ZM19.294,19.13672a1.21121,1.21121,0,0,1-.86231.36328H5.75244a1.284,1.284,0,0,1-1.25-1.31348V8.53516a1.284,1.284,0,0,1,1.25-1.31348H8.12158a2.74026,2.74026,0,0,0,1.95264-.832L11.834,4.57422a.20076.20076,0,0,1,.33692-.001l1.75635,1.81348a2.73874,2.73874,0,0,0,1.9541.832h.00976l2.51856-.00195a1.28489,1.28489,0,0,1,1.25,1.31054l.022,9.65625A1.33174,1.33174,0,0,1,19.294,19.13672Z"/><path d="M16.25,14.59863H7.75a.75.75,0,0,0,0,1.5h8.5a.75.75,0,0,0,0-1.5Z"/><path d="M16.25,11.09863H7.75a.75.75,0,0,0,0,1.5h8.5a.75.75,0,0,0,0-1.5Z"/></svg>