<svg width="24" height="24" viewBox="0 0 24 24" fill="none" xmlns="http://www.w3.org/2000/svg">
<g clip-path="url(#clip0_10552_190)">
<path d="M17.8423 17.7187C17.2941 17.6855 16.7618 17.5213 16.2901 17.2399C15.8184 16.9585 15.4211 16.5682 15.1314 16.1016C14.3394 14.9961 11.4898 10.4736 11.3687 10.2817L11.1133 9.87597L11.374 9.47363C12.2695 8.09375 14.0933 5.82031 16.3071 6.01269C17.8872 6.15869 19.2271 7.53759 20.2896 10.1113C21.7476 13.6465 20.7974 16.4453 19.105 17.3848C18.7195 17.602 18.2848 17.717 17.8423 17.7187ZM12.8989 9.8955C13.6362 11.062 15.7202 14.3486 16.3501 15.2285C16.9917 16.125 17.7329 16.4326 18.3774 16.0722C19.3062 15.5576 20.0835 13.5449 18.9028 10.6836C18.0825 8.69437 17.1372 7.5957 16.1684 7.50637C15.2466 7.41992 14.0181 8.30468 12.8989 9.8955Z" fill="#6A7580"/>
<path d="M6.16397 17.7186C5.72161 17.717 5.28706 17.602 4.90177 17.3846C3.20938 16.4452 2.25968 13.6464 3.71769 10.1112C4.77969 7.53747 6.11954 6.15857 7.70011 6.01257C9.90665 5.81042 11.7377 8.09363 12.6327 9.47351L12.8935 9.87585L12.6381 10.2816C12.517 10.4735 9.66739 14.996 8.87589 16.1014C8.58596 16.5681 8.18843 16.9584 7.71658 17.2398C7.24474 17.5212 6.71233 17.6854 6.16397 17.7186ZM7.96769 7.50037C7.92423 7.50037 7.88077 7.50237 7.8378 7.50623C6.87003 7.59559 5.92472 8.69423 5.1044 10.6835C3.92374 13.5448 4.7006 15.5575 5.62931 16.0722C6.27531 16.4335 7.01505 16.1229 7.65616 15.2284C8.28604 14.3485 10.3705 11.0619 11.1078 9.8954C10.039 8.37684 8.89347 7.50037 7.96769 7.50037Z" fill="#6A7580"/>
</g>
<defs>
<clipPath id="clip0_10552_190">
<rect width="24" height="24" fill="white"/>
</clipPath>
</defs>
</svg>
