<svg id="icons" xmlns="http://www.w3.org/2000/svg" viewBox="0 0 24 24"><title>02-03-play-s</title><rect id="canvas" width="24" height="24" style="fill:none"/><path d="M15.91016,9.7915,9.86475,6.3125a2.61928,2.61928,0,0,0-2.648.00293A2.52793,2.52793,0,0,0,5.93262,8.52148v6.957a2.52728,2.52728,0,0,0,1.28515,2.20605,2.61983,2.61983,0,0,0,2.647.00293L15.91016,14.209a2.53587,2.53587,0,0,0,0-4.41748Zm-.748,3.11719-6.0459,3.479a1.14554,1.14554,0,0,1-1.148-.001,1.03253,1.03253,0,0,1-.53564-.9082v-6.957a1.03171,1.03171,0,0,1,.53515-.90771A1.13879,1.13879,0,0,1,9.1167,7.6123l6.04541,3.4795a1.0359,1.0359,0,0,1,0,1.81689Z"/></svg>