<svg width="24" height="24" viewBox="0 0 24 24" fill="none" xmlns="http://www.w3.org/2000/svg">
<path fill-rule="evenodd" clip-rule="evenodd" d="M6.61481 4.43641C7.10577 4.15295 7.6627 4.00372 8.22961 4.00372C8.79653 4.00372 9.35345 4.15295 9.84441 4.43641L18.1911 9.25535C18.682 9.5388 19.0897 9.9465 19.3732 10.4375C19.6567 10.9284 19.8059 11.4854 19.8059 12.0523C19.8059 12.6192 19.6567 13.1761 19.3732 13.6671C19.0963 14.1467 18.7007 14.5469 18.2248 14.8294L16.4366 16.1098C16.0998 16.3509 15.6313 16.2734 15.3902 15.9366C15.1491 15.5998 15.2266 15.1313 15.5634 14.8902L17.4093 13.5685L17.4411 13.5502C17.704 13.3983 17.9224 13.18 18.0742 12.9171C18.226 12.6541 18.3059 12.3559 18.3059 12.0523C18.3059 11.7487 18.226 11.4504 18.0742 11.1875C17.9224 10.9245 17.704 10.7062 17.4411 10.5544L9.09442 5.73545C8.83148 5.58364 8.53322 5.50372 8.22962 5.50372C7.926 5.50372 7.62774 5.58364 7.36481 5.73545C7.10187 5.88725 6.88353 6.10559 6.73173 6.36853C6.57992 6.63146 6.5 6.92972 6.5 7.23333V9.05227C6.5 9.46649 6.16421 9.80227 5.75 9.80227C5.33579 9.80227 5 9.46649 5 9.05227V7.23332C5 6.66641 5.14923 6.10948 5.43269 5.61852C5.71615 5.12756 6.12385 4.71986 6.61481 4.43641Z"/>
<path fill-rule="evenodd" clip-rule="evenodd" d="M8 20.25C8.41421 20.25 8.75 20.5858 8.75 21V22C8.75 22.4142 8.41421 22.75 8 22.75C7.58579 22.75 7.25 22.4142 7.25 22V21C7.25 20.5858 7.58579 20.25 8 20.25Z"/>
<path fill-rule="evenodd" clip-rule="evenodd" d="M8 11.25C8.41421 11.25 8.75 11.5858 8.75 12V13C8.75 13.4142 8.41421 13.75 8 13.75C7.58579 13.75 7.25 13.4142 7.25 13V12C7.25 11.5858 7.58579 11.25 8 11.25Z"/>
<path fill-rule="evenodd" clip-rule="evenodd" d="M4.75 17C4.75 17.4142 4.41421 17.75 4 17.75H3C2.58579 17.75 2.25 17.4142 2.25 17C2.25 16.5858 2.58579 16.25 3 16.25H4C4.41421 16.25 4.75 16.5858 4.75 17Z"/>
<path fill-rule="evenodd" clip-rule="evenodd" d="M13.75 17C13.75 17.4142 13.4142 17.75 13 17.75H12C11.5858 17.75 11.25 17.4142 11.25 17C11.25 16.5858 11.5858 16.25 12 16.25H13C13.4142 16.25 13.75 16.5858 13.75 17Z"/>
<path fill-rule="evenodd" clip-rule="evenodd" d="M8 19.5C9.38071 19.5 10.5 18.3807 10.5 17C10.5 15.6193 9.38071 14.5 8 14.5C6.61929 14.5 5.5 15.6193 5.5 17C5.5 18.3807 6.61929 19.5 8 19.5ZM8 21C10.2091 21 12 19.2091 12 17C12 14.7909 10.2091 13 8 13C5.79086 13 4 14.7909 4 17C4 19.2091 5.79086 21 8 21Z"/>
</svg>
