<svg id="icons" xmlns="http://www.w3.org/2000/svg" viewBox="0 0 24 24"><title>01-21-rename-m</title><rect id="canvas" width="24" height="24" style="fill:none"/><path d="M13.06055,11.24414a.75011.75011,0,0,1-.75-.74512l-.01221-1.98535a1.8737,1.8737,0,0,1,.53955-1.335l3.60889-3.65723A1.72713,1.72713,0,0,1,17.68262,3h.0039a1.72519,1.72519,0,0,1,1.23389.51562l1.01416,1.02149A1.79079,1.79079,0,0,1,19.93994,7.044h-.00049l-3.57763,3.627a1.86161,1.86161,0,0,1-1.32373.56152l-1.97315.01172ZM17.68652,4.5H17.686a.234.234,0,0,0-.1709.07422L13.90625,8.23145a.38927.38927,0,0,0-.10791.27246l.00781,1.23535,1.22266-.00684a.37907.37907,0,0,0,.26465-.11426l3.57763-3.62695a.289.289,0,0,0-.00146-.39844L17.856,4.57227A.235.235,0,0,0,17.68652,4.5Zm1.71875,2.01758h0Z"/><path d="M17.5,21H13a.75.75,0,0,1,0-1.5h4.5a1.62843,1.62843,0,0,0,1.6001-1.65137v-.15234A1.62843,1.62843,0,0,0,17.5,16.04492H6.5a3.1513,3.1513,0,0,1,0-6.30176H9.9502a.75.75,0,0,1,0,1.5H6.5a1.65169,1.65169,0,0,0,0,3.30176h11a3.12978,3.12978,0,0,1,3.1001,3.15137v.15234A3.12978,3.12978,0,0,1,17.5,21Z"/></svg>