<svg id="icons" xmlns="http://www.w3.org/2000/svg" viewBox="0 0 24 24"><title>02-03-score-m</title><rect id="canvas" width="24" height="24" style="fill:none"/><path d="M3.08014,16.6778a.62383.62383,0,0,0,.0874.26507.71665.71665,0,0,0,.08631.12579c.01446.01673.0205.03772.03668.05341a.7031.7031,0,0,0,.07312.0473.69869.69869,0,0,0,.06067.05573l2.11425,1.27832,1.26807,2.13037c.01245.02087.03552.02893.04962.04816a.71206.71206,0,0,0,.07978.113.711.711,0,0,0,.10559.06708.71265.71265,0,0,0,.08429.05347A.74426.74426,0,0,0,7.45117,21l.00031-.00006L7.45166,21l.00134-.00037a.74369.74369,0,0,0,.34058-.09369c.01324-.00683.02838-.00372.04138-.01141a.70929.70929,0,0,0,.08234-.07464.708.708,0,0,0,.07879-.05475l3.27784-3.46863a7.14032,7.14032,0,0,0,1.45172,0l3.27826,3.46863a.6942.6942,0,0,0,.07922.05511.70215.70215,0,0,0,.08191.07428c.01294.00769.028.00452.0412.01135a.74262.74262,0,0,0,.33893.09339L16.54785,21l.00043-.00012L16.54883,21a.74561.74561,0,0,0,.32532-.08459.46918.46918,0,0,0,.27087-.23468c.01373-.01874.03619-.02656.04834-.04694l1.26855-2.13037L20.5752,17.2251a.50315.50315,0,0,1,.13476-.103c.01679-.0163.02313-.03809.038-.05548a.7533.7533,0,0,0,.10315-.81c-.00977-.02-.01032-.04193-.022-.06128a.49689.49689,0,0,1-.10351-.13379l-2.44727-2.52459a7.11819,7.11819,0,1,0-12.55664-.00006L3.27393,16.06152a.69786.69786,0,0,0-.0456.071.70093.70093,0,0,0-.05743.06274c-.0116.01923-.01215.041-.02185.06079a.71849.71849,0,0,0-.05145.14338.62292.62292,0,0,0-.01746.27832Zm15.9137-.24866-1.46845.88775a.75455.75455,0,0,0-.25684.25782L16.412,19.01349,14.41443,16.8999a7.13722,7.13722,0,0,0,3.00336-2.09656ZM12,4.5a5.667,5.667,0,1,1-5.61816,5.6665A5.649,5.649,0,0,1,12,4.5ZM9.58533,16.89984,7.588,19.01343l-.85656-1.43872a.75314.75314,0,0,0-.25635-.25782L5.00677,16.4292l1.57587-1.62537A7.137,7.137,0,0,0,9.58533,16.89984Z"/><path d="M12.23494,13.66646a.7502.7502,0,0,0,.75-.75v-5.5a.75007.75007,0,0,0-1.26026-.54981L9.94734,8.51607a.75009.75009,0,0,0,1.02051,1.0996l.51709-.48046v3.78125A.7502.7502,0,0,0,12.23494,13.66646Z"/></svg>