<svg id="icons" xmlns="http://www.w3.org/2000/svg" viewBox="0 0 24 24"><defs><style>.cls-1{fill:none;}</style></defs><title>04-02-search-no-results-m</title><rect id="canvas" class="cls-1" width="24" height="24"/><path d="M7.81055,16.75l1.96972-1.96973a.74992.74992,0,0,0-1.06054-1.06054L6.75,15.68945,4.78027,13.71973a.74992.74992,0,0,0-1.06054,1.06054L5.68945,16.75,3.71973,18.71973a.74992.74992,0,1,0,1.06054,1.06054L6.75,17.81055l1.96973,1.96972a.74992.74992,0,1,0,1.06054-1.06054Z"/><path d="M19.5459,18.48535,15.82935,14.7688a6.49953,6.49953,0,1,0-11.595-4.03442.75.75,0,0,0,1.5,0A5,5,0,1,1,13.05176,15.166a.74979.74979,0,1,0,.69629,1.32812,6.52294,6.52294,0,0,0,1.01245-.6731l3.72485,3.72486a.74992.74992,0,0,0,1.06055-1.06055Z"/></svg>