<svg xmlns="http://www.w3.org/2000/svg" viewBox="0 0 24 24"><title>01-08-settings-m</title><g id="Layer_2" data-name="Layer 2"><g id="icons"><rect id="canvas" width="24" height="24" style="fill:none"/><g style="opacity:0.6"><path d="M19.4,13c0-.3.1-.6.1-1a3.08284,3.08284,0,0,0-.1-1l1.8-1.4a.94814.94814,0,0,0,.2-1.3L19.8,5.6a.96186.96186,0,0,0-1.2-.4L17,5.8a.93962.93962,0,0,1-.9-.1,2.01,2.01,0,0,0-.8-.4,1.242,1.242,0,0,1-.6-.8l-.2-1.7a1.06338,1.06338,0,0,0-1-.9H10.4a1.06338,1.06338,0,0,0-1,.9L9.2,4.5c0,.3-.3.6-.6.8-.2.1-.5.3-.7.4a1.1628,1.1628,0,0,1-1,.2L5.4,5.2a.92578.92578,0,0,0-1.2.4L2.6,8.4a1.22742,1.22742,0,0,0,.2,1.3L4.6,11c0,.3-.1.7-.1,1a3.40193,3.40193,0,0,0,.1,1L2.8,14.4a.94814.94814,0,0,0-.2,1.3l1.6,2.7a.96186.96186,0,0,0,1.2.4L7,18.2a.93962.93962,0,0,1,.9.1,2.01,2.01,0,0,0,.8.4,1.242,1.242,0,0,1,.6.8l.2,1.7a1.06338,1.06338,0,0,0,1,.9h3.1a1.06338,1.06338,0,0,0,1-.9l.2-1.7c0-.3.3-.6.6-.8.3-.1.5-.3.8-.4a.972.972,0,0,1,.9-.1l1.6.6a.92578.92578,0,0,0,1.2-.4l1.6-2.7a1.22742,1.22742,0,0,0-.2-1.3ZM12,15a3,3,0,1,1,3-3A2.94645,2.94645,0,0,1,12,15Z" style="fill:#b5bdc3"/></g></g></g></svg>