<svg id="icons" xmlns="http://www.w3.org/2000/svg" viewBox="0 0 24 24"><defs><style>.cls-1{fill:none;}</style></defs><title>04-08-sort-az-m</title><rect id="canvas" class="cls-1" width="24" height="24"/><path d="M19,17.35645H15.60107l3.9751-4.76954A.7501.7501,0,0,0,19,11.35645H14a.75.75,0,0,0,0,1.5h3.39893L13.42383,17.626A.75011.75011,0,0,0,14,18.85645h5a.75.75,0,0,0,0-1.5Z"/><path d="M7.5,11.35645a3.25376,3.25376,0,0,0-3.25,3.25v3.5a.75.75,0,0,0,1.5,0v-1.25h3.5v1.25a.75.75,0,0,0,1.5,0v-3.5A3.25376,3.25376,0,0,0,7.5,11.35645Zm-1.75,4v-.75a1.75,1.75,0,0,1,3.5,0v.75Z"/><path d="M18.99951,9.10254a.74638.74638,0,0,1-.46-.1582,10.4441,10.4441,0,0,0-13.0791,0,.74983.74983,0,1,1-.9209-1.1836,11.94182,11.94182,0,0,1,14.9209,0,.74982.74982,0,0,1-.46094,1.3418Z"/></svg>