<svg id="icons" xmlns="http://www.w3.org/2000/svg" viewBox="0 0 24 24"><title>02-05-star-m</title><rect id="canvas" width="24" height="24" style="fill:none"/><path d="M20.21387,10.11084a.75144.75144,0,0,0-.60742-.5127l-4.794-.686L12.6709,4.63623a.78134.78134,0,0,0-1.3418,0L9.18748,8.91211l-4.79393.686a.75031.75031,0,0,0-.41308,1.2837L7.44238,14.207,6.625,18.89893a.75028.75028,0,0,0,1.084.79492L12,17.47119l4.29,2.22266a.75021.75021,0,0,0,1.084-.79444l-.8164-4.69238,3.46191-3.32519A.75.75,0,0,0,20.21387,10.11084Zm-4.9834,3.29053a.753.753,0,0,0-.21973.66943l.626,3.59522-3.292-1.70557a.74945.74945,0,0,0-.68946,0L8.3623,17.666l.627-3.59473a.75348.75348,0,0,0-.21973-.66992L6.12891,10.86523l3.66015-.52343a.75222.75222,0,0,0,.56446-.40674L12,6.647l1.64648,3.28809a.75222.75222,0,0,0,.56446.40674l3.66015.52343Z"/></svg>