<svg id="icons" xmlns="http://www.w3.org/2000/svg" viewBox="0 0 24 24"><title>02-06-star-fill-m</title><rect id="canvas" width="24" height="24" style="fill:none"/><path d="M20.21387,10.11078a.75077.75077,0,0,0-.60742-.5127l-4.79444-.686-2.1416-4.27588a.74976.74976,0,0,0-1.34082,0L9.18749,8.91205l-4.79394.68652a.74987.74987,0,0,0-.41308,1.2832l3.4624,3.3252L6.626,18.89935a.75.75,0,0,0,1.084.79443L12,17.47113l4.29,2.22265a.75.75,0,0,0,1.084-.79443L16.55713,14.207l3.4624-3.3252A.75.75,0,0,0,20.21387,10.11078Z"/></svg>