<svg id="step-forward-m" xmlns="http://www.w3.org/2000/svg" viewBox="0 0 24 24" style="enable-background:new 0 0 24 24">
  <rect id="bg" width="24" height="24" style="fill:#f2f2f2;fill-opacity:0"/>
  <path id="path_1_" d="M9.007 10.975h7.585l-2.243-2.243c-.391-.391-.391-1.023 0-1.414s1.023-.391 1.414 0l3.951 3.95c.087.087.148.189.197.297.015.032.024.065.035.098.027.081.042.162.048.247.002.035.007.068.005.103-.004.106-.022.212-.061.314-.003.009-.003.018-.007.027 0 .001 0 .002-.001.003-.047.112-.116.208-.196.293-.009.009-.011.022-.021.031l-3.951 3.951c-.195.195-.451.293-.707.293s-.512-.098-.707-.293a.9989.9989 0 0 1 0-1.414l2.244-2.244H9.007c-1.654 0-3 1.346-3 3 0 .553-.447 1-1 1s-1-.447-1-1c0-2.755 2.243-4.999 5-4.999z"/>
</svg>
