<svg id="icons" xmlns="http://www.w3.org/2000/svg" viewBox="0 0 24 24"><defs><style>.cls-1{fill:none;}</style></defs><title>01-12-trash-m</title><rect id="canvas" class="cls-1" width="24" height="24"/><path d="M19.75,7.2002H4.25a.75.75,0,0,0,0,1.5H5.298l.619,9.74462a2.75371,2.75371,0,0,0,2.74414,2.57569h6.67774A2.75371,2.75371,0,0,0,18.083,18.44482l.619-9.74462H19.75a.75.75,0,1,0,0-1.5ZM16.58691,18.3501a1.25278,1.25278,0,0,1-1.248,1.17041H8.66113a1.25278,1.25278,0,0,1-1.248-1.17041l-.613-9.6499H17.19989Z"/><path d="M8.39941,6.19922a.74993.74993,0,0,1-.66992-1.08447l.001-.002a.766.766,0,0,1,.084-.13086A5.15914,5.15914,0,0,1,11.877,3.02051h.29493a5.17511,5.17511,0,0,1,4.00488,1.88916.75029.75029,0,0,1-1.15821.9541,3.677,3.677,0,0,0-2.84667-1.34326H11.877A3.66743,3.66743,0,0,0,8.99707,5.9043.75249.75249,0,0,1,8.39941,6.19922Z"/></svg>