<svg id="icons" xmlns="http://www.w3.org/2000/svg" viewBox="0 0 24 24"><defs><style>.cls-1{fill:none;}</style></defs><title>01-12-trash-s</title><rect id="canvas" class="cls-1" width="24" height="24"/><path d="M16.66,8.54H7.34a.75.75,0,0,0,0,1.5h.35L8,16a2,2,0,0,0,2,1.9h4A2,2,0,0,0,16,16L16.31,10h.35a.75.75,0,0,0,0-1.5Zm-2.2,7.35a.5.5,0,0,1-.45.49H10a.5.5,0,0,1-.45-.49L9.19,10h5.62Z"/><path d="M11.11,7.79a2.54,2.54,0,0,1,1.86,0,.92.92,0,0,0,.28.05.75.75,0,0,0,.28-1.45,4,4,0,0,0-3,0,.75.75,0,0,0,.54,1.4Z"/></svg>