<svg id="icons" xmlns="http://www.w3.org/2000/svg" viewBox="0 0 24 24"><defs><style>.cls-1{fill:none;}</style></defs><title>01-01-user-m</title><rect id="canvas" class="cls-1" width="24" height="24"/><path d="M12,11.72a3.86,3.86,0,1,1,3.85-3.86A3.86,3.86,0,0,1,12,11.72ZM12,5.5a2.36,2.36,0,1,0,2.35,2.36A2.36,2.36,0,0,0,12,5.5Z"/><path d="M18.2,20H5.8a1.74,1.74,0,0,1-1.74-1.75V17.5a4.74,4.74,0,0,1,4.73-4.74h6.42a4.74,4.74,0,0,1,4.73,4.74v.75A1.74,1.74,0,0,1,18.2,20ZM8.79,14.26A3.24,3.24,0,0,0,5.56,17.5v.75a.25.25,0,0,0,.24.25H18.2a.25.25,0,0,0,.24-.25V17.5a3.24,3.24,0,0,0-3.23-3.24Z"/></svg>