<svg id="icons" xmlns="http://www.w3.org/2000/svg" viewBox="0 0 24 24"><title>05-01-var-type-boolean-m</title><rect id="canvas" width="24" height="24" style="fill:none"/><path d="M18.8,3.2H5.2a2,2,0,0,0-2,2V18.8a2,2,0,0,0,2,2H18.8a2,2,0,0,0,2-2V5.2A2,2,0,0,0,18.8,3.2ZM9.79236,15.82031A3.79238,3.79238,0,0,1,6,12.02789V11.8938a3.79236,3.79236,0,0,1,7.58472,0v.13409A3.79238,3.79238,0,0,1,9.79236,15.82031Zm7.05285-.99414a3.95667,3.95667,0,0,1-2.78857,1.15137c-.05029,0-.10107-.001-.15137-.00293a.74958.74958,0,1,1,.05762-1.49805,2.43428,2.43428,0,0,0,1.82275-4.15478l-.08789-.08789A2.43661,2.43661,0,0,0,14.043,9.52148a.74983.74983,0,0,1,.04394-1.499,3.93019,3.93019,0,0,1,2.6709,1.15039l.08789.08789a3.93076,3.93076,0,0,1-.00049,5.56543Z"/></svg>