<svg id="icons" xmlns="http://www.w3.org/2000/svg" viewBox="0 0 24 24"><title>05-03-var-type-list-m</title><rect id="canvas" width="24" height="24" style="fill:none"/><path d="M18.8,3.2H5.2a2,2,0,0,0-2,2V18.8a2,2,0,0,0,2,2H18.8a2,2,0,0,0,2-2V5.2A2,2,0,0,0,18.8,3.2ZM7.866,16.675a1,1,0,1,1,1-1A1,1,0,0,1,7.866,16.675Zm0-3.65a1,1,0,1,1,1-1A1,1,0,0,1,7.866,13.025Zm0-3.69995a1,1,0,1,1,1-1A1,1,0,0,1,7.866,9.325Zm8.51776,7.11542H11.25293a.75.75,0,0,1,0-1.5h5.13086a.75.75,0,0,1,0,1.5Zm0-3.66553H11.25293a.75.75,0,0,1,0-1.5h5.13086a.75.75,0,0,1,0,1.5Zm0-3.665H11.25293a.75.75,0,0,1,0-1.5h5.13086a.75.75,0,1,1,0,1.5Z"/></svg>