<svg id="icons" xmlns="http://www.w3.org/2000/svg" viewBox="0 0 24 24"><title>05-02-var-type-date-m</title><rect id="canvas" width="24" height="24" style="fill:none"/><path d="M15.7124,9.70508H14.7002v.58349a.75.75,0,0,1-1.5,0V9.70508H10.7998v.58349a.75.75,0,0,1-1.5,0V9.70508H8.2876a.25048.25048,0,0,0-.25.25v5.501a.25048.25048,0,0,0,.25.25h7.4248a.25048.25048,0,0,0,.25-.25v-5.501A.25048.25048,0,0,0,15.7124,9.70508Z"/><path d="M18.8,3.2H5.2a2,2,0,0,0-2,2V18.8a2,2,0,0,0,2,2H18.8a2,2,0,0,0,2-2V5.2A2,2,0,0,0,18.8,3.2Zm-1.33759,12.256a1.75211,1.75211,0,0,1-1.75,1.75H8.2876a1.75211,1.75211,0,0,1-1.75-1.75v-5.501a1.75211,1.75211,0,0,1,1.75-1.75H9.2998V7.544a.75.75,0,0,1,1.5,0v.66113h2.4004V7.544a.75.75,0,0,1,1.5,0v.66113h1.0122a1.75211,1.75211,0,0,1,1.75,1.75Z"/></svg>