<svg id="icons" xmlns="http://www.w3.org/2000/svg" viewBox="0 0 24 24"><title>05-04-var-type-number-m</title><rect id="canvas" width="24" height="24" style="fill:none"/><polygon points="10.577 12.991 13.095 12.991 13.423 11.009 10.905 11.009 10.577 12.991"/><path d="M18.8,3.2H5.2a2,2,0,0,0-2,2V18.8a2,2,0,0,0,2,2H18.8a2,2,0,0,0,2-2V5.2A2,2,0,0,0,18.8,3.2Zm-2.0871,9.7912a.75.75,0,0,1,0,1.5H14.36737l-.28046,1.69336a.75023.75023,0,0,1-1.48046-.24414l.24-1.44922H10.32831l-.28046,1.69336a.75023.75023,0,0,1-1.48047-.24414l.24-1.44922H7.28711a.75.75,0,0,1,0-1.5H9.05585l.32831-1.98242h-2.097a.75.75,0,0,1,0-1.5H9.63257l.28052-1.69385a.75031.75031,0,0,1,1.48046.24512l-.24,1.44873h2.51807l.28052-1.69385a.75031.75031,0,0,1,1.48047.24512l-.24,1.44873h1.52026a.75.75,0,0,1,0,1.5H14.94421l-.32837,1.98242Z"/></svg>