<svg id="icons" xmlns="http://www.w3.org/2000/svg" viewBox="0 0 24 24">
    <defs>
        <style>.cls-1{fill:none;}</style>
    </defs>
    <title>02-01-webhook-m</title>
    <rect id="canvas" class="cls-1" width="24" height="24"/>
    <rect id="canvas-2" data-name="canvas" class="cls-1" width="24" height="24"/>
    <path d="M14.78,5.11a4,4,0,0,0-5.66,5.66l.15.13-1.22,2-1,1.57a1.59,1.59,0,0,0-1.21.46,1.62,1.62,0,0,0,0,2.26,1.58,1.58,0,0,0,2.24,0,1.61,1.61,0,0,0,.24-1.93l1-1.58,1.54-2.55h0v0a.75.75,0,0,0-.24-1,2.85,2.85,0,0,1-.48-.36A2.5,2.5,0,1,1,14.4,8.42a.75.75,0,0,0,1.48.29A4,4,0,0,0,14.78,5.11Z"/>
    <path d="M19.72,13.23a4,4,0,0,0-4.23-.91l-1.21-2-1-1.58a1.61,1.61,0,0,0-.24-1.93,1.58,1.58,0,0,0-2.24,0A1.59,1.59,0,0,0,12,9.53l1,1.57,1.57,2.58h0a.85.85,0,0,0,.26.24l.09,0a.46.46,0,0,0,.23.06l.07,0h.13a.75.75,0,0,0,.25-.09h0a2.49,2.49,0,0,1,3.8,2.13,2.5,2.5,0,0,1-4.27,1.77.74.74,0,0,0-1.06,0,.75.75,0,0,0,0,1.06,4,4,0,0,0,5.66-5.66Z"/>
    <path d="M18,14.93a1.58,1.58,0,0,0-2.24,0,1.46,1.46,0,0,0-.27.38H10.26a.75.75,0,0,0-.75.75,2.5,2.5,0,1,1-4.27-1.77,2.61,2.61,0,0,1,1.06-.63.75.75,0,0,0-.42-1.44,4,4,0,0,0-1.7,6.67,4,4,0,0,0,5.66,0,4.06,4.06,0,0,0,1.1-2.08H15.5a1.89,1.89,0,0,0,.27.38,1.58,1.58,0,0,0,2.24,0A1.62,1.62,0,0,0,18,14.93Z"/>
</svg>
