<svg fill="currentColor" id="icons" xmlns="http://www.w3.org/2000/svg" viewBox="0 0 24 24"><title>02-01-academy-m</title><rect id="canvas" width="24" height="24" style="fill:none"/><path d="M20.53711,7.81885,13.82129,5.03174a4.77577,4.77577,0,0,0-3.6416-.00049l-6.7168,2.7876-.0022.00128L3.444,7.83026a.779.779,0,0,0-.35742.3487.70644.70644,0,0,0-.03363.07073A.74079.74079,0,0,0,3,8.51172v5.65039a.75.75,0,0,0,1.5,0v-4.527l1.37891.57233v5.7467c0,1.541,1.06152,3.37793,6.12109,3.37793s6.12109-1.83691,6.12109-3.37793V10.20746l2.416-1.00287a.75.75,0,0,0,0-1.38574Zm-3.916,8.13525c0,1.55176-2.51269,1.87793-4.62109,1.87793s-4.62109-.32617-4.62109-1.87793V10.83l2.7998,1.16217a4.7773,4.7773,0,0,0,3.6416.00049l2.80078-1.1626Zm-3.376-5.34668a3.2708,3.2708,0,0,1-2.49121-.00049L5.70605,8.51172,10.75488,6.4165a3.2709,3.2709,0,0,1,2.49121.00049L18.294,8.51172Z"/></svg>