<svg fill="currentColor" width="24" height="24" viewBox="0 0 24 24" xmlns="http://www.w3.org/2000/svg">
<circle cx="12" cy="12" r="7" fill="white"/>
<path fill-rule="evenodd" clip-rule="evenodd" d="M12 20C7.58172 20 4 16.4183 4 12C4 7.58172 7.58172 4 12 4C16.4183 4 20 7.58172 20 12C19.9949 16.4162 16.4162 19.9949 12 20ZM12 5.5C8.41015 5.5 5.5 8.41015 5.5 12C5.5 15.5899 8.41015 18.5 12 18.5C15.5899 18.5 18.5 15.5899 18.5 12C18.4959 8.41187 15.5881 5.50415 12 5.5ZM12.75 11.25H14.75C15.1642 11.25 15.5 11.5858 15.5 12C15.5 12.4142 15.1642 12.75 14.75 12.75H12.75V14.75C12.75 15.1642 12.4142 15.5 12 15.5C11.5858 15.5 11.25 15.1642 11.25 14.75V12.75H9.25C8.83579 12.75 8.5 12.4142 8.5 12C8.5 11.5858 8.83579 11.25 9.25 11.25H11.25V9.25C11.25 8.83579 11.5858 8.5 12 8.5C12.4142 8.5 12.75 8.83579 12.75 9.25V11.25Z" />
</svg>
