<svg fill="currentColor" id="icons" xmlns="http://www.w3.org/2000/svg" viewBox="0 0 24 24"><title>01-09-add-2-s</title><rect id="canvas" width="24" height="24" style="fill:none"/><path d="M14.56006,11.25H12.75V9.43994a.75.75,0,0,0-1.5,0V11.25H9.43994a.75.75,0,0,0,0,1.5H11.25v1.81055a.75.75,0,0,0,1.5,0V12.75h1.81006a.75.75,0,0,0,0-1.5Z"/><path d="M16.24268,7.75732A5.9996,5.9996,0,1,0,18,12,6.00609,6.00609,0,0,0,16.24268,7.75732Zm-1.06055,7.42432A4.50013,4.50013,0,1,1,16.5,12,4.46852,4.46852,0,0,1,15.18213,15.18164Z"/></svg>