<svg fill="currentColor" width="24" height="24" viewBox="0 0 24 24"  xmlns="http://www.w3.org/2000/svg">
<circle cx="12" cy="12" r="7" fill="white"/>
<path fill-rule="evenodd" clip-rule="evenodd" d="M4 12C4 7.58172 7.58172 4 12 4C16.4162 4.00505 19.9949 7.58382 20 12C20 16.4183 16.4183 20 12 20C7.58172 20 4 16.4183 4 12ZM12.75 12.75H14.75C15.1642 12.75 15.5 12.4142 15.5 12C15.5 11.5858 15.1642 11.25 14.75 11.25H12.75V9.25C12.75 8.83579 12.4142 8.5 12 8.5C11.5858 8.5 11.25 8.83579 11.25 9.25V11.25H9.25C8.83579 11.25 8.5 11.5858 8.5 12C8.5 12.4142 8.83579 12.75 9.25 12.75H11.25V14.75C11.25 15.1642 11.5858 15.5 12 15.5C12.4142 15.5 12.75 15.1642 12.75 14.75V12.75Z" />
</svg>
