<svg fill="currentColor" id="icons" xmlns="http://www.w3.org/2000/svg" viewBox="0 0 24 24"><title>02-04-aggregate-m</title><rect id="canvas" width="24" height="24" style="fill:none"/><path d="M12,4a8,8,0,1,0,8,8A8.00917,8.00917,0,0,0,12,4Zm0,14.5A6.5,6.5,0,1,1,18.5,12,6.50753,6.50753,0,0,1,12,18.5Z"/><path d="M14,8.75A.7502.7502,0,0,0,13.25,8H9.75a.7501.7501,0,0,0-.55908,1.25l2.46,2.75-2.46,2.75A.7501.7501,0,0,0,9.75,16h3.5a.75.75,0,0,0,0-1.5H11.42725l1.78857-2a.74948.74948,0,0,0,0-1l-1.78857-2H13.25A.7502.7502,0,0,0,14,8.75Z"/></svg>