<svg fill="currentColor" id="icons" xmlns="http://www.w3.org/2000/svg" viewBox="0 0 24 24"><title>03-05-agreements-off-m</title><rect id="canvas" width="24" height="24" style="fill:none"/><path d="M18.375,15.48291H17.166V5.77832a2.75291,2.75291,0,0,0-2.749-2.75l-8.54-.00977a2.75,2.75,0,0,0-.001,5.5l7.83984.00977h.00488a.75.75,0,0,0,.001-1.5H13.7168a1.25128,1.25128,0,0,1-1.2461-1.25,1.26747,1.26747,0,0,1,1.28418-1.251l.66114.001a1.25116,1.25116,0,0,1,1.25,1.25V18.23291a2.71486,2.71486,0,0,0,.31341,1.24774l-7.52826-.007a1.25116,1.25116,0,0,1-1.25-1.25V17.5332a.75.75,0,0,0-1.5,0v.69043a2.75259,2.75259,0,0,0,2.749,2.75l9.92382.00928h.042c.01464,0,.03027-.00049.04492-.00146a2.74994,2.74994,0,0,0-.08594-5.49854ZM11.26953,7.02539,5.877,7.01855a1.25,1.25,0,0,1-.001-2.5l5.39746.00635a2.74881,2.74881,0,0,0-.00391,2.50049Zm7.126,12.45752a1.25171,1.25171,0,0,1-1.22949-1.25v-1.25h1.209a1.25008,1.25008,0,0,1,.02051,2.5Z"/><path d="M8.4209,16.29053A.74992.74992,0,0,0,9.48145,15.23L7.51172,13.26025l1.96973-1.96972A.74992.74992,0,0,0,8.4209,10.23L6.45117,12.19971,4.48145,10.23A.74992.74992,0,0,0,3.4209,11.29053l1.96972,1.96972L3.4209,15.23a.74992.74992,0,1,0,1.06055,1.06055L6.45117,14.3208Z"/></svg>