<svg width="26" height="24" viewBox="0 0 26 24" fill="none" xmlns="http://www.w3.org/2000/svg">
<path d="M0 12C2.82124 12.8812 5.38676 14.4333 7.47673 16.5233C9.56671 18.6133 11.1188 21.1788 12.0001 24C12.8813 21.1788 14.4333 18.6133 16.5233 16.5233C18.6132 14.4333 21.1788 12.8813 24 12C21.1788 11.1187 18.6132 9.56654 16.5233 7.47658C14.4333 5.38662 12.8813 2.82121 12.0001 0C11.1188 2.82122 9.56671 5.38673 7.47673 7.4767C5.38676 9.56666 2.82124 11.1188 0 12Z" fill="#B5BDC3"/>
<path d="M12 0C12.8795 2.822 14.4319 5.3879 16.5233 7.4767C18.6121 9.5682 21.178 11.1205 24 12L12 12L12 0Z" fill="#6A7580"/>
<path d="M12 24C12.8795 21.178 14.4319 18.6121 16.5233 16.5233C18.6121 14.4318 21.178 12.8795 24 12H12V24Z" fill="#DBE0E3"/>
</svg>
