<svg fill="currentColor" id="icons" xmlns="http://www.w3.org/2000/svg" viewBox="0 0 24 24"><title>02-02-ai-icon-m</title><rect id="canvas" width="24" height="24" style="fill:none"/><path d="M16.25,19H7.75A2.7528,2.7528,0,0,1,5,16.25V7.75A2.7528,2.7528,0,0,1,7.75,5h8.5A2.7528,2.7528,0,0,1,19,7.75v8.5A2.7528,2.7528,0,0,1,16.25,19ZM7.75,6.5A1.25116,1.25116,0,0,0,6.5,7.75v8.5A1.25116,1.25116,0,0,0,7.75,17.5h8.5a1.25116,1.25116,0,0,0,1.25-1.25V7.75A1.25116,1.25116,0,0,0,16.25,6.5Z"/><path d="M8.499,15.75a.75.75,0,0,1-.623-1.166l4-6A.75.75,0,0,1,13.25,9v6a.75.75,0,0,1-1.5,0V11.47705L9.124,15.416A.7499.7499,0,0,1,8.499,15.75Z"/><path d="M15,15.75a.7502.7502,0,0,1-.75-.75V9a.75.75,0,0,1,1.5,0v6A.7502.7502,0,0,1,15,15.75Z"/></svg>