<?xml version="1.0" encoding="utf-8"?>
<!-- Generator: Adobe Illustrator 25.2.1, SVG Export Plug-In . SVG Version: 6.00 Build 0)  -->
<svg fill="currentColor" version="1.1" id="Warstwa_1" xmlns="http://www.w3.org/2000/svg"
	xmlns:xlink="http://www.w3.org/1999/xlink" x="0px" y="0px"
	viewBox="0 0 26 26" style="enable-background:new 0 0 26 26;" xml:space="preserve">

<g>
	<path  d="M12.3,8.3c-2.2091,0-4,1.7909-4,4c0,2.2092,1.7909,4,4,4c2.2092,0,4-1.7908,4-4
		C16.3,10.0909,14.5092,8.3,12.3,8.3z M12.3,14.8c-1.3807,0-2.5-1.1193-2.5-2.5c0-1.3807,1.1193-2.5,2.5-2.5
		c1.3807,0,2.5,1.1193,2.5,2.5C14.8,13.6807,13.6807,14.8,12.3,14.8z"/>
	<path  d="M21.2832,17.3712l-1.5585-1.4927C20.2481,14.7949,20.55,13.5841,20.55,12.3c0-4.5563-3.6937-8.25-8.25-8.25
		S4.05,7.7437,4.05,12.3s3.6937,8.25,8.25,8.25c1.2331,0,2.3987-0.2781,3.4493-0.763l1.6725,1.5157l0.1169,0.1097
		c0.9987,0.875,2.5936,0.7612,3.616-0.2654C22.218,20.0795,22.2981,18.3901,21.2832,17.3712z M5.55,12.3
		c0-3.7279,3.0221-6.75,6.75-6.75s6.75,3.0221,6.75,6.75s-3.0221,6.75-6.75,6.75S5.55,16.0279,5.55,12.3z M20.0939,20.0821
		c-0.4988,0.5009-1.2339,0.536-1.6393,0.129c-0.5269-0.4778-0.9688-0.8784-1.3437-1.2184c0.6956-0.5009,1.3076-1.1069,1.8173-1.7956
		l1.3069,1.2515l0.0728,0.0833C20.6211,18.9405,20.5596,19.6146,20.0939,20.0821z"/>
</g>
</svg>