<?xml version="1.0" encoding="utf-8"?>
<!-- Generator: Adobe Illustrator 25.2.1, SVG Export Plug-In . SVG Version: 6.00 Build 0)  -->
<svg fill="currentColor" version="1.1" id="Warstwa_1" xmlns="http://www.w3.org/2000/svg" xmlns:xlink="http://www.w3.org/1999/xlink" x="0px" y="0px"
	 viewBox="0 0 26 26" style="enable-background:new 0 0 26 26;" xml:space="preserve">
<style type="text/css">
	.st0{fill:#FD9F05;}
	.st1{fill:#FFC300;}
</style>
<g>
	<path class="st0" d="M18.8071,15l2.4759,2.3713c1.0149,1.0189,0.9347,2.7082-0.1286,3.7758
		c-1.0224,1.0265-2.6173,1.1404-3.616,0.2654l-0.1169-0.1098L15,19.1083L18.8071,15z"/>
	<path class="st1" d="M12.3,4.05c4.5563,0,8.25,3.6937,8.25,8.25s-3.6936,8.25-8.25,8.25s-8.25-3.6936-8.25-8.25
		S7.7437,4.05,12.3,4.05z M12.3,8.3c-2.2091,0-4,1.7909-4,4s1.7909,4,4,4s4-1.7909,4-4S14.5091,8.3,12.3,8.3z"/>
</g>
</svg>
