<?xml version="1.0" encoding="utf-8"?>
<!-- Generator: Adobe Illustrator 25.2.1, SVG Export Plug-In . SVG Version: 6.00 Build 0)  -->
<svg fill="currentColor" version="1.1" id="Warstwa_1" xmlns="http://www.w3.org/2000/svg" xmlns:xlink="http://www.w3.org/1999/xlink" x="0px" y="0px"
	 viewBox="0 0 26 26" style="enable-background:new 0 0 26 26;" xml:space="preserve">
<style type="text/css">
	.st0{fill:#FF2F52;}
	.st1{fill:#D41640;}
</style>
<g>
	<path class="st0" d="M16,4h4c1.105,0,2,0.895,2,2v14c0,1.105-0.895,2-2,2h-4c-1.105,0-2-0.895-2-2V6C14,4.895,14.895,4,16,4z"/>
	<path class="st1" d="M6,12h4c1.105,0,2,0.895,2,2v6c0,1.105-0.895,2-2,2H6c-1.105,0-2-0.895-2-2v-6C4,12.895,4.895,12,6,12z"/>
</g>
</svg>
