<?xml version="1.0" encoding="utf-8"?>
<!-- Generator: Adobe Illustrator 25.2.1, SVG Export Plug-In . SVG Version: 6.00 Build 0)  -->
<svg fill="currentColor" version="1.1" id="Warstwa_1" xmlns="http://www.w3.org/2000/svg"
	xmlns:xlink="http://www.w3.org/1999/xlink" x="0px" y="0px"
	viewBox="0 0 26 26" style="enable-background:new 0 0 26 26;" xml:space="preserve">

<g>
	<path d="M20,4c1.105,0,2,0.895,2,2v14c0,1.105-0.895,2-2,2h-4c-1.105,0-2-0.895-2-2V6c0-1.105,0.895-2,2-2H20z M20,5.5
		h-4c-0.245,0-0.45,0.177-0.492,0.41L15.5,6v14c0,0.245,0.177,0.45,0.41,0.492L16,20.5h4c0.245,0,0.45-0.177,0.492-0.41L20.5,20V6
		c0-0.245-0.177-0.45-0.41-0.492L20,5.5z M10,12c1.105,0,2,0.895,2,2v6c0,1.105-0.895,2-2,2H6c-1.105,0-2-0.895-2-2v-6
		c0-1.105,0.895-2,2-2H10z M10,13.5H6c-0.245,0-0.45,0.177-0.492,0.41L5.5,14v6c0,0.245,0.177,0.45,0.41,0.492L6,20.5h4
		c0.245,0,0.45-0.177,0.492-0.41L10.5,20v-6c0-0.245-0.177-0.45-0.41-0.492L10,13.5z"/>
</g>
</svg>