<svg fill="currentColor" id="icons" xmlns="http://www.w3.org/2000/svg" viewBox="0 0 24 24"><title>01-08-android-fill-m</title><rect id="canvas" width="24" height="24" style="fill:#fff;fill-opacity:0.1"/><path d="M16.46008,9.57794,18.83643,7.228a.74993.74993,0,0,0-1.05469-1.06641l-2.78467,2.7536a8.917,8.917,0,0,0-6.082.03192L6.09814,6.16162A.74993.74993,0,0,0,5.04346,7.228L7.46527,9.62286A8.88979,8.88979,0,0,0,3,17.30518a.7502.7502,0,0,0,.75.75h16.5a.7502.7502,0,0,0,.75-.75A8.89337,8.89337,0,0,0,16.46008,9.57794ZM8.766,14.54529a1,1,0,1,1,1-1A1.00006,1.00006,0,0,1,8.766,14.54529Zm6.46875,0a1,1,0,1,1,1-1A1.00006,1.00006,0,0,1,15.23474,14.54529Z"/></svg>