<svg fill="currentColor" xmlns="http://www.w3.org/2000/svg" viewBox="0 0 24 24"><defs><style>.cls-1{fill:none;}</style></defs><g id="aditional"><rect id="canvas" class="cls-1" x="-0.00009" width="24" height="24"/><rect id="canvas-2" data-name="canvas" class="cls-1" width="24" height="24"/><rect id="canvas-3" data-name="canvas" class="cls-1" width="24" height="24"/><path d="M8.83545,8.14063a.74757.74757,0,0,1,.53027.21972l2.71973,2.71973,2.71973-2.71973A.74992.74992,0,0,1,15.86572,9.4209l-3.25,3.25a.74972.74972,0,0,1-1.06054,0l-3.25-3.25a.75.75,0,0,1,.53027-1.28027Z"/><path d="M8.86035,14.33545h.00293l6.4502.02393a.75.75,0,0,1-.00293,1.5h-.00293l-6.4502-.02393a.75.75,0,0,1,.00293-1.5Z"/></g></svg>