<svg fill="currentColor" xmlns="http://www.w3.org/2000/svg" viewBox="0 0 24 24"><defs><style>.cls-1{fill:none;}</style></defs><g id="aditional"><rect id="canvas" class="cls-1" width="24" height="24"/><path d="M15.25,15.82275a.74757.74757,0,0,1-.53027-.21972L12,12.8833,9.28027,15.603a.74992.74992,0,1,1-1.06054-1.06055l3.25-3.25a.74972.74972,0,0,1,1.06054,0l3.25,3.25A.75.75,0,0,1,15.25,15.82275Z"/><path d="M15.2251,9.62793h-.00293L8.772,9.604a.75.75,0,0,1,.00293-1.5h.00293l6.4502.02393a.75.75,0,0,1-.00293,1.5Z"/></g></svg>