<svg fill="currentColor" id="icons" xmlns="http://www.w3.org/2000/svg" viewBox="0 0 24 24"><title>02-01-anonymous-m</title><rect id="canvas" width="24" height="24" style="fill:none"/><path d="M16.6748,13.791a3.08639,3.08639,0,0,0-2.97033,2.30419H10.29553a3.09257,3.09257,0,1,0,.03113,1.5h3.34668A3.08695,3.08695,0,1,0,16.6748,13.791ZM7.3252,18.5a1.60458,1.60458,0,1,1,1.5874-1.60449A1.59809,1.59809,0,0,1,7.3252,18.5Zm9.3496,0a1.60458,1.60458,0,1,1,1.5879-1.60449A1.59768,1.59768,0,0,1,16.6748,18.5Z"/><path d="M20.25,11.26855h-.27039l-.00012-.00488-1.2251-5.2539A2.88012,2.88012,0,0,0,17.3252,4.23193a2.20825,2.20825,0,0,0-1.77686-.08447l-.94629.36133a7.31441,7.31441,0,0,1-5.4834-.07617l-.56152-.231a2.20469,2.20469,0,0,0-1.78906.04248A2.885,2.885,0,0,0,5.29639,6.04639l-1.27393,5.209c-.0011.00446.00049.00873-.00055.01318H3.75a.75.75,0,0,0,0,1.5h16.5a.75.75,0,0,0,0-1.5ZM6.73926,6.45264A1.36505,1.36505,0,0,1,7.40137,5.604a.70274.70274,0,0,1,.58545-.01464l.56152.23046a8.79735,8.79735,0,0,0,6.58838.09034l.94629-.36133a.71343.71343,0,0,1,.582.02978,1.35623,1.35623,0,0,1,.64111.81885l1.1344,4.87109H5.56329Z"/></svg>