<svg fill="currentColor" id="icons" xmlns="http://www.w3.org/2000/svg" viewBox="0 0 24 24"><title>02-02-api-m</title><rect id="canvas" width="24" height="24" style="fill:none"/><path d="M20.96289,10.28711a.7502.7502,0,0,0-.75-.75H18.91956q-.07481-1.16538-.21936-2.3252A2.21257,2.21257,0,0,0,16.75,5.2959c-.74762-.09339-1.498-.16107-2.25-.21015V3.8252a.75.75,0,1,0-1.5,0V5.03192q-.99892-.02591-2,.00037V3.8252a.75.75,0,0,0-1.5,0V5.08612c-.76221.04981-1.52478.1192-2.28711.21466A2.20181,2.20181,0,0,0,5.2998,7.21289q-.14574,1.158-.219,2.32422H3.78711a.75.75,0,0,0,0,1.5H5.03076q-.02443.99747.00379,2H3.78711a.75.75,0,0,0,0,1.5H5.09137c.04962.748.11615,1.49744.20941,2.249A2.20184,2.20184,0,0,0,7.21289,18.7002c.75983.09594,1.52283.16589,2.28711.21569V20.25a.75.75,0,0,0,1.5,0V18.969c.33118.00855.66187.031.99316.031.33564,0,.67115-.02228,1.00684-.03113V20.25a.75.75,0,0,0,1.5,0V18.91364c.7395-.04853,1.47815-.11432,2.21387-.20563l.07031-.00879A2.22318,2.22318,0,0,0,18.708,16.71387c.08978-.72364.15326-1.44983.2016-2.17676h1.30328a.75.75,0,0,0,0-1.5H18.9671q.0272-1.0004.00305-2h1.24274A.7502.7502,0,0,0,20.96289,10.28711Zm-3.752,6.31152a.703.703,0,0,1-.61231.61231l-.07031.00879a36.744,36.744,0,0,1-9.12793-.00782.72931.72931,0,0,1-.62012-.68359,36.84619,36.84619,0,0,1,.00782-9.12891.71543.71543,0,0,1,.64746-.61523,36.74755,36.74755,0,0,1,4.55468-.2832,37.143,37.143,0,0,1,4.61133.28808.70285.70285,0,0,1,.61035.61133A36.97877,36.97877,0,0,1,17.21094,16.59863Z"/><path d="M14.14258,8.63379a17.22373,17.22373,0,0,0-4.30078.002,1.391,1.391,0,0,0-1.207,1.20606,17.34817,17.34817,0,0,0,.001,4.3164,1.391,1.391,0,0,0,1.20606,1.207A17.27685,17.27685,0,0,0,11.99609,15.5a17.26105,17.26105,0,0,0,2.12989-.13184l.03125-.0039A1.39777,1.39777,0,0,0,15.36816,14.126a17.2932,17.2932,0,0,0-.00293-4.28614A1.39464,1.39464,0,0,0,14.14258,8.63379Zm-4.0293,5.25391a15.84452,15.84452,0,0,1-.001-3.77442,15.80144,15.80144,0,0,1,3.7754,0,15.93934,15.93934,0,0,1-.001,3.77344A15.93947,15.93947,0,0,1,10.11328,13.8877Z"/></svg>