<svg fill="currentColor" id="icons" xmlns="http://www.w3.org/2000/svg" viewBox="0 0 24 24"><title>01-01-apple-m</title><rect id="canvas" width="24" height="24" style="fill:#fff;fill-opacity:0.1"/><path d="M17.89111,15.48926a2.5992,2.5992,0,0,1-1.54-2.38623,2.65387,2.65387,0,0,1,1.248-2.231.74938.74938,0,0,0,.25342-1.07373,4.19664,4.19664,0,0,0-3.31787-1.834,5.24782,5.24782,0,0,0-2.36084.4873,3.44917,3.44917,0,0,1-.59326.20215,3.12586,3.12586,0,0,1-.66407-.23,4.76487,4.76487,0,0,0-1.8208-.47022,4.42112,4.42112,0,0,0-3.76562,2.33008c-1.602,2.81055-.2876,6.6001.98779,8.46436.62012.89941,1.55225,2.25146,2.95654,2.25146.02442,0,.04932-.00049.07373-.001a3.54824,3.54824,0,0,0,1.34473-.355,2.44577,2.44577,0,0,1,1.09277-.27,2.25782,2.25782,0,0,1,1.01465.25585,3.30806,3.30806,0,0,0,1.48389.34522c1.44922-.02344,2.29736-1.28174,2.91553-2.19873a9.036,9.036,0,0,0,1.145-2.38428A.7595.7595,0,0,0,17.89111,15.48926ZM15.957,17.93555c-.58349.86621-1.0791,1.52929-1.70312,1.53906a1.70469,1.70469,0,0,1-.85352-.22022,3.70059,3.70059,0,0,0-1.61475-.38085,3.90672,3.90672,0,0,0-1.687.39257,2.152,2.152,0,0,1-.80761.2334c-.62891.00293-1.29248-.95605-1.73633-1.60107C6.458,16.29688,5.44775,13.106,6.6333,11.02637A2.924,2.924,0,0,1,9.0957,9.45361a3.52112,3.52112,0,0,1,1.24512.35547,3.34456,3.34456,0,0,0,1.24121.34473,3.19442,3.19442,0,0,0,1.145-.30811A3.9316,3.9316,0,0,1,14.42432,9.46a2.86774,2.86774,0,0,1,1.72412.65625,4.10019,4.10019,0,0,0,.55371,6.4209A7.76393,7.76393,0,0,1,15.957,17.93555Z"/><path d="M11.24554,6.85748l.00428.01783.00506.02117a.74488.74488,0,0,0,.11573.22345c.009.01209.022.02008.03179.03162a.74.74,0,0,0,.16291.14508.728.728,0,0,0,.077.03912.73718.73718,0,0,0,.17829.06177c.01739.0036.03119.01459.04907.017.0332.00452.06634.0033.09955.00665l.001.00019.00043-.00006a3.06292,3.06292,0,0,0,.30719.02056,2.98072,2.98072,0,0,0,2.28809-1.05078l.00012-.00018.00037-.00031a3.05176,3.05176,0,0,0,.53717-2.80572l-.00428-.01782-.00506-.02118a.702.702,0,0,0-.05072-.0918.743.743,0,0,0-.08374-.15161.72092.72092,0,0,0-.10071-.08972.72565.72565,0,0,0-.11865-.09448.74636.74636,0,0,0-.14655-.05079.71611.71611,0,0,0-.11438-.03967c-.00659-.00085-.01306.00067-.01965-.00018-.01135-.00128-.02265.00049-.03412-.00025A2.99689,2.99689,0,0,0,11.784,4.051l-.00031.00024-.00006.00012-.00043.00037-.00036.00067A3.051,3.051,0,0,0,11.24554,6.85748Zm1.692-1.84771a1.49449,1.49449,0,0,1,.78889-.45911,1.5358,1.5358,0,0,1-.31421.8819,1.48586,1.48586,0,0,1-.78979.46222,1.53185,1.53185,0,0,1,.31463-.88453l.00012-.00018Z"/></svg>