<svg fill="currentColor" id="icons" xmlns="http://www.w3.org/2000/svg" viewBox="0 0 24 24"><title>01-02-apple-fill-m</title><rect id="canvas" width="24" height="24" style="fill:#fff;fill-opacity:0.1"/><path d="M17.89111,15.48926a2.5992,2.5992,0,0,1-1.54-2.38623,2.65387,2.65387,0,0,1,1.248-2.231.74938.74938,0,0,0,.25342-1.07373,4.19664,4.19664,0,0,0-3.31787-1.834,5.25975,5.25975,0,0,0-2.36084.4873,3.44917,3.44917,0,0,1-.59326.20215,3.12586,3.12586,0,0,1-.66407-.23,4.76487,4.76487,0,0,0-1.8208-.47022,4.42112,4.42112,0,0,0-3.76562,2.33008c-1.602,2.81055-.2876,6.6001.98779,8.46436.62012.89941,1.55225,2.25146,2.95654,2.25146.02442,0,.04932-.00049.07373-.001a3.54824,3.54824,0,0,0,1.34473-.355,2.44577,2.44577,0,0,1,1.09277-.27,2.25782,2.25782,0,0,1,1.01465.25585,3.31148,3.31148,0,0,0,1.48389.34522c1.44922-.02344,2.29736-1.28174,2.91553-2.19873a9.036,9.036,0,0,0,1.145-2.38428A.7595.7595,0,0,0,17.89111,15.48926Z"/><path d="M13.98907,5.91162a2.30745,2.30745,0,0,0,.39008-2.14044,2.2498,2.2498,0,0,0-2.019.7597,2.30779,2.30779,0,0,0-.39008,2.14051A2.24983,2.24983,0,0,0,13.98907,5.91162Z"/></svg>