<svg fill="currentColor" id="icons" xmlns="http://www.w3.org/2000/svg" viewBox="0 0 24 24"><title>01-07-area-m</title><rect id="canvas" width="24" height="24" style="fill:none"/><path d="M17.59961,3.8501H6.40039A2.40313,2.40313,0,0,0,4,6.25V17.5498a.74744.74744,0,0,0,.09375.36329A2.75493,2.75493,0,0,0,6.75,19.9502h10.5a2.75311,2.75311,0,0,0,2.75-2.75V6.25A2.40313,2.40313,0,0,0,17.59961,3.8501Zm-11.19922,1.5H17.59961A.90149.90149,0,0,1,18.5,6.25V7.92627L14.2998,12.126a1.55559,1.55559,0,0,1-2.15039,0,3.09305,3.09305,0,0,0-4.27246,0L5.5,14.5036V6.25A.90149.90149,0,0,1,6.40039,5.3501ZM17.25,18.4502H6.75a1.25116,1.25116,0,0,1-1.25-1.25v-.57526l3.43748-3.43842a1.55972,1.55972,0,0,1,2.15139,0,3.09184,3.09184,0,0,0,4.27148,0L18.5,10.04724v7.153A1.25116,1.25116,0,0,1,17.25,18.4502Z"/></svg>