<svg fill="currentColor" id="icons" xmlns="http://www.w3.org/2000/svg" viewBox="0 0 24 24"><title>01-06-area-percentage-m</title><rect id="canvas" width="24" height="24" style="fill:none"/><path d="M19.5127,4.457a.74934.74934,0,0,0-.81739.1626l-4.416,4.416a1.52243,1.52243,0,0,1-2.15039,0,3.02575,3.02575,0,0,0-4.27246,0l-3.61231,3.6128a.7471.7471,0,0,0-.21973.53662l.04981,5.67139a.75011.75011,0,0,0,.75.74365H19.22461a.7502.7502,0,0,0,.75-.75l.001-13.7002A.75009.75009,0,0,0,19.5127,4.457ZM18.47461,18.1001H5.56738l-.04-4.61328L8.917,10.09619a1.52452,1.52452,0,0,1,2.15137,0,3.02365,3.02365,0,0,0,4.27148,0l3.13575-3.13574Z"/></svg>