<svg fill="currentColor" id="icons" xmlns="http://www.w3.org/2000/svg" viewBox="0 0 24 24"><title>01-08-arrange-hor-m</title><rect id="canvas" width="24" height="24" style="fill:none"/><path d="M7,12a3.50424,3.50424,0,0,0,3.5,3.5h3a3.5,3.5,0,0,0,0-7h-3A3.50424,3.50424,0,0,0,7,12Zm3.5-2h3a2,2,0,0,1,0,4h-3a2,2,0,0,1,0-4Z"/><path d="M20.25,3a.7502.7502,0,0,0-.75.75v16.5a.75.75,0,0,0,1.5,0V3.75A.7502.7502,0,0,0,20.25,3Z"/><path d="M3.75,3A.7502.7502,0,0,0,3,3.75v16.5a.75.75,0,0,0,1.5,0V3.75A.7502.7502,0,0,0,3.75,3Z"/></svg>