<svg fill="currentColor" id="icons" xmlns="http://www.w3.org/2000/svg" viewBox="0 0 24 24"><title>01-26-arrange-ver-m</title><rect id="canvas" width="24" height="24" style="fill:none"/><path d="M13.21143,13.08105a.75152.75152,0,0,0-1.06055-.00976l-3.188,3.12512V6.01758a.75.75,0,0,0-1.5,0V16.19641l-3.188-3.12512A.74961.74961,0,1,0,3.2251,14.1416l4.46289,4.376a.74864.74864,0,0,0,1.0498,0l4.46289-4.376A.74978.74978,0,0,0,13.21143,13.08105Z"/><path d="M20.7749,9.8584,16.312,5.48242a.74742.74742,0,0,0-1.0498,0l-4.46289,4.376a.74961.74961,0,1,0,1.0498,1.07031l3.188-3.12512V17.98242a.75.75,0,1,0,1.5,0V7.80359l3.188,3.12512A.74961.74961,0,1,0,20.7749,9.8584Z"/></svg>