<svg fill="currentColor" id="icons" xmlns="http://www.w3.org/2000/svg" viewBox="0 0 24 24"><title>01-26-arrange-ver-s</title><rect id="canvas" width="24" height="24" style="fill:none"/><path d="M14.39415,6.96473,12.06261,9.25087a.74961.74961,0,1,0,1.0498,1.07031l1.05665-1.03552v5.974a.75.75,0,0,0,1.5,0V9.28584l1.05615,1.03534A.74961.74961,0,1,0,17.775,9.25087L15.44445,6.96473A.74986.74986,0,0,0,14.39415,6.96473Z"/><path d="M12.16271,14.21376a.74951.74951,0,0,0-1.2749-.53516L9.82122,14.72389l.02215-5.98084V8.74012a.75.75,0,0,0-1.5-.00293l-.02215,5.967L7.275,13.6786a.74961.74961,0,1,0-1.0498,1.07031L8.55577,17.035a.74986.74986,0,0,0,1.0503,0l2.33154-2.28614A.746.746,0,0,0,12.16271,14.21376Z"/></svg>