<svg fill="currentColor" id="icons" xmlns="http://www.w3.org/2000/svg" viewBox="0 0 24 24"><title>01-13-arrow-up-circle-m</title><rect id="canvas" width="24" height="24" style="fill:none"/><path d="M12,20a8,8,0,1,1,8-8A8.00917,8.00917,0,0,1,12,20ZM12,5.5A6.5,6.5,0,1,0,18.5,12,6.50753,6.50753,0,0,0,12,5.5Z"/><path d="M15.35547,11.04834,12.52734,8.21973a.74971.74971,0,0,0-1.06054,0L8.64453,11.042a.74992.74992,0,1,0,1.06055,1.06055L11.25,10.55762V15.25a.75.75,0,0,0,1.5,0V10.56366l1.54492,1.54523a.74992.74992,0,0,0,1.06055-1.06055Z"/></svg>