<svg fill="currentColor" id="icons" xmlns="http://www.w3.org/2000/svg" viewBox="0 0 24 24"><title>01-19-arrow-ld-circle-m</title><rect id="canvas" width="24" height="24" style="fill:none"/><path d="M12,19.99609A7.998,7.998,0,1,1,17.65723,6.34326h0A7.99585,7.99585,0,0,1,12,19.99609ZM12,5.5a6.50025,6.50025,0,1,0,4.59668,1.90381A6.4576,6.4576,0,0,0,12,5.5Z"/><path d="M14.82617,9.17139a.74973.74973,0,0,0-1.06055,0l-3.314,3.31433V10.30029a.75.75,0,0,0-1.5,0V14.2998a.75019.75019,0,0,0,.75.75h3.9917a.75.75,0,0,0,0-1.5H11.50867l3.3175-3.31787A.74972.74972,0,0,0,14.82617,9.17139Z"/></svg>