<svg fill="currentColor" id="icons" xmlns="http://www.w3.org/2000/svg" viewBox="0 0 24 24"><title>01-39-arrow-left-right-s</title><path d="M17.78516,11.47461,15.499,9.144a.74961.74961,0,1,0-1.07031,1.04981L15.473,11.25916l-6.92859-.01783,1.02686-1.04748A.74961.74961,0,1,0,8.501,9.144L6.21484,11.47461a.75044.75044,0,0,0,0,1.05078L8.501,14.856a.74961.74961,0,1,0,1.07031-1.04981L8.52747,12.74133l6.92761.01776-1.02637,1.04706A.74961.74961,0,1,0,15.499,14.856l2.28614-2.33057A.75044.75044,0,0,0,17.78516,11.47461Z"/><rect id="canvas" width="24" height="24" style="fill:none"/></svg>