<svg fill="currentColor" id="icons" xmlns="http://www.w3.org/2000/svg" viewBox="0 0 24 24"><title>01-18-arrow-rd-circle-m</title><rect id="canvas" width="24" height="24" style="fill:none"/><path d="M12,19.99707A7.99777,7.99777,0,0,1,6.34326,6.34326h0A8,8,0,1,1,12,19.99707ZM12,5.5A6.4576,6.4576,0,0,0,7.40381,7.40381h0A6.5,6.5,0,1,0,12,5.5ZM6.87354,6.87354h0Z"/><path d="M14.2959,9.55029a.7502.7502,0,0,0-.75.75v2.18506l-3.314-3.314a.74992.74992,0,0,0-1.06054,1.06054l3.31787,3.31787H10.30469a.75.75,0,0,0,0,1.5H14.2959a.75019.75019,0,0,0,.75-.75V10.30029A.7502.7502,0,0,0,14.2959,9.55029Z"/></svg>