<svg fill="currentColor" id="icons" xmlns="http://www.w3.org/2000/svg" viewBox="0 0 24 24"><title>01-40-arrow-up-down-s</title><path d="M13.80566,14.42871,12.74133,15.4726l.01776-6.92774,1.04657,1.02643A.7503.7503,0,0,0,14.85645,8.5L12.52539,6.21436a.75043.75043,0,0,0-1.05078,0L9.14355,8.5a.7503.7503,0,0,0,1.05079,1.07129l1.06482-1.04437-.01783,6.92871-1.047-1.02692A.7503.7503,0,0,0,9.14355,15.5l2.33106,2.28564a.751.751,0,0,0,1.05078,0L14.85645,15.5a.7503.7503,0,0,0-1.05079-1.07129Z"/><rect id="canvas" width="24" height="24" style="fill:none"/></svg>