<svg fill="currentColor" id="icons" xmlns="http://www.w3.org/2000/svg" viewBox="0 0 24 24"><title>01-17-arrow-ru-circle-m</title><rect id="canvas" width="24" height="24" style="fill:none"/><path d="M14.29785,8.9541h-4a.75.75,0,0,0,0,1.5H12.4834L9.16992,13.76758a.74992.74992,0,1,0,1.06055,1.06054l3.31738-3.31738v2.18457a.75.75,0,0,0,1.5,0V9.7041A.7502.7502,0,0,0,14.29785,8.9541Z"/><path d="M12,19.99609A7.99585,7.99585,0,0,1,6.34277,6.34326h0A8.00036,8.00036,0,1,1,12,19.99609ZM7.40332,7.40381a6.50051,6.50051,0,1,0,9.19336,0,6.50825,6.50825,0,0,0-9.19336,0Z"/></svg>