<svg fill="currentColor" id="icons" xmlns="http://www.w3.org/2000/svg" viewBox="0 0 24 24"><title>01-40-arrow-up-down-m</title><path d="M15.9375,14.33887l-3.15039,3.08868V6.57245L15.9375,9.66113a.75.75,0,1,0,1.05078-1.07031l-4.46289-4.376a.74862.74862,0,0,0-1.05078,0l-4.46289,4.376A.75.75,0,1,0,8.0625,9.66113l3.22461-3.16144V17.50031L8.0625,14.33887a.75.75,0,1,0-1.05078,1.07031l4.46289,4.376a.74984.74984,0,0,0,1.05078,0l4.46289-4.376a.75.75,0,1,0-1.05078-1.07031Z"/><rect id="canvas" width="24" height="24" style="fill:none"/></svg>