<svg fill="currentColor" id="icons" xmlns="http://www.w3.org/2000/svg" viewBox="0 0 24 24"><title>01-39-arrow-left-right-m</title><path d="M19.78516,11.47461l-4.376-4.46289A.75.75,0,1,0,14.33887,8.0625l3.16144,3.22461H6.49969L9.66113,8.0625A.75.75,0,1,0,8.59082,7.01172l-4.376,4.46289a.75044.75044,0,0,0,0,1.05078l4.376,4.46289A.75.75,0,1,0,9.66113,15.9375L6.57245,12.78711h10.8551L14.33887,15.9375a.75.75,0,1,0,1.07031,1.05078l4.376-4.46289A.75044.75044,0,0,0,19.78516,11.47461Z"/><rect id="canvas" width="24" height="24" style="fill:none"/></svg>