<svg fill="currentColor" id="icons" xmlns="http://www.w3.org/2000/svg" viewBox="0 0 24 24"><title>01-20-arrow-lu-circle-m</title><rect id="canvas" width="24" height="24" style="fill:none"/><path d="M12,19.99609a7.99585,7.99585,0,1,1,5.65723-2.33886h0A7.97514,7.97514,0,0,1,12,19.99609ZM12,5.50342a6.49683,6.49683,0,1,0,4.59668,1.90039A6.48064,6.48064,0,0,0,12,5.50342ZM17.127,17.127h0Z"/><path d="M14.82812,13.76758,11.51465,10.4541H13.7002a.75.75,0,0,0,0-1.5h-4a.75019.75019,0,0,0-.75.75v3.99121a.75.75,0,0,0,1.5,0V11.51074l3.31738,3.31738a.74992.74992,0,0,0,1.06054-1.06054Z"/></svg>