<svg fill="currentColor" id="icons" xmlns="http://www.w3.org/2000/svg" viewBox="0 0 24 24"><title>01-15-arrow-down-circle-m</title><rect id="canvas" width="24" height="24" style="fill:none"/><path d="M12,20a8,8,0,1,1,8-8A8.00917,8.00917,0,0,1,12,20ZM12,5.5A6.5,6.5,0,1,0,18.5,12,6.50753,6.50753,0,0,0,12,5.5Z"/><path d="M15.35547,11.89111a.74973.74973,0,0,0-1.06055,0L12.75,13.43634V8.75a.75.75,0,0,0-1.5,0v4.69238L9.70508,11.89746A.74992.74992,0,1,0,8.64453,12.958l2.82227,2.82226a.74971.74971,0,0,0,1.06054,0l2.82813-2.82861A.74973.74973,0,0,0,15.35547,11.89111Z"/></svg>