<svg fill="currentColor" id="icons" xmlns="http://www.w3.org/2000/svg" viewBox="0 0 24 24"><title>01-16-arrow-left-circle-m</title><rect id="canvas" width="24" height="24" style="fill:none"/><path d="M12,20a8,8,0,1,1,8-8A8.00917,8.00917,0,0,1,12,20ZM12,5.5A6.5,6.5,0,1,0,18.5,12,6.50753,6.50753,0,0,0,12,5.5Z"/><path d="M15.25,11.25H10.56366l1.54523-1.54492a.74992.74992,0,0,0-1.06055-1.06055L8.21973,11.47266a.74971.74971,0,0,0,0,1.06054L11.042,15.35547a.74992.74992,0,1,0,1.06055-1.06055L10.55762,12.75H15.25a.75.75,0,0,0,0-1.5Z"/></svg>