<svg fill="currentColor" id="icons" xmlns="http://www.w3.org/2000/svg" viewBox="0 0 24 24"><title>01-21-arrow-drag-m</title><rect id="canvas" width="24" height="24" style="fill:none"/><path d="M12,20a8,8,0,1,1,8-8A8.00917,8.00917,0,0,1,12,20ZM12,5.5A6.5,6.5,0,1,0,18.5,12,6.50753,6.50753,0,0,0,12,5.5Z"/><path d="M10.4248,15.49219a.74527.74527,0,0,1-.53906-.22852L7.23633,12.521a.74888.74888,0,0,1,0-1.042L9.88574,8.73633a.74968.74968,0,1,1,1.07813,1.042L8.81836,12l2.14551,2.2207a.75.75,0,0,1-.53907,1.27149Z"/><path d="M13.5752,15.49219a.75.75,0,0,1-.53907-1.27149L15.18164,12,13.03613,9.77832a.74968.74968,0,1,1,1.07813-1.042L16.76367,11.479a.74888.74888,0,0,1,0,1.042l-2.64941,2.74267A.74527.74527,0,0,1,13.5752,15.49219Z"/></svg>