<?xml version="1.0" encoding="utf-8"?>
<!-- Generator: Adobe Illustrator 25.2.1, SVG Export Plug-In . SVG Version: 6.00 Build 0)  -->
<svg fill="currentColor" version="1.1" id="Warstwa_1" xmlns="http://www.w3.org/2000/svg"
	xmlns:xlink="http://www.w3.org/1999/xlink" x="0px" y="0px"
	viewBox="0 0 26 26" style="enable-background:new 0 0 26 26;" xml:space="preserve">
<g>
	<path d="M21.945,10.2789c-0.0879-1.4402-1.2829-2.5811-2.7448-2.5826h-4.5449l-0.1411-0.0076
		c-0.3261-0.0364-0.6269-0.2007-0.834-0.4601L12.7935,6.123l-0.1248-0.1456c-0.3881-0.4221-0.8971-0.7092-1.4523-0.8256
		c-0.1851-0.0388-0.3752-0.0587-0.5679-0.0582H6.7002L6.5328,5.0989c-0.18,0.011-0.3554,0.0393-0.5244,0.0833
		C4.8251,5.4897,3.9515,6.5646,3.9502,7.8438v4.5v6l0.0052,0.1674c0.0879,1.4402,1.2829,2.5811,2.7448,2.5826h12.5l0.1675-0.0052
		c1.4401-0.0879,2.5811-1.2829,2.5825-2.7448v-6v-1.8975L21.945,10.2789z M5.4568,7.7161c0.0323-0.3148,0.1816-0.5952,0.4038-0.7971
		c0.2222-0.2018,0.5173-0.325,0.8411-0.3253h3.9467l0.1415,0.0076c0.1241,0.0137,0.2378,0.0619,0.3503,0.1105
		c0.1835,0.0794,0.3533,0.1868,0.4808,0.3467l0.8891,1.1085l0.1247,0.1454c0.5173,0.5621,1.2518,0.8858,2.0245,0.8838h4.541
		l0.1276,0.0066c0.6296,0.0646,1.1217,0.5972,1.1224,1.2449L20.45,10.843H5.4502V7.8438L5.4568,7.7161z M20.4502,18.3438
		l-0.0066,0.1276c-0.0646,0.6296-0.5972,1.1217-1.2449,1.1224H6.7002l-0.1276-0.0066c-0.6296-0.0646-1.1217-0.5972-1.1224-1.2449
		v-5.9985h15V18.3438z"/>
</g>
</svg>