<?xml version="1.0" encoding="utf-8"?>
<!-- Generator: Adobe Illustrator 25.2.1, SVG Export Plug-In . SVG Version: 6.00 Build 0)  -->
<svg fill="currentColor" version="1.1" id="Warstwa_1" xmlns="http://www.w3.org/2000/svg" xmlns:xlink="http://www.w3.org/1999/xlink" x="0px" y="0px"
	 viewBox="0 0 26 26" style="enable-background:new 0 0 26 26;" xml:space="preserve">
<style type="text/css">
	.st0{fill:#FFDA24;}
	.st1{fill:#FD9F05;}
</style>
<g>
	<path class="st0" d="M6.7002,21.0937h12.5c1.5181-0.0015,2.7485-1.2318,2.75-2.75v-7.8975c-0.0015-1.5181-1.2319-2.7485-2.75-2.75
		h-4.5449c-0.3794,0.001-0.7384-0.1713-0.9751-0.4678l-0.8867-1.1055c-0.5205-0.6524-1.3104-1.0314-2.145-1.0293H6.7002
		c-1.5181,0.0015-2.7485,1.2319-2.75,2.75v10.5C3.9517,19.8619,5.1821,21.0922,6.7002,21.0937z"/>
	<path class="st1" d="M21.9502,12.3438v-1.8975c-0.0015-1.5181-1.2319-2.7485-2.75-2.75h-4.5449
		c-0.3794,0.001-0.7384-0.1713-0.9751-0.4678l-0.8867-1.1055c-0.5205-0.6524-1.3104-1.0314-2.145-1.0293H6.7002
		c-1.5181,0.0016-2.7485,1.2319-2.75,2.75v4.5H21.9502z"/>
</g>
</svg>
