<svg fill="currentColor" id="icons" xmlns="http://www.w3.org/2000/svg" viewBox="0 0 24 24"><title>02-08-at-m</title><rect id="canvas" width="24" height="24" style="fill:none;opacity:0.1"/><path d="M12,4a8.08834,8.08834,0,0,0-8.15625,8A8.08834,8.08834,0,0,0,12,20a8.18519,8.18519,0,0,0,4.64648-1.42969.75.75,0,1,0-.84375-1.24023A6.7036,6.7036,0,0,1,12,18.5,6.587,6.587,0,0,1,5.34375,12,6.587,6.587,0,0,1,12,5.5,6.587,6.587,0,0,1,18.65625,12v1.208a1.3081,1.3081,0,0,1-2.61475,0V12a4.04269,4.04269,0,1,0-1.06707,2.66724A2.8093,2.8093,0,0,0,20.15625,13.208V12A8.08834,8.08834,0,0,0,12,4Zm0,10.47266A2.47335,2.47335,0,1,1,14.5415,12,2.51074,2.51074,0,0,1,12,14.47266Z"/></svg>