<svg fill="currentColor" id="icons" xmlns="http://www.w3.org/2000/svg" viewBox="0 0 24 24"><title>03-01-attachments-m</title><rect id="canvas" width="24" height="24" style="fill:none"/><path d="M13.40576,9.63965A.75.75,0,1,0,12.3335,8.59082L8.71143,12.29639a2.80566,2.80566,0,0,0,.00048,3.89892,2.687,2.687,0,0,0,3.85791,0l5.293-5.41552.00019-.00031.0003-.00018a4.03825,4.03825,0,0,0-.00049-5.60938,3.94273,3.94273,0,0,0-5.52868-.00043l-.00061.00043-.00043.00043-.00006.00006v.00006L6.4834,11.15576l-.00018.00031-.00031.00018a5.267,5.267,0,0,0,.00049,7.31934,5.01383,5.01383,0,0,0,7.20068,0l4.17871-4.27539a.75.75,0,1,0-1.07226-1.04883l-4.17871,4.27539a3.59619,3.59619,0,0,1-5.05616,0,3.75868,3.75868,0,0,1,.00049-5.22266V12.204l5.8501-5.98529.00067-.001A2.40746,2.40746,0,0,1,16.79,6.21826a2.5287,2.5287,0,0,1,0,3.51319v.00006l-5.293,5.415a1.21478,1.21478,0,0,1-1.7124,0,1.2963,1.2963,0,0,1-.00049-1.80175Z"/></svg>