<?xml version="1.0" encoding="utf-8"?>
<!-- Generator: Adobe Illustrator 24.2.3, SVG Export Plug-In . SVG Version: 6.00 Build 0)  -->
<svg fill="currentColor" version="1.1" id="Warstwa_1" xmlns="http://www.w3.org/2000/svg" xmlns:xlink="http://www.w3.org/1999/xlink" x="0px" y="0px"
	 viewBox="0 0 26 26" style="enable-background:new 0 0 26 26;" xml:space="preserve">
<style type="text/css">
	.st0{fill:#FF2F52;}
</style>
<g>
	<path class="st0" d="M13,4c-5,0-9,4-9,9s4,9,9,9s9-4,9-9S18,4,13,4z M16.3,14.2l-4.1,2.6c-0.2,0.1-0.5,0.2-0.7,0.2
		c-0.8,0-1.4-0.6-1.4-1.4v-5.1c0-0.5,0.3-1,0.7-1.3c0.5-0.3,1-0.2,1.5,0l4.1,2.6C16.7,12,17,12.5,17,13S16.7,14,16.3,14.2z"/>
</g>
</svg>
