<?xml version="1.0" encoding="utf-8"?>
<!-- Generator: Adobe Illustrator 25.2.1, SVG Export Plug-In . SVG Version: 6.00 Build 0)  -->
<svg fill="currentColor" version="1.1" id="Warstwa_1" xmlns="http://www.w3.org/2000/svg"
	xmlns:xlink="http://www.w3.org/1999/xlink" x="0px" y="0px"
	viewBox="0 0 26 26" style="enable-background:new 0 0 26 26;" xml:space="preserve">
<g>
	<path d="M13,4c4.9706,0,9,4.0294,9,9s-4.0294,9-9,9s-9-4.0294-9-9S8.0294,4,13,4z M13,5.5
		c-4.1421,0-7.5,3.3579-7.5,7.5s3.3579,7.5,7.5,7.5s7.5-3.3579,7.5-7.5S17.1421,5.5,13,5.5z"/>
	<path d="M12.1752,9.2112l4.1408,2.558C16.7405,12.0293,17,12.4962,17,12.9998s-0.2595,0.9705-0.684,1.2306
		l-4.1408,2.558c-0.2252,0.1385-0.4835,0.2117-0.7467,0.2116c-0.7861,0.0021-1.4253-0.643-1.4284-1.4416v-5.1172
		c0.0014-0.5202,0.2781-0.9994,0.7243-1.2546C11.1771,8.9293,11.731,8.9387,12.1752,9.2112z M11.5,10.557l-0.001,4.885L15.453,13
		L11.5,10.557z"/>
</g>
</svg>