<svg fill="currentColor" id="icons" xmlns="http://www.w3.org/2000/svg" viewBox="0 0 24 24"><title>06-04-axis-y2-m</title><rect id="canvas" width="24" height="24" style="fill:none"/><path d="M19.2168,19.542H17.09961l1.28516-1.29883a3.50886,3.50886,0,0,0,1.27148-2.55664,2.14031,2.14031,0,0,0-2.30273-2.21582,2.34015,2.34015,0,0,0-2.418,2.24219.75063.75063,0,0,0,.65918.83106.75854.75854,0,0,0,.831-.65918c.07129-.624.36621-.91407.92774-.91407.80273,0,.80273.502.80273.71582,0,.40918-.13965.80274-.835,1.499l-2.50977,2.53613a.85669.85669,0,0,0-.21679.57031.75019.75019,0,0,0,.75.75H19.2168a.75.75,0,0,0,0-1.5Z"/><path d="M17.86035,6.186a.75011.75011,0,0,0-1.2207-.87208L12,11.80908,7.36035,5.314a.75011.75011,0,0,0-1.2207.87208L11.25,13.33966V18.25a.75.75,0,0,0,1.5,0V13.33966Z"/></svg>