<svg fill="currentColor" id="icons" xmlns="http://www.w3.org/2000/svg" viewBox="0 0 24 24"><title>06-03-axis-y1-m</title><rect id="canvas" width="24" height="24" style="fill:none"/><path d="M17.86035,6.186a.75011.75011,0,0,0-1.2207-.87208L12,11.80908,7.36035,5.314a.75011.75011,0,1,0-1.2207.87208L11.25,13.33966V18.25a.75.75,0,0,0,1.5,0V13.33966Z"/><path d="M18.47949,14.0332a.7549.7549,0,0,0-.80957.1377l-1.77734,1.64941a.74976.74976,0,0,0,1.01953,1.09961l.51758-.48047V20.2207a.75.75,0,0,0,1.5,0v-5.5A.75038.75038,0,0,0,18.47949,14.0332Z"/></svg>