<svg fill="currentColor" id="icons" xmlns="http://www.w3.org/2000/svg" viewBox="0 0 24 24"><title>01-02-bar-m</title><rect id="canvas" width="24" height="24" style="fill:none"/><path d="M19.9248,17.7998a2.20223,2.20223,0,0,0-2.1997-2.1997H6.2749a2.2,2.2,0,0,0,0,4.3999H17.7251A2.20234,2.20234,0,0,0,19.9248,17.7998Zm-14.3496,0a.70059.70059,0,0,1,.6997-.6997H17.7251a.7.7,0,0,1,0,1.3999H6.2749A.7007.7007,0,0,1,5.5752,17.7998Z"/><path d="M6.2749,14.2002h7.4502a2.2002,2.2002,0,0,0,0-4.4004H6.2749a2.2002,2.2002,0,0,0,0,4.4004Zm0-2.9004h7.4502a.7002.7002,0,0,1,0,1.4004H6.2749a.7002.7002,0,0,1,0-1.4004Z"/><path d="M6.2749,8.3999H9.7251A2.2,2.2,0,0,0,9.7251,4H6.2749a2.2,2.2,0,0,0,0,4.3999Zm0-2.8999H9.7251a.7.7,0,0,1,0,1.3999H6.2749a.7.7,0,0,1,0-1.3999Z"/></svg>