<svg fill="currentColor" id="icons" xmlns="http://www.w3.org/2000/svg" viewBox="0 0 24 24"><title>02-09-barcode-m</title><rect id="canvas" width="24" height="24" style="fill:none"/><path d="M7.417,19.5H5.583A1.08361,1.08361,0,0,1,4.5,18.417V16.583a.75.75,0,0,0-1.5,0v1.834A2.58651,2.58651,0,0,0,5.583,21H7.417a.75.75,0,0,0,0-1.5Z"/><path d="M3.75,8.1665a.75019.75019,0,0,0,.75-.75V5.5835A1.084,1.084,0,0,1,5.583,4.5H7.417a.75.75,0,0,0,0-1.5H5.583A2.58661,2.58661,0,0,0,3,5.5835v1.833A.75019.75019,0,0,0,3.75,8.1665Z"/><path d="M18.417,3H16.583a.75.75,0,1,0,0,1.5h1.834A1.084,1.084,0,0,1,19.5,5.5835v1.833a.75.75,0,1,0,1.5,0V5.5835A2.58661,2.58661,0,0,0,18.417,3Z"/><path d="M20.25,15.833a.7502.7502,0,0,0-.75.75v1.834A1.08361,1.08361,0,0,1,18.417,19.5H16.583a.75.75,0,0,0,0,1.5h1.834A2.58651,2.58651,0,0,0,21,18.417V16.583A.7502.7502,0,0,0,20.25,15.833Z"/><path d="M20.25,11.07861H18.46777V7.96484a.75.75,0,1,0-1.5,0v3.11377H15.60938V7.96484a.75.75,0,0,0-1.5,0v3.11377H12.75V7.96484a.75.75,0,1,0-1.5,0v3.11377H9.89062V7.96484a.75.75,0,0,0-1.5,0v3.11377H7.03223V7.96484a.75.75,0,0,0-1.5,0v3.11377H3.75a.75.75,0,0,0,0,1.5H5.53223v3.11377a.75.75,0,0,0,1.5,0V12.57861H8.39062v1.77a.75.75,0,0,0,1.5,0v-1.77H11.25v1.77a.75.75,0,0,0,1.5,0v-1.77h1.35938v1.77a.75.75,0,0,0,1.5,0v-1.77h1.35839v3.11377a.75.75,0,0,0,1.5,0V12.57861H20.25a.75.75,0,0,0,0-1.5Z"/></svg>