<svg fill="currentColor" id="icons" xmlns="http://www.w3.org/2000/svg" viewBox="0 0 24 24"><title>05-05-battery-charge-m</title><rect id="canvas" width="24" height="24" style="fill:none"/><path d="M20.083,9.52393,18.76318,8.864V8.65527a2.75342,2.75342,0,0,0-2.75-2.75H5.75977a2.75342,2.75342,0,0,0-2.75,2.75v6.68946a2.75342,2.75342,0,0,0,2.75,2.75H16.01318a2.75342,2.75342,0,0,0,2.75-2.75V15.136l1.31983-.65992a1.63221,1.63221,0,0,0,.90722-1.46777V10.9917A1.63221,1.63221,0,0,0,20.083,9.52393Zm-2.81983,5.8208a1.25116,1.25116,0,0,1-1.25,1.25H5.75977a1.25116,1.25116,0,0,1-1.25-1.25V8.65527a1.25116,1.25116,0,0,1,1.25-1.25H16.01318a1.25116,1.25116,0,0,1,1.25,1.25v6.68946Zm2.22705-2.33643a.142.142,0,0,1-.07812.126l-.64893.3247V10.541l.64893.3247a.142.142,0,0,1,.07812.126Z"/><path d="M10.23,15.75a.75.75,0,0,1-.564-1.24365l1.36474-1.56006-1.8291-1.04492a.75032.75032,0,0,1-.19238-1.14551l1.96924-2.25a.75019.75019,0,0,1,1.1289.98828l-1.36523,1.55957,1.82861,1.04492a.74974.74974,0,0,1,.19238,1.145l-1.96826,2.25A.74886.74886,0,0,1,10.23,15.75Z"/></svg>