<svg fill="currentColor" id="icons" xmlns="http://www.w3.org/2000/svg" viewBox="0 0 24 24"><title>02-01-bluetooth-m</title><rect id="canvas" width="24" height="24" style="fill:none"/><path d="M16.572,8.894c.01593-.01745.03857-.0246.053-.04388a.69053.69053,0,0,0,.03015-.06342.81284.81284,0,0,0,.10114-.27087.73138.73138,0,0,0,.007-.14093.65521.65521,0,0,0-.06232-.27252.716.716,0,0,0-.07532-.13355c-.01349-.01886-.01794-.04126-.03338-.05914a.69642.69642,0,0,0-.06263-.04865.70028.70028,0,0,0-.05456-.06122L11.67529,4.19971a.7064.7064,0,0,0-.07959-.03784.62067.62067,0,0,0-.285-.09479.708.708,0,0,0-.08557-.01728c-.01825,0-.03357.00916-.05152.01044a.81189.81189,0,0,0-.509.25421c-.0119.01367-.0285.02045-.03955.03516a.70359.70359,0,0,0-.0379.07965.62134.62134,0,0,0-.09491.28607.7015.7015,0,0,0-.01709.08447V9.81616L7.71533,7.43262a.74983.74983,0,1,0-.98047,1.13476l3.74024,3.23029v.40466L6.73486,15.43262a.74983.74983,0,1,0,.98047,1.13476l2.75977-2.38354V19.2002a.7015.7015,0,0,0,.01709.08447.62134.62134,0,0,0,.09491.28607.70359.70359,0,0,0,.0379.07965c.00977.013.02539.0174.03583.0296a.7355.7355,0,0,0,.1795.14862.74867.74867,0,0,0,.07367.04969.73907.73907,0,0,0,.3111.0719l.00024-.00007.00025.00007a.74641.74641,0,0,0,.26458-.05353,364.48287,364.48287,0,0,0,.18512-.09638L16.4751,16.2002a.70168.70168,0,0,0,.05957-.0669c.01776-.017.04126-.024.05762-.043.01544-.01788.01989-.04028.03338-.05914a.81363.81363,0,0,0,.12067-.26422.72364.72364,0,0,0,.017-.14185.73138.73138,0,0,0-.007-.14093.81284.81284,0,0,0-.10114-.27087.69053.69053,0,0,0-.03015-.06342.43548.43548,0,0,1-.10986-.11719L13.00372,12l3.51142-3.03271A.69739.69739,0,0,0,16.572,8.894Zm-1.74213-.4527L11.9751,10.9068V6.30011ZM11.9751,13.0932l2.85473,2.46552L11.9751,17.69989Z"/></svg>