<svg fill="currentColor" id="icons" xmlns="http://www.w3.org/2000/svg" viewBox="0 0 24 24"><title>02-03-book-2-m</title><rect id="canvas" width="24" height="24" style="fill:none"/><path d="M20.78027,4.21973A.74942.74942,0,0,0,20.25,4,16.34021,16.34021,0,0,0,12,5.85138,16.34021,16.34021,0,0,0,3.75,4,.75021.75021,0,0,0,3,4.75V17.30469a.75153.75153,0,0,0,.22461.53515.7966.7966,0,0,0,.53809.21485A13.64817,13.64817,0,0,1,11.623,19.89844l.00134.00036.00159.00159a.752.752,0,0,0,.748,0l.00159-.00159.00134-.00036a13.63672,13.63672,0,0,1,7.86035-1.84375.806.806,0,0,0,.53809-.21485A.75153.75153,0,0,0,21,17.30469V4.75A.75027.75027,0,0,0,20.78027,4.21973ZM4.5,5.50928a14.23057,14.23057,0,0,1,6.75,1.63379V17.999A14.91355,14.91355,0,0,0,4.5,16.55176Zm15,11.04248A14.91355,14.91355,0,0,0,12.75,17.999V7.14307A14.23057,14.23057,0,0,1,19.5,5.50928Z"/></svg>