<svg fill="currentColor" width="24" height="24" viewBox="0 0 24 24" xmlns="http://www.w3.org/2000/svg">
<path d="M8.75003 3.5H15.25C16.7771 3.5108 18.0073 4.75562 18 6.28271V19.75C18 20.0166 17.8584 20.2632 17.6282 20.3976C17.3979 20.5321 17.1136 20.5342 16.8814 20.4033L12.0069 17.6543L7.11771 20.4038C6.88545 20.5343 6.60139 20.5319 6.37142 20.3973C6.14146 20.2628 6.00009 20.0164 6.00003 19.75V6.28271C5.99278 4.75562 7.22296 3.5108 8.75003 3.5ZM15.25 5H8.75003C8.05097 5.00979 7.49176 5.58363 7.50003 6.28271V7.8999H16.5V6.28271C16.5083 5.58363 15.9491 5.00979 15.25 5Z" />
</svg>
