<svg fill="currentColor" id="icons" xmlns="http://www.w3.org/2000/svg" viewBox="0 0 24 24"><title>02-02-book-m</title><rect id="canvas" width="24" height="24" style="fill:none"/><path d="M16.24121,4H7.75879a2.75311,2.75311,0,0,0-2.75,2.75V17.09961c0,.00946.005.01727.00537.02667-.00037.01819-.00537.0351-.00537.05341A2.82375,2.82375,0,0,0,7.8291,20h8.41211a2.7528,2.7528,0,0,0,2.75-2.75V6.75A2.75311,2.75311,0,0,0,16.24121,4Zm1.25,13.25a1.25116,1.25116,0,0,1-1.25,1.25H7.8291a1.32129,1.32129,0,0,1,0-2.64258h9.66211ZM7.8291,14.35742a2.78424,2.78424,0,0,0-1.32031.34345V6.75a1.25116,1.25116,0,0,1,1.25-1.25H13.41c-.00122.01733-.01007.03217-.01007.0498V7.8501a.75.75,0,1,0,1.5,0V5.5498c0-.01763-.00885-.03247-.01007-.0498h1.35138a1.25116,1.25116,0,0,1,1.25,1.25v7.60742Z"/></svg>