<svg fill="currentColor" id="icons" xmlns="http://www.w3.org/2000/svg" viewBox="0 0 24 24"><title>02-01-bookmark-m</title><rect id="canvas" width="24" height="24" style="fill:none"/><path d="M6.75,20.5a.75325.75325,0,0,0,.36768-.09619l4.88916-2.74951,4.87451,2.749A.75022.75022,0,0,0,18,19.75V6.28271A2.76962,2.76962,0,0,0,15.25,3.5H8.75A2.76962,2.76962,0,0,0,6,6.28271V19.75a.7495.7495,0,0,0,.75.75Zm5.62549-4.35986a.75088.75088,0,0,0-.73584-.00049L7.5,18.46777V9.3999h9v9.06592ZM8.75,5h6.5A1.26784,1.26784,0,0,1,16.5,6.28271V7.8999h-9V6.28271A1.26784,1.26784,0,0,1,8.75,5Z"/></svg>