<svg fill="currentColor" id="icons" xmlns="http://www.w3.org/2000/svg" viewBox="0 0 24 24"><title>03-07-boolean-m</title><rect id="canvas" width="24" height="24" style="fill:none"/><path d="M9.11426,18.18066A6.12159,6.12159,0,0,1,3,12.06641v-.13282a6.11426,6.11426,0,0,1,12.22852,0v.13282A6.12159,6.12159,0,0,1,9.11426,18.18066Zm0-10.86132A4.61963,4.61963,0,0,0,4.5,11.93359v.13282a4.61426,4.61426,0,0,0,9.22852,0v-.13282A4.61964,4.61964,0,0,0,9.11426,7.31934Z"/><path d="M14.88574,18.18066a.75.75,0,0,1,0-1.5A4.60594,4.60594,0,0,0,19.5,12.09424v-.18848a4.60594,4.60594,0,0,0-4.61426-4.58642.75.75,0,0,1,0-1.5A6.10757,6.10757,0,0,1,21,11.90576v.18848A6.10757,6.10757,0,0,1,14.88574,18.18066Z"/></svg>