<svg fill="currentColor" id="icons" xmlns="http://www.w3.org/2000/svg" viewBox="0 0 24 24"><title>04-08-brightness-m</title><rect id="canvas" width="24" height="24" style="fill:none"/><path d="M12,7.32715A4.67285,4.67285,0,1,0,16.67285,12,4.6784,4.6784,0,0,0,12,7.32715Zm0,7.8457A3.17285,3.17285,0,1,1,15.17285,12,3.17582,3.17582,0,0,1,12,15.17285Z"/><path d="M12,17.94238a.7502.7502,0,0,0-.75.75v1.61524a.75.75,0,0,0,1.5,0V18.69238A.7502.7502,0,0,0,12,17.94238Z"/><path d="M12,6.05762a.7502.7502,0,0,0,.75-.75V3.69238a.75.75,0,0,0-1.5,0V5.30762A.7502.7502,0,0,0,12,6.05762Z"/><path d="M6.7373,16.20215l-1.1416,1.1416A.74992.74992,0,1,0,6.65625,18.4043l1.1416-1.1416A.74992.74992,0,1,0,6.7373,16.20215Z"/><path d="M16.73242,8.01807a.74679.74679,0,0,0,.53028-.21973l1.1416-1.14258a.74992.74992,0,1,0-1.06055-1.06055l-1.1416,1.14258a.74976.74976,0,0,0,.53027,1.28028Z"/><path d="M17.2627,16.20215a.74992.74992,0,0,0-1.06055,1.06055l1.1416,1.1416a.74992.74992,0,0,0,1.06055-1.06055Z"/><path d="M6.7373,7.79834A.74992.74992,0,1,0,7.79785,6.73779L6.65625,5.59521A.74992.74992,0,1,0,5.5957,6.65576Z"/><path d="M20.30762,11.25H18.69238a.75.75,0,0,0,0,1.5h1.61524a.75.75,0,0,0,0-1.5Z"/><path d="M6.05762,12a.7502.7502,0,0,0-.75-.75H3.69238a.75.75,0,0,0,0,1.5H5.30762A.7502.7502,0,0,0,6.05762,12Z"/></svg>