<svg fill="currentColor" id="icons" xmlns="http://www.w3.org/2000/svg" viewBox="0 0 24 24"><title>01-07-browser-play-m</title><rect id="canvas" width="24" height="24" style="fill:none"/><path d="M15.55273,20.19922a1.18564,1.18564,0,0,0,.61524-.17188l3.41894-2.07861a1.167,1.167,0,0,0,.001-1.99707l-.001-.001-3.418-2.07763a1.18913,1.18913,0,0,0-1.19727-.02051,1.17216,1.17216,0,0,0-.59863,1.01953v4.15576a1.17157,1.17157,0,0,0,.59863,1.01953A1.18417,1.18417,0,0,0,15.55273,20.19922Zm.32032-4.75049,2.46972,1.50147-2.46972,1.501Z"/><path d="M18.25,2.9502H5.75A2.75311,2.75311,0,0,0,3,5.7002V18.2998a2.75311,2.75311,0,0,0,2.75,2.75h5.4502a.75.75,0,0,0,0-1.5H5.75a1.25116,1.25116,0,0,1-1.25-1.25V9.49365h15V11.2002a.75.75,0,1,0,1.5,0v-5.5A2.75311,2.75311,0,0,0,18.25,2.9502ZM4.5,7.99365V5.7002a1.25116,1.25116,0,0,1,1.25-1.25h12.5a1.25116,1.25116,0,0,1,1.25,1.25V7.99365Z"/><circle cx="7.04999" cy="6.26874" r="1"/><circle cx="9.65002" cy="6.26874" r="1"/><circle cx="12.25" cy="6.26874" r="1"/></svg>