<svg fill="currentColor" id="icons" xmlns="http://www.w3.org/2000/svg" viewBox="0 0 24 24"><title>01-02-browser-block-m</title><rect id="canvas" width="24" height="24" style="fill:none"/><path d="M17.25,13.28223a3.75,3.75,0,1,0,3.75,3.75A3.7541,3.7541,0,0,0,17.25,13.28223Zm0,1.5a2.223,2.223,0,0,1,.97821.23315L15.233,18.01019a2.22349,2.22349,0,0,1-.233-.978A2.25246,2.25246,0,0,1,17.25,14.78223Zm0,4.5a2.2258,2.2258,0,0,1-.95007-.21784l2.98236-2.982a2.22587,2.22587,0,0,1,.21771.94983A2.25246,2.25246,0,0,1,17.25,19.28223Z"/><path d="M18.25,2.9502H5.75A2.75311,2.75311,0,0,0,3,5.7002V18.2998a2.75311,2.75311,0,0,0,2.75,2.75h5.4502a.75.75,0,0,0,0-1.5H5.75a1.25116,1.25116,0,0,1-1.25-1.25V9.49365h15V11.2002a.75.75,0,1,0,1.5,0v-5.5A2.75311,2.75311,0,0,0,18.25,2.9502ZM4.5,7.99365V5.7002a1.25116,1.25116,0,0,1,1.25-1.25h12.5a1.25116,1.25116,0,0,1,1.25,1.25V7.99365Z"/><circle cx="7.04999" cy="6.26874" r="1"/><circle cx="9.65002" cy="6.26874" r="1"/><circle cx="12.25" cy="6.26874" r="1"/></svg>