<svg fill="currentColor" id="icons" xmlns="http://www.w3.org/2000/svg" viewBox="0 0 24 24"><title>01-05-browser-check-m</title><rect id="canvas" width="24" height="24" style="fill:none"/><path d="M16.50781,19.19043a.74638.74638,0,0,0,.52832-.21777l3.252-3.231a.74992.74992,0,1,0-1.05664-1.06445L16.49707,17.394,15.27734,16.231a.75013.75013,0,1,0-1.03515,1.08593l1.748,1.66651A.7484.7484,0,0,0,16.50781,19.19043Z"/><path d="M18.25,2.9502H5.75A2.75311,2.75311,0,0,0,3,5.7002V18.2998a2.75311,2.75311,0,0,0,2.75,2.75h5.4502a.75.75,0,0,0,0-1.5H5.75a1.25116,1.25116,0,0,1-1.25-1.25V9.49365h15V11.2002a.75.75,0,1,0,1.5,0v-5.5A2.75311,2.75311,0,0,0,18.25,2.9502ZM4.5,7.99365V5.7002a1.25116,1.25116,0,0,1,1.25-1.25h12.5a1.25116,1.25116,0,0,1,1.25,1.25V7.99365Z"/><circle cx="7.04999" cy="6.26874" r="1"/><circle cx="9.65002" cy="6.26874" r="1"/><circle cx="12.25" cy="6.26874" r="1"/></svg>