<svg fill="currentColor" id="icons" xmlns="http://www.w3.org/2000/svg" viewBox="0 0 24 24"><title>01-13-browser-timer-m</title><rect id="canvas" width="24" height="24" style="fill:none"/><path d="M16.84961,13.2002a4,4,0,1,0,4,4A4.00395,4.00395,0,0,0,16.84961,13.2002Zm0,6.5a2.5,2.5,0,1,1,2.5-2.5A2.50232,2.50232,0,0,1,16.84961,19.7002Z"/><path d="M17.59961,16.88965v-.73926a.75.75,0,0,0-1.5,0V17.2002a.74945.74945,0,0,0,.21973.53027l.625.625a.74992.74992,0,0,0,1.06054-1.06055Z"/><path d="M18.25,2.9502H5.75A2.75311,2.75311,0,0,0,3,5.7002V18.2998a2.75279,2.75279,0,0,0,2.75,2.75h5.4502a.75.75,0,0,0,0-1.5H5.75a1.25116,1.25116,0,0,1-1.25-1.25V9.49365h15V11.2002a.75.75,0,1,0,1.5,0v-5.5A2.75311,2.75311,0,0,0,18.25,2.9502ZM4.5,7.99365V5.7002a1.25116,1.25116,0,0,1,1.25-1.25h12.5a1.25116,1.25116,0,0,1,1.25,1.25V7.99365Z"/><circle cx="7.04999" cy="6.26874" r="1"/><circle cx="9.65002" cy="6.26874" r="1"/><circle cx="12.25" cy="6.26874" r="1"/></svg>