<svg fill="currentColor" id="icons" xmlns="http://www.w3.org/2000/svg" viewBox="0 0 24 24"><title>01-14-browser-ssl-m</title><rect id="canvas" width="24" height="24" style="fill:none"/><path d="M7.74609,17.249l-.83789-.002a1.73268,1.73268,0,0,1-1.42675-.76758.74961.74961,0,1,1,1.23925-.84375.2315.2315,0,0,0,.18946.11133l.83789.00195a.22244.22244,0,0,0,.2334-.20019.2112.2112,0,0,0-.17286-.19434l-1.31445-.31836a1.69784,1.69784,0,0,1,.416-3.35254h.76855a1.7652,1.7652,0,0,1,1.49805.77051.74987.74987,0,1,1-1.24121.8418.23225.23225,0,0,0-.18946-.11231H6.91016a.2202.2202,0,0,0-.23536.20118.21119.21119,0,0,0,.17286.19433l1.31445.31836a1.6973,1.6973,0,0,1-.416,3.35156Z"/><path d="M12.48535,17.249l-.8374-.002a1.73271,1.73271,0,0,1-1.42676-.76758.74961.74961,0,1,1,1.23926-.84375.23148.23148,0,0,0,.18945.11133l.8374.00195a.21948.21948,0,0,0,.2334-.20019.21121.21121,0,0,0-.17236-.19434l-1.31445-.31836a1.69784,1.69784,0,0,1,.416-3.35254h.76856a1.7624,1.7624,0,0,1,1.498.77149.74972.74972,0,1,1-1.24218.83984.22986.22986,0,0,0-.189-.11133H11.6499a.2202.2202,0,0,0-.23535.20118.21121.21121,0,0,0,.17236.19433l1.31446.31836a1.6973,1.6973,0,0,1-.416,3.35156Z"/><path d="M18.0498,17.249H15.6582a.75019.75019,0,0,1-.75-.75V12.43359a.75.75,0,0,1,1.5,0V15.749h1.6416a.75.75,0,0,1,0,1.5Z"/><path d="M18.25,2.9502H5.75A2.75279,2.75279,0,0,0,3,5.7002V18.2998a2.75279,2.75279,0,0,0,2.75,2.75h12.5a2.75279,2.75279,0,0,0,2.75-2.75V5.7002A2.75279,2.75279,0,0,0,18.25,2.9502Zm-12.5,1.5h12.5a1.25116,1.25116,0,0,1,1.25,1.25V7.99414H4.5V5.7002A1.25116,1.25116,0,0,1,5.75,4.4502Zm12.5,15.0996H5.75a1.25116,1.25116,0,0,1-1.25-1.25V9.49414h15V18.2998A1.25116,1.25116,0,0,1,18.25,19.5498Z"/><circle cx="7.04999" cy="6.26874" r="1"/><circle cx="9.65002" cy="6.26874" r="1"/><circle cx="12.25" cy="6.26874" r="1"/></svg>