<svg fill="currentColor" id="icons" xmlns="http://www.w3.org/2000/svg" viewBox="0 0 24 24"><title>01-11-browser-lock-m</title><rect id="canvas" width="24" height="24" style="fill:none"/><path d="M19.73535,16.26953v-.58789a2.49971,2.49971,0,1,0-4.999,0v.588a1.74862,1.74862,0,0,0-1.68164,1.74311V20.25a1.75212,1.75212,0,0,0,1.75,1.75H19.668a1.75213,1.75213,0,0,0,1.75-1.75V18.0127A1.74868,1.74868,0,0,0,19.73535,16.26953Zm-2.499-1.61914a1.0169,1.0169,0,0,1,.999,1.03125v.58106h-1.999v-.58106A1.01708,1.01708,0,0,1,17.23633,14.65039ZM19.918,20.25a.25048.25048,0,0,1-.25.25H14.80469a.25048.25048,0,0,1-.25-.25V18.0127a.25048.25048,0,0,1,.25-.25H19.668a.25048.25048,0,0,1,.25.25Z"/><path d="M11.2002,19.5498H5.75a1.25116,1.25116,0,0,1-1.25-1.25V9.49365h15V11.2002a.75.75,0,1,0,1.5,0v-5.5a2.75311,2.75311,0,0,0-2.75-2.75H5.75A2.75311,2.75311,0,0,0,3,5.7002V18.2998a2.75279,2.75279,0,0,0,2.75,2.75h5.4502a.75.75,0,0,0,0-1.5ZM5.75,4.4502h12.5a1.25116,1.25116,0,0,1,1.25,1.25V7.99365H4.5V5.7002A1.25116,1.25116,0,0,1,5.75,4.4502Z"/><circle cx="7.04999" cy="6.26874" r="1"/><circle cx="9.65002" cy="6.26874" r="1"/><circle cx="12.25" cy="6.26874" r="1"/></svg>