<svg fill="currentColor" id="icons" xmlns="http://www.w3.org/2000/svg" viewBox="0 0 24 24"><title>01-01-browser-m</title><rect id="canvas" width="24" height="24" style="fill:none"/><path d="M18.25,2.9502H5.75A2.75311,2.75311,0,0,0,3,5.7002V18.2998a2.75311,2.75311,0,0,0,2.75,2.75h12.5a2.75311,2.75311,0,0,0,2.75-2.75V5.7002A2.75311,2.75311,0,0,0,18.25,2.9502Zm-12.5,1.5h12.5a1.25116,1.25116,0,0,1,1.25,1.25V7.99365H4.5V5.7002A1.25116,1.25116,0,0,1,5.75,4.4502Zm12.5,15.0996H5.75a1.25116,1.25116,0,0,1-1.25-1.25V9.49365h15V18.2998A1.25116,1.25116,0,0,1,18.25,19.5498Z"/><circle cx="7.04999" cy="6.26874" r="1"/><circle cx="9.65002" cy="6.26874" r="1"/><circle cx="12.25" cy="6.26874" r="1"/></svg>