<svg fill="currentColor" id="icons" xmlns="http://www.w3.org/2000/svg" viewBox="0 0 24 24"><title>01-03-browser-remove-m</title><rect id="canvas" width="24" height="24" style="fill:none"/><path d="M20.28027,14.002a.74972.74972,0,0,0-1.06054,0L17.25,15.97168,15.28027,14.002a.74992.74992,0,0,0-1.06054,1.06055l1.96972,1.96973L14.21973,19.002a.74992.74992,0,1,0,1.06054,1.06055L17.25,18.09277l1.96973,1.96973A.74992.74992,0,0,0,20.28027,19.002l-1.96972-1.96972,1.96972-1.96973A.74973.74973,0,0,0,20.28027,14.002Z"/><path d="M5.75,21.0498h5.4502a.75.75,0,0,0,0-1.5H5.75a1.25116,1.25116,0,0,1-1.25-1.25V9.49365h15V11.2002a.75.75,0,1,0,1.5,0v-5.5a2.75311,2.75311,0,0,0-2.75-2.75H5.75A2.75311,2.75311,0,0,0,3,5.7002V18.2998A2.75311,2.75311,0,0,0,5.75,21.0498Zm0-16.5996h12.5a1.25116,1.25116,0,0,1,1.25,1.25V7.99365H4.5V5.7002A1.25116,1.25116,0,0,1,5.75,4.4502Z"/><circle cx="7.04999" cy="6.26874" r="1"/><circle cx="9.65002" cy="6.26874" r="1"/><circle cx="12.25" cy="6.26874" r="1"/></svg>