<svg fill="currentColor" id="icons" xmlns="http://www.w3.org/2000/svg" viewBox="0 0 24 24"><title>01-10-browser-code-m</title><rect id="canvas" width="24" height="24" style="fill:none"/><path d="M13.93506,15.08105a.75044.75044,0,0,0-1.05811-.07519L11.2832,16.38867c-.01428.01239-.02008.02991-.0332.04309-.0127.0127-.02954.01831-.0415.03211a.69956.69956,0,0,0-.04676.08239.727.727,0,0,0-.07458.13166.71728.71728,0,0,0-.03656.136.58566.58566,0,0,0,0,.28235.71718.71718,0,0,0,.03656.136.72662.72662,0,0,0,.07458.13165.69969.69969,0,0,0,.04676.0824c.01117.01288.0274.01727.03924.02917.01392.01416.0202.03278.03546.046L12.877,18.9043a.75006.75006,0,0,0,.9834-1.13282l-.94092-.8164.94092-.81641A.74984.74984,0,0,0,13.93506,15.08105Z"/><path d="M20.99921,16.8139a.71878.71878,0,0,0-.03656-.136.72649.72649,0,0,0-.07459-.13166.69948.69948,0,0,0-.04675-.08239c-.0119-.01367-.02869-.01929-.04132-.03192-.01319-.01331-.01905-.03083-.03339-.04328l-1.59375-1.38281a.75006.75006,0,0,0-.9834,1.13281l.94092.81641-.94092.8164a.75006.75006,0,0,0,.9834,1.13282l1.59375-1.38282c.01526-.01324.02155-.03186.03546-.046.01184-.0119.02808-.01629.03925-.02917a.69961.69961,0,0,0,.04675-.0824.72608.72608,0,0,0,.07459-.13165.71868.71868,0,0,0,.03656-.136.58566.58566,0,0,0,0-.28235Z"/><path d="M16.72461,13.91992a.74728.74728,0,0,0-.89941.56153l-1.0625,4.60839a.74982.74982,0,0,0,.5625.89942.71831.71831,0,0,0,.16894.01953.75015.75015,0,0,0,.73047-.58106l1.0625-4.60839A.74983.74983,0,0,0,16.72461,13.91992Z"/><path d="M11.2002,19.5498H5.75a1.25116,1.25116,0,0,1-1.25-1.25V9.49365h15V11.2002a.75.75,0,1,0,1.5,0v-5.5a2.75311,2.75311,0,0,0-2.75-2.75H5.75A2.75311,2.75311,0,0,0,3,5.7002V18.2998a2.75279,2.75279,0,0,0,2.75,2.75h5.4502a.75.75,0,0,0,0-1.5ZM5.75,4.4502h12.5a1.25116,1.25116,0,0,1,1.25,1.25V7.99365H4.5V5.7002A1.25116,1.25116,0,0,1,5.75,4.4502Z"/><circle cx="7.04999" cy="6.26874" r="1"/><circle cx="9.65002" cy="6.26874" r="1"/><circle cx="12.25" cy="6.26874" r="1"/></svg>