<svg fill="currentColor" id="icons" xmlns="http://www.w3.org/2000/svg" viewBox="0 0 24 24"><title>01-08-browser-stop-m</title><rect id="canvas" width="24" height="24" style="fill:none"/><path d="M18.9502,14H15.6499a1.35129,1.35129,0,0,0-1.3501,1.34961v3.30078A1.35129,1.35129,0,0,0,15.6499,20h3.3003a1.35118,1.35118,0,0,0,1.3496-1.34961V15.34961A1.35118,1.35118,0,0,0,18.9502,14Zm-.1504,4.5h-3v-3h3Z"/><path d="M18.25,2.9502H5.75A2.75311,2.75311,0,0,0,3,5.7002V18.2998a2.75279,2.75279,0,0,0,2.75,2.75h5.4502a.75.75,0,0,0,0-1.5H5.75a1.25116,1.25116,0,0,1-1.25-1.25V9.49365h15V11.2002a.75.75,0,1,0,1.5,0v-5.5A2.75311,2.75311,0,0,0,18.25,2.9502ZM4.5,7.99365V5.7002a1.25116,1.25116,0,0,1,1.25-1.25h12.5a1.25116,1.25116,0,0,1,1.25,1.25V7.99365Z"/><circle cx="7.04999" cy="6.26874" r="1"/><circle cx="9.65002" cy="6.26874" r="1"/><circle cx="12.25" cy="6.26874" r="1"/></svg>