<svg fill="currentColor" id="icons" xmlns="http://www.w3.org/2000/svg" viewBox="0 0 24 24"><title>01-12-browser-search-m</title><rect id="canvas" width="24" height="24" style="fill:none"/><path d="M19.30237,18.23706a3.2438,3.2438,0,0,0,.52478-1.75561,3.41457,3.41457,0,1,0-3.41309,3.332,3.44292,3.44292,0,0,0,1.8194-.5235l1.49408,1.4483a.75.75,0,1,0,1.04492-1.07617ZM14.5,16.48145a1.91539,1.91539,0,1,1,1.91406,1.832A1.87583,1.87583,0,0,1,14.5,16.48145Z"/><path d="M18.25,2.9502H5.75A2.75311,2.75311,0,0,0,3,5.7002V18.2998a2.75279,2.75279,0,0,0,2.75,2.75h5.4502a.75.75,0,0,0,0-1.5H5.75a1.25116,1.25116,0,0,1-1.25-1.25V9.49365h15V11.2002a.75.75,0,1,0,1.5,0v-5.5A2.75311,2.75311,0,0,0,18.25,2.9502ZM4.5,7.99365V5.7002a1.25116,1.25116,0,0,1,1.25-1.25h12.5a1.25116,1.25116,0,0,1,1.25,1.25V7.99365Z"/><circle cx="7.04999" cy="6.26874" r="1"/><circle cx="9.65002" cy="6.26874" r="1"/><circle cx="12.25" cy="6.26874" r="1"/></svg>