<svg fill="currentColor" id="icons" xmlns="http://www.w3.org/2000/svg" viewBox="0 0 24 24"><title>01-09-browser-mail-m</title><rect id="canvas" width="24" height="24" style="fill:none"/><path d="M18.25,2.9502H5.75A2.75311,2.75311,0,0,0,3,5.7002V18.2998a2.75279,2.75279,0,0,0,2.75,2.75h12.5a2.75279,2.75279,0,0,0,2.75-2.75V5.7002A2.75311,2.75311,0,0,0,18.25,2.9502Zm-12.5,1.5h12.5a1.25116,1.25116,0,0,1,1.25,1.25V7.99365H4.5V5.7002A1.25116,1.25116,0,0,1,5.75,4.4502Zm12.5,15.0996H5.75a1.25116,1.25116,0,0,1-1.25-1.25V9.49365h15V18.2998A1.25116,1.25116,0,0,1,18.25,19.5498Z"/><circle cx="7.04999" cy="6.26874" r="1"/><circle cx="9.65002" cy="6.26874" r="1"/><circle cx="12.25" cy="6.26874" r="1"/><path d="M12,10.6499A3.97144,3.97144,0,1,0,13.51953,18.291a.75027.75027,0,0,0-.57324-1.38672,2.47142,2.47142,0,1,1,1.5249-2.28321v.53711c0,.28321-.51318.28321-.51318,0v-.53711A1.958,1.958,0,1,0,12,16.5791a1.93284,1.93284,0,0,0,.92188-.24121,1.75034,1.75034,0,0,0,3.04931-1.17969v-.53711A3.97541,3.97541,0,0,0,12,10.6499Zm-.458,3.97119a.458.458,0,1,1,.458.458A.45834.45834,0,0,1,11.542,14.62109Z"/></svg>