<svg fill="currentColor" id="icons" xmlns="http://www.w3.org/2000/svg" viewBox="0 0 24 24"><title>01-08-bubble-m</title><rect id="canvas" width="24" height="24" style="fill:none"/><path d="M15.5,19.5A5.5,5.5,0,1,1,21,14,5.50623,5.50623,0,0,1,15.5,19.5Zm0-9.5a4,4,0,1,0,4,4A4.00458,4.00458,0,0,0,15.5,10Z"/><path d="M7,11a4,4,0,1,1,4-4A4.00458,4.00458,0,0,1,7,11ZM7,4.5A2.5,2.5,0,1,0,9.5,7,2.50294,2.50294,0,0,0,7,4.5Z"/><path d="M6,20a3,3,0,1,1,3-3A3.00328,3.00328,0,0,1,6,20Zm0-4.5A1.5,1.5,0,1,0,7.5,17,1.50164,1.50164,0,0,0,6,15.5Z"/></svg>