<svg fill="currentColor" id="icons" xmlns="http://www.w3.org/2000/svg" viewBox="0 0 24 24"><title>08-01-bucket-fill-m</title><rect id="canvas" width="24" height="24" style="fill:none"/><path d="M17.79932,12.898c-.35108.37842-2.10108,2.33935-2.10108,3.81494a2.65091,2.65091,0,0,0,5.30176,0c0-1.47559-1.75-3.43652-2.10107-3.81494A.77393.77393,0,0,0,17.79932,12.898Zm.5498,4.95312a1.14587,1.14587,0,0,1-1.15088-1.13818,5.00653,5.00653,0,0,1,1.15088-2.144A5.00653,5.00653,0,0,1,19.5,16.71289,1.14587,1.14587,0,0,1,18.34912,17.85107Z"/><path d="M7.07275,16.19922a2.75621,2.75621,0,0,0,3.876,0l4.99365-4.96045a.75033.75033,0,0,0,.00049-1.06445l-5.2232-5.1886c-.00538-.00574-.007-.01337-.01264-.01892L8.91113,3.18311A.74992.74992,0,0,0,7.85449,4.24756l.45044.44739L3.86279,9.10742a2.74966,2.74966,0,0,0-.00049,3.90235ZM13.63043,9.9917H5.10083L9.36572,5.75537ZM9.8916,15.13477a1.25077,1.25077,0,0,1-1.76123,0L4.91943,11.94531a1.23657,1.23657,0,0,1-.2832-.45361h8.92334Z"/><path d="M12.04688,19.5H4.34473a.75.75,0,1,0,0,1.5h7.70215a.75.75,0,1,0,0-1.5Z"/></svg>