<svg fill="currentColor" id="icons" xmlns="http://www.w3.org/2000/svg" viewBox="0 0 24 24"><title>02-04-bulb-tip-m</title><rect id="canvas" width="24" height="24" style="fill:none"/><path d="M14.44043,19.5H9.55957a.75.75,0,0,0,0,1.5h4.88086a.75.75,0,0,0,0-1.5Z"/><path d="M12.11084,3.001A6.41868,6.41868,0,0,0,7.51172,4.84277,6.56262,6.56262,0,0,0,7.8833,14.5293a2.53722,2.53722,0,0,1,.92627,1.93457v2.06152h6.38086V16.4668a2.60038,2.60038,0,0,1,.95605-1.96192A6.53248,6.53248,0,0,0,12.11084,3.001Zm3.064,10.36132a4.09441,4.09441,0,0,0-1.48437,3.10157v.56152H10.30957v-.56152a4.03292,4.03292,0,0,0-1.46143-3.083A5.06233,5.06233,0,0,1,8.56348,5.9126a4.821,4.821,0,0,1,3.522-1.41162A5.0331,5.0331,0,0,1,15.1748,13.3623Z"/></svg>