<svg fill="currentColor" id="icons" xmlns="http://www.w3.org/2000/svg" viewBox="0 0 24 24"><title>10-04-button-m</title><rect id="canvas" width="24" height="24" style="fill:none"/><path d="M18.18748,3H5.81248A2.80815,2.80815,0,0,0,3,5.79736v6.40528A2.80815,2.80815,0,0,0,5.81248,15H9.32422a.75.75,0,0,0,0-1.5H5.81248A1.30655,1.30655,0,0,1,4.5,12.20264V5.79736A1.30655,1.30655,0,0,1,5.81248,4.5h12.375A1.30656,1.30656,0,0,1,19.5,5.79736v6.40528A1.30656,1.30656,0,0,1,18.18748,13.5a.75.75,0,0,0,0,1.5A2.80816,2.80816,0,0,0,21,12.20264V5.79736A2.80816,2.80816,0,0,0,18.18748,3Z"/><path d="M12.31641,12.269a.91215.91215,0,0,0-.52344.8291v6.94629a.91749.91749,0,0,0,1.63965.56787l1.03613-1.32373a2.65268,2.65268,0,0,1,2.0918-1.019H17.958a.91976.91976,0,0,0,.57617-1.63525L13.29,12.38525A.91052.91052,0,0,0,12.31641,12.269Zm.97656,2.04883,3.03418,2.4585A4.15347,4.15347,0,0,0,13.293,18.35693Z"/><path d="M7.124,11.42969a.7502.7502,0,0,0,.75.75H9.93066a.75.75,0,0,0,0-1.5H7.874A.75019.75019,0,0,0,7.124,11.42969Z"/><path d="M14.29688,11.42969a.75019.75019,0,0,0,.75.75h2.05566a.75.75,0,0,0,0-1.5H15.04688A.75018.75018,0,0,0,14.29688,11.42969Z"/><path d="M12.48828,6.00293a.7502.7502,0,0,0-.75.75V8.84277a.75.75,0,0,0,1.5,0V6.75293A.7502.7502,0,0,0,12.48828,6.00293Z"/><path d="M10.45215,10.123a.74951.74951,0,0,0,.53418-1.27588L9.53223,7.36963A.7496.7496,0,1,0,8.46387,8.42139L9.918,9.89893A.74481.74481,0,0,0,10.45215,10.123Z"/><path d="M15.44434,7.36963,13.99023,8.84717a.7496.7496,0,1,0,1.06836,1.05176L16.5127,8.42139a.7496.7496,0,1,0-1.06836-1.05176Z"/></svg>