<svg fill="currentColor" id="icons" xmlns="http://www.w3.org/2000/svg" viewBox="0 0 24 24"><title>04-06-calculator-m</title><rect id="canvas" width="24" height="24" style="fill:none"/><path d="M18.25,3H5.75A2.7528,2.7528,0,0,0,3,5.75v12.5A2.7528,2.7528,0,0,0,5.75,21h12.5A2.7528,2.7528,0,0,0,21,18.25V5.75A2.7528,2.7528,0,0,0,18.25,3ZM19.5,5.75v5.5H12.72461V4.5H18.25A1.25116,1.25116,0,0,1,19.5,5.75ZM5.75,4.5h5.47461v6.75H4.5V5.75A1.25116,1.25116,0,0,1,5.75,4.5ZM4.5,18.25v-5.5h6.72461V19.5H5.75A1.25116,1.25116,0,0,1,4.5,18.25ZM18.25,19.5H12.72461V12.75H19.5v5.5A1.25116,1.25116,0,0,1,18.25,19.5Z"/><path d="M8.95282,16.1875l.763-.77344a.74994.74994,0,0,0-1.06836-1.05273l-.74805.7583-.748-.7583A.74994.74994,0,0,0,6.083,15.41406l.763.77344-.763.77344a.74994.74994,0,1,0,1.06836,1.05273l.748-.7583.74805.7583a.74994.74994,0,0,0,1.06836-1.05273Z"/><path d="M6.459,8.6748h.65723V9.355a.75.75,0,0,0,1.5,0V8.6748h.65625a.75.75,0,1,0,0-1.5H8.61621V6.49512a.75.75,0,1,0-1.5,0V7.1748H6.459a.75.75,0,1,0,0,1.5Z"/><path d="M14.7002,8.6748h2.81347a.75.75,0,0,0,0-1.5H14.7002a.75.75,0,0,0,0,1.5Z"/><path d="M17.51367,14.15039H14.7002a.75.75,0,0,0,0,1.5h2.81347a.75.75,0,0,0,0-1.5Z"/><path d="M17.51367,16.75H14.7002a.75.75,0,0,0,0,1.5h2.81347a.75.75,0,1,0,0-1.5Z"/></svg>