<svg fill="currentColor" id="icons" xmlns="http://www.w3.org/2000/svg" viewBox="0 0 24 24"><title>01-06-calendar-check-m</title><rect id="canvas" width="24" height="24" style="fill:none"/><path d="M20.03711,14.68066a.75062.75062,0,0,0-1.06055-.00341L16.24219,17.394,15.02246,16.231a.75013.75013,0,1,0-1.03516,1.08593l1.74805,1.66651a.75012.75012,0,0,0,1.0459-.01074l3.252-3.231A.75033.75033,0,0,0,20.03711,14.68066Z"/><path d="M11.25,18.10547H6.75a1.25116,1.25116,0,0,1-1.25-1.25V9.31592a1.25116,1.25116,0,0,1,1.25-1.25h1.5V9.36719a.75.75,0,0,0,1.5,0V8.06592h4.5V9.36719a.75.75,0,0,0,1.5,0V8.06592h1.5a1.25116,1.25116,0,0,1,1.25,1.25V11.25a.75.75,0,0,0,1.5,0V9.31592a2.75311,2.75311,0,0,0-2.75-2.75h-1.5V5.14453a.75.75,0,0,0-1.5,0V6.56592H9.75V5.14453a.75.75,0,0,0-1.5,0V6.56592H6.75A2.75311,2.75311,0,0,0,4,9.31592v7.53955a2.7528,2.7528,0,0,0,2.75,2.75h4.5a.75.75,0,0,0,0-1.5Z"/></svg>