<svg fill="currentColor" id="icons" xmlns="http://www.w3.org/2000/svg" viewBox="0 0 24 24"><title>01-02-calendar-2-m</title><rect id="canvas" width="24" height="24" style="fill:none"/><path d="M6.75,19.60547h10.5a2.7528,2.7528,0,0,0,2.75-2.75V9.31592a2.75311,2.75311,0,0,0-2.75-2.75h-1.5V5.14453a.75.75,0,0,0-1.5,0V6.56592H9.75V5.14453a.75.75,0,0,0-1.5,0V6.56592H6.75A2.75311,2.75311,0,0,0,4,9.31592v7.53955A2.7528,2.7528,0,0,0,6.75,19.60547ZM5.5,9.31592a1.25116,1.25116,0,0,1,1.25-1.25h1.5V9.36719a.75.75,0,0,0,1.5,0V8.06592h4.5V9.36719a.75.75,0,0,0,1.5,0V8.06592h1.5a1.25116,1.25116,0,0,1,1.25,1.25v7.53955a1.25116,1.25116,0,0,1-1.25,1.25H6.75a1.25116,1.25116,0,0,1-1.25-1.25Z"/><path d="M15.53473,16.31873h.00268a1.00134,1.00134,0,1,0-.00268,0Z"/><path d="M8.46527,16.31873H8.468a1.00135,1.00135,0,1,0-.00269,0Z"/><path d="M15.53473,13.38123h.00268a1.00134,1.00134,0,1,0-.00268,0Z"/><path d="M12,13.38123h.00269a1.00135,1.00135,0,1,0-.00269,0Z"/></svg>