<svg fill="currentColor" id="icons" xmlns="http://www.w3.org/2000/svg" viewBox="0 0 24 24"><title>01-01-calendar-s</title><rect id="canvas" width="24" height="24" style="fill:none"/><path d="M15.75,7.86133h-1V6.75a.75.75,0,0,0-1.5,0V7.86133h-2.5V6.75a.75.75,0,0,0-1.5,0V7.86133h-1a2.25278,2.25278,0,0,0-2.25,2.25V15.75A2.25278,2.25278,0,0,0,8.25,18h7.5A2.25278,2.25278,0,0,0,18,15.75V10.11133A2.25278,2.25278,0,0,0,15.75,7.86133ZM16.5,15.75a.75113.75113,0,0,1-.75.75H8.25a.75113.75113,0,0,1-.75-.75V10.11133a.75113.75113,0,0,1,.75-.75h1v.67529a.75.75,0,0,0,1.5,0V9.36133h2.5v.67529a.75.75,0,0,0,1.5,0V9.36133h1a.75113.75113,0,0,1,.75.75Z"/></svg>