<svg fill="currentColor" id="icons" xmlns="http://www.w3.org/2000/svg" viewBox="0 0 24 24"><title>01-03-calendar-block-m</title><rect id="canvas" width="24" height="24" style="fill:none"/><path d="M16.75,12.69385a3.75,3.75,0,1,0,3.75,3.75A3.7541,3.7541,0,0,0,16.75,12.69385Zm0,1.5a2.223,2.223,0,0,1,.97821.23315L14.733,17.42181a2.22349,2.22349,0,0,1-.233-.978A2.25246,2.25246,0,0,1,16.75,14.19385Zm0,4.5a2.2258,2.2258,0,0,1-.95007-.21784l2.98236-2.982A2.22587,2.22587,0,0,1,19,16.44385,2.25246,2.25246,0,0,1,16.75,18.69385Z"/><path d="M6.75,19.60547h4.5a.75.75,0,0,0,0-1.5H6.75a1.25116,1.25116,0,0,1-1.25-1.25V9.31592a1.25116,1.25116,0,0,1,1.25-1.25h1.5V9.36719a.75.75,0,0,0,1.5,0V8.06592h4.5V9.36719a.75.75,0,0,0,1.5,0V8.06592h1.5a1.25116,1.25116,0,0,1,1.25,1.25V11.25a.75.75,0,0,0,1.5,0V9.31592a2.75311,2.75311,0,0,0-2.75-2.75h-1.5V5.14453a.75.75,0,0,0-1.5,0V6.56592H9.75V5.14453a.75.75,0,0,0-1.5,0V6.56592H6.75A2.75311,2.75311,0,0,0,4,9.31592v7.53955A2.7528,2.7528,0,0,0,6.75,19.60547Z"/></svg>