<svg fill="currentColor" id="icons" xmlns="http://www.w3.org/2000/svg" viewBox="0 0 24 24"><title>01-11-calendar-money-m</title><rect id="canvas" width="24" height="24" style="fill:none"/><path d="M17.80469,15.77686,16.53613,15.395a.40972.40972,0,0,1-.18652-.38867c0-.23877.13184-.39112.20117-.39112h.80664c.03906,0,.11914.06153.167.19288a.7499.7499,0,1,0,1.41016-.51075,1.72414,1.72414,0,0,0-1.23047-1.11853v-.1261a.75.75,0,0,0-1.5,0v.10242a1.9486,1.9486,0,0,0-.10058,3.67639l1.26855.38184a.40948.40948,0,0,1,.18555.38867c0,.25391-.14258.39111-.2002.39111h-.73926a.20522.20522,0,0,1-.209-.13623.74975.74975,0,1,0-1.33008.69239,1.70071,1.70071,0,0,0,1.125.88073v.12268a.75.75,0,0,0,1.5,0v-.09954a1.949,1.949,0,0,0,.10059-3.67633Z"/><path d="M17.25,6.56592h-1.5V5.14453a.75.75,0,0,0-1.5,0V6.56592H9.75V5.14453a.75.75,0,0,0-1.5,0V6.56592H6.75A2.75311,2.75311,0,0,0,4,9.31592v7.53955a2.7528,2.7528,0,0,0,2.75,2.75h4.5a.75.75,0,0,0,0-1.5H6.75a1.25116,1.25116,0,0,1-1.25-1.25V9.31592a1.25116,1.25116,0,0,1,1.25-1.25h1.5V9.36719a.75.75,0,0,0,1.5,0V8.06592h4.5V9.36719a.75.75,0,0,0,1.5,0V8.06592h1.5a1.25116,1.25116,0,0,1,1.25,1.25V11.25a.75.75,0,0,0,1.5,0V9.31592A2.75311,2.75311,0,0,0,17.25,6.56592Z"/></svg>