<svg fill="currentColor" id="icons" xmlns="http://www.w3.org/2000/svg" viewBox="0 0 24 24"><title>01-04-calendar-remove-m</title><rect id="canvas" width="24" height="24" style="fill:none"/><path d="M18.96973,13.66357,17,15.6333l-1.96973-1.96973a.74992.74992,0,0,0-1.06054,1.06055l1.96972,1.96973-1.96972,1.96972a.74992.74992,0,1,0,1.06054,1.06055L17,17.75439l1.96973,1.96973a.74992.74992,0,0,0,1.06054-1.06055l-1.96972-1.96972,1.96972-1.96973a.74992.74992,0,0,0-1.06054-1.06055Z"/><path d="M12,18.85547a.7502.7502,0,0,0-.75-.75H6.75a1.25116,1.25116,0,0,1-1.25-1.25V9.31592a1.25116,1.25116,0,0,1,1.25-1.25h1.5V9.36719a.75.75,0,0,0,1.5,0V8.06592h4.5V9.36719a.75.75,0,0,0,1.5,0V8.06592h1.5a1.25116,1.25116,0,0,1,1.25,1.25V11.25a.75.75,0,0,0,1.5,0V9.31592a2.75311,2.75311,0,0,0-2.75-2.75h-1.5V5.14453a.75.75,0,0,0-1.5,0V6.56592H9.75V5.14453a.75.75,0,0,0-1.5,0V6.56592H6.75A2.75311,2.75311,0,0,0,4,9.31592v7.53955a2.7528,2.7528,0,0,0,2.75,2.75h4.5A.7502.7502,0,0,0,12,18.85547Z"/></svg>