<svg fill="currentColor" id="icons" xmlns="http://www.w3.org/2000/svg" viewBox="0 0 24 24"><title>01-07-calendar-edit-m</title><rect id="canvas" width="24" height="24" style="fill:none"/><path d="M19.16943,13.95709l-.00348.00348L14.97833,18.1897l.00653,1.0603,1.05756-.00311.00348-.00348,4.18762-4.22907a.75.75,0,0,0-1.06409-1.05725Z"/><path d="M15.75,9.36719V8.06592h1.5a1.25116,1.25116,0,0,1,1.25,1.25V11.25a.75.75,0,0,0,1.5,0V9.31592a2.75311,2.75311,0,0,0-2.75-2.75h-1.5V5.14453a.75.75,0,0,0-1.5,0V6.56592H9.75V5.14453a.75.75,0,0,0-1.5,0V6.56592H6.75A2.75311,2.75311,0,0,0,4,9.31592v7.53955a2.7528,2.7528,0,0,0,2.75,2.75h4.5a.75.75,0,0,0,0-1.5H6.75a1.25116,1.25116,0,0,1-1.25-1.25V9.31592a1.25116,1.25116,0,0,1,1.25-1.25h1.5V9.36719a.75.75,0,0,0,1.5,0V8.06592h4.5V9.36719a.75.75,0,0,0,1.5,0Z"/></svg>