<svg fill="currentColor" id="icons" xmlns="http://www.w3.org/2000/svg" viewBox="0 0 24 24"><title>01-08-calendar-switch-m</title><rect id="canvas" width="24" height="24" style="fill:none"/><path d="M19.7749,13.70264a.75019.75019,0,0,0-.75.75,1.30159,1.30159,0,0,1-1.2998,1.30029H15.08545l1.71973-1.71973a.74992.74992,0,1,0-1.06055-1.06054l-3,3a.74972.74972,0,0,0,0,1.06054l3,3a.74992.74992,0,0,0,1.06055-1.06054l-1.71973-1.71973H17.7251a2.80323,2.80323,0,0,0,2.7998-2.80029A.75019.75019,0,0,0,19.7749,13.70264Z"/><path d="M11.25,18.10547H6.75a1.25116,1.25116,0,0,1-1.25-1.25V9.31592a1.25116,1.25116,0,0,1,1.25-1.25h1.5V9.36719a.75.75,0,0,0,1.5,0V8.06592h4.5V9.36719a.75.75,0,0,0,1.5,0V8.06592h1.5a1.25116,1.25116,0,0,1,1.25,1.25V11.25a.75.75,0,0,0,1.5,0V9.31592a2.75311,2.75311,0,0,0-2.75-2.75h-1.5V5.14453a.75.75,0,0,0-1.5,0V6.56592H9.75V5.14453a.75.75,0,0,0-1.5,0V6.56592H6.75A2.75311,2.75311,0,0,0,4,9.31592v7.53955a2.7528,2.7528,0,0,0,2.75,2.75h4.5a.75.75,0,0,0,0-1.5Z"/></svg>