<svg fill="currentColor" id="icons" xmlns="http://www.w3.org/2000/svg" viewBox="0 0 24 24"><title>10-14-call-time-m</title><rect id="canvas" width="24" height="24" style="fill:none"/><path d="M17,3a4,4,0,1,0,4,4A4.00427,4.00427,0,0,0,17,3Zm0,6.5A2.5,2.5,0,1,1,19.5,7,2.50263,2.50263,0,0,1,17,9.5Z"/><path d="M17.75,6.68945V5.7998a.75.75,0,0,0-1.5,0V7a.75027.75027,0,0,0,.21973.53027l.7998.79981a.74992.74992,0,0,0,1.06055-1.06055Z"/><path d="M7.02637,16.26758a14.419,14.419,0,0,0,7.334,4.1792,3.64,3.64,0,0,0,.69336.0664,3.49029,3.49029,0,0,0,2.49609-1.03271l.57129-.57959a2.55574,2.55574,0,0,0,0-3.56983l-.71875-.729a2.46613,2.46613,0,0,0-1.77148-.74512h-.001a2.46856,2.46856,0,0,0-1.77343.74512l-.33008.335a.20437.20437,0,0,1-.21778.05957,10.32617,10.32617,0,0,1-2.92675-2.105A10.49327,10.49327,0,0,1,8.31348,9.92871a.256.256,0,0,1,.06543-.27392l.31933-.32422a2.55574,2.55574,0,0,0,0-3.56983l-.71875-.729A2.46613,2.46613,0,0,0,6.208,4.28662H6.207a2.47011,2.47011,0,0,0-1.77344.74463l-.57226.58057A3.62839,3.62839,0,0,0,2.915,8.82812,14.74862,14.74862,0,0,0,7.02637,16.26758ZM4.93066,6.66406,5.502,6.084a.98344.98344,0,0,1,1.40918,0l.71875.7295a1.04822,1.04822,0,0,1,0,1.46435l-.31933.32373a1.75448,1.75448,0,0,0-.3584,1.957,11.97812,11.97812,0,0,0,2.36133,3.38575A11.80916,11.80916,0,0,0,12.665,16.35156a1.69357,1.69357,0,0,0,1.92969-.3623l.33007-.335a.98341.98341,0,0,1,1.40918,0l.71875.72949a1.04821,1.04821,0,0,1,0,1.46435l-.57226.58008a2.02679,2.02679,0,0,1-1.83692.5459,12.92063,12.92063,0,0,1-6.54882-3.75928A13.23881,13.23881,0,0,1,4.38965,8.55322,2.12852,2.12852,0,0,1,4.93066,6.66406Z"/></svg>