<svg fill="currentColor" id="icons" xmlns="http://www.w3.org/2000/svg" viewBox="0 0 24 24"><title>10-07-call-decline-m</title><rect id="canvas" width="24" height="24" style="fill:none"/><path d="M17.25,10.5A3.75,3.75,0,1,0,13.5,6.75,3.75442,3.75442,0,0,0,17.25,10.5Zm0-1.5a2.22468,2.22468,0,0,1-.95-.218l2.98218-2.98181A2.22477,2.22477,0,0,1,19.5,6.75,2.25278,2.25278,0,0,1,17.25,9Zm0-4.5a2.2231,2.2231,0,0,1,.97815.23322L15.23309,7.72791A2.22273,2.22273,0,0,1,15,6.75,2.25278,2.25278,0,0,1,17.25,4.5Z"/><path d="M8.69824,9.33057a2.55574,2.55574,0,0,0,0-3.56983l-.71875-.729A2.46613,2.46613,0,0,0,6.208,4.28662H6.207a2.47011,2.47011,0,0,0-1.77344.74463l-.57226.58057A3.62839,3.62839,0,0,0,2.915,8.82812a14.74862,14.74862,0,0,0,4.11133,7.43946,14.419,14.419,0,0,0,7.334,4.1792,3.64,3.64,0,0,0,.69336.0664,3.49029,3.49029,0,0,0,2.49609-1.03271l.57129-.57959a2.55574,2.55574,0,0,0,0-3.56983l-.71875-.729a2.46613,2.46613,0,0,0-1.77148-.74512h-.001a2.46856,2.46856,0,0,0-1.77343.74512l-.33008.335a.204.204,0,0,1-.21778.05957,10.32617,10.32617,0,0,1-2.92675-2.105A10.49327,10.49327,0,0,1,8.31348,9.92871a.256.256,0,0,1,.06543-.27392Zm.61524,4.61377A11.80916,11.80916,0,0,0,12.665,16.35156a1.69328,1.69328,0,0,0,1.92969-.3623l.33007-.335a.98341.98341,0,0,1,1.40918,0l.71875.72949a1.04821,1.04821,0,0,1,0,1.46435l-.57226.58008a2.026,2.026,0,0,1-1.83692.5459,12.92063,12.92063,0,0,1-6.54882-3.75928A13.23881,13.23881,0,0,1,4.38965,8.55322a2.12852,2.12852,0,0,1,.541-1.88916L5.502,6.084a.98344.98344,0,0,1,1.40918,0l.71875.7295a1.04822,1.04822,0,0,1,0,1.46435l-.31933.32373a1.75448,1.75448,0,0,0-.3584,1.957A11.97812,11.97812,0,0,0,9.31348,13.94434Z"/></svg>