<svg id="icons" xmlns="http://www.w3.org/2000/svg" viewBox="0 0 24 24">
    <path
        fill="none"
        stroke="currentColor"
        d="M17.5868,15.85764l-.7183-.72954a1.73314,1.73314,0,0,0-2.478,0l-.33019.33538a.946.946,0,0,1-1.07335.2109A11.13377,11.13377,0,0,1,9.84768,13.418a11.31266,11.31266,0,0,1-2.215-3.17384,1.00471,1.00471,0,0,1,.21195-1.11581l.31928-.32426a1.79934,1.79934,0,0,0,0-2.51675l-.71831-.72955a1.73315,1.73315,0,0,0-2.478,0l-.57075.57968A2.87085,2.87085,0,0,0,3.65222,8.691a14.04078,14.04078,0,0,0,3.90806,7.05015,13.70845,13.70845,0,0,0,6.94154,3.96922,2.76945,2.76945,0,0,0,2.51423-.75636l.57075-.57967A1.79936,1.79936,0,0,0,17.5868,15.85764Z"
        style="stroke-linecap:round;stroke-linejoin:round;stroke-width:1.5px" />
</svg>