<svg fill="currentColor" id="icons" xmlns="http://www.w3.org/2000/svg" viewBox="0 0 24 24"><title>10-21-call-recall-m</title><rect id="canvas" width="24" height="24" style="fill:none"/><path d="M17.40234,14.60156a2.47078,2.47078,0,0,0-1.77148-.74414h-.001a2.47212,2.47212,0,0,0-1.77441.74512l-.3291.335a.19825.19825,0,0,1-.2168.05957,10.31987,10.31987,0,0,1-2.92773-2.10547A10.49237,10.49237,0,0,1,8.31348,9.92871a.25664.25664,0,0,1,.06543-.27441l.31933-.32422a2.55329,2.55329,0,0,0,0-3.56934l-.71875-.72949A2.47078,2.47078,0,0,0,6.208,4.28711H6.207a2.47129,2.47129,0,0,0-1.77344.74414l-.57226.58008A3.63253,3.63253,0,0,0,2.915,8.82812a14.73989,14.73989,0,0,0,4.11133,7.43946,14.40749,14.40749,0,0,0,7.334,4.17871,3.65012,3.65012,0,0,0,.69434.06641,3.48759,3.48759,0,0,0,2.49511-1.03223l.57129-.58008a2.55329,2.55329,0,0,0,0-3.56934Zm-.34961,3.2461-.57226.58007a2.02764,2.02764,0,0,1-1.83789.5459,12.90326,12.90326,0,0,1-6.54785-3.75879A13.24538,13.24538,0,0,1,4.38965,8.55371a2.12868,2.12868,0,0,1,.541-1.88965L5.502,6.084a.98457.98457,0,0,1,1.40918,0l.71875.7295a1.04762,1.04762,0,0,1,0,1.46386l-.31933.32422a1.754,1.754,0,0,0-.3584,1.957,11.9909,11.9909,0,0,0,2.36133,3.38575,11.84313,11.84313,0,0,0,3.35254,2.4082,1.70251,1.70251,0,0,0,1.92968-.36328l.3291-.335a.98455.98455,0,0,1,1.40918,0l.71875.72949A1.04762,1.04762,0,0,1,17.05273,17.84766Z"/><path d="M17.01172,5.49609a2.45708,2.45708,0,0,1,.72656.12207.75036.75036,0,1,0,.4375-1.43554A3.95552,3.95552,0,0,0,13.01953,7.9873a3.91667,3.91667,0,0,0,.18848,1.166.75.75,0,0,0,1.43359-.44141,2.4565,2.4565,0,0,1-.12207-.72461A2.4944,2.4944,0,0,1,17.01172,5.49609Z"/><path d="M19.8584,6.29883a.75039.75039,0,0,0-.48731.94238,2.42676,2.42676,0,0,1,.13184.74609,2.44875,2.44875,0,0,1-3.23926,2.36036.74959.74959,0,0,0-.45119,1.42968,3.885,3.885,0,0,0,1.19924.20118A3.99521,3.99521,0,0,0,21.00293,7.9873a3.9394,3.9394,0,0,0-.20215-1.20117A.75317.75317,0,0,0,19.8584,6.29883Z"/></svg>