<svg fill="currentColor" id="icons" xmlns="http://www.w3.org/2000/svg" viewBox="0 0 24 24"><title>10-19-call-internal-m</title><rect id="canvas" width="24" height="24" style="fill:none"/><path d="M17.40283,14.60156a2.47128,2.47128,0,0,0-1.77344-.74414h-.00048a2.47305,2.47305,0,0,0-1.77344.74512l-.3291.335a.20243.20243,0,0,1-.21778.05957,10.32739,10.32739,0,0,1-2.92627-2.10547A10.51141,10.51141,0,0,1,8.31348,9.92969a.25876.25876,0,0,1,.06543-.27539l.31933-.32422a2.55514,2.55514,0,0,0,.00049-3.56934L7.98,5.03125a2.47128,2.47128,0,0,0-1.77344-.74414H6.20605a2.47411,2.47411,0,0,0-1.77294.74414l-.57032.58008A3.6281,3.6281,0,0,0,2.915,8.82812a14.74964,14.74964,0,0,0,4.11035,7.43946,14.4089,14.4089,0,0,0,7.335,4.17871,3.64129,3.64129,0,0,0,.69385.06641,3.4943,3.4943,0,0,0,2.49658-1.03223l.57031-.58008a2.55514,2.55514,0,0,0,.00049-3.56934Zm-.35058,3.2461-.57032.58007a2.02,2.02,0,0,1-1.83886.5459,12.90452,12.90452,0,0,1-6.54834-3.75879A13.23985,13.23985,0,0,1,4.38965,8.55469a2.12809,2.12809,0,0,1,.542-1.89063L5.502,6.084a.98457.98457,0,0,1,1.40918,0l.71826.7295a1.04761,1.04761,0,0,1,.00049,1.46386l-.31933.32422a1.75685,1.75685,0,0,0-.3584,1.957A12.01688,12.01688,0,0,0,9.313,13.94434a11.83293,11.83293,0,0,0,3.353,2.4082,1.69683,1.69683,0,0,0,1.92968-.36328l.3291-.335a1.0081,1.0081,0,0,1,1.40918,0l.71827.72949A1.04763,1.04763,0,0,1,17.05225,17.84766Z"/><path d="M17,3a4,4,0,1,0,4,4A4.00427,4.00427,0,0,0,17,3Zm0,6.5A2.5,2.5,0,1,1,19.5,7,2.50263,2.50263,0,0,1,17,9.5Z"/><circle cx="17" cy="7" r="1"/></svg>