<svg fill="currentColor" id="icons" xmlns="http://www.w3.org/2000/svg" viewBox="0 0 24 24"><title>10-08-call-block-m</title><rect id="canvas" width="24" height="24" style="fill:none"/><path d="M7.02539,16.26758a14.4089,14.4089,0,0,0,7.335,4.17871,3.64129,3.64129,0,0,0,.69385.06641,3.4943,3.4943,0,0,0,2.49658-1.03223l.57031-.58008a2.55514,2.55514,0,0,0,.00049-3.56934l-.71875-.72949a2.47128,2.47128,0,0,0-1.77344-.74414h-.00048a2.47305,2.47305,0,0,0-1.77344.74512l-.3291.335a.20283.20283,0,0,1-.21778.05957,10.32739,10.32739,0,0,1-2.92627-2.10547A10.4988,10.4988,0,0,1,8.31348,9.92969a.25816.25816,0,0,1,.06543-.2749l.31982-.32471a2.55607,2.55607,0,0,0,0-3.56934L7.98,5.03125a2.47175,2.47175,0,0,0-1.77344-.74463H6.20605a2.47108,2.47108,0,0,0-1.77294.74512l-.57032.57959A3.62811,3.62811,0,0,0,2.915,8.82812,14.74771,14.74771,0,0,0,7.02539,16.26758Zm-2.09375-9.604.5708-.57959a.98286.98286,0,0,1,1.40869,0l.71826.729a1.04927,1.04927,0,0,1,.00049,1.46484l-.31933.32422a1.75593,1.75593,0,0,0-.3584,1.95654A12.004,12.004,0,0,0,9.313,13.94434a11.83293,11.83293,0,0,0,3.353,2.4082,1.69509,1.69509,0,0,0,1.92968-.36328l.3291-.335a1.0081,1.0081,0,0,1,1.40918,0l.71827.72949a1.04763,1.04763,0,0,1,0,1.46387l-.57032.58007a2.02808,2.02808,0,0,1-1.83886.5459,12.90452,12.90452,0,0,1-6.54834-3.75879A13.24055,13.24055,0,0,1,4.38965,8.55371,2.12875,2.12875,0,0,1,4.93164,6.66357Z"/><path d="M19.59521,5.49463v-.3169a2.21764,2.21764,0,0,0-4.43457,0v.3169H14.5a.7502.7502,0,0,0-.75.75v4.31689a.75019.75019,0,0,0,.75.75h5.75586a.75019.75019,0,0,0,.75-.75V6.24463a.7502.7502,0,0,0-.75-.75Zm-2.93457-.3169a.71844.71844,0,0,1,1.43457,0v.3169H16.66064Zm2.84522,4.63379H15.25V6.99463h4.25586Z"/></svg>