<svg fill="currentColor" id="icons" xmlns="http://www.w3.org/2000/svg" viewBox="0 0 24 24"><title>10-09-call-end-m</title><rect id="canvas" width="24" height="24" style="fill:none"/><path d="M20.13525,5.334a14.73752,14.73752,0,0,0-8.16748-2.35351,14.42816,14.42816,0,0,0-8.1416,2.23047A3.52544,3.52544,0,0,0,2.25391,8.15039l.00634.81348A2.55407,2.55407,0,0,0,4.78467,11.4873l1.02344.00879h.01806A2.485,2.485,0,0,0,8.31592,8.9873L8.312,8.5166a.20326.20326,0,0,1,.11133-.19531,10.74422,10.74422,0,0,1,7.11426.0498.26163.26163,0,0,1,.14941.24219l.00342.45508a2.555,2.555,0,0,0,2.52393,2.52344l1.02343.00781h.02051A2.48253,2.48253,0,0,0,21.74609,9.0918l-.00634-.81348A3.63144,3.63144,0,0,0,20.13525,5.334ZM19.958,9.8125a.98183.98183,0,0,1-.7002.28711h-.0083l-1.02344-.00781a1.04857,1.04857,0,0,1-1.03564-1.03516L17.187,8.60156a1.75994,1.75994,0,0,0-1.13037-1.63769,12.01556,12.01556,0,0,0-4.06348-.72364h-.10107a11.83112,11.83112,0,0,0-3.97314.668A1.69726,1.69726,0,0,0,6.812,8.52832l.00391.4707a.98387.98387,0,0,1-.9961.99707L4.79639,9.9873h-.001A1.04749,1.04749,0,0,1,3.76025,8.95215l-.00634-.81348A2.02786,2.02786,0,0,1,4.668,6.45312a13.08691,13.08691,0,0,1,7.28808-1.97265,13.23669,13.23669,0,0,1,7.33008,2.08984A2.1311,2.1311,0,0,1,20.23975,8.29l.00634.81348A.98411.98411,0,0,1,19.958,9.8125Z"/><path d="M14.24219,17.12988,12.75,18.50183V13.7002a.75.75,0,0,0-1.5,0v4.80163l-1.49219-1.372A.74987.74987,0,1,0,8.74219,18.2334l2.75,2.52832a.74952.74952,0,0,0,1.01562,0l2.75-2.52832a.74987.74987,0,1,0-1.01562-1.10352Z"/></svg>