<svg fill="currentColor" id="icons" xmlns="http://www.w3.org/2000/svg" viewBox="0 0 24 24"><title>10-22-call-forward-m</title><rect id="canvas" width="24" height="24" style="fill:none"/><path d="M17.40234,14.60156a2.47078,2.47078,0,0,0-1.77148-.74414h-.001a2.47212,2.47212,0,0,0-1.77441.74512l-.3291.335a.19788.19788,0,0,1-.2168.05957,10.31987,10.31987,0,0,1-2.92773-2.10547A10.49237,10.49237,0,0,1,8.31348,9.92871a.25664.25664,0,0,1,.06543-.27441l.31933-.32422a2.55329,2.55329,0,0,0,0-3.56934l-.71875-.72949A2.47078,2.47078,0,0,0,6.208,4.28711H6.207a2.47129,2.47129,0,0,0-1.77344.74414l-.57226.58008A3.63253,3.63253,0,0,0,2.915,8.82812a14.73989,14.73989,0,0,0,4.11133,7.43946,14.40749,14.40749,0,0,0,7.334,4.17871,3.65012,3.65012,0,0,0,.69434.06641,3.48759,3.48759,0,0,0,2.49511-1.03223l.57129-.58008a2.55329,2.55329,0,0,0,0-3.56934Zm-.34961,3.2461-.57226.58007a2.02683,2.02683,0,0,1-1.83789.5459,12.90326,12.90326,0,0,1-6.54785-3.75879A13.24538,13.24538,0,0,1,4.38965,8.55371a2.12868,2.12868,0,0,1,.541-1.88965L5.502,6.084a.98457.98457,0,0,1,1.40918,0l.71875.7295a1.04762,1.04762,0,0,1,0,1.46386l-.31933.32422a1.754,1.754,0,0,0-.3584,1.957,11.9909,11.9909,0,0,0,2.36133,3.38575,11.84313,11.84313,0,0,0,3.35254,2.4082,1.70251,1.70251,0,0,0,1.92968-.36328l.3291-.335a.98455.98455,0,0,1,1.40918,0l.71875.72949A1.04762,1.04762,0,0,1,17.05273,17.84766Z"/><path d="M17.2793,4.24219a.74987.74987,0,0,0-1.10352,1.01562L18.23633,7.5,16.17578,9.74219a.74987.74987,0,1,0,1.10352,1.01562l2.52734-2.75a.74883.74883,0,0,0,0-1.01562Z"/><path d="M12.665,10.80176a.74957.74957,0,0,0,1.05957-.044l2.52734-2.75a.74883.74883,0,0,0,0-1.01562l-2.52734-2.75a.74987.74987,0,0,0-1.10352,1.01562L14.68164,7.5,12.62109,9.74219A.75.75,0,0,0,12.665,10.80176Z"/></svg>