<svg fill="currentColor" id="icons" xmlns="http://www.w3.org/2000/svg" viewBox="0 0 24 24"><title>10-05-call-missed-m</title><rect id="canvas" width="24" height="24" style="fill:none"/><path d="M20.13477,14.28613a14.75371,14.75371,0,0,0-8.167-2.35351,14.28831,14.28831,0,0,0-8.1416,2.23047,3.52784,3.52784,0,0,0-1.57226,2.93945l.00683.8125a2.55394,2.55394,0,0,0,2.52344,2.52539l1.02344.00781a2.42214,2.42214,0,0,0,1.78027-.72656,2.46959,2.46959,0,0,0,.72754-1.78027l-.00295-.47266a.202.202,0,0,1,.11135-.19531,10.73086,10.73086,0,0,1,7.11523.05176.25735.25735,0,0,1,.14746.24121l.00391.4541A2.55336,2.55336,0,0,0,18.21289,20.544l1.02637.00878h.01758A2.48418,2.48418,0,0,0,21.74609,18.044l-.00683-.81348A3.63036,3.63036,0,0,0,20.13477,14.28613ZM19.959,18.76367a.98433.98433,0,0,1-.70117.28906H19.251L18.22461,19.044a1.04782,1.04782,0,0,1-1.03418-1.03614l-.00391-.45312a1.75514,1.75514,0,0,0-1.12988-1.6377,11.985,11.985,0,0,0-4.06445-.72461h-.0918a11.82464,11.82464,0,0,0-3.97949.668,1.69418,1.69418,0,0,0-1.10842,1.62012l.003.47168a.98373.98373,0,0,1-.98828.99609H5.81934L4.7959,18.94043A1.048,1.048,0,0,1,3.76074,17.9043l-.00683-.81348A2.029,2.029,0,0,1,4.668,15.40527a13.15646,13.15646,0,0,1,7.28808-1.97265,13.24262,13.24262,0,0,1,7.33008,2.08984,2.12931,2.12931,0,0,1,.95313,1.71973l.00683.81347A.983.983,0,0,1,19.959,18.76367Z"/><path d="M11.74023,10.13184l.02149.00048A.7491.7491,0,0,0,12.292,9.9126l5.11035-5.10987A.74992.74992,0,1,0,16.3418,3.74219L11.794,8.29,8.8313,4.96088l2.6228.02008H11.46a.75.75,0,0,0,.00586-1.5l-4.332-.03321a.78333.78333,0,0,0-.53613.21924.75369.75369,0,0,0-.21973.53565l.03125,4.73242a.75011.75011,0,0,0,.75.74512h.00488a.75021.75021,0,0,0,.74512-.75489L7.89081,6.161l3.31036,3.71991A.75011.75011,0,0,0,11.74023,10.13184Z"/></svg>