<svg fill="currentColor" id="icons" xmlns="http://www.w3.org/2000/svg" viewBox="0 0 24 24"><title>10-11-call-nophone-m</title><rect id="canvas" width="24" height="24" style="fill:none"/><path d="M19.77734,3.16211,10.223,12.71649A10.44769,10.44769,0,0,1,8.31348,9.92871a.256.256,0,0,1,.06543-.27392l.31933-.32422a2.55574,2.55574,0,0,0,0-3.56983l-.71875-.729A2.46613,2.46613,0,0,0,6.208,4.28662H6.207a2.47011,2.47011,0,0,0-1.77344.74463l-.57226.58057A3.62839,3.62839,0,0,0,2.915,8.82812a14.6632,14.6632,0,0,0,3.94128,7.255L3.16211,19.77734a.74992.74992,0,1,0,1.06055,1.06055l3.714-3.714a13.93464,13.93464,0,0,0,6.42364,3.32294,3.64,3.64,0,0,0,.69336.0664,3.49029,3.49029,0,0,0,2.49609-1.03271l.57129-.57959a2.55574,2.55574,0,0,0,0-3.56983l-.71875-.729a2.46613,2.46613,0,0,0-1.77148-.74512h-.001a2.46856,2.46856,0,0,0-1.77343.74512l-.33008.335a.20674.20674,0,0,1-.21778.05957,10.03265,10.03265,0,0,1-1.983-1.26159l9.51233-9.51233a.74992.74992,0,0,0-1.06055-1.06055ZM4.38965,8.55322a2.12852,2.12852,0,0,1,.541-1.88916L5.502,6.084a.98344.98344,0,0,1,1.40918,0l.71875.7295a1.04822,1.04822,0,0,1,0,1.46435l-.31933.32373a1.75448,1.75448,0,0,0-.3584,1.957,11.94116,11.94116,0,0,0,2.2099,3.21881l-1.245,1.245A13.13908,13.13908,0,0,1,4.38965,8.55322ZM12.665,16.35156a1.69408,1.69408,0,0,0,1.92969-.3623l.33007-.335a.98341.98341,0,0,1,1.40918,0l.71875.72949a1.04821,1.04821,0,0,1,0,1.46435l-.57226.58008a2.02729,2.02729,0,0,1-1.83692.5459,12.38669,12.38669,0,0,1-5.64233-2.91479l1.25708-1.25708A11.5329,11.5329,0,0,0,12.665,16.35156Z"/></svg>