<svg fill="currentColor" id="icons" xmlns="http://www.w3.org/2000/svg" viewBox="0 0 24 24"><title>10-03-call-outgoing-m</title><rect id="canvas" width="24" height="24" style="fill:none"/><path d="M7.02588,16.26758a14.42029,14.42029,0,0,0,7.33447,4.1792,3.675,3.675,0,0,0,.69287.0664,3.49419,3.49419,0,0,0,2.49707-1.03271l.57129-.58008a2.55546,2.55546,0,0,0,0-3.56885v-.00049l-.71875-.72949a2.47175,2.47175,0,0,0-1.77344-.74463h-.00048a2.47111,2.47111,0,0,0-1.77295.74512l-.32959.335a.20125.20125,0,0,1-.21778.05957,10.31452,10.31452,0,0,1-2.92627-2.105A10.4988,10.4988,0,0,1,8.31348,9.92969a.25816.25816,0,0,1,.06543-.2749l.31982-.32471a2.55607,2.55607,0,0,0,0-3.56934L7.98,5.03125a2.47175,2.47175,0,0,0-1.77344-.74463H6.20605a2.47108,2.47108,0,0,0-1.77294.74512l-.57032.57959A3.62811,3.62811,0,0,0,2.915,8.82812,14.74112,14.74112,0,0,0,7.02588,16.26758Zm-2.09424-9.604.5708-.57959a.98286.98286,0,0,1,1.40869,0l.71826.729a1.04927,1.04927,0,0,1,.00049,1.46484l-.31933.32422a1.75593,1.75593,0,0,0-.3584,1.95654A12.004,12.004,0,0,0,9.313,13.94434,11.83854,11.83854,0,0,0,12.66553,16.352a1.69813,1.69813,0,0,0,1.92968-.36279l.33008-.335a1.00568,1.00568,0,0,1,1.40869,0l.71827.72949a1.04868,1.04868,0,0,1,.00048,1.46435l-.5708.57959a2.038,2.038,0,0,1-1.83838.54639,12.91549,12.91549,0,0,1-6.54882-3.75928A13.23833,13.23833,0,0,1,4.38965,8.55371,2.12875,2.12875,0,0,1,4.93164,6.66357Z"/><path d="M13.4502,11.48633a.74757.74757,0,0,0,.55322-.24365L18.637,6.18018l-.01782,2.78369a.75021.75021,0,0,0,.74512.75488h.00488a.74979.74979,0,0,0,.75-.74512l.03027-4.73242a.75011.75011,0,0,0-.22021-.53564.83451.83451,0,0,0-.53565-.21924L15.06249,3.52a.75022.75022,0,0,0-.74413.75586.76608.76608,0,0,0,.75586.74414l2.60986-.02033L12.897,10.23a.75.75,0,0,0,.55323,1.25635Z"/></svg>