<svg fill="currentColor" id="icons" xmlns="http://www.w3.org/2000/svg" viewBox="0 0 24 24"><title>10-17-call-favourites-m</title><rect id="canvas" width="24" height="24" style="fill:none"/><path d="M7.02637,16.26758a14.419,14.419,0,0,0,7.334,4.1792,3.64,3.64,0,0,0,.69336.0664,3.49029,3.49029,0,0,0,2.49609-1.03271l.57129-.57959a2.55574,2.55574,0,0,0,0-3.56983l-.71875-.729a2.46613,2.46613,0,0,0-1.77148-.74512h-.001a2.46856,2.46856,0,0,0-1.77343.74512l-.33008.335a.20715.20715,0,0,1-.21778.05957,10.32617,10.32617,0,0,1-2.92675-2.105A10.49327,10.49327,0,0,1,8.31348,9.92871a.256.256,0,0,1,.06543-.27392l.31933-.32422a2.55574,2.55574,0,0,0,0-3.56983l-.71875-.729A2.46613,2.46613,0,0,0,6.208,4.28662H6.207a2.47011,2.47011,0,0,0-1.77344.74463l-.57226.58057A3.62839,3.62839,0,0,0,2.915,8.82812,14.74862,14.74862,0,0,0,7.02637,16.26758ZM4.93066,6.66406,5.502,6.084a.98344.98344,0,0,1,1.40918,0l.71875.7295a1.04822,1.04822,0,0,1,0,1.46435l-.31933.32373a1.75448,1.75448,0,0,0-.3584,1.957,11.97812,11.97812,0,0,0,2.36133,3.38575A11.80916,11.80916,0,0,0,12.665,16.35156a1.69437,1.69437,0,0,0,1.92969-.3623l.33007-.335a.98341.98341,0,0,1,1.40918,0l.71875.72949a1.04821,1.04821,0,0,1,0,1.46435l-.57226.58008a2.02809,2.02809,0,0,1-1.83692.5459,12.92063,12.92063,0,0,1-6.54882-3.75928A13.23881,13.23881,0,0,1,4.38965,8.55322,2.12852,2.12852,0,0,1,4.93066,6.66406Z"/><path d="M16.08105,10.71387a1.17466,1.17466,0,0,0,1.54,0A25.97535,25.97535,0,0,0,19.93262,8.458a3.747,3.747,0,0,0,1.0498-2.73291,3.11626,3.11626,0,0,0-.999-2.11524,2.82818,2.82818,0,0,0-1.74219-.62256,2.488,2.488,0,0,0-1.39062.42627,2.48226,2.48226,0,0,0-1.38965-.42627,2.62987,2.62987,0,0,0-1.75977.67481A2.9508,2.9508,0,0,0,12.7207,5.7207a3.72251,3.72251,0,0,0,1.05567,2.74121A25.88188,25.88188,0,0,0,16.08105,10.71387ZM14.68748,4.792a1.15361,1.15361,0,0,1,.77346-.30469,1.00756,1.00756,0,0,1,.78613.38526.74758.74758,0,0,0,.60449.30664h.001a.74984.74984,0,0,0,.60449-.30762,1.00076,1.00076,0,0,1,.78418-.38428,1.32923,1.32923,0,0,1,.76856.26221,1.599,1.599,0,0,1,.47461,1.0669l.001.00488A2.25935,2.25935,0,0,1,18.81348,7.459a24.47261,24.47261,0,0,1-1.96192,1.93653,24.2857,24.2857,0,0,1-1.958-1.93457,2.24436,2.24436,0,0,1-.67578-1.64356A1.464,1.464,0,0,1,14.68748,4.792Z"/></svg>