<svg fill="currentColor" id="icons" xmlns="http://www.w3.org/2000/svg" viewBox="0 0 24 24"><title>10-10-call-ring-volume-m</title><rect id="canvas" width="24" height="24" style="fill:none"/><path d="M7.02539,16.26758a14.4089,14.4089,0,0,0,7.335,4.17871,3.64129,3.64129,0,0,0,.69385.06641,3.4943,3.4943,0,0,0,2.49658-1.03223l.57031-.58008a2.55514,2.55514,0,0,0,.00049-3.56934l-.71875-.72949a2.47128,2.47128,0,0,0-1.77344-.74414h-.00048a2.47305,2.47305,0,0,0-1.77344.74512l-.3291.335a.20244.20244,0,0,1-.21778.05957,10.32739,10.32739,0,0,1-2.92627-2.10547A10.4988,10.4988,0,0,1,8.31348,9.92969a.25816.25816,0,0,1,.06543-.2749l.31982-.32471a2.55607,2.55607,0,0,0,0-3.56934L7.98,5.03125a2.47175,2.47175,0,0,0-1.77344-.74463H6.20605a2.47108,2.47108,0,0,0-1.77294.74512l-.57032.57959A3.62811,3.62811,0,0,0,2.915,8.82812,14.74771,14.74771,0,0,0,7.02539,16.26758Zm-2.09375-9.604.5708-.57959a.98286.98286,0,0,1,1.40869,0l.71826.729a1.04927,1.04927,0,0,1,.00049,1.46484l-.31933.32422a1.75593,1.75593,0,0,0-.3584,1.95654A12.004,12.004,0,0,0,9.313,13.94434a11.83293,11.83293,0,0,0,3.353,2.4082,1.69523,1.69523,0,0,0,1.92968-.36328l.3291-.335a1.0081,1.0081,0,0,1,1.40918,0l.71827.72949a1.04763,1.04763,0,0,1,0,1.46387l-.57032.58007a2.02768,2.02768,0,0,1-1.83886.5459,12.90452,12.90452,0,0,1-6.54834-3.75879A13.24055,13.24055,0,0,1,4.38965,8.55371,2.12875,2.12875,0,0,1,4.93164,6.66357Z"/><path d="M14.61719,7.13037A.75023.75023,0,1,0,14.89453,8.605a.48844.48844,0,0,1,.43994.13916.49983.49983,0,0,1,.14795.44385.7503.7503,0,0,0,.59375.8789.75958.75958,0,0,0,.14356.01368.75.75,0,0,0,.73535-.60743,2.012,2.012,0,0,0-2.33789-2.34277Z"/><path d="M18.58984,10.68652a.75966.75966,0,0,0,.14356.01368.75.75,0,0,0,.73535-.60743A4.71453,4.71453,0,0,0,13.99756,4.6167a.75023.75023,0,0,0,.27734,1.47461,3.21405,3.21405,0,0,1,3.72119,3.71631A.7503.7503,0,0,0,18.58984,10.68652Z"/></svg>