<svg fill="currentColor" id="icons" xmlns="http://www.w3.org/2000/svg" viewBox="0 0 24 24"><title>10-23-call-voicemail-m</title><rect id="canvas" width="24" height="24" style="fill:none"/><path d="M19.25,5.19434H4.75a.75.75,0,0,0,0,1.5h14.5a.75.75,0,0,0,0-1.5Z"/><path d="M19.25,17.30566H4.75a.75.75,0,0,0,0,1.5h14.5a.75.75,0,0,0,0-1.5Z"/><path d="M7.32617,8.72461A3.31859,3.31859,0,0,0,7,15.3457a.80224.80224,0,0,0,.1543.01563h9.6748a.79211.79211,0,0,0,.15332-.01563,3.32131,3.32131,0,1,0-3.09863-1.48437H10.10156A3.31788,3.31788,0,0,0,7.32617,8.72461ZM8.7334,13.19434A1.81821,1.81821,0,1,1,9.14453,12.043,1.814,1.814,0,0,1,8.7334,13.19434Zm7.9248-2.96973A1.81836,1.81836,0,1,1,14.83984,12.043,1.82006,1.82006,0,0,1,16.6582,10.22461Z"/></svg>