<svg fill="currentColor" id="icons" xmlns="http://www.w3.org/2000/svg" viewBox="0 0 24 24"><title>04-02-camera-update-m</title><rect id="canvas" width="24" height="24" style="fill:none"/><path d="M11.25,18.02148H6.6748a1.25116,1.25116,0,0,1-1.25-1.25v-7.5a1.25116,1.25116,0,0,1,1.25-1.25h2.25a.74968.74968,0,0,0,.67334-.41992l.72657-1.4834a.25063.25063,0,0,1,.22412-.13964h2.75244a.24743.24743,0,0,1,.22412.14013L14.251,7.60107a.75053.75053,0,0,0,.67382.42041h2.4004a1.25116,1.25116,0,0,1,1.25,1.25V11.25a.75.75,0,0,0,1.5,0V9.27148a2.75343,2.75343,0,0,0-2.75-2.75H15.39258l-.51953-1.062a1.73893,1.73893,0,0,0-1.57178-.98095H10.54883A1.75837,1.75837,0,0,0,8.97754,5.459L8.457,6.52148H6.6748a2.75343,2.75343,0,0,0-2.75,2.75v7.5a2.75311,2.75311,0,0,0,2.75,2.75H11.25a.75.75,0,0,0,0-1.5Z"/><path d="M17.01123,14.49609a2.45456,2.45456,0,0,1,.72656.12207.75036.75036,0,0,0,.4375-1.43554A3.95468,3.95468,0,0,0,13.02,16.9873a3.92989,3.92989,0,0,0,.188,1.165.74972.74972,0,1,0,1.43359-.43945A2.44392,2.44392,0,0,1,14.52,16.9873,2.49388,2.49388,0,0,1,17.01123,14.49609Z"/><path d="M19.85986,15.29883a.74947.74947,0,0,0-.48828.9414,2.44349,2.44349,0,0,1,.13086.74707,2.49388,2.49388,0,0,1-2.49121,2.49122,2.46856,2.46856,0,0,1-.74707-.13086.74974.74974,0,1,0-.45215,1.42968,3.9341,3.9341,0,0,0,1.19922.20118,3.99552,3.99552,0,0,0,3.99121-3.99122,3.94088,3.94088,0,0,0-.20117-1.20019A.74734.74734,0,0,0,19.85986,15.29883Z"/><path d="M13.62744,11.33691a.74988.74988,0,1,0,1.21875-.874A3.50045,3.50045,0,1,0,10.59912,15.709a.763.763,0,0,0,.30029.0625.75026.75026,0,0,0,.30127-1.4375,2.00036,2.00036,0,1,1,2.42676-2.99707Z"/></svg>