<svg fill="currentColor" id="icons" xmlns="http://www.w3.org/2000/svg" viewBox="0 0 24 24"><title>04-01-camera-m</title><rect id="canvas" width="24" height="24" style="fill:none"/><path d="M12,9a3.5,3.5,0,1,0,3.5,3.5A3.50424,3.50424,0,0,0,12,9Zm0,5.5a2,2,0,1,1,2-2A2.00229,2.00229,0,0,1,12,14.5Z"/><path d="M17.3252,6.52148H15.39258l-.51953-1.062a1.73893,1.73893,0,0,0-1.57178-.98095H10.54883A1.75837,1.75837,0,0,0,8.97754,5.459L8.457,6.52148H6.6748a2.75343,2.75343,0,0,0-2.75,2.75v7.5a2.75311,2.75311,0,0,0,2.75,2.75H17.3252a2.75311,2.75311,0,0,0,2.75-2.75v-7.5A2.75343,2.75343,0,0,0,17.3252,6.52148Zm1.25,10.25a1.25116,1.25116,0,0,1-1.25,1.25H6.6748a1.25116,1.25116,0,0,1-1.25-1.25v-7.5a1.25116,1.25116,0,0,1,1.25-1.25h2.25a.74968.74968,0,0,0,.67334-.41992l.72657-1.4834a.25063.25063,0,0,1,.22412-.13964h2.75244a.24743.24743,0,0,1,.22412.14013L14.251,7.60107a.75053.75053,0,0,0,.67382.42041h2.4004a1.25116,1.25116,0,0,1,1.25,1.25Z"/></svg>