<svg fill="currentColor" id="icons" xmlns="http://www.w3.org/2000/svg" viewBox="0 0 24 24"><defs><style>.cls-1{fill:none;}</style></defs><rect id="canvas" class="cls-1" width="24" height="24"/><path d="M12,14.71a2.35,2.35,0,1,1,2.35-2.35A2.35,2.35,0,0,1,12,14.71Zm0-3.2a.85.85,0,1,0,.85.85A.85.85,0,0,0,12,11.51Z"/><path d="M15.82,17.6H8.18A2.19,2.19,0,0,1,6,15.42V10A2.19,2.19,0,0,1,8.18,7.86H9.33l.31-.64A1.48,1.48,0,0,1,11,6.4h2a1.47,1.47,0,0,1,1.32.82l.31.64h1.26A2.19,2.19,0,0,1,18,10v5.38A2.19,2.19,0,0,1,15.82,17.6ZM8.18,9.36A.69.69,0,0,0,7.5,10v5.38a.68.68,0,0,0,.68.68h7.64a.68.68,0,0,0,.68-.68V10a.69.69,0,0,0-.68-.68H14.1a.75.75,0,0,1-.68-.42L12.9,7.88,11,7.9l-.49,1a.75.75,0,0,1-.67.42Z"/></svg>