<?xml version="1.0" encoding="utf-8"?>
<!-- Generator: Adobe Illustrator 25.2.1, SVG Export Plug-In . SVG Version: 6.00 Build 0)  -->
<svg fill="currentColor" version="1.1" id="Warstwa_1" xmlns="http://www.w3.org/2000/svg"
	xmlns:xlink="http://www.w3.org/1999/xlink" x="0px" y="0px"
	viewBox="0 0 26 26" style="enable-background:new 0 0 26 26;" xml:space="preserve">

<path d="M21.9924,5.9375c-0.046-0.5739-0.299-1.1053-0.7044-1.467c-0.4531-0.4091-1.048-0.5624-1.6146-0.4163
	L7.0363,7.2575l-0.188,0.0519C5.1746,7.8218,4,9.5333,4,11.5003c0,2.0399,1.2632,3.8049,3.0363,4.2428L7.25,15.7973V18.5
	l0.0051,0.1844C7.3508,20.3936,8.767,21.75,10.5,21.75c1.7949,0,3.25-1.4551,3.25-3.25v-1.0551l5.9235,1.5015l0.155,0.0322
	c0.0522,0.0084,0.1044,0.0034,0.1567,0.0068c0.0572,0.0038,0.1135,0.0095,0.1705,0.0075c0.0823-0.0029,0.1629-0.0166,0.244-0.0314
	c0.053-0.0096,0.106-0.015,0.1581-0.0295c0.088-0.0247,0.172-0.0623,0.2562-0.101c0.0417-0.0192,0.0851-0.0319,0.1256-0.0544
	c0.1224-0.0679,0.2399-0.1489,0.3484-0.2466c0.4504-0.4023,0.7126-1.0137,0.712-1.6603V6.1302L21.9924,5.9375z M20.5,6.1284v10.7415
	l-0.0069,0.1116c-0.0227,0.1814-0.1001,0.3369-0.2042,0.4299c-0.0894,0.0804-0.1693,0.101-0.2433,0.082L17.46,16.838l-0.0106-0.5442
	l-0.0118-1.2888l0.001-2.1785l0.0263-3.5157l0.037-3.1589l2.5311-0.6416l0.0089-0.0023l0.059-0.0073
	c0.0591,0.0007,0.1189,0.0262,0.1819,0.0831C20.414,5.7009,20.5003,5.902,20.5,6.1284z M5.5,11.5003
	c0-1.3751,0.8199-2.5209,1.9048-2.7888l8.5933-2.1783l-0.0266,2.132l-0.0272,3.0745l-0.0084,2.6476l0.006,1.3018l0.0112,0.767
	l-8.5483-2.1669l-0.1531-0.0442C6.2437,13.9115,5.5,12.8099,5.5,11.5003z M12.25,18.5l-0.0058,0.1436
	c-0.073,0.8994-0.826,1.6064-1.7442,1.6064c-0.9665,0-1.75-0.7835-1.75-1.75v-2.3225l3.5,0.8872V18.5z"/>
</svg>