<?xml version="1.0" encoding="utf-8"?>
<!-- Generator: Adobe Illustrator 24.2.3, SVG Export Plug-In . SVG Version: 6.00 Build 0)  -->
<svg fill="currentColor" version="1.1" id="Warstwa_1" xmlns="http://www.w3.org/2000/svg" xmlns:xlink="http://www.w3.org/1999/xlink" x="0px" y="0px"
	 viewBox="0 0 26 26" style="enable-background:new 0 0 26 26;" xml:space="preserve">
<style type="text/css">
	.st0{fill:#C41B04;}
	.st1{fill:#FF6C4D;}
	.st2{fill:#E43813;}
</style>
<g>
	<path class="st0" d="M13.8,16.7v1.8c0,1.8-1.5,3.2-3.2,3.2c-1.7,0-3.1-1.4-3.2-3.1l0-0.2v-3L13.8,16.7z"/>
	<path class="st1" d="M21.3,4.5c-0.5-0.4-1-0.6-1.6-0.4L7,7.3c-1.8,0.4-3,2.2-3,4.2s1.3,3.8,3,4.2L8.2,16l7.2,1.8l4.3,1.1
		c0.6,0.1,1.2,0,1.6-0.4c0.5-0.4,0.7-1,0.7-1.7V6.1C22,5.5,21.7,4.9,21.3,4.5z"/>
	<path class="st2" d="M21.3,4.5c-0.5-0.4-1-0.6-1.6-0.4c-1.3,0.3-2.2,0.6-2.8,0.7C16.6,4.8,16.3,4.9,16,5c-0.1,8.7-0.1,13,0,13
		c0.8,0.2,2,0.5,3.6,0.9c0.6,0.1,1.2,0,1.6-0.4c0.5-0.4,0.7-1,0.7-1.7V6.1C22,5.5,21.7,4.9,21.3,4.5z"/>
</g>
</svg>
