<svg fill="currentColor" id="icons" xmlns="http://www.w3.org/2000/svg" viewBox="0 0 24 24"><title>02-04-capping-m</title><rect id="canvas" width="24" height="24" style="fill:none"/><path d="M12,20a8,8,0,1,1,8-8,.75.75,0,0,1-1.5,0A6.5,6.5,0,1,0,12,18.5.75.75,0,0,1,12,20Z"/><path d="M9.15137,14.82178a.75.75,0,0,1-.4419-1.35645L11.25,11.61816V8.89307a.75.75,0,0,1,1.5,0V12a.75105.75105,0,0,1-.30859.60645L9.5918,14.67822A.747.747,0,0,1,9.15137,14.82178Z"/><path d="M15.55273,20.19922a1.18417,1.18417,0,0,1-.58105-.15186,1.17157,1.17157,0,0,1-.59863-1.01953V14.87207a1.17216,1.17216,0,0,1,.59863-1.01953,1.18916,1.18916,0,0,1,1.19727.02051l3.418,2.07763.001.001a1.167,1.167,0,0,1-.001,1.99707L16.168,20.02734A1.18564,1.18564,0,0,1,15.55273,20.19922Zm.32032-4.75049v3.00244l2.46972-1.501Z"/></svg>