<svg fill="currentColor" id="icons" xmlns="http://www.w3.org/2000/svg" viewBox="0 0 24 24"><title>10-13-card-m</title><rect id="canvas" width="24" height="24" style="fill:none"/><path d="M18.25,3H5.75A2.7528,2.7528,0,0,0,3,5.75v12.5A2.7528,2.7528,0,0,0,5.75,21h12.5A2.7528,2.7528,0,0,0,21,18.25V5.75A2.7528,2.7528,0,0,0,18.25,3ZM5.75,4.5h12.5A1.25116,1.25116,0,0,1,19.5,5.75V12.5H4.5V5.75A1.25116,1.25116,0,0,1,5.75,4.5Zm12.5,15H5.75A1.25116,1.25116,0,0,1,4.5,18.25V14h15v4.25A1.25116,1.25116,0,0,1,18.25,19.5Z"/><path d="M16.25,16H12.2002a.75.75,0,0,0,0,1.5H16.25a.75.75,0,0,0,0-1.5Z"/></svg>