<svg fill="currentColor" id="icons" xmlns="http://www.w3.org/2000/svg" viewBox="0 0 24 24"><title>01-02-cart-block-m</title><rect id="canvas" width="24" height="24" style="fill:none"/><path d="M5.13574,16.95508a2.884,2.884,0,0,0,2.83594,2.38183H11.75a.75.75,0,0,0,0-1.5H7.97168A1.3851,1.3851,0,0,1,6.6123,16.68945L5.50586,10.53809a.31892.31892,0,0,1,.07031-.26856.30846.30846,0,0,1,.24024-.11328H18.18359a.30846.30846,0,0,1,.24024.11328.3195.3195,0,0,1,.07031.269l-.19434,1.07862a.75014.75014,0,0,0,1.47657.26562l.19433-1.07812a1.82086,1.82086,0,0,0-1.78711-2.14844H16.64648c-.01086-.01941-.01263-.04132-.02539-.06006l-2.4707-3.60693a.75031.75031,0,0,0-1.23828.84765l1.93121,2.81934H9.15668l1.93121-2.81934a.75031.75031,0,0,0-1.23828-.84765L7.37891,8.59619c-.01276.01874-.01453.04065-.02539.06006H5.81641A1.82074,1.82074,0,0,0,4.0293,10.8042Z" /><path d="M17,13.25A3.75,3.75,0,1,0,20.75,17,3.75442,3.75442,0,0,0,17,13.25ZM14.75,17A2.25278,2.25278,0,0,1,17,14.75a2.2231,2.2231,0,0,1,.97815.23322l-2.99506,2.99469A2.22273,2.22273,0,0,1,14.75,17ZM17,19.25a2.22468,2.22468,0,0,1-.95-.218l2.98218-2.98181A2.22477,2.22477,0,0,1,19.25,17,2.25278,2.25278,0,0,1,17,19.25Z" /></svg>