<svg fill="currentColor" id="icons" xmlns="http://www.w3.org/2000/svg" viewBox="0 0 24 24"><title>01-05-cart-check-m</title><rect id="canvas" width="24" height="24" style="fill:none"/><path d="M11.75,17.83691H7.97168A1.38548,1.38548,0,0,1,6.6123,16.68945L5.50586,10.53809a.32275.32275,0,0,1,.07031-.26856.31148.31148,0,0,1,.23975-.11328H18.18408a.31148.31148,0,0,1,.23975.11328.32275.32275,0,0,1,.07031.26856l-.19385,1.0791a.75014.75014,0,0,0,1.47657.26562l.19384-1.0791a1.82129,1.82129,0,0,0-1.78662-2.14746H16.64545c-.01087-.01923-.01258-.041-.02533-.05957L14.1499,4.98926a.7499.7499,0,1,0-1.2373.84765l1.93054,2.81934H9.15686L11.0874,5.83691a.7499.7499,0,1,0-1.2373-.84765L7.37988,8.59668c-.01275.01855-.01446.04034-.02533.05957H5.81592A1.82129,1.82129,0,0,0,4.0293,10.80371l1.10644,6.15137a2.88559,2.88559,0,0,0,2.83594,2.38183H11.75a.75.75,0,0,0,0-1.5Z" /><path d="M19.23145,14.67773l-2.73487,2.71582-1.21924-1.16308a.75013.75013,0,0,0-1.03515,1.08594l1.74756,1.667a.7501.7501,0,0,0,1.04589-.01074l3.25245-3.23047a.74993.74993,0,0,0-1.05664-1.06446Z" /></svg>