<svg fill="currentColor" id="icons" xmlns="http://www.w3.org/2000/svg" viewBox="0 0 24 24"><title>01-03-cart-remove-m</title><rect id="canvas" width="24" height="24" style="fill:none"/><path d="M5.13574,16.95508a2.88559,2.88559,0,0,0,2.83594,2.38183H11.75a.75.75,0,0,0,0-1.5H7.97168A1.38548,1.38548,0,0,1,6.6123,16.68945L5.50586,10.53857a.32452.32452,0,0,1,.07031-.26953.31046.31046,0,0,1,.23975-.11279H18.18408a.31046.31046,0,0,1,.23975.11279.32452.32452,0,0,1,.07031.26953l-.19385,1.07862a.75014.75014,0,0,0,1.47657.26562l.19384-1.07861a1.82152,1.82152,0,0,0-1.78662-2.14795H16.64563c-.01093-.01941-.0127-.04132-.02551-.06006L14.1499,4.98926a.7499.7499,0,1,0-1.2373.84765l1.93084,2.81934H9.15656L11.0874,5.83691a.7499.7499,0,1,0-1.2373-.84765L7.37988,8.59619c-.01281.01874-.01458.04065-.02551.06006H5.81592A1.82152,1.82152,0,0,0,4.0293,10.8042Z" /><path d="M19.21973,14.002,17.25,15.97168,15.28027,14.002a.74992.74992,0,0,0-1.06054,1.06055l1.96972,1.96973L14.21973,19.002a.74992.74992,0,1,0,1.06054,1.06055L17.25,18.09277l1.96973,1.96973A.74992.74992,0,0,0,20.28027,19.002l-1.96972-1.96972,1.96972-1.96973A.74992.74992,0,0,0,19.21973,14.002Z" /></svg>