<svg fill="currentColor" id="icons" xmlns="http://www.w3.org/2000/svg" viewBox="0 0 24 24"><title>01-01-cart-m</title><rect id="canvas" width="24" height="24" style="fill:none"/><path d="M5.13574,16.95508a2.88474,2.88474,0,0,0,2.83594,2.38183h8.05664a2.88474,2.88474,0,0,0,2.83594-2.38183L19.9707,10.8042a1.82152,1.82152,0,0,0-1.78662-2.14795H16.64563c-.01093-.01941-.0127-.04132-.02551-.06006L14.1499,4.98926a.7499.7499,0,1,0-1.2373.84765l1.93084,2.81934H9.15656L11.0874,5.83691a.7499.7499,0,1,0-1.2373-.84765L7.37988,8.59619c-.01281.01874-.01458.04065-.02551.06006H5.81592A1.82152,1.82152,0,0,0,4.0293,10.8042Zm.44043-6.686a.31046.31046,0,0,1,.23975-.11279H18.18408a.31046.31046,0,0,1,.23975.11279.32452.32452,0,0,1,.07031.26953L17.3877,16.68945a1.38548,1.38548,0,0,1-1.35938,1.14746H7.97168A1.38548,1.38548,0,0,1,6.6123,16.68945L5.50586,10.53857A.32452.32452,0,0,1,5.57617,10.269Z" /></svg>