<svg fill="currentColor" id="icons" xmlns="http://www.w3.org/2000/svg" viewBox="0 0 24 24"><title>01-06-cart-edit-m</title><rect id="canvas" width="24" height="24" style="fill:none"/><path d="M11.75,17.83691H7.97168A1.3851,1.3851,0,0,1,6.6123,16.68945L5.50586,10.53711a.3183.3183,0,0,1,.07031-.26758.31.31,0,0,1,.24024-.11328H18.18359a.31.31,0,0,1,.24024.11328.31949.31949,0,0,1,.07031.26856l-.19434,1.0791a.75014.75014,0,0,0,1.47657.26562l.19433-1.07812a1.82086,1.82086,0,0,0-1.78711-2.14844H16.6463c-.0108-.01923-.01251-.041-.02521-.05957l-2.4707-3.60742a.75031.75031,0,0,0-1.23828.84765l1.931,2.81934H9.15692l1.931-2.81934a.75031.75031,0,0,0-1.23828-.84765L7.37891,8.59668c-.0127.01855-.01441.04034-.02521.05957H5.81641A1.82061,1.82061,0,0,0,4.0293,10.80371l1.10644,6.15137a2.884,2.884,0,0,0,2.83594,2.38183H11.75a.75.75,0,0,0,0-1.5Z" /><path d="M19.16943,13.95709l-.00348.00348L14.97833,18.1897l.00653,1.0603,1.05756-.00311.00348-.00348,4.18762-4.22907a.75.75,0,0,0-1.06409-1.05725Z" /></svg>