<svg fill="currentColor" id="icons" xmlns="http://www.w3.org/2000/svg" viewBox="0 0 24 24"><title>01-17-cashbox-m</title><rect id="canvas" width="24" height="24" style="fill:none"/><path d="M12.9165,7.7085a.75019.75019,0,0,0,.75-.75v-.917a.75.75,0,1,0-1.5,0v.917A.7502.7502,0,0,0,12.9165,7.7085Z"/><path d="M15.6665,7.7085a.75019.75019,0,0,0,.75-.75v-.917a.75.75,0,1,0-1.5,0v.917A.7502.7502,0,0,0,15.6665,7.7085Z"/><path d="M20.90088,15.21387,19.2085,9.291a1.08335,1.08335,0,0,1-.042-.29786V4.6665A1.66834,1.66834,0,0,0,17.5,3H6.5A1.66834,1.66834,0,0,0,4.8335,4.6665V8.99316a1.08335,1.08335,0,0,1-.042.29786L3.09863,15.21533A2.59782,2.59782,0,0,0,3,15.92334V19.3335A1.66835,1.66835,0,0,0,4.6665,21h14.667A1.66835,1.66835,0,0,0,21,19.3335V15.92334a2.59782,2.59782,0,0,0-.09863-.708ZM17.6665,4.6665V8.5h-6.75v-4H17.5A.16671.16671,0,0,1,17.6665,4.6665ZM6.5,4.5H9.4165v4H6.3335V4.6665A.16671.16671,0,0,1,6.5,4.5Zm-.351,5.5H17.851L19.256,14.9165H4.7442ZM19.3335,19.5H4.6665A.16671.16671,0,0,1,4.5,19.3335v-2.917h15v2.917A.16671.16671,0,0,1,19.3335,19.5Z"/></svg>