<svg fill="currentColor" id="icons" xmlns="http://www.w3.org/2000/svg" viewBox="0 0 24 24"><title>06-11-category-edit-m</title><rect id="canvas" width="24" height="24" style="fill:none"/><path d="M19.16943,13.95709l-.00348.00348L14.97833,18.1897l.00653,1.0603,1.05756-.00311.00348-.00348,4.18762-4.22907a.75.75,0,0,0-1.06409-1.05725Z"/><path d="M19.11328,4.79l-2.8999-1.43457a2.89055,2.89055,0,0,0-3.35449.57519,1.41167,1.41167,0,0,1-2-.00878,2.891,2.891,0,0,0-3.33448-.584L4.90869,4.60547A3.43722,3.43722,0,0,0,3,7.68848v2.63769a1.62816,1.62816,0,0,0,1.61475,1.6377H6.49316v8.23828a.7502.7502,0,0,0,.75.75h4.35108a.75.75,0,0,0,0-1.5H7.99316V9.55176a.75.75,0,1,0-1.5,0v.91211H4.61475A.13.13,0,0,1,4.5,10.32617V7.68848a1.92757,1.92757,0,0,1,1.06348-1.7334L8.17871,4.6875a1.395,1.395,0,0,1,1.61377.29,2.9551,2.9551,0,0,0,4.14111,0,1.39511,1.39511,0,0,1,1.61524-.27734l2.8999,1.43457A1.92574,1.92574,0,0,1,19.5,7.86035v2.46582a.13.13,0,0,1-.11475.1377H17.5127l-.00586-.917a.75012.75012,0,0,0-.75-.74512H16.752a.75051.75051,0,0,0-.74511.75488l.00781,1.22852a1.18512,1.18512,0,0,0,1.1831,1.17871h2.1875A1.62816,1.62816,0,0,0,21,10.32617V7.86035A3.436,3.436,0,0,0,19.11328,4.79Z"/></svg>