<svg fill="currentColor" id="icons" xmlns="http://www.w3.org/2000/svg" viewBox="0 0 24 24"><title>06-12-category-show-m</title><rect id="canvas" width="24" height="24" style="fill:none"/><path d="M17.24707,14.05566c-2.07129,0-3.61963,2.03418-3.793,2.27051a1.12461,1.12461,0,0,0-.20166.5752l-.00537.0664.00635.06543a1.12422,1.12422,0,0,0,.20752.55567c.27978.37793,1.77588,2.26074,3.78613,2.26074,2.14063,0,3.71973-2.126,3.78272-2.21191a1.03155,1.03155,0,0,0,.21582-.63965,1.11931,1.11931,0,0,0-.21387-.72754C20.86475,16.044,19.33789,14.05566,17.24707,14.05566Zm0,4.29395A3.63587,3.63587,0,0,1,14.876,16.9541a3.64982,3.64982,0,0,1,2.37109-1.39844,3.70033,3.70033,0,0,1,2.40967,1.39746A3.68959,3.68959,0,0,1,17.24707,18.34961Z"/><path d="M11.59424,19.45215H7.99316V9.55176a.75.75,0,1,0-1.5,0v.91211H4.61475A.13.13,0,0,1,4.5,10.32617V7.68848a1.92757,1.92757,0,0,1,1.06348-1.7334L8.17871,4.6875a1.39513,1.39513,0,0,1,1.61377.29,2.9551,2.9551,0,0,0,4.14111,0,1.39537,1.39537,0,0,1,1.61524-.27734l2.8999,1.43457A1.92574,1.92574,0,0,1,19.5,7.86035v2.46582a.13.13,0,0,1-.11475.1377H17.5127l-.00586-.917a.75012.75012,0,0,0-.75-.74512H16.752a.75051.75051,0,0,0-.74511.75488l.00781,1.22852a1.18512,1.18512,0,0,0,1.1831,1.17871h2.1875A1.62816,1.62816,0,0,0,21,10.32617V7.86035A3.436,3.436,0,0,0,19.11328,4.79l-2.8999-1.43457a2.89042,2.89042,0,0,0-3.35449.57519,1.41167,1.41167,0,0,1-2-.00878,2.89109,2.89109,0,0,0-3.33448-.584L4.90869,4.60547A3.43722,3.43722,0,0,0,3,7.68848v2.63769a1.62816,1.62816,0,0,0,1.61475,1.6377H6.49316v8.23828a.7502.7502,0,0,0,.75.75h4.35108a.75.75,0,0,0,0-1.5Z"/></svg>