<svg fill="currentColor" id="icons" xmlns="http://www.w3.org/2000/svg" viewBox="0 0 24 24"><title>06-09-category-add-m</title><rect id="canvas" width="24" height="24" style="fill:none"/><path d="M19.9502,16.28223h-2v-2a.75.75,0,0,0-1.5,0v2h-2a.75.75,0,0,0,0,1.5h2v2a.75.75,0,0,0,1.5,0v-2h2a.75.75,0,0,0,0-1.5Z"/><path d="M19.11328,4.78906,16.21289,3.35645a2.88664,2.88664,0,0,0-3.35351.5747,1.38049,1.38049,0,0,1-.99512.42237h-.001a1.39076,1.39076,0,0,1-1.00488-.43067,2.88675,2.88675,0,0,0-3.334-.585L4.90918,4.60547A3.43441,3.43441,0,0,0,3,7.688v2.63818a1.62857,1.62857,0,0,0,1.61523,1.6377H6.49316v8.23828a.7502.7502,0,0,0,.75.75h4.35157a.75.75,0,1,0,0-1.5H7.99316V9.55127a.75.75,0,1,0-1.5,0v.9126H4.61523A.12964.12964,0,0,1,4.5,10.32617V7.688A1.926,1.926,0,0,1,5.56348,5.95508L8.17871,4.6875A1.3974,1.3974,0,0,1,9.793,4.978a2.872,2.872,0,0,0,2.07031.87549h.001A2.86651,2.86651,0,0,0,13.93359,4.978a1.3885,1.3885,0,0,1,1.61524-.27686l2.90039,1.43262A1.9308,1.9308,0,0,1,19.5,7.86035v2.46582a.12964.12964,0,0,1-.11523.1377H17.5127l-.00586-.91748a.75011.75011,0,0,0-.75-.74512H16.752a.74958.74958,0,0,0-.74511.75488l.00781,1.229a1.18586,1.18586,0,0,0,1.18359,1.17871h2.18653A1.62857,1.62857,0,0,0,21,10.32617V7.86035A3.43937,3.43937,0,0,0,19.11328,4.78906Z"/></svg>