<svg fill="currentColor" id="icons" xmlns="http://www.w3.org/2000/svg" viewBox="0 0 24 24"><title>06-08-category-remove-m</title><rect id="canvas" width="24" height="24" style="fill:none"/><path d="M20.28027,14.002a.74972.74972,0,0,0-1.06054,0L17.25,15.97168,15.28027,14.002a.74992.74992,0,0,0-1.06054,1.06055l1.96972,1.96973L14.21973,19.002a.74992.74992,0,1,0,1.06054,1.06055L17.25,18.09277l1.96973,1.96973A.74992.74992,0,0,0,20.28027,19.002l-1.96972-1.96972,1.96972-1.96973A.74973.74973,0,0,0,20.28027,14.002Z"/><path d="M19.11328,4.78906,16.21289,3.35645a2.88638,2.88638,0,0,0-3.35351.5747,1.41227,1.41227,0,0,1-2.00049-.00879,2.88709,2.88709,0,0,0-3.33448-.58447L4.90918,4.60547A3.43528,3.43528,0,0,0,3,7.688v2.63818a1.62847,1.62847,0,0,0,1.61475,1.6377H6.49316v8.23828a.7502.7502,0,0,0,.75.75h4.35108a.75.75,0,0,0,0-1.5H7.99316V9.55127a.75.75,0,1,0-1.5,0v.9126H4.61475A.12963.12963,0,0,1,4.5,10.32617V7.688A1.92683,1.92683,0,0,1,5.56348,5.95508L8.17871,4.6875A1.3969,1.3969,0,0,1,9.793,4.978a2.95452,2.95452,0,0,0,4.14062,0,1.3885,1.3885,0,0,1,1.61524-.27686l2.90039,1.43262A1.9308,1.9308,0,0,1,19.5,7.86035v2.46582a.12964.12964,0,0,1-.11523.1377H17.5127l-.00586-.91748a.73932.73932,0,0,0-.75489-.74512.74958.74958,0,0,0-.74511.75488l.00781,1.229a1.18586,1.18586,0,0,0,1.18359,1.17871h2.18653A1.62857,1.62857,0,0,0,21,10.32617V7.86035A3.43937,3.43937,0,0,0,19.11328,4.78906Z"/></svg>