<svg fill="currentColor" id="icons" xmlns="http://www.w3.org/2000/svg" viewBox="0 0 24 24"><title>06-07-category-m</title><rect id="canvas" width="24" height="24" style="fill:none"/><path d="M4.61475,11.96387H6.49316v8.23828a.7502.7502,0,0,0,.75.75h9.52a.75019.75019,0,0,0,.75-.75V11.96387h1.87207A1.62847,1.62847,0,0,0,21,10.32617V7.86035a3.43872,3.43872,0,0,0-1.88721-3.07129L16.21338,3.35645a2.8845,2.8845,0,0,0-3.354.5747,1.41227,1.41227,0,0,1-2.00049-.00879,2.8875,2.8875,0,0,0-3.33448-.58447L4.90918,4.60547A3.43528,3.43528,0,0,0,3,7.688v2.63818A1.62847,1.62847,0,0,0,4.61475,11.96387ZM4.5,7.688A1.92683,1.92683,0,0,1,5.56348,5.95508L8.17871,4.6875A1.3969,1.3969,0,0,1,9.793,4.978a2.95452,2.95452,0,0,0,4.14062,0,1.38748,1.38748,0,0,1,1.61573-.27686l2.89941,1.43262A1.92834,1.92834,0,0,1,19.5,7.86035v2.46582a.12963.12963,0,0,1-.11475.1377H17.5127l-.00586-.91748a.7498.7498,0,0,0-.75-.74512H16.752a.74989.74989,0,0,0-.74511.75488l.00775,1.21912-.00141.007v8.66992h-8.02V9.55127a.75.75,0,1,0-1.5,0v.9126H4.61475A.12963.12963,0,0,1,4.5,10.32617Z"/></svg>