<svg fill="currentColor" id="icons" xmlns="http://www.w3.org/2000/svg" viewBox="0 0 24 24"><title>03-08-change-stage-m</title><rect id="canvas" width="24" height="24" style="fill:none"/><path d="M9.19824,17.59863H4.918A1.93974,1.93974,0,0,1,3,15.64258V8.35742A1.93932,1.93932,0,0,1,4.918,6.40186H9.18748a4.04121,4.04121,0,0,1,3.2676,1.69335L14.9668,11.5874a.75063.75063,0,0,1-.00293.87891l-2.51075,3.45557A4.04325,4.04325,0,0,1,9.19824,17.59863ZM4.918,7.90186a.43861.43861,0,0,0-.418.45556v7.28516a.43844.43844,0,0,0,.418.456H9.19824a2.54216,2.54216,0,0,0,2.042-1.05761L13.43164,12.023,11.23633,8.9707A2.53624,2.53624,0,0,0,9.18748,7.90186Z"/><path d="M16.749,17.59863a.7501.7501,0,0,1-.60351-1.19336L19.35742,12.023,16.14258,7.59229a.75029.75029,0,0,1,1.21484-.88086L20.89355,11.585a.74882.74882,0,0,1-.00293.88379L17.35449,17.292A.74811.74811,0,0,1,16.749,17.59863Z"/></svg>