<svg fill="currentColor" id="icons" xmlns="http://www.w3.org/2000/svg" viewBox="0 0 24 24"><title>07-05-chat-show-m</title><rect id="canvas" width="24" height="24" style="fill:none"/><path d="M19.61523,11.02881a.75055.75055,0,0,0-.92675.51465,4.72107,4.72107,0,0,1-1.17969,2.00879c-.17578.17382-5.12891,4.90234-5.12891,4.90234-.03906.03711-.07715.04639-.17383.03271a.17113.17113,0,0,1-.10253-.15869l-.01075-2.62549a.7502.7502,0,0,0-.75-.74707H9.81445a4.72821,4.72821,0,0,1,0-9.456H11.25a.75.75,0,0,0,0-1.5H9.81445a6.22816,6.22816,0,0,0,0,12.45605h.78125l.00782,1.87745A1.66326,1.66326,0,0,0,13.415,19.54c5.03613-4.80811,5.16406-4.93262,5.16016-4.93262h-.001a6.218,6.218,0,0,0,1.55566-2.65088A.75.75,0,0,0,19.61523,11.02881Z"/><path d="M17,4.05566c-2.07227,0-3.62012,2.03418-3.79492,2.27344a1.1249,1.1249,0,0,0-.2002.57178L13,6.9668l.00684.06591a1.08569,1.08569,0,0,0,.20117.54639c.0664.09278,1.6582,2.271,3.792,2.271,2.08105,0,3.61523-1.98633,3.7832-2.21338a1.02686,1.02686,0,0,0,.21485-.63916,1.116,1.116,0,0,0-.21387-.72705C20.61719,6.044,19.09082,4.05566,17,4.05566ZM17,8.3501a3.65138,3.65138,0,0,1-2.373-1.395A3.65427,3.65427,0,0,1,17,5.55566a3.69779,3.69779,0,0,1,2.40723,1.39551A3.68166,3.68166,0,0,1,17,8.3501Z"/></svg>