<svg fill="currentColor" id="icons" xmlns="http://www.w3.org/2000/svg" viewBox="0 0 24 24"><title>07-06-chat-vendor-m</title><rect id="canvas" width="24" height="24" style="fill:none"/><path d="M9,15.00635a3.0032,3.0032,0,1,0-3.0166-3.00293A3.01341,3.01341,0,0,0,9,15.00635ZM9,10.5a1.50323,1.50323,0,1,1-1.5166,1.50342A1.51189,1.51189,0,0,1,9,10.5Z"/><path d="M11.34375,15.34521H6.65625A3.64985,3.64985,0,0,0,3,18.98v.54883A1.4755,1.4755,0,0,0,4.47656,21h9.04688A1.4755,1.4755,0,0,0,15,19.52881V18.98A3.64985,3.64985,0,0,0,11.34375,15.34521ZM13.5,19.5l-9,.02881V18.98a2.14824,2.14824,0,0,1,2.15625-2.13477h4.6875A2.14824,2.14824,0,0,1,13.5,18.98Z"/><path d="M16.26953,3H13.06836A4.74553,4.74553,0,0,0,8.42285,6.85889a.74973.74973,0,1,0,1.47266.28222A3.24481,3.24481,0,0,1,13.06836,4.5h3.20117a3.26263,3.26263,0,0,1,2.292,5.55225c-.12793.12695-3.08886,2.95361-3.61718,3.48144l-.00686-1.78662a.75017.75017,0,0,0-.75-.74707h-.00291a.74992.74992,0,0,0-.74709.75293l.00783,1.94531a1.41967,1.41967,0,0,0,1.41992,1.41944,1.4071,1.4071,0,0,0,.97852-.39258c3.69531-3.52783,3.78711-3.61621,3.7832-3.61621A4.76314,4.76314,0,0,0,16.26953,3Z"/></svg>