<svg fill="currentColor" id="icons" xmlns="http://www.w3.org/2000/svg" viewBox="0 0 24 24"><title>07-03-chat-remove-m</title><rect id="canvas" width="24" height="24" style="fill:none"/><path d="M19.61523,11.02881a.75055.75055,0,0,0-.92675.51465,4.72107,4.72107,0,0,1-1.17969,2.00879c-.17578.17382-5.12891,4.90234-5.12891,4.90234-.03906.03711-.07715.04639-.17383.03271a.17113.17113,0,0,1-.10253-.15869l-.01075-2.62549a.7502.7502,0,0,0-.75-.74707H9.81445a4.72821,4.72821,0,0,1,0-9.456H11.25a.75.75,0,0,0,0-1.5H9.81445a6.22816,6.22816,0,0,0,0,12.45605h.78125l.00782,1.87745A1.66326,1.66326,0,0,0,13.415,19.54c5.03613-4.80811,5.16406-4.93262,5.16016-4.93262h-.001a6.218,6.218,0,0,0,1.55566-2.65088A.75.75,0,0,0,19.61523,11.02881Z"/><path d="M20.03027,3.96973a.74972.74972,0,0,0-1.06054,0L17,5.93945,15.03027,3.96973a.74992.74992,0,0,0-1.06054,1.06054L15.93945,7,13.96973,8.96973a.74992.74992,0,1,0,1.06054,1.06054L17,8.06055l1.96973,1.96972a.74992.74992,0,0,0,1.06054-1.06054L18.06055,7l1.96972-1.96973A.74972.74972,0,0,0,20.03027,3.96973Z"/></svg>