<svg fill="currentColor" id="icons" xmlns="http://www.w3.org/2000/svg" viewBox="0 0 24 24"><title>07-04-chat-add-m</title><rect id="canvas" width="24" height="24" style="fill:none"/><path d="M19.75,6.25h-2v-2a.75.75,0,0,0-1.5,0v2h-2a.75.75,0,0,0,0,1.5h2v2a.75.75,0,0,0,1.5,0v-2h2a.75.75,0,0,0,0-1.5Z"/><path d="M19.61523,11.02881a.751.751,0,0,0-.92675.51465,4.72107,4.72107,0,0,1-1.17969,2.00879c-.17578.17382-5.12891,4.90234-5.12891,4.90234-.03906.03711-.07812.04639-.17383.03271a.17113.17113,0,0,1-.10253-.15869l-.01075-2.62549a.7502.7502,0,0,0-.75-.74707H9.81445a4.72821,4.72821,0,0,1,0-9.456H11.25a.75.75,0,0,0,0-1.5H9.81445a6.22816,6.22816,0,0,0,0,12.45605h.78125l.00782,1.87745A1.66326,1.66326,0,0,0,13.415,19.54c5.03613-4.80811,5.16406-4.93262,5.16016-4.93262h-.001a6.218,6.218,0,0,0,1.55566-2.65088A.75.75,0,0,0,19.61523,11.02881Z"/></svg>