<?xml version="1.0" encoding="utf-8"?>
<!-- Generator: Adobe Illustrator 25.2.1, SVG Export Plug-In . SVG Version: 6.00 Build 0)  -->
<svg fill="currentColor" version="1.1" id="Warstwa_1" xmlns="http://www.w3.org/2000/svg" xmlns:xlink="http://www.w3.org/1999/xlink" x="0px" y="0px"
	 viewBox="0 0 26 26" style="enable-background:new 0 0 26 26;" xml:space="preserve">
<style type="text/css">
	.st0{fill:#54CB0B;}
</style>
<g>
	<path class="st0" d="M21.491,8.329C20.461,5.725,18.042,4.02,15.35,4h-4.699C6.971,4.025,4,7.155,4,11.007s2.971,6.981,6.651,7.007
		h0.84l0.008,2.112c0,0.497,0.188,0.974,0.523,1.325C12.358,21.802,12.813,22,13.288,22c0.46,0.001,0.902-0.185,1.233-0.517
		c5.418-5.413,5.551-5.549,5.547-5.549C21.96,13.928,22.52,10.932,21.491,8.329z M16.5,11.75h-7c-0.414,0-0.75-0.336-0.75-0.75
		s0.336-0.75,0.75-0.75h7c0.414,0,0.75,0.336,0.75,0.75S16.914,11.75,16.5,11.75z"/>
</g>
</svg>
