<?xml version="1.0" encoding="utf-8"?>
<!-- Generator: Adobe Illustrator 25.2.1, SVG Export Plug-In . SVG Version: 6.00 Build 0)  -->
<svg fill="currentColor" version="1.1" id="Warstwa_1" xmlns="http://www.w3.org/2000/svg"
	xmlns:xlink="http://www.w3.org/1999/xlink" x="0px" y="0px"
	viewBox="0 0 26 26" style="enable-background:new 0 0 26 26;" xml:space="preserve">

<g>
	<path d="M15.35,4c2.692,0.02,5.112,1.725,6.141,4.329c0.995,2.517,0.505,5.4-1.238,7.401l-0.196,0.216l-5.536,5.537
		c-0.332,0.333-0.774,0.518-1.233,0.517c-0.475,0-0.93-0.198-1.265-0.55c-0.298-0.313-0.48-0.724-0.517-1.16l-0.007-0.165
		l-0.008-2.112h-0.84C6.971,17.988,4,14.858,4,11.007c0-3.77,2.846-6.848,6.417-7.001L10.651,4H15.35z M10.661,5.5
		C7.821,5.52,5.5,7.964,5.5,11.007c0,2.966,2.206,5.364,4.94,5.501l0.211,0.006h2.334l0.014,3.613c0,0.113,0.041,0.218,0.109,0.288
		c0.054,0.057,0.119,0.085,0.182,0.085c0.058,0,0.118-0.025,0.171-0.079l5.512-5.513c1.437-1.523,1.904-3.781,1.212-5.788
		l-0.089-0.24c-0.779-1.969-2.552-3.27-4.526-3.374L15.35,5.5H10.661z"/>
	<path d="M16.5,10.25c0.414,0,0.75,0.336,0.75,0.75c0,0.38-0.282,0.693-0.648,0.743L16.5,11.75h-7
		c-0.414,0-0.75-0.336-0.75-0.75c0-0.38,0.282-0.693,0.648-0.743L9.5,10.25H16.5z"/>
</g>
</svg>