<svg fill="currentColor" id="icons" xmlns="http://www.w3.org/2000/svg" viewBox="0 0 24 24"><title>07-02-chat-block-m</title><rect id="canvas" width="24" height="24" style="fill:none"/><path d="M19.61523,11.02881a.751.751,0,0,0-.92675.51465,4.72107,4.72107,0,0,1-1.17969,2.00879c-.17578.17382-5.12891,4.90234-5.12891,4.90234-.04.03711-.07812.04639-.17383.03271a.17113.17113,0,0,1-.10253-.15869l-.01075-2.62549a.7502.7502,0,0,0-.75-.74707H9.81445a4.72821,4.72821,0,0,1,0-9.456H11.25a.75.75,0,0,0,0-1.5H9.81445a6.22816,6.22816,0,0,0,0,12.45605h.78125l.00782,1.87745A1.66326,1.66326,0,0,0,13.415,19.54c5.03613-4.80811,5.16406-4.93262,5.16016-4.93262h-.001a6.218,6.218,0,0,0,1.55566-2.65088A.75.75,0,0,0,19.61523,11.02881Z"/><path d="M17,3.25A3.75,3.75,0,1,0,20.75,7,3.75442,3.75442,0,0,0,17,3.25Zm0,1.5a2.2231,2.2231,0,0,1,.97815.23322L14.98309,7.97791A2.22273,2.22273,0,0,1,14.75,7,2.25278,2.25278,0,0,1,17,4.75Zm0,4.5a2.22468,2.22468,0,0,1-.95-.218l2.98218-2.98181A2.22477,2.22477,0,0,1,19.25,7,2.25278,2.25278,0,0,1,17,9.25Z"/></svg>