<svg fill="currentColor" id="icons" xmlns="http://www.w3.org/2000/svg" viewBox="0 0 24 24"><title>07-01-chat-m</title><rect id="canvas" width="24" height="24" style="fill:none"/><path d="M14.18555,4H9.81445a6.22816,6.22816,0,0,0,0,12.45605h.78125l.00782,1.87745A1.66326,1.66326,0,0,0,13.415,19.54c5.04-4.81152,5.16406-4.93262,5.16016-4.93262A6.23023,6.23023,0,0,0,14.18555,4Zm3.32324,9.55225c-.17578.17382-5.12891,4.90234-5.12891,4.90234a.15964.15964,0,0,1-.1123.04541l-.06153-.0127a.17113.17113,0,0,1-.10253-.15869l-.01075-2.62549a.7502.7502,0,0,0-.75-.74707H9.81445a4.72821,4.72821,0,0,1,0-9.456h4.3711a4.73006,4.73006,0,0,1,3.32324,8.05225Z"/></svg>