<svg fill="currentColor" id="icons" xmlns="http://www.w3.org/2000/svg" viewBox="0 0 24 24"><title>10-12-checkbox-m</title><rect id="canvas" width="24" height="24" style="fill:none"/><path d="M17.25,4H6.75A2.7528,2.7528,0,0,0,4,6.75v10.5A2.7528,2.7528,0,0,0,6.75,20h10.5A2.7528,2.7528,0,0,0,20,17.25V6.75A2.7528,2.7528,0,0,0,17.25,4ZM18.5,17.25a1.25116,1.25116,0,0,1-1.25,1.25H6.75A1.25116,1.25116,0,0,1,5.5,17.25V6.75A1.25116,1.25116,0,0,1,6.75,5.5h10.5A1.25116,1.25116,0,0,1,18.5,6.75Z"/><path d="M15.10156,9.167l-4.20312,4.09278L8.88672,11.37988a.74967.74967,0,0,0-1.02344,1.09571l2.53418,2.36816a.74936.74936,0,0,0,1.03516-.01074l4.71582-4.5918A.75.75,0,1,0,15.10156,9.167Z"/></svg>