<svg fill="currentColor" id="icons" xmlns="http://www.w3.org/2000/svg" viewBox="0 0 24 24"><title>01-03-check-2-s</title><rect id="canvas" width="24" height="24" style="fill:none"/><path d="M12,18a6,6,0,1,1,6-6A6.00657,6.00657,0,0,1,12,18ZM12,7.5A4.5,4.5,0,1,0,16.5,12,4.50491,4.50491,0,0,0,12,7.5Z"/><path d="M11.37451,14.09717h0a.74917.74917,0,0,1-.53467-.22412L9.44043,12.4502a.74995.74995,0,0,1,1.06934-1.05176l.86474.87939L13.49023,10.127a.74995.74995,0,1,1,1.06934,1.05176l-2.65039,2.69434A.74915.74915,0,0,1,11.37451,14.09717Z"/></svg>