<svg fill="currentColor" id="icons" xmlns="http://www.w3.org/2000/svg" viewBox="0 0 24 24"><defs><style>.cls-1{fill:none;}.cls-2{fill:#fff;}</style></defs><rect id="canvas" class="cls-1" width="24" height="24"/><path d="M17.25,4H6.75A2.7528,2.7528,0,0,0,4,6.75v10.5A2.7528,2.7528,0,0,0,6.75,20h10.5A2.7528,2.7528,0,0,0,20,17.25V6.75A2.7528,2.7528,0,0,0,17.25,4Z"/><path class="cls-2" d="M16.15088,10.2793l-4.71582,4.59179a.74937.74937,0,0,1-1.03516.01075L7.86572,12.51367A.74966.74966,0,0,1,8.88916,11.418l2.01172,1.87988L15.104,9.20508a.75.75,0,1,1,1.04688,1.07422Z"/></svg>