<svg fill="currentColor" width="24" height="24" viewBox="0 0 24 24" xmlns="http://www.w3.org/2000/svg">
<circle cx="12" cy="12" r="7" fill="white"/>
<path fill-rule="evenodd" clip-rule="evenodd" d="M4 12C4 7.58172 7.58172 4 12 4C16.4162 4.00505 19.9949 7.58382 20 12C20 16.4183 16.4183 20 12 20C7.58172 20 4 16.4183 4 12ZM12.0263 14.332L15.2783 11.1016H15.2783C15.4684 10.9128 15.5434 10.637 15.475 10.3779C15.4066 10.1189 15.2052 9.91598 14.9467 9.84568C14.6882 9.77539 14.4118 9.84836 14.2216 10.0371L11.4872 12.7534L10.2675 11.5903C9.96745 11.3059 9.4938 11.3179 9.20852 11.6172C8.92324 11.9165 8.93391 12.3901 9.23237 12.6763L10.9804 14.3428C11.2745 14.6229 11.7381 14.6182 12.0263 14.332Z" />
</svg>
