<svg fill="currentColor" id="icons" xmlns="http://www.w3.org/2000/svg" viewBox="0 0 24 24"><path d="M16.52734,10.24121,11.81152,14.833a.74935.74935,0,0,1-1.03515.01074L8.24219,12.47559a.74966.74966,0,0,1,1.02343-1.09571l2.01172,1.87989L15.48047,9.167a.75.75,0,1,1,1.04687,1.07422Z"/><path d="M17.25,20H6.75A2.7528,2.7528,0,0,1,4,17.25V6.75A2.7528,2.7528,0,0,1,6.75,4h10.5A2.7528,2.7528,0,0,1,20,6.75v10.5A2.7528,2.7528,0,0,1,17.25,20ZM6.75,5.5A1.25116,1.25116,0,0,0,5.5,6.75v10.5A1.25116,1.25116,0,0,0,6.75,18.5h10.5a1.25116,1.25116,0,0,0,1.25-1.25V6.75A1.25116,1.25116,0,0,0,17.25,5.5Z"/></svg>