<svg fill="currentColor" id="icons" xmlns="http://www.w3.org/2000/svg" viewBox="0 0 24 24"><title>01-04-chrome-fill-m</title><rect id="canvas" width="24" height="24" style="fill:#fff;fill-opacity:0.1"/><path d="M12,8.25684h9.00024A9.735,9.735,0,0,0,3.71576,6.88422L8.31128,11.4801A3.73536,3.73536,0,0,1,12,8.25684Z"/><path d="M21.47919,9.75684H14.97638a3.7044,3.7044,0,0,1-.353,4.90612c-.0094.01056-.01263.02417-.02276.03431l-6.31391,6.3139A9.72332,9.72332,0,0,0,21.47919,9.75684Z"/><path d="M9.44684,14.721c-.01477-.0127-.03345-.01752-.04743-.0315L2.991,8.28064A9.71721,9.71721,0,0,0,6.88934,20.28741l4.59626-4.59625A3.71473,3.71473,0,0,1,9.44684,14.721Z"/><path d="M9.75879,12a2.23654,2.23654,0,0,0,.654,1.58173l.007.007A2.24217,2.24217,0,1,0,9.75879,12Z"/></svg>