<svg fill="currentColor" id="icons" xmlns="http://www.w3.org/2000/svg" viewBox="0 0 24 24"><title>01-03-chrome-m</title><rect id="canvas" width="24" height="24" style="fill:#fff;fill-opacity:0.1"/><path d="M12,2.25A9.75,9.75,0,1,0,21.75,12,9.76128,9.76128,0,0,0,12,2.25Zm0,1.5a8.25284,8.25284,0,0,1,7.34271,4.50732H12a3.73569,3.73569,0,0,0-3.68866,3.223L4.80579,7.97473A8.2525,8.2525,0,0,1,12,3.75Zm2.24121,8.25049a2.23975,2.23975,0,0,1-3.82349,1.58618l-.00323-.00323a2.24147,2.24147,0,1,1,3.82672-1.583ZM3.75,12a8.20777,8.20777,0,0,1,.40851-2.55145l5.2409,5.2409c.01471.01471.03418.0199.04975.03308a3.71482,3.71482,0,0,0,2.03692.96814L7.97955,19.1972A8.25276,8.25276,0,0,1,3.75,12ZM12,20.25a8.20875,8.20875,0,0,1-2.54572-.40643l5.14631-5.1463c.01037-.01038.01367-.0243.02331-.0351a3.70313,3.70313,0,0,0,.3523-4.90485h4.95587A8.22755,8.22755,0,0,1,12,20.25Z"/></svg>