<svg fill="currentColor" id="icons" xmlns="http://www.w3.org/2000/svg" viewBox="0 0 24 24"><title>01-10-circle-chart-m</title><rect id="canvas" width="24" height="24" style="fill:none"/><path d="M18.85352,14.05908a.75176.75176,0,0,0-.97608.41553A6.337,6.337,0,0,1,12,18.5,6.43573,6.43573,0,0,1,5.646,12,6.50571,6.50571,0,0,1,9.48438,6.02881a.74986.74986,0,1,0-.60547-1.37207A8.02587,8.02587,0,0,0,12,20a7.83056,7.83056,0,0,0,7.269-4.96484A.75014.75014,0,0,0,18.85352,14.05908Z"/><path d="M12,4a.75.75,0,0,0,0,1.5A6.43573,6.43573,0,0,1,18.354,12a.75.75,0,0,0,1.5,0A7.93713,7.93713,0,0,0,12,4Z"/></svg>