<svg fill="currentColor" id="icons" xmlns="http://www.w3.org/2000/svg" viewBox="0 0 24 24"><title>02-02-clear-style-m</title><rect id="canvas" width="24" height="24" style="fill:none"/><path d="M5.32764,6.5H9.998V18.25a.75.75,0,0,0,1.5,0V6.5h4.7456a.75.75,0,0,0,0-1.5H5.32764a.75.75,0,1,0,0,1.5Z"/><path d="M15.03271,13.98682a.74992.74992,0,0,0-1.06054,1.06054l1.96972,1.96973-1.96972,1.96973a.74992.74992,0,1,0,1.06054,1.06054l1.96973-1.96972,1.96973,1.96972a.74992.74992,0,1,0,1.06054-1.06054L18.063,17.01709l1.96972-1.96973a.74992.74992,0,0,0-1.06054-1.06054l-1.96973,1.96972Z"/></svg>