<svg fill="currentColor" id="icons" xmlns="http://www.w3.org/2000/svg" viewBox="0 0 24 24"><title>03-03-click-m</title><rect id="canvas" width="24" height="24" style="fill:none"/><path d="M5.89453,11.69238h-2.082a.75.75,0,0,1,0-1.5h2.082a.75.75,0,0,1,0,1.5Z"/><path d="M7.37549,8.08984a.74633.74633,0,0,1-.53223-.22168L5.37109,6.38477A.74993.74993,0,0,1,6.43555,5.32812l1.47216,1.4834a.75.75,0,0,1-.53222,1.27832Z"/><path d="M5.90332,16.77832A.75.75,0,0,1,5.37109,15.5l1.47217-1.4834a.74992.74992,0,0,1,1.06445,1.05664l-1.47216,1.4834A.74835.74835,0,0,1,5.90332,16.77832Z"/><path d="M10.95068,6.59766a.7502.7502,0,0,1-.75-.75V3.75a.75.75,0,0,1,1.5,0V5.84766A.75019.75019,0,0,1,10.95068,6.59766Z"/><path d="M14.52539,8.08984a.75.75,0,0,1-.53223-1.27832l1.47266-1.4834a.74993.74993,0,1,1,1.06445,1.05665L15.05762,7.86816A.74715.74715,0,0,1,14.52539,8.08984Z"/><path d="M18.08887,21a1.74959,1.74959,0,0,1-1.25293-.52344L15.56836,19.2002l-.82422.83105a1.25777,1.25777,0,0,1-2.0874-.49414l-2.61768-7.91065a1.26087,1.26087,0,0,1,1.59473-1.5957L19.48633,12.668a1.26467,1.26467,0,0,1,.49219,2.08887l-.833.83886,1.27637,1.28614a1.78306,1.78306,0,0,1,0,2.50683l-1.08106,1.08887A1.7488,1.7488,0,0,1,18.08887,21Zm-2.52051-3.92871,2.333,2.34961a.22822.22822,0,0,0,.374.001l1.082-1.08985a.28059.28059,0,0,0,0-.39355L17.03223,15.5957l1.61523-1.627L11.6123,11.606,13.958,18.69434Z"/></svg>