<svg fill="currentColor" width="24" height="24" viewBox="0 0 24 24" xmlns="http://www.w3.org/2000/svg">
<path fill-rule="evenodd" clip-rule="evenodd" d="M4 12C4 16.4183 7.58172 20 12 20C12.4142 20 12.75 19.6642 12.75 19.25C12.75 18.8358 12.4142 18.5 12 18.5C8.41015 18.5 5.5 15.5899 5.5 12C5.5 8.41015 8.41015 5.5 12 5.5C15.5899 5.5 18.5 8.41015 18.5 12C18.5 12.4142 18.8358 12.75 19.25 12.75C19.6642 12.75 20 12.4142 20 12C20 7.58172 16.4183 4 12 4C7.58172 4 4 7.58172 4 12ZM8.43763 14.3041C8.53828 14.6131 8.82643 14.8221 9.15137 14.8218C9.30968 14.8218 9.46391 14.7715 9.5918 14.6782L12.4414 12.6065C12.6352 12.4652 12.7499 12.2398 12.75 12V8.89307C12.75 8.47886 12.4142 8.14307 12 8.14307C11.5858 8.14307 11.25 8.47886 11.25 8.89307V11.6182L8.70947 13.4653C8.44672 13.6565 8.33698 13.9951 8.43763 14.3041Z" />
<path d="M18.9707 13.6636L17.001 15.6333L15.0312 13.6636C14.7382 13.3717 14.2642 13.3721 13.9717 13.6646C13.6793 13.9571 13.6788 14.4311 13.9707 14.7241L15.9404 16.6938L13.9707 18.6636C13.7806 18.8529 13.7062 19.1293 13.7754 19.3885C13.8447 19.6477 14.0471 19.8501 14.3063 19.9194C14.5655 19.9886 14.8419 19.9142 15.0312 19.7241L17.001 17.7544L18.9707 19.7241C19.2637 20.016 19.7378 20.0155 20.0302 19.7231C20.3227 19.4306 20.3231 18.9566 20.0312 18.6636L18.0615 16.6938L20.0312 14.7241C20.3231 14.4311 20.3227 13.9571 20.0302 13.6646C19.7378 13.3721 19.2637 13.3717 18.9707 13.6636Z"/>
</svg>
