<svg fill="currentColor" id="icons" xmlns="http://www.w3.org/2000/svg" viewBox="0 0 24 24"><defs><style>.cls-1{fill:none;}</style></defs><rect id="canvas" class="cls-1" width="24" height="24"/><path d="M16.61914,16.57275A6.49989,6.49989,0,1,1,12,5.5.75.75,0,0,0,12,4l-.02405.00122L11.96973,4l-.00989.002a7.94292,7.94292,0,0,0-3.64539.90485c-.01458.00653-.03064.00555-.04492.01306-.01007.00543-.01562.01508-.02533.02088A8.05146,8.05146,0,0,0,5.44989,7.42108C5.43811,7.436,5.421,7.444,5.41016,7.46c-.00751.01056-.00806.02326-.0149.03406a7.95,7.95,0,0,0-1.32055,3.47131A.70427.70427,0,0,0,4.0498,11.04h.00977c-.00085.006.00183.01129.0011.01721a7.72771,7.72771,0,0,0,.4527,3.73645c.0039.0119.00158.02405.00616.03589.00507.01385.015.02417.02075.03754a8.01672,8.01672,0,0,0,2.11609,3.06933c.01306.01331.0188.03107.03308.04352.01367.01263.03113.0166.04547.02789a7.97657,7.97657,0,0,0,3.267,1.72931c.024.009.04212.026.06745.03284.03521.00568.07019.00775.10516.01166A7.97,7.97,0,0,0,12,20a8.05178,8.05178,0,0,0,1.80133-.21039c.02954-.00366.059-.00476.08832-.00982.02051-.00513.0354-.01954.05511-.02625a7.90961,7.90961,0,0,0,3.29908-1.72144c.01141-.00927.02551-.01226.03643-.02233.01129-.0102.01563-.0243.02619-.035.12774-.11383.25763-.22461.37909-.34735a.74993.74993,0,0,0-1.06641-1.05469Z"/><path d="M12,8.14307a.75019.75019,0,0,0-.75.75V12a.75574.75574,0,0,0,.21973.53027L13.541,14.60205a.74992.74992,0,0,0,1.06054-1.06055L12.75,11.68945V8.89307A.75019.75019,0,0,0,12,8.14307Z"/><path d="M18.55957,7.41992a.74135.74135,0,0,0-1.04-.18017.74564.74564,0,0,0,.43067,1.35986.76838.76838,0,0,0,.42968-.12988A.75274.75274,0,0,0,18.55957,7.41992Z"/><path d="M15,6.23a.7166.7166,0,0,0,.33984.08984.76376.76376,0,0,0,.66993-.41015A.74919.74919,0,1,0,15,6.23Z"/><path d="M19.03027,13.8999A.74849.74849,0,0,0,18.5,15.2998a.57423.57423,0,0,0,.25977.04981.766.766,0,0,0,.71-.48H19.46A.74978.74978,0,0,0,19.03027,13.8999Z"/><path d="M19.93945,11.04v-.05029a.75066.75066,0,1,0-1.48925.18994V11.25H18.46a.74671.74671,0,0,0,.74024.66992.21808.21808,0,0,0,.08007-.01025.75483.75483,0,0,0,.66993-.83008C19.9502,11.06982,19.93945,11.06006,19.93945,11.04Z"/></svg>