<svg fill="currentColor" id="icons" xmlns="http://www.w3.org/2000/svg" viewBox="0 0 24 24"><title>01-06-close-2-s</title><rect id="canvas" width="24" height="24" style="fill:none"/><path d="M14.34082,9.65918a.74973.74973,0,0,0-1.06055,0L12,10.93945,10.71973,9.65918a.74992.74992,0,1,0-1.06055,1.06055L10.93945,12,9.65918,13.28027a.74992.74992,0,1,0,1.06055,1.06055L12,13.06055l1.28027,1.28027a.74992.74992,0,1,0,1.06055-1.06055L13.06055,12l1.28027-1.28027A.74973.74973,0,0,0,14.34082,9.65918Z"/><path d="M12,6a6,6,0,1,0,6,6A6.00657,6.00657,0,0,0,12,6Zm0,10.5A4.5,4.5,0,1,1,16.5,12,4.50491,4.50491,0,0,1,12,16.5Z"/></svg>