<svg fill="currentColor" xmlns="http://www.w3.org/2000/svg" viewBox="0 0 24 24"><title>01-06-close-2-m</title><g id="transparent_canvas"><rect id="canvas" width="24" height="24" style="fill:none"/></g><g id="icons"><path d="M13.06055,12l1.96972-1.96973a.74992.74992,0,0,0-1.06054-1.06054L12,10.93945,10.03027,8.96973a.74992.74992,0,0,0-1.06054,1.06054L10.93945,12,8.96973,13.96973a.74992.74992,0,1,0,1.06054,1.06054L12,13.06055l1.96973,1.96972a.74992.74992,0,0,0,1.06054-1.06054Z"/><path d="M12,20a8,8,0,1,1,8-8A8.00917,8.00917,0,0,1,12,20ZM12,5.5A6.5,6.5,0,1,0,18.5,12,6.50753,6.50753,0,0,0,12,5.5Z"/></g></svg>