<svg fill="currentColor" xmlns="http://www.w3.org/2000/svg" viewBox="0 0 24 24"><title>01-07-close-3-m</title><g id="transparent_canvas"><rect id="canvas" width="24" height="24" style="fill:none"/></g><g id="icons"><path d="M12,4a8,8,0,1,0,8,8A8.00917,8.00917,0,0,0,12,4Zm3.03027,9.96973a.74992.74992,0,1,1-1.06054,1.06054L12,13.06055l-1.96973,1.96972a.74992.74992,0,0,1-1.06054-1.06054L10.93945,12,8.96973,10.03027a.74992.74992,0,0,1,1.06054-1.06054L12,10.93945l1.96973-1.96972a.74992.74992,0,0,1,1.06054,1.06054L13.06055,12Z"/></g></svg>