<svg fill="currentColor" id="icons" xmlns="http://www.w3.org/2000/svg" viewBox="0 0 24 24"><title>01-07-close-3-s</title><rect id="canvas" width="24" height="24" style="fill:none"/><path d="M12,6a6,6,0,1,0,6,6A6.00657,6.00657,0,0,0,12,6Zm2.34082,7.28027a.74992.74992,0,1,1-1.06055,1.06055L12,13.06055l-1.28027,1.28027a.74992.74992,0,1,1-1.06055-1.06055L10.93945,12,9.65918,10.71973a.74992.74992,0,1,1,1.06055-1.06055L12,10.93945l1.28027-1.28027a.74992.74992,0,1,1,1.06055,1.06055L13.06055,12Z"/></svg>