<svg fill="currentColor" width="24" height="24" viewBox="0 0 24 24" xmlns="http://www.w3.org/2000/svg">
<circle cx="12" cy="12" r="7" fill="white"/>
<path fill-rule="evenodd" clip-rule="evenodd" d="M4 12C4 7.58172 7.58172 4 12 4C16.4162 4.00505 19.9949 7.58382 20 12C20 16.4183 16.4183 20 12 20C7.58172 20 4 16.4183 4 12ZM15.2265 14.6951C15.2957 14.4356 15.2209 14.1589 15.0303 13.9697L13.0605 12L15.0303 10.0303C15.3213 9.7371 15.3204 9.26377 15.0283 8.97166C14.7362 8.67955 14.2629 8.67869 13.9697 8.96973L12 10.9395L10.0303 8.96973C9.7371 8.67869 9.26377 8.67955 8.97166 8.97166C8.67955 9.26377 8.67869 9.7371 8.96973 10.0303L10.9395 12L8.96973 13.9697C8.67869 14.2629 8.67955 14.7362 8.97166 15.0283C9.26377 15.3204 9.7371 15.3213 10.0303 15.0303L12 13.0605L13.9697 15.0303C14.1589 15.2209 14.4356 15.2957 14.6951 15.2265C14.9546 15.1573 15.1573 14.9546 15.2265 14.6951Z" />
</svg>
