<svg fill="currentColor" width="24" height="24" viewBox="0 0 24 24" xmlns="http://www.w3.org/2000/svg">
<circle cx="12" cy="12" r="7" fill="white"/>
<path fill-rule="evenodd" clip-rule="evenodd" d="M12 20C7.58172 20 4 16.4183 4 12C4 7.58172 7.58172 4 12 4C16.4183 4 20 7.58172 20 12C19.9949 16.4162 16.4162 19.9949 12 20ZM12 5.5C8.41015 5.5 5.5 8.41015 5.5 12C5.5 15.5899 8.41015 18.5 12 18.5C15.5899 18.5 18.5 15.5899 18.5 12C18.4959 8.41187 15.5881 5.50415 12 5.5ZM15.0303 10.0303L13.0606 12L15.0303 13.9697C15.3213 14.2629 15.3204 14.7362 15.0283 15.0283C14.7362 15.3204 14.2629 15.3213 13.9697 15.0303L12 13.0605L10.0303 15.0303C9.84105 15.2209 9.56436 15.2957 9.30485 15.2265C9.04535 15.1573 8.84266 14.9546 8.77347 14.6951C8.70427 14.4356 8.77913 14.1589 8.96973 13.9697L10.9395 12L8.96973 10.0303C8.67869 9.7371 8.67955 9.26377 8.97166 8.97166C9.26377 8.67955 9.7371 8.67869 10.0303 8.96973L12 10.9395L13.9697 8.96973C14.2629 8.67869 14.7362 8.67955 15.0283 8.97166C15.3204 9.26377 15.3213 9.7371 15.0303 10.0303Z" />
</svg>
