<svg fill="currentColor" id="icons" xmlns="http://www.w3.org/2000/svg" viewBox="0 0 24 24"><title>07-01-code-m</title><rect id="canvas" width="24" height="24" style="fill:none"/><path d="M7.53027,8.47021a.74973.74973,0,0,0-1.06054,0l-3,3a.74973.74973,0,0,0,0,1.06055l3,3a.74992.74992,0,1,0,1.06054-1.06055L5.06055,12.00049,7.53027,9.53076A.74973.74973,0,0,0,7.53027,8.47021Z"/><path d="M17.53027,8.47021a.74992.74992,0,0,0-1.06054,1.06055l2.46972,2.46973-2.46972,2.46972a.74992.74992,0,1,0,1.06054,1.06055l3-3a.74973.74973,0,0,0,0-1.06055Z"/><path d="M13.14746,6.26514a.74588.74588,0,0,0-.88281.58838l-2,9.999a.74943.74943,0,0,0,.58789.88232.735.735,0,0,0,.14844.01465.75047.75047,0,0,0,.73437-.603l2-9.999A.74943.74943,0,0,0,13.14746,6.26514Z"/></svg>