<svg fill="currentColor" id="icons" xmlns="http://www.w3.org/2000/svg" viewBox="0 0 24 24"><title>07-02-code-terminal-m</title><rect id="canvas" width="24" height="24" style="fill:none"/><path d="M18.25,5H5.75A2.7528,2.7528,0,0,0,3,7.75v8.5A2.7528,2.7528,0,0,0,5.75,19h12.5A2.7528,2.7528,0,0,0,21,16.25V7.75A2.7528,2.7528,0,0,0,18.25,5ZM19.5,16.25a1.25116,1.25116,0,0,1-1.25,1.25H5.75A1.25116,1.25116,0,0,1,4.5,16.25V7.75A1.25116,1.25116,0,0,1,5.75,6.5h12.5A1.25116,1.25116,0,0,1,19.5,7.75Z"/><path d="M8.42773,8.52979A.74992.74992,0,0,0,7.36719,9.59033L9.77643,12,7.36719,14.40967a.74992.74992,0,1,0,1.06054,1.06054l2.93946-2.93994a.74972.74972,0,0,0,0-1.06054Z"/><path d="M16.10254,14.16553H13.02441a.75.75,0,0,0,0,1.5h3.07813a.75.75,0,0,0,0-1.5Z"/></svg>