<svg fill="currentColor" id="icons" xmlns="http://www.w3.org/2000/svg" viewBox="0 0 24 24"><title>04-01-coin-m</title><rect id="canvas" width="24" height="24" style="fill:none"/><path d="M12,20a8,8,0,1,0-8-8A8.00917,8.00917,0,0,0,12,20ZM12,5.5A6.5,6.5,0,1,1,5.5,12,6.50753,6.50753,0,0,1,12,5.5Z"/><path d="M11.46973,15.63721a.74973.74973,0,0,0,1.06054,0l3.10694-3.10694a.74972.74972,0,0,0,0-1.06054L12.53027,8.36279a.74972.74972,0,0,0-1.06054,0L8.36279,11.46973a.74972.74972,0,0,0,0,1.06054ZM12,9.95361,14.04639,12,12,14.04639,9.95361,12Z"/></svg>