<svg fill="currentColor" id="icons" xmlns="http://www.w3.org/2000/svg" viewBox="0 0 24 24"><title>04-02-coin-2-m</title><rect id="canvas" width="24" height="24" style="fill:none"/><path d="M9.52539,18.6001a6.41972,6.41972,0,0,0,2.47162-.49518c.00671.003.0108.009.01764.01178a6.43672,6.43672,0,0,0,2.24512.47949c.07226.00244.14453.00342.21679.00342a6.4412,6.4412,0,0,0,4.46092-1.7876,6.65287,6.65287,0,0,0,.30471-9.32226,6.47386,6.47386,0,0,0-7.11524-1.647.70683.70683,0,0,0-.09906.06379,6.42209,6.42209,0,0,0-2.5025-.50666,6.60053,6.60053,0,0,0,0,13.2002ZM14.6416,6.90283a4.95508,4.95508,0,0,1,3.499,1.60547,5.15433,5.15433,0,0,1-.23535,7.21533,4.90653,4.90653,0,0,1-3.59668,1.37354,4.96989,4.96989,0,0,1-.56707-.069,6.63119,6.63119,0,0,0-.00934-10.06488A4.82357,4.82357,0,0,1,14.6416,6.90283ZM9.52539,6.8999A5.10066,5.10066,0,1,1,4.5,12,5.06851,5.06851,0,0,1,9.52539,6.8999Z"/><path d="M8.99121,15.03418a.751.751,0,0,0,1.06836,0l2.47461-2.50732a.75038.75038,0,0,0,0-1.05372L10.05957,8.96582a.751.751,0,0,0-1.06836,0L6.51562,11.47314a.7504.7504,0,0,0,0,1.05372Zm.53418-4.47412L10.94629,12l-1.4209,1.43994L8.10352,12Z"/></svg>