<svg fill="currentColor" width="24" height="24" viewBox="0 0 24 24" xmlns="http://www.w3.org/2000/svg">
<title>01-01-column-disconnect-m</title>
<rect id="canvas" width="24" height="24" style="fill:none"/>
<path fill-rule="evenodd" clip-rule="evenodd" d="M8.3999 17.7252C8.39851 18.9395 7.41448 19.9235 6.2002 19.9249C4.98575 19.9237 4.00146 18.9397 4 17.7252V6.27501C4.00815 5.0658 4.99071 4.08984 6.19995 4.08984C7.40919 4.08984 8.39175 5.0658 8.3999 6.27501V17.7252ZM6.19995 5.58338C5.81661 5.58338 5.50458 5.8917 5.5 6.27501V17.7252C5.50458 18.1085 5.81661 18.4168 6.19995 18.4168C6.58329 18.4168 6.89532 18.1085 6.8999 17.7252V6.27501C6.89532 5.8917 6.58329 5.58338 6.19995 5.58338ZM14.2002 17.7252C14.1987 18.9397 13.2145 19.9237 12 19.9249C10.7855 19.9237 9.80126 18.9397 9.7998 17.7252V10.275C9.7998 9.05987 10.7849 8.07481 12 8.07481C13.2151 8.07481 14.2002 9.05987 14.2002 10.275V17.7252ZM12 9.57481C11.6133 9.57481 11.2998 9.8883 11.2998 10.275V17.7252C11.2998 18.1119 11.6133 18.4254 12 18.4254C12.3867 18.4254 12.7002 18.1119 12.7002 17.7252V10.275C12.7002 9.8883 12.3867 9.57481 12 9.57481ZM17.7998 12.0753C16.5855 12.0767 15.6015 13.0607 15.6001 14.275V17.7252C15.6083 18.9344 16.5908 19.9104 17.8001 19.9104C19.0093 19.9104 19.9918 18.9344 20 17.7252V14.275C19.9985 13.0606 19.0143 12.0765 17.7998 12.0753ZM18.5 17.7252C18.4954 18.1085 18.1834 18.4168 17.8001 18.4168C17.4167 18.4168 17.1047 18.1085 17.1001 17.7252V14.275C17.1047 13.8917 17.4167 13.5834 17.8001 13.5834C18.1834 13.5834 18.4954 13.8917 18.5 14.275V17.7252Z"/>
<path d="M21.7812 2.2207C21.6406 2.08002 21.4499 2.00098 21.251 2.00098C21.0521 2.00098 20.8613 2.08002 20.7207 2.2207L18.751 4.19043L16.7812 2.2207C16.5919 2.03063 16.3155 1.95618 16.0563 2.02544C15.7971 2.09471 15.5947 2.29715 15.5254 2.55632C15.4562 2.8155 15.5306 3.09193 15.7207 3.28125L17.6904 5.25098L15.7207 7.2207C15.5306 7.41002 15.4562 7.68646 15.5254 7.94563C15.5947 8.20481 15.7971 8.40724 16.0563 8.47651C16.3155 8.54577 16.5919 8.47132 16.7812 8.28125L18.751 6.31152L20.7207 8.28125C20.91 8.47132 21.1865 8.54577 21.4456 8.47651C21.7048 8.40724 21.9072 8.20481 21.9765 7.94563C22.0458 7.68646 21.9713 7.41002 21.7812 7.2207L19.8115 5.25098L21.7812 3.28125C21.9219 3.14064 22.001 2.94988 22.001 2.75098C22.001 2.55207 21.9219 2.36131 21.7812 2.2207Z"/>
</svg>
