<svg fill="currentColor" id="icons" xmlns="http://www.w3.org/2000/svg" viewBox="0 0 24 24"><title>09-01-columns-m</title><rect id="canvas" width="24" height="24" style="fill:none"/><path d="M18.24609,2.94873h-12.5a2.75311,2.75311,0,0,0-2.75,2.75V18.19922a2.7528,2.7528,0,0,0,2.75,2.75h12.5a2.75279,2.75279,0,0,0,2.75-2.75V5.69873A2.75311,2.75311,0,0,0,18.24609,2.94873Zm-13.75,15.25049V5.69873a1.25116,1.25116,0,0,1,1.25-1.25H11.25V19.44922H5.74609A1.25116,1.25116,0,0,1,4.49609,18.19922Zm15,0a1.25116,1.25116,0,0,1-1.25,1.25H12.75V4.44873h5.49609a1.25116,1.25116,0,0,1,1.25,1.25Z"/></svg>