<svg fill="currentColor" id="icons" xmlns="http://www.w3.org/2000/svg" viewBox="0 0 24 24"><title>01-01-column-m</title><rect id="canvas" width="24" height="24" style="fill:none"/><path d="M6.2002,19.9248a2.20223,2.20223,0,0,0,2.1997-2.1997V6.2749A2.2,2.2,0,0,0,4,6.2749V17.7251A2.20234,2.20234,0,0,0,6.2002,19.9248ZM5.5,6.2749a.7.7,0,0,1,1.3999,0V17.7251a.7.7,0,0,1-1.3999,0Z"/><path d="M12,19.9248a2.20234,2.20234,0,0,0,2.2002-2.1997V10.2749a2.2002,2.2002,0,0,0-4.4004,0v7.4502A2.20234,2.20234,0,0,0,12,19.9248Zm-.7002-9.6499a.7002.7002,0,0,1,1.4004,0v7.4502a.7002.7002,0,0,1-1.4004,0Z"/><path d="M17.7998,12.0752a2.20223,2.20223,0,0,0-2.1997,2.1997v3.4502a2.2,2.2,0,0,0,4.3999,0V14.2749A2.20234,2.20234,0,0,0,17.7998,12.0752ZM18.5,17.7251a.7.7,0,0,1-1.3999,0V14.2749a.7.7,0,0,1,1.3999,0Z"/></svg>