<svg fill="currentColor" id="icons" xmlns="http://www.w3.org/2000/svg" viewBox="0 0 24 24"><title>02-11-column-manage-m</title><rect id="canvas" width="24" height="24" style="fill:none"/><path d="M18.25,4h-1.5a2.73515,2.73515,0,0,0-2,.87445A2.73515,2.73515,0,0,0,12.75,4h-1.5a2.73515,2.73515,0,0,0-2,.87445A2.73515,2.73515,0,0,0,7.25,4H5.75A2.7528,2.7528,0,0,0,3,6.75v10.5A2.7528,2.7528,0,0,0,5.75,20h1.5a2.73515,2.73515,0,0,0,2-.87445A2.73515,2.73515,0,0,0,11.25,20h1.5a2.73515,2.73515,0,0,0,2-.87445A2.73515,2.73515,0,0,0,16.75,20h1.5A2.7528,2.7528,0,0,0,21,17.25V6.75A2.7528,2.7528,0,0,0,18.25,4Zm-5.5,14.5h-1.5A1.25116,1.25116,0,0,1,10,17.25a.75.75,0,0,0-1.5,0A1.25116,1.25116,0,0,1,7.25,18.5H5.75A1.25116,1.25116,0,0,1,4.5,17.25V6.75A1.25116,1.25116,0,0,1,5.75,5.5h1.5A1.25116,1.25116,0,0,1,8.5,6.75v4.39355a.75.75,0,0,0,1.5,0V6.75A1.25116,1.25116,0,0,1,11.25,5.5h1.5A1.25116,1.25116,0,0,1,14,6.75v10.5A1.25116,1.25116,0,0,1,12.75,18.5Zm6.75-1.25a1.25116,1.25116,0,0,1-1.25,1.25h-1.5a1.25116,1.25116,0,0,1-1.25-1.25V6.75A1.25116,1.25116,0,0,1,16.75,5.5h1.5A1.25116,1.25116,0,0,1,19.5,6.75Z"/><path d="M9.25,15.625a3.50424,3.50424,0,0,1-3.5-3.5.75.75,0,0,1,1.5,0,2,2,0,0,0,4,0,.75.75,0,0,1,1.5,0A3.50424,3.50424,0,0,1,9.25,15.625Z"/></svg>