<svg fill="currentColor" id="icons" xmlns="http://www.w3.org/2000/svg" viewBox="0 0 24 24"><title>05-02-comma-inc-m</title><rect id="canvas" width="24" height="24" style="fill:none"/><path d="M5.83,7.76245H5.82a2.82,2.82,0,0,0-2.82,2.82v6.36a2.82,2.82,0,0,0,2.82,2.82h.01a2.81993,2.81993,0,0,0,2.81994-2.82v-6.36A2.82,2.82,0,0,0,5.83,7.76245Zm1.31994,9.18a1.325,1.325,0,0,1-2.65,0v-6.36a1.32151,1.32151,0,0,1,1.32-1.32h.01a1.32146,1.32146,0,0,1,1.31994,1.32Z"/><path d="M14.38,13.0722a2.82,2.82,0,0,0-2.82,2.82V16.9425a2.82,2.82,0,1,0,5.64,0V15.89221A2.82,2.82,0,0,0,14.38,13.0722ZM15.7,16.9425a1.32,1.32,0,1,1-2.63995,0V15.89221a1.32,1.32,0,1,1,2.63995,0Z"/><circle cx="10.20001" cy="18.76251" r="1"/><path d="M20.25,6.9873h-2v-2a.75.75,0,0,0-1.5,0v2h-2a.75.75,0,0,0,0,1.5h2v2a.75.75,0,0,0,1.5,0v-2h2a.75.75,0,0,0,0-1.5Z"/></svg>