<svg fill="currentColor" id="icons" xmlns="http://www.w3.org/2000/svg" viewBox="0 0 24 24"><title>03-01-command-m</title><rect id="canvas" width="24" height="24" style="fill:none"/><path d="M17.18311,14.28174a2.7476,2.7476,0,0,0-1.31641.34717V9.37109a2.7476,2.7476,0,0,0,1.31641.34717A2.85945,2.85945,0,1,0,14.3667,6.85889V8.21826H9.6333V6.85889A2.817,2.817,0,1,0,6.81689,9.71826,2.7476,2.7476,0,0,0,8.1333,9.37109v5.25782a2.7476,2.7476,0,0,0-1.31641-.34717A2.85945,2.85945,0,1,0,9.6333,17.14111V15.78174h4.7334v1.35937a2.817,2.817,0,1,0,2.81641-2.85937Zm0-8.78174A1.35982,1.35982,0,1,1,15.8667,6.85889,1.33981,1.33981,0,0,1,17.18311,5.5ZM6.81689,8.21826A1.35982,1.35982,0,1,1,8.1333,6.85889,1.34023,1.34023,0,0,1,6.81689,8.21826Zm0,10.28174A1.35982,1.35982,0,1,1,8.1333,17.14111,1.33981,1.33981,0,0,1,6.81689,18.5ZM9.6333,14.28174V9.71826h4.7334v4.56348ZM17.18311,18.5A1.35981,1.35981,0,1,1,18.5,17.14111,1.3394,1.3394,0,0,1,17.18311,18.5Z"/></svg>