<svg fill="currentColor" id="icons" xmlns="http://www.w3.org/2000/svg" viewBox="0 0 24 24"><title>01-02-compass-m</title><rect id="canvas" width="24" height="24" style="fill:none"/><path d="M12,20a8,8,0,1,0-8-8A8.00917,8.00917,0,0,0,12,20ZM12,5.5A6.5,6.5,0,1,1,5.5,12,6.50753,6.50753,0,0,1,12,5.5Z"/><path d="M8.4707,16.2793a.74306.74306,0,0,0,.19532-.02588L14.24365,14.751a.75013.75013,0,0,0,.5293-.53077l1.481-5.55615a.7497.7497,0,0,0-.91993-.91748L9.77051,9.24512a.728.728,0,0,0-.13184.04638.757.757,0,0,0-.11914.06885A.744.744,0,0,0,9.23,9.769l-.00049.001v.00049l-.002.0083-.001.002L7.74609,15.33594a.74954.74954,0,0,0,.72461.94336Zm5.99951-6.74659-.82373,3.08985-2.251-2.26172Zm-4.12988,1.89405,2.21485,2.22558-3.02539.81495Z"/></svg>