<svg fill="currentColor" id="icons" xmlns="http://www.w3.org/2000/svg" viewBox="0 0 24 24"><title>01-01-company-m</title><rect id="canvas" width="24" height="24" style="fill:none"/><path d="M17.25,7.70215H16.1123V7.29883a2.75311,2.75311,0,0,0-2.75-2.75H10.6377a2.75311,2.75311,0,0,0-2.75,2.75v.40332H6.75a2.7528,2.7528,0,0,0-2.75,2.75v6.249a2.7528,2.7528,0,0,0,2.75,2.75h10.5a2.7528,2.7528,0,0,0,2.75-2.75v-6.249A2.7528,2.7528,0,0,0,17.25,7.70215ZM9.3877,7.29883a1.25116,1.25116,0,0,1,1.25-1.25h2.7246a1.25116,1.25116,0,0,1,1.25,1.25v.40332H9.3877ZM6.75,9.20215h10.5a1.23991,1.23991,0,0,1,1.22693,1.13605.6936.6936,0,0,0-.08093.03192l-4.80127,3.10009a.78013.78013,0,0,1-.4253.12452H10.83057a.78291.78291,0,0,1-.42578-.12452L5.604,10.37012a.68944.68944,0,0,0-.08093-.03192A1.23991,1.23991,0,0,1,6.75,9.20215Zm10.5,8.749H6.75a1.25116,1.25116,0,0,1-1.25-1.25v-4.6131L9.59082,14.73a2.27708,2.27708,0,0,0,1.23975.36475h2.33886A2.27424,2.27424,0,0,0,14.40869,14.73L18.5,12.088v4.61316A1.25116,1.25116,0,0,1,17.25,17.95117Z"/></svg>