<svg fill="currentColor" id="icons" xmlns="http://www.w3.org/2000/svg" viewBox="0 0 24 24"><title>01-05-computer-m</title><rect id="canvas" width="24" height="24" style="fill:none"/><path d="M14.48193,18.6499a2.75342,2.75342,0,0,0,2.75-2.75V10.06152a2.75342,2.75342,0,0,0-2.75-2.75H5.75a2.75311,2.75311,0,0,0-2.75,2.75V15.8999a2.75311,2.75311,0,0,0,2.75,2.75H9.36621V19.5H7.8501a.75.75,0,0,0,0,1.5h4.5498a.75.75,0,1,0,0-1.5H10.86621v-.8501ZM5.75,8.81152h8.73193a1.25116,1.25116,0,0,1,1.25,1.25V14.25H4.5V10.06152A1.25116,1.25116,0,0,1,5.75,8.81152ZM4.5,15.8999V15.75H15.73193v.1499a1.25115,1.25115,0,0,1-1.25,1.25H5.75A1.25116,1.25116,0,0,1,4.5,15.8999Z"/><path d="M18.25439,3H12.0957a2.7528,2.7528,0,0,0-2.75,2.75.75.75,0,0,0,1.5,0,1.25116,1.25116,0,0,1,1.25-1.25h6.15869a1.25116,1.25116,0,0,1,1.25,1.25v12.5a1.25116,1.25116,0,0,1-1.25,1.25H15.7998a.75.75,0,1,0,0,1.5h2.45459a2.75311,2.75311,0,0,0,2.75-2.75V5.75A2.75311,2.75311,0,0,0,18.25439,3Z"/></svg>