<svg fill="currentColor" id="icons" xmlns="http://www.w3.org/2000/svg" viewBox="0 0 24 24"><title>01-05-computer-s</title><rect id="canvas" width="24" height="24" style="fill:none"/><path d="M12.2207,16.5H9.32812a.75.75,0,1,0,0,1.5H12.2207a.75.75,0,0,0,0-1.5Z"/><path d="M15.94336,6h-3.916A2.0249,2.0249,0,0,0,10.00586,8.023a.75.75,0,0,0,1.5,0A.523.523,0,0,1,12.02734,7.5h3.916a.523.523,0,0,1,.52148.52295v7.9541a.523.523,0,0,1-.52148.52295H14.38281a.75.75,0,0,0,0,1.5h1.56055a2.0249,2.0249,0,0,0,2.02148-2.02295V8.023A2.0249,2.0249,0,0,0,15.94336,6Z"/><path d="M15.25,13.8501v-2.5a1.75212,1.75212,0,0,0-1.75-1.75H8a1.75212,1.75212,0,0,0-1.75,1.75v2.5A1.75213,1.75213,0,0,0,8,15.6001h5.5A1.75213,1.75213,0,0,0,15.25,13.8501Zm-1.5,0a.25048.25048,0,0,1-.25.25H8a.25048.25048,0,0,1-.25-.25v-2.5a.25048.25048,0,0,1,.25-.25h5.5a.25048.25048,0,0,1,.25.25Z"/></svg>