<svg width="24" height="24" viewBox="0 0 24 24" fill="none" xmlns="http://www.w3.org/2000/svg">
<path d="M1.99969 11.9995C1.99969 6.47666 6.47685 1.99951 11.9997 1.99951C17.5225 1.99951 21.9997 6.47666 21.9997 11.9995C21.9997 17.5224 17.5225 21.9995 11.9997 21.9995C6.47685 21.9995 1.99969 17.5224 1.99969 11.9995Z" fill="#76DC25"/>
<path d="M21.9997 12H11.9997V2C13.3129 1.99999 14.6132 2.25868 15.8265 2.76122C17.0397 3.26376 18.1422 4.00033 19.0708 4.92891C19.9994 5.85749 20.7359 6.95983 21.2385 8.17308C21.741 9.38634 21.9997 10.6868 21.9997 12Z" fill="#399903"/>
<path d="M11.9998 2L11.9998 12L1.99976 12C1.99975 10.6868 2.25843 9.38649 2.76097 8.17323C3.26351 6.95997 4.00008 5.8575 4.92867 4.92891C5.85725 4.00032 6.95959 3.26376 8.17284 2.76122C9.38609 2.25867 10.6865 2 11.9998 2Z" fill="#C5FF7E"/>
</svg>
