<svg fill="currentColor" id="icons" xmlns="http://www.w3.org/2000/svg" viewBox="0 0 24 24"><title>03-06-copy-clipboard-m</title><rect id="canvas" width="24" height="24" style="fill:none"/><path d="M11.33008,18.91992h-3.794A2.5272,2.5272,0,0,1,5,16.40723v-8.814A2.5272,2.5272,0,0,1,7.53613,5.08057h8.92774A2.5272,2.5272,0,0,1,19,7.59326v3.74561a.75.75,0,0,1-1.5,0V7.59326a1.02567,1.02567,0,0,0-1.03613-1.01269H7.53613A1.02567,1.02567,0,0,0,6.5,7.59326v8.814a1.02567,1.02567,0,0,0,1.03613,1.01269h3.794a.75.75,0,0,1,0,1.5Z"/><path d="M19.9502,16.28223h-2v-2a.75.75,0,0,0-1.5,0v2h-2a.75.75,0,0,0,0,1.5h2v2a.75.75,0,0,0,1.5,0v-2h2a.75.75,0,0,0,0-1.5Z"/></svg>