<svg fill="currentColor" id="icons" xmlns="http://www.w3.org/2000/svg" viewBox="0 0 24 24"><title>10-09-counter-m</title><rect id="canvas" width="24" height="24" style="fill:none"/><path d="M18.25,2.97559H14A2.73511,2.73511,0,0,0,12,3.85a2.73511,2.73511,0,0,0-2-.87445H5.75A2.75279,2.75279,0,0,0,3,5.72559V18.25977a2.7528,2.7528,0,0,0,2.75,2.75H10a2.73512,2.73512,0,0,0,2-.87446,2.73512,2.73512,0,0,0,2,.87446h4.25a2.7528,2.7528,0,0,0,2.75-2.75V5.72559A2.75279,2.75279,0,0,0,18.25,2.97559ZM19.5,18.25977a1.25116,1.25116,0,0,1-1.25,1.25H14a1.25116,1.25116,0,0,1-1.25-1.25.75.75,0,0,0-1.5,0,1.25116,1.25116,0,0,1-1.25,1.25H5.75a1.25116,1.25116,0,0,1-1.25-1.25V5.72559a1.25116,1.25116,0,0,1,1.25-1.25H10a1.25116,1.25116,0,0,1,1.25,1.25.75.75,0,0,0,1.5,0,1.25116,1.25116,0,0,1,1.25-1.25h4.25a1.25116,1.25116,0,0,1,1.25,1.25Z"/><path d="M12.02051,8.82617a.7502.7502,0,0,0-.75.75v1.0293a.75.75,0,0,0,1.5,0V9.57617A.7502.7502,0,0,0,12.02051,8.82617Z"/><path d="M12.02051,12.64941a.7502.7502,0,0,0-.75.75v1.03028a.75.75,0,0,0,1.5,0V13.39941A.7502.7502,0,0,0,12.02051,12.64941Z"/><path d="M7.875,9.00488a2.00229,2.00229,0,0,0-2,2v1.99219a2,2,0,0,0,4,0V11.00488A2.00229,2.00229,0,0,0,7.875,9.00488Zm.5,3.99219a.5.5,0,0,1-1,0V11.00488a.5.5,0,0,1,1,0Z"/><path d="M17.832,9.01367h-2.5a.75.75,0,0,0,0,1.5h1.22412l-1.87939,3.376a.75018.75018,0,0,0,1.31054.73047l2.5-4.49121A.75035.75035,0,0,0,17.832,9.01367Z"/></svg>