<svg fill="currentColor" id="icons" xmlns="http://www.w3.org/2000/svg" viewBox="0 0 24 24"><title>11-01-coupons-m</title><rect id="canvas" width="24" height="24" style="fill:none"/><path d="M18.98047,7.854a.74979.74979,0,0,0-1.06641,0,1.30665,1.30665,0,0,1-1.82129.02,1.32981,1.32981,0,0,1,.01953-1.86377.74974.74974,0,0,0,0-1.05468L14.58008,3.40625A1.35945,1.35945,0,0,0,13.60645,3a1.37384,1.37384,0,0,0-.98438.4126L3.49316,12.64014a1.39563,1.39563,0,0,0-.00586,1.95654L5.01953,16.146a.747.747,0,0,0,.53223.22265h.001A.748.748,0,0,0,6.085,16.147a1.29942,1.29942,0,0,1,.92774-.39062,1.24743,1.24743,0,0,1,.8916.37207,1.3298,1.3298,0,0,1-.01758,1.8623.74946.74946,0,0,0,.001,1.05371l1.53222,1.54932A1.35945,1.35945,0,0,0,10.39355,21a1.37384,1.37384,0,0,0,.98438-.4126l9.12891-9.22754a1.39563,1.39563,0,0,0,.00586-1.95654ZM10.4209,19.47217,9.40625,18.44629a2.829,2.829,0,0,0-.43555-3.37305,2.7355,2.7355,0,0,0-1.957-.81689h-.001A2.77461,2.77461,0,0,0,5.625,14.625l-.99219-1.00342L13.5791,4.52783l1.01465,1.0249a2.82732,2.82732,0,0,0,.43262,3.376,2.73639,2.73639,0,0,0,1.959.81738A2.78174,2.78174,0,0,0,18.376,9.376l.99121,1.00244Z"/><path d="M10.26465,11.30273A.74992.74992,0,1,0,9.2041,12.36328l2.57227,2.57422A.74992.74992,0,1,0,12.83691,13.877Z"/><path d="M12.36328,9.20215a.74992.74992,0,1,0-1.06055,1.06055L13.875,12.8374a.74992.74992,0,1,0,1.06055-1.06054Z"/></svg>