<svg fill="currentColor" id="icons" xmlns="http://www.w3.org/2000/svg" viewBox="0 0 24 24"><title>01-08-credit-card-lock-m</title><rect id="canvas" width="24" height="24" style="fill:none"/><path d="M18.25,4.67236H5.75A2.75311,2.75311,0,0,0,3,7.42236v9.15528a2.75311,2.75311,0,0,0,2.75,2.75h5.5a.75.75,0,0,0,0-1.5H5.75a1.25116,1.25116,0,0,1-1.25-1.25V10.5498h15v.73682a.75.75,0,0,0,1.5,0V7.42236A2.75311,2.75311,0,0,0,18.25,4.67236ZM4.5,9.0498V7.42236a1.25116,1.25116,0,0,1,1.25-1.25h12.5a1.25116,1.25116,0,0,1,1.25,1.25V9.0498Z"/><path d="M7.44824,13.80469a.75.75,0,1,0,0,1.5h2.61719a.75.75,0,0,0,0-1.5Z"/><path d="M20.05566,15.083H19.395V14.7666a2.21764,2.21764,0,0,0-4.43457,0V15.083H14.2998a.7502.7502,0,0,0-.75.75V20.1499a.7502.7502,0,0,0,.75.75h5.75586a.75019.75019,0,0,0,.75-.75V15.833A.75019.75019,0,0,0,20.05566,15.083Zm-3.59521-.31641a.71841.71841,0,0,1,1.43457,0V15.083H16.46045Zm2.84521,4.6333H15.0498V16.583h4.25586Z"/></svg>