<svg fill="currentColor" id="icons" xmlns="http://www.w3.org/2000/svg" viewBox="0 0 24 24"><title>01-05-credit-card-check-m</title><rect id="canvas" width="24" height="24" style="fill:none"/><path d="M18.25,4.67236H5.75A2.75311,2.75311,0,0,0,3,7.42236v9.15528a2.75311,2.75311,0,0,0,2.75,2.75h5.5a.75.75,0,0,0,0-1.5H5.75a1.25116,1.25116,0,0,1-1.25-1.25V10.5498h15v.73682a.75.75,0,0,0,1.5,0V7.42236A2.75311,2.75311,0,0,0,18.25,4.67236ZM4.5,9.0498V7.42236a1.25116,1.25116,0,0,1,1.25-1.25h12.5a1.25116,1.25116,0,0,1,1.25,1.25V9.0498Z"/><path d="M7.44824,13.80469a.75.75,0,1,0,0,1.5h2.61719a.75.75,0,0,0,0-1.5Z"/><path d="M19.23145,14.67725,16.49707,17.394,15.27734,16.231a.75013.75013,0,1,0-1.03515,1.08593l1.748,1.66651a.75012.75012,0,0,0,1.0459-.01074l3.252-3.231a.74992.74992,0,1,0-1.05664-1.06445Z"/></svg>