<svg fill="currentColor" id="icons" xmlns="http://www.w3.org/2000/svg" viewBox="0 0 24 24"><title>01-07-credit-card-expired-m</title><rect id="canvas" width="24" height="24" style="fill:none"/><path d="M18.25,4.67236H5.75A2.75311,2.75311,0,0,0,3,7.42236v9.15528a2.75311,2.75311,0,0,0,2.75,2.75h5.5a.75.75,0,0,0,0-1.5H5.75a1.25116,1.25116,0,0,1-1.25-1.25V10.5498h15v.73682a.75.75,0,0,0,1.5,0V7.42236A2.75311,2.75311,0,0,0,18.25,4.67236ZM4.5,9.0498V7.42236a1.25116,1.25116,0,0,1,1.25-1.25h12.5a1.25116,1.25116,0,0,1,1.25,1.25V9.0498Z"/><path d="M7.44824,13.80469a.75.75,0,1,0,0,1.5h2.61719a.75.75,0,0,0,0-1.5Z"/><path d="M17,13a4,4,0,1,0,4,4A4.00427,4.00427,0,0,0,17,13Zm0,6.5A2.5,2.5,0,1,1,19.5,17,2.50263,2.50263,0,0,1,17,19.5Z"/><path d="M17.75,16.68945V15.7998a.75.75,0,1,0-1.5,0V17a.75027.75027,0,0,0,.21973.53027l.7998.79981a.74992.74992,0,0,0,1.06055-1.06055Z"/></svg>