<svg fill="currentColor" id="icons" xmlns="http://www.w3.org/2000/svg" viewBox="0 0 24 24"><title>01-09-credit-card-percent-m</title><rect id="canvas" width="24" height="24" style="fill:none"/><path d="M18.25,4.67236H5.75A2.75311,2.75311,0,0,0,3,7.42236v9.15528a2.75311,2.75311,0,0,0,2.75,2.75h5.5a.75.75,0,0,0,0-1.5H5.75a1.25116,1.25116,0,0,1-1.25-1.25V10.5498h15v.73682a.75.75,0,0,0,1.5,0V7.42236A2.75311,2.75311,0,0,0,18.25,4.67236ZM4.5,9.0498V7.42236a1.25116,1.25116,0,0,1,1.25-1.25h12.5a1.25116,1.25116,0,0,1,1.25,1.25V9.0498Z"/><path d="M7.44824,13.80469a.75.75,0,1,0,0,1.5h2.61719a.75.75,0,0,0,0-1.5Z"/><path d="M19.21973,14.002l-5,5a.74992.74992,0,1,0,1.06054,1.06055l5-5A.74992.74992,0,0,0,19.21973,14.002Z"/><circle cx="15" cy="15" r="1"/><circle cx="19" cy="19" r="1"/></svg>