<svg fill="currentColor" id="icons" xmlns="http://www.w3.org/2000/svg" viewBox="0 0 24 24"><title>01-01-credit-card-m</title><rect id="canvas" width="24" height="24" style="fill:none"/><path d="M18.25,4.67236H5.75A2.75311,2.75311,0,0,0,3,7.42236v9.15528a2.75311,2.75311,0,0,0,2.75,2.75h12.5a2.75311,2.75311,0,0,0,2.75-2.75V7.42236A2.75311,2.75311,0,0,0,18.25,4.67236Zm-12.5,1.5h12.5a1.25116,1.25116,0,0,1,1.25,1.25V9.0498H4.5V7.42236A1.25116,1.25116,0,0,1,5.75,6.17236Zm12.5,11.65528H5.75a1.25116,1.25116,0,0,1-1.25-1.25V10.5498h15v6.02784A1.25116,1.25116,0,0,1,18.25,17.82764Z"/><path d="M10.06543,13.80469H7.44824a.75.75,0,1,0,0,1.5h2.61719a.75.75,0,0,0,0-1.5Z"/></svg>