<svg fill="currentColor" xmlns="http://www.w3.org/2000/svg" viewBox="0 0 24 24"><title>01-21-crop-m</title><g id="transparent_canvas"><rect id="canvas" width="24" height="24" style="fill:none"/></g><g id="icons"><path d="M19.25,15.4082H16.89307V8.88184a1.79,1.79,0,0,0-1.78614-1.79h-6.5V4.72363a.75.75,0,0,0-1.5,0V7.0918H4.75a.75.75,0,1,0,0,1.5H7.10693v6.52636a1.79,1.79,0,0,0,1.78614,1.79h6.5v2.36817a.75.75,0,1,0,1.5,0V16.9082H19.25a.75.75,0,0,0,0-1.5Zm-10.35693,0a.28833.28833,0,0,1-.28614-.29V8.5918h6.5a.28833.28833,0,0,1,.28614.29V15.4082Z"/></g></svg>