<svg fill="currentColor" id="icons" xmlns="http://www.w3.org/2000/svg" viewBox="0 0 24 24"><title>02-13-cup-m</title><rect id="canvas" width="24" height="24" style="fill:none"/><path d="M19.36035,6.19043H17.34961V5.17969a1.75212,1.75212,0,0,0-1.75-1.75H8.3999a1.75212,1.75212,0,0,0-1.75,1.75V6.19043H4.64014A1.67169,1.67169,0,0,0,2.97021,7.86035V9.7002A3.51373,3.51373,0,0,0,6.48,13.21H6.7821A4.74423,4.74423,0,0,0,11.25,16.87451v2.1958H9.24023a.75.75,0,0,0,0,1.5h5.51954a.75.75,0,0,0,0-1.5H12.75v-2.1958A4.744,4.744,0,0,0,17.21741,13.21h.30212A3.51424,3.51424,0,0,0,21.03027,9.7002V7.86035A1.67168,1.67168,0,0,0,19.36035,6.19043ZM4.47021,9.7002V7.86035a.17.17,0,0,1,.16993-.16992H6.6499V11.71H6.48A2.01178,2.01178,0,0,1,4.47021,9.7002Zm8.12989,5.68945H11.3999a3.25377,3.25377,0,0,1-3.25-3.25v-6.96a.25048.25048,0,0,1,.25-.25h7.19971a.25048.25048,0,0,1,.25.25v6.96A3.25366,3.25366,0,0,1,12.6001,15.38965ZM19.53027,9.7002A2.0126,2.0126,0,0,1,17.51953,11.71h-.16992V7.69043h2.01074a.17.17,0,0,1,.16992.16992Z"/></svg>