<svg fill="currentColor" id="icons" xmlns="http://www.w3.org/2000/svg" viewBox="0 0 24 24"><title>03-11-currency-conversion-m</title><rect id="canvas" width="24" height="24" style="fill:none"/><path d="M9.25,3H4.75A1.75213,1.75213,0,0,0,3,4.75v4.5A1.75213,1.75213,0,0,0,4.75,11h4.5A1.75213,1.75213,0,0,0,11,9.25V4.75A1.75213,1.75213,0,0,0,9.25,3ZM9.5,9.25a.25048.25048,0,0,1-.25.25H4.75a.25048.25048,0,0,1-.25-.25V4.75a.25048.25048,0,0,1,.25-.25h4.5a.25048.25048,0,0,1,.25.25Z"/><path d="M19.25,13h-4.5A1.75213,1.75213,0,0,0,13,14.75v4.5A1.75213,1.75213,0,0,0,14.75,21h4.5A1.75213,1.75213,0,0,0,21,19.25v-4.5A1.75213,1.75213,0,0,0,19.25,13Zm.25,6.25a.25048.25048,0,0,1-.25.25h-4.5a.25048.25048,0,0,1-.25-.25v-4.5a.25048.25048,0,0,1,.25-.25h4.5a.25048.25048,0,0,1,.25.25Z"/><path d="M8.40088,14.918a.75015.75015,0,1,0-1.10156,1.01855l.28985.31348H5.75A.25048.25048,0,0,1,5.5,16V13.22266a.75.75,0,1,0-1.5,0V16a1.75213,1.75213,0,0,0,1.75,1.75H7.595l-.28937.31689a.75.75,0,1,0,1.10743,1.01172l1.44043-1.57715a.75027.75027,0,0,0-.00293-1.01513Z"/><path d="M14.19922,7.58594l1.45019,1.56885A.75015.75015,0,0,0,16.751,8.13623l-.31195-.3374H18.25a.25048.25048,0,0,1,.25.25v2.77734a.75.75,0,0,0,1.5,0V8.04883a1.75212,1.75212,0,0,0-1.75-1.75H16.4765l.26764-.293a.75.75,0,0,0-1.10742-1.01172L14.19629,6.5708A.75026.75026,0,0,0,14.19922,7.58594Z"/></svg>