<?xml version="1.0" encoding="utf-8"?>
<!-- Generator: Adobe Illustrator 25.2.1, SVG Export Plug-In . SVG Version: 6.00 Build 0)  -->
<svg fill="currentColor" version="1.1" id="Warstwa_1" xmlns="http://www.w3.org/2000/svg" xmlns:xlink="http://www.w3.org/1999/xlink" x="0px" y="0px"
	 viewBox="0 0 26 26" style="enable-background:new 0 0 26 26;" xml:space="preserve">
<style type="text/css">
	.st0{fill:#6CDFD4;}
	.st1{fill:#13C2BC;}
</style>
<g>
	<path class="st0" d="M12.9927,14c2.0229,0.0029,3.8483-1.2134,4.6245-3.0814c0.7762-1.8681,0.3503-4.0198-1.0791-5.4513
		c-1.4293-1.4315-3.5804-1.8607-5.4496-1.0873S8.0001,6.9768,8,8.9997C8.001,11.7579,10.2345,13.9948,12.9927,14z"/>
	<path class="st1" d="M16.6396,15c2.9591,0.0029,5.3571,2.0515,5.3604,4.5794l0,0v0.7334c-0.0013,0.9313-0.8847,1.686-1.9749,1.6872
		l0,0H5.9749C4.8847,21.9989,4.0013,21.2442,4,20.3128l0,0v-0.7334C4.0034,17.0515,6.4013,15.0029,9.3604,15l0,0l0.0358,0.001
		c1.0499,0.632,2.2791,0.9965,3.5935,0.999c1.3021,0.0019,2.5457-0.357,3.615-0.9996L16.6396,15z"/>
</g>
</svg>
