<svg fill="currentColor" xmlns="http://www.w3.org/2000/svg" viewBox="0 0 82 82">
  <title>custom-block-trigger</title>
  <g id="Layer_2" data-name="Layer 2">
    <g id="Layer_1-2" data-name="Layer 1">
      <rect width="82" height="82" style="fill: #f2f2f2;opacity: 0"/>
      <path d="M58.9322,67.39025H30.9562a8.47493,8.47493,0,0,1-8.475-8.474v-27.976a8.47514,8.47514,0,0,1,8.475-8.475h27.976a8.47514,8.47514,0,0,1,8.475,8.475v27.976a8.47493,8.47493,0,0,1-8.475,8.474" style="fill: #d9eeff"/>
      <polygon points="65.652 40.945 68.317 40.945 65.652 40.945 62.987 40.945 65.652 40.945" style="fill: none;stroke: #0b68ff;stroke-linecap: round;stroke-linejoin: round;stroke-width: 2px"/>
      <polygon points="40.861 16.136 40.861 13.471 40.861 16.136 40.861 18.801 40.861 16.136" style="fill: none;stroke: #0b68ff;stroke-linecap: round;stroke-linejoin: round;stroke-width: 2px"/>
      <polygon points="40.861 65.719 40.861 63.054 40.861 65.719 40.861 68.384 40.861 65.719" style="fill: none;stroke: #0b68ff;stroke-linecap: round;stroke-linejoin: round;stroke-width: 2px"/>
      <polygon points="16.069 40.928 18.734 40.928 16.069 40.928 13.404 40.928 16.069 40.928" style="fill: none;stroke: #0b68ff;stroke-linecap: round;stroke-linejoin: round;stroke-width: 2px"/>
      <path d="M36.8922,51.524a2.91053,2.91053,0,0,1-4.366-2.521v-16.115a2.91086,2.91086,0,0,1,4.366-2.521l12.956,8.036a2.91614,2.91614,0,0,1,0,5.085l-12.956,8.036,8.128-5.042" style="fill: #fff"/>
      <path d="M36.8922,51.524a2.91053,2.91053,0,0,1-4.366-2.521v-16.115a2.91086,2.91086,0,0,1,4.366-2.521l12.956,8.036a2.91614,2.91614,0,0,1,0,5.085l-12.956,8.036,8.128-5.042" style="fill: none;stroke: #0b68ff;stroke-linecap: round;stroke-linejoin: round;stroke-width: 2px"/>
      <path d="M18.4815,33.97524v-8.7a6.55529,6.55529,0,0,1,6.555-6.555h9.174" style="fill: none;stroke: #0b68ff;stroke-linecap: round;stroke-linejoin: round;stroke-width: 2px"/>
      <path d="M34.2101,63.05435h-9.174a6.55507,6.55507,0,0,1-6.555-6.554v-8.932" style="fill: none;stroke: #0b68ff;stroke-linecap: round;stroke-linejoin: round;stroke-width: 2px"/>
      <path d="M62.816,47.56805v8.932a6.55444,6.55444,0,0,1-6.555,6.554H47.129" style="fill: none;stroke: #0b68ff;stroke-linecap: round;stroke-linejoin: round;stroke-width: 2px"/>
      <path d="M47.1295,18.72035h9.132a6.5553,6.5553,0,0,1,6.555,6.555v8.7" style="fill: none;stroke: #0b68ff;stroke-linecap: round;stroke-linejoin: round;stroke-width: 2px"/>
    </g>
  </g>
</svg>
