<?xml version="1.0" encoding="utf-8"?>
<!-- Generator: Adobe Illustrator 25.2.1, SVG Export Plug-In . SVG Version: 6.00 Build 0)  -->
<svg fill="currentColor" version="1.1" id="Warstwa_1" xmlns="http://www.w3.org/2000/svg"
	xmlns:xlink="http://www.w3.org/1999/xlink" x="0px" y="0px"
	viewBox="0 0 26 26" style="enable-background:new 0 0 26 26;" xml:space="preserve">
<g>
	<path d="M11.0884,4.38c1.8692-0.7734,4.0203-0.3442,5.4496,1.0873c1.4293,1.4315,1.8553,3.5832,1.0791,5.4513
		c-0.7762,1.8681-2.6016,3.0844-4.6245,3.0814C10.2345,13.9948,8.001,11.7579,8,8.9997C8.0001,6.9768,9.2192,5.1533,11.0884,4.38z
		 M15.4766,6.5271c-1.0005-1.002-2.5063-1.3025-3.8147-0.7611S9.5001,7.5838,9.5,8.9992c0.0007,1.9311,1.5644,3.4972,3.4948,3.5008
		c1.416,0.002,2.6938-0.8494,3.2371-2.157C16.7753,9.0354,16.4771,7.5292,15.4766,6.5271z M9.3962,15.001
		c1.0499,0.632,2.2791,0.9965,3.5935,0.999c1.3021,0.0019,2.5457-0.357,3.615-0.9996L16.6396,15
		c2.8812,0.0028,5.2305,1.9451,5.3552,4.3809L22,19.5794v0.7334c-0.0013,0.8848-0.7986,1.6101-1.813,1.6814L20.0251,22H5.9749
		c-1.0357-0.0011-1.8847-0.6822-1.9682-1.5489L4,20.3128v-0.7334c0.0033-2.4614,2.2768-4.4684,5.128-4.575L9.3962,15.001z
		 M16.975,16.511l-0.1746,0.0922c-1.1759,0.5881-2.4787,0.8988-3.8135,0.8968c-1.3352-0.0025-2.6273-0.3143-3.7926-0.899
		L9.026,16.513l-0.0574,0.0032c-1.9212,0.1571-3.3606,1.4309-3.4628,2.8993L5.5,19.5794l-0.0002,0.7279
		c0.0047,0.0485,0.1377,0.1594,0.3697,0.1865L5.9749,20.5l13.997,0.0009l0.11-0.003c0.2397-0.0168,0.3757-0.113,0.4097-0.164
		L20.5,20.3128l0.0005-0.6941l-0.0038-0.1611c-0.076-1.4843-1.519-2.7667-3.4108-2.9382L16.975,16.511z"/>
</g>
</svg>