<svg fill="currentColor" xmlns="http://www.w3.org/2000/svg" viewBox="0 0 82 82">
  <title>custom-block-action_2</title>
  <g id="Layer_2" data-name="Layer 2">
    <g id="Layer_1-2" data-name="Layer 1">
      <rect width="82" height="82" style="fill: #f2f2f2;opacity: 0"/>
      <path d="M58.9322,67.66722H30.9562a8.47493,8.47493,0,0,1-8.475-8.474v-27.976a8.47514,8.47514,0,0,1,8.475-8.475h27.976a8.47515,8.47515,0,0,1,8.475,8.475v27.976a8.47494,8.47494,0,0,1-8.475,8.474" style="fill: #d9eeff"/>
      <polygon points="40.861 16.159 40.861 13.494 40.861 16.159 40.861 18.824 40.861 16.159" style="fill: none;stroke: #0b68ff;stroke-linecap: round;stroke-linejoin: round;stroke-width: 2px"/>
      <polygon points="40.861 65.742 40.861 63.077 40.861 65.742 40.861 68.407 40.861 65.742" style="fill: none;stroke: #0b68ff;stroke-linecap: round;stroke-linejoin: round;stroke-width: 2px"/>
      <polygon points="65.652 40.95 68.317 40.95 65.652 40.95 62.987 40.95 65.652 40.95" style="fill: none;stroke: #0b68ff;stroke-linecap: round;stroke-linejoin: round;stroke-width: 2px"/>
      <polygon points="16.069 40.95 18.734 40.95 16.069 40.95 13.404 40.95 16.069 40.95" style="fill: none;stroke: #0b68ff;stroke-linecap: round;stroke-linejoin: round;stroke-width: 2px"/>
      <path d="M18.4815,33.99732v-8.7a6.55529,6.55529,0,0,1,6.555-6.555h9.174" style="fill: none;stroke: #0b68ff;stroke-linecap: round;stroke-linejoin: round;stroke-width: 2px"/>
      <path d="M34.2101,63.07642h-9.174a6.55508,6.55508,0,0,1-6.555-6.554v-8.932" style="fill: none;stroke: #0b68ff;stroke-linecap: round;stroke-linejoin: round;stroke-width: 2px"/>
      <path d="M62.816,47.59011v8.932a6.55443,6.55443,0,0,1-6.555,6.554H47.129" style="fill: none;stroke: #0b68ff;stroke-linecap: round;stroke-linejoin: round;stroke-width: 2px"/>
      <path d="M47.1295,18.74241h9.132a6.5553,6.5553,0,0,1,6.555,6.555v8.7" style="fill: none;stroke: #0b68ff;stroke-linecap: round;stroke-linejoin: round;stroke-width: 2px"/>
      <g>
        <g>
          <g>
            <path d="M54.46732,28.91091a1.15859,1.15859,0,0,0-1.25545-1.25554,28.70285,28.70285,0,0,0-17.14833,8.21674L31.114,40.82163l.61989.61989,8.94725,8.94725.61989.61989,4.94952-4.94951A28.70286,28.70286,0,0,0,54.46732,28.91091Z" style="fill: #fff;stroke: #0b68ff;stroke-linecap: round;stroke-linejoin: round;stroke-width: 2px"/>
            <path d="M30.93825,47.49761a3.69059,3.69059,0,0,0-3.69062,3.69063V54.8788h3.69056a3.6906,3.6906,0,0,0,.00006-7.38119Z" style="fill: #fff;stroke: #0b68ff;stroke-linecap: round;stroke-linejoin: round;stroke-width: 2px"/>
          </g>
          <circle cx="46.79784" cy="35.32484" r="2.02299" style="fill: #0b68ff"/>
        </g>
        <line x1="36.03865" y1="45.74625" x2="39.23897" y2="42.54594" style="fill: none;stroke: #0b68ff;stroke-linecap: round;stroke-linejoin: round;stroke-width: 2px"/>
      </g>
    </g>
  </g>
</svg>
