<svg fill="currentColor" xmlns="http://www.w3.org/2000/svg" viewBox="0 0 24 24"><title>01-17-cut-m</title><g id="transparent_canvas"><rect id="canvas" width="24" height="24" style="fill:none"/></g><g id="icons"><path d="M16.12744,13.49219A.7503.7503,0,0,0,15.05615,14.543l4.10547,4.18652a.7503.7503,0,0,0,1.07129-1.05078Z"/><path d="M20.23291,6.31934a.7503.7503,0,0,0-1.07129-1.05079l-5.5495,5.65925L8.67236,5.89062c-.00671-.00683-.01593-.00891-.02282-.01544A2.96444,2.96444,0,0,0,6.55078,5,3.043,3.043,0,1,0,9.43915,8.81567l3.12213,3.18372L9.4389,15.18347A2.99989,2.99989,0,1,0,6.55078,19a2.96519,2.96519,0,0,0,2.10529-.88068c.00488-.0047.01153-.006.01629-.01092ZM6.55078,9.585A1.54312,1.54312,0,1,1,8.04932,8.043,1.52192,1.52192,0,0,1,6.55078,9.585ZM5.05273,15.957a1.49894,1.49894,0,1,1,1.498,1.543A1.52192,1.52192,0,0,1,5.05273,15.957Z"/></g></svg>