<svg fill="currentColor" id="icons" xmlns="http://www.w3.org/2000/svg" viewBox="0 0 24 24"><title>02-12-dashboard-m</title><rect id="canvas" width="24" height="24" style="fill:none"/><path d="M12,6.06934a8.02573,8.02573,0,0,0-7.23566,11.444l.00586.01434.0091.02215a.74075.74075,0,0,0,.13855.19678c.01355.0141.02978.024.04437.03711a.7357.7357,0,0,0,.16809.11334.72725.72725,0,0,0,.0686.03034.747.747,0,0,0,.25592.05169l.0022.00043H8.27148a.75.75,0,0,0,0-1.5H5.95923A6.44483,6.44483,0,0,1,6.22,11.13013l.988.988a.74992.74992,0,0,0,1.06054-1.06054L7.06946,9.85852A6.478,6.478,0,0,1,11.25,7.61646v1.5476a.75.75,0,0,0,1.5,0V6.81934A.75019.75019,0,0,0,12,6.06934Z"/><path d="M18.12109,8.94135,19.73633,7.2959A.75.75,0,1,0,18.666,6.24512l-7.20118,7.33593a.75.75,0,1,0,1.07032,1.05079l4.53344-4.61829a6.49379,6.49379,0,0,1,.97217,6.46594H16.2002a.75.75,0,1,0,0,1.5h2.34472l.00665-.00134a.74538.74538,0,0,0,.24787-.05.72965.72965,0,0,0,.07593-.03357.73739.73739,0,0,0,.15429-.10406.72268.72268,0,0,0,.057-.04767.74018.74018,0,0,0,.13409-.193l.006-.01477.01275-.03112a8.01231,8.01231,0,0,0-1.11841-8.56256Z"/></svg>