<?xml version="1.0" encoding="utf-8"?>
<!-- Generator: Adobe Illustrator 25.2.1, SVG Export Plug-In . SVG Version: 6.00 Build 0)  -->
<svg fill="currentColor" version="1.1" id="Warstwa_1" xmlns="http://www.w3.org/2000/svg"
	xmlns:xlink="http://www.w3.org/1999/xlink" x="0px" y="0px"
	viewBox="0 0 26 26" style="enable-background:new 0 0 26 26;" xml:space="preserve">
<path d="M20,4h-8H6C4.8954,4,4,4.8954,4,6v14c0,1.1046,0.8954,2,2,2h6h8c1.1046,0,2-0.8954,2-2v-4v-1.5V6
	C22,4.8954,21.1046,4,20,4z M6,20.5l-0.0899-0.0081C5.6769,20.4496,5.5,20.2455,5.5,20V6l0.0081-0.0899
	C5.5504,5.6769,5.7545,5.5,6,5.5h6v9V16v4.5H6z M20.5,20l-0.0081,0.0899C20.4496,20.3231,20.2455,20.5,20,20.5h-6.5V16h7V20z
	 M13.5,14.5v-9H20l0.0899,0.0081C20.3231,5.5504,20.5,5.7545,20.5,6v8.5H13.5z"/>
</svg>