<?xml version="1.0" encoding="utf-8"?>
<!-- Generator: Adobe Illustrator 25.2.1, SVG Export Plug-In . SVG Version: 6.00 Build 0)  -->
<svg fill="currentColor" version="1.1" id="Warstwa_1" xmlns="http://www.w3.org/2000/svg" xmlns:xlink="http://www.w3.org/1999/xlink" x="0px" y="0px"
	 viewBox="0 0 26 26" style="enable-background:new 0 0 26 26;" xml:space="preserve">
<style type="text/css">
	.st0{fill:#8BCAFF;}
	.st1{fill:#0B68FF;}
	.st2{fill:#4DA7FE;}
</style>
<g>
	<path class="st0" d="M6,4h14c1.1046,0,2,0.8954,2,2v14c0,1.1046-0.8954,2-2,2H6c-1.1046,0-2-0.8954-2-2V6C4,4.8954,4.8954,4,6,4z"
		/>
	<path class="st1" d="M12,14.5h10V20c0,1.1046-0.8954,2-2,2h-8l0,0V14.5z"/>
	<path class="st2" d="M12,4h8c1.1046,0,2,0.8954,2,2v9l0,0H12V4z"/>
</g>
</svg>
