<svg fill="currentColor" id="icons" xmlns="http://www.w3.org/2000/svg" viewBox="0 0 24 24"><title>02-05-database-time-m</title><rect id="canvas" width="24" height="24" style="fill:none"/><path d="M16.84961,13.2002a4,4,0,1,0,4,4A4.00426,4.00426,0,0,0,16.84961,13.2002Zm0,6.5a2.5,2.5,0,1,1,2.5-2.5A2.50263,2.50263,0,0,1,16.84961,19.7002Z"/><path d="M17.59961,16.88965V16.1499a.75.75,0,1,0-1.5,0v1.0503a.75029.75029,0,0,0,.21973.53027l.625.625a.74992.74992,0,0,0,1.06054-1.06055Z"/><path d="M11.4248,16.03955l.0254.00049a.75.75,0,0,0,.02539-1.49951c-3.49024-.11811-5.928-1.38636-5.96973-2.46344V10.4364A11.77718,11.77718,0,0,0,12,12.0498a11.76388,11.76388,0,0,0,6.502-1.61871V11.4502a.75.75,0,1,0,1.5,0V8c0-2.28027-3.43847-4-7.998-4s-7.998,1.71973-7.998,4v.03046c-.00018.00683-.00391.01251-.00391.01934,0,.014.00367.02741.00391.04139v3.93829c-.00018.00684-.00391.01251-.00391.01935,0,.01465.0036.02868.00391.04327V16c0,2.1665,3.12012,3.84473,7.41894,3.99023l.0254.00049a.75.75,0,0,0,.02539-1.49951C7.958,18.37207,5.50586,17.08252,5.50586,16V14.43414A11.35291,11.35291,0,0,0,11.4248,16.03955ZM12.00391,5.5c4.02636,0,6.498,1.45605,6.498,2.5v.03046c-.00018.00683-.0039.01251-.0039.01934,0,1.044-2.47168,2.5-6.498,2.5-3.99219,0-6.45258-1.43084-6.49414-2.47277V8C5.50586,6.95605,7.97754,5.5,12.00391,5.5Z"/></svg>