<svg fill="currentColor" id="icons" xmlns="http://www.w3.org/2000/svg" viewBox="0 0 24 24"><title>02-08-database-download-m</title><rect id="canvas" width="24" height="24" style="fill:none"/><path d="M11.4248,16.04h.02588a.75022.75022,0,0,0,.02491-1.5c-3.49024-.11713-5.928-1.38587-5.96973-2.46295V10.4364A11.77718,11.77718,0,0,0,12,12.0498a11.76388,11.76388,0,0,0,6.502-1.61871V11.4502a.75.75,0,1,0,1.5,0V8c0-2.28027-3.43847-4-7.998-4s-7.998,1.71973-7.998,4v.03046c-.00018.00683-.00391.01251-.00391.01934,0,.014.00367.02741.00391.04139v3.93829c-.00018.00684-.00391.01251-.00391.01935,0,.01465.0036.02868.00391.04327V16c0,2.166,3.12012,3.84375,7.41894,3.99023h.02588a.75022.75022,0,0,0,.02491-1.5C7.95752,18.37109,5.50586,17.082,5.50586,16V14.43457A11.35533,11.35533,0,0,0,11.4248,16.04ZM12.00391,5.5c4.02588,0,6.498,1.45605,6.498,2.5v.03046c-.00018.00683-.0039.01251-.0039.01934,0,1.044-2.47217,2.5-6.498,2.5-3.9917,0-6.45258-1.43084-6.49414-2.47277V8C5.50586,6.95605,7.978,5.5,12.00391,5.5Z"/><path d="M19.71973,14.96973,17.25,17.43945l-2.46973-2.46972a.74992.74992,0,1,0-1.06054,1.06054l3,3a.74971.74971,0,0,0,1.06054,0l3-3a.74992.74992,0,1,0-1.06054-1.06054Z"/></svg>