<svg fill="currentColor" id="icons" xmlns="http://www.w3.org/2000/svg" viewBox="0 0 24 24"><title>02-06-database-thunder-m</title><rect id="canvas" width="24" height="24" style="fill:none"/><path d="M18.90375,17.62683a.73706.73706,0,0,0-.189-.38135,2189.20176,2189.20176,0,0,1-.16784-.14685l-1.8288-1.045L18.083,14.49365a.74987.74987,0,1,0-1.12891-.9873l-1.96875,2.25a.69655.69655,0,0,0-.0365.06378.70119.70119,0,0,0-.05041.0578.69568.69568,0,0,0-.02381.072.73678.73678,0,0,0,.1352.8045.20778.20778,0,0,0,.11682.10224c.019.0133.03058.033.05108.04474l1.8288,1.045L15.6416,19.50635a.74987.74987,0,1,0,1.12891.9873l1.96875-2.25a.69663.69663,0,0,0,.04645-.08117c.01117-.01636.03045-.02295.04046-.04041a.70648.70648,0,0,0,.02381-.072.74811.74811,0,0,0,.06439-.28088A.72771.72771,0,0,0,18.90375,17.62683Z"/><path d="M12.00391,4c-4.55957,0-7.998,1.71973-7.998,4v.03046c-.00018.00683-.00391.01251-.00391.01934,0,.014.00367.02741.00391.04139v3.93829c-.00018.00684-.00391.01251-.00391.01935,0,.01465.0036.02868.00391.04327V16c0,2.1665,3.12012,3.84473,7.41894,3.99023l.0254.00049a.75.75,0,0,0,.02539-1.49951C7.958,18.37207,5.50586,17.08252,5.50586,16V14.43414a11.35291,11.35291,0,0,0,5.91894,1.60541l.0254.00049a.75.75,0,0,0,.02539-1.49951c-3.49024-.11811-5.928-1.38636-5.96973-2.46344V10.4364A11.77718,11.77718,0,0,0,12,12.0498a11.76388,11.76388,0,0,0,6.502-1.61871V11.4502a.75.75,0,1,0,1.5,0V8C20.002,5.71973,16.56348,4,12.00391,4Zm6.49414,4.0498c0,1.044-2.47168,2.5-6.498,2.5-3.99219,0-6.45258-1.43084-6.49414-2.47277V8c0-1.04395,2.47168-2.5,6.498-2.5S18.502,6.95605,18.502,8v.03046C18.50177,8.03729,18.49805,8.043,18.49805,8.0498Z"/></svg>