<svg fill="currentColor" id="icons" xmlns="http://www.w3.org/2000/svg" viewBox="0 0 24 24"><title>02-01-database-m</title><rect id="canvas" width="24" height="24" style="fill:none"/><path d="M4.002,12.04883c0,.014.00367.0274.00391.04138V16c0,2.28027,3.43848,4,7.998,4s7.998-1.71973,7.998-4V8c0-2.28027-3.43847-4-7.998-4s-7.998,1.71973-7.998,4v.03046c-.00018.00683-.00391.01251-.00391.01934,0,.014.00367.02741.00391.04139v3.93829C4.00568,12.03632,4.002,12.042,4.002,12.04883Zm14.5-.01935c-.00018.00684-.0039.01251-.0039.01935,0,1.04394-2.47217,2.5-6.498,2.5-3.9917,0-6.45258-1.43085-6.49414-2.47278V10.4364A11.77718,11.77718,0,0,0,12,12.0498a11.76388,11.76388,0,0,0,6.502-1.61871ZM12.00391,18.5c-4.02588,0-6.498-1.45605-6.498-2.5V14.43542A11.77718,11.77718,0,0,0,12,16.04883a11.76379,11.76379,0,0,0,6.502-1.61872V16C18.502,17.044,16.02979,18.5,12.00391,18.5Zm0-13c4.02588,0,6.498,1.45605,6.498,2.5v.03046c-.00018.00683-.0039.01251-.0039.01934,0,1.044-2.47217,2.5-6.498,2.5-3.9917,0-6.45258-1.43084-6.49414-2.47277V8C5.50586,6.95605,7.978,5.5,12.00391,5.5Z"/></svg>