<svg fill="currentColor" id="icons" xmlns="http://www.w3.org/2000/svg" viewBox="0 0 24 24"><title>02-03-database-add-m</title><rect id="canvas" width="24" height="24" style="fill:none"/><path d="M19.9502,16.25h-2v-2a.75.75,0,0,0-1.5,0v2h-2a.75.75,0,0,0,0,1.5h2v2a.75.75,0,0,0,1.5,0v-2h2a.75.75,0,0,0,0-1.5Z"/><path d="M11.4248,16.03955l.02588.00049a.75.75,0,0,0,.02491-1.49951c-3.49024-.11811-5.928-1.38636-5.96973-2.46344V10.4364A11.77718,11.77718,0,0,0,12,12.0498a11.76388,11.76388,0,0,0,6.502-1.61871V11.4502a.75.75,0,1,0,1.5,0V8c0-2.28027-3.43847-4-7.998-4s-7.998,1.71973-7.998,4v.03046c-.00018.00683-.00391.01251-.00391.01934,0,.014.00367.02741.00391.04139v3.93829c-.00018.00684-.00391.01251-.00391.01935,0,.01465.0036.02868.00391.04327V16c0,2.1665,3.12012,3.84473,7.41894,3.99023l.02588.00049a.75.75,0,0,0,.02491-1.49951C7.95752,18.37207,5.50586,17.08252,5.50586,16V14.43427A11.35294,11.35294,0,0,0,11.4248,16.03955ZM12.00391,5.5c4.02588,0,6.498,1.45605,6.498,2.5v.03046c-.00018.00683-.0039.01251-.0039.01934,0,1.044-2.47217,2.5-6.498,2.5-3.9917,0-6.45258-1.43084-6.49414-2.47277V8C5.50586,6.95605,7.978,5.5,12.00391,5.5Z"/></svg>