<svg width="24" height="24" viewBox="0 0 24 24" fill="none" xmlns="http://www.w3.org/2000/svg">
<path d="M12 22C17.5228 22 22 17.5228 22 12C22 6.47715 17.5228 2 12 2C6.47715 2 2 6.47715 2 12C2 17.5228 6.47715 22 12 22Z" fill="#B5BDC3"/>
<path d="M12 2V12H22C22 10.6868 21.7413 9.38649 21.2388 8.17323C20.7362 6.95997 19.9997 5.8575 19.0711 4.92891C18.1425 4.00032 17.0402 3.26376 15.8269 2.76122C14.6137 2.25867 13.3132 2 12 2Z" fill="#6A7580"/>
<path d="M22 12L12 12L12 22C13.3132 22 14.6135 21.7413 15.8268 21.2388C17.04 20.7362 18.1425 19.9997 19.0711 19.0711C19.9997 18.1425 20.7362 17.0402 21.2388 15.8269C21.7413 14.6137 22 13.3132 22 12Z" fill="#DBE0E3"/>
</svg>
