<svg fill="currentColor" xmlns="http://www.w3.org/2000/svg" viewBox="0 0 24 24"><title>01-23-delete-m</title><g id="transparent_canvas"><rect id="canvas" width="24" height="24" style="fill:none"/></g><g id="icons"><path d="M18.38379,5H7.70361A2.717,2.717,0,0,0,5.23,6.61914l-1.89746,4.2627a2.753,2.753,0,0,0,0,2.23632L5.23,17.38086A2.717,2.717,0,0,0,7.70361,19H18.38379a2.73527,2.73527,0,0,0,2.71387-2.75V7.75A2.73527,2.73527,0,0,0,18.38379,5Zm1.21387,11.25a1.23385,1.23385,0,0,1-1.21387,1.25H7.70361a1.21593,1.21593,0,0,1-1.10351-.72852L4.70264,12.50879a1.256,1.256,0,0,1,0-1.01758L6.6001,7.22852A1.21593,1.21593,0,0,1,7.70361,6.5H18.38379a1.23385,1.23385,0,0,1,1.21387,1.25Z"/><path d="M16.03027,8.96973a.74972.74972,0,0,0-1.06054,0L13,10.93945,11.03027,8.96973a.74992.74992,0,0,0-1.06054,1.06054L11.93945,12,9.96973,13.96973a.74992.74992,0,1,0,1.06054,1.06054L13,13.06055l1.96973,1.96972a.74992.74992,0,0,0,1.06054-1.06054L14.06055,12l1.96972-1.96973A.74972.74972,0,0,0,16.03027,8.96973Z"/></g></svg>