<svg fill="currentColor" id="icons" xmlns="http://www.w3.org/2000/svg" viewBox="0 0 24 24"><title>01-04-desktop-m</title><rect id="canvas" width="24" height="24" style="fill:none"/><path d="M18.25,4H5.75A2.7528,2.7528,0,0,0,3,6.75v7.5A2.7528,2.7528,0,0,0,5.75,17H9.3252v1.5H7.75a.75.75,0,0,0,0,1.5h8.5a.75.75,0,0,0,0-1.5H14.6748V17H18.25A2.7528,2.7528,0,0,0,21,14.25V6.75A2.7528,2.7528,0,0,0,18.25,4ZM5.75,5.5h12.5A1.25116,1.25116,0,0,1,19.5,6.75v5.5H4.5V6.75A1.25116,1.25116,0,0,1,5.75,5.5Zm7.4248,13H10.8252V17h2.3496Zm5.0752-3H5.75A1.25116,1.25116,0,0,1,4.5,14.25v-.5h15v.5A1.25116,1.25116,0,0,1,18.25,15.5Z"/></svg>