<svg fill="currentColor" id="icons" xmlns="http://www.w3.org/2000/svg" viewBox="0 0 24 24"><title>01-04-desktop-s</title><rect id="canvas" width="24" height="24" style="fill:none"/><path d="M15.25,6H8.75A2.7528,2.7528,0,0,0,6,8.75v4A2.7528,2.7528,0,0,0,8.75,15.5h2.5v1H9.2959a.75.75,0,0,0,0,1.5h5.4082a.75.75,0,0,0,0-1.5H12.75v-1h2.5A2.7528,2.7528,0,0,0,18,12.75v-4A2.7528,2.7528,0,0,0,15.25,6Zm1.25,6.75A1.25116,1.25116,0,0,1,15.25,14H8.75A1.25116,1.25116,0,0,1,7.5,12.75v-4A1.25116,1.25116,0,0,1,8.75,7.5h6.5A1.25116,1.25116,0,0,1,16.5,8.75Z"/></svg>