<svg fill="currentColor" id="icons" xmlns="http://www.w3.org/2000/svg" viewBox="0 0 24 24"><title>10-24-dialpad-m</title><rect id="canvas" width="24" height="24" style="fill:none"/><path d="M6.25,4A2.25012,2.25012,0,1,0,8.5,6.25,2.25278,2.25278,0,0,0,6.25,4Zm.58008,2.72559A.75014.75014,0,1,1,7,6.25.748.748,0,0,1,6.83008,6.72559Z"/><path d="M6.25,9.75A2.25,2.25,0,1,0,8.5,12,2.25278,2.25278,0,0,0,6.25,9.75Zm0,3A.75.75,0,1,1,7,12,.75113.75113,0,0,1,6.25,12.75Z"/><path d="M6.25,15.5A2.25,2.25,0,1,0,8.5,17.75,2.25278,2.25278,0,0,0,6.25,15.5Zm0,3A.75.75,0,1,1,7,17.75.75113.75113,0,0,1,6.25,18.5Z"/><path d="M12,4a2.25,2.25,0,1,0,2.25,2.25A2.25278,2.25278,0,0,0,12,4Zm0,3a.75.75,0,1,1,.75-.75A.75113.75113,0,0,1,12,7Z"/><path d="M12,9.75A2.25,2.25,0,1,0,14.25,12,2.25278,2.25278,0,0,0,12,9.75Zm0,3a.75.75,0,1,1,.75-.75A.75113.75113,0,0,1,12,12.75Z"/><path d="M12,15.5a2.25,2.25,0,1,0,2.25,2.25A2.25278,2.25278,0,0,0,12,15.5Zm0,3a.75.75,0,1,1,.75-.75A.75113.75113,0,0,1,12,18.5Z"/><path d="M17.75,4A2.25,2.25,0,1,0,20,6.25,2.25278,2.25278,0,0,0,17.75,4Zm0,3a.75.75,0,1,1,.75-.75A.75113.75113,0,0,1,17.75,7Z"/><path d="M17.75,9.75A2.25,2.25,0,1,0,20,12,2.25278,2.25278,0,0,0,17.75,9.75Zm0,3A.75.75,0,1,1,18.5,12,.75113.75113,0,0,1,17.75,12.75Z"/><path d="M17.75,15.5A2.25,2.25,0,1,0,20,17.75,2.25278,2.25278,0,0,0,17.75,15.5Zm0,3a.75.75,0,1,1,.75-.75A.75113.75113,0,0,1,17.75,18.5Z"/></svg>