<svg fill="currentColor" id="icons" xmlns="http://www.w3.org/2000/svg" viewBox="0 0 24 24"><title>01-13-direction-up-m</title><rect id="canvas" width="24" height="24" style="fill:none"/><path d="M16.63232,5.89062a.75221.75221,0,0,0-1.05371,0l-4.145,4.0879a.75028.75028,0,0,0,1.05371,1.06836L15.35547,8.2182v9.357a.75.75,0,0,0,1.5,0V8.21826l2.86767,2.82862a.75029.75029,0,0,0,1.05372-1.06836Z"/><path d="M6,19.25A2.25,2.25,0,1,1,8.25,17,2.25278,2.25278,0,0,1,6,19.25Zm0-3a.75.75,0,1,0,.75.75A.75113.75113,0,0,0,6,16.25Z"/><path d="M6,9.25A2.25,2.25,0,1,1,8.25,7,2.25278,2.25278,0,0,1,6,9.25Zm0-3A.75.75,0,1,0,6.75,7,.75113.75113,0,0,0,6,6.25Z"/><path d="M6,14.25A2.25,2.25,0,1,1,8.25,12,2.25278,2.25278,0,0,1,6,14.25Zm0-3a.75.75,0,1,0,.75.75A.75113.75113,0,0,0,6,11.25Z"/></svg>