<svg fill="currentColor" id="icons" xmlns="http://www.w3.org/2000/svg" viewBox="0 0 24 24"><title>01-14-direction-right-m</title><rect id="canvas" width="24" height="24" style="fill:none"/><path d="M14.39648,11.05957a.74994.74994,0,0,0-1.06836,1.05273l2.82868,2.86817H6.7998a.75.75,0,0,0,0,1.5h9.357l-2.82868,2.86816a.74994.74994,0,1,0,1.06836,1.05274l4.0879-4.14453a.74921.74921,0,0,0,0-1.05274Z"/><path d="M7.375,7.875a2.25,2.25,0,1,1,2.25-2.25A2.25309,2.25309,0,0,1,7.375,7.875Zm0-3a.75.75,0,1,0,.75.75A.75144.75144,0,0,0,7.375,4.875Z"/><path d="M17.375,7.875a2.25,2.25,0,1,1,2.25-2.25A2.25309,2.25309,0,0,1,17.375,7.875Zm0-3a.75.75,0,1,0,.75.75A.75144.75144,0,0,0,17.375,4.875Z"/><path d="M12.375,7.875a2.25,2.25,0,1,1,2.25-2.25A2.25309,2.25309,0,0,1,12.375,7.875Zm0-3a.75.75,0,1,0,.75.75A.75144.75144,0,0,0,12.375,4.875Z"/></svg>