<svg fill="currentColor" id="icons" xmlns="http://www.w3.org/2000/svg" viewBox="0 0 24 24"><title>01-15-direction-down-m</title><rect id="canvas" width="24" height="24" style="fill:none"/><path d="M19.72363,12.95312,16.85547,15.7818V6.4248a.75.75,0,0,0-1.5,0v9.357L12.4873,12.95312a.74994.74994,0,0,0-1.05273,1.06836l4.14453,4.0879a.7498.7498,0,0,0,1.05274,0l4.14453-4.0879a.74994.74994,0,0,0-1.05274-1.06836Z"/><path d="M6,19.25A2.25,2.25,0,1,1,8.25,17,2.25278,2.25278,0,0,1,6,19.25Zm0-3a.75.75,0,1,0,.75.75A.75113.75113,0,0,0,6,16.25Z"/><path d="M6,9.25A2.25,2.25,0,1,1,8.25,7,2.25278,2.25278,0,0,1,6,9.25Zm0-3A.75.75,0,1,0,6.75,7,.75113.75113,0,0,0,6,6.25Z"/><path d="M6,14.25A2.25,2.25,0,1,1,8.25,12,2.25278,2.25278,0,0,1,6,14.25Zm0-3a.75.75,0,1,0,.75.75A.75113.75113,0,0,0,6,11.25Z"/></svg>