<svg fill="currentColor" id="icons" xmlns="http://www.w3.org/2000/svg" viewBox="0 0 24 24"><title>01-05-direction-m</title><rect id="canvas" width="24" height="24" style="fill:none"/><path d="M21,18.28088v-.00012l-.00165-.00805a.749.749,0,0,0-.21881-.52247l-1.96706-1.96753A.74992.74992,0,0,0,17.752,16.84326l.68854.68872-8.04108.00318h-.00195a2.20581,2.20581,0,0,1,.001-4.41162h4.93847A3.71612,3.71612,0,0,0,17.958,6.78418a3.678,3.678,0,0,0-2.61914-1.08643h-.00879l-5.49945.01136a3.45993,3.45993,0,1,0,.00061,1.5L15.334,7.19775h.00391A2.20578,2.20578,0,0,1,17.542,9.42627a2.21011,2.21011,0,0,1-2.20508,2.19727H10.39844a3.70581,3.70581,0,0,0-.001,7.41162h.00195l8.04-.00318-.68744.68775a.74991.74991,0,1,0,1.06053,1.06054l1.96779-1.96875.00281-.00421A.75435.75435,0,0,0,21,18.28119ZM6.459,8.42041A1.96021,1.96021,0,1,1,8.418,6.46,1.962,1.962,0,0,1,6.459,8.42041Z"/></svg>