<svg fill="currentColor" id="icons" xmlns="http://www.w3.org/2000/svg" viewBox="0 0 24 24"><title>01-06-direction-arrow-m</title><rect id="canvas" width="24" height="24" style="fill:none"/><path d="M12.648,4.02588a8.0004,8.0004,0,0,0-1.2959,15.94824q.32007.02564.63867.02539A7.99994,7.99994,0,0,0,12.648,4.02588ZM16.5957,16.5957A6.4993,6.4993,0,1,1,12.00977,5.50049q.25928,0,.52.02051A6.4993,6.4993,0,0,1,16.5957,16.5957Z"/><path d="M14.562,7.80664l-.001.00049-7.20362,3.002a1.12533,1.12533,0,0,0,.13819,2.124l2.34179.63671.645,2.34864a1.11175,1.11175,0,0,0,1.01367.82422c.02491.00146.04981.00244.07471.00244a1.11031,1.11031,0,0,0,1.03467-.69287l3-7.20557a.79712.79712,0,0,0-1.04346-1.04Zm-2.92187,6.66211-.42823-1.55859a1.02789,1.02789,0,0,0-.71777-.71631l-1.5498-.42139L13.564,9.84766Z"/></svg>