<svg fill="currentColor" id="icons" xmlns="http://www.w3.org/2000/svg" viewBox="0 0 24 24"><title>03-02-discount-2-m</title><rect id="canvas" width="24" height="24" style="fill:none"/><circle cx="13.90332" cy="13.90601" r="1"/><circle cx="10.09973" cy="10.09686" r="1"/><path d="M13.64453,9.29492,9.29492,13.64453a.74992.74992,0,1,0,1.06055,1.06055l4.34961-4.34961a.74992.74992,0,0,0-1.06055-1.06055Z"/><path d="M19.915,14.05078l-.63867-1.97363a.24375.24375,0,0,1,0-.15381l.63086-1.94971a1.77371,1.77371,0,0,0-.88379-2.13232l-1.82422-.93213a.245.245,0,0,1-.1084-.1084l-.94336-1.84766a1.7412,1.7412,0,0,0-2.09668-.86767l-1.97363.63867h-.001a.2565.2565,0,0,1-.15332,0L9.9502,4.08545a1.74,1.74,0,0,0-2.09766.86816L6.90918,6.80029a.241.241,0,0,1-.10938.10889L4.9541,7.853A1.74011,1.74011,0,0,0,4.085,9.94971l.63867,1.97314a.24375.24375,0,0,1,0,.15381L4.085,14.0498a1.74284,1.74284,0,0,0,.86914,2.09766l1.84668.94336a.25248.25248,0,0,1,.1084.1084l.94336,1.84766a1.74542,1.74542,0,0,0,2.09668.86816l1.97266-.63867a.26292.26292,0,0,1,.15527,0l1.97265.63867a1.74585,1.74585,0,0,0,2.09766-.86914l.94336-1.84668a.25248.25248,0,0,1,.1084-.1084l1.84766-.94336A1.74262,1.74262,0,0,0,19.915,14.05078Zm-1.55078.76074-1.84668.94336a1.74449,1.74449,0,0,0-.7627.7627l-.94336,1.8457a.24615.24615,0,0,1-.2998.124l-1.97461-.63867a1.74336,1.74336,0,0,0-1.0752,0L9.4873,18.4873a.24512.24512,0,0,1-.29882-.123l-.94336-1.84668a1.74469,1.74469,0,0,0-.7627-.7627l-1.8457-.94336a.24805.24805,0,0,1-.124-.2998l.63867-1.97363a1.748,1.748,0,0,0,0-1.07666L5.5127,9.4873a.24712.24712,0,0,1,.124-.29834l1.8457-.94384a1.74,1.74,0,0,0,.7627-.76172l.94336-1.84668A.24849.24849,0,0,1,9.41016,5.5a.2603.2603,0,0,1,.07812.01221l1.97266.63867a1.73526,1.73526,0,0,0,1.07715,0l1.97461-.63867a.24886.24886,0,0,1,.29882.124l.94336,1.84766a1.74407,1.74407,0,0,0,.76172.76123l1.82422.93213a.27827.27827,0,0,1,.13867.33545l-.63086,1.94921a1.748,1.748,0,0,0,0,1.07666l.63867,1.97413A.24783.24783,0,0,1,18.36426,14.81152Z"/></svg>