<svg fill="currentColor" id="icons" xmlns="http://www.w3.org/2000/svg" viewBox="0 0 24 24"><title>03-01-discount-m</title><rect id="canvas" width="24" height="24" style="fill:none"/><path d="M12,4a8,8,0,1,0,8,8A8.00917,8.00917,0,0,0,12,4Zm0,14.5A6.5,6.5,0,1,1,18.5,12,6.50753,6.50753,0,0,1,12,18.5Z"/><circle cx="13.90332" cy="13.90601" r="1"/><circle cx="10.09973" cy="10.09686" r="1"/><path d="M13.64453,9.29492,9.29492,13.64453a.74992.74992,0,1,0,1.06055,1.06055l4.34961-4.34961a.74992.74992,0,0,0-1.06055-1.06055Z"/></svg>