<svg fill="currentColor" id="icons" xmlns="http://www.w3.org/2000/svg" viewBox="0 0 24 24"><title>10-10-divider-m</title><rect id="canvas" width="24" height="24" style="fill:none"/><path d="M18.2373,15h-12.5a2.7528,2.7528,0,0,0-2.75,2.75v.5A2.7528,2.7528,0,0,0,5.7373,21h12.5a2.75279,2.75279,0,0,0,2.75-2.75v-.5A2.75279,2.75279,0,0,0,18.2373,15Zm1.25,3.25a1.25116,1.25116,0,0,1-1.25,1.25h-12.5a1.25116,1.25116,0,0,1-1.25-1.25v-.5a1.25116,1.25116,0,0,1,1.25-1.25h12.5a1.25116,1.25116,0,0,1,1.25,1.25Z"/><path d="M18.2373,3h-12.5a2.7528,2.7528,0,0,0-2.75,2.75v.5A2.7528,2.7528,0,0,0,5.7373,9h12.5a2.75279,2.75279,0,0,0,2.75-2.75v-.5A2.75279,2.75279,0,0,0,18.2373,3Zm1.25,3.25a1.25116,1.25116,0,0,1-1.25,1.25h-12.5a1.25116,1.25116,0,0,1-1.25-1.25v-.5a1.25116,1.25116,0,0,1,1.25-1.25h12.5a1.25116,1.25116,0,0,1,1.25,1.25Z"/><path d="M3.61035,12.75h16.5a.75.75,0,0,0,0-1.5h-16.5a.75.75,0,0,0,0,1.5Z"/></svg>