<svg fill="currentColor" id="icons" xmlns="http://www.w3.org/2000/svg" viewBox="0 0 24 24"><title>03-01-dollar-m</title><rect id="canvas" width="24" height="24" style="fill:none"/><path d="M11.37842,12.53046v4.85937a5.14519,5.14519,0,0,1-2.84619-.88837.7501.7501,0,0,0-.97559,1.13965,6.67715,6.67715,0,0,0,3.82178,1.25995V20.25a.75.75,0,0,0,1.5,0V18.83466a6.23065,6.23065,0,0,0,1.75195-.48554,3.6253,3.6253,0,0,0,2.25342-3.42383c0-2.27917-2.08661-3.03662-4.00537-3.55212V7.01367a17.057,17.057,0,0,1,2.581.45947.75.75,0,0,0,.39795-1.44628,18.28157,18.28157,0,0,0-2.979-.52894V3.75a.75.75,0,0,0-1.5,0V5.44788a5.45793,5.45793,0,0,0-3.125.88024A2.92016,2.92016,0,0,0,7.11621,8.75C7.11621,11.221,9.36072,11.99524,11.37842,12.53046Zm1.5.40313c1.57312.45447,2.50537.92933,2.50537,1.9917a2.12133,2.12133,0,0,1-1.38037,2.06153,4.57029,4.57029,0,0,1-1.125.32324ZM9.16211,7.522a3.94944,3.94944,0,0,1,2.21631-.57458V10.973C9.64374,10.4812,8.61621,9.97235,8.61621,8.75A1.4191,1.4191,0,0,1,9.16211,7.522Z"/></svg>