<svg fill="currentColor" id="icons" xmlns="http://www.w3.org/2000/svg" viewBox="0 0 24 24"><title>03-06-dollar-circle-m</title><rect id="canvas" width="24" height="24" style="fill:none"/><path d="M12,4a8,8,0,1,0,8,8A8.00917,8.00917,0,0,0,12,4Zm0,14.5A6.5,6.5,0,1,1,18.5,12,6.50753,6.50753,0,0,1,12,18.5Z"/><path d="M12.82422,11.39893V9.46118a8.87534,8.87534,0,0,1,1.09961.217.75.75,0,0,0,.39746-1.44629,11.05653,11.05653,0,0,0-1.49707-.28753V7.21484a.75.75,0,1,0-1.5,0v.6944A3.21289,3.21289,0,0,0,9.63672,8.46a1.99763,1.99763,0,0,0-.78418,1.65527c0,1.55744,1.29919,2.10187,2.47168,2.43219v2.23a2.42041,2.42041,0,0,1-1.12988-.4054.75.75,0,0,0-.97657,1.13867,3.89931,3.89931,0,0,0,2.10645.77826v.49616a.75.75,0,0,0,1.5,0v-.55445a3.7808,3.7808,0,0,0,.833-.262,2.40309,2.40309,0,0,0,1.49023-2.272C15.14746,12.25037,13.94073,11.72058,12.82422,11.39893Zm-1.5-.42182c-.69977-.235-.97168-.46167-.97168-.86188a.51057.51057,0,0,1,.19238-.46191,1.62312,1.62312,0,0,1,.7793-.24176Zm1.706,3.62885a2.04662,2.04662,0,0,1-.206.07184V12.97192c.58685.2049.82324.40162.82324.72486A.913.913,0,0,1,13.03027,14.606Z"/></svg>