<svg fill="currentColor" id="icons" xmlns="http://www.w3.org/2000/svg" viewBox="0 0 24 24"><defs><style>.cls-1{fill:none;}</style></defs><rect id="canvas" class="cls-1" width="24" height="24"/><path d="M12.59961,19a.74671.74671,0,0,1-.53027-.21973l-6.25-6.25a.74972.74972,0,0,1,0-1.06054l6.25-6.25a.74992.74992,0,0,1,1.06054,1.06054L7.41016,12l5.71972,5.71973A.75.75,0,0,1,12.59961,19Z"/><path d="M17.65039,19a.74671.74671,0,0,1-.53027-.21973l-6.25-6.25a.74972.74972,0,0,1,0-1.06054l6.25-6.25a.74992.74992,0,1,1,1.06054,1.06054L12.46094,12l5.71972,5.71973A.75.75,0,0,1,17.65039,19Z"/></svg>