<svg fill="currentColor" id="icons" xmlns="http://www.w3.org/2000/svg" viewBox="0 0 24 24"><defs><style>.cls-1{fill:none;}</style></defs><rect id="canvas" class="cls-1" width="24" height="24"/><path d="M15.84473,16a.74673.74673,0,0,1-.53028-.21973l-3.25-3.25a.74972.74972,0,0,1,0-1.06054l3.25-3.25A.74992.74992,0,0,1,16.375,9.28027L13.65527,12,16.375,14.71973A.75.75,0,0,1,15.84473,16Z"/><path d="M11.40527,16a.74671.74671,0,0,1-.53027-.21973l-3.25-3.25a.74972.74972,0,0,1,0-1.06054l3.25-3.25a.74992.74992,0,0,1,1.06055,1.06054L9.21582,12l2.71973,2.71973A.75.75,0,0,1,11.40527,16Z"/></svg>