<svg fill="currentColor" id="icons" xmlns="http://www.w3.org/2000/svg" viewBox="0 0 24 24"><defs><style>.cls-1{fill:none;}</style></defs><rect id="canvas" class="cls-1" width="24" height="24"/><path d="M8.15527,16A.75.75,0,0,1,7.625,14.71973L10.34473,12,7.625,9.28027A.74992.74992,0,1,1,8.68555,8.21973l3.25,3.25a.74972.74972,0,0,1,0,1.06054l-3.25,3.25A.74673.74673,0,0,1,8.15527,16Z"/><path d="M12.59473,16a.75.75,0,0,1-.53028-1.28027L14.78418,12,12.06445,9.28027A.74992.74992,0,1,1,13.125,8.21973l3.25,3.25a.74972.74972,0,0,1,0,1.06054l-3.25,3.25A.74671.74671,0,0,1,12.59473,16Z"/></svg>