<svg fill="currentColor" id="icons" xmlns="http://www.w3.org/2000/svg" viewBox="0 0 24 24"><defs><style>.cls-1{fill:none;}</style></defs><rect id="canvas" class="cls-1" width="24" height="24"/><path d="M11.40039,19a.75.75,0,0,1-.53027-1.28027L16.58984,12,10.87012,6.28027a.74992.74992,0,0,1,1.06054-1.06054l6.25,6.25a.74972.74972,0,0,1,0,1.06054l-6.25,6.25A.74671.74671,0,0,1,11.40039,19Z"/><path d="M6.34961,19a.75.75,0,0,1-.53027-1.28027L11.53906,12,5.81934,6.28027A.74992.74992,0,0,1,6.87988,5.21973l6.25,6.25a.74972.74972,0,0,1,0,1.06054l-6.25,6.25A.74671.74671,0,0,1,6.34961,19Z"/></svg>