<svg fill="currentColor" id="icons" xmlns="http://www.w3.org/2000/svg" viewBox="0 0 24 24"><title>03-02-download-m</title><rect id="canvas" width="24" height="24" style="fill:none"/><path d="M11.46582,15.82617a.74981.74981,0,0,0,1.06836,0l5.25-5.32471a.74994.74994,0,0,0-1.06836-1.05273L12.75,13.47083V3.75a.75.75,0,0,0-1.5,0v9.72083L7.28418,9.44873a.74994.74994,0,0,0-1.06836,1.05273Z"/><path d="M20.25,12a.7502.7502,0,0,0-.75.75v4.07129A1.53163,1.53163,0,0,1,18.18749,18.5H5.81249A1.53163,1.53163,0,0,1,4.5,16.82129V12.75a.75.75,0,0,0-1.5,0v4.07129A3.01582,3.01582,0,0,0,5.81249,20h12.375A3.01582,3.01582,0,0,0,21,16.82129V12.75A.7502.7502,0,0,0,20.25,12Z"/></svg>