<svg fill="currentColor" id="icons" xmlns="http://www.w3.org/2000/svg" viewBox="0 0 24 24"><title>01-28-dropbox-m</title><rect id="canvas" width="24" height="24" style="fill:#fff;fill-opacity:0.1"/><path d="M17.55237,9.34216l3.09118-1.90857a.74952.74952,0,0,0,0-1.27636l-4.125-2.5459a.75126.75126,0,0,0-.7871,0L12,5.91431l-3.73145-2.303a.75126.75126,0,0,0-.7871,0l-4.125,2.5459a.74952.74952,0,0,0,0,1.27636L6.44763,9.34216,3.35645,11.25a.75039.75039,0,0,0,0,1.27734L7.125,14.85327V17.2041a.75085.75085,0,0,0,.35645.63867l4.125,2.5459a.75126.75126,0,0,0,.7871,0l4.125-2.5459a.75085.75085,0,0,0,.35645-.63867V14.85327l3.76855-2.32593a.75039.75039,0,0,0,0-1.27734ZM12,11.00708,9.303,9.34259,12,7.67773l2.697,1.66486Zm4.125-5.87622,2.69727,1.665L16.125,8.46094l-2.69727-1.665Zm-8.25,0,2.69727,1.665L7.875,8.46094,5.17773,6.7959ZM7.87445,10.224,10.572,11.88885,7.875,13.55371l-2.69727-1.665ZM12,18.86816l-3.375-2.082V14.85327L12,12.77026l3.375,2.083v1.93286Zm4.125-5.31445-2.697-1.66486L16.12555,10.224l2.69672,1.66467Z"/></svg>