<svg fill="currentColor" id="icons" xmlns="http://www.w3.org/2000/svg" viewBox="0 0 24 24"><title>08-03-drop-duplicate-m</title><rect id="canvas" width="24" height="24" style="fill:none"/><path d="M15.15576,4.18457a.74945.74945,0,0,0-1.05517-.00049L10.989,7.26318,9.8999,6.18457a.74915.74915,0,0,0-1.05566,0L5.12842,9.86475a5.91985,5.91985,0,0,0,0,8.42627,6.04852,6.04852,0,0,0,8.4873.00048,3.90071,3.90071,0,0,0,.28058-.31256,6.1167,6.1167,0,0,0,.73993.05036A6.00981,6.00981,0,0,0,18.87158,16.291a5.91985,5.91985,0,0,0,0-8.42627Zm-8.97168,13.041a4.42036,4.42036,0,0,1,0-6.29541L9.37207,7.773,10.4624,8.85254l2.09815,2.07764a4.37791,4.37791,0,0,1,.41162,5.7915c-.00373.00494-.00409.01111-.00769.01617-.008.01117-.01416.02289-.02155.03449l-.00592-.00379a3.98732,3.98732,0,0,1-.37646.457A4.54482,4.54482,0,0,1,6.18408,17.22559Zm11.63184-2a4.50383,4.50383,0,0,1-3.0072,1.29956,5.929,5.929,0,0,0-1.19251-6.6604L12.05481,8.3186l2.57312-2.54614,3.188,3.15772a4.42036,4.42036,0,0,1,0,6.29541Z"/></svg>