<svg fill="currentColor" id="icons" xmlns="http://www.w3.org/2000/svg" viewBox="0 0 24 24"><title>08-02-drop-m</title><rect id="canvas" width="24" height="24" style="fill:none"/><path d="M12.52246,4.21191a.75064.75064,0,0,0-1.04492,0L7.10742,8.459a6.637,6.637,0,0,0-.0003,9.56952,7.07,7.07,0,0,0,9.78546.00031,6.637,6.637,0,0,0,0-9.56983Zm3.32471,12.74121a5.55939,5.55939,0,0,1-7.69434,0l-.00049-.00048a5.13655,5.13655,0,0,1,.00049-7.41748L12,5.7959l3.84766,3.73926a5.13711,5.13711,0,0,1-.00049,7.418Z"/></svg>