<svg fill="currentColor" xmlns="http://www.w3.org/2000/svg" viewBox="0 0 24 24"><title>01-14-duplicate-m</title><g id="transparent_canvas"><rect id="canvas" width="24" height="24" style="fill:none"/></g><g id="icons"><path d="M10.37891,14.49707a.86564.86564,0,0,1-.86524-.86523.75.75,0,0,0-1.5,0,2.36854,2.36854,0,0,0,2.36524,2.36523.75.75,0,0,0,0-1.5Z"/><path d="M17.64844,3.99707H10.37891A2.36823,2.36823,0,0,0,8.01367,6.3623V8.05566H6.35156A2.36822,2.36822,0,0,0,3.98633,10.4209v7.26953a2.36853,2.36853,0,0,0,2.36523,2.36523h7.26953a2.36854,2.36854,0,0,0,2.36524-2.36523V15.99707h1.66211a2.36853,2.36853,0,0,0,2.36523-2.36523V6.3623A2.36822,2.36822,0,0,0,17.64844,3.99707ZM13.62109,18.55566H6.35156a.86563.86563,0,0,1-.86523-.86523V10.4209a.866.866,0,0,1,.86523-.86524H8.02734v.9292a.75.75,0,0,0,1.5,0v-.9292h4.09375a.866.866,0,0,1,.86524.86524v4.07617H13.34277a.75.75,0,0,0,0,1.5h1.14356v1.69336A.86564.86564,0,0,1,13.62109,18.55566Zm4.89258-4.92382a.86563.86563,0,0,1-.86523.86523H15.98633V10.4209a2.36823,2.36823,0,0,0-2.36524-2.36524H9.51367V6.3623a.866.866,0,0,1,.86524-.86523h7.26953a.866.866,0,0,1,.86523.86523Z"/></g></svg>