<svg fill="currentColor" id="icons" xmlns="http://www.w3.org/2000/svg" viewBox="0 0 24 24"><title>01-11-duplicate-s</title><rect id="canvas" width="24" height="24" style="fill:none"/><path d="M16.08984,6H10.87012a.75.75,0,0,0,0,1.5h5.21972A.41146.41146,0,0,1,16.5,7.91211v5.22851a.75.75,0,0,0,1.5,0V7.91211A1.91311,1.91311,0,0,0,16.08984,6Z"/><path d="M13.12988,8.87451H7.91016A1.91855,1.91855,0,0,0,6,10.79736v5.27979A1.91824,1.91824,0,0,0,7.91016,18h5.21972A1.91824,1.91824,0,0,0,15.04,16.07715V10.79736A1.91855,1.91855,0,0,0,13.12988,8.87451ZM13.54,16.07715a.41671.41671,0,0,1-.41016.42285H7.91016A.41671.41671,0,0,1,7.5,16.07715V10.79736a.41671.41671,0,0,1,.41016-.42285h5.21972a.41671.41671,0,0,1,.41016.42285Z"/></svg>