<svg fill="currentColor" id="icons" xmlns="http://www.w3.org/2000/svg" viewBox="0 0 24 24"><title>15-01-dynamic-content-m</title><rect id="canvas" width="24" height="24" style="fill:none"/><path d="M18.42822,7h-12.5a2.7528,2.7528,0,0,0-2.75,2.75v8.5a2.7528,2.7528,0,0,0,2.75,2.75h12.5a2.7528,2.7528,0,0,0,2.75-2.75V9.75A2.7528,2.7528,0,0,0,18.42822,7Zm1.25,11.25a1.25116,1.25116,0,0,1-1.25,1.25h-12.5a1.25116,1.25116,0,0,1-1.25-1.25V9.75a1.25116,1.25116,0,0,1,1.25-1.25h12.5a1.25116,1.25116,0,0,1,1.25,1.25Z"/><path d="M6.75,4.5h10.5a.75.75,0,0,0,0-1.5H6.75a.75.75,0,0,0,0,1.5Z"/><path d="M9.95215,15.25H7.75a.75.75,0,0,0,0,1.5H9.95215a.75.75,0,0,0,0-1.5Z"/><path d="M14,11.25H7.75a.75.75,0,0,0,0,1.5H14a.75.75,0,0,0,0-1.5Z"/></svg>