<svg fill="currentColor" id="icons" xmlns="http://www.w3.org/2000/svg" viewBox="0 0 24 24"><title>15-04-dynamic-content-remove-m</title><rect id="canvas" width="24" height="24" style="fill:none"/><path d="M20.28027,14.002a.74972.74972,0,0,0-1.06054,0L17.25,15.97168,15.28027,14.002a.74992.74992,0,0,0-1.06054,1.06055l1.96972,1.96973L14.21973,19.002a.74992.74992,0,1,0,1.06054,1.06055L17.25,18.09277l1.96973,1.96973A.74992.74992,0,0,0,20.28027,19.002l-1.96972-1.96972,1.96972-1.96973A.74973.74973,0,0,0,20.28027,14.002Z"/><path d="M18.42773,7h-12.5a2.7528,2.7528,0,0,0-2.75,2.75v8.5a2.7528,2.7528,0,0,0,2.75,2.75h5.71a.75.75,0,1,0,0-1.5h-5.71a1.25116,1.25116,0,0,1-1.25-1.25V9.75a1.25116,1.25116,0,0,1,1.25-1.25h12.5a1.25116,1.25116,0,0,1,1.25,1.25V12a.75.75,0,0,0,1.5,0V9.75A2.75279,2.75279,0,0,0,18.42773,7Z"/><path d="M6.75,4.5h10.5a.75.75,0,0,0,0-1.5H6.75a.75.75,0,0,0,0,1.5Z"/><path d="M7.75,15.25a.75.75,0,0,0,0,1.5H9.95215a.75.75,0,0,0,0-1.5Z"/><path d="M14.75,12a.7502.7502,0,0,0-.75-.75H7.75a.75.75,0,0,0,0,1.5H14A.7502.7502,0,0,0,14.75,12Z"/></svg>