<svg fill="currentColor" id="icons" xmlns="http://www.w3.org/2000/svg" viewBox="0 0 24 24"><title>15-08-dynamic-content-play-m</title><rect id="canvas" width="24" height="24" style="fill:none"/><path d="M18.42822,7h-12.5a2.7528,2.7528,0,0,0-2.75,2.75v8.5a2.7528,2.7528,0,0,0,2.75,2.75H11.6377a.75.75,0,1,0,0-1.5H5.92822a1.25116,1.25116,0,0,1-1.25-1.25V9.75a1.25116,1.25116,0,0,1,1.25-1.25h12.5a1.25116,1.25116,0,0,1,1.25,1.25V12a.75.75,0,0,0,1.5,0V9.75A2.7528,2.7528,0,0,0,18.42822,7Z"/><path d="M6,3.75a.7502.7502,0,0,0,.75.75h10.5a.75.75,0,0,0,0-1.5H6.75A.7502.7502,0,0,0,6,3.75Z"/><path d="M7.75,15.25a.75.75,0,0,0,0,1.5H9.95215a.75.75,0,0,0,0-1.5Z"/><path d="M14.75,12a.7502.7502,0,0,0-.75-.75H7.75a.75.75,0,0,0,0,1.5H14A.7502.7502,0,0,0,14.75,12Z"/><path d="M19.58691,15.95117h-.00048l-3.418-2.07812a1.18483,1.18483,0,0,0-1.19678-.02051,1.17287,1.17287,0,0,0-.59814,1.01953v4.15625a1.17071,1.17071,0,0,0,.59765,1.01856,1.18458,1.18458,0,0,0,1.19727-.02051l3.41845-2.07715a1.16788,1.16788,0,0,0,0-1.99805Zm-3.71337,2.499v-3.001l2.46875,1.501Z"/></svg>