<svg fill="currentColor" id="icons" xmlns="http://www.w3.org/2000/svg" viewBox="0 0 24 24"><title>03-05-dynamic-key-m</title><rect id="canvas" width="24" height="24" style="fill:none"/><path d="M5.9834,8.25537A1.81137,1.81137,0,0,1,7.84961,6.50879a.75.75,0,0,0,0-1.5A3.31165,3.31165,0,0,0,4.4834,8.25537V9.50342C4.4834,11.25,4.24023,11.25,3.707,11.25a.75.75,0,1,0,0,1.5c.5332,0,.77637,0,.77637,1.74609v1.249a3.31124,3.31124,0,0,0,3.36621,3.24609.75.75,0,1,0,0-1.5A1.811,1.811,0,0,1,5.9834,15.74512v-1.249a4.23968,4.23968,0,0,0-.543-2.49615,4.24112,4.24112,0,0,0,.543-2.49652Z"/><path d="M20.293,11.25c-.5332,0-.77637,0-.77637-1.74658V8.25537a3.31165,3.31165,0,0,0-3.36621-3.24658.75.75,0,1,0,0,1.5A1.81137,1.81137,0,0,1,18.0166,8.25537V9.50342a4.24112,4.24112,0,0,0,.543,2.49652,4.23968,4.23968,0,0,0-.543,2.49615v1.249a1.811,1.811,0,0,1-1.86621,1.74609.75.75,0,0,0,0,1.5,3.31124,3.31124,0,0,0,3.36621-3.24609v-1.249c0-1.74609.24317-1.74609.77637-1.74609a.75.75,0,0,0,0-1.5Z"/><path d="M15.03027,8.96973a.74972.74972,0,0,0-1.06054,0L12,10.93945,10.03027,8.96973a.74992.74992,0,0,0-1.06054,1.06054L10.93945,12,8.96973,13.96973a.74992.74992,0,1,0,1.06054,1.06054L12,13.06055l1.96973,1.96972a.74992.74992,0,0,0,1.06054-1.06054L13.06055,12l1.96972-1.96973A.74972.74972,0,0,0,15.03027,8.96973Z"/></svg>