<svg fill="currentColor" xmlns="http://www.w3.org/2000/svg" viewBox="0 0 24 24"><defs><style>.cls-1{fill:#f2f2f2;opacity:0;}</style></defs><rect class="cls-1" width="24" height="24"/><path d="M9,17a1.47,1.47,0,0,1-1.53-1.4V14.4A4.81,4.81,0,0,0,7,12a4.81,4.81,0,0,0,.45-2.4V8.4A1.47,1.47,0,0,1,9,7,1,1,0,0,0,9,5,3.48,3.48,0,0,0,5.47,8.4V9.6C5.47,11,5.35,11,5,11a1,1,0,0,0,0,2c.35,0,.47,0,.47,1.4v1.2A3.48,3.48,0,0,0,9,19a1,1,0,0,0,0-2Z"/><path d="M19,11c-.35,0-.47,0-.47-1.4V8.4A3.48,3.48,0,0,0,15,5a1,1,0,0,0,0,2,1.47,1.47,0,0,1,1.53,1.4V9.6A4.81,4.81,0,0,0,17,12a4.81,4.81,0,0,0-.45,2.4v1.2A1.47,1.47,0,0,1,15,17a1,1,0,0,0,0,2,3.48,3.48,0,0,0,3.53-3.4V14.4c0-1.4.12-1.4.47-1.4a1,1,0,0,0,0-2Z"/><path d="M14,15a1,1,0,0,0,.71-.29,1,1,0,0,0,0-1.42L13.41,12l1.3-1.29a1,1,0,0,0-1.42-1.42L12,10.59l-1.29-1.3a1,1,0,0,0-1.42,1.42L10.59,12l-1.3,1.29a1,1,0,0,0,0,1.42,1,1,0,0,0,1.42,0L12,13.41l1.29,1.3A1,1,0,0,0,14,15Z"/></svg>