<svg fill="currentColor" id="icons" xmlns="http://www.w3.org/2000/svg" viewBox="0 0 24 24"><title>15-02-dynamic-content-show-m</title><rect id="canvas" width="24" height="24" style="fill:none"/><path d="M5.92822,21H11.6377a.75.75,0,1,0,0-1.5H5.92822a1.25116,1.25116,0,0,1-1.25-1.25V9.75a1.25116,1.25116,0,0,1,1.25-1.25h12.5a1.25116,1.25116,0,0,1,1.25,1.25V12a.75.75,0,0,0,1.5,0V9.75a2.7528,2.7528,0,0,0-2.75-2.75h-12.5a2.7528,2.7528,0,0,0-2.75,2.75v8.5A2.7528,2.7528,0,0,0,5.92822,21Z"/><path d="M6.75,4.5h10.5a.75.75,0,0,0,0-1.5H6.75a.75.75,0,0,0,0,1.5Z"/><path d="M7.75,15.25a.75.75,0,0,0,0,1.5H9.95215a.75.75,0,0,0,0-1.5Z"/><path d="M14.75,12a.7502.7502,0,0,0-.75-.75H7.75a.75.75,0,0,0,0,1.5H14A.7502.7502,0,0,0,14.75,12Z"/><path d="M17.24707,14.05566c-2.07129,0-3.61963,2.03418-3.79492,2.27344a1.12314,1.12314,0,0,0-.19971.57178l-.00537.06592.00635.06591a1.1139,1.1139,0,0,0,.2041.55127c.16992.23194,1.71826,2.26612,3.78955,2.26612,2.09424,0,3.61768-1.98828,3.78125-2.21045a1.03364,1.03364,0,0,0,.21729-.64209,1.11879,1.11879,0,0,0-.21387-.727C20.86475,16.044,19.33789,14.05566,17.24707,14.05566Zm0,4.29444a3.65182,3.65182,0,0,1-2.37061-1.397,3.6483,3.6483,0,0,1,2.37061-1.39746,3.69834,3.69834,0,0,1,2.40967,1.39746A3.69767,3.69767,0,0,1,17.24707,18.3501Z"/></svg>