<svg fill="currentColor" id="icons" xmlns="http://www.w3.org/2000/svg" viewBox="0 0 24 24"><title>15-06-dynamic-content-check-m</title><rect id="canvas" width="24" height="24" style="fill:none"/><path d="M18.42773,7h-12.5a2.7528,2.7528,0,0,0-2.75,2.75v8.5a2.7528,2.7528,0,0,0,2.75,2.75h5.71a.75.75,0,1,0,0-1.5h-5.71a1.25116,1.25116,0,0,1-1.25-1.25V9.75a1.25116,1.25116,0,0,1,1.25-1.25h12.5a1.25116,1.25116,0,0,1,1.25,1.25V12a.75.75,0,0,0,1.5,0V9.75A2.75279,2.75279,0,0,0,18.42773,7Z"/><path d="M6.75,4.5h10.5a.75.75,0,0,0,0-1.5H6.75a.75.75,0,0,0,0,1.5Z"/><path d="M7.75,15.25a.75.75,0,0,0,0,1.5H9.95215a.75.75,0,0,0,0-1.5Z"/><path d="M14.75,12a.7502.7502,0,0,0-.75-.75H7.75a.75.75,0,0,0,0,1.5H14A.7502.7502,0,0,0,14.75,12Z"/><path d="M19.23145,14.67725,16.49707,17.394,15.27734,16.231a.75013.75013,0,1,0-1.03515,1.08593l1.748,1.66651a.75012.75012,0,0,0,1.0459-.01074l3.252-3.231a.74992.74992,0,1,0-1.05664-1.06445Z"/></svg>