<svg fill="currentColor" xmlns="http://www.w3.org/2000/svg" viewBox="0 0 24 24"><title>01-01-edit-m</title><g id="transparent_canvas"><rect id="canvas" width="24" height="24" style="fill:none"/></g><g id="icons"><path d="M18.97559,20.05176h-6.168a.75.75,0,0,1,0-1.5h6.168a.75.75,0,0,1,0,1.5Z"/><path d="M19.62451,5.26855a2.761,2.761,0,0,0-2.03515-1.32519,2.73333,2.73333,0,0,0-2.27442.79639L4.59229,15.59668A2.06989,2.06989,0,0,0,4,17.05273l.01416,2.27832a.75018.75018,0,0,0,.75.74512H4.769L7.04443,20.062a2.02884,2.02884,0,0,0,1.44385-.60889L19.16113,8.647A2.80447,2.80447,0,0,0,19.62451,5.26855ZM7.42041,18.3999a.542.542,0,0,1-.38525.16211l-1.52588.00928L5.5,17.04346a.556.556,0,0,1,.15967-.39258L14.18219,8.0213l1.75293,1.75714ZM18.09375,7.59277,16.98907,8.71124,15.23615,6.9541l1.15252-1.167a1.22957,1.22957,0,0,1,.873-.36328,1.29,1.29,0,0,1,.14941.00879,1.2528,1.2528,0,0,1,.93164.61523A1.28991,1.28991,0,0,1,18.09375,7.59277Z"/></g></svg>