<svg fill="currentColor" id="icons" xmlns="http://www.w3.org/2000/svg" viewBox="0 0 24 24"><title>02-13-emails-list-m</title><rect id="canvas" width="24" height="24" style="fill:none;opacity:0.1"/><path d="M17.25,8.0498H6.75A2.7528,2.7528,0,0,0,4,10.7998v6.5a2.75279,2.75279,0,0,0,2.75,2.75h10.5a2.75279,2.75279,0,0,0,2.75-2.75v-6.5A2.7528,2.7528,0,0,0,17.25,8.0498Zm1.25,9.25a1.25116,1.25116,0,0,1-1.25,1.25H6.75a1.25116,1.25116,0,0,1-1.25-1.25v-6.5a1.25116,1.25116,0,0,1,1.25-1.25h10.5a1.25116,1.25116,0,0,1,1.25,1.25Z"/><path d="M7.65186,14.18164H9.5293a.75.75,0,0,0,0-1.5H7.65186a.75.75,0,0,0,0,1.5Z"/><path d="M11.84473,15.4209H7.65186a.75.75,0,1,0,0,1.5h4.19287a.75.75,0,1,0,0-1.5Z"/><path d="M15.6001,10.4502h-1a1.75211,1.75211,0,0,0-1.75,1.75v1a1.75212,1.75212,0,0,0,1.75,1.75h1a1.75213,1.75213,0,0,0,1.75-1.75v-1A1.75212,1.75212,0,0,0,15.6001,10.4502Zm.25,2.75a.25049.25049,0,0,1-.25.25h-1a.25048.25048,0,0,1-.25-.25v-1a.25048.25048,0,0,1,.25-.25h1a.25048.25048,0,0,1,.25.25Z"/><path d="M5.25,6.25A.7502.7502,0,0,0,6,7H18.2002a.75.75,0,0,0,0-1.5H6A.7502.7502,0,0,0,5.25,6.25Z"/><path d="M16.25,4.4502a.75.75,0,1,0,0-1.5H8a.75.75,0,0,0,0,1.5Z"/></svg>