<svg fill="currentColor" id="icons" xmlns="http://www.w3.org/2000/svg" viewBox="0 0 24 24"><title>04-03-emoticons-3-m</title><rect id="canvas" width="24" height="24" style="fill:none"/><path d="M12,4a8,8,0,1,0,8,8A8.00917,8.00917,0,0,0,12,4Zm0,14.5A6.5,6.5,0,1,1,18.5,12,6.50753,6.50753,0,0,1,12,18.5Z"/><path d="M14.68164,9.23633h-.001a.95117.95117,0,0,0-.00293,1.90234h.00391a.95117.95117,0,1,0,0-1.90234Z"/><path d="M9.28906,11.13867H9.293a.95106.95106,0,1,0-.6709-.27685A.94136.94136,0,0,0,9.28906,11.13867Z"/><path d="M12,14.2207a4.98387,4.98387,0,0,0-3.34961,1.27686.74992.74992,0,0,0,1.06055,1.06055A3.507,3.507,0,0,1,12,15.7207a3.46448,3.46448,0,0,1,2.293.84131.74993.74993,0,0,0,1.05664-1.06445A4.98387,4.98387,0,0,0,12,14.2207Z"/></svg>