<svg fill="currentColor" id="icons" xmlns="http://www.w3.org/2000/svg" viewBox="0 0 24 24"><title>04-02-emoticons-2-m</title><rect id="canvas" width="24" height="24" style="fill:none"/><path d="M12,4a8,8,0,1,0,8,8A8.00917,8.00917,0,0,0,12,4Zm0,14.5A6.5,6.5,0,1,1,18.5,12,6.50753,6.50753,0,0,1,12,18.5Z"/><path d="M14.68164,9.23633h-.001a.95117.95117,0,0,0-.00293,1.90234h.00391a.95117.95117,0,1,0,0-1.90234Z"/><path d="M9.293,11.13867a.95106.95106,0,1,0-.6709-.27685.94136.94136,0,0,0,.667.27685Z"/><path d="M14,15.25H10a.75.75,0,0,0,0,1.5h4a.75.75,0,0,0,0-1.5Z"/></svg>