<svg fill="currentColor" id="icons" xmlns="http://www.w3.org/2000/svg" viewBox="0 0 24 24"><defs><style>.cls-1{fill:none;}</style></defs><rect id="canvas" class="cls-1" width="24" height="24"/><path d="M10.5,14.74805H4.75a.75.75,0,0,1,0-1.5H10.5a.75.75,0,0,1,0,1.5Z"/><path d="M10.5,10.75244H4.75a.75.75,0,0,1,0-1.5H10.5a.75.75,0,0,1,0,1.5Z"/><path d="M19.25,14.74805H13.5a.75.75,0,0,1,0-1.5h5.75a.75.75,0,0,1,0,1.5Z"/><path d="M19.25,10.75244H13.5a.75.75,0,0,1,0-1.5h5.75a.75.75,0,0,1,0,1.5Z"/></svg>