<svg fill="currentColor" xmlns="http://www.w3.org/2000/svg" viewBox="0 0 24 24"><title>01-18-erase-m</title><g id="transparent_canvas"><rect id="canvas" width="24" height="24" style="fill:none"/></g><g id="icons"><path d="M20.25586,18.49512H11.6377l6.57324-6.57324a2.75256,2.75256,0,0,0,0-3.88868L14.97266,4.79492a2.81485,2.81485,0,0,0-3.88916,0l-7.2837,7.2832a2.75345,2.75345,0,0,0,0,3.88868l3.23877,3.23828a2.742,2.742,0,0,0,1.94483.80469c.08972,0,.1784-.01691.26776-.02564.019.00147.03516.011.0545.011h10.9502a.75.75,0,0,0,0-1.5ZM12.144,5.85547a1.25014,1.25014,0,0,1,1.76807,0l3.23828,3.23828a1.24955,1.24955,0,0,1,0,1.76758l-3.11133,3.11133-5.00641-5.006ZM4.86035,14.90625a1.25222,1.25222,0,0,1,0-1.76758l3.1117-3.11151,5.00647,5.006L9.86719,18.14453a1.251,1.251,0,0,1-1.76807,0Z"/></g></svg>