<svg fill="currentColor" width="24" height="24" viewBox="0 0 24 24" xmlns="http://www.w3.org/2000/svg">
<circle cx="12" cy="12" r="6" fill="white"/>
<path fill-rule="evenodd" clip-rule="evenodd" d="M12 18C15.3137 18 18 15.3137 18 12C18 8.68629 15.3137 6 12 6C8.68629 6 6 8.68629 6 12C6.00362 15.3122 8.68779 17.9964 12 18ZM11.25 9.78467C11.25 9.37046 11.5858 9.03467 12 9.03467C12.4142 9.03467 12.75 9.37046 12.75 9.78467L12.75 12C12.75 12.4142 12.4142 12.75 12 12.75C11.5858 12.75 11.25 12.4142 11.25 12L11.25 9.78467ZM12.7507 14.2139C12.75 13.7997 12.4137 13.4644 11.9995 13.4651C11.5852 13.4653 11.2496 13.8012 11.2497 14.2154C11.2499 14.6296 11.5858 14.9653 12 14.9651L12.002 14.9651C12.4162 14.9644 12.7514 14.6281 12.7507 14.2139Z"/>
</svg>
