<svg fill="currentColor" width="24" height="24" viewBox="0 0 24 24" xmlns="http://www.w3.org/2000/svg">
<circle cx="12" cy="12" r="7" fill="white"/>
<path fill-rule="evenodd" clip-rule="evenodd" d="M12 20C16.4183 20 20 16.4183 20 12C20 7.58172 16.4183 4 12 4C7.58172 4 4 7.58172 4 12C4.00505 16.4162 7.58382 19.9949 12 20ZM11.25 8.39648C11.25 7.98227 11.5858 7.64648 12 7.64648C12.4142 7.64648 12.75 7.98227 12.75 8.39648L12.75 12.1465C12.75 12.5607 12.4142 12.8965 12 12.8965C11.5858 12.8965 11.25 12.5607 11.25 12.1465L11.25 8.39648ZM13.001 14.957C13 14.4047 12.5515 13.9578 11.9992 13.9587C11.6419 13.9589 11.3119 14.1496 11.1334 14.4591C10.9549 14.7686 10.955 15.1498 11.1338 15.4591C11.3125 15.7684 11.6427 15.9589 12 15.9587L12.0027 15.9587C12.555 15.9578 13.0019 15.5093 13.001 14.957Z" />
</svg>
