<svg fill="currentColor" width="24px" height="24px" viewBox="0 0 24 24" version="1.1" xmlns="http://www.w3.org/2000/svg" xmlns:xlink="http://www.w3.org/1999/xlink">
    <title>Information / 02 M / 01 Message / 01-16-error-m</title>
    <rect id="canvas" x="-4.99999828e-08" y="-5.00000397e-08" width="24.0000001" height="24.0000001" style="fill:none"></rect>
    <path d="M12,3.99999997 C16.4161832,4.00505333 19.9949467,7.58381685 20,12 C20,16.418278 16.418278,20 12,20 C7.58172198,20 3.99999997,16.418278 3.99999997,12 C3.99999997,7.58172198 7.58172198,3.99999997 12,3.99999997 Z M12,5.49999997 C8.41014911,5.49999997 5.49999997,8.41014911 5.49999997,12 C5.49999997,15.5898509 8.41014911,18.5 12,18.5 C15.5881307,18.4958505 18.4958505,15.5881307 18.5,12 C18.5,8.41014911 15.5898509,5.49999997 12,5.49999997 Z M12,11.10352 C12.4141701,11.1036249 12.7498951,11.4393499 12.75,11.85352 L12.75,11.85352 L12.75,15.60352 C12.75,16.0177336 12.4142136,16.35352 12,16.35352 C11.5857864,16.35352 11.25,16.0177336 11.25,15.60352 L11.25,15.60352 L11.25,11.85352 C11.2501049,11.4393499 11.5858299,11.1036249 12,11.10352 Z M12,8.04125998 C12.5527672,8.04200245 13.000376,8.49051398 13.000005,9.04328158 C12.9996335,9.59604919 12.5514227,10.0439591 11.998655,10.0439591 C11.4458873,10.0439591 10.9976765,9.59604919 10.997305,9.04328158 C10.996934,8.49051398 11.4445428,8.04200245 11.997305,8.04125998 L11.997305,8.04125998 Z" transform="translate(12.000000, 12.000000) scale(1, -1) translate(-12.000000, -12.000000) "></path>
</svg>