<svg fill="currentColor" width="24" height="24" viewBox="0 0 24 24" xmlns="http://www.w3.org/2000/svg">
<circle cx="12" cy="12" r="7" fill="white"/>
<path fill-rule="evenodd" clip-rule="evenodd" d="M20 12C20 16.4183 16.4183 20 12 20C7.58382 19.9949 4.00505 16.4162 4 12C4 7.58172 7.58172 4 12 4C16.4183 4 20 7.58172 20 12ZM18.5 12C18.5 8.41015 15.5899 5.5 12 5.5C8.41187 5.50415 5.50415 8.41187 5.5 12C5.5 15.5898 8.41015 18.5 12 18.5C15.5899 18.5 18.5 15.5899 18.5 12ZM12 12.8965C12.4142 12.8964 12.7499 12.5606 12.75 12.1465L12.75 8.39648C12.75 7.98227 12.4142 7.64648 12 7.64648C11.5858 7.64648 11.25 7.98227 11.25 8.39648L11.25 12.1465C11.2501 12.5606 11.5858 12.8964 12 12.8965ZM12.0027 15.9587L12 15.9587C11.4472 15.958 10.9996 15.5095 11 14.9567C11.0004 14.4039 11.4486 13.956 12.0013 13.956C12.5541 13.956 13.0023 14.404 13.0027 14.9567C13.0031 15.5095 12.5555 15.958 12.0027 15.9587Z" />
</svg>
