<svg fill="currentColor" width="24px" height="24px" viewBox="0 0 24 24" xmlns="http://www.w3.org/2000/svg">
    <title>Information / 02 M / 01 Message / 01-17-error-fill-m</title>
    <rect id="canvas" x="-5.00000112e-08" y="-5.00000397e-08" width="24.0000001" height="24.0000001" style="fill:none"></rect>
    <path d="M12,4.00000003 C7.58172198,4.00000003 3.99999997,7.58172205 3.99999997,12 C3.99999997,16.4182781 7.58172198,20 12,20 C16.418278,20 20,16.4182781 20,12 C19.9949467,7.58381692 16.4161832,4.0050534 12,4.00000003 Z M12.75,15.6035201 C12.75,16.0177336 12.4142136,16.3535201 12,16.3535201 C11.5857864,16.3535201 11.25,16.0177336 11.25,15.6035201 L11.25,11.8535201 C11.25,11.4393065 11.5857864,11.1035201 12,11.1035201 C12.4142136,11.1035201 12.75,11.4393065 12.75,11.8535201 L12.75,15.6035201 Z M12.00079,10.04126 C11.4485053,10.042221 11.000011,9.5952848 10.9990485,9.04300005 C10.998089,8.49071531 11.4450253,8.04222103 11.99731,8.04125997 L12,8.04125997 C12.3572656,8.04111893 12.6874679,8.23158745 12.8662229,8.54091797 C13.0449779,8.85024849 13.0451285,9.23144634 12.8666179,9.54091798 C12.6881073,9.85038961 12.3580556,10.0411189 12.00079,10.04126 L12.00079,10.04126 Z"  transform="translate(12.000000, 12.000000) scale(1, -1) translate(-12.000000, -12.000000) "></path>
</svg>