<svg fill="currentColor" width="24" height="24" viewBox="0 0 24 24" xmlns="http://www.w3.org/2000/svg">
<circle cx="12" cy="12" r="6" fill="white"/>
<path fill-rule="evenodd" clip-rule="evenodd" d="M18 12C18 15.3137 15.3137 18 12 18C8.68779 17.9964 6.00362 15.3122 6 12C6 8.68629 8.68629 6 12 6C15.3137 6 18 8.68629 18 12ZM16.5 12C16.5 9.51472 14.4853 7.5 12 7.5C9.51584 7.50271 7.50271 9.51584 7.5 12C7.5 14.4853 9.51472 16.5 12 16.5C14.4853 16.5 16.5 14.4853 16.5 12ZM12 12.75C12.4142 12.7499 12.7499 12.4142 12.75 12L12.75 9.78467C12.75 9.37046 12.4142 9.03467 12 9.03467C11.5858 9.03467 11.25 9.37046 11.25 9.78467L11.25 12C11.2501 12.4142 11.5858 12.7499 12 12.75ZM12.002 14.9651L12 14.9651C11.5854 14.9646 11.2497 14.6282 11.25 14.2136C11.2503 13.7991 11.5864 13.4631 12.001 13.4631C12.4156 13.4632 12.7517 13.7991 12.752 14.2137C12.7523 14.6282 12.4166 14.9646 12.002 14.9651Z"/>
</svg>
