<svg fill="currentColor" id="icons" xmlns="http://www.w3.org/2000/svg" viewBox="0 0 24 24"><title>03-02-euro-m</title><rect id="canvas" width="24" height="24" style="fill:none"/><path d="M5.45215,14.0835a.7502.7502,0,0,0,.75.75h1.9696a7.09915,7.09915,0,0,0,9.99866,3.22461.75.75,0,1,0-.74512-1.30176,5.60031,5.60031,0,0,1-7.559-1.92285h3.71472a.75.75,0,0,0,0-1.5H9.23315a5.23758,5.23758,0,0,1,0-2.667h4.3479a.75.75,0,0,0,0-1.5H9.86633a5.60031,5.60031,0,0,1,7.559-1.92285.75.75,0,0,0,.74512-1.30176A7.09915,7.09915,0,0,0,8.17175,9.1665H6.20215a.75.75,0,0,0,0,1.5H7.69287a6.78556,6.78556,0,0,0,0,2.667H6.20215A.75019.75019,0,0,0,5.45215,14.0835Z"/></svg>