<svg fill="currentColor" id="icons" xmlns="http://www.w3.org/2000/svg" viewBox="0 0 24 24"><title>03-07-euro-circle-m</title><rect id="canvas" width="24" height="24" style="fill:none"/><path d="M12,4a8,8,0,1,0,8,8A8.00917,8.00917,0,0,0,12,4Zm0,14.5A6.5,6.5,0,1,1,18.5,12,6.50753,6.50753,0,0,1,12,18.5Z"/><path d="M13.68457,9.29492a.7501.7501,0,1,0,.78516-1.27832,4.14391,4.14391,0,0,0-2.165-.6167,4.273,4.273,0,0,0-3.82813,2.5H7.57715a.75.75,0,1,0,0,1.5H8.057a4.60549,4.60549,0,0,0-.04822.5,4.60525,4.60525,0,0,0,.04822.5H7.57715a.75.75,0,1,0,0,1.5h.89941a4.273,4.273,0,0,0,3.82813,2.5,4.14391,4.14391,0,0,0,2.165-.6167.7501.7501,0,1,0-.78516-1.27832,2.641,2.641,0,0,1-1.37988.395,2.70112,2.70112,0,0,1-2.06879-1h1.478a.75.75,0,0,0,0-1.5h-2.158a2.67636,2.67636,0,0,1,0-1h2.158a.75.75,0,0,0,0-1.5h-1.478a2.70115,2.70115,0,0,1,2.06879-1A2.641,2.641,0,0,1,13.68457,9.29492Z"/></svg>