<svg width="24" height="24" viewBox="0 0 24 24" fill="none" xmlns="http://www.w3.org/2000/svg">
<path d="M5.52551 6.47461L0.00012147 12L5.52551 17.5254C7.24269 19.2426 9.57167 20.2073 12.0001 20.2073C14.4286 20.2073 16.7576 19.2426 18.4747 17.5254L24.0001 12L18.4747 6.47461C16.7576 4.75744 14.4286 3.79274 12.0001 3.79274C9.57167 3.79274 7.24269 4.75744 5.52551 6.47461Z" fill="#CBD2D8"/>
<path d="M14.6666 14.6667C16.1394 13.1939 16.1394 10.8061 14.6666 9.33333C13.1939 7.86057 10.8061 7.86057 9.33329 9.33333C7.86053 10.8061 7.86053 13.1939 9.33329 14.6667C10.8061 16.1394 13.1939 16.1394 14.6666 14.6667Z" fill="#6A7580"/>
</svg>
