<svg fill="currentColor" id="icons" xmlns="http://www.w3.org/2000/svg" viewBox="0 0 24 24"><title>02-08-expression-m</title><rect id="canvas" width="24" height="24" style="fill:none"/><path d="M17.75342,5.32617H14.49658C12.75,5.32617,12.75,5.083,12.75,4.5498a.75.75,0,1,0-1.5,0c0,.53321,0,.77637-1.74658.77637H6.24658A3.31209,3.31209,0,0,0,3,8.69287V10.1001a.75.75,0,0,0,1.5,0V8.69287a1.81181,1.81181,0,0,1,1.74658-1.8667H9.50342A4.24078,4.24078,0,0,0,12,6.28314a4.24078,4.24078,0,0,0,2.49658.543h3.25684A1.81181,1.81181,0,0,1,19.5,8.69287V10.1001a.75.75,0,0,0,1.5,0V8.69287A3.31209,3.31209,0,0,0,17.75342,5.32617Z"/><path d="M10.28027,13.66992a.74972.74972,0,0,0-1.06054,0L7.25,15.63965,5.28027,13.66992a.74992.74992,0,0,0-1.06054,1.06055L6.18945,16.7002,4.21973,18.66992a.74992.74992,0,1,0,1.06054,1.06055L7.25,17.76074l1.96973,1.96973a.74992.74992,0,1,0,1.06054-1.06055L8.31055,16.7002l1.96972-1.96973A.74973.74973,0,0,0,10.28027,13.66992Z"/><path d="M18.76953,13.66992,16.8,15.63947l-1.96991-1.96955a.74992.74992,0,0,0-1.06055,1.06055l2.28467,2.28418V19.2583a.75.75,0,0,0,1.5,0V16.9906c.01459-.01251.033-.01727.04687-.03113l2.229-2.229a.74992.74992,0,0,0-1.06055-1.06055Z"/></svg>