<svg fill="currentColor" id="icons" xmlns="http://www.w3.org/2000/svg" viewBox="0 0 24 24">
    <title>01-17-external-link-s</title>
    <rect id="canvas" width="24" height="24" style="fill:none" />
    <g id="01-Navigation" stroke="none" stroke-width="1">
        <g id="Navigation-/-01-S-/-01-Arrows-/-01-17-external-link-s">
            <path
                d="M11.07471,6.9047797 C11.4889236,6.9047797 11.82471,7.24057644 11.82471,7.65479 C11.82471,8.06900356 11.4889236,8.40479 11.07471,8.40479 L8.13379,8.40479 C7.78876611,8.4003224 7.50523708,8.67598693 7.5,9.021 L7.5,15.85205 C7.50524255,16.1970607 7.78876831,16.4727221 8.13379,16.46826 L15.05371,16.46826 C15.3987317,16.4727221 15.6822575,16.1970607 15.6875,15.85205 L15.6875,12.94873 C15.6875,12.5345164 16.0232864,12.19873 16.4375,12.19873 C16.8517136,12.19873 17.1875,12.5345164 17.1875,12.94873 L17.1875,15.85205 C17.1814064,17.0251355 16.2268058,17.9718713 15.05371,17.9682703 L8.13379,17.9682703 C6.96069425,17.9718713 6.00609357,17.0251355 6,15.85205 L6,9.021 C6.00609357,7.84791451 6.96069425,6.90117866 8.13379,6.9047797 L11.07471,6.9047797 Z M17.25,6.03174 C17.6641678,6.0318504 17.9998896,6.36757218 18,6.78174 L18,6.78174 L18,9.87549 C18,10.2897036 17.6642136,10.62549 17.25,10.62549 C16.8357864,10.62549 16.5,10.2897036 16.5,9.87549 L16.5,9.87549 L16.5,8.58923 L14.21631,10.87255 C14.026861,11.061999 13.750733,11.1359873 13.4919409,11.0666441 C13.2331487,10.997301 13.031009,10.7951613 12.9616659,10.5363691 C12.8923227,10.277577 12.966311,10.001449 13.15576,9.812 L13.15576,9.812 L15.4364,7.53174 L14.1499,7.53174 C13.7356864,7.53174 13.3999,7.19595356 13.3999,6.78174 C13.3999,6.36752644 13.7356864,6.03174 14.1499,6.03174 L14.1499,6.03174 Z"></path>
        </g>
    </g>
</svg>