<svg fill="currentColor" id="icons" xmlns="http://www.w3.org/2000/svg" viewBox="0 0 24 24">
    <title>01-45-external-link-m</title>
    <rect id="canvas" width="24" height="24" style="fill:none" />
    <g id="01-Navigation" stroke="none" stroke-width="1">
        <g id="Navigation-/-02-M-/-01-Arrows-/-01-45-external-link-m">
            <path
                d="M11.33057,5.08005026 C11.7447836,5.08005026 12.08057,5.41586644 12.08057,5.83008 C12.08057,6.24429356 11.7447836,6.58008 11.33057,6.58008 L11.33057,6.58008 L7.53564,6.58008 C6.97023619,6.57430776 6.50689747,7.0273788 6.5,7.59277 L6.5,7.59277 L6.5,16.40723 C6.50689747,16.9726212 6.97023619,17.4256922 7.53564,17.41992 L7.53564,17.41992 L16.46436,17.41992 C17.0297638,17.4256922 17.4931025,16.9726212 17.5,16.40723 L17.5,16.40723 L17.5,12.66113 C17.5001104,12.2469622 17.8358322,11.9112404 18.25,11.91113 C18.6641678,11.9112404 19,12.2469622 19,12.66113 L19,12.66113 L19,16.40723 C18.992068,17.8006183 17.8577629,18.924657 16.46436,18.9199497 L16.46436,18.9199497 L7.53564,18.9199497 C6.14223714,18.924657 5.00793196,17.8006183 5,16.40723 L5,16.40723 L5,7.59277 C5.00793196,6.19938167 6.14223714,5.07534304 7.53564,5.08005026 L7.53564,5.08005026 Z M19.29834,3.9541 C19.7125156,3.95419936 20.0482496,4.28992437 20.04836,4.7041 L20.04836,4.7041 L20.04836,8.69531 C20.04836,9.10952356 19.7125736,9.44531 19.29836,9.44531 C18.8841464,9.44531 18.54836,9.10952356 18.54836,8.69531 L18.54836,8.69531 L18.54836,6.50977 L15.23,9.82812 C15.0405528,10.0175726 14.7644246,10.0915651 14.5056302,10.0222253 C14.2468358,9.95288548 14.0446923,9.75074769 13.9753452,9.49195529 C13.9059981,9.23316288 13.9799828,8.95703258 14.16943,8.76758 L14.16943,8.76758 L17.48291,5.4541 L15.29834,5.4541 C14.8841264,5.4541 14.54834,5.11831356 14.54834,4.7041 C14.54834,4.28988644 14.8841264,3.9541 15.29834,3.9541 L15.29834,3.9541 Z"></path>
        </g>
    </g>
</svg>