<svg fill="currentColor" id="icons" xmlns="http://www.w3.org/2000/svg" viewBox="0 0 24 24"><title>13-05-facebook-reaction-m</title><rect id="canvas" width="24" height="24" style="fill:none"/><path d="M9.50232,2.99561h-5a1.5,1.5,0,0,0-1.5,1.5v5a1.5,1.5,0,0,0,1.5,1.5h5a1.5,1.5,0,0,0,1.5-1.5v-5A1.5,1.5,0,0,0,9.50232,2.99561ZM7.794,6.33936a.75.75,0,0,1,0,1.5h-.75V9.25a.75.75,0,0,1-1.5,0V7.83936H5.4502a.75.75,0,0,1,0-1.5H5.544V5.7251A1.79615,1.79615,0,0,1,7.3999,4H7.794a.75.75,0,0,1,0,1.5h-.394c-.20361,0-.35595.11865-.35595.2251v.61426Z"/><path d="M13.5376,4.19189a.74989.74989,0,1,0-.375,1.45215A4.67515,4.67515,0,0,1,16.5,10.36328V16.2168h-9V12.9502a.75.75,0,0,0-1.5,0v4.0166a.7502.7502,0,0,0,.75.75H8.76752c-.00135.01837-.01068.03405-.01068.05273a3.24318,3.24318,0,0,0,6.48632,0c0-.01868-.00933-.03436-.01068-.05273H17.25a.7502.7502,0,0,0,.75-.75V10.36328A6.15178,6.15178,0,0,0,13.5376,4.19189Zm.20556,13.57764a1.74321,1.74321,0,0,1-3.48632,0c0-.01868-.00934-.03436-.01069-.05273h3.5077C13.7525,17.73517,13.74316,17.75085,13.74316,17.76953Z"/></svg>