<svg fill="currentColor" id="icons" xmlns="http://www.w3.org/2000/svg" viewBox="0 0 24 24"><title>13-06-facebook-like-m</title><rect id="canvas" width="24" height="24" style="fill:none"/><path d="M19.2876,9.92285a1.91871,1.91871,0,0,0-1.15723-.38379H15.68115c-.05469,0-.08545-.02588-.11767-.09668l.51757-3.706a1.51583,1.51583,0,0,0-.34765-1.20362A1.58092,1.58092,0,0,0,14.5332,4h-.3247a1.9156,1.9156,0,0,0-1.66358.95459l-.41357.72266a.75.75,0,0,0,1.30176.74511l.41357-.72265A.41319.41319,0,0,1,14.2085,5.5l.3872.02881-.51758,3.707a1.57091,1.57091,0,0,0,.373,1.24707,1.62931,1.62931,0,0,0,1.23.55615h2.44922a.42526.42526,0,0,1,.2583.085.35849.35849,0,0,1,.09375.37989l-1.98535,6.9248a.11731.11731,0,0,1-.11523.07129H13.35059a3.961,3.961,0,0,1-2.9336-1.28125.7507.7507,0,0,0-.55517-.24561H8.99854V12.75a.75.75,0,0,0-1.5,0v5.84424H5.53027A.32707.32707,0,0,1,5.5,18.4502V12.75a.75.75,0,0,0-1.5,0v5.7002a1.55818,1.55818,0,0,0,1.45068,1.644H8.24854a.7502.7502,0,0,0,.75-.75v-.8711h.54638A5.47707,5.47707,0,0,0,13.35059,20h3.03125a1.61988,1.61988,0,0,0,1.55761-1.1582l1.98487-6.92432A1.85374,1.85374,0,0,0,19.2876,9.92285Z"/><path d="M9.50232,2.99561h-5a1.5,1.5,0,0,0-1.5,1.5v5a1.5,1.5,0,0,0,1.5,1.5h5a1.5,1.5,0,0,0,1.5-1.5v-5A1.5,1.5,0,0,0,9.50232,2.99561ZM7.794,6.33936a.75.75,0,0,1,0,1.5h-.75V9.25a.75.75,0,0,1-1.5,0V7.83936H5.4502a.75.75,0,0,1,0-1.5H5.544V5.7251A1.79615,1.79615,0,0,1,7.3999,4H7.794a.75.75,0,0,1,0,1.5h-.394c-.20361,0-.35595.11865-.35595.2251v.61426Z"/></svg>