<svg fill="currentColor" id="icons" xmlns="http://www.w3.org/2000/svg" viewBox="0 0 24 24"><title>13-03-facebook-rating-m</title><rect id="canvas" width="24" height="24" style="fill:none"/><path d="M9.50232,2.99561h-5a1.5,1.5,0,0,0-1.5,1.5v5a1.5,1.5,0,0,0,1.5,1.5h5a1.5,1.5,0,0,0,1.5-1.5v-5A1.5,1.5,0,0,0,9.50232,2.99561ZM7.794,6.33936a.75.75,0,0,1,0,1.5h-.75V9.25a.75.75,0,0,1-1.5,0V7.83936H5.4502a.75.75,0,0,1,0-1.5H5.544V5.7251A1.79615,1.79615,0,0,1,7.3999,4H7.794a.75.75,0,0,1,0,1.5h-.394c-.20361,0-.35595.11865-.35595.2251v.61426Z"/><path d="M17.7998,19.9248a2.20223,2.20223,0,0,1-2.1997-2.1997V6.2749a2.2,2.2,0,0,1,4.3999,0V17.7251A2.20234,2.20234,0,0,1,17.7998,19.9248Zm0-14.3496a.70059.70059,0,0,0-.6997.6997V17.7251a.7.7,0,0,0,1.3999,0V6.2749A.7007.7007,0,0,0,17.7998,5.5752Z"/><path d="M12,19.9248a2.20234,2.20234,0,0,1-2.2002-2.1997V12.4502a.75.75,0,0,1,1.5,0v5.2749a.7002.7002,0,0,0,1.4004,0V10.2749a.70255.70255,0,0,0-.3628-.61377.74986.74986,0,0,1,.72559-1.3125A2.20173,2.20173,0,0,1,14.2002,10.2749v7.4502A2.20234,2.20234,0,0,1,12,19.9248Z"/><path d="M6.2002,19.9248A2.20234,2.20234,0,0,1,4,17.7251V14.2749a2.2,2.2,0,0,1,4.3999,0v3.4502A2.20223,2.20223,0,0,1,6.2002,19.9248Zm0-6.3496a.7007.7007,0,0,0-.7002.6997v3.4502a.7.7,0,0,0,1.3999,0V14.2749A.70059.70059,0,0,0,6.2002,13.5752Z"/></svg>