<svg fill="currentColor" id="icons" xmlns="http://www.w3.org/2000/svg" viewBox="0 0 24 24"><title>13-02-facebook-post-m</title><rect id="canvas" width="24" height="24" style="fill:none"/><path d="M17.25,20.25H6.75A2.7528,2.7528,0,0,1,4,17.5V13a.75.75,0,0,1,1.5,0v4.5a1.25116,1.25116,0,0,0,1.25,1.25h10.5A1.25116,1.25116,0,0,0,18.5,17.5V9a1.25116,1.25116,0,0,0-1.25-1.25H12.8501a.75.75,0,1,1,0-1.5H17.25A2.7528,2.7528,0,0,1,20,9v8.5A2.7528,2.7528,0,0,1,17.25,20.25Z"/><path d="M16,16.75H8a.75.75,0,0,1,0-1.5h8a.75.75,0,0,1,0,1.5Z"/><path d="M12.8501,13.75H8a.75.75,0,0,1,0-1.5h4.8501a.75.75,0,0,1,0,1.5Z"/><path d="M9.50232,2.99561h-5a1.5,1.5,0,0,0-1.5,1.5v5a1.5,1.5,0,0,0,1.5,1.5h5a1.5,1.5,0,0,0,1.5-1.5v-5A1.5,1.5,0,0,0,9.50232,2.99561ZM7.794,6.33936a.75.75,0,0,1,0,1.5h-.75V9.25a.75.75,0,0,1-1.5,0V7.83936H5.4502a.75.75,0,0,1,0-1.5H5.544V5.7251A1.79615,1.79615,0,0,1,7.3999,4H7.794a.75.75,0,0,1,0,1.5h-.394c-.20361,0-.35595.11865-.35595.2251v.61426Z"/></svg>