<svg fill="currentColor" id="icons" xmlns="http://www.w3.org/2000/svg" viewBox="0 0 24 24"><title>01-17-facebook-fill-m</title><rect id="canvas" width="24" height="24" style="fill:#fff;fill-opacity:0.1"/><path d="M16.25,4H7.75A3.75442,3.75442,0,0,0,4,7.75v8.5A3.75473,3.75473,0,0,0,7.75,20h4.22461V13.48633h-.69922a.74976.74976,0,1,1,0-1.49951h.69922v-.76075a2.91009,2.91009,0,0,1,2.88867-2.92431H15.625a.75.75,0,0,1,0,1.5h-.76172a1.40862,1.40862,0,0,0-1.38867,1.42431v.76075H15.625a.74976.74976,0,1,1,0,1.49951H13.47461V20H16.25A3.75473,3.75473,0,0,0,20,16.25V7.75A3.75442,3.75442,0,0,0,16.25,4Z"/></svg>