<svg fill="currentColor" id="icons" xmlns="http://www.w3.org/2000/svg" viewBox="0 0 24 24"><title>13-04-facebook-comment-m</title><rect id="canvas" width="24" height="24" style="fill:none"/><path d="M9.50232,2.99561h-5a1.5,1.5,0,0,0-1.5,1.5v5a1.5,1.5,0,0,0,1.5,1.5h5a1.5,1.5,0,0,0,1.5-1.5v-5A1.5,1.5,0,0,0,9.50232,2.99561ZM7.794,6.33936a.75.75,0,0,1,0,1.5h-.75V9.25a.75.75,0,0,1-1.5,0V7.83936H5.4502a.75.75,0,0,1,0-1.5H5.544V5.7251A1.79615,1.79615,0,0,1,7.3999,4H7.794a.75.75,0,0,1,0,1.5h-.394c-.20361,0-.35595.11865-.35595.2251v.61426Z"/><path d="M12.26807,20a1.64852,1.64852,0,0,1-.65625-.13525,1.67427,1.67427,0,0,1-1.00879-1.5293l-.00684-1.8794H9.81445a6.15332,6.15332,0,0,1-5.23193-2.90722A.75013.75013,0,1,1,5.853,12.751a4.66,4.66,0,0,0,3.96142,2.20507h1.52881a.74988.74988,0,0,1,.75.74707l.00977,2.62549a.17286.17286,0,0,0,.103.15869c.104.01075.14307-.00341.17286-.03222,1.9917-1.90088,5.001-4.7749,5.12939-4.90235A4.73,4.73,0,0,0,14.18555,5.5H13.1001a.75.75,0,1,1,0-1.5h1.08545a6.22988,6.22988,0,0,1,4.38916,10.60742l.00049-.00049c.00439,0-.13135.13282-5.16016,4.93311A1.65517,1.65517,0,0,1,12.26807,20Z"/></svg>