<svg fill="currentColor" id="icons" xmlns="http://www.w3.org/2000/svg" viewBox="0 0 24 24"><title>02-05-favourite-check-m</title><rect id="canvas" width="24" height="24" style="fill:none"/><path d="M19.14941,14.794l-2.73388,2.71679L15.1958,16.34766a.75013.75013,0,1,0-1.03516,1.08593l1.748,1.667a.75071.75071,0,0,0,1.04639-.01075l3.252-3.23144A.75027.75027,0,0,0,19.14941,14.794Z"/><path d="M17.47607,6.3291a4.44315,4.44315,0,0,1,1.36182,3.001,4.82729,4.82729,0,0,1-.20947,1.70215.75008.75008,0,0,0,1.43554.43554,6.23449,6.23449,0,0,0,.27051-2.23535A5.96242,5.96242,0,0,0,18.44678,5.1875,5.42416,5.42416,0,0,0,15.11865,4,4.69743,4.69743,0,0,0,12.001,5.19043,4.70715,4.70715,0,0,0,8.88232,4,4.99937,4.99937,0,0,0,5.5376,5.28516,5.62313,5.62313,0,0,0,3.6665,9.22852a7.34862,7.34862,0,0,0,2.13184,5.42871,56.86355,56.86355,0,0,0,5.08594,4.92871.74951.74951,0,1,0,.97265-1.14063,55.58438,55.58438,0,0,1-4.94482-4.793,5.873,5.873,0,0,1-1.749-4.32519A4.12047,4.12047,0,0,1,6.52,6.418,3.52779,3.52779,0,0,1,8.88232,5.5a3.18859,3.18859,0,0,1,2.51661,1.23633.74794.74794,0,0,0,.60253.30371H12.002a.74909.74909,0,0,0,.603-.30469A3.176,3.176,0,0,1,15.11865,5.5,3.89367,3.89367,0,0,1,17.47607,6.3291Z"/></svg>