<svg fill="currentColor" id="icons" xmlns="http://www.w3.org/2000/svg" viewBox="0 0 24 24"><title>02-01-favourite-m</title><rect id="canvas" width="24" height="24" style="fill:none"/><path d="M10.88379,19.58691a1.714,1.714,0,0,0,2.23535,0,57.32142,57.32142,0,0,0,5.09229-4.93457,7.38987,7.38987,0,0,0,2.123-5.42334,5.97064,5.97064,0,0,0-1.88818-4.043A5.43134,5.43134,0,0,0,15.11865,4,4.695,4.695,0,0,0,12.001,5.19043,4.70715,4.70715,0,0,0,8.88232,4,5.0055,5.0055,0,0,0,5.5376,5.28516,5.62106,5.62106,0,0,0,3.6665,9.228a7.3471,7.3471,0,0,0,2.13184,5.42822A57.21017,57.21017,0,0,0,10.88379,19.58691ZM5.16309,9.32666a4.12064,4.12064,0,0,1,1.35644-2.9082A3.52989,3.52989,0,0,1,8.88232,5.5a3.18473,3.18473,0,0,1,2.51612,1.23682.75092.75092,0,0,0,.603.30371H12.002a.74819.74819,0,0,0,.603-.30518A3.176,3.176,0,0,1,15.11865,5.5a3.89954,3.89954,0,0,1,2.35742.82861A4.44056,4.44056,0,0,1,18.8374,9.32422l.00049.00488a5.91,5.91,0,0,1-1.7417,4.31983A55.68684,55.68684,0,0,1,12.145,18.4458a.21676.21676,0,0,1-.2876-.00049,55.55952,55.55952,0,0,1-4.94531-4.79345A5.87247,5.87247,0,0,1,5.16309,9.32666Z"/></svg>