<svg fill="currentColor" id="icons" xmlns="http://www.w3.org/2000/svg" viewBox="0 0 24 24"><title>02-02-favourite-block-m</title><rect id="canvas" width="24" height="24" style="fill:none"/><path d="M16.92383,12.89111a3.75,3.75,0,1,0,3.75,3.75A3.75442,3.75442,0,0,0,16.92383,12.89111Zm0,1.5a2.2231,2.2231,0,0,1,.97815.23322L14.90692,17.619a2.22273,2.22273,0,0,1-.23309-.97791A2.25277,2.25277,0,0,1,16.92383,14.39111Zm0,4.5a2.22467,2.22467,0,0,1-.94995-.218l2.98217-2.98181a2.22462,2.22462,0,0,1,.21778.94976A2.25277,2.25277,0,0,1,16.92383,18.89111Z"/><path d="M10.88477,19.58691a.74988.74988,0,0,0,.97265-1.1416,55.467,55.467,0,0,1-4.94531-4.79345,5.86107,5.86107,0,0,1-1.748-4.3252,4.12079,4.12079,0,0,1,1.35547-2.9082A3.52867,3.52867,0,0,1,8.88184,5.5a3.19059,3.19059,0,0,1,2.51757,1.2373.75024.75024,0,0,0,.60254.30323h.001a.75164.75164,0,0,0,.60352-.30567A3.16685,3.16685,0,0,1,15.11816,5.5a3.90234,3.90234,0,0,1,2.3584.82861A4.45208,4.45208,0,0,1,18.83789,9.3291a4.86464,4.86464,0,0,1-.209,1.7041.7498.7498,0,0,0,1.43554.4336A6.26421,6.26421,0,0,0,20.335,9.23242,5.975,5.975,0,0,0,18.44629,5.186,5.43268,5.43268,0,0,0,15.11816,4,4.69166,4.69166,0,0,0,12.001,5.19043,4.709,4.709,0,0,0,8.88184,4,5.00643,5.00643,0,0,0,5.53711,5.28516,5.62382,5.62382,0,0,0,3.667,9.22754a7.33784,7.33784,0,0,0,2.13184,5.42871A56.899,56.899,0,0,0,10.88477,19.58691Z"/></svg>