<svg fill="currentColor" id="icons" xmlns="http://www.w3.org/2000/svg" viewBox="0 0 24 24"><title>02-06-favourite-edit-m</title><rect id="canvas" width="24" height="24" style="fill:none"/><path d="M19.08075,14.0741l-.00348.00341-4.18768,4.22913.00659,1.0603,1.05756-.00311.00341-.00342,4.18769-4.22912a.75.75,0,0,0-1.06409-1.05719Z"/><path d="M17.47656,6.3291a4.4445,4.4445,0,0,1,1.36133,3,4.866,4.866,0,0,1-.209,1.7041.7498.7498,0,0,0,1.43554.4336A6.26292,6.26292,0,0,0,20.335,9.23242a5.97711,5.97711,0,0,0-1.88769-4.0459A5.43181,5.43181,0,0,0,15.11816,4,4.69411,4.69411,0,0,0,12.001,5.19043,4.71149,4.71149,0,0,0,8.88184,4,5.00216,5.00216,0,0,0,5.53711,5.28516,5.62419,5.62419,0,0,0,3.667,9.22852a7.33964,7.33964,0,0,0,2.13184,5.42871,56.95829,56.95829,0,0,0,5.08594,4.92968.75025.75025,0,1,0,.97265-1.14257,55.29088,55.29088,0,0,1-4.94531-4.792,5.86165,5.86165,0,0,1-1.748-4.32519A4.1212,4.1212,0,0,1,6.51953,6.418,3.53058,3.53058,0,0,1,8.88184,5.5a3.18911,3.18911,0,0,1,2.51757,1.2373A.75115.75115,0,0,0,12.002,7.04h.001a.74893.74893,0,0,0,.60352-.30566A3.1669,3.1669,0,0,1,15.11816,5.5,3.89755,3.89755,0,0,1,17.47656,6.3291Z"/></svg>