<svg fill="currentColor" id="icons" xmlns="http://www.w3.org/2000/svg" viewBox="0 0 24 24"><title>02-04-favourite-add-m</title><rect id="canvas" width="24" height="24" style="fill:none"/><path d="M19.77344,16h-2V14a.75.75,0,0,0-1.5,0v2h-2a.75.75,0,0,0,0,1.5h2v2a.75.75,0,0,0,1.5,0v-2h2a.75.75,0,0,0,0-1.5Z"/><path d="M10.88477,19.58691a.75025.75025,0,1,0,.97265-1.14257,55.29088,55.29088,0,0,1-4.94531-4.792,5.86255,5.86255,0,0,1-1.748-4.32568,4.12079,4.12079,0,0,1,1.35547-2.9082A3.52867,3.52867,0,0,1,8.88184,5.5a3.19059,3.19059,0,0,1,2.51757,1.2373.75024.75024,0,0,0,.60254.30323h.001a.75164.75164,0,0,0,.60352-.30567A3.16685,3.16685,0,0,1,15.11816,5.5a3.90234,3.90234,0,0,1,2.3584.82861A4.45208,4.45208,0,0,1,18.83789,9.3291a4.86464,4.86464,0,0,1-.209,1.7041.7498.7498,0,0,0,1.43554.4336A6.26421,6.26421,0,0,0,20.335,9.23242,5.975,5.975,0,0,0,18.44629,5.186,5.43268,5.43268,0,0,0,15.11816,4,4.69166,4.69166,0,0,0,12.001,5.19043,4.709,4.709,0,0,0,8.88184,4,5.00643,5.00643,0,0,0,5.53711,5.28516,5.62382,5.62382,0,0,0,3.667,9.22754a7.34088,7.34088,0,0,0,2.13184,5.42969A56.95829,56.95829,0,0,0,10.88477,19.58691Z"/></svg>