<svg fill="currentColor" id="icons" xmlns="http://www.w3.org/2000/svg" viewBox="0 0 24 24"><title>02-03-favourite-remove-m</title><rect id="canvas" width="24" height="24" style="fill:none"/><path d="M20.2041,13.86133a.74973.74973,0,0,0-1.06055,0l-1.96972,1.96972L15.2041,13.86133a.74992.74992,0,0,0-1.06055,1.06055l1.96973,1.96972-1.96973,1.96973a.74992.74992,0,1,0,1.06055,1.06055l1.96973-1.96973,1.96972,1.96973a.74992.74992,0,0,0,1.06055-1.06055L18.23438,16.8916l1.96972-1.96972A.74973.74973,0,0,0,20.2041,13.86133Z"/><path d="M10.88428,19.58594a.74951.74951,0,1,0,.97265-1.14063,55.58438,55.58438,0,0,1-4.94482-4.793,5.874,5.874,0,0,1-1.749-4.32568,4.12064,4.12064,0,0,1,1.35644-2.9082A3.52989,3.52989,0,0,1,8.88232,5.5a3.18473,3.18473,0,0,1,2.51612,1.23682.75092.75092,0,0,0,.603.30371H12.002a.74819.74819,0,0,0,.603-.30518A3.176,3.176,0,0,1,15.11865,5.5a3.89954,3.89954,0,0,1,2.35742.82861,4.44517,4.44517,0,0,1,1.36182,3.001,4.83255,4.83255,0,0,1-.20947,1.70312.74994.74994,0,0,0,1.43554.43458,6.23066,6.23066,0,0,0,.27051-2.23487A5.96922,5.96922,0,0,0,18.44629,5.186,5.43134,5.43134,0,0,0,15.11865,4,4.695,4.695,0,0,0,12.001,5.19043,4.70715,4.70715,0,0,0,8.88232,4,5.0055,5.0055,0,0,0,5.5376,5.28516,5.62106,5.62106,0,0,0,3.6665,9.228a7.35014,7.35014,0,0,0,2.13184,5.4292A56.86355,56.86355,0,0,0,10.88428,19.58594Z"/></svg>