<svg fill="currentColor" id="icons" xmlns="http://www.w3.org/2000/svg" viewBox="0 0 24 24"><title>09-13-fieldset-m</title><rect id="canvas" width="24" height="24" style="fill:none"/><path d="M12.03027,7.2251H16.292a.75.75,0,0,0,0-1.5H12.03027a.75.75,0,0,0,0,1.5Z"/><path d="M12.03027,9.875H16.292a.75.75,0,0,0,0-1.5H12.03027a.75.75,0,0,0,0,1.5Z"/><circle cx="8.19995" cy="7.79999" r="1.5"/><path d="M18.24609,2.94873h-12.5a2.75311,2.75311,0,0,0-2.75,2.75V18.19922a2.7528,2.7528,0,0,0,2.75,2.75h12.5a2.75279,2.75279,0,0,0,2.75-2.75V5.69873A2.75311,2.75311,0,0,0,18.24609,2.94873Zm-12.5,1.5h12.5a1.25116,1.25116,0,0,1,1.25,1.25V11.1748h-15V5.69873A1.25116,1.25116,0,0,1,5.74609,4.44873Zm12.5,15.00049h-12.5a1.25116,1.25116,0,0,1-1.25-1.25V12.6748h15v5.52442A1.25116,1.25116,0,0,1,18.24609,19.44922Z"/></svg>