<svg fill="currentColor" id="icons" xmlns="http://www.w3.org/2000/svg" viewBox="0 0 24 24"><title>01-07-file-remove-m</title><rect id="canvas" width="24" height="24" style="fill:none"/><path d="M20.28027,14.002a.74972.74972,0,0,0-1.06054,0L17.25,15.97168,15.28027,14.002a.74992.74992,0,0,0-1.06054,1.06055l1.96972,1.96973L14.21973,19.002a.74992.74992,0,1,0,1.06054,1.06055L17.25,18.09277l1.96973,1.96973A.74992.74992,0,0,0,20.28027,19.002l-1.96972-1.96972,1.96972-1.96973A.74973.74973,0,0,0,20.28027,14.002Z"/><path d="M7.75,21h4.1499a.75.75,0,1,0,0-1.5H7.75A1.25116,1.25116,0,0,1,6.5,18.25V5.75A1.25116,1.25116,0,0,1,7.75,4.5h4.34082a1.24595,1.24595,0,0,1,.86377.34619l4.15918,3.97608A1.2537,1.2537,0,0,1,17.5,9.72559V11.75a.75.75,0,0,0,1.5,0V9.72559a2.76273,2.76273,0,0,0-.8501-1.9878L13.99072,3.76172A2.73852,2.73852,0,0,0,12.09082,3H7.75A2.7528,2.7528,0,0,0,5,5.75v12.5A2.7528,2.7528,0,0,0,7.75,21Z"/></svg>