<svg fill="currentColor" xmlns="http://www.w3.org/2000/svg" width="48" height="48"
    viewBox="0 0 48 48">
    <g fill="none" fill-rule="evenodd">
        <g fill="currentColor" fill-rule="nonzero">
            <g>
                <g>
                    <path
                        d="M26.364 8c.73 0 1.428.29 1.944.805l7.387 7.396c.516.516.805 1.216.805 1.945V36.75c0 1.52-1.23 2.75-2.748 2.75H13.748C12.23 39.5 11 38.27 11 36.75v-26C11 9.231 12.23 8 13.748 8zM25 9.5H13.748c-.69 0-1.248.56-1.248 1.25v26c0 .69.559 1.25 1.248 1.25h20.004C34.44 38 35 37.44 35 36.75V19.5h-7.261c-1.456 0-2.648-1.138-2.734-2.573L25 16.76V9.5zm.952 16.5c.712 0 1.287.577 1.287 1.288v1.375h4.665c.414 0 .75.336.75.75 0 .379-.282.693-.648.743l-.102.007h-1.978c.778.836 1.252 1.957 1.252 3.187 0 .414-.335.75-.75.75s-.75-.336-.75-.75c0-1.501-1.042-2.751-2.44-3.09v1.277c0 .71-.574 1.288-1.286 1.288h-4.25c-.711 0-1.287-.577-1.287-1.288V30.26c-1.398.338-2.44 1.588-2.44 3.089 0 .414-.335.75-.75.75-.413 0-.75-.336-.75-.75 0-1.23.476-2.351 1.252-3.187H15.75c-.414 0-.75-.336-.75-.75 0-.38.282-.693.648-.743l.102-.007h4.665v-1.375c0-.711.576-1.288 1.288-1.288zm-.213 1.499h-3.824v3.826h3.824v-3.826zm.76-17.973v7.234c0 .642.489 1.17 1.114 1.233l.126.007h7.253c-.033-.278-.158-.539-.357-.739l-7.39-7.396c-.2-.2-.466-.307-.745-.339z"
                        transform="translate(-2590 -3446) translate(2586 3442) translate(4 4)" />
                </g>
            </g>
        </g>
    </g>
</svg>