<svg fill="currentColor" id="icons" xmlns="http://www.w3.org/2000/svg" viewBox="0 0 24 24"><title>01-17-file-type-customers-m</title><rect id="canvas" width="24" height="24" style="fill:none"/><circle cx="12" cy="11.75" r="1.5"/><path d="M12.648,14.09961h-1.2959A2.46769,2.46769,0,0,0,8.9502,16.62305v.627a.75.75,0,0,0,1.5,0v-.627a.9696.9696,0,0,1,.90185-1.02344H12.648a.9696.9696,0,0,1,.90185,1.02344v.627a.75.75,0,0,0,1.5,0v-.627A2.46769,2.46769,0,0,0,12.648,14.09961Z"/><path d="M13.99072,3.76172A2.73852,2.73852,0,0,0,12.09082,3H7.75A2.7528,2.7528,0,0,0,5,5.75v12.5A2.7528,2.7528,0,0,0,7.75,21h8.5A2.7528,2.7528,0,0,0,19,18.25V9.72559a2.76273,2.76273,0,0,0-.8501-1.9878ZM17.5,18.25a1.25116,1.25116,0,0,1-1.25,1.25H7.75A1.25116,1.25116,0,0,1,6.5,18.25V5.75A1.25116,1.25116,0,0,1,7.75,4.5h4.34082a1.24595,1.24595,0,0,1,.86377.34619l4.15918,3.97608A1.2537,1.2537,0,0,1,17.5,9.72559Z"/></svg>