<svg fill="currentColor" xmlns="http://www.w3.org/2000/svg" width="48" height="48"
    viewBox="0 0 48 48">
    <g fill="none" fill-rule="evenodd">
        <g fill="currentColor" fill-rule="nonzero">
            <g>
                <g>
                    <path
                        d="M26.364 8c.73 0 1.428.29 1.944.805l7.387 7.396c.516.516.805 1.216.805 1.945V36.75c0 1.52-1.23 2.75-2.748 2.75H13.748C12.23 39.5 11 38.27 11 36.75v-26C11 9.231 12.23 8 13.748 8zM25 9.5H13.748c-.69 0-1.248.56-1.248 1.25v26c0 .69.559 1.25 1.248 1.25h20.004C34.44 38 35 37.44 35 36.75V19.5h-7.261c-1.456 0-2.648-1.138-2.734-2.573L25 16.76V9.5zM21.75 25c.199 0 .39.079.53.22.141.14.22.331.22.53 0 .16-.05.313-.143.44l-.077.09-2.47 2.47 2.47 2.47c.19.189.265.465.196.725-.07.259-.272.461-.531.53-.222.06-.457.014-.64-.12l-.085-.075-3-3c-.141-.14-.22-.331-.22-.53 0-.16.05-.313.143-.44l.077-.09 3-3c.14-.141.331-.22.53-.22zm4.948.147l.084.073 3 3c.14.14.22.331.22.53 0 .16-.05.313-.143.44l-.077.09-3 3c-.19.19-.466.265-.725.196-.259-.07-.461-.272-.53-.531-.06-.222-.014-.457.12-.64l.075-.085 2.47-2.47-2.47-2.47c-.292-.293-.292-.767 0-1.06.267-.265.683-.29.976-.073zM26.5 9.527v7.233c0 .642.488 1.17 1.113 1.233l.126.007h7.253c-.033-.278-.158-.539-.357-.739l-7.39-7.396c-.2-.2-.466-.307-.745-.339z"
                        transform="translate(-1338 -3446) translate(1334 3442) translate(4 4)" />
                </g>
            </g>
        </g>
    </g>
</svg>