<svg fill="currentColor" xmlns="http://www.w3.org/2000/svg" width="48" height="48"
    viewBox="0 0 48 48">
    <g fill="none" fill-rule="evenodd">
        <g fill="currentColor" fill-rule="nonzero">
            <g>
                <g>
                    <path
                        d="M26.364 10c.73 0 1.428.29 1.944.805l7.387 7.396c.516.516.805 1.216.805 1.945V38.75c0 1.52-1.23 2.75-2.748 2.75H13.748C12.23 41.5 11 40.27 11 38.75v-26c0-1.519 1.23-2.75 2.748-2.75zM25 11.5H13.748c-.69 0-1.248.56-1.248 1.25v26c0 .69.559 1.25 1.248 1.25h20.004C34.44 40 35 39.44 35 38.75V21.5h-7.261c-1.456 0-2.648-1.138-2.734-2.573L25 18.76V11.5zm-1 10.75c3.728 0 6.75 3.022 6.75 6.75s-3.022 6.75-6.75 6.75-6.75-3.022-6.75-6.75 3.022-6.75 6.75-6.75zm0 1.5c-2.9 0-5.25 2.35-5.25 5.25s2.35 5.25 5.25 5.25 5.25-2.35 5.25-5.25-2.35-5.25-5.25-5.25zm-.257 2.882l2.366 1.599c.243.162.391.454.391.769s-.148.606-.39.769l-2.367 1.599c-.129.086-.276.132-.427.132-.449.001-.814-.402-.816-.901v-3.198c0-.325.159-.625.414-.784.259-.161.575-.155.829.015zM26.5 11.526v7.234c0 .642.488 1.17 1.113 1.233l.126.007h7.253c-.033-.278-.158-.539-.357-.739l-7.39-7.396c-.2-.2-.466-.307-.745-.339z"
                        transform="translate(-1964 -3446) translate(1960 3442) translate(4 4)" />
                </g>
            </g>
        </g>
    </g>
</svg>