<svg fill="currentColor" id="icons" xmlns="http://www.w3.org/2000/svg" viewBox="0 0 24 24"><title>01-14-file-type-numbers-m</title><rect id="canvas" width="24" height="24" style="fill:none"/><path d="M13.99121,3.76172A2.74057,2.74057,0,0,0,12.09082,3H7.75A2.7528,2.7528,0,0,0,5,5.75v12.5A2.7528,2.7528,0,0,0,7.75,21h8.5A2.7528,2.7528,0,0,0,19,18.25V9.72559a2.76389,2.76389,0,0,0-.84961-1.9878ZM17.5,18.25a1.25116,1.25116,0,0,1-1.25,1.25H7.75A1.25116,1.25116,0,0,1,6.5,18.25V5.75A1.25116,1.25116,0,0,1,7.75,4.5h4.34082a1.2439,1.2439,0,0,1,.86328.34619l4.15918,3.97559A1.255,1.255,0,0,1,17.5,9.72559Z"/><path d="M15.25,11.47119h-.16815l.05389-.36035a.75042.75042,0,0,0-1.48437-.22168l-.0871.582H11.24988l.05481-.35742a.74989.74989,0,0,0-1.48242-.22754l-.08973.585H9.34082a.75.75,0,0,0,0,1.5h.16162l-.39233,2.55762H8.75a.75.75,0,0,0,0,1.5h.13l-.0548.35742a.74989.74989,0,1,0,1.48242.22754l.08972-.585H12.7326l-.05389.36035a.75063.75063,0,0,0,.63086.85254.73345.73345,0,0,0,.11231.0083.75053.75053,0,0,0,.74121-.63916l.08709-.582h.409a.75.75,0,0,0,0-1.5h-.18451l.38269-2.55762H15.25a.75.75,0,0,0,0-1.5Zm-2.29291,4.05762H10.62744l.39234-2.55762h2.32006Z"/></svg>