<svg fill="currentColor" id="icons" xmlns="http://www.w3.org/2000/svg" viewBox="0 0 32 32"><defs><style>.cls-1{fill:#fff;opacity:0;}</style></defs><title>file-type-default</title><rect id="canvas" class="cls-1" width="32" height="32"/><path d="M17.33105,17.06738l-2.95947,2.96a.74992.74992,0,0,0,1.06055,1.06055l2.95947-2.96A.72265.72265,0,0,1,19.415,19.14844l-3.9375,3.91894a1.85808,1.85808,0,0,1-2.5708,0,1.81772,1.81772,0,0,1,0-2.57031l5.6167-5.61719a.74992.74992,0,0,0-1.06055-1.06054l-5.6167,5.61718a3.3175,3.3175,0,0,0,4.69092,4.69239l3.9375-3.919a2.225,2.225,0,0,0,0-3.14258A2.276,2.276,0,0,0,17.33105,17.06738Z"/><path d="M18.88379,3.09814A3.94785,3.94785,0,0,0,16.14551,2H9.17432A3.96655,3.96655,0,0,0,5.21191,5.96191V26.03809A3.96655,3.96655,0,0,0,9.17432,30H22.82617a3.96645,3.96645,0,0,0,3.96192-3.96191V12.34717A3.97591,3.97591,0,0,0,25.56348,9.4834Zm6.4043,22.94A2.46481,2.46481,0,0,1,22.82617,28.5H9.17432a2.46492,2.46492,0,0,1-2.46241-2.46191V5.96191A2.46492,2.46492,0,0,1,9.17432,3.5h6.97119a2.45066,2.45066,0,0,1,1.70117.68213l6.68066,6.38574a2.47223,2.47223,0,0,1,.76075,1.7793Z"/></svg>