<svg fill="currentColor" width="48" height="48" viewBox="0 0 48 48" fill="none"
    xmlns="http://www.w3.org/2000/svg">
    <path fill-rule="evenodd" clip-rule="evenodd"
        d="M28.308 8.80537L35.695 16.2014C36.211 16.7174 36.5 17.4174 36.5 18.1464V36.7504C36.5 38.2694 35.271 39.5004 33.752 39.5004H13.748C12.23 39.5004 11 38.2694 11 36.7504V10.7504C11 9.23137 12.23 8.00037 13.748 8.00037H26.364C27.094 8.00037 27.792 8.29037 28.308 8.80537ZM35 36.7504C35 37.4404 34.441 38.0004 33.752 38.0004H13.748C13.059 38.0004 12.5 37.4404 12.5 36.7504V10.7504C12.5 10.0594 13.059 9.50037 13.748 9.50037H25V16.7604L25.005 16.9274C25.091 18.3624 26.283 19.5004 27.739 19.5004H35V36.7504ZM34.635 17.2614C34.834 17.4614 34.959 17.7224 34.992 18.0004H27.739L27.613 17.9934C26.988 17.9304 26.5 17.4024 26.5 16.7604V9.52637C26.779 9.55837 27.046 9.66537 27.246 9.86537L34.635 17.2614Z"
        fill="currentColor" />
</svg>