<svg fill="currentColor" id="icons" xmlns="http://www.w3.org/2000/svg" viewBox="0 0 24 24"><title>01-10-file-edit-m</title><rect id="canvas" width="24" height="24" style="fill:none"/><path d="M19.16943,13.95709l-.00348.00348L14.97833,18.1897l.00653,1.0603,1.05756-.00311.00348-.00348,4.18762-4.22907a.75.75,0,0,0-1.06409-1.05725Z"/><path d="M7.75,4.5h4.34082a1.2439,1.2439,0,0,1,.86328.34619l4.15918,3.97559A1.255,1.255,0,0,1,17.5,9.72559V11.75a.75.75,0,0,0,1.5,0V9.72559a2.76389,2.76389,0,0,0-.84961-1.9878L13.99121,3.76172A2.74057,2.74057,0,0,0,12.09082,3H7.75A2.7528,2.7528,0,0,0,5,5.75v12.5A2.7528,2.7528,0,0,0,7.75,21h4.15039a.75.75,0,1,0,0-1.5H7.75A1.25116,1.25116,0,0,1,6.5,18.25V5.75A1.25116,1.25116,0,0,1,7.75,4.5Z"/></svg>