<svg fill="currentColor" id="icons" xmlns="http://www.w3.org/2000/svg" viewBox="0 0 24 24"><title>01-16-file-type-table-m</title><rect id="canvas" width="24" height="24" style="fill:none"/><path d="M13.99072,3.76172A2.73852,2.73852,0,0,0,12.09082,3H7.75A2.7528,2.7528,0,0,0,5,5.75v12.5A2.7528,2.7528,0,0,0,7.75,21h8.5A2.7528,2.7528,0,0,0,19,18.25V9.72559a2.76273,2.76273,0,0,0-.8501-1.9878ZM6.5,13.2002H9.93652v2.48339H6.5083L6.5,15.68524Zm4.93652,0H17.5v2.49249c-.01569-.001-.029-.0091-.04492-.0091H11.43652ZM7.75,4.5h4.34082a1.24595,1.24595,0,0,1,.86377.34619l4.15918,3.97608A1.2537,1.2537,0,0,1,17.5,9.72559V11.7002H6.5V5.75A1.25116,1.25116,0,0,1,7.75,4.5ZM6.5,18.25V17.182l.0083.00164H9.93652V19.5H7.75A1.25116,1.25116,0,0,1,6.5,18.25Zm9.75,1.25H11.43652V17.18359h6.01856c.01593,0,.02923-.00811.04492-.00909V18.25A1.25116,1.25116,0,0,1,16.25,19.5Z"/></svg>