<svg fill="currentColor" xmlns="http://www.w3.org/2000/svg" width="48" height="48"
    viewBox="0 0 48 48">
    <g fill="none" fill-rule="evenodd">
        <g fill="currentColor" fill-rule="nonzero">
            <g>
                <g>
                    <path
                        d="M26.364 8c.73 0 1.428.29 1.943.805l7.388 7.395c.516.516.805 1.216.805 1.946V36.75c0 1.518-1.23 2.75-2.747 2.75H13.748C12.231 39.5 11 38.268 11 36.75v-26C11 9.231 12.23 8 13.748 8h12.616zm-9.388 25H12.5v3.75c0 .647.491 1.18 1.12 1.244l.128.006h3.228v-5zm1.5 5h4.5v-5h-4.5v5zM35 33H24.476v5h9.277c.645 0 1.176-.492 1.241-1.123L35 36.75V33zm-22.5-1.5h4.476V26H12.5v5.5zm5.976 0h4.5V26h-4.5v5.5zm6.001 0H35V26H24.477v5.5zM25 9.5H13.748c-.689 0-1.248.56-1.248 1.25V24.5H35v-5h-7.26c-1.457 0-2.648-1.138-2.735-2.573L25 16.76V9.5zm1.505.008H26.5v7.252c0 .642.488 1.17 1.113 1.233l.127.007h7.251c-.032-.279-.157-.54-.356-.739l-7.388-7.396c-.235-.234-.55-.365-.883-.365l.141.008z"
                        transform="translate(-712 -3603) translate(708 3599) translate(4 4)" />
                </g>
            </g>
        </g>
    </g>
</svg>