<svg fill="currentColor" xmlns="http://www.w3.org/2000/svg" width="48" height="48"
    viewBox="0 0 48 48">
    <g fill="none" fill-rule="evenodd">
        <g fill="currentColor" fill-rule="nonzero">
            <g>
                <g>
                    <path
                        d="M26.331 8.25c.654 0 1.282.236 1.773.66l.143.134 7.245 7.245c.462.461.74 1.073.787 1.72l.007.195V36.43c0 1.44-1.125 2.619-2.545 2.704l-.165.005H13.96c-1.44 0-2.619-1.125-2.704-2.544l-.005-.165v-25.47c0-1.44 1.125-2.619 2.544-2.704l.165-.005h12.372zm-1.406 1.5H13.959c-.626 0-1.14.476-1.203 1.086l-.006.123v25.47c0 .626.476 1.14 1.086 1.203l.123.006h19.617c.626 0 1.141-.476 1.203-1.086l.007-.123-.001-16.832h-7.15c-1.442 0-2.62-1.124-2.705-2.543l-.005-.165V9.75zm-.132 13.16c1.05-.915 2.65-.878 3.657.112.51.504.796 1.18.8 1.896.006.719-.271 1.399-.777 1.91l-6.98 7.047c-.268.273-.64.433-1.026.435l-1.765.005c-.792 0-1.435-.636-1.441-1.43l-.011-1.768c-.002-.38.148-.747.416-1.02l6.976-7.045zm2.604 1.18c-.464-.456-1.218-.453-1.68.007l-6.968 7.038.011 1.68 1.677-.005 6.97-7.037c.225-.228.346-.524.343-.844-.002-.32-.126-.615-.353-.838zm-.972-14.335v7.134c0 .626.476 1.14 1.086 1.203l.123.006h7.147c-.021-.235-.11-.459-.256-.643l-.094-.106-7.245-7.245c-.162-.162-.365-.273-.585-.323l-.133-.023-.043-.003z"
                        transform="translate(-86 -3446) translate(82 3442) translate(4 4)" />
                </g>
            </g>
        </g>
    </g>
</svg>