<svg fill="currentColor" id="icons" xmlns="http://www.w3.org/2000/svg" viewBox="0 0 24 24"><title>01-04-file-code-m</title><rect id="canvas" width="24" height="24" style="fill:none"/><path d="M19.03955,14.65479a.74993.74993,0,1,0-1.09277,1.02734l1.624,1.727-1.624,1.72705a.74993.74993,0,1,0,1.09277,1.02734l2.10693-2.24072a.74973.74973,0,0,0,0-1.02734Z"/><path d="M16.58594,14.60352a.74952.74952,0,0,0-1.06006.03271L13.419,16.877a.74974.74974,0,0,0,0,1.02735L15.52588,20.145a.74993.74993,0,0,0,1.09277-1.02734l-1.624-1.72706,1.624-1.727A.74992.74992,0,0,0,16.58594,14.60352Z"/><path d="M19,11.75V9.72559a2.76273,2.76273,0,0,0-.8501-1.9878L13.99072,3.76172A2.73852,2.73852,0,0,0,12.09082,3H7.75A2.7528,2.7528,0,0,0,5,5.75v12.5A2.7528,2.7528,0,0,0,7.75,21h4.1499a.75.75,0,1,0,0-1.5H7.75A1.25116,1.25116,0,0,1,6.5,18.25V5.75A1.25116,1.25116,0,0,1,7.75,4.5h4.34082a1.24595,1.24595,0,0,1,.86377.34619l4.15918,3.97608A1.2537,1.2537,0,0,1,17.5,9.72559V11.75a.75.75,0,0,0,1.5,0Z"/></svg>