<svg xmlns="http://www.w3.org/2000/svg" width="48" height="48" viewBox="0 0 48 48">
    <g fill="none" fill-rule="evenodd">
        <g fill="currentColor" fill-rule="nonzero">
            <path
                d="M26.614 8.25c.663 0 1.3.24 1.799.67l.144.136 7.388 7.396c.469.469.75 1.09.798 1.746l.007.198V37c0 1.462-1.14 2.658-2.58 2.745l-.168.005H13.998c-1.462 0-2.656-1.142-2.743-2.582L11.25 37V11c0-1.462 1.14-2.658 2.58-2.745l.168-.005h12.616zm-1.364 1.5H13.998c-.646 0-1.178.492-1.242 1.122L12.75 11v26c0 .647.491 1.18 1.12 1.244l.128.006h20.004c.646 0 1.178-.492 1.242-1.122L35.25 37V19.75h-7.26c-1.457 0-2.649-1.137-2.735-2.573l-.005-.166V9.75zm4.051 13.708c.406.339.653.825.698 1.352l.008.177v7.405c0 1.243-1.008 2.25-2.25 2.25s-2.25-1.007-2.25-2.25c0-1.242 1.008-2.25 2.25-2.25.263 0 .515.045.75.128l-.001-2.304-7.007 1.236v3.812l.001.026c0 1.19-.926 2.165-2.096 2.245l-.154.005c-1.242 0-2.25-1.008-2.25-2.25s1.008-2.25 2.25-2.25c.263 0 .515.045.75.128v-3.823c0-1.472 1.082-2.81 2.513-3.15l.18-.038 4.975-.877c.59-.1 1.187.053 1.633.428zM19.25 32.29c-.414 0-.75.336-.75.75s.336.75.75.75.75-.336.75-.75v-.015c-.008-.407-.341-.735-.75-.735zm8.507-.648c-.414 0-.75.337-.75.75 0 .414.336.75.75.75s.75-.336.75-.75c0-.413-.336-.75-.75-.75zm.261-7.143l-.093.009-4.971.876c-.758.134-1.377.82-1.448 1.57l-.006.141-.001.584 7.007-1.236v-1.456c0-.154-.06-.29-.168-.379-.084-.07-.197-.11-.32-.109zM26.755 9.758l-.005-.001v7.254c0 .641.488 1.17 1.113 1.233l.126.006h7.253c-.027-.231-.119-.45-.264-.633l-.094-.105-7.388-7.396c-.167-.168-.377-.282-.603-.334l-.138-.024z"
                transform="translate(-86 -3603) translate(82 3599) translate(4 4)" />
        </g>
    </g>
</svg>