<svg fill="currentColor" id="icons" xmlns="http://www.w3.org/2000/svg" viewBox="0 0 24 24"><title>01-11-file-action-m</title><rect id="canvas" width="24" height="24" style="fill:none"/><path d="M19.58789,15.95166l-.001-.001-3.418-2.07763a1.18913,1.18913,0,0,0-1.19727-.02051,1.17216,1.17216,0,0,0-.59863,1.01953v4.15576a1.17157,1.17157,0,0,0,.59863,1.01953,1.18729,1.18729,0,0,0,1.19629-.02l3.41894-2.07861a1.167,1.167,0,0,0,.001-1.99707Zm-3.71484,2.49951V15.44873l2.46972,1.50147Z"/><path d="M7.75,4.5h4.34082a1.2439,1.2439,0,0,1,.86328.34619l4.15918,3.97559A1.255,1.255,0,0,1,17.5,9.72559V11.75a.75.75,0,0,0,1.5,0V9.72559a2.76389,2.76389,0,0,0-.84961-1.9878L13.99121,3.76172A2.74057,2.74057,0,0,0,12.09082,3H7.75A2.7528,2.7528,0,0,0,5,5.75v12.5A2.7528,2.7528,0,0,0,7.75,21h4.15039a.75.75,0,1,0,0-1.5H7.75A1.25116,1.25116,0,0,1,6.5,18.25V5.75A1.25116,1.25116,0,0,1,7.75,4.5Z"/></svg>