<svg fill="currentColor" id="icons" xmlns="http://www.w3.org/2000/svg" viewBox="0 0 32 32"><defs><style>.cls-1{fill:#fff;opacity:0;}</style></defs><title>file-type-doc</title><rect id="canvas" class="cls-1" width="32" height="32"/><path d="M20.21582,14.40723H11.46289a.75.75,0,0,0,0,1.5h3.626V23.543a.75.75,0,0,0,1.5,0V15.90723h3.627a.75.75,0,0,0,0-1.5Z"/><path d="M18.88379,3.09814A3.94785,3.94785,0,0,0,16.14551,2H9.17383A3.96645,3.96645,0,0,0,5.21191,5.96191V26.03809A3.96645,3.96645,0,0,0,9.17383,30H22.82617a3.96645,3.96645,0,0,0,3.96192-3.96191V12.34717A3.97591,3.97591,0,0,0,25.56348,9.4834Zm6.4043,22.94A2.46481,2.46481,0,0,1,22.82617,28.5H9.17383a2.46481,2.46481,0,0,1-2.46192-2.46191V5.96191A2.46481,2.46481,0,0,1,9.17383,3.5h6.97168a2.45066,2.45066,0,0,1,1.70117.68213l6.68066,6.38574a2.47223,2.47223,0,0,1,.76075,1.7793Z"/></svg>