<svg fill="currentColor" xmlns="http://www.w3.org/2000/svg" width="48" height="48"
    viewBox="0 0 48 48">
    <g fill="none" fill-rule="evenodd">
        <g fill="currentColor" fill-rule="nonzero">
            <g>
                <g>
                    <path
                        d="M26.364 8c.73 0 1.428.29 1.944.805l7.387 7.396c.516.516.805 1.216.805 1.945V36.75c0 1.52-1.23 2.75-2.748 2.75H13.748C12.23 39.5 11 38.27 11 36.75v-26C11 9.231 12.23 8 13.748 8zM25 9.5H13.748c-.69 0-1.248.56-1.248 1.25v26c0 .69.559 1.25 1.248 1.25h20.004C34.44 38 35 37.44 35 36.75V19.5h-7.261c-1.456 0-2.648-1.138-2.734-2.573L25 16.76V9.5zM24.01 21c.38 0 .693.282.743.648l.007.102v1.481h4.442c.932 0 1.707.702 1.783 1.606l.006.144v6c0 .924-.729 1.672-1.643 1.745l-.146.005h-2.526l1.68 1.797c.283.302.267.777-.035 1.06-.275.257-.692.267-.978.04l-.082-.076-2.64-2.821h-1.223l-2.64 2.821c-.282.303-.757.319-1.06.036-.274-.258-.312-.673-.104-.974l.07-.086 1.68-1.797h-2.526c-.933 0-1.708-.7-1.783-1.605l-.006-.145v-6c0-.924.728-1.671 1.643-1.744l.146-.006h4.441V21.75c0-.414.337-.75.75-.75zm5.192 3.731H18.818c-.143 0-.253.087-.282.195l-.007.055v6c0 .113.09.216.22.243l.069.007h10.384c.142 0 .253-.087.281-.194l.008-.056v-6c0-.13-.124-.25-.289-.25zM26.5 9.526v7.234c0 .642.488 1.17 1.113 1.233l.126.007h7.253c-.033-.278-.158-.539-.357-.739l-7.39-7.396c-.2-.2-.466-.307-.745-.339z"
                        transform="translate(-3216 -3446) translate(3212 3442) translate(4 4)" />
                </g>
            </g>
        </g>
    </g>
</svg>