<svg fill="currentColor" id="icons" xmlns="http://www.w3.org/2000/svg" viewBox="0 0 24 24"><title>01-18-file-type-image-m</title><rect id="canvas" width="24" height="24" style="fill:none"/><path d="M13.99072,3.76172A2.73852,2.73852,0,0,0,12.09082,3H7.75A2.7528,2.7528,0,0,0,5,5.75v12.5A2.7528,2.7528,0,0,0,7.75,21h8.5A2.7528,2.7528,0,0,0,19,18.25V9.72559a2.76273,2.76273,0,0,0-.8501-1.9878ZM17.5,18.25a1.25116,1.25116,0,0,1-1.25,1.25H7.75A1.25116,1.25116,0,0,1,6.5,18.25V5.75A1.25116,1.25116,0,0,1,7.75,4.5h4.34082a1.24595,1.24595,0,0,1,.86377.34619l4.15918,3.97608A1.2537,1.2537,0,0,1,17.5,9.72559Z"/><path d="M14.32275,11.09961a.74936.74936,0,0,0-.67138-.54785.76074.76074,0,0,0-.73975.45068l-1.14111,2.644-.84424-.83105a.75029.75029,0,0,0-1.21729.24219L8.05908,16.958A.75045.75045,0,0,0,8.75,18h6.5a.74952.74952,0,0,0,.72266-.9502ZM9.88184,16.5l.77832-1.84082.83838.8252a.75834.75834,0,0,0,.66992.20214.75074.75074,0,0,0,.54492-.43945l.73242-1.69629L14.26367,16.5Z"/><circle cx="9.04999" cy="10.75" r="1"/></svg>