<svg fill="currentColor" xmlns="http://www.w3.org/2000/svg" width="48" height="48"
    viewBox="0 0 48 48">
    <g fill="none" fill-rule="evenodd">
        <g fill="currentColor" fill-rule="nonzero">
            <g>
                <g>
                    <path
                        d="M26.364 8c.73 0 1.428.29 1.944.805l7.387 7.396c.516.516.805 1.216.805 1.945V36.75c0 1.52-1.23 2.75-2.748 2.75H13.748C12.23 39.5 11 38.27 11 36.75v-26C11 9.231 12.23 8 13.748 8zM25 9.5H13.748c-.69 0-1.248.56-1.248 1.25v26c0 .69.559 1.25 1.248 1.25h20.004C34.44 38 35 37.44 35 36.75V19.5h-7.261c-1.456 0-2.648-1.138-2.734-2.573L25 16.76V9.5zm4.854 13.92c1.38 0 2.495 1.12 2.578 2.515l.005.169v6.133c0 1.416-1.06 2.59-2.419 2.678l-.164.005H18.521c-1.38 0-2.495-1.119-2.578-2.514l-.005-.169v-6.133c0-1.416 1.06-2.59 2.419-2.678l.164-.006h11.333zm-7.945 5.512l-4.471 2.523v.782c0 .618.43 1.113.966 1.176l.117.007h8.53l-5.142-4.488zm7.945-4.012H18.521c-.55 0-1.017.455-1.077 1.053l-.006.13v3.63l4.196-2.368c.242-.136.537-.127.767.018l.095.07 6.835 5.967h.523c.55 0 1.017-.454 1.077-1.053l.006-.13v-6.133c0-.662-.494-1.184-1.083-1.184zm-3.011 1.854c.628 0 1.137.509 1.137 1.138 0 .629-.51 1.137-1.137 1.137-.629 0-1.138-.508-1.138-1.137s.509-1.138 1.138-1.138zM26.5 9.526v7.234c0 .642.488 1.17 1.113 1.233l.126.007h7.253c-.033-.278-.158-.539-.357-.739l-7.39-7.396c-.2-.2-.466-.307-.745-.339z"
                        transform="translate(-712 -3446) translate(708 3442) translate(4 4)" />
                </g>
            </g>
        </g>
    </g>
</svg>