<svg fill="currentColor" id="icons" xmlns="http://www.w3.org/2000/svg" viewBox="0 0 24 24">
    <title>01-20-file-type-plain-m</title>
    <rect id="canvas" width="24" height="24" style="fill:none" />
    <path d="M14.25,15.0498H9.75a.75.75,0,0,0,0,1.5h4.5a.75.75,0,0,0,0-1.5Z" />
    <path d="M9.75,13.5498h2.2998a.75.75,0,0,0,0-1.5H9.75a.75.75,0,0,0,0,1.5Z" />
    <path
        d="M13.99121,3.76172A2.74057,2.74057,0,0,0,12.09082,3H7.75A2.7528,2.7528,0,0,0,5,5.75v12.5A2.7528,2.7528,0,0,0,7.75,21h8.5A2.7528,2.7528,0,0,0,19,18.25V9.72559a2.76389,2.76389,0,0,0-.84961-1.9878ZM17.5,18.25a1.25116,1.25116,0,0,1-1.25,1.25H7.75A1.25116,1.25116,0,0,1,6.5,18.25V5.75A1.25116,1.25116,0,0,1,7.75,4.5h4.34082a1.2439,1.2439,0,0,1,.86328.34619l4.15918,3.97559A1.255,1.255,0,0,1,17.5,9.72559Z" />
</svg>