<svg fill="currentColor" id="icons" xmlns="http://www.w3.org/2000/svg" viewBox="0 0 32 32"><defs><style>.cls-1{fill:#fff;opacity:0;}</style></defs><title>file-type-csv</title><rect id="canvas" class="cls-1" width="32" height="32"/><path d="M18.88379,3.09814A3.94785,3.94785,0,0,0,16.14551,2H9.17383A3.96645,3.96645,0,0,0,5.21191,5.96191V26.03809A3.96645,3.96645,0,0,0,9.17383,30H22.82617a3.96645,3.96645,0,0,0,3.96192-3.96191V12.34717A3.97591,3.97591,0,0,0,25.56348,9.4834Zm-6.7959,17.43311a.74888.74888,0,0,0-.57422-.26758h-.44336a.54015.54015,0,0,1-.53906-.53906V14.76953a.53983.53983,0,0,1,.53906-.53906h3.50586a.53982.53982,0,0,1,.53906.53906l-.00781,5.00586c-.00586.03711-.00879.07227-.01367.10156l-.86133,4.88086a.86364.86364,0,0,1-.77734.66992H11.8916a.337.337,0,0,1-.26367-.10253.37341.37341,0,0,1-.05957-.30762l.68359-3.874A.74827.74827,0,0,0,12.08789,20.53125Zm4.47363-.35059c.00232-.0108.01032-.05413.01545-.08105h3.35174v3.5H15.95892Zm4.86719-.08105h3.85938v3.5H21.42871ZM6.71191,26.03809V5.96191A2.46481,2.46481,0,0,1,9.17383,3.5h6.97168a2.45066,2.45066,0,0,1,1.70117.68213l6.68066,6.38574a2.47223,2.47223,0,0,1,.76075,1.7793v6.25244H16.61523V14.76953a2.04146,2.04146,0,0,0-2.03906-2.03906H11.07031a2.04147,2.04147,0,0,0-2.03906,2.03906v4.95508a2.04372,2.04372,0,0,0,1.59668,1.99121l-.53613,3.042A1.86594,1.86594,0,0,0,10.47949,26.29a1.82919,1.82919,0,0,0,1.41211.63769h1.56348a2.34882,2.34882,0,0,0,2.23144-1.82812h4.24219V28.5H9.17383A2.46481,2.46481,0,0,1,6.71191,26.03809ZM22.82617,28.5H21.42871V25.09961h3.85938v.93848A2.46481,2.46481,0,0,1,22.82617,28.5Z"/></svg>