<svg fill="currentColor" xmlns="http://www.w3.org/2000/svg" width="48" height="48"
    viewBox="0 0 48 48">
    <g fill="none" fill-rule="evenodd">
        <g fill="currentColor" fill-rule="nonzero">
            <g>
                <g>
                    <path
                        d="M26.364 8c.73 0 1.428.29 1.944.805l7.387 7.396c.516.516.805 1.216.805 1.945V36.75c0 1.52-1.23 2.75-2.748 2.75H13.748C12.23 39.5 11 38.27 11 36.75v-26C11 9.231 12.23 8 13.748 8zM25 9.5H13.748c-.69 0-1.248.56-1.248 1.25v26c0 .69.559 1.25 1.248 1.25h20.004C34.44 38 35 37.44 35 36.75V19.5h-7.261c-1.456 0-2.648-1.138-2.734-2.573L25 16.76V9.5zM22.117 29c.414 0 .75.335.75.75v2.355c0 1.895-1.54 3.434-3.434 3.434C17.54 35.54 16 34 16 32.105v-2.354c0-.416.336-.75.75-.75zm-.75 1.5H17.5v1.605c0 1.067.867 1.934 1.933 1.934 1.067 0 1.934-.867 1.934-1.934v-1.604zm-.622-4.5c.414 0 .75.336.75.75s-.336.75-.75.75h-2.623c-.414 0-.75-.336-.75-.75s.336-.75.75-.75zm0-3c.414 0 .75.336.75.75s-.336.75-.75.75h-2.623c-.414 0-.75-.336-.75-.75s.336-.75.75-.75zm0-3c.414 0 .75.336.75.75s-.336.75-.75.75h-2.623c-.414 0-.75-.336-.75-.75s.336-.75.75-.75zm0-3c.414 0 .75.336.75.75s-.336.75-.75.75h-2.623c-.414 0-.75-.336-.75-.75s.336-.75.75-.75zM26.5 9.526v7.234c0 .642.488 1.17 1.113 1.233l.126.007h7.253c-.033-.278-.158-.539-.357-.739l-7.39-7.396c-.2-.2-.466-.307-.745-.339z"
                        transform="translate(-3842 -3446) translate(3838 3442) translate(4 4)" />
                </g>
            </g>
        </g>
    </g>
</svg>