<svg fill="currentColor" id="icons" xmlns="http://www.w3.org/2000/svg" viewBox="0 0 24 24"><title>01-13-file-view-m</title><rect id="canvas" width="24" height="24" style="fill:none"/><path d="M17.24707,14.05566c-2.07227,0-3.62012,2.03418-3.79492,2.27344a1.1249,1.1249,0,0,0-.2002.57178l-.00488.06592.00684.06591a1.08569,1.08569,0,0,0,.20117.54639c.0664.09278,1.6582,2.271,3.792,2.271,2.081,0,3.61523-1.98633,3.7832-2.21338a1.0131,1.0131,0,0,0,.21387-.63086,1.11258,1.11258,0,0,0-.21582-.74024C20.85938,16.03955,19.31152,14.05566,17.24707,14.05566Zm0,4.29444a3.65138,3.65138,0,0,1-2.37305-1.395,3.65427,3.65427,0,0,1,2.37305-1.39942,3.67356,3.67356,0,0,1,2.40723,1.395A3.67957,3.67957,0,0,1,17.24707,18.3501Z"/><path d="M7.75,4.5h4.34082a1.2439,1.2439,0,0,1,.86328.34619l4.15918,3.97559A1.255,1.255,0,0,1,17.5,9.72559V11.75a.75.75,0,0,0,1.5,0V9.72559a2.76389,2.76389,0,0,0-.84961-1.9878L13.99121,3.76172A2.74057,2.74057,0,0,0,12.09082,3H7.75A2.7528,2.7528,0,0,0,5,5.75v12.5A2.7528,2.7528,0,0,0,7.75,21h4.15039a.75.75,0,1,0,0-1.5H7.75A1.25116,1.25116,0,0,1,6.5,18.25V5.75A1.25116,1.25116,0,0,1,7.75,4.5Z"/></svg>