<svg fill="currentColor" id="icons" xmlns="http://www.w3.org/2000/svg" viewBox="0 0 32 32"><defs><style>.cls-1{fill:#fff;opacity:0;}</style></defs><title>file-type-svg2</title><rect id="canvas" class="cls-1" width="32" height="32"/><path d="M22.13965,19.35645a.75019.75019,0,0,0-.75.75,2.31328,2.31328,0,0,1-4.51868.70422l3.26575-3.26575a.74992.74992,0,0,0-1.06055-1.06054l-2.51044,2.51043a3.80887,3.80887,0,0,0-7.45538,1.11164.75.75,0,0,0,1.5,0,2.31983,2.31983,0,1,1,4.63965,0c0,.06347.01569.12261.01874.18536L12.89258,22.668a.74992.74992,0,1,0,1.06054,1.06055l1.7873-1.7873a3.80687,3.80687,0,0,0,7.14923-1.83477A.75019.75019,0,0,0,22.13965,19.35645Z"/><path d="M18.88379,3.09814A3.94785,3.94785,0,0,0,16.14551,2H9.17383A3.96645,3.96645,0,0,0,5.21191,5.96191V26.03809A3.96645,3.96645,0,0,0,9.17383,30H22.82617a3.96645,3.96645,0,0,0,3.96192-3.96191V12.34717A3.97591,3.97591,0,0,0,25.56348,9.4834Zm6.4043,22.94A2.46481,2.46481,0,0,1,22.82617,28.5H9.17383a2.46481,2.46481,0,0,1-2.46192-2.46191V5.96191A2.46481,2.46481,0,0,1,9.17383,3.5h6.97168a2.45066,2.45066,0,0,1,1.70117.68213l6.68066,6.38574a2.47223,2.47223,0,0,1,.76075,1.7793Z"/></svg>