<svg fill="currentColor" id="icons" xmlns="http://www.w3.org/2000/svg" viewBox="0 0 24 24"><title>01-01-file-s</title><rect id="canvas" width="24" height="24" style="fill:none"/><path d="M14.5498,18H9.4502A1.99006,1.99006,0,0,1,7.5,15.97705V8.023A1.99006,1.99006,0,0,1,9.4502,6h2.60449a1.90474,1.90474,0,0,1,1.3623.5752L15.91357,9.106A2.07177,2.07177,0,0,1,16.5,10.55273v5.42432A1.99006,1.99006,0,0,1,14.5498,18ZM9.4502,7.5A.49124.49124,0,0,0,9,8.023v7.9541A.49124.49124,0,0,0,9.4502,16.5h5.0996A.49124.49124,0,0,0,15,15.97705V10.55273a.56112.56112,0,0,0-.1543-.39306L12.34961,7.62939A.41615.41615,0,0,0,12.05469,7.5Z"/></svg>