<svg fill="currentColor" id="icons" xmlns="http://www.w3.org/2000/svg" viewBox="0 0 24 24"><title>01-12-file-stop-m</title><rect id="canvas" width="24" height="24" style="fill:none"/><path d="M18.9502,14H15.65039a1.3515,1.3515,0,0,0-1.35059,1.3501v3.2998A1.3515,1.3515,0,0,0,15.65039,20H18.9502a1.35128,1.35128,0,0,0,1.3496-1.3501V15.3501A1.35128,1.35128,0,0,0,18.9502,14Zm-.1504,4.5h-3v-3h3Z"/><path d="M7.75,4.5h4.34082a1.2439,1.2439,0,0,1,.86328.34619l4.15918,3.97559A1.255,1.255,0,0,1,17.5,9.72559V11.75a.75.75,0,0,0,1.5,0V9.72559a2.76389,2.76389,0,0,0-.84961-1.9878L13.99121,3.76172A2.74057,2.74057,0,0,0,12.09082,3H7.75A2.7528,2.7528,0,0,0,5,5.75v12.5A2.7528,2.7528,0,0,0,7.75,21h4.15039a.75.75,0,1,0,0-1.5H7.75A1.25116,1.25116,0,0,1,6.5,18.25V5.75A1.25116,1.25116,0,0,1,7.75,4.5Z"/></svg>