<svg fill="currentColor" id="icons" xmlns="http://www.w3.org/2000/svg" viewBox="0 0 24 24"><title>01-06-file-block-m</title><rect id="canvas" width="24" height="24" style="fill:none"/><path d="M17.25,13.28223a3.75,3.75,0,1,0,3.75,3.75A3.7541,3.7541,0,0,0,17.25,13.28223Zm0,1.5a2.223,2.223,0,0,1,.97821.23315L15.233,18.01019a2.22349,2.22349,0,0,1-.233-.978A2.25246,2.25246,0,0,1,17.25,14.78223Zm0,4.5a2.2258,2.2258,0,0,1-.95007-.21784l2.98236-2.982a2.22587,2.22587,0,0,1,.21771.94983A2.25246,2.25246,0,0,1,17.25,19.28223Z"/><path d="M7.75,4.5h4.34082a1.24595,1.24595,0,0,1,.86377.34619l4.15918,3.97608A1.2537,1.2537,0,0,1,17.5,9.72559V11.75a.75.75,0,0,0,1.5,0V9.72559a2.76273,2.76273,0,0,0-.8501-1.9878L13.99072,3.76172A2.73852,2.73852,0,0,0,12.09082,3H7.75A2.7528,2.7528,0,0,0,5,5.75v12.5A2.7528,2.7528,0,0,0,7.75,21h4.1499a.75.75,0,1,0,0-1.5H7.75A1.25116,1.25116,0,0,1,6.5,18.25V5.75A1.25116,1.25116,0,0,1,7.75,4.5Z"/></svg>