<svg fill="currentColor" width="24" height="24" viewBox="0 0 24 24" xmlns="http://www.w3.org/2000/svg">
<path d="M7.75 21H11.8999C12.3141 21 12.6499 20.6642 12.6499 20.25C12.6499 19.8358 12.3141 19.5 11.8999 19.5H7.75C7.05991 19.4994 6.50064 18.9401 6.5 18.25V5.75C6.50064 5.05991 7.05991 4.50064 7.75 4.5H12.0908C12.4126 4.49951 12.7222 4.62357 12.9546 4.84619L17.1138 8.82227C17.36 9.0583 17.4995 9.38448 17.5 9.72559V11.75C17.5 12.1642 17.8358 12.5 18.25 12.5C18.6642 12.5 19 12.1642 19 11.75V9.72559C18.9984 8.97503 18.6915 8.25741 18.1499 7.73779L13.9907 3.76172C13.4797 3.27178 12.7988 2.99879 12.0908 3H7.75C6.23186 3.00155 5.00154 4.23186 5 5.75V18.25C5.00154 19.7681 6.23186 20.9985 7.75 21Z"/>
<path fill-rule="evenodd" clip-rule="evenodd" d="M13 17C13 14.7909 14.7909 13 17 13C19.2082 13.0024 20.9976 14.7918 21 17C21 19.2091 19.2091 21 17 21C14.7909 21 13 19.2091 13 17ZM14.5 17C14.5 18.3807 15.6193 19.5 17 19.5C18.3801 19.4986 19.4986 18.3801 19.5 17C19.5 15.6193 18.3807 14.5 17 14.5C15.6193 14.5 14.5 15.6193 14.5 17Z"/>
<path d="M17.75 16.6895V15.7998C17.75 15.3856 17.4142 15.0498 17 15.0498C16.5858 15.0498 16.25 15.3856 16.25 15.7998V17C16.25 17.1989 16.329 17.3897 16.4697 17.5303L17.2695 18.3301C17.5624 18.6229 18.0372 18.6229 18.3301 18.3301C18.6229 18.0372 18.6229 17.5624 18.3301 17.2695L17.75 16.6895Z"/>
</svg>
