<svg fill="currentColor" xmlns="http://www.w3.org/2000/svg" width="48" height="48" viewBox="0 0 48 48">
    <g >
        <g >
            <g>
                <g>
                    <g>
                        <g>
                            <path d="M35 35.75c0 .69-.558 1.25-1.247 1.25h-8.237v-3.208l.377.38c.847.858 2.224.858 3.07 0l1.605-1.62c.844-.851.844-2.23 0-3.081l-6.792-6.863c-.847-.857-2.224-.857-3.072 0l-6.791 6.863c-.844.852-.844 2.23 0 3.082l1.605 1.62.124.117c.852.738 2.14.699 2.947-.117l.375-.38V37h-5.216c-.688 0-1.248-.56-1.248-1.25v-26c0-.69.56-1.25 1.248-1.25H25v7.26l.005.167c.042.7.35 1.327.82 1.789.495.483 1.169.784 1.915.784H35v17.25zm-10.983-3.78v7.279c0 .379-.301.684-.67.684h-2.215c-.367 0-.668-.305-.668-.684V31.97c0-.67-.811-1.004-1.283-.528l-1.658 1.675c-.26.263-.68.263-.94 0l-1.604-1.621c-.265-.267-.265-.703 0-.971l6.792-6.863c.26-.263.679-.263.939 0l6.792 6.863c.265.268.265.704 0 .97l-1.604 1.622c-.26.263-.68.263-.94 0l-1.66-1.675c-.47-.476-1.281-.142-1.281.528zM26.5 8.509v-.001h.005-.005v.02c.28.032.546.138.747.338l7.387 7.396c.2.2.325.46.358.739H27.74l-.127-.006c-.625-.063-1.113-.592-1.113-1.233V8.527c-.046-.005-.09-.027-.136-.027l.136.008zm9.195 6.693l-7.387-7.396C27.792 7.289 27.094 7 26.364 7H13.748C12.23 7 11 8.232 11 9.75v26c0 1.518 1.23 2.75 2.748 2.75h5.216v.749c0 1.204.969 2.184 2.168 2.184h2.216l.155-.006c1.127-.08 2.014-1.026 2.014-2.178l-.001-.75h8.237c.645 0 1.229-.23 1.698-.602.634-.504 1.049-1.273 1.049-2.147V17.146c0-.73-.29-1.43-.805-1.945z" transform="translate(-2250 -2250) translate(1980 2191) translate(0 29) translate(24 30) translate(246)"/>
                        </g>
                    </g>
                </g>
            </g>
        </g>
    </g>
</svg>
