<svg xmlns="http://www.w3.org/2000/svg" width="48" height="48" viewBox="0 0 48 48">
    <g fill="none" fill-rule="evenodd">
        <g fill="currentColor" fill-rule="nonzero">
            <g>
                <g>
                    <path
                        d="M26.364 8c.73 0 1.428.29 1.944.805l7.387 7.396c.516.516.805 1.216.805 1.945V36.75c0 1.52-1.23 2.75-2.748 2.75H13.748C12.23 39.5 11 38.27 11 36.75v-26C11 9.231 12.23 8 13.748 8zM25 9.5H13.748c-.69 0-1.248.56-1.248 1.25v26c0 .69.559 1.25 1.248 1.25h20.004C34.44 38 35 37.44 35 36.75V19.5h-7.261c-1.456 0-2.648-1.138-2.734-2.573L25 16.76V9.5zM20.239 22c.053.001.1.01.15.02.043.01.084.02.124.037.045.02.084.044.125.072.038.026.074.052.108.085.034.034.06.074.088.115.018.027.042.045.057.075.02.043.137.294.275.71 2.083 5.228 7.924 5.951 8.182 5.98h.003l.034.004c.045.008.08.032.122.047.046.016.093.025.134.05.043.025.074.06.11.092.035.031.072.058.1.094.029.039.046.085.066.129.021.04.046.077.057.123.014.049.012.1.015.153.002.04.015.077.01.119l-.005.018c-.001.007.001.014.001.02-.005.032-.025.057-.033.086-.017.058-.034.115-.063.165-.017.029-.039.05-.06.075-.038.05-.076.094-.124.132-.026.02-.052.032-.08.049-.05.03-.1.056-.158.073-.037.011-.073.016-.113.021-.032.005-.062.018-.096.018-.026 0-.052-.001-.08-.004l-.116-.014c-.726-.115-1.406-.166-2.04-.166-5.5 0-7.631 3.85-7.654 3.893l-.022.038c-.043.072-.112.115-.174.166-.032.026-.055.065-.09.085-.111.063-.236.099-.364.099-.109 0-.216-.03-.318-.08l-.03-.008c-.005-.003-.008-.008-.012-.01l-.026-.011c-.038-.024-.06-.06-.093-.088-.037-.032-.076-.06-.103-.097-.03-.04-.047-.086-.07-.129-.019-.041-.042-.08-.055-.123-.012-.045-.01-.092-.014-.139-.004-.048-.01-.094-.005-.141.005-.047.026-.09.042-.137.012-.04.014-.082.036-.122l.004-.008.017-.028v-.002c2.904-4.718 2.143-8.506 1.687-9.907-.088-.223-.186-.439-.261-.677-.01-.034-.006-.067-.011-.1-.007-.046-.016-.089-.015-.134.001-.053.01-.103.022-.154.01-.04.018-.078.035-.116.02-.05.047-.093.08-.137.022-.033.045-.065.074-.095.039-.04.084-.069.13-.1.025-.014.041-.036.067-.05.014-.006.03-.005.046-.011.018-.008.031-.023.051-.028.034-.011.068-.006.102-.012.043-.007.084-.015.126-.015zm1.461 4.73c-.012 1.108-.175 2.394-.61 3.81.963-.613 2.18-1.153 3.683-1.433-1.043-.559-2.127-1.327-3.073-2.378zm4.8-17.204v7.234c0 .642.488 1.17 1.113 1.233l.126.007h7.253c-.033-.278-.158-.539-.357-.739l-7.39-7.396c-.2-.2-.466-.307-.745-.339z"
                        transform="translate(-4468 -3446) translate(4464 3442) translate(4 4)" />
                </g>
            </g>
        </g>
    </g>
</svg>