<svg fill="currentColor" id="icons" xmlns="http://www.w3.org/2000/svg" viewBox="0 0 24 24"><title>03-02-fingerprint-m</title><rect id="canvas" width="24" height="24" style="fill:none"/><path d="M12,5.52a8.31582,8.31582,0,0,0-8.30176,8.31055l.002.00976-.002.00977a15.85622,15.85622,0,0,0,.36914,3.38769.74973.74973,0,1,0,1.46485-.32031,14.38632,14.38632,0,0,1-.334-3.06738l-.00195-.00977.00195-.00976a6.80177,6.80177,0,1,1,13.60352,0,1.76709,1.76709,0,1,1-3.53418,0,3.26758,3.26758,0,1,0-6.53516,0,8.27083,8.27083,0,0,0,3.917,7.05566.75018.75018,0,1,0,.79493-1.27246,6.77738,6.77738,0,0,1-3.21192-5.7832,1.76758,1.76758,0,1,1,3.53516,0,3.26709,3.26709,0,1,0,6.53418,0A8.31582,8.31582,0,0,0,12,5.52Z"/><path d="M7.71582,13.83057a4.28418,4.28418,0,1,1,8.56836,0,.75.75,0,1,0,1.5,0,5.78418,5.78418,0,1,0-11.56836,0,10.76649,10.76649,0,0,0,1.95508,6.207.74991.74991,0,0,0,1.22851-.86035A9.27607,9.27607,0,0,1,7.71582,13.83057Z"/><path d="M17.03418,18.12061a4.29185,4.29185,0,0,1-4.28418-4.29.75.75,0,0,0-1.5,0,5.79349,5.79349,0,0,0,5.78418,5.79.75.75,0,0,0,0-1.5Z"/><path d="M4.97168,7.6875a.74757.74757,0,0,0,.56348-.25488,8.592,8.592,0,0,1,12.92968,0,.7501.7501,0,0,0,1.127-.99024,10.09264,10.09264,0,0,0-15.1836,0A.75029.75029,0,0,0,4.97168,7.6875Z"/></svg>