<svg fill="currentColor" id="icons" xmlns="http://www.w3.org/2000/svg" viewBox="0 0 24 24"><title>01-10-firefox-fill-m</title><rect id="canvas" width="24" height="24" style="fill:#fff;fill-opacity:0.1"/><path d="M20.9296,11.20337h0c-.0256-.16811-.05119-.267-.05119-.267s-.06574.0762-.17451.21988a6.26551,6.26551,0,0,0-.21581-1.18317,8.05409,8.05409,0,0,0-.545-1.40247,5.84535,5.84535,0,0,0-.49793-.85392q-.10237-.153-.20883-.29667c-.33157-.54156-.712-.87254-1.15234-1.49845a4.54074,4.54074,0,0,1-.57646-1.56185,6.3079,6.3079,0,0,0-.27689,1.022c-.452-.45605-.8452-.78005-1.08253-1.0011-1.171-1.09358-1.03484-1.66074-1.03484-1.66074h0S12.92605,5.1613,13.87363,7.70447a4.88629,4.88629,0,0,0,1.62875,2.17147,6.042,6.042,0,0,1,2.4245,2.87183A4.87279,4.87279,0,0,0,16.098,10.81829a4.40508,4.40508,0,0,1,.349,1.74508,4.144,4.144,0,0,1-5.06715,4.037,3.81659,3.81659,0,0,1-1.02669-.349,4.17838,4.17838,0,0,1-1.23029-1.13721l-.00581-.00989.07329.02676a3.7804,3.7804,0,0,0,.52353.14018,3.27381,3.27381,0,0,0,2.08421-.24605c.655-.36356,1.05171-.63289,1.37338-.52644h.00582c.31412.1.56192-.20476.33738-.52352a1.71016,1.71016,0,0,0-1.65666-.64685c-.65557.0954-1.25647.56134-2.11563.10994a1.81765,1.81765,0,0,1-.16113-.09482c-.05817-.03315.1844.05061.128.0128a4.26351,4.26351,0,0,1-.53981-.32226c-.0128-.01047.12972.04072.11634.03025a2.083,2.083,0,0,1-.56308-.56948,1.01269,1.01269,0,0,1-.03839-.90395.79746.79746,0,0,1,.349-.32808c.11111.05468.17975.096.17975.096s-.05061-.09307-.07795-.14194c.00989-.00349.01861,0,.0285-.00639.09715.04188.31237.15124.4258.21813a.591.591,0,0,1,.19487.17451s.039-.0192.00989-.10063a.52351.52351,0,0,0-.20127-.24664h.00931a1.71,1.71,0,0,1,.2478.15415,1.20932,1.20932,0,0,0,.09889-.52353.68524.68524,0,0,0-.04014-.29085c-.03083-.05816.01746-.08143.07155-.02035a.56751.56751,0,0,0-.04595-.13845V10.432h0s.03083-.04014.04479-.05468a.83161.83161,0,0,1,.12565-.10238,5.8018,5.8018,0,0,1,.85218-.43453c.24082-.10528.44034-.18556.48106-.20882a1.33789,1.33789,0,0,0,.17044-.13089,1.14481,1.14481,0,0,0,.38392-.66313.93308.93308,0,0,0,.00989-.10354V8.68753h0v-.007h0V8.673h0c-.03491-.13088-.2606-.22919-1.44028-.33971a1.03134,1.03134,0,0,1-.84346-.7911v.00523c-.01687.04305-.032.08667-.04712.13088.01513-.04362.03025-.08725.04712-.13088V7.5381a2.98876,2.98876,0,0,1,1.15525-1.43446c.03025-.02443-.121.0064-.09075-.01861a2.99872,2.99872,0,0,1,.3083-.1303c.05293-.0221-.22686-.12914-.47408-.103a1.27966,1.27966,0,0,0-.43976.10354c.05817-.05.23268-.11634.19138-.11634a2.83,2.83,0,0,0-.897.33913.1827.1827,0,0,1,.01745-.08144,1.39621,1.39621,0,0,0-.56075.43278.74271.74271,0,0,0,.00582-.10121,1.67284,1.67284,0,0,0-.27515.25827l-.00523.00407a3.65589,3.65589,0,0,0-2.04582-.1745l-.00582-.00524h.007a1.71191,1.71191,0,0,1-.36356-.40719L6.23655,6.106l-.01105-.0128q-.06719-.09946-.13786-.22511c-.03374-.05817-.06806-.12623-.10238-.19662,0-.00465-.00523-.00639-.00756-.007-.014,0-.02385.06457-.03549.0477V5.70867a2.50589,2.50589,0,0,1-.16461-.98132L5.76829,4.732a1.09589,1.09589,0,0,0-.41533.5433c-.03549.07969-.05817.12332-.08144.16695V5.4219c.00524-.04014.02269-.12274.01861-.11634l-.01105.01687a1.00809,1.00809,0,0,0-.146.21639,1.37008,1.37008,0,0,0-.08726.22221c-.00349.01221,0-.01047,0-.03723s.00524-.07446,0-.06457l-.01279.025a5.52586,5.52586,0,0,0-.46536,1.76545,1.75776,1.75776,0,0,0-.018.31295V7.772a3.85545,3.85545,0,0,0-.47525.63986A9.07828,9.07828,0,0,0,3.0698,10.87238a6.022,6.022,0,0,1,.53807-.94293A8.7255,8.7255,0,0,0,3,13.12878a8.2803,8.2803,0,0,1,.26176-.94758,8.0315,8.0315,0,0,0,.726,3.76008,8.747,8.747,0,0,0,3.46167,3.92528h0a7.57143,7.57143,0,0,0,2.01732.96677c.09423.03432.18963.06806.28735.10064-.03083-.01222-.05816-.0256-.089-.039a9.13232,9.13232,0,0,0,2.61762.38509c3.13767,0,4.17367-1.1948,4.26907-1.31405h0a1.58812,1.58812,0,0,0,.37054-.49793h0q.09074-.03723.18323-.0797l.039-.01745.07039-.03315a6.58038,6.58038,0,0,0,1.32452-.8295A3.19934,3.19934,0,0,0,19.77435,16.705h0a1.12735,1.12735,0,0,0,.01687-.83066q.04827-.0762.09947-.16287A7.39108,7.39108,0,0,0,21,12.11605V12.0096A4.49714,4.49714,0,0,0,20.9296,11.20337Z"/></svg>