<svg fill="currentColor" id="icons" xmlns="http://www.w3.org/2000/svg" viewBox="0 0 24 24"><title>01-09-firefox-m</title><rect id="canvas" width="24" height="24" style="fill:#fff;fill-opacity:0.1"/><path d="M12.28271,22.03027a9.87748,9.87748,0,0,1-2.60156-.35058.67727.67727,0,0,1-.16553-.03467l-.30468-.10645a8.23033,8.23033,0,0,1-2.18213-1.05078,9.41782,9.41782,0,0,1-3.72608-4.24121,8.77209,8.77209,0,0,1-.72216-2.4956A.7499.7499,0,0,1,2.25,13.12891a9.4569,9.4569,0,0,1,.18359-1.85938.74771.74771,0,0,1-.09228-.57568,9.84535,9.84535,0,0,1,1.0874-2.66406,4.67177,4.67177,0,0,1,.37988-.5459c.0044-.04883.01026-.09766.01758-.146a6.16951,6.16951,0,0,1,.52344-1.9624A.78407.78407,0,0,1,4.47119,5.186a1.77053,1.77053,0,0,1,.23731-.35059l.02783-.03076a1.834,1.834,0,0,1,.60742-.69141.77814.77814,0,0,1,.1167-.06543.76444.76444,0,0,1,.73047.05908.75007.75007,0,0,1,.33642.647,1.73249,1.73249,0,0,0,.043.44921.79429.79429,0,0,1,.08887.14063l.00049-.00049c.02588.05322.05127.105.07666.14893q.03149.05567.06006.10254a.68585.68585,0,0,1,.08154.105l.01074.01611a4.4008,4.4008,0,0,1,1.57813.126l.01806-.01416A.755.755,0,0,1,8.668,5.72705a2.14963,2.14963,0,0,1,.52783-.3208.75967.75967,0,0,1,.25293-.05859,3.60822,3.60822,0,0,1,.77734-.24512.78608.78608,0,0,1,.30225.00342l.04736-.00342h0c-.0083,0,1.05762-.09619,1.249.65918a.76482.76482,0,0,1-.42481.87646.671.671,0,0,1-.05517.04932,2.38393,2.38393,0,0,0-.79932.84473.28.28,0,0,0,.13574.06054c1.05567.09717,1.854.17188,2.04541.88526a.749.749,0,0,1,.02588.19482,1.93242,1.93242,0,0,1-.01953.28076,1.91118,1.91118,0,0,1-.63916,1.11914,2.01638,2.01638,0,0,1-.249.18946,3.21273,3.21273,0,0,1-.32422.15283l-.26367.11279a5.19979,5.19979,0,0,0-.55713.26758,1.27292,1.27292,0,0,1-.00342.1499,1.80867,1.80867,0,0,1-.1582.7627v.00049a.79018.79018,0,0,1-.4253.56884.75383.75383,0,0,1-.57031.03565,1.47441,1.47441,0,0,0,.16553.13183.748.748,0,0,1,.1582.14454c.05859.03369.11865.06591.1792.09668a.75174.75174,0,0,1,.21484.16113,1.324,1.324,0,0,0,.83106-.09619,4.32649,4.32649,0,0,1,.6582-.165,2.44308,2.44308,0,0,1,2.36133.93408,1.10914,1.10914,0,0,1,.03906,1.32129,1.07029,1.07029,0,0,1-1.13818.38965,4.73228,4.73228,0,0,0-.59131.30468l-.2583.145a4.33989,4.33989,0,0,1-.521.2085,3.45674,3.45674,0,0,0,.66016.06543h.00244a3.39809,3.39809,0,0,0,3.39356-3.3916,3.6465,3.6465,0,0,0-.28956-1.45215.74859.74859,0,0,1-.05322-.39111c-.11035-.08741-.22021-.1753-.32959-.26514A5.60217,5.60217,0,0,1,13.17236,7.9707c-1.09472-2.939,1.28076-5.63769,1.38233-5.75146a.75011.75011,0,0,1,1.30615.561A2.506,2.506,0,0,0,16.66016,3.833l.188.16894a.75.75,0,0,1,1.39844.23145A3.77713,3.77713,0,0,0,18.728,5.53711c.15527.2168.33008.42432.49414.61963a7.01961,7.01961,0,0,1,.65381.87158c.041.05029.11767.15918.19238.271a6.58737,6.58737,0,0,1,.55225.9497,8.80315,8.80315,0,0,1,.58886,1.51856q.08277.29149.13965.58935a.7514.7514,0,0,1,.25586.39258s.03223.12207.06445.33057a5.26873,5.26873,0,0,1,.08057.93262v.10009A8.1826,8.1826,0,0,1,20.59326,16a1.86444,1.86444,0,0,1-.10547.94141,3.95588,3.95588,0,0,1-1.51123,2.17627,7.19131,7.19131,0,0,1-1.44189.89843c-.00147.001-.04785.02246-.08155.0376a2.32667,2.32667,0,0,1-.35791.43115C16.7876,20.83838,15.51123,22.03027,12.28271,22.03027Zm4.61231-3.3706a5.84126,5.84126,0,0,0,1.17383-.73535,2.49426,2.49426,0,0,0,.97949-1.40625.70225.70225,0,0,1,.03467-.104.37415.37415,0,0,0,.00537-.27685.75069.75069,0,0,1,.06933-.66455l.08643-.14161A6.66372,6.66372,0,0,0,20.25049,12.085L20.25,12.00977c.00049-.08741-.00244-.1753-.0083-.26319a.74987.74987,0,0,1-.28467-.52637,5.60866,5.60866,0,0,0-.19043-1.043,7.32973,7.32973,0,0,0-.49414-1.27051,5.1963,5.1963,0,0,0-.44092-.75928c-.07129-.10547-.13427-.19482-.19824-.28125a6.03623,6.03623,0,0,0-.56006-.74512c-.18847-.22461-.38867-.46386-.60254-.76806-.0459-.07617-.08935-.15283-.13086-.229a.74473.74473,0,0,1-.64209-.21435c-.30175-.3042-.57617-.54688-.7915-.73779l-.269-.2417a6.31388,6.31388,0,0,1-.64746-.69434,3.93675,3.93675,0,0,0-.41358,3.207,4.13471,4.13471,0,0,0,1.37744,1.834c.1543.126.28321.22851.4126.33056a5.9484,5.9484,0,0,1,2.27,2.89746.75.75,0,0,1-1.374.59082c-.02539-.04931-.05225-.09814-.08008-.146a4.90073,4.90073,0,0,1-4.87891,4.50488H12.2998a4.8867,4.8867,0,0,1-1.08789-.12354,4.48289,4.48289,0,0,1-1.19824-.41064,4.94368,4.94368,0,0,1-1.49951-1.36865.80808.80808,0,0,1,.0542-.894.72927.72927,0,0,1,.80713-.25781,3.26428,3.26428,0,0,0,.48.13477,2.54029,2.54029,0,0,0,1.6206-.187l.20557-.11768c.09815-.05518.19385-.10937.28809-.16016a2.94343,2.94343,0,0,0-.43262.11329,2.55354,2.55354,0,0,1-2.14356-.08057,2.62886,2.62886,0,0,1-.22949-.13623.77146.77146,0,0,1-.16064-.14453c-.085-.05225-.1753-.11133-.26367-.17285a.75615.75615,0,0,1-.22022-.23975,2.8189,2.8189,0,0,1-.42187-.5,1.792,1.792,0,0,1-.09815-1.62451,1.58079,1.58079,0,0,1,.708-.69776c.02295-.01074.04639-.0205.06982-.02929a.77028.77028,0,0,1,.11036-.04883.79947.79947,0,0,1,.0913-.02539.64374.64374,0,0,1,.19141-.02295c.00439-.02441.00977-.04834.01563-.07227a.76325.76325,0,0,1,.1538-.41308c.01465-.01905.07471-.0918.09082-.10938a1.64434,1.64434,0,0,1,.2583-.21484,6.62672,6.62672,0,0,1,.9834-.5044l.09131-.03906q-.123-.01318-.27148-.02734a1.82311,1.82311,0,0,1-1.26172-.79492.75018.75018,0,0,1-.26807-.85108l.001-.00244H8.96289l.02588-.07129a.75773.75773,0,0,1-.60547.0293,2.91125,2.91125,0,0,0-1.626-.13867.74853.74853,0,0,1-.65576-.18213c-.01367-.01221-.02685-.02539-.03908-.03858a2.44128,2.44128,0,0,1-.37107-.40918c-.00977-.00976-.01856-.02-.02784-.03076-.04736-.06543-.08447-.11963-.11621-.168a4.74851,4.74851,0,0,0-.23242,1.09619,1.21328,1.21328,0,0,0-.01562.21973.7742.7742,0,0,1-.19678.541,3.12821,3.12821,0,0,0-.38379.51562,8.249,8.249,0,0,0-.42773.8252.74933.74933,0,0,1,.01464.585,7.94046,7.94046,0,0,0-.435,1.53808.74834.74834,0,0,1,.14013.4751A7.32061,7.32061,0,0,0,4.669,15.62793,7.969,7.969,0,0,0,7.83789,19.2251a6.92351,6.92351,0,0,0,1.84959.8916l.12063.042c.02392.00488.04834.01074.07275.01807a8.379,8.379,0,0,0,2.40283.35351c2.79736,0,3.67383-1.023,3.68262-1.0332a.90174.90174,0,0,1,.084-.08887.83242.83242,0,0,0,.19483-.26269.75006.75006,0,0,1,.39209-.3711L16.792,18.707m-.94922-15.814v0Zm.00049-.00147v0Z"/></svg>