<svg fill="currentColor" id="icons" xmlns="http://www.w3.org/2000/svg" viewBox="0 0 24 24"><title>01-03-flag-m</title><rect id="canvas" width="24" height="24" style="fill:none"/><path d="M19.96332,4.4848a.72489.72489,0,0,0-.09943-.22455l-.00647-.01464-.00964-.00928a.73158.73158,0,0,0-.18945-.18237l-.02375-.016a.72678.72678,0,0,0-.23126-.09051c-.0141-.00311-.02728-.0061-.04156-.00836a.29186.29186,0,0,0-.22663.00061.73515.73515,0,0,0-.07721.01562.722.722,0,0,0-.17486.07074c-.01935.01038-.04114.012-.05982.02423A6.54165,6.54165,0,0,1,15.625,4.5835a9.93589,9.93589,0,0,1-3.37744-.75A11.27889,11.27889,0,0,0,8.375,3c-2.93164,0-4.02441.94971-4.13916,1.05811l-.00653.00915a.74791.74791,0,0,0-.1004.14118A.7501.7501,0,0,0,4.0658,4.302a.75756.75756,0,0,0-.04053.17682.74107.74107,0,0,0-.01911.09467C4.00574,4.58423,4,4.5932,4,4.604V20.25a.75.75,0,0,0,1.5,0V14.3064a8.38491,8.38491,0,0,1,2.875-.3899,9.93848,9.93848,0,0,1,3.37744.75A11.28143,11.28143,0,0,0,15.625,15.5c2.94238,0,4.03711-.99854,4.15234-1.11279l.00116-.00177A.7473.7473,0,0,0,20,13.854V4.6665a.70785.70785,0,0,0-.023-.11395C19.97308,4.52954,19.96948,4.50763,19.96332,4.4848ZM12.24756,13.25A11.27889,11.27889,0,0,0,8.375,12.4165a11.15186,11.15186,0,0,0-2.875.31891V5.01654A6.39215,6.39215,0,0,1,8.375,4.5a9.93848,9.93848,0,0,1,3.37744.75,11.28143,11.28143,0,0,0,3.87256.8335,11.15024,11.15024,0,0,0,2.875-.319V13.4538A6.07544,6.07544,0,0,1,15.625,14,9.93589,9.93589,0,0,1,12.24756,13.25Z"/></svg>