<svg fill="currentColor" id="icons" xmlns="http://www.w3.org/2000/svg" viewBox="0 0 24 24"><title>02-13-folder-open-m</title><rect id="canvas" width="24" height="24" style="fill:none"/><path d="M20.9502,10.75391v-.30762a2.75311,2.75311,0,0,0-2.75-2.75H13.65527a1.2435,1.2435,0,0,1-.97509-.46875L11.794,6.124A2.73424,2.73424,0,0,0,9.64844,5.09375H5.7002a2.75311,2.75311,0,0,0-2.75,2.75v8.5a2.74944,2.74944,0,0,0,2.73242,2.75l11.60009.00586a2.753,2.753,0,0,0,2.39405-1.39649l2.36377-4.19433a1.75091,1.75091,0,0,0-1.09033-2.75488ZM4.77246,17.18066a1.24568,1.24568,0,0,1-.32226-.83691v-8.5a1.25116,1.25116,0,0,1,1.25-1.25H9.64844a1.24351,1.24351,0,0,1,.9751.46875L11.50977,8.166a2.73421,2.73421,0,0,0,2.1455,1.03027H18.2002a1.25116,1.25116,0,0,1,1.25,1.25v.27832H10.01465a2.7844,2.7844,0,0,0-2.2666,1.20019Zm16.01025-4.48437-2.4121,4.26855a1.25017,1.25017,0,0,1-1.0879.63477H6.2583l2.748-4.86328a1.25375,1.25375,0,0,1,1.0083-.51172H20.62842a.24151.24151,0,0,1,.22314.13672C20.87744,12.41309,20.90918,12.51465,20.78271,12.69629Z"/></svg>