<svg fill="currentColor" id="icons" xmlns="http://www.w3.org/2000/svg" viewBox="0 0 24 24"><title>02-01-folder-m</title><rect id="canvas" width="24" height="24" style="fill:none"/><path d="M5.7002,19.09375h12.5a2.7528,2.7528,0,0,0,2.75-2.75V10.44629a2.7528,2.7528,0,0,0-2.75-2.75H13.65527a1.24336,1.24336,0,0,1-.97509-.46777l-.88672-1.10547a2.73532,2.73532,0,0,0-2.145-1.0293H5.7002a2.75279,2.75279,0,0,0-2.75,2.75v8.5A2.75279,2.75279,0,0,0,5.7002,19.09375Zm-1.25-11.25a1.25116,1.25116,0,0,1,1.25-1.25H9.64844a1.24337,1.24337,0,0,1,.9751.46777L11.51025,8.167a2.73532,2.73532,0,0,0,2.145,1.0293H18.2002a1.25116,1.25116,0,0,1,1.25,1.25v5.89746a1.25116,1.25116,0,0,1-1.25,1.25h-12.5a1.25116,1.25116,0,0,1-1.25-1.25Z"/></svg>