<svg fill="currentColor" id="icons" xmlns="http://www.w3.org/2000/svg" viewBox="0 0 24 24"><title>02-12-folder-stop-m</title><rect id="canvas" width="24" height="24" style="fill:none"/><path d="M18.9502,14H15.65039a1.3514,1.3514,0,0,0-1.35059,1.34961v3.30078A1.3514,1.3514,0,0,0,15.65039,20H18.9502a1.35118,1.35118,0,0,0,1.3496-1.34961V15.34961A1.35118,1.35118,0,0,0,18.9502,14Zm-.1504,4.5h-3v-3h3Z"/><path d="M18.2002,7.69629H13.65527a1.246,1.246,0,0,1-.97558-.46729L11.794,6.12256A2.74019,2.74019,0,0,0,9.64844,5.09375H5.7002a2.75279,2.75279,0,0,0-2.75,2.75v8.5a2.75279,2.75279,0,0,0,2.75,2.75H11.25a.75.75,0,0,0,0-1.5H5.7002a1.25116,1.25116,0,0,1-1.25-1.25v-8.5a1.25116,1.25116,0,0,1,1.25-1.25H9.64844A1.246,1.246,0,0,1,10.624,7.061l.88575,1.10644a2.74016,2.74016,0,0,0,2.1455,1.02881H18.2002a1.25116,1.25116,0,0,1,1.25,1.25V11.25a.75.75,0,0,0,1.5,0v-.80371A2.7528,2.7528,0,0,0,18.2002,7.69629Z"/></svg>