<svg fill="currentColor" id="icons" xmlns="http://www.w3.org/2000/svg" viewBox="0 0 24 24"><title>02-05-folder-archive-m</title><rect id="canvas" width="24" height="24" style="fill:none"/><circle cx="8.25" cy="9.30829" r="1"/><circle cx="8.25" cy="11.97498" r="1"/><circle cx="8.25" cy="14.64166" r="1"/><path d="M18.2002,7.69629H13.65527a1.246,1.246,0,0,1-.97558-.46729L11.794,6.12256A2.74019,2.74019,0,0,0,9.64844,5.09375H5.7002a2.75279,2.75279,0,0,0-2.75,2.75v8.5a2.75279,2.75279,0,0,0,2.75,2.75h12.5a2.7528,2.7528,0,0,0,2.75-2.75V10.44629A2.7528,2.7528,0,0,0,18.2002,7.69629Zm1.25,8.64746a1.25116,1.25116,0,0,1-1.25,1.25h-12.5a1.25116,1.25116,0,0,1-1.25-1.25v-8.5a1.25116,1.25116,0,0,1,1.25-1.25H9.64844A1.246,1.246,0,0,1,10.624,7.061l.88575,1.10644a2.74016,2.74016,0,0,0,2.1455,1.02881H18.2002a1.25116,1.25116,0,0,1,1.25,1.25Z"/></svg>