<svg fill="currentColor" id="icons" xmlns="http://www.w3.org/2000/svg" viewBox="0 0 24 24"><title>02-04-folder-code-m</title><rect id="canvas" width="24" height="24" style="fill:none"/><path d="M19.04,14.65479a.75029.75029,0,0,0-1.09375,1.02734l1.624,1.727-1.624,1.72705A.75029.75029,0,0,0,19.04,20.16357l2.10644-2.24072a.75171.75171,0,0,0,0-1.02734Z"/><path d="M16.58594,14.60352a.7506.7506,0,0,0-1.06055.03271L13.419,16.877a.75172.75172,0,0,0,0,1.02735L15.52539,20.145a.75029.75029,0,0,0,1.09375-1.02734l-1.624-1.72706,1.624-1.727A.75039.75039,0,0,0,16.58594,14.60352Z"/><path d="M5.7002,19.09375H11.25a.75.75,0,0,0,0-1.5H5.7002a1.25116,1.25116,0,0,1-1.25-1.25v-8.5a1.25116,1.25116,0,0,1,1.25-1.25H9.64844A1.246,1.246,0,0,1,10.624,7.061l.88575,1.10644a2.74016,2.74016,0,0,0,2.1455,1.02881H18.2002a1.25116,1.25116,0,0,1,1.25,1.25V11.25a.75.75,0,0,0,1.5,0v-.80371a2.7528,2.7528,0,0,0-2.75-2.75H13.65527a1.246,1.246,0,0,1-.97558-.46729L11.794,6.12256A2.74019,2.74019,0,0,0,9.64844,5.09375H5.7002a2.75279,2.75279,0,0,0-2.75,2.75v8.5A2.75279,2.75279,0,0,0,5.7002,19.09375Z"/></svg>