<svg fill="currentColor" id="icons" xmlns="http://www.w3.org/2000/svg" viewBox="0 0 24 24"><title>02-09-folder-check-m</title><rect id="canvas" width="24" height="24" style="fill:none"/><path d="M19.23145,14.67773l-2.73487,2.71582-1.21924-1.16308a.75013.75013,0,0,0-1.03515,1.08594l1.74756,1.667a.7501.7501,0,0,0,1.04589-.01074l3.25245-3.23047a.74993.74993,0,0,0-1.05664-1.06446Z"/><path d="M12,18.34375a.7502.7502,0,0,0-.75-.75H5.7002a1.25116,1.25116,0,0,1-1.25-1.25v-8.5a1.25116,1.25116,0,0,1,1.25-1.25H9.64844a1.24337,1.24337,0,0,1,.9751.46777L11.51025,8.167a2.73532,2.73532,0,0,0,2.145,1.0293H18.2002a1.25116,1.25116,0,0,1,1.25,1.25V11.25a.75.75,0,0,0,1.5,0v-.80371a2.7528,2.7528,0,0,0-2.75-2.75H13.65527a1.24336,1.24336,0,0,1-.97509-.46777l-.88672-1.10547a2.73532,2.73532,0,0,0-2.145-1.0293H5.7002a2.75279,2.75279,0,0,0-2.75,2.75v8.5a2.75279,2.75279,0,0,0,2.75,2.75H11.25A.7502.7502,0,0,0,12,18.34375Z"/></svg>