<svg fill="currentColor" id="icons" xmlns="http://www.w3.org/2000/svg" viewBox="0 0 24 24"><title>02-03-folder-upload-m</title><rect id="canvas" width="24" height="24" style="fill:none"/><path d="M17.78027,14.99463a.74972.74972,0,0,0-1.06054,0l-3,3a.74992.74992,0,0,0,1.06054,1.06055L17.25,16.58545l2.46973,2.46973a.74992.74992,0,0,0,1.06054-1.06055Z"/><path d="M5.7002,19.09375H11.25a.75.75,0,0,0,0-1.5H5.7002a1.25116,1.25116,0,0,1-1.25-1.25v-8.5a1.25116,1.25116,0,0,1,1.25-1.25H9.64844a1.24337,1.24337,0,0,1,.9751.46777L11.51025,8.167a2.73532,2.73532,0,0,0,2.145,1.0293H18.2002a1.25116,1.25116,0,0,1,1.25,1.25V11.25a.75.75,0,0,0,1.5,0v-.80371a2.7528,2.7528,0,0,0-2.75-2.75H13.65527a1.24336,1.24336,0,0,1-.97509-.46777l-.88672-1.10547a2.73532,2.73532,0,0,0-2.145-1.0293H5.7002a2.75279,2.75279,0,0,0-2.75,2.75v8.5A2.75279,2.75279,0,0,0,5.7002,19.09375Z"/></svg>