<svg fill="currentColor" id="icons" xmlns="http://www.w3.org/2000/svg" viewBox="0 0 24 24"><title>02-11-folder-action-m</title><rect id="canvas" width="24" height="24" style="fill:none"/><path d="M19.58789,15.95117h-.001l-3.418-2.07812a1.19026,1.19026,0,0,0-1.19727-.02051,1.171,1.171,0,0,0-.59863,1.01953v4.15625a1.17063,1.17063,0,0,0,.59863,1.01856,1.18277,1.18277,0,0,0,1.19629-.02051l3.41992-2.07715a1.16841,1.16841,0,0,0,0-1.99805Zm-3.71484,2.499v-3.001l2.46972,1.501Z"/><path d="M18.2002,7.69629H13.65527a1.246,1.246,0,0,1-.97558-.46729L11.794,6.12256A2.74019,2.74019,0,0,0,9.64844,5.09375H5.7002a2.75279,2.75279,0,0,0-2.75,2.75v8.5a2.75279,2.75279,0,0,0,2.75,2.75H11.25a.75.75,0,0,0,0-1.5H5.7002a1.25116,1.25116,0,0,1-1.25-1.25v-8.5a1.25116,1.25116,0,0,1,1.25-1.25H9.64844A1.246,1.246,0,0,1,10.624,7.061l.88575,1.10644a2.74016,2.74016,0,0,0,2.1455,1.02881H18.2002a1.25116,1.25116,0,0,1,1.25,1.25V11.25a.75.75,0,0,0,1.5,0v-.80371A2.7528,2.7528,0,0,0,18.2002,7.69629Z"/></svg>