<svg fill="currentColor" id="icons" xmlns="http://www.w3.org/2000/svg" viewBox="0 0 24 24"><title>02-01-folder-s</title><rect id="canvas" width="24" height="24" style="fill:none"/><path d="M15.92725,17.09375H7.97266A2.06974,2.06974,0,0,1,5.9502,14.98389V9.20361A2.06974,2.06974,0,0,1,7.97266,7.09375h2.51269a1.98025,1.98025,0,0,1,1.59277.80957l.564.751a.49564.49564,0,0,0,.39307.209h2.89209a2.07058,2.07058,0,0,1,2.02295,2.11035v4.01026A2.07015,2.07015,0,0,1,15.92725,17.09375Zm-7.95459-8.5a.57182.57182,0,0,0-.52246.60986v5.78028a.57182.57182,0,0,0,.52246.60986h7.95459a.57186.57186,0,0,0,.52295-.60986V10.97363a.57233.57233,0,0,0-.52295-.61035H13.03516a1.97979,1.97979,0,0,1-1.59278-.80908l-.564-.751a.49482.49482,0,0,0-.39307-.20947Z"/></svg>