<?xml version="1.0" encoding="utf-8"?>
<!-- Generator: Adobe Illustrator 24.2.3, SVG Export Plug-In . SVG Version: 6.00 Build 0)  -->
<svg fill="currentColor" version="1.1" id="Warstwa_1" xmlns="http://www.w3.org/2000/svg" xmlns:xlink="http://www.w3.org/1999/xlink" x="0px" y="0px"
	 viewBox="0 0 24 24" style="enable-background:new 0 0 24 24;" xml:space="preserve">

<g id="transparent_canvas">
	<rect id="canvas" y="0" fill="none" width="24" height="24"/>
</g>
<path d="M10.8,18.3H5.2c-1.5,0-2.7-1.2-2.8-2.7V7c0-1.5,1.2-2.7,2.8-2.8h3.9c0.8,0,1.6,0.4,2.1,1l0.9,1.1
	c0.2,0.3,0.6,0.5,1,0.5h4.5c1.5,0,2.7,1.2,2.8,2.8v0.8c0,0.4-0.3,0.8-0.8,0.8c-0.4,0-0.8-0.3-0.8-0.8V9.6c0-0.7-0.6-1.2-1.2-1.3
	h-4.5c-0.8,0-1.6-0.4-2.1-1l-0.9-1.1C9.9,6,9.6,5.8,9.2,5.8H5.2C4.5,5.8,4,6.4,4,7v8.5c0,0.7,0.6,1.2,1.2,1.2h5.5
	c0.4,0,0.8,0.3,0.8,0.8C11.5,18,11.2,18.3,10.8,18.3z"/>
<path d="M16.6,16.9c0.1,0,0.2,0,0.3,0.1l1.2,0.6L18,16.4c0-0.3,0-0.5,0.2-0.7l0.9-0.8l-1.3-0.2c-0.2,0-0.5-0.2-0.6-0.4
	l-0.6-1.2L16,14.3c-0.1,0.2-0.3,0.4-0.6,0.4l-1.3,0.2l0.9,0.8c0.2,0.2,0.3,0.4,0.2,0.7l-0.2,1.2l1.2-0.6
	C16.4,16.9,16.5,16.9,16.6,16.9z M14.1,19.7c-0.2,0-0.4-0.1-0.6-0.3c-0.1-0.2-0.2-0.4-0.2-0.6l0.4-2.3L12,14.9
	c-0.2-0.2-0.3-0.5-0.2-0.8c0.1-0.3,0.3-0.5,0.6-0.5l2.5-0.3l1.1-2.1c0.1-0.2,0.4-0.4,0.7-0.4s0.5,0.1,0.7,0.4l1.1,2.1l2.5,0.3
	c0.3,0,0.5,0.2,0.6,0.5c0.1,0.3,0,0.6-0.2,0.8l-1.8,1.6l0.4,2.3c0.1,0.3-0.1,0.6-0.3,0.7c-0.2,0.2-0.5,0.2-0.8,0.1l-2.2-1.1
	l-2.2,1.1C14.3,19.7,14.2,19.7,14.1,19.7z"/>
</svg>
