<svg fill="currentColor" id="icons" xmlns="http://www.w3.org/2000/svg" viewBox="0 0 24 24"><title>02-15-folder-tree-m</title><rect id="canvas" width="24" height="24" style="fill:none"/><path d="M17.80371,14.60742h-3.166a3.19629,3.19629,0,1,0,0,6.39258h3.166a3.19629,3.19629,0,1,0,0-6.39258Zm0,4.89258h-3.166a1.69629,1.69629,0,0,1,0-3.39258h3.166a1.69629,1.69629,0,1,1,0,3.39258Z"/><path d="M13.145,9.39258A3.19629,3.19629,0,0,0,13.145,3H6.19629a3.19629,3.19629,0,0,0,0,6.39258ZM4.5,6.19629A1.69794,1.69794,0,0,1,6.19629,4.5H13.145a1.69629,1.69629,0,0,1,0,3.39258H6.19629A1.69794,1.69794,0,0,1,4.5,6.19629Z"/><path d="M9.36865,13.5791a.75.75,0,0,0,0-1.5H7.37744v-.98926a.75.75,0,0,0-1.5,0v4.56641a3.2,3.2,0,0,0,3.19678,3.19629h.29443a.75.75,0,0,0,0-1.5H9.07422a1.69836,1.69836,0,0,1-1.69678-1.69629V13.5791Z"/></svg>