<svg fill="currentColor" id="icons" xmlns="http://www.w3.org/2000/svg" viewBox="0 0 24 24"><title>02-14-folder-update-m</title><rect id="canvas" width="24" height="24" style="fill:none"/><path d="M17.01123,14.49609a2.45456,2.45456,0,0,1,.72656.12207.75036.75036,0,0,0,.4375-1.43554A3.95468,3.95468,0,0,0,13.02,16.9873a3.92989,3.92989,0,0,0,.188,1.165.74972.74972,0,1,0,1.43359-.43945A2.44392,2.44392,0,0,1,14.52,16.9873,2.49388,2.49388,0,0,1,17.01123,14.49609Z"/><path d="M19.85986,15.29883a.74947.74947,0,0,0-.48828.9414,2.44349,2.44349,0,0,1,.13086.74707,2.49388,2.49388,0,0,1-2.49121,2.49122,2.46856,2.46856,0,0,1-.74707-.13086.74974.74974,0,1,0-.45215,1.42968,3.9341,3.9341,0,0,0,1.19922.20118,3.99552,3.99552,0,0,0,3.99121-3.99122,3.94088,3.94088,0,0,0-.20117-1.20019A.74812.74812,0,0,0,19.85986,15.29883Z"/><path d="M11.25,17.59375H5.7002a1.25116,1.25116,0,0,1-1.25-1.25v-8.5a1.25116,1.25116,0,0,1,1.25-1.25H9.64844a1.24351,1.24351,0,0,1,.9751.46875L11.50977,8.166a2.73421,2.73421,0,0,0,2.1455,1.03027H18.2002a1.25116,1.25116,0,0,1,1.25,1.25V11.25a.75.75,0,0,0,1.5,0v-.80371a2.7528,2.7528,0,0,0-2.75-2.75H13.65527a1.2435,1.2435,0,0,1-.97509-.46875L11.794,6.124A2.73424,2.73424,0,0,0,9.64844,5.09375H5.7002a2.75279,2.75279,0,0,0-2.75,2.75v8.5a2.75279,2.75279,0,0,0,2.75,2.75H11.25a.75.75,0,0,0,0-1.5Z"/></svg>