<svg fill="currentColor" id="icons" xmlns="http://www.w3.org/2000/svg" viewBox="0 0 24 24"><title>02-06-folder-block-m</title><rect id="canvas" width="24" height="24" style="fill:none"/><path d="M17.25,13.28223a3.75,3.75,0,1,0,3.75,3.75A3.75442,3.75442,0,0,0,17.25,13.28223Zm0,1.5a2.22323,2.22323,0,0,1,.97815.23321l-2.99506,2.99469A2.22265,2.22265,0,0,1,15,17.03223,2.25277,2.25277,0,0,1,17.25,14.78223Zm0,4.5a2.22468,2.22468,0,0,1-.95-.218l2.98218-2.98181a2.22477,2.22477,0,0,1,.21777.94977A2.25278,2.25278,0,0,1,17.25,19.28223Z"/><path d="M5.7002,19.09375H11.25a.75.75,0,0,0,0-1.5H5.7002a1.25116,1.25116,0,0,1-1.25-1.25v-8.5a1.25116,1.25116,0,0,1,1.25-1.25H9.64844A1.246,1.246,0,0,1,10.624,7.061l.88575,1.10644a2.74016,2.74016,0,0,0,2.1455,1.02881H18.2002a1.25116,1.25116,0,0,1,1.25,1.25V11.25a.75.75,0,0,0,1.5,0v-.80371a2.7528,2.7528,0,0,0-2.75-2.75H13.65527a1.246,1.246,0,0,1-.97558-.46729L11.794,6.12256A2.74019,2.74019,0,0,0,9.64844,5.09375H5.7002a2.75279,2.75279,0,0,0-2.75,2.75v8.5A2.75279,2.75279,0,0,0,5.7002,19.09375Z"/></svg>