<svg fill="currentColor" id="icons" xmlns="http://www.w3.org/2000/svg" viewBox="0 0 24 24"><title>02-04-font-m</title><rect id="canvas" width="24" height="24" style="fill:none"/><path d="M5.32031,18.919a.74983.74983,0,0,0,1.00781-.32959l1.69513-3.34168.01386.00281h7.9411l1.69367,3.33887a.7501.7501,0,0,0,1.33789-.67872l-6.34082-12.5a.698.698,0,0,0-.05195-.06585.6507.6507,0,0,0-.21484-.21381.71113.71113,0,0,0-.06329-.04993c-.01667-.00848-.03473-.0072-.0517-.01434a.79541.79541,0,0,0-.57379-.00012c-.01715.0072-.0354.00592-.05225.01446a.70238.70238,0,0,0-.0639.05042.651.651,0,0,0-.21436.2135.70505.70505,0,0,0-.05182.06567l-6.34082,12.5A.74963.74963,0,0,0,5.32031,18.919Zm3.4624-5.16846L12,7.40808l3.21729,6.34241Z"/></svg>