<svg fill="currentColor" id="icons" xmlns="http://www.w3.org/2000/svg" viewBox="0 0 24 24"><title>03-03-formula-m</title><rect id="canvas" width="24" height="24" style="fill:none"/><path d="M13.1001,10.96436a.75.75,0,0,0,0-1.5H11.27539C11.87561,6.50055,13.52,6.5,15.12061,6.5a.75.75,0,0,0,0-1.5c-1.764,0-4.54548.01245-5.35181,4.46436H7.6499a.75.75,0,1,0,0,1.5H9.587c-.02253.32714-.04181.66131-.04694,1.02539C9.46289,17.5,6.957,17.5,5.46,17.5a.75.75,0,1,0,0,1.5c1.49951,0,5.48242,0,5.58008-6.98926.00531-.37543.02136-.7204.04419-1.04638Z"/><path d="M19.07031,12.71973a.74972.74972,0,0,0-1.06054,0L16.04,14.68945l-1.96973-1.96972a.74992.74992,0,0,0-1.06054,1.06054L14.97949,15.75l-1.96972,1.96973a.74992.74992,0,1,0,1.06054,1.06054L16.04,16.81055l1.96973,1.96972a.74992.74992,0,0,0,1.06054-1.06054L17.10059,15.75l1.96972-1.96973A.74972.74972,0,0,0,19.07031,12.71973Z"/></svg>