<svg fill="currentColor" id="icons" xmlns="http://www.w3.org/2000/svg" viewBox="0 0 24 24"><title>10-08-form-m</title><rect id="canvas" width="24" height="24" style="fill:none"/><path d="M18.25,3h-3.5A2.7528,2.7528,0,0,0,12,5.75v2.5A2.7528,2.7528,0,0,0,14.75,11h3.5A2.7528,2.7528,0,0,0,21,8.25V5.75A2.7528,2.7528,0,0,0,18.25,3ZM19.5,8.25A1.25116,1.25116,0,0,1,18.25,9.5h-3.5A1.25116,1.25116,0,0,1,13.5,8.25V5.75A1.25116,1.25116,0,0,1,14.75,4.5h3.5A1.25116,1.25116,0,0,1,19.5,5.75Z"/><path d="M18.23682,12.93359h-12.5a2.75279,2.75279,0,0,0-2.75,2.75v2.5a2.75279,2.75279,0,0,0,2.75,2.75h12.5a2.75279,2.75279,0,0,0,2.75-2.75v-2.5A2.7528,2.7528,0,0,0,18.23682,12.93359Zm1.25,5.25a1.25116,1.25116,0,0,1-1.25,1.25h-12.5a1.25115,1.25115,0,0,1-1.25-1.25v-2.5a1.25116,1.25116,0,0,1,1.25-1.25h12.5a1.25116,1.25116,0,0,1,1.25,1.25Z"/><path d="M9.314,2.99121H3.75a.75.75,0,1,0,0,1.5H9.314a.75.75,0,0,0,0-1.5Z"/><path d="M9.34131,6.23633h-5.564a.75.75,0,1,0,0,1.5h5.564a.75.75,0,0,0,0-1.5Z"/><path d="M9.34131,9.48242h-5.564a.75.75,0,0,0,0,1.5h5.564a.75.75,0,0,0,0-1.5Z"/></svg>