<svg fill="currentColor" id="icons" xmlns="http://www.w3.org/2000/svg" viewBox="0 0 24 24"><title>01-07-from-to-path-m</title><rect id="canvas" width="24" height="24" style="fill:none"/><path d="M5.106,10.3501A2.08967,2.08967,0,1,0,7.2124,12.43945,2.10028,2.10028,0,0,0,5.106,10.3501Zm0,2.6792a.58983.58983,0,1,1,.60644-.58985A.59886.59886,0,0,1,5.106,13.0293Z"/><path d="M15.0166,14.17041,12.5,16.61768a1.51486,1.51486,0,0,1-2.11914-.022,1.44367,1.44367,0,0,1,0-2.061L14.44727,10.519a2.94383,2.94383,0,0,0-.00049-4.1958,3.01361,3.01361,0,0,0-4.22364.002L7.74268,8.78076A.75027.75027,0,1,0,8.79834,9.84717L11.27881,7.3916a1.5082,1.5082,0,0,1,2.11426-.001,1.44371,1.44371,0,0,1,0,2.061L9.32715,13.46729a2.94359,2.94359,0,0,0,.01367,4.20947,3.01962,3.01962,0,0,0,4.20508.01611l2.51658-2.44726a.75.75,0,1,0-1.04588-1.0752Z"/><path d="M20.25,10.85254h-.832v-.813a.75.75,0,0,0-1.5,0v.813h-.83252a.75.75,0,0,0,0,1.5H17.918v.8125a.75.75,0,1,0,1.5,0v-.8125h.832a.75.75,0,0,0,0-1.5Z"/></svg>