<svg fill="currentColor" id="icons" xmlns="http://www.w3.org/2000/svg" viewBox="0 0 24 24"><title>04-05-full-screen-min-m</title><rect id="canvas" width="24" height="24" style="fill:none"/><path d="M9.52734,17.5H6.5V14.47266a.75.75,0,1,0-1.5,0V18.25a.7502.7502,0,0,0,.75.75H9.52734a.75.75,0,1,0,0-1.5Z"/><path d="M18.25,5H14.47266a.75.75,0,1,0,0,1.5H17.5V9.52783a.75.75,0,1,0,1.5,0V5.75A.7502.7502,0,0,0,18.25,5Z"/><path d="M18.25,13.72266a.75019.75019,0,0,0-.75.75V17.5H14.47266a.75.75,0,1,0,0,1.5H18.25a.7502.7502,0,0,0,.75-.75V14.47266A.75019.75019,0,0,0,18.25,13.72266Z"/><path d="M5.75,10.27783a.7502.7502,0,0,0,.75-.75V6.5H9.52734a.75.75,0,0,0,0-1.5H5.75A.7502.7502,0,0,0,5,5.75V9.52783A.7502.7502,0,0,0,5.75,10.27783Z"/><path d="M8.75,9.5v5a.7502.7502,0,0,0,.75.75h5a.7502.7502,0,0,0,.75-.75v-5a.7502.7502,0,0,0-.75-.75h-5A.7502.7502,0,0,0,8.75,9.5Zm1.5.75h3.5v3.5h-3.5Z"/></svg>