<svg fill="currentColor" id="icons" xmlns="http://www.w3.org/2000/svg" viewBox="0 0 24 24"><title>02-02-funnel-m</title><rect id="canvas" width="24" height="24" style="fill:none"/><path d="M18.71973,4H5.28027a1.75213,1.75213,0,0,0-1.75,1.75V7.294a2.74258,2.74258,0,0,0,.979,2.104L8.749,12.9668a2.24671,2.24671,0,0,1,.80078,1.72168v4.82959a.75029.75029,0,0,0,1.12891.64746l3.4502-2.01807A.75.75,0,0,0,14.5,17.5V14.68066a2.24771,2.24771,0,0,1,.794-1.71533l4.20556-3.56982a2.74343,2.74343,0,0,0,.97022-2.09619V5.75A1.75213,1.75213,0,0,0,18.71973,4Zm.25,3.29932a1.247,1.247,0,0,1-.44092.95263l-4.20557,3.56983A3.74565,3.74565,0,0,0,13,14.68066v2.38916l-1.9502,1.14063v-3.522a3.74224,3.74224,0,0,0-1.335-2.86914L5.4751,8.25049A1.24689,1.24689,0,0,1,5.03027,7.294V5.75a.25048.25048,0,0,1,.25-.25H18.71973a.25048.25048,0,0,1,.25.25Z"/></svg>