<svg fill="currentColor" id="icons" xmlns="http://www.w3.org/2000/svg" viewBox="0 0 24 24"><title>02-05-geoanalytics-m</title><rect id="canvas" width="24" height="24" style="fill:none"/><path d="M15.64062,13.794l-2.376-1.59571a.74794.74794,0,0,0-.37012-.126l-1.56445-.09961a.742.742,0,0,0-.57715.21728l-.89355.89014a.75.75,0,0,0-.09473.94726L11.376,16.44385a.74952.74952,0,0,0,.624.334h2.417a.75019.75019,0,0,0,.6709-.41455l.80566-1.61133A.74955.74955,0,0,0,15.64062,13.794Zm-1.6875,1.48388H12.40137L11.35449,13.708l.21778-.2168,1.02441.06543,1.66016,1.11475Z"/><path d="M19.96875,11.28027a8.06864,8.06864,0,0,0-6.00482-7.0318c-.00861-.0025-.01471-.009-.0235-.01117-.0105-.00256-.02069.00086-.03119-.00128a7.70823,7.70823,0,0,0-1.18854-.20477,8.00127,8.00127,0,0,0-1.4414,15.9375c.23828.021.47461.03076.71093.03076a7.99059,7.99059,0,0,0,7.97852-8.71924Zm-7.958-5.77978q.28857,0,.5791.0249c.08368.00732.16187.03357.24469.04413l-.648,2.59064-2.78125.6997a.75338.75338,0,0,0-.4873.38965l-.40723.80713L6.49359,8.54181a6.46564,6.46564,0,0,1,5.51715-3.04132ZM16.59961,16.6001A6.49613,6.49613,0,0,1,5.84442,9.92963L8.32715,11.794a.74743.74743,0,0,0,.45019.15039.74908.74908,0,0,0,.66993-.41211l.65625-1.30127,2.88476-.72559a.75117.75117,0,0,0,.54492-.5459l.75421-3.01721a6.47932,6.47932,0,0,1,2.3122,10.65784Z"/></svg>