<svg fill="currentColor" id="icons" xmlns="http://www.w3.org/2000/svg" viewBox="0 0 24 24"><title>01-04-globe-m</title><rect id="canvas" width="24" height="24" style="fill:none"/><path d="M12,4a8,8,0,1,0,8,8A8.00917,8.00917,0,0,0,12,4Zm6.41064,6.97217a18.42391,18.42391,0,0,1-2.035.50793,9.92587,9.92587,0,0,0-2.28662-5.62933A6.51114,6.51114,0,0,1,18.41064,10.97217ZM12,18.23969a9.36528,9.36528,0,0,1-2.78723-5.00336A25.07085,25.07085,0,0,0,12,13.40625a25.07085,25.07085,0,0,0,2.78723-.16992A9.36528,9.36528,0,0,1,12,18.23969ZM9.111,11.72156A8.94742,8.94742,0,0,1,12,5.76031a8.94742,8.94742,0,0,1,2.889,5.96125A23.52487,23.52487,0,0,1,9.111,11.72156Zm.8-5.87079A9.926,9.926,0,0,0,7.62433,11.4801a18.42391,18.42391,0,0,1-2.035-.50793A6.51121,6.51121,0,0,1,9.911,5.85077ZM5.52576,12.50842a20.28462,20.28462,0,0,0,2.12689.49927A10.08808,10.08808,0,0,0,9.911,18.14923,6.507,6.507,0,0,1,5.52576,12.50842Zm8.56329,5.64075a10.08793,10.08793,0,0,0,2.2583-5.14148,20.28462,20.28462,0,0,0,2.12689-.49927A6.50712,6.50712,0,0,1,14.08905,18.14917Z"/></svg>