<svg width="24" height="24" viewBox="0 0 24 24" fill="none" xmlns="http://www.w3.org/2000/svg">
<path d="M11.5796 19.1592C7.39312 19.1592 4 15.766 4 11.5796C4 7.39312 7.39312 4 11.5796 4C15.766 4 19.1592 7.39312 19.1592 11.5796" stroke="currentColor" stroke-linecap="round" stroke-linejoin="round"/>
<path d="M4.43359 9.04999H18.6722" stroke="currentColor" stroke-linecap="round" stroke-linejoin="round"/>
<path d="M4.43359 14.1047H11.5803" stroke="currentColor" stroke-linecap="round" stroke-linejoin="round"/>
<path d="M14.9479 11.5794C14.9479 9.25159 14.339 6.92382 13.1229 4.8925C12.4096 3.7025 10.7488 3.7025 10.0364 4.8925C7.60247 8.95599 7.60247 14.2036 10.0364 18.2671C10.3926 18.8617 10.9863 19.1598 11.5801 19.1598" stroke="currentColor" stroke-linecap="round" stroke-linejoin="round"/>
<path d="M16.8418 19.9999C15.0976 19.9999 13.6836 18.5859 13.6836 16.8418C13.6836 15.0976 15.0976 13.6836 16.8418 13.6836C18.5867 13.6836 19.9999 15.0976 19.9999 16.8418C19.9999 18.5859 18.5867 19.9999 16.8418 19.9999" stroke="currentColor" stroke-linecap="round" stroke-linejoin="round"/>
<path d="M16.6309 16.6289L17.4727 17.4707" stroke="currentColor" stroke-linecap="round" stroke-linejoin="round"/>
<path d="M17.1387 15.7891L16.6312 16.6309" stroke="currentColor" stroke-linecap="round" stroke-linejoin="round"/>
</svg>
