<svg fill="currentColor" id="icons" xmlns="http://www.w3.org/2000/svg" viewBox="0 0 24 24"><title>02-07-go-to-step-m</title><rect id="canvas" width="24" height="24" style="fill:none"/><path d="M18.51844,6.5l2.26789-2.25915a.73164.73164,0,0,0,.00929-1.024.70606.70606,0,0,0-1.00875-.00943L17.5,5.48554,15.21313,3.20747a.70565.70565,0,0,0-1.00875.00943.73164.73164,0,0,0,.00929,1.024L16.48156,6.5,14.21367,8.75917a.73164.73164,0,0,0-.00929,1.024.70575.70575,0,0,0,1.00875.00943L17.5,7.5145l2.28687,2.27807a.70575.70575,0,0,0,1.00875-.00943.73164.73164,0,0,0-.00929-1.024Z"/><path d="M7.5,12A4.5,4.5,0,1,0,12,16.5,4.5,4.5,0,0,0,7.5,12Zm0,7.43478A2.93492,2.93492,0,1,1,10.464,16.5,2.95285,2.95285,0,0,1,7.5,19.43478Z"/><path d="M9.279,8.70784a.98223.98223,0,0,0,.21185.0232A.94249.94249,0,0,0,9.689,6.86458a.98291.98291,0,0,0-.21185-.02319A.94248.94248,0,0,0,9.279,8.70784Z"/><path d="M7.30017,11.20988a.98284.98284,0,0,0,.21185.02319A.9425.9425,0,0,0,7.7102,9.36661a.98284.98284,0,0,0-.21185-.02319.9425.9425,0,0,0-.19818,1.86646Z"/><path d="M12.5432,5.07319A.98293.98293,0,0,0,12.33134,5.05a.94249.94249,0,0,0-.19812,1.86646.98293.98293,0,0,0,.21186.02319.94249.94249,0,0,0,.19812-1.86646Z"/></svg>