<svg fill="currentColor" id="icons" xmlns="http://www.w3.org/2000/svg" viewBox="0 0 24 24"><title>code_m_path</title><path d="M16.74023,12.02008a.71976.71976,0,0,0-.01465-.14026.72875.72875,0,0,0-.04266-.14477c-.0091-.022-.00843-.0456-.01978-.06708a.70924.70924,0,0,0-.045-.055.76839.76839,0,0,0-.21143-.21192.688.688,0,0,0-.05414-.04455L7.86529,6.83789a.75012.75012,0,0,0-.70508,1.32422l7.23859,3.85376-7.23664,3.821A.75.75,0,0,0,7.51373,17.25a.74135.74135,0,0,0,.34961-.08691l8.4873-4.48145c.00641-.00336.00983-.00958.016-.01312.01838-.01038.03058-.02747.0481-.03937a.72809.72809,0,0,0,.21179-.22095c.00946-.01513.027-.02112.03558-.03711.0113-.02124.01069-.04461.01978-.0664a.798.798,0,0,0,.05829-.28461Z"/></svg>