<svg fill="currentColor" id="icons" xmlns="http://www.w3.org/2000/svg" viewBox="0 0 24 24"><title>09-09-grid-7-m</title><rect id="canvas" width="24" height="24" style="fill:none"/><path d="M18.24609,2.94873h-12.5a2.75311,2.75311,0,0,0-2.75,2.75V18.19922a2.7528,2.7528,0,0,0,2.75,2.75h12.5a2.75279,2.75279,0,0,0,2.75-2.75V5.69873A2.75311,2.75311,0,0,0,18.24609,2.94873Zm-13.75,7.01642a.71449.71449,0,0,0,.15332.03094h6.55677l.03747,4H4.64941a.71451.71451,0,0,0-.15332.03095Zm8.21021.03094h6.75854c.01111,0,.02027-.00579.03125-.00628v4.01257c-.011-.00049-.02014-.00629-.03125-.00629H12.74365ZM5.74609,4.44873h12.5a1.25116,1.25116,0,0,1,1.25,1.25V8.50238c-.011-.00049-.02014-.00629-.03125-.00629H4.64941a.71451.71451,0,0,0-.15332.03095V5.69873A1.25116,1.25116,0,0,1,5.74609,4.44873Zm-1.25,13.75049V15.46515a.71449.71449,0,0,0,.15332.03094h6.60816l.03711,3.95313H5.74609A1.25116,1.25116,0,0,1,4.49609,18.19922Zm13.75,1.25H12.79468l-.03687-3.95313h6.707c.01111,0,.02027-.00579.03125-.00628v2.70941A1.25116,1.25116,0,0,1,18.24609,19.44922Z"/></svg>