<svg fill="currentColor" id="icons" xmlns="http://www.w3.org/2000/svg" viewBox="0 0 24 24"><title>09-07-grid-5-m</title><rect id="canvas" width="24" height="24" style="fill:none"/><path d="M18.24609,2.94873h-12.5a2.75311,2.75311,0,0,0-2.75,2.75V18.19922a2.7528,2.7528,0,0,0,2.75,2.75h12.5a2.75279,2.75279,0,0,0,2.75-2.75V5.69873A2.75311,2.75311,0,0,0,18.24609,2.94873Zm-12.5,1.5h12.5a1.25116,1.25116,0,0,1,1.25,1.25V8.1001h-15V5.69873A1.25116,1.25116,0,0,1,5.74609,4.44873Zm-1.25,13.75049V9.6001h9.4961v9.84912H5.74609A1.25116,1.25116,0,0,1,4.49609,18.19922Zm13.75,1.25h-2.7539V9.6001h4.0039v8.59912A1.25116,1.25116,0,0,1,18.24609,19.44922Z"/></svg>