<svg fill="currentColor" id="icons" xmlns="http://www.w3.org/2000/svg" viewBox="0 0 24 24"><title>09-04-grid-2-m</title><rect id="canvas" width="24" height="24" style="fill:none"/><path d="M18.24609,2.94873h-12.5a2.75311,2.75311,0,0,0-2.75,2.75V18.19922a2.7528,2.7528,0,0,0,2.75,2.75h12.5a2.75279,2.75279,0,0,0,2.75-2.75V5.69873A2.75311,2.75311,0,0,0,18.24609,2.94873ZM4.49609,9.6001H11.25v9.84912H5.74609a1.25116,1.25116,0,0,1-1.25-1.25Zm13.75,9.84912H12.75V9.6001h6.74609v8.59912A1.25116,1.25116,0,0,1,18.24609,19.44922ZM4.49609,8.1001V5.69873a1.25116,1.25116,0,0,1,1.25-1.25h12.5a1.25116,1.25116,0,0,1,1.25,1.25V8.1001Z"/></svg>