<svg fill="currentColor" id="icons" xmlns="http://www.w3.org/2000/svg" viewBox="0 0 24 24"><title>09-08-grid-6-m</title><rect id="canvas" width="24" height="24" style="fill:none"/><path d="M18.24609,2.94873h-12.5a2.75311,2.75311,0,0,0-2.75,2.75V18.19922a2.7528,2.7528,0,0,0,2.75,2.75h12.5a2.75279,2.75279,0,0,0,2.75-2.75V5.69873A2.75311,2.75311,0,0,0,18.24609,2.94873Zm1.25,2.75V11.25H12.75V4.44873h5.49609A1.25116,1.25116,0,0,1,19.49609,5.69873Zm-13.75-1.25H11.25V11.25H4.49609V5.69873A1.25116,1.25116,0,0,1,5.74609,4.44873Zm-1.25,13.75049V12.75H11.25v6.69922H5.74609A1.25116,1.25116,0,0,1,4.49609,18.19922Zm13.75,1.25H12.75V12.75h6.74609v5.44922A1.25116,1.25116,0,0,1,18.24609,19.44922Z"/></svg>