<svg fill="currentColor" id="icons" xmlns="http://www.w3.org/2000/svg" viewBox="0 0 24 24"><title>01-20-grid-m</title><rect id="canvas" width="24" height="24" style="fill:none"/><path d="M18.25,8.84863a.75.75,0,0,0,0-1.5H17.104V5.75a.75.75,0,0,0-1.5,0V7.34863H8.396V5.75a.75.75,0,1,0-1.5,0V7.34863H5.75a.75.75,0,0,0,0,1.5H6.896v6.30274H5.75a.75.75,0,0,0,0,1.5H6.896V18.25a.75.75,0,0,0,1.5,0V16.65137h7.208V18.25a.75.75,0,0,0,1.5,0V16.65137H18.25a.75.75,0,0,0,0-1.5H17.104V8.84863Zm-2.646,6.30274H8.396V8.84863h7.208Z"/></svg>