<svg fill="currentColor" id="icons" xmlns="http://www.w3.org/2000/svg" viewBox="0 0 24 24"><title>09-10-grid-8-m</title><rect id="canvas" width="24" height="24" style="fill:none"/><path d="M18.24609,2.94873h-12.5a2.75311,2.75311,0,0,0-2.75,2.75V18.19922a2.7528,2.7528,0,0,0,2.75,2.75h12.5a2.75279,2.75279,0,0,0,2.75-2.75V5.69873A2.75311,2.75311,0,0,0,18.24609,2.94873ZM14.00732,19.44922H9.99268C9.99329,19.43658,10,19.4259,10,19.41309V4.59814a.7167.7167,0,0,0-.03021-.14941h4.06042A.7167.7167,0,0,0,14,4.59814v14.815C14,19.4259,14.00671,19.43658,14.00732,19.44922Zm-9.51123-1.25V5.69873a1.25116,1.25116,0,0,1,1.25-1.25H8.53021A.7167.7167,0,0,0,8.5,4.59814v14.815c0,.01281.00671.02349.00732.03613H5.74609A1.25116,1.25116,0,0,1,4.49609,18.19922Zm15,0a1.25116,1.25116,0,0,1-1.25,1.25H15.49268c.00061-.01264.00732-.02332.00732-.03613V4.59814a.7167.7167,0,0,0-.03021-.14941h2.7763a1.25116,1.25116,0,0,1,1.25,1.25Z"/></svg>