<svg fill="currentColor" id="icons" xmlns="http://www.w3.org/2000/svg" viewBox="0 0 24 24"><title>04-02-group-2-m</title><rect id="canvas" width="24" height="24" style="fill:none"/><path d="M21,9.52832a6.37853,6.37853,0,0,0-6.37158-6.37109h-.21826a6.38093,6.38093,0,0,0-6.23389,5.0592A6.36956,6.36956,0,0,0,9.37158,20.84277h.21826a6.38093,6.38093,0,0,0,6.23389-5.0592A6.3796,6.3796,0,0,0,21,9.52832ZM14.41016,14.3999A4.87275,4.87275,0,0,1,9.54633,9.6001h.04351a4.87275,4.87275,0,0,1,4.86383,4.7998ZM9.58984,19.34277H9.37158A4.85851,4.85851,0,0,1,8.053,9.80444a6.36986,6.36986,0,0,0,6.17242,6.08612A4.86133,4.86133,0,0,1,9.58984,19.34277ZM15.947,14.19556A6.36986,6.36986,0,0,0,9.77454,8.10944a4.86133,4.86133,0,0,1,4.63562-3.45221h.21826A4.85851,4.85851,0,0,1,15.947,14.19556Z"/></svg>