<svg fill="currentColor" id="icons" xmlns="http://www.w3.org/2000/svg" viewBox="0 0 24 24"><title>04-01-group-m</title><rect id="canvas" width="24" height="24" style="fill:none"/><path d="M18.31726,12.11194a6.49719,6.49719,0,0,0-2.64093-3.97046,3.5848,3.5848,0,0,0,.04144-.4071,3.71421,3.71421,0,0,0-7.42822,0,3.59966,3.59966,0,0,0,.04376.43011,6.48267,6.48267,0,0,0-2.64337,3.94812,3.67664,3.67664,0,1,0,2.76148,6.76575,6.40822,6.40822,0,0,0,7.10369.00073,3.67824,3.67824,0,1,0,2.76215-6.76715ZM9.82721,7.36627a2.21125,2.21125,0,0,1,4.35345.00525,2.02748,2.02748,0,0,1-.29046,1.49207,2.212,2.212,0,0,1-3.76575.0133,2.03921,2.03921,0,0,1-.29724-1.51062ZM8.47034,16.95618A2.2118,2.2118,0,0,1,4.5,15.63916a2.17563,2.17563,0,0,1,1.06116-1.85822,2.21776,2.21776,0,0,1,3.36706,1.85822A2.14971,2.14971,0,0,1,8.47034,16.95618Zm5.85882.88769a4.74214,4.74214,0,0,1-4.65442-.00213,3.63523,3.63523,0,0,0,.75348-2.20258,3.69119,3.69119,0,0,0-3.14081-3.62952A5.03087,5.03087,0,0,1,8.85034,9.65869a3.70171,3.70171,0,0,0,6.30823-.00287,4.96508,4.96508,0,0,1,1.5603,2.35034,3.69142,3.69142,0,0,0-3.14709,3.63056A3.63488,3.63488,0,0,0,14.32916,17.84387Zm1.20539-.88446a2.14906,2.14906,0,0,1-.46277-1.32269,2.21428,2.21428,0,1,1,2.21386,2.187,2.21664,2.21664,0,0,1-1.75109-.86432Z"/></svg>