<svg fill="currentColor" id="icons" xmlns="http://www.w3.org/2000/svg" viewBox="0 0 24 24"><title>02-15-h1-m</title><rect id="canvas" width="24" height="24" style="fill:none"/><path d="M17.88867,21a.7502.7502,0,0,0,.75-.75v-5.5a.75006.75006,0,0,0-1.26025-.5498l-1.77735,1.65039a.7501.7501,0,1,0,1.02051,1.09961l.51709-.48047V20.25A.7502.7502,0,0,0,17.88867,21Z"/><path d="M12,18.75a.7502.7502,0,0,0,.75-.75V6a.75.75,0,0,0-1.5,0v5h-6V6a.75.75,0,0,0-1.5,0V18a.75.75,0,0,0,1.5,0V12.5h6V18A.7502.7502,0,0,0,12,18.75Z"/></svg>