<svg fill="currentColor" id="icons" xmlns="http://www.w3.org/2000/svg" viewBox="0 0 24 24"><title>02-16-h2-m</title><rect id="canvas" width="24" height="24" style="fill:none"/><path d="M12,5.25a.7502.7502,0,0,0-.75.75v5h-6V6a.75.75,0,0,0-1.5,0V18a.75.75,0,0,0,1.5,0V12.5h6V18a.75.75,0,0,0,1.5,0V6A.7502.7502,0,0,0,12,5.25Z"/><path d="M18.93555,19.5H16.81934l1.28418-1.29785A3.51221,3.51221,0,0,0,19.376,15.64453a2.14031,2.14031,0,0,0-2.30274-2.21582,2.34016,2.34016,0,0,0-2.418,2.24219.75006.75006,0,0,0,1.49024.17187c.07129-.624.36621-.91406.92773-.91406.80274,0,.80274.50195.80274.71582,0,.40918-.13965.80274-.83594,1.5l-2.50879,2.53516a.85668.85668,0,0,0-.2168.57031.7502.7502,0,0,0,.75.75h3.8711a.75.75,0,0,0,0-1.5Z"/></svg>