<svg fill="currentColor" id="icons" xmlns="http://www.w3.org/2000/svg" viewBox="0 0 24 24"><title>02-17-h3-m</title><rect id="canvas" width="24" height="24" style="fill:none"/><path d="M12,5.25a.7502.7502,0,0,0-.75.75v5h-6V6a.75.75,0,0,0-1.5,0V18a.75.75,0,0,0,1.5,0V12.5h6V18a.75.75,0,0,0,1.5,0V6A.7502.7502,0,0,0,12,5.25Z"/><path d="M19.42969,15.32129a2.22481,2.22481,0,0,0-2.32129-2.33008,2.454,2.454,0,0,0-2.51367,2.22852.74892.74892,0,0,0,.66308.82715.73767.73767,0,0,0,.82715-.66309.9559.9559,0,0,1,1.02344-.89258.74058.74058,0,0,1,.82129.83008c0,.457-.24512.68945-.72754.68945h-.43262a.7502.7502,0,0,0-.75.75v.15918a.7502.7502,0,0,0,.75.75h.46094c.62793,0,.93359.27832.93359.84961,0,.24512,0,.98926-1.1123.98926A1.07183,1.07183,0,0,1,15.833,18.49512a.75046.75046,0,1,0-1.49414.14258,2.5768,2.5768,0,0,0,2.71289,2.37109,2.39242,2.39242,0,0,0,2.6123-2.48926,2.28778,2.28778,0,0,0-.73144-1.75781A2.28239,2.28239,0,0,0,19.42969,15.32129Z"/></svg>