<svg fill="currentColor" id="icons" xmlns="http://www.w3.org/2000/svg" viewBox="0 0 24 24"><title>14-02-hard-bounce-m</title><rect id="canvas" width="24" height="24" style="fill:none"/><path d="M20.25,19.63379H3.75a.75.75,0,0,0,0,1.5h16.5a.75.75,0,0,0,0-1.5Z"/><path d="M7.92969,17.31689a.74863.74863,0,0,0,1.06836,0l3.53613-3.59326a.7496.7496,0,1,0-1.06836-1.05175l-3.002,3.0498L4.28418,11.47412a.7496.7496,0,1,0-1.06836,1.05176Z"/><path d="M18.81055,6.25l1.96972-1.96973a.74992.74992,0,0,0-1.06054-1.06054L17.75,5.18945,15.78027,3.21973a.74992.74992,0,0,0-1.06054,1.06054L16.68945,6.25,14.71973,8.21973a.74992.74992,0,1,0,1.06054,1.06054L17.75,7.31055l1.96973,1.96972a.74992.74992,0,0,0,1.06054-1.06054Z"/></svg>