<svg fill="currentColor" id="icons" xmlns="http://www.w3.org/2000/svg" viewBox="0 0 24 24"><title>03-01-hash-m</title><rect id="canvas" width="24" height="24" style="fill:none"/><path d="M19.25,10.07129a.75.75,0,0,0,0-1.5H16.43555l.44726-2.69873a.74983.74983,0,1,0-1.47949-.24512l-.48791,2.94385H10.22119l.44727-2.69873A.74983.74983,0,1,0,9.189,5.62744L8.70105,8.57129H4.75a.75.75,0,0,0,0,1.5H8.45239l-.63934,3.85742H4.75a.75.75,0,0,0,0,1.5H7.56439L7.11719,18.127a.74991.74991,0,1,0,1.47949.2461l.488-2.94434h4.69409L13.33154,18.127a.74991.74991,0,1,0,1.4795.2461l.488-2.94434H19.25a.75.75,0,0,0,0-1.5H15.54761l.63934-3.85742Zm-5.2226,3.85742H9.33325l.63935-3.85742h4.69415Z"/></svg>