<svg fill="currentColor" id="icons" xmlns="http://www.w3.org/2000/svg" viewBox="0 0 24 24"><title>01-04-help-fill-s</title><rect id="canvas" width="24" height="24" style="fill:none"/><path d="M12,6a6,6,0,1,0,6,6A6.00657,6.00657,0,0,0,12,6Zm.00055,9.22729a.75.75,0,0,1-.00256-1.5H12a.75.75,0,0,1,.00055,1.5Zm1.05316-2.93481c-.30371.187-.30371.2583-.30371.31543a.75.75,0,0,1-1.5,0,1.85715,1.85715,0,0,1,1.02051-1.59424c.292-.17871.292-.24414.292-.29687a.57821.57821,0,0,0-1.125,0,.75.75,0,0,1-1.5,0,2.06609,2.06609,0,0,1,4.125,0A1.85307,1.85307,0,0,1,13.05371,12.29248Z"/></svg>