<svg fill="currentColor" id="icons" xmlns="http://www.w3.org/2000/svg" viewBox="0 0 24 24"><title>01-04-help-fill-m</title><rect id="canvas" width="24" height="24" style="fill:none"/><path d="M12,4a8,8,0,1,0,8,8A8.00917,8.00917,0,0,0,12,4Zm.00079,11.91229a1,1,0,0,1-.00348-2H12a1,1,0,0,1,.00079,2ZM13.27637,11.979c-.44239.27149-.52637.43213-.52637.63477a.75.75,0,1,1-1.5,0,2.24673,2.24673,0,0,1,1.24268-1.91357C12.919,10.43848,13,10.28467,13,10.09229A.93257.93257,0,0,0,12,9.25a.93257.93257,0,0,0-1,.84229.75.75,0,0,1-1.5,0A2.42783,2.42783,0,0,1,12,7.75a2.42752,2.42752,0,0,1,2.5,2.34229A2.21366,2.21366,0,0,1,13.27637,11.979Z"/></svg>