<svg fill="currentColor" id="icons" xmlns="http://www.w3.org/2000/svg" viewBox="0 0 24 24"><title>01-03-help-s</title><rect id="canvas" width="24" height="24" style="fill:none"/><path d="M12,6a6,6,0,1,0,6,6A6.00657,6.00657,0,0,0,12,6Zm0,10.5A4.5,4.5,0,1,1,16.5,12,4.50491,4.50491,0,0,1,12,16.5Z"/><path d="M12,8.77246A2.00826,2.00826,0,0,0,9.93748,10.7168a.75.75,0,0,0,1.5,0,.57821.57821,0,0,1,1.125,0c0,.05224,0,.11767-.292.29638A1.85754,1.85754,0,0,0,11.25,12.60791a.75.75,0,0,0,1.5,0c0-.05762,0-.12891.30469-.31592a1.855,1.855,0,0,0,1.00779-1.57519A2.00823,2.00823,0,0,0,12,8.77246Z"/><path d="M12,13.72729h-.002a.751.751,0,1,0,.002,0Z"/></svg>