<svg fill="currentColor" id="icons" xmlns="http://www.w3.org/2000/svg" viewBox="0 0 24 24"><title>01-03-help-m</title><rect id="canvas" width="24" height="24" style="fill:none"/><path d="M12,4a8,8,0,1,0,8,8A8.00917,8.00917,0,0,0,12,4Zm0,14.5A6.5,6.5,0,1,1,18.5,12,6.50753,6.50753,0,0,1,12,18.5Z"/><path d="M12,7.75a2.42783,2.42783,0,0,0-2.5,2.34229.75.75,0,0,0,1.5,0A.93257.93257,0,0,1,12,9.25a.93257.93257,0,0,1,1,.84229c0,.19238-.081.34619-.50732.60791A2.24673,2.24673,0,0,0,11.25,12.61377a.75.75,0,1,0,1.5,0c0-.20264.084-.36328.52637-.63477A2.21366,2.21366,0,0,0,14.5,10.09229,2.42752,2.42752,0,0,0,12,7.75Z"/><path d="M12,13.91229h-.00269a1.00135,1.00135,0,1,0,.00269,0Z"/></svg>