<svg fill="currentColor" id="icons" xmlns="http://www.w3.org/2000/svg" viewBox="0 0 24 24"><title>05-07-hide-m</title><rect id="canvas" width="24" height="24" style="fill:none"/><path d="M20.66211,10.96094A15.802,15.802,0,0,0,17.3078,7.80237l2.46954-2.444A.74993.74993,0,0,0,18.72266,4.292l-2.7403,2.71192a8.68584,8.68584,0,0,0-3.9848-1.04c-4.68507,0-8.28027,4.59765-8.68018,5.12988a1.63079,1.63079,0,0,0-.30224.86621l-.00537.06445.00634.06543a1.61722,1.61722,0,0,0,.30713.82422A16.16343,16.16343,0,0,0,6.72,16.1701L4.22266,18.6416A.74993.74993,0,1,0,5.27734,19.708L8.036,16.978a8.50485,8.50485,0,0,0,3.96161,1.0581c4.79736,0,8.5083-4.792,8.66357-4.99609a1.54516,1.54516,0,0,0,.32617-.98633A1.64184,1.64184,0,0,0,20.66211,10.96094ZM4.521,11.98828c.13916-.18457,3.45068-4.52441,7.47656-4.52441a6.90783,6.90783,0,0,1,2.85181.66125L7.81,15.09143A14.45111,14.45111,0,0,1,4.521,11.98828Zm14.94775.1416c-.13721.17969-3.40771,4.40625-7.47119,4.40625a6.74273,6.74273,0,0,1-2.83344-.67456l7.04847-6.9754a13.37755,13.37755,0,0,1,3.27764,3.0816l-.02441.11719Z"/></svg>