<svg fill="currentColor" id="icons" xmlns="http://www.w3.org/2000/svg" viewBox="0 0 24 24"><title>02-06-histogram-m</title><rect id="canvas" width="24" height="24" style="fill:none"/><path d="M18.667,11.25a.7502.7502,0,0,0-.75.75v6.667a.75.75,0,0,0,1.5,0V12A.7502.7502,0,0,0,18.667,11.25Z"/><path d="M14.252,13.47217a.7502.7502,0,0,0-.75.75V18.667a.75.75,0,0,0,1.5,0V14.22217A.75019.75019,0,0,0,14.252,13.47217Z"/><path d="M5.333,15.4165a.7502.7502,0,0,0-.75.75V18.667a.75.75,0,0,0,1.5,0V16.1665A.7502.7502,0,0,0,5.333,15.4165Z"/><path d="M9.749,12.5835a.75019.75019,0,0,0-.75.75v5.333a.75.75,0,0,0,1.5,0v-5.333A.75018.75018,0,0,0,9.749,12.5835Z"/><path d="M20.40424,4.71918a2.33085,2.33085,0,0,0-3.82312,2.489L15.467,8.13678a2.28937,2.28937,0,0,0-2.63159.14246l-.84308-.56293A2.32757,2.32757,0,1,0,7.57568,7.954l-1.11432.92822a2.33071,2.33071,0,1,0,.96027,1.1529l1.119-.93207a2.28807,2.28807,0,0,0,2.61792-.14093l.84717.56567a2.32755,2.32755,0,1,0,4.42144-.238l1.11872-.93243a2.32953,2.32953,0,0,0,2.8584-3.63818ZM5.83545,11.45624a.83332.83332,0,1,1,0-1.17847A.8307.8307,0,0,1,5.83545,11.45624ZM9.15967,7.704a.83327.83327,0,1,1,.58923.24408A.83328.83328,0,0,1,9.15967,7.704Zm5.68121,3.00659a.83332.83332,0,1,1,0-1.17847A.83073.83073,0,0,1,14.84088,10.71057Zm4.50269-3.75226a.83331.83331,0,1,1,0-1.17846A.8307.8307,0,0,1,19.34357,6.95831Z"/></svg>