<svg fill="currentColor" id="icons" xmlns="http://www.w3.org/2000/svg" viewBox="0 0 24 24"><title>02-02-home-m</title><rect id="canvas" width="24" height="24" style="fill:none"/><path d="M19.05078,9.53516,13.125,4.4082a1.75258,1.75258,0,0,0-2.25684.00782L4.94971,9.53516A2.74528,2.74528,0,0,0,4,11.61182v6.21972A2.18679,2.18679,0,0,0,6.2002,20H17.7998A2.18679,2.18679,0,0,0,20,17.83154V11.61133A2.74532,2.74532,0,0,0,19.05078,9.53516ZM13.20459,18.5H10.79541V13.94873a.25048.25048,0,0,1,.25-.25h1.90918a.25048.25048,0,0,1,.25.25ZM18.5,17.83154a.68552.68552,0,0,1-.7002.66846H14.70459V13.94873a1.75213,1.75213,0,0,0-1.75-1.75H11.04541a1.75213,1.75213,0,0,0-1.75,1.75V18.5H6.2002A.68552.68552,0,0,1,5.5,17.83154V11.61182a1.24442,1.24442,0,0,1,.43115-.9419l5.90918-5.11133a.25644.25644,0,0,1,.16406-.05957.23087.23087,0,0,1,.14844.05176l5.916,5.11865a1.246,1.246,0,0,1,.43115.9419Z"/></svg>