<svg fill="currentColor" id="icons" xmlns="http://www.w3.org/2000/svg" viewBox="0 0 24 24"><title>02-03-hourglass-m</title><rect id="canvas" width="24" height="24" style="fill:none"/><path d="M9.4165,17.5a.7502.7502,0,0,0,.75.75h3.667a.75.75,0,0,0,0-1.5h-3.667A.7502.7502,0,0,0,9.4165,17.5Z"/><path d="M16.564,2.99951H7.436a1.66877,1.66877,0,0,0-1.66651,1.667V6.84668a2.56586,2.56586,0,0,0,.49072,1.51514L8.89355,12l-2.6333,3.63818a2.56586,2.56586,0,0,0-.49072,1.51514V19.3335a1.66877,1.66877,0,0,0,1.66651,1.667H16.564a1.66877,1.66877,0,0,0,1.66651-1.667V17.187a2.59742,2.59742,0,0,0-.54151-1.583L14.894,12,17.689,8.396a2.59742,2.59742,0,0,0,.54151-1.583V4.6665A1.66877,1.66877,0,0,0,16.564,2.99951ZM16.73047,6.813a1.08909,1.08909,0,0,1-.22705.66406l-3.15137,4.06348a.75045.75045,0,0,0,0,.91894L16.50342,16.523a1.08909,1.08909,0,0,1,.22705.66406V19.3335a.16682.16682,0,0,1-.16651.167H7.436a.16682.16682,0,0,1-.16651-.167V17.15332a1.07715,1.07715,0,0,1,.20557-.63525l2.95166-4.07813a.75056.75056,0,0,0,0-.87988L7.4751,7.48193a1.07715,1.07715,0,0,1-.20557-.63525V4.6665a.16682.16682,0,0,1,.16651-.167H16.564a.16682.16682,0,0,1,.16651.167Z"/></svg>