<svg fill="currentColor" id="icons" xmlns="http://www.w3.org/2000/svg" viewBox="0 0 24 24"><title>02-02-identified-m</title><rect id="canvas" width="24" height="24" style="fill:none"/><path d="M12,11.7002A3.87427,3.87427,0,1,0,8.13135,7.82568,3.876,3.876,0,0,0,12,11.7002Zm0-6.24854a2.37428,2.37428,0,1,1-2.36865,2.374A2.374,2.374,0,0,1,12,5.45166Z"/><path d="M12.4248,12.75H8.7749a4.7554,4.7554,0,0,0-4.75,4.75v.76074a1.75212,1.75212,0,0,0,1.75,1.75h5.5a.75.75,0,1,0,0-1.5h-5.5a.25048.25048,0,0,1-.25-.25V17.5a3.25377,3.25377,0,0,1,3.25-3.25h3.6499a.75.75,0,0,0,0-1.5Z"/><path d="M20.25,16.27246h-.50671A2.82345,2.82345,0,0,0,17.771,14.28369v-.53857a.75.75,0,0,0-1.5,0v.53857a2.8222,2.8222,0,0,0-1.95722,1.94043h-.57013a.75.75,0,0,0,0,1.5h.55493a2.82172,2.82172,0,0,0,1.92408,1.97376v.55358a.75.75,0,0,0,1.5,0V19.728a2.82284,2.82284,0,0,0,2.00573-1.95551H20.25a.75.75,0,0,0,0-1.5Zm-3.229,2.0542a1.32837,1.32837,0,1,1,1.32861-1.32812A1.32993,1.32993,0,0,1,17.021,18.32666Z"/></svg>