<svg fill="currentColor" id="icons" xmlns="http://www.w3.org/2000/svg" viewBox="0 0 24 24"><title>04-03-image-m</title><rect id="canvas" width="24" height="24" style="fill:none"/><circle cx="15.5" cy="10" r="1.5"/><path d="M17.25,5H6.75A2.7528,2.7528,0,0,0,4,7.75v8.5A2.7528,2.7528,0,0,0,6.75,19h10.5A2.7528,2.7528,0,0,0,20,16.25V7.75A2.7528,2.7528,0,0,0,17.25,5ZM5.5,16.25v-.38812L9.02051,13.167,14.02057,17.5H6.75A1.25116,1.25116,0,0,1,5.5,16.25Zm13,0a1.25116,1.25116,0,0,1-1.25,1.25h-.94617c-.00537-.00488-.00732-.01184-.01281-.0166l-6.75-5.8501a.75166.75166,0,0,0-.94727-.02881L5.5,13.97235V7.75A1.25116,1.25116,0,0,1,6.75,6.5h10.5A1.25116,1.25116,0,0,1,18.5,7.75Z"/></svg>