<svg fill="currentColor" id="icons" xmlns="http://www.w3.org/2000/svg" viewBox="0 0 24 24"><title>02-10-inbox-archive-m</title><rect id="canvas" width="24" height="24" style="fill:none;opacity:0.1"/><path d="M17.25,4H6.75A2.7528,2.7528,0,0,0,4,6.75v10.5A2.7528,2.7528,0,0,0,6.75,20h10.5A2.7528,2.7528,0,0,0,20,17.25V6.75A2.7528,2.7528,0,0,0,17.25,4ZM6.75,5.5h10.5A1.25116,1.25116,0,0,1,18.5,6.75v6.09961H16.68164a2.76543,2.76543,0,0,0-1.97852.84082L14.001,14.418a1.25992,1.25992,0,0,1-.90039.38183H10.95215a1.25448,1.25448,0,0,1-.90137-.38378l-.69433-.72266A2.76426,2.76426,0,0,0,7.374,12.84961H5.5V6.75A1.25116,1.25116,0,0,1,6.75,5.5Zm10.5,13H6.75A1.25116,1.25116,0,0,1,5.5,17.25V14.34961H7.374a1.25615,1.25615,0,0,1,.90137.38379l.69336.72168a2.76178,2.76178,0,0,0,1.9834.84472h2.14844A2.76835,2.76835,0,0,0,15.08008,15.46l.70312-.72851a1.25717,1.25717,0,0,1,.89844-.38184H18.5V17.25A1.25116,1.25116,0,0,1,17.25,18.5Z"/><path d="M8.0752,8.7002h7.8496a.75.75,0,0,0,0-1.5H8.0752a.75.75,0,0,0,0,1.5Z"/><path d="M8.0752,11.5h7.8496a.75.75,0,0,0,0-1.5H8.0752a.75.75,0,0,0,0,1.5Z"/></svg>