<svg fill="currentColor" id="icons" xmlns="http://www.w3.org/2000/svg" viewBox="0 0 24 24"><title>01-17-indent-m</title><rect id="canvas" width="24" height="24" style="fill:none"/><path d="M18.2749,16.5h-12.5a.75.75,0,1,0,0,1.5h12.5a.75.75,0,1,0,0-1.5Z"/><path d="M18.2749,13H11.125a.75.75,0,0,0,0,1.5h7.1499a.75.75,0,1,0,0-1.5Z"/><path d="M18.2749,9.5H11.125a.75.75,0,0,0,0,1.5h7.1499a.75.75,0,0,0,0-1.5Z"/><path d="M18.2749,6h-12.5a.75.75,0,1,0,0,1.5h12.5a.75.75,0,0,0,0-1.5Z"/><path d="M5.20508,15.041a.75025.75025,0,0,0,1.06054-.02149l2.40381-2.5a.749.749,0,0,0,0-1.03906l-2.40381-2.5a.74972.74972,0,1,0-1.08105,1.03906L7.08838,12,5.18457,13.98047A.75032.75032,0,0,0,5.20508,15.041Z"/></svg>