<svg fill="currentColor" width="24" height="24" viewBox="0 0 24 24" xmlns="http://www.w3.org/2000/svg">
<circle cx="12" cy="12" r="7" fill="white"/>
<path fill-rule="evenodd" clip-rule="evenodd" d="M12 4C7.58172 4 4 7.58172 4 12C4 16.4183 7.58172 20 12 20C16.4183 20 20 16.4183 20 12C19.9949 7.58382 16.4162 4.00505 12 4ZM12.75 15.6035C12.75 16.0177 12.4142 16.3535 12 16.3535C11.5858 16.3535 11.25 16.0177 11.25 15.6035V11.8535C11.25 11.4393 11.5858 11.1035 12 11.1035C12.4142 11.1035 12.75 11.4393 12.75 11.8535V15.6035ZM10.9991 9.043C11 9.59528 11.4485 10.0422 12.0008 10.0413C12.3581 10.0411 12.6881 9.85039 12.8666 9.54092C13.0451 9.23145 13.045 8.85025 12.8662 8.54092C12.6875 8.23159 12.3573 8.04112 12 8.04126H11.9973C11.445 8.04222 10.9981 8.49072 10.9991 9.043Z" />
</svg>
