<svg fill="currentColor" width="24" height="24" viewBox="0 0 24 24" xmlns="http://www.w3.org/2000/svg">
<circle cx="12" cy="12" r="7" fill="white"/>
<path fill-rule="evenodd" clip-rule="evenodd" d="M4 12C4 7.58172 7.58172 4 12 4C16.4162 4.00505 19.9949 7.58382 20 12C20 16.4183 16.4183 20 12 20C7.58172 20 4 16.4183 4 12ZM5.5 12C5.5 15.5899 8.41015 18.5 12 18.5C15.5881 18.4959 18.4959 15.5881 18.5 12C18.5 8.41015 15.5899 5.5 12 5.5C8.41015 5.5 5.5 8.41015 5.5 12ZM12 11.1035C11.5858 11.1036 11.2501 11.4393 11.25 11.8535V15.6035C11.25 16.0177 11.5858 16.3535 12 16.3535C12.4142 16.3535 12.75 16.0177 12.75 15.6035V11.8535C12.7499 11.4393 12.4142 11.1036 12 11.1035ZM11.9973 8.04126H12C12.5528 8.042 13.0004 8.49051 13 9.04328C12.9996 9.59605 12.5514 10.044 11.9987 10.044C11.4459 10.044 10.9977 9.59605 10.9973 9.04328C10.9969 8.49051 11.4445 8.042 11.9973 8.04126Z" />
</svg>
