<svg fill="currentColor" id="icons" xmlns="http://www.w3.org/2000/svg" viewBox="0 0 24 24"><title>01-21-instagram-fill-m</title><rect id="canvas" width="24" height="24" style="fill:#fff;fill-opacity:0.1"/><ellipse cx="12" cy="12" rx="2.0918" ry="2.15039"/><path d="M16.25,4H7.75A3.75442,3.75442,0,0,0,4,7.75v8.5A3.75442,3.75442,0,0,0,7.75,20h8.5A3.75442,3.75442,0,0,0,20,16.25V7.75A3.75442,3.75442,0,0,0,16.25,4ZM12,15.65039A3.65087,3.65087,0,1,1,15.5918,12,3.62567,3.62567,0,0,1,12,15.65039Zm4.17444-6.63788a1,1,0,0,1-.00342-2h.00269a1,1,0,0,1,.00073,2Z"/></svg>