<svg fill="currentColor" id="icons" xmlns="http://www.w3.org/2000/svg" viewBox="0 0 24 24"><title>01-20-instagram-m</title><rect id="canvas" width="24" height="24" style="fill:#fff;fill-opacity:0.1"/><path d="M12,15.65039A3.65087,3.65087,0,1,1,15.5918,12,3.62567,3.62567,0,0,1,12,15.65039Zm0-5.80078A2.15121,2.15121,0,1,0,14.0918,12,2.12429,2.12429,0,0,0,12,9.84961Z"/><g id="Shape_3077" data-name="Shape 3077"><path d="M16.171,7.0125a1.00134,1.00134,0,1,0,.00267,0"/></g><path d="M16.25,20H7.75A3.75442,3.75442,0,0,1,4,16.25V7.75A3.75442,3.75442,0,0,1,7.75,4h8.5A3.75442,3.75442,0,0,1,20,7.75v8.5A3.75442,3.75442,0,0,1,16.25,20ZM7.75,5.5A2.25278,2.25278,0,0,0,5.5,7.75v8.5A2.25278,2.25278,0,0,0,7.75,18.5h8.5a2.25278,2.25278,0,0,0,2.25-2.25V7.75A2.25278,2.25278,0,0,0,16.25,5.5Z"/></svg>