<svg fill="currentColor" id="icons" xmlns="http://www.w3.org/2000/svg" viewBox="0 0 24 24"><title>01-15-internet-explorer-fill-m</title><rect id="canvas" width="24" height="24" style="fill:#fff;fill-opacity:0.1"/><path d="M11.9833,7.83363a3.00743,3.00743,0,0,1,3.01138,2.46055H8.94037A3.11412,3.11412,0,0,1,11.9833,7.83363Zm-8.123,7.10017a7.64606,7.64606,0,0,0,1.47657,2.907A6.614,6.614,0,0,0,7.903,19.69838l.87964.30454a10.52,10.52,0,0,0,2.85486.36277c4.09728,0,7.28337-2.139,8.52335-5.72308a.3097.3097,0,0,0-.2924-.41252H15.20458a.31048.31048,0,0,0-.27056.15773,3.038,3.038,0,0,1-2.95072,1.70709A3.20387,3.20387,0,0,1,8.87607,13.251H20.03226a.31163.31163,0,0,0,.3106-.29605,10.64507,10.64507,0,0,0-.54113-4.033l-.35428-.86871a8.02831,8.02831,0,0,0-1.44381-2.13053,7.70209,7.70209,0,0,0-2.93009-1.92428l-1.01189-.3009A8.69631,8.69631,0,0,0,12.16044,3.484c-4.59229,0-7.765,2.43749-8.4918,6.52991A11.93171,11.93171,0,0,0,3.625,13.85518Z"/></svg>