<svg fill="currentColor" id="icons" xmlns="http://www.w3.org/2000/svg" viewBox="0 0 24 24"><title>01-14-internet-explorer-m</title><rect id="canvas" width="24" height="24" style="fill:#fff;fill-opacity:0.1"/><path d="M11.6377,21.11523a11.32055,11.32055,0,0,1-3.05811-.39062l-.92236-.31738a7.41456,7.41456,0,0,1-2.89356-2.083,8.34049,8.34049,0,0,1-1.62646-3.19141l-.00977-.03906-.23535-1.07813A12.64151,12.64151,0,0,1,2.9292,9.88818c.7959-4.48193,4.24658-7.15429,9.23144-7.15429a9.45009,9.45009,0,0,1,2.06641.23242l1.06055.31348a8.44309,8.44309,0,0,1,3.25976,2.12646,8.771,8.771,0,0,1,1.5791,2.32861l.36963.90381a11.37219,11.37219,0,0,1,.59571,4.354,1.05875,1.05875,0,0,1-.4541.81884.99564.99564,0,0,1,.0913.11036,1.05933,1.05933,0,0,1,.14014.96679C19.52051,18.78711,16.06934,21.11523,11.6377,21.11523Zm-7.04932-6.3623a6.8497,6.8497,0,0,0,1.32178,2.60449,5.88239,5.88239,0,0,0,2.27929,1.64746l.83887.28907a9.81026,9.81026,0,0,0,2.60938.32128,7.8584,7.8584,0,0,0,7.5874-4.63476h-3.771a3.76525,3.76525,0,0,1-3.4707,1.86426,3.97121,3.97121,0,0,1-3.85108-3.49512A.74988.74988,0,0,1,8.876,12.501H19.60693a9.69417,9.69417,0,0,0-.51367-3.333l-.34033-.83154A7.2285,7.2285,0,0,0,17.46,6.43994a6.91794,6.91794,0,0,0-2.646-1.73779l-.9663-.28565a7.9777,7.9777,0,0,0-1.68848-.18261c-4.25879,0-7.085,2.15429-7.75244,5.91113a11.12929,11.12929,0,0,0-.041,3.59326Zm5.2998-.75195a2.35008,2.35008,0,0,0,2.09522,1.34375,2.28855,2.28855,0,0,0,2.29736-1.3252l.01074-.01855Zm5.10645-2.957H8.94043a.74966.74966,0,0,1-.73535-.897A3.84988,3.84988,0,0,1,11.9834,7.0835a3.74038,3.74038,0,0,1,3.75146,3.08935.74952.74952,0,0,1-.74023.8711Zm-4.90186-1.5h3.8003a2.35982,2.35982,0,0,0-3.8003,0Z"/></svg>