<svg fill="currentColor" id="icons" xmlns="http://www.w3.org/2000/svg" viewBox="0 0 24 24"><title>02-09-journey-end-m</title><rect id="canvas" width="24" height="24" style="fill:none"/><path d="M6.29932,20.00293a3.34719,3.34719,0,0,1-1.67823-.456A3.1889,3.1889,0,0,1,3,16.76562V7.23438A3.1889,3.1889,0,0,1,4.62109,4.45312a3.322,3.322,0,0,1,3.35059-.0039l8.28125,4.76465a3.19813,3.19813,0,0,1,0,5.57226L7.97119,19.55078A3.3497,3.3497,0,0,1,6.29932,20.00293Zm0-14.50293a1.85006,1.85006,0,0,0-.92774.25195A1.70238,1.70238,0,0,0,4.5,7.23438v9.53124a1.70238,1.70238,0,0,0,.87158,1.48243,1.83286,1.83286,0,0,0,1.85108.002l8.28222-4.76465a1.6973,1.6973,0,0,0,0-2.9707L7.22314,5.75H7.22266A1.84061,1.84061,0,0,0,6.29932,5.5Z"/><path d="M20.25,20.5a.7502.7502,0,0,1-.75-.75V4.25a.75.75,0,0,1,1.5,0v15.5A.7502.7502,0,0,1,20.25,20.5Z"/></svg>