<svg fill="currentColor" id="icons" xmlns="http://www.w3.org/2000/svg" viewBox="0 0 24 24"><title>02-01-js-m</title><rect id="canvas" width="24" height="24" style="fill:none"/><path d="M17.60059,18.57617H15.66406a3.34328,3.34328,0,0,1-3.333-3.34619.75.75,0,0,1,1.5,0,1.84166,1.84166,0,0,0,1.833,1.84619h1.93653a1.85072,1.85072,0,0,0,.66015-3.57275l-3.79883-1.47559a3.36738,3.36738,0,0,1-2.13086-3.12109v-.167a3.34329,3.34329,0,0,1,3.333-3.3462h1.9375a3.34308,3.34308,0,0,1,3.332,3.3462.75.75,0,0,1-1.5,0,1.84146,1.84146,0,0,0-1.832-1.8462h-1.9375a1.84167,1.84167,0,0,0-1.833,1.8462v.167a1.857,1.857,0,0,0,1.17383,1.72265L18.80371,12.105a3.35079,3.35079,0,0,1-1.20312,6.47119Z"/><path d="M7.81641,18.60645H5.83691a2.75579,2.75579,0,0,1-2.76464-2.74024l-.00586-.61572a.75021.75021,0,0,1,.74316-.75684h.00684a.75.75,0,0,1,.75.74317l.00586.62256a1.25531,1.25531,0,0,0,1.26464,1.24707h1.9795a1.25394,1.25394,0,0,0,1.26464-1.24024V6.39014a.75.75,0,0,1,1.5,0v9.47607A2.7558,2.7558,0,0,1,7.81641,18.60645Z"/></svg>