<svg fill="currentColor" id="icons" xmlns="http://www.w3.org/2000/svg" viewBox="0 0 24 24"><title>01-05-key-m</title><rect id="canvas" width="24" height="24" style="fill:none"/><path d="M19.22852,6.09766A2.70268,2.70268,0,0,0,17.78809,4.6582L14.39258,3.21582a2.70262,2.70262,0,0,0-2.98242.58008L8.56934,6.63477a2.71861,2.71861,0,0,0-.60059,2.93945l.60645,1.5083L3.334,16.32129a.76.76,0,0,0-.21972.53021v3.38532a.75.75,0,0,0,.74609.75L6.67383,21h.0039a.75956.75956,0,0,0,.52991-.21948l.00037-.00025,5.09051-5.08777,2.28351.50818a2.69848,2.69848,0,0,0,2.51074-.73095l2.9961-2.99366A2.70864,2.70864,0,0,0,20.669,9.4873Zm-.2002,5.31738-2.99609,2.99414a1.21162,1.21162,0,0,1-1.124.32764l-2.68554-.59766a.69791.69791,0,0,0-.08063-.00171.74489.74489,0,0,0-.42011.07568.73832.73832,0,0,0-.12353.08191.69252.69252,0,0,0-.06909.04578L6.36877,19.49854l-1.75451-.00831v-2.328L9.98633,11.793a.74861.74861,0,0,0,.165-.81006l-.791-1.96777A1.21985,1.21985,0,0,1,9.62988,7.6958L12.4707,4.85693a1.21246,1.21246,0,0,1,1.33594-.26025l3.39551,1.44238a1.20986,1.20986,0,0,1,.64551.645l1.44043,3.39014A1.21492,1.21492,0,0,1,19.02832,11.415Z"/><path d="M14.98486,8.7038a1.005,1.005,0,1,0,.00183.00189Z"/></svg>