<svg fill="currentColor" id="icons" xmlns="http://www.w3.org/2000/svg" viewBox="0 0 24 24"><title>01-09-keyboard-keys-m</title><rect id="canvas" width="24" height="24" style="fill:none"/><path d="M18.25,11.25H16.34973A1.72391,1.72391,0,0,0,16.375,11V5.75A1.75213,1.75213,0,0,0,14.625,4H9.375a1.75213,1.75213,0,0,0-1.75,1.75V11a1.72391,1.72391,0,0,0,.02527.25H5.75A1.75213,1.75213,0,0,0,4,13v5.25A1.75213,1.75213,0,0,0,5.75,20H11a1.73667,1.73667,0,0,0,1-.31769A1.73667,1.73667,0,0,0,13,20h5.25A1.75213,1.75213,0,0,0,20,18.25V13A1.75213,1.75213,0,0,0,18.25,11.25ZM9.125,11V5.75a.25048.25048,0,0,1,.25-.25h5.25a.25048.25048,0,0,1,.25.25V11a.25048.25048,0,0,1-.25.25H9.375A.25048.25048,0,0,1,9.125,11ZM11,18.5H5.75a.25048.25048,0,0,1-.25-.25V13a.25048.25048,0,0,1,.25-.25H11a.25048.25048,0,0,1,.25.25v5.25A.25048.25048,0,0,1,11,18.5Zm7.5-.25a.25048.25048,0,0,1-.25.25H13a.25048.25048,0,0,1-.25-.25V13a.25048.25048,0,0,1,.25-.25h5.25a.25048.25048,0,0,1,.25.25Z"/><path d="M16.875,16.1499h-2.5a.75.75,0,0,0,0,1.5h2.5a.75.75,0,0,0,0-1.5Z"/><path d="M9.625,16.1499h-2.5a.75.75,0,0,0,0,1.5h2.5a.75.75,0,0,0,0-1.5Z"/><path d="M14,9.6499a.7502.7502,0,0,0-.75-.75h-2.5a.75.75,0,0,0,0,1.5h2.5A.7502.7502,0,0,0,14,9.6499Z"/></svg>