<svg fill="currentColor" id="icons" xmlns="http://www.w3.org/2000/svg" viewBox="0 0 24 24"><title>01-10-keyboard-enter-m</title><rect id="canvas" width="24" height="24" style="fill:none"/><path d="M16.03125,8.80713a.7502.7502,0,0,0-.75.75v4.13623h-3.902l.27405-.27686a.75027.75027,0,0,0-1.06641-1.05566L9.04785,13.91553a.70473.70473,0,0,0-.04559.06952.74071.74071,0,0,0-.11292.16992l-.00256.00616a.73681.73681,0,0,0-.02954.14752.75568.75568,0,0,0-.02582.13288l-.00037.00183.00037.00183a.75876.75876,0,0,0,.02612.13452.73365.73365,0,0,0,.02918.14581l.00262.00654a.7395.7395,0,0,0,.11292.16961.70473.70473,0,0,0,.04559.06952l1.53906,1.5542a.75027.75027,0,0,0,1.06641-1.05566l-.27368-.27637h4.65161a.7502.7502,0,0,0,.75-.75l-.00006-.00024.00006-.00025V9.55713A.7502.7502,0,0,0,16.03125,8.80713Z"/><path d="M17.25,4H13a2.7528,2.7528,0,0,0-2.75,2.75V7A1.25116,1.25116,0,0,1,9,8.25H6.75A2.7528,2.7528,0,0,0,4,11v6.25A2.7528,2.7528,0,0,0,6.75,20h10.5A2.7528,2.7528,0,0,0,20,17.25V6.75A2.7528,2.7528,0,0,0,17.25,4ZM18.5,17.25a1.25116,1.25116,0,0,1-1.25,1.25H6.75A1.25116,1.25116,0,0,1,5.5,17.25V11A1.25116,1.25116,0,0,1,6.75,9.75H9A2.7528,2.7528,0,0,0,11.75,7V6.75A1.25116,1.25116,0,0,1,13,5.5h4.25A1.25116,1.25116,0,0,1,18.5,6.75Z"/></svg>