<svg fill="currentColor" id="icons" xmlns="http://www.w3.org/2000/svg" viewBox="0 0 24 24"><title>01-11-keyboard-option-m</title><rect id="canvas" width="24" height="24" style="fill:none"/><path d="M16.3252,13.6665H12.18329l-1.404-2.80761a.74066.74066,0,0,0-.38654-.34949l-.01184-.00665a.73611.73611,0,0,0-.21313-.04309.70632.70632,0,0,0-.076-.01532H7.6748a.75.75,0,0,0,0,1.5h1.97L11.002,14.6582a.73347.73347,0,0,0,.29743.3739c.0166.0113.0321.02356.04956.03345a.716.716,0,0,0,.12768.05518.74517.74517,0,0,0,.18915.03821c.01306.00067.02411.00756.03735.00756H16.3252a.75.75,0,0,0,0-1.5Z"/><path d="M16.3252,10.44434h-.00293l-2.99512.01123a.75.75,0,0,0,.00293,1.5H13.333l2.99511-.01123a.75.75,0,0,0-.00292-1.5Z"/><path d="M17.25,20H6.75A2.7528,2.7528,0,0,1,4,17.25V6.75A2.7528,2.7528,0,0,1,6.75,4h10.5A2.7528,2.7528,0,0,1,20,6.75v10.5A2.7528,2.7528,0,0,1,17.25,20ZM6.75,5.5A1.25116,1.25116,0,0,0,5.5,6.75v10.5A1.25116,1.25116,0,0,0,6.75,18.5h10.5a1.25116,1.25116,0,0,0,1.25-1.25V6.75A1.25116,1.25116,0,0,0,17.25,5.5Z"/></svg>