<svg fill="currentColor" id="icons" xmlns="http://www.w3.org/2000/svg" viewBox="0 0 24 24"><title>01-08-keyboard-m</title><rect id="canvas" width="24" height="24" style="fill:none"/><path d="M18.25,9.3999H12.97742a1.28246,1.28246,0,0,1,1.08506-.67773A2.89044,2.89044,0,0,0,16.875,5.76562V4.75a.75.75,0,0,0-1.5,0V5.76562a1.39175,1.39175,0,0,1-1.31252,1.45655A2.85541,2.85541,0,0,0,11.3504,9.3999H5.75A2.75311,2.75311,0,0,0,3,12.1499V17.25A2.75311,2.75311,0,0,0,5.75,20h12.5A2.75311,2.75311,0,0,0,21,17.25V12.1499A2.75311,2.75311,0,0,0,18.25,9.3999ZM19.5,17.25a1.25116,1.25116,0,0,1-1.25,1.25H5.75A1.25116,1.25116,0,0,1,4.5,17.25V12.1499a1.25116,1.25116,0,0,1,1.25-1.25h12.5a1.25116,1.25116,0,0,1,1.25,1.25Z"/><path d="M13.5498,15.4751h-3a.75.75,0,0,0,0,1.5h3a.75.75,0,1,0,0-1.5Z"/><path d="M7.01965,15.64465a.75.75,0,1,0,1.06067,0A.75011.75011,0,0,0,7.01965,15.64465Z"/><path d="M16.01965,15.64465a.75.75,0,1,0,1.06067,0A.75011.75011,0,0,0,16.01965,15.64465Z"/><path d="M7.01965,12.64465a.75.75,0,1,0,1.06067,0A.75011.75011,0,0,0,7.01965,12.64465Z"/><path d="M11.08032,13.70532a.75.75,0,1,0-1.06067,0A.75.75,0,0,0,11.08032,13.70532Z"/><path d="M13.01965,12.64465a.75.75,0,1,0,1.06067,0A.75011.75011,0,0,0,13.01965,12.64465Z"/><path d="M16.01965,12.64465a.75.75,0,1,0,1.06067,0A.75011.75011,0,0,0,16.01965,12.64465Z"/></svg>