<svg fill="currentColor" id="icons" xmlns="http://www.w3.org/2000/svg" viewBox="0 0 24 24"><defs><style>.cls-1{fill:none;}</style></defs><rect id="canvas" class="cls-1" width="24" height="24"/><path d="M18.1875,5.25H5.8125A2.78479,2.78479,0,0,0,3,8v8a2.78479,2.78479,0,0,0,2.8125,2.75h12.375A2.78479,2.78479,0,0,0,21,16V8A2.78479,2.78479,0,0,0,18.1875,5.25ZM19.5,16a1.28377,1.28377,0,0,1-1.3125,1.25H5.8125A1.28377,1.28377,0,0,1,4.5,16V8A1.28377,1.28377,0,0,1,5.8125,6.75h12.375A1.28377,1.28377,0,0,1,19.5,8Z"/><path d="M17.03174,10.4165h.5a.75.75,0,0,0,0-1.5h-.5a2.25246,2.25246,0,0,0-2.25,2.25v1.667a2.25246,2.25246,0,0,0,2.25,2.25h.5a.75.75,0,0,0,0-1.5h-.5a.75082.75082,0,0,1-.75-.75v-1.667A.75082.75082,0,0,1,17.03174,10.4165Z"/><path d="M12,11.25a.41675.41675,0,0,1,0-.8335h.8335a.75.75,0,0,0,0-1.5H12A1.91675,1.91675,0,0,0,12,12.75a.41675.41675,0,0,1,0,.8335H10.8335a.75.75,0,0,0,0,1.5H12A1.91675,1.91675,0,0,0,12,11.25Z"/><path d="M7.96826,10.4165h.5a.75.75,0,0,0,0-1.5h-.5a2.25246,2.25246,0,0,0-2.25,2.25v1.667a2.25246,2.25246,0,0,0,2.25,2.25h.5a.75.75,0,0,0,0-1.5h-.5a.749.749,0,0,1-.74664-.7334h.24664a.75.75,0,1,0,0-1.5h-.25v-.1836A.75083.75083,0,0,1,7.96826,10.4165Z"/></svg>