<svg fill="currentColor" id="icons" xmlns="http://www.w3.org/2000/svg" viewBox="0 0 24 24"><defs><style>.cls-1{fill:none;}</style></defs><rect id="canvas" class="cls-1" width="24" height="24"/><path d="M17.25,20H6.75A2.7528,2.7528,0,0,1,4,17.25V6.75A2.7528,2.7528,0,0,1,6.75,4h10.5A2.7528,2.7528,0,0,1,20,6.75v10.5A2.7528,2.7528,0,0,1,17.25,20ZM6.75,5.5A1.25116,1.25116,0,0,0,5.5,6.75v10.5A1.25116,1.25116,0,0,0,6.75,18.5h10.5a1.25116,1.25116,0,0,0,1.25-1.25V6.75A1.25116,1.25116,0,0,0,17.25,5.5Z"/><path d="M10.5918,15.5752a.75.75,0,0,1-.53028-1.28028l2.292-2.292L10.05566,9.70508a.74992.74992,0,1,1,1.06055-1.06055l2.82813,2.82813a.74973.74973,0,0,1,0,1.06054l-2.82227,2.82227A.74758.74758,0,0,1,10.5918,15.5752Z"/></svg>