<svg fill="currentColor" id="icons" xmlns="http://www.w3.org/2000/svg" viewBox="0 0 24 24"><title>08-02-landing-page-block-m</title><rect id="canvas" width="24" height="24" style="fill:none"/><path d="M11.25,17.5H6.75A1.25116,1.25116,0,0,1,5.5,16.25V9.75A1.25116,1.25116,0,0,1,6.75,8.5h10.5A1.25116,1.25116,0,0,1,18.5,9.75v1.5a.75.75,0,0,0,1.5,0V9.75A2.7528,2.7528,0,0,0,17.25,7H6.75A2.7528,2.7528,0,0,0,4,9.75v6.5A2.7528,2.7528,0,0,0,6.75,19h4.5a.75.75,0,0,0,0-1.5Z"/><circle cx="5.09998" cy="5" r="1"/><circle cx="8.09998" cy="5" r="1"/><circle cx="11.09998" cy="5" r="1"/><path d="M17.25,13.28223a3.75,3.75,0,1,0,3.75,3.75A3.7541,3.7541,0,0,0,17.25,13.28223Zm0,1.5a2.223,2.223,0,0,1,.97821.23315L15.233,18.01019a2.22349,2.22349,0,0,1-.233-.978A2.25246,2.25246,0,0,1,17.25,14.78223Zm0,4.5a2.2258,2.2258,0,0,1-.95007-.21784l2.98236-2.982a2.22587,2.22587,0,0,1,.21771.94983A2.25246,2.25246,0,0,1,17.25,19.28223Z"/></svg>