<svg fill="currentColor" id="icons" xmlns="http://www.w3.org/2000/svg" viewBox="0 0 24 24"><title>08-01-landing-page-m</title><rect id="canvas" width="24" height="24" style="fill:none"/><path d="M17.25,7H6.75A2.7528,2.7528,0,0,0,4,9.75v6.5A2.7528,2.7528,0,0,0,6.75,19h10.5A2.7528,2.7528,0,0,0,20,16.25V9.75A2.7528,2.7528,0,0,0,17.25,7Zm1.25,9.25a1.25116,1.25116,0,0,1-1.25,1.25H6.75A1.25116,1.25116,0,0,1,5.5,16.25V9.75A1.25116,1.25116,0,0,1,6.75,8.5h10.5A1.25116,1.25116,0,0,1,18.5,9.75Z"/><circle cx="5.09998" cy="5" r="1"/><circle cx="8.09998" cy="5" r="1"/><circle cx="11.09998" cy="5" r="1"/></svg>