<svg fill="currentColor" id="icons" xmlns="http://www.w3.org/2000/svg" viewBox="0 0 24 24"><title>08-03-landing-page-remove-m</title><rect id="canvas" width="24" height="24" style="fill:none"/><path d="M11.25,17.5H6.75A1.25116,1.25116,0,0,1,5.5,16.25V9.75A1.25116,1.25116,0,0,1,6.75,8.5h10.5A1.25116,1.25116,0,0,1,18.5,9.75v1.5a.75.75,0,0,0,1.5,0V9.75A2.7528,2.7528,0,0,0,17.25,7H6.75A2.7528,2.7528,0,0,0,4,9.75v6.5A2.7528,2.7528,0,0,0,6.75,19h4.5a.75.75,0,0,0,0-1.5Z"/><circle cx="5.09998" cy="5" r="1"/><circle cx="8.09998" cy="5" r="1"/><circle cx="11.09998" cy="5" r="1"/><path d="M20.28027,14.002a.74972.74972,0,0,0-1.06054,0L17.25,15.97168,15.28027,14.002a.74992.74992,0,0,0-1.06054,1.06055l1.96972,1.96973L14.21973,19.002a.74992.74992,0,1,0,1.06054,1.06055L17.25,18.09277l1.96973,1.96973A.74992.74992,0,0,0,20.28027,19.002l-1.96972-1.96972,1.96972-1.96973A.74973.74973,0,0,0,20.28027,14.002Z"/></svg>