<svg fill="currentColor" id="icons" xmlns="http://www.w3.org/2000/svg" viewBox="0 0 24 24"><title>08-04-landing-page-add-m</title><rect id="canvas" width="24" height="24" style="fill:none"/><path d="M11.25,17.5H6.75A1.25116,1.25116,0,0,1,5.5,16.25V9.75A1.25116,1.25116,0,0,1,6.75,8.5h10.5A1.25116,1.25116,0,0,1,18.5,9.75v1.5a.75.75,0,0,0,1.5,0V9.75A2.7528,2.7528,0,0,0,17.25,7H6.75A2.7528,2.7528,0,0,0,4,9.75v6.5A2.7528,2.7528,0,0,0,6.75,19h4.5a.75.75,0,0,0,0-1.5Z"/><circle cx="5.09998" cy="5" r="1"/><circle cx="8.09998" cy="5" r="1"/><circle cx="11.09998" cy="5" r="1"/><path d="M19.9502,16.25h-2v-2a.75.75,0,0,0-1.5,0v2h-2a.75.75,0,0,0,0,1.5h2v2a.75.75,0,0,0,1.5,0v-2h2a.75.75,0,0,0,0-1.5Z"/></svg>