<svg fill="currentColor" id="icons" xmlns="http://www.w3.org/2000/svg" viewBox="0 0 24 24"><title>08-07-landing-page-play-m</title><rect id="canvas" width="24" height="24" style="fill:none"/><path d="M19.58789,15.95166l-.001-.001-3.418-2.07763a1.188,1.188,0,0,0-1.19727-.02051,1.17216,1.17216,0,0,0-.59863,1.01953v4.15576a1.17157,1.17157,0,0,0,.59863,1.01953,1.18729,1.18729,0,0,0,1.19629-.02l3.41894-2.07861a1.167,1.167,0,0,0,.001-1.99707Zm-3.71484,2.49951V15.44873l2.46972,1.50147Z"/><path d="M11.25,17.5H6.75A1.25116,1.25116,0,0,1,5.5,16.25V9.75A1.25116,1.25116,0,0,1,6.75,8.5h10.5A1.25116,1.25116,0,0,1,18.5,9.75v1.5a.75.75,0,0,0,1.5,0V9.75A2.7528,2.7528,0,0,0,17.25,7H6.75A2.7528,2.7528,0,0,0,4,9.75v6.5A2.7528,2.7528,0,0,0,6.75,19h4.5a.75.75,0,0,0,0-1.5Z"/><circle cx="8.09998" cy="5" r="1"/><circle cx="11.09998" cy="5" r="1"/><circle cx="5.09998" cy="5" r="1"/></svg>