<svg fill="currentColor" id="icons" xmlns="http://www.w3.org/2000/svg" viewBox="0 0 24 24"><title>01-01-laptop-s</title><rect id="canvas" width="24" height="24" style="fill:none"/><path d="M17.4751,13.25543V8.82031A1.81233,1.81233,0,0,0,15.6748,7H8.3252A1.81233,1.81233,0,0,0,6.5249,8.82031v4.43512A.74173.74173,0,0,0,6,13.96v.96533A2.05175,2.05175,0,0,0,8.023,17h7.9541A2.05175,2.05175,0,0,0,18,14.92529V13.96A.74173.74173,0,0,0,17.4751,13.25543ZM8.3252,8.5h7.3496a.31109.31109,0,0,1,.3003.32031V13.21H8.0249V8.82031A.31109.31109,0,0,1,8.3252,8.5ZM16.5,14.92529a.55115.55115,0,0,1-.52295.57471H8.023A.55115.55115,0,0,1,7.5,14.92529V14.71h9Z"/></svg>