<svg fill="currentColor" id="icons" xmlns="http://www.w3.org/2000/svg" viewBox="0 0 24 24"><title>01-01-laptop-m</title><rect id="canvas" width="24" height="24" style="fill:none"/><path d="M20.25,14.44287h-.0752V7.43506a2.38559,2.38559,0,0,0-2.3999-2.36572H6.2251A2.38559,2.38559,0,0,0,3.8252,7.43506v7.00781H3.75a.7502.7502,0,0,0-.75.75v1.457a2.75311,2.75311,0,0,0,2.75,2.75h12.5a2.75311,2.75311,0,0,0,2.75-2.75v-1.457A.7502.7502,0,0,0,20.25,14.44287ZM5.3252,7.43506a.88426.88426,0,0,1,.8999-.86572H17.7749a.88426.88426,0,0,1,.8999.86572v7.00781H5.3252ZM19.5,16.6499a1.25116,1.25116,0,0,1-1.25,1.25H5.75a1.25116,1.25116,0,0,1-1.25-1.25v-.707H19.38855c.0127.00061.02338.00733.03625.00733s.02356-.00672.03626-.00733H19.5Z"/></svg>