<svg fill="currentColor" id="icons" xmlns="http://www.w3.org/2000/svg" viewBox="0 0 24 24"><title>02-08-launch-m</title><rect id="canvas" width="24" height="24" style="fill:none"/><path d="M20.40479,3.59473A2.0256,2.0256,0,0,0,18.55762,3.043l-2.77686.57812a9.40177,9.40177,0,0,0-4.751,2.56543L9.61444,7.60223,7.05322,7.624a1.60726,1.60726,0,0,0-1.12793.47266L3.34521,10.67676a1.17611,1.17611,0,0,0,.561,1.97656l2.5498.60254-.01562.10644a3.30534,3.30534,0,0,0,.66321,2.47309l-1.027,1.02691a.74992.74992,0,1,0,1.06055,1.06055l1.02142-1.0213a3.31831,3.31831,0,0,0,2.00543.6922,3.22588,3.22588,0,0,0,.47412-.03418l.106-.01544.60254,2.55157a1.17928,1.17928,0,0,0,.82471.86035A1.1932,1.1932,0,0,0,12.49072,21a1.17543,1.17543,0,0,0,.832-.34473l2.58106-2.58105a1.60886,1.60886,0,0,0,.47217-1.127l.02179-2.56153,1.41571-1.416a9.40832,9.40832,0,0,0,2.56591-4.75L20.957,5.44141A2.02149,2.02149,0,0,0,20.40479,3.59473ZM7.06592,9.124,8.22119,9.1142a8.63775,8.63775,0,0,0-1.4353,2.67907L4.82227,11.3291Zm5.60693,10.06055-.46545-1.97064a8.6466,8.6466,0,0,0,2.65893-1.4184l-.024,1.21912Zm4.08008-7.27539-1.62952,1.62988-.00158.00159-.50708.5072A7.11314,7.11314,0,0,1,10.64209,16.043l-.22119.03223a1.80354,1.80354,0,0,1-1.19348-.24244l4.39563-4.39526A.74993.74993,0,0,0,12.56248,10.377L8.16711,14.772a1.81346,1.81346,0,0,1-.24231-1.19189l.03272-.22266A7.10969,7.10969,0,0,1,9.95215,9.38574l2.13818-2.13867a7.9163,7.9163,0,0,1,1.51819-1.16669,18.94981,18.94981,0,0,1,4.311,4.31043A7.91512,7.91512,0,0,1,16.75293,11.90918Zm2.73535-6.77246L18.91064,7.915a7.94925,7.94925,0,0,1-.27166.95306,20.41052,20.41052,0,0,0-3.50629-3.50738,7.935,7.935,0,0,1,.95325-.27088l2.77734-.57812A.51382.51382,0,0,1,18.97559,4.5a.52871.52871,0,0,1,.36865.15527A.5228.5228,0,0,1,19.48828,5.13672Z"/></svg>