<svg fill="currentColor" id="icons" xmlns="http://www.w3.org/2000/svg" viewBox="0 0 24 24"><title>01-19-layers-m</title><rect id="canvas" width="24" height="24" style="fill:none"/><path d="M19.89355,14.252l-7.58544,4.09473a1.26677,1.26677,0,0,1-1.252-.02344L4.12939,14.26465a.75043.75043,0,0,0-.75878,1.29492l6.92675,4.05859a2.75434,2.75434,0,0,0,2.72412.04786l7.585-4.09375a.75025.75025,0,1,0-.7129-1.32032Z"/><path d="M20.93555,8.81476a.69771.69771,0,0,0-.02539-.08331c-.00891-.01642-.02448-.0257-.03437-.04114a1.01909,1.01909,0,0,0-.20514-.21289c-.01556-.01081-.02465-.02722-.04126-.037L13.70264,4.38184A2.75966,2.75966,0,0,0,10.97852,4.334l-7.585,4.09375c-.017.00922-.02673.02539-.04278.03571a1.015,1.015,0,0,0-.213.20666c-.01007.01471-.02558.02326-.03473.03888a.70887.70887,0,0,0-.02741.07984.73128.73128,0,0,0-.05047.14685.69486.69486,0,0,0,.03906.42444.70063.70063,0,0,0,.02563.08423c.00708.01312.02161.01788.02936.03039a.733.733,0,0,0,.25189.26062L10.29736,13.793a2.75347,2.75347,0,0,0,2.72364.04785L20.606,9.748c.01629-.00879.02551-.0243.04089-.03406a1.01446,1.01446,0,0,0,.215-.20789c.01019-.01489.02582-.0235.03509-.0393a.69524.69524,0,0,0,.02741-.07972.72768.72768,0,0,0,.05041-.14691.87285.87285,0,0,0,.00464-.28112A.73134.73134,0,0,0,20.93555,8.81476Zm-8.62744,3.70672a1.26776,1.26776,0,0,1-1.25245-.02343L5.27985,9.11462l6.412-3.4613a1.27158,1.27158,0,0,1,1.252.02344l5.77624,3.38446Z"/></svg>