<svg fill="currentColor" id="icons" xmlns="http://www.w3.org/2000/svg" viewBox="0 0 24 24"><title>06-02-legend-left-m</title><rect id="canvas" width="24" height="24" style="fill:none"/><path d="M13.25,19.99609H6.75a2.75279,2.75279,0,0,1-2.75-2.75V6.75439a2.75311,2.75311,0,0,1,2.75-2.75h6.5a2.75311,2.75311,0,0,1,2.75,2.75v10.4917A2.75279,2.75279,0,0,1,13.25,19.99609ZM6.75,5.50439a1.25116,1.25116,0,0,0-1.25,1.25v10.4917a1.25116,1.25116,0,0,0,1.25,1.25h6.5a1.25116,1.25116,0,0,0,1.25-1.25V6.75439a1.25116,1.25116,0,0,0-1.25-1.25Z"/><path d="M19.25,20a.7502.7502,0,0,1-.75-.75V4.75a.75.75,0,0,1,1.5,0v14.5A.7502.7502,0,0,1,19.25,20Z"/></svg>