<svg fill="currentColor" id="icons" xmlns="http://www.w3.org/2000/svg" viewBox="0 0 24 24"><title>06-01-legend-bottom-m</title><rect id="canvas" width="24" height="24" style="fill:none"/><path d="M19.25,20H4.75a.75.75,0,0,1,0-1.5h14.5a.75.75,0,0,1,0,1.5Z"/><path d="M17.24561,16H6.75439a2.75311,2.75311,0,0,1-2.75-2.75V6.75A2.75311,2.75311,0,0,1,6.75439,4H17.24561a2.75311,2.75311,0,0,1,2.75,2.75v6.5A2.75311,2.75311,0,0,1,17.24561,16ZM6.75439,5.5a1.25116,1.25116,0,0,0-1.25,1.25v6.5a1.25116,1.25116,0,0,0,1.25,1.25H17.24561a1.25116,1.25116,0,0,0,1.25-1.25V6.75a1.25116,1.25116,0,0,0-1.25-1.25Z"/></svg>