<svg fill="currentColor" id="icons" xmlns="http://www.w3.org/2000/svg" viewBox="0 0 24 24"><title>code_m_path</title><path d="M16,16.75H7.52051a.75.75,0,0,0,0,1.5H16a.75.75,0,0,0,0-1.5Z"/><path d="M6.83081,11.30469c.00909.02179.00848.04516.01978.0664.00854.016.02612.022.03558.03711a.72809.72809,0,0,0,.21179.22095c.01752.0119.02973.029.0481.03937.00622.00354.00964.00976.016.01312l8.4873,4.48145A.74135.74135,0,0,0,15.999,16.25a.75.75,0,0,0,.35157-1.41309L9.114,11.01587l7.23859-3.85376a.75012.75012,0,1,0-.70508-1.32422l-8.4873,4.51856a.6861.6861,0,0,0-.05451.04486.76534.76534,0,0,0-.21106.21173c-.0133.02014-.03338.03314-.045.05493-.01135.02148-.01068.045-.01978.06708a.72875.72875,0,0,0-.04266.14477.6674.6674,0,0,0,.00018.279A.73065.73065,0,0,0,6.83081,11.30469Z"/></svg>