<svg fill="currentColor" id="icons" xmlns="http://www.w3.org/2000/svg" viewBox="0 0 24 24"><title>code_m_path</title><path d="M16.35064,15.83691,9.114,12.01587l7.23858-3.85376a.75011.75011,0,0,0-.70507-1.32422L7.16021,11.35645c-.02118.01129-.03369.03094-.05334.04388a.76369.76369,0,0,0-.212.21228.69263.69263,0,0,0-.04523.05536c-.01135.02148-.01068.045-.01977.06708a.72875.72875,0,0,0-.04266.14477.6674.6674,0,0,0,.00018.279.73065.73065,0,0,0,.04346.14588c.00909.02179.00848.04516.01977.0664.00855.016.02612.022.03558.03711a.72812.72812,0,0,0,.2118.22095c.01751.0119.02972.029.04809.03937.00623.00354.00965.00976.016.01312l8.48731,4.48145a.74129.74129,0,0,0,.34961.08691.75.75,0,0,0,.35156-1.41309Z"/></svg>