<svg fill="currentColor" id="icons" xmlns="http://www.w3.org/2000/svg" viewBox="0 0 24 24"><title>02-05-lifebuoy-m</title><rect id="canvas" width="24" height="24" style="fill:none"/><path d="M12,3a9,9,0,1,0,9,9A9.01016,9.01016,0,0,0,12,3Zm4.74329,3.19617-1.55463,1.555a5.22908,5.22908,0,0,0-6.37732,0l-1.55463-1.555a7.48032,7.48032,0,0,1,9.48658,0ZM12,15.833A3.83326,3.83326,0,1,1,15.833,12,3.83767,3.83767,0,0,1,12,15.833ZM4.5,12A7.464,7.464,0,0,1,6.19617,7.25677L7.75092,8.81189a5.22988,5.22988,0,0,0,.00036,6.37628L6.19617,16.74329A7.46387,7.46387,0,0,1,4.5,12Zm2.75671,5.80383,1.55512-1.55511a5.22928,5.22928,0,0,0,6.37634,0l1.55512,1.55511a7.48032,7.48032,0,0,1-9.48658,0Zm10.54712-1.06054-1.55511-1.55512a5.22988,5.22988,0,0,0,.00036-6.37628l1.55475-1.55512a7.48024,7.48024,0,0,1,0,9.48652Z"/></svg>