<svg fill="currentColor" id="icons" xmlns="http://www.w3.org/2000/svg" viewBox="0 0 24 24"><title>02-12-like-m</title><rect id="canvas" width="24" height="24" style="fill:none"/><path d="M20.20215,10.4541a2.57474,2.57474,0,0,0-2.14453-1.14551H15.606V6.69043a2.604,2.604,0,0,0-.59278-1.65234,2.42076,2.42076,0,0,0-2.00146-.92383,2.52009,2.52009,0,0,0-1.96777.99023L7.7149,9.43927a1.626,1.626,0,0,0-1.09381-.42755h-1.96a1.65345,1.65345,0,0,0-1.65136,1.65137v7.57226a1.65345,1.65345,0,0,0,1.65136,1.65137h1.96a1.63829,1.63829,0,0,0,1.58747-1.2522l.39789.428a2.59049,2.59049,0,0,0,1.89062.82422H17.001a2.59325,2.59325,0,0,0,2.48047-1.86817l1.40771-4.88964a2.58,2.58,0,0,0-.33594-2.15137Zm-13.44238,7.793a.13911.13911,0,0,1-.13868.13965h-1.96a.15181.15181,0,0,1-.15136-.15137V10.66309a.15181.15181,0,0,1,.15136-.15137h1.96a.1389.1389,0,0,1,.13868.13867Zm12.688-5.5332L18.04,17.60352a1.08708,1.08708,0,0,1-1.03906.7832H10.49707a1.08438,1.08438,0,0,1-.792-.3457L8.25977,16.48651V11.19263L12.2334,6.01855a1.02778,1.02778,0,0,1,.80371-.40429l.01807-.001a1.03215,1.03215,0,0,1,.80029.37891,1.09724,1.09724,0,0,1,.25049.69824v3.36816a.75018.75018,0,0,0,.75.75h3.20166a1.07846,1.07846,0,0,1,.898.48047l.35107.52344A1.08093,1.08093,0,0,1,19.44775,12.71387Z"/></svg>