<svg fill="currentColor" id="icons" xmlns="http://www.w3.org/2000/svg" viewBox="0 0 24 24"><title>09-02-lines-m</title><rect id="canvas" width="24" height="24" style="fill:none"/><path d="M18.24609,2.94873h-12.5a2.75311,2.75311,0,0,0-2.75,2.75V18.19922a2.7528,2.7528,0,0,0,2.75,2.75h12.5a2.75279,2.75279,0,0,0,2.75-2.75V5.69873A2.75311,2.75311,0,0,0,18.24609,2.94873Zm-12.5,1.5h12.5a1.25116,1.25116,0,0,1,1.25,1.25V11.25h-15V5.69873A1.25116,1.25116,0,0,1,5.74609,4.44873Zm12.5,15.00049h-12.5a1.25116,1.25116,0,0,1-1.25-1.25V12.75h15v5.44922A1.25116,1.25116,0,0,1,18.24609,19.44922Z"/></svg>