<svg fill="currentColor" id="icons" xmlns="http://www.w3.org/2000/svg" viewBox="0 0 24 24"><title>01-05-line-m</title><rect id="canvas" width="24" height="24" style="fill:none"/><path d="M19.25,20H6.89844A2.90106,2.90106,0,0,1,4,17.102V4.75a.75.75,0,0,1,1.5,0V17.102A1.39942,1.39942,0,0,0,6.89844,18.5H19.25a.75.75,0,0,1,0,1.5Z"/><path d="M16.3252,17.3252H15.02539A3.20375,3.20375,0,0,1,11.8252,14.125V9.875a1.7002,1.7002,0,0,0-3.4004,0v6.6499a.75.75,0,0,1-1.5,0V9.875a3.2002,3.2002,0,0,1,6.4004,0v4.2002a1.71347,1.71347,0,0,0,1.70019,1.75H16.3252a.75.75,0,0,1,0,1.5Z"/></svg>