<svg fill="currentColor" id="icons" xmlns="http://www.w3.org/2000/svg" viewBox="0 0 24 24"><title>01-22-linkedin-m</title><rect id="canvas" width="24" height="24" style="fill:#fff;fill-opacity:0.1"/><path d="M8.44238,16.875a.7502.7502,0,0,1-.75-.75V11.1748a.75.75,0,1,1,1.5,0V16.125A.75019.75019,0,0,1,8.44238,16.875Z"/><path d="M15.86719,16.875a.75019.75019,0,0,1-.75-.75V13.2373a1.3125,1.3125,0,1,0-2.625,0V16.125a.75.75,0,0,1-1.5,0V13.2373a2.8125,2.8125,0,1,1,5.625,0V16.125A.7502.7502,0,0,1,15.86719,16.875Z"/><g id="Shape_3077" data-name="Shape 3077"><path d="M8.44238,9.34668a.95691.95691,0,0,1-.95605-.95606.95522.95522,0,0,1,.95508-.95605h.001a.95606.95606,0,1,1,0,1.91211Zm0-.41211h0Zm0,0Z"/></g><path d="M16.25,20H7.75A3.75473,3.75473,0,0,1,4,16.25V7.75A3.75473,3.75473,0,0,1,7.75,4h8.5A3.75473,3.75473,0,0,1,20,7.75v8.5A3.75473,3.75473,0,0,1,16.25,20ZM7.75,5.5A2.25309,2.25309,0,0,0,5.5,7.75v8.5A2.25309,2.25309,0,0,0,7.75,18.5h8.5a2.25309,2.25309,0,0,0,2.25-2.25V7.75A2.25309,2.25309,0,0,0,16.25,5.5Z"/></svg>