<svg fill="currentColor" id="icons" xmlns="http://www.w3.org/2000/svg" viewBox="0 0 24 24"><title>02-11-link-m</title><rect id="canvas" width="24" height="24" style="fill:none"/><path d="M17.18652,10.398a.74992.74992,0,0,0-1.05859,1.0625l1.43262,1.42773a3.27659,3.27659,0,0,1,0,4.648,3.31637,3.31637,0,0,1-4.67285,0L11.45508,16.1084a.74992.74992,0,1,0-1.0586,1.0625l1.43262,1.42773a4.80323,4.80323,0,0,0,8.19824-3.3872,4.74585,4.74585,0,0,0-1.4082-3.38575Z"/><path d="M6.81348,13.60205a.74992.74992,0,0,0,1.05859-1.0625L6.43945,11.11182a3.27659,3.27659,0,0,1,0-4.64795,3.31817,3.31817,0,0,1,4.67285,0L12.54492,7.8916a.74992.74992,0,0,0,1.0586-1.0625L12.1709,5.40137a4.82,4.82,0,0,0-6.79,0,4.776,4.776,0,0,0,0,6.773Z"/><path d="M8.96094,8.97217a.74973.74973,0,0,0,.00195,1.06054l4.32129,4.30518a.74992.74992,0,1,0,1.05859-1.0625L10.02148,8.97021A.74972.74972,0,0,0,8.96094,8.97217Z"/></svg>