<svg fill="currentColor" id="icons" xmlns="http://www.w3.org/2000/svg" viewBox="0 0 24 24"><title>01-13-linux-m</title><rect id="canvas" width="24" height="24" style="fill:#fff;fill-opacity:0.1"/><path d="M18.43575,17.28675c-.4125-.3345-.252-1.07325-.68025-1.43775a7.27254,7.27254,0,0,0-2.13375-6.174c-1.16325-1.19625-.78825-2.36025-.78825-3.3675C14.8335,4.698,14.17275,3,12.171,3A2.69126,2.69126,0,0,0,9.42375,5.8035c-.051,2.4465.49425,3.0825-.9375,4.863-1.6845,2.09475-1.93275,4.18425-1.5525,5.29275a2.19271,2.19271,0,0,1-.86625.62625c-1.239.54-.33075,1.44375-.6735,2.085a1.17773,1.17773,0,0,0-.144.555,1.0265,1.0265,0,0,0,1.25925.9765c1.09575-.0975,2.10675.67875,2.76075.67875A1.4037,1.4037,0,0,0,10.542,20.1a7.24241,7.24241,0,0,1,3.33975.04425A1.31288,1.31288,0,0,0,15.12825,21c1.22325,0,1.45875-1.38675,2.862-1.85625a1.15581,1.15581,0,0,0,.75975-1.116A.94035.94035,0,0,0,18.43575,17.28675ZM11.5755,9.438c-.23925,0-.43725-.1935-.75-.426-.396-.294-.79875-.4635-.79425-.7725,0-.21225.28425-.2775.65175-.51075.3945-.24975.54825-.50325.93675-.50325.3975,0,.5175.201,1.0575.43425.531.23025.90075.32025.90075.57975,0,.26625-.55575.45675-.8685.651C12.24975,9.174,12.0135,9.438,11.5755,9.438Zm1.24875-3.91125c.6615.10575.73575,1.26825.41925,1.8405l-.26625-.10875c.138-.40725.13575-1.07775-.32625-1.1205-.29325-.027-.48225.36-.52275.6915a1.2647,1.2647,0,0,0-.39225-.09525C11.7825,6.042,12.2295,5.4315,12.82425,5.52675ZM10.272,5.775c.507-.126.80625.4635.8085,1.07625l-.2325.1425c-.0315-.25725-.14625-.67275-.43425-.58425-.30825.096-.258.81225-.08625.95925l-.2295.1275C9.783,6.966,9.78375,5.8965,10.272,5.775ZM8.68575,20.20725a3.88459,3.88459,0,0,0-2.25375-.5175c-.58275,0-.77325-.43425-.55425-.84525a1.54161,1.54161,0,0,0,.0825-1.00725c-.0705-.44925-.08325-.5955.3585-.789a2.55507,2.55507,0,0,0,1.08525-.843c.5685-.70275,1.14225.40275,1.6125,1.3875.30525.63825.906.9615,1.09125,1.66875A.93291.93291,0,0,1,8.68575,20.20725Zm5.24025-1.4055a3.90125,3.90125,0,0,1-3.3495.22425,2.666,2.666,0,0,0-.63225-.96975.69331.69331,0,0,0,.345-1.11675,10.4545,10.4545,0,0,0-1.9575-1.53c-.74025-.57225-.97425-1.983.03375-3.5595a4.02818,4.02818,0,0,0,.04275,3.05175,6.29912,6.29912,0,0,1,1.122-3.46125,4.29792,4.29792,0,0,0,.5295-2.355l.465.318a1.817,1.817,0,0,0,1.0395.531,2.54685,2.54685,0,0,0,1.4115-.63975c.183-.1125.45975-.2265.69225-.38475.39,1.857,2.0055,4.0905,2.09625,5.3625a5.52077,5.52077,0,0,0-.1065-2.6355,4.66979,4.66979,0,0,1,.7095,2.7525,1.558,1.558,0,0,1,.95925,1.272l-.18375-.021c-.0945-.68925-1.95525-1.70175-2.1225-.40425-.8925.13575-.56775,1.5495-.74775,2.466A9.15361,9.15361,0,0,1,13.926,18.80175Zm3.6345-.03075a4.31525,4.31525,0,0,0-1.58025,1.266c-.66.7245-1.533.37725-1.626-.30075-.09825-.7245.27-1.11975.429-1.9305.14475-.74025-.01725-1.8795.32325-2.001.22125,1.31475,1.5495.762,1.8525.4035.49275,0,.534.1665.64425.62775a1.6256,1.6256,0,0,0,.4335.8175C18.35025,17.98875,18.25425,18.50325,17.5605,18.771Zm-6-9.7545A1.83172,1.83172,0,0,1,10.41,8.43975c-.15225-.12825.0375-.36525.18975-.23625a1.568,1.568,0,0,0,.96075.50625c.45525,0,.8565-.38925,1.40025-.60375a.153.153,0,0,1,.10725.2865C12.54,8.60025,12.11625,9.0165,11.5605,9.0165Z"/></svg>