<svg fill="currentColor" id="icons" xmlns="http://www.w3.org/2000/svg" viewBox="0 0 24 24"><title>03-02-list-numbers-m</title><rect id="canvas" width="24" height="24" style="fill:none"/><path d="M19.10449,7.11133h-7.894a.75.75,0,0,1,0-1.5h7.894a.75.75,0,0,1,0,1.5Z"/><path d="M19.10449,12.75h-7.894a.75.75,0,0,1,0-1.5h7.894a.75.75,0,0,1,0,1.5Z"/><path d="M19.10449,18.38867h-7.894a.75.75,0,1,1,0-1.5h7.894a.75.75,0,0,1,0,1.5Z"/><path d="M6.67627,8.89062a.75019.75019,0,0,1-.75-.75V6.8584l-.01367.01269A.75012.75012,0,1,1,4.89307,5.77051L6.1665,4.59033a.75.75,0,0,1,1.25977.55029v3A.75019.75019,0,0,1,6.67627,8.89062Z"/><path d="M6.47412,14.36133A2.36156,2.36156,0,1,1,8.80273,12,2.34755,2.34755,0,0,1,6.47412,14.36133Zm0-3.22266A.862.862,0,1,0,7.30273,12,.84621.84621,0,0,0,6.47412,11.13867Z"/><path d="M6.47412,20a2.36131,2.36131,0,1,1,2.32861-2.36133A2.34755,2.34755,0,0,1,6.47412,20Zm0-3.22217a.86172.86172,0,1,0,.82861.86084A.8461.8461,0,0,0,6.47412,16.77783Z"/></svg>