<svg fill="currentColor" id="icons" xmlns="http://www.w3.org/2000/svg" viewBox="0 0 24 24"><title>01-01-location-m</title><rect id="canvas" width="24" height="24" style="fill:none"/><path d="M11.521,20.82715a.72572.72572,0,0,0,.11456.06518.73789.73789,0,0,0,.07989.04548A.74556.74556,0,0,0,11.99951,21L12,20.99988,12.00049,21a.74556.74556,0,0,0,.28406-.06219.73789.73789,0,0,0,.07989-.04548.72572.72572,0,0,0,.11456-.06518c.27051-.22412,6.625-5.55469,6.625-10.66065a7.10427,7.10427,0,1,0-14.208,0C4.896,15.27246,11.25049,20.603,11.521,20.82715ZM12,4.5a5.642,5.642,0,0,1,5.604,5.6665c0,3.67066-4.178,7.78485-5.604,9.08252-1.426-1.29767-5.604-5.41186-5.604-9.08252A5.642,5.642,0,0,1,12,4.5Z"/><path d="M15.25,10.166A3.25,3.25,0,1,0,12,13.416,3.25376,3.25376,0,0,0,15.25,10.166Zm-5,0A1.75,1.75,0,1,1,12,11.916,1.77326,1.77326,0,0,1,10.25,10.166Z"/></svg>