<svg fill="currentColor" id="icons" xmlns="http://www.w3.org/2000/svg" viewBox="0 0 24 24"><title>01-01-location-s</title><rect id="canvas" width="24" height="24" style="fill:none"/><path d="M12,6a4.8289,4.8289,0,0,0-4.813,4.8335c0,3.37695,4.15869,6.84863,4.33545,6.99511a293.97783,293.97783,0,0,0,.19257.10889A.747.747,0,0,0,11.99951,18L12,17.99988,12.00049,18a.747.747,0,0,0,.28448-.0625,293.97783,293.97783,0,0,0,.19257-.10889c.17676-.14648,4.33545-3.61816,4.33545-6.99511A4.8289,4.8289,0,0,0,12,6Zm0,10.24963c-1.23187-1.14526-3.313-3.48346-3.313-5.41613a3.31305,3.31305,0,1,1,6.626,0C15.313,12.76617,13.23187,15.10437,12,16.24963Z"/><path d="M12,8.49219A2.34083,2.34083,0,1,0,14.34863,10.833,2.3476,2.3476,0,0,0,12,8.49219Zm0,3.18164a.84086.84086,0,1,1,.84863-.84082A.85624.85624,0,0,1,12,11.67383Z"/></svg>