<svg fill="currentColor" id="icons" xmlns="http://www.w3.org/2000/svg" viewBox="0 0 24 24"><title>01-01-lock-m</title><rect id="canvas" width="24" height="24" style="fill:none"/><path d="M12,12.4502a1.49511,1.49511,0,0,0-.75,2.79132V17.0498a.75.75,0,0,0,1.5,0V15.24152A1.49511,1.49511,0,0,0,12,12.4502Z"/><path d="M17.25,9h-.93066V7.22314a4.32044,4.32044,0,0,0-8.63868,0V9H6.75A2.7528,2.7528,0,0,0,4,11.75v6.5A2.7528,2.7528,0,0,0,6.75,21h10.5A2.7528,2.7528,0,0,0,20,18.25v-6.5A2.7528,2.7528,0,0,0,17.25,9ZM9.18066,7.22314a2.821,2.821,0,0,1,5.63868,0V9H9.18066ZM18.5,18.25a1.25116,1.25116,0,0,1-1.25,1.25H6.75A1.25116,1.25116,0,0,1,5.5,18.25v-6.5A1.25116,1.25116,0,0,1,6.75,10.5h10.5a1.25116,1.25116,0,0,1,1.25,1.25Z"/></svg>