<svg fill="currentColor" id="icons" xmlns="http://www.w3.org/2000/svg" viewBox="0 0 24 24"><defs><style>.cls-1{fill:none;}</style></defs><rect id="canvas" class="cls-1" width="24" height="24"/><path d="M11.59,19.37H7.09a1.25,1.25,0,0,1-1.25-1.25v-6.5a1.25,1.25,0,0,1,1.25-1.25h10.5a1.25,1.25,0,0,1,1.25,1.25.75.75,0,1,0,1.5,0,2.75,2.75,0,0,0-2.75-2.75h-.93V7.09A4.32,4.32,0,0,0,8,7.09V8.87H7.09a2.75,2.75,0,0,0-2.75,2.75v6.5a2.75,2.75,0,0,0,2.75,2.75h4.5a.75.75,0,0,0,0-1.5ZM9.52,7.09a2.82,2.82,0,0,1,5.64,0V8.87H9.52Z"/><path d="M17.34,13.17a1.5,1.5,0,1,0,1.5,1.5A1.51,1.51,0,0,0,17.34,13.17Z"/><path d="M20.65,19.4A2.93,2.93,0,0,0,17.78,17H16.9A2.93,2.93,0,0,0,14,19.4a.76.76,0,0,0,0,.27v.45a.75.75,0,0,0,1.5,0v-.19a1.43,1.43,0,0,1,1.43-1.41h.88a1.42,1.42,0,0,1,1.42,1.41v.19a.75.75,0,0,0,1.5,0v-.45A.76.76,0,0,0,20.65,19.4Z"/></svg>