<svg fill="currentColor" id="icons" xmlns="http://www.w3.org/2000/svg" viewBox="0 0 24 24"><title>02-07-mail-open-m</title><rect id="canvas" width="24" height="24" style="fill:none;opacity:0.1"/><path d="M18.71289,7.94922,13.95557,4.96045a3.76819,3.76819,0,0,0-4.01172.01269L5.272,7.95068h.00049A2.73642,2.73642,0,0,0,4,10.26953v6.5957a2.75279,2.75279,0,0,0,2.75,2.75h10.5a2.75279,2.75279,0,0,0,2.75-2.75v-6.5874A2.73537,2.73537,0,0,0,18.71289,7.94922ZM6.07861,9.21533,10.75,6.23779a2.26229,2.26229,0,0,1,2.40771-.00732L17.915,9.21973a1.23518,1.23518,0,0,1,.4779.574l-.00183.00073L13.251,13.07617a2.26456,2.26456,0,0,1-2.40869.00781L5.60449,9.792H5.60443A1.238,1.238,0,0,1,6.07861,9.21533ZM17.25,18.11523H6.75a1.25116,1.25116,0,0,1-1.25-1.25V11.49738l4.544,2.85614a3.76159,3.76159,0,0,0,4.01367-.01368L18.5,11.50446v5.36077A1.25116,1.25116,0,0,1,17.25,18.11523Z"/></svg>