<svg fill="currentColor" id="icons" xmlns="http://www.w3.org/2000/svg" viewBox="0 0 24 24"><title>02-04-mail-add-m</title><rect id="canvas" width="24" height="24" style="fill:none;opacity:0.1"/><path d="M19.9502,16.25h-2v-2a.75.75,0,0,0-1.5,0v2h-2a.75.75,0,0,0,0,1.5h2v2a.75.75,0,0,0,1.5,0v-2h2a.75.75,0,0,0,0-1.5Z"/><path d="M6.75,17.75h4.5a.75.75,0,0,0,0-1.5H6.75A1.25116,1.25116,0,0,1,5.5,15V9.517l4.544,2.857a3.771,3.771,0,0,0,4.01367-.01416L18.5,9.52374V11.25a.75.75,0,0,0,1.5,0V8.5a2.7528,2.7528,0,0,0-2.75-2.75H6.75A2.7528,2.7528,0,0,0,4,8.5V15A2.7528,2.7528,0,0,0,6.75,17.75Zm0-10.5h10.5a1.23251,1.23251,0,0,1,1.05408.6192l-5.0531,3.226a2.26171,2.26171,0,0,1-2.40821.00879L5.69629,7.86865A1.23258,1.23258,0,0,1,6.75,7.25Z"/></svg>