<svg fill="currentColor" id="icons" xmlns="http://www.w3.org/2000/svg" viewBox="0 0 24 24"><title>02-01-mail-s</title><rect id="canvas" width="24" height="24" style="fill:none"/><path d="M15.25,7H8.75A2.7528,2.7528,0,0,0,6,9.75v4.5A2.7528,2.7528,0,0,0,8.75,17h6.5A2.7528,2.7528,0,0,0,18,14.25V9.75A2.7528,2.7528,0,0,0,15.25,7ZM8.75,8.5h6.5a1.23273,1.23273,0,0,1,.92853.43311l-3.41632,2.43847a1.23151,1.23151,0,0,1-1.4585.00537L7.82312,8.93066A1.23331,1.23331,0,0,1,8.75,8.5Zm6.5,7H8.75A1.25116,1.25116,0,0,1,7.5,14.25V10.53711l2.94141,2.06738a2.73093,2.73093,0,0,0,3.19189-.0122L16.5,10.54614V14.25A1.25116,1.25116,0,0,1,15.25,15.5Z"/></svg>