<svg fill="currentColor" id="icons" xmlns="http://www.w3.org/2000/svg" viewBox="0 0 24 24"><title>02-05-mail-check-m</title><rect id="canvas" width="24" height="24" style="fill:none;opacity:0.1"/><path d="M6.75,17.75h4.5a.75.75,0,0,0,0-1.5H6.75A1.25116,1.25116,0,0,1,5.5,15V9.517l4.544,2.857a3.771,3.771,0,0,0,4.01367-.01416L18.5,9.52374V11.25a.75.75,0,0,0,1.5,0V8.5a2.7528,2.7528,0,0,0-2.75-2.75H6.75A2.7528,2.7528,0,0,0,4,8.5V15A2.7528,2.7528,0,0,0,6.75,17.75Zm0-10.5h10.5a1.23251,1.23251,0,0,1,1.05408.6192l-5.0531,3.226a2.26173,2.26173,0,0,1-2.40821.00879L5.69629,7.86865A1.23258,1.23258,0,0,1,6.75,7.25Z"/><path d="M19.23145,14.67725,16.49707,17.394,15.27734,16.231a.75013.75013,0,1,0-1.03515,1.08593l1.748,1.66651a.75012.75012,0,0,0,1.0459-.01074l3.252-3.231a.74992.74992,0,1,0-1.05664-1.06445Z"/></svg>