<svg fill="currentColor" id="icons" xmlns="http://www.w3.org/2000/svg" viewBox="0 0 24 24"><title>02-01-mail-m</title><rect id="canvas" width="24" height="24" style="fill:none;opacity:0.1"/><path d="M17.25,5.75H6.75A2.7528,2.7528,0,0,0,4,8.5V15a2.7528,2.7528,0,0,0,2.75,2.75h10.5A2.7528,2.7528,0,0,0,20,15V8.5A2.7528,2.7528,0,0,0,17.25,5.75ZM6.75,7.25h10.5a1.23266,1.23266,0,0,1,1.05426.61945L13.251,11.09521a2.26456,2.26456,0,0,1-2.40869.00879L5.696,7.86908A1.23256,1.23256,0,0,1,6.75,7.25Zm10.5,9H6.75A1.25116,1.25116,0,0,1,5.5,15V9.517l4.54443,2.857a3.76747,3.76747,0,0,0,4.01319-.01416L18.5,9.52405V15A1.25116,1.25116,0,0,1,17.25,16.25Z"/></svg>