<svg fill="currentColor" id="icons" xmlns="http://www.w3.org/2000/svg" viewBox="0 0 24 24"><title>02-09-mailbox-m</title><rect id="canvas" width="24" height="24" style="fill:none;opacity:0.1"/><path d="M15.2998,9.25h-5V7.90137h4.20313a2.49683,2.49683,0,1,0,0-4.99366H9.5498a.7502.7502,0,0,0-.75.75V9.25H8.75A5.75671,5.75671,0,0,0,3,15v3.25A2.7528,2.7528,0,0,0,5.75,21H18.2998a2.75279,2.75279,0,0,0,2.75-2.75V15A5.75671,5.75671,0,0,0,15.2998,9.25Zm-5-4.84229h4.20313a.99683.99683,0,1,1,0,1.99366H10.2998ZM14.6499,18.25a1.25116,1.25116,0,0,1-1.25,1.25H5.75A1.25116,1.25116,0,0,1,4.5,18.25V15a4.25507,4.25507,0,0,1,4.25-4.25h.0498v3.59961a.75.75,0,0,0,1.5,0V10.75h.1001a4.25507,4.25507,0,0,1,4.25,4.25Zm4.8999,0a1.25116,1.25116,0,0,1-1.25,1.25H15.84912a2.73022,2.73022,0,0,0,.30078-1.25V15A5.73746,5.73746,0,0,0,14.269,10.75H15.2998a4.25506,4.25506,0,0,1,4.25,4.25Z"/></svg>