<svg fill="currentColor" id="icons" xmlns="http://www.w3.org/2000/svg" viewBox="0 0 24 24"><title>02-03-mail-remove-m</title><rect id="canvas" width="24" height="24" style="fill:none;opacity:0.1"/><path d="M6.75,17.75h4.5a.75.75,0,0,0,0-1.5H6.75A1.25116,1.25116,0,0,1,5.5,15V9.517l4.54443,2.857a3.76747,3.76747,0,0,0,4.01319-.01416L18.5,9.52405V11.25a.75.75,0,0,0,1.5,0V8.5a2.7528,2.7528,0,0,0-2.75-2.75H6.75A2.7528,2.7528,0,0,0,4,8.5V15A2.7528,2.7528,0,0,0,6.75,17.75Zm0-10.5h10.5a1.23266,1.23266,0,0,1,1.05426.61945L13.251,11.09521a2.26455,2.26455,0,0,1-2.40869.00879L5.696,7.86908A1.23256,1.23256,0,0,1,6.75,7.25Z"/><path d="M19.21973,14.002,17.25,15.97168,15.28027,14.002a.74992.74992,0,0,0-1.06054,1.06055l1.96972,1.96973L14.21973,19.002a.74992.74992,0,1,0,1.06054,1.06055L17.25,18.09277l1.96973,1.96973A.74992.74992,0,0,0,20.28027,19.002l-1.96972-1.96972,1.96972-1.96973A.74992.74992,0,0,0,19.21973,14.002Z"/></svg>