<svg fill="currentColor" id="icons" xmlns="http://www.w3.org/2000/svg" viewBox="0 0 24 24"><title>02-02-mail-block-m</title><rect id="canvas" width="24" height="24" style="fill:none;opacity:0.1"/><path d="M6.75,17.75h4.5a.75.75,0,0,0,0-1.5H6.75A1.25116,1.25116,0,0,1,5.5,15V9.517l4.54443,2.857a3.76747,3.76747,0,0,0,4.01319-.01416L18.5,9.52405V11.25a.75.75,0,0,0,1.5,0V8.5a2.7528,2.7528,0,0,0-2.75-2.75H6.75A2.7528,2.7528,0,0,0,4,8.5V15A2.7528,2.7528,0,0,0,6.75,17.75Zm0-10.5h10.5a1.23266,1.23266,0,0,1,1.05426.61945L13.251,11.09521a2.26456,2.26456,0,0,1-2.40869.00879L5.696,7.86908A1.23256,1.23256,0,0,1,6.75,7.25Z"/><path d="M17.25,13.28223a3.75,3.75,0,1,0,3.75,3.75A3.7541,3.7541,0,0,0,17.25,13.28223Zm0,1.5a2.223,2.223,0,0,1,.97821.23315L15.233,18.01019a2.22349,2.22349,0,0,1-.233-.978A2.25246,2.25246,0,0,1,17.25,14.78223Zm0,4.5a2.2258,2.2258,0,0,1-.95007-.21784l2.98236-2.982a2.22587,2.22587,0,0,1,.21771.94983A2.25246,2.25246,0,0,1,17.25,19.28223Z"/></svg>