<svg fill="currentColor" id="icons" xmlns="http://www.w3.org/2000/svg" viewBox="0 0 24 24"><title>09-14-manage-panels-m</title><rect id="canvas" width="24" height="24" style="fill:none"/><path d="M18.24609,2.94873h-12.5a2.75311,2.75311,0,0,0-2.75,2.75V18.19922a2.7528,2.7528,0,0,0,2.75,2.75h12.5a2.75279,2.75279,0,0,0,2.75-2.75V5.69873A2.75311,2.75311,0,0,0,18.24609,2.94873Zm-13.75,15.25049V5.69873a1.25116,1.25116,0,0,1,1.25-1.25h8.28418A.71294.71294,0,0,0,14,4.59814v14.815c0,.01281.00671.02349.00732.03613H5.74609A1.25116,1.25116,0,0,1,4.49609,18.19922Zm15,0a1.25116,1.25116,0,0,1-1.25,1.25H15.49268c.00061-.01264.00732-.02332.00732-.03613V4.59814a.71294.71294,0,0,0-.03027-.14941h2.77636a1.25116,1.25116,0,0,1,1.25,1.25Z"/><path d="M11.10938,8.375H7.377a.75.75,0,0,0,0,1.5h3.73243a.75.75,0,1,0,0-1.5Z"/><path d="M11.10938,5.7251H7.377a.75.75,0,0,0,0,1.5h3.73243a.75.75,0,0,0,0-1.5Z"/><path d="M9.24316,11.0249H7.377a.75.75,0,1,0,0,1.5H9.24316a.75.75,0,0,0,0-1.5Z"/></svg>