<svg fill="currentColor" id="icons" xmlns="http://www.w3.org/2000/svg" viewBox="0 0 24 24"><title>04-03-marketplace-m</title><rect id="canvas" width="24" height="24" style="fill:none"/><path d="M10.25,13H3.75a.7502.7502,0,0,0-.75.75v6.5a.7502.7502,0,0,0,.75.75h6.5a.7502.7502,0,0,0,.75-.75v-6.5A.7502.7502,0,0,0,10.25,13ZM9.5,19.5h-5v-5h5Z"/><path d="M16.75,12.5A4.25,4.25,0,1,0,21,16.75,4.25507,4.25507,0,0,0,16.75,12.5Zm0,7a2.75,2.75,0,1,1,2.75-2.75A2.7528,2.7528,0,0,1,16.75,19.5Z"/><path d="M20.25,11a.75.75,0,0,0,.64941-1.125l-3.75-6.5a.78006.78006,0,0,0-1.29882,0l-3.75,6.5A.75.75,0,0,0,12.75,11ZM16.5,5.251,18.95166,9.5H14.04834Z"/><path d="M10.25,6.25H7.75V3.75a.75.75,0,0,0-1.5,0v2.5H3.75a.75.75,0,0,0,0,1.5h2.5v2.5a.75.75,0,0,0,1.5,0V7.75h2.5a.75.75,0,0,0,0-1.5Z"/></svg>