<svg fill="currentColor" id="icons" xmlns="http://www.w3.org/2000/svg" viewBox="0 0 24 24"><title>01-10-mastercard-m</title><rect id="canvas" width="24" height="24" style="fill:none"/><path d="M18.25,4.67236H5.75A2.75311,2.75311,0,0,0,3,7.42236v9.15528a2.75311,2.75311,0,0,0,2.75,2.75h12.5a2.75311,2.75311,0,0,0,2.75-2.75V7.42236A2.75311,2.75311,0,0,0,18.25,4.67236ZM19.5,16.57764a1.25116,1.25116,0,0,1-1.25,1.25H5.75a1.25116,1.25116,0,0,1-1.25-1.25V7.42236a1.25116,1.25116,0,0,1,1.25-1.25h12.5a1.25116,1.25116,0,0,1,1.25,1.25Z"/><path d="M13.7251,8.25A3.702,3.702,0,0,0,12,8.69012,3.702,3.702,0,0,0,10.2749,8.25a3.75,3.75,0,0,0,0,7.5A3.702,3.702,0,0,0,12,15.30988a3.702,3.702,0,0,0,1.7251.44012,3.75,3.75,0,1,0,0-7.5ZM12,13.42694a2.202,2.202,0,0,1,0-2.85388,2.202,2.202,0,0,1,0,2.85388ZM8.0249,12a2.24218,2.24218,0,0,1,2.683-2.20624,3.68736,3.68736,0,0,0,0,4.41248A2.24218,2.24218,0,0,1,8.0249,12Zm5.7002,2.25a2.24612,2.24612,0,0,1-.433-.04376,3.68736,3.68736,0,0,0,0-4.41248,2.24924,2.24924,0,1,1,.433,4.45624Z"/></svg>