<svg fill="currentColor" id="icons" xmlns="http://www.w3.org/2000/svg" viewBox="0 0 24 24"><title>01-02-megaphone-m</title><rect id="canvas" width="24" height="24" style="fill:none"/><path d="M18.499,4.52148,6.19238,7.29785a3.765,3.765,0,0,0,0,7.35449l1.16931.2638A3.56644,3.56644,0,0,0,7.2002,15.9248a3.59336,3.59336,0,0,0,7.14288.56635l4.15594.93756a1.85559,1.85559,0,0,0,1.57227-.36084,1.83525,1.83525,0,0,0,.69336-1.439V6.3208A1.85256,1.85256,0,0,0,18.499,4.52148ZM10.7998,18.0249a2.10179,2.10179,0,0,1-2.0996-2.1001,2.07307,2.07307,0,0,1,.12591-.67828l4.05048.91376A2.09586,2.09586,0,0,1,10.7998,18.0249Zm8.46485-2.396a.3367.3367,0,0,1-.12988.26709.3539.3539,0,0,1-.30567.06982L6.52246,13.18945a2.26543,2.26543,0,0,1,0-4.42871L18.8291,5.98438a.39619.39619,0,0,1,.083-.00928.35707.35707,0,0,1,.22266.0791.33555.33555,0,0,1,.12988.2666Z"/></svg>