<svg width="24" height="24" viewBox="0 0 24 24" fill="none" xmlns="http://www.w3.org/2000/svg">
<path d="M3.30106 20.6986C0.232655 17.6302 0.232655 12.6554 3.30106 9.58695C6.36946 6.51854 11.3443 6.51854 14.4127 9.58695C17.4811 12.6554 17.4811 17.6302 14.4127 20.6986C11.3443 23.767 6.36946 23.767 3.30106 20.6986Z" fill="#DBE0E3"/>
<path d="M9.58683 14.413C6.51842 11.3446 6.51842 6.36971 9.58683 3.3013C12.6552 0.232899 17.6301 0.232898 20.6985 3.3013C23.7669 6.36971 23.7669 11.3446 20.6985 14.413C17.6301 17.4814 12.6552 17.4814 9.58683 14.413Z" fill="#B5BDC3"/>
<path d="M7.41801 7.41878C9.87674 6.96307 12.5113 7.6859 14.4131 9.58772C16.3144 11.4893 17.0355 14.1226 16.5801 16.5809C14.1217 17.0362 11.4885 16.3145 9.58696 14.4129C7.68522 12.5111 6.96236 9.87743 7.41801 7.41878Z" fill="#6A7580"/>
</svg>
