<svg width="24" height="24" viewBox="0 0 24 24" fill="none" xmlns="http://www.w3.org/2000/svg">
<path d="M3.30106 20.6986C0.232655 17.6302 0.232655 12.6554 3.30106 9.58695C6.36946 6.51854 11.3443 6.51854 14.4127 9.58695C17.4811 12.6554 17.4811 17.6302 14.4127 20.6986C11.3443 23.767 6.36946 23.767 3.30106 20.6986Z" fill="#FF6C4D"/>
<path d="M9.58677 14.413C6.51836 11.3446 6.51836 6.36971 9.58677 3.3013C12.6552 0.232899 17.63 0.232898 20.6984 3.3013C23.7668 6.36971 23.7668 11.3446 20.6984 14.413C17.63 17.4814 12.6552 17.4814 9.58677 14.413Z" fill="#FFA999"/>
<path d="M7.41848 7.4188C9.87703 6.96322 12.5109 7.68517 14.4126 9.58677C16.3141 11.4882 17.0348 14.1216 16.5796 16.5799C14.1213 17.0351 11.4879 16.3144 9.58645 14.4129C7.68487 12.5112 6.96294 9.87733 7.41848 7.4188Z" fill="#C41B03"/>
</svg>
