<svg fill="currentColor" id="icons" xmlns="http://www.w3.org/2000/svg" viewBox="0 0 24 24"><title>10-06-menu-m</title><rect id="canvas" width="24" height="24" style="fill:none"/><path d="M21.16016,8.52344a2.78694,2.78694,0,0,0-2.75-2.80664l-2.52637.00146h-.00488a1.21159,1.21159,0,0,1-.875-.376L13.24805,3.53076A1.722,1.722,0,0,0,12.00293,3h-.001a1.72506,1.72506,0,0,0-1.24609.53027L8.99707,5.34521a1.211,1.211,0,0,1-.876.37647H5.752a2.78491,2.78491,0,0,0-2.75,2.813v9.65185A2.78533,2.78533,0,0,0,5.752,21H18.43164a2.70273,2.70273,0,0,0,1.92481-.80371,2.82274,2.82274,0,0,0,.82519-2.01563ZM19.29492,19.13672a1.21425,1.21425,0,0,1-.86328.36328H5.752a1.28432,1.28432,0,0,1-1.25-1.31348V8.53467a1.28388,1.28388,0,0,1,1.25-1.313H8.12109a2.73875,2.73875,0,0,0,1.95411-.83252L11.833,4.57422A.23288.23288,0,0,1,12.002,4.5a.3132.3132,0,0,1,.16895.07422l1.75683,1.812a2.553,2.553,0,0,0,1.96289.832l2.51954-.00146a1.28509,1.28509,0,0,1,1.25,1.31006l.02148,9.65722A1.33375,1.33375,0,0,1,19.29492,19.13672Z"/><path d="M16.25,14.59863H7.75a.75.75,0,0,0,0,1.5h8.5a.75.75,0,0,0,0-1.5Z"/><path d="M16.25,11.09863H7.75a.75.75,0,0,0,0,1.5h8.5a.75.75,0,0,0,0-1.5Z"/></svg>