<svg fill="currentColor" id="icons" xmlns="http://www.w3.org/2000/svg" viewBox="0 0 24 24"><title>03-11-merge-m</title><rect id="canvas" width="24" height="24" style="fill:none"/><path d="M20.86578,12.42792a.73024.73024,0,0,0,.078-.12525.75078.75078,0,0,0,.05481-.27118L21,12.02441l-.00134-.00677a.749.749,0,0,0-.05548-.27435,204.70832,204.70832,0,0,0-.14045-.22767L18.73047,9.25391A.74993.74993,0,1,0,17.625,10.26758l.92242,1.00683H13.57373l-2.28662-3.1792A4.0412,4.0412,0,0,0,8.01953,6.40186H3.75a.75.75,0,1,0,0,1.5H8.01953A2.53621,2.53621,0,0,1,10.06836,8.9707L12.26367,12.023,10.07227,15.041a2.54219,2.54219,0,0,1-2.042,1.05761H3.75a.75.75,0,0,0,0,1.5H8.03027a4.04466,4.04466,0,0,0,3.25489-1.67675L13.572,12.77441h4.9596L17.627,13.751a.75048.75048,0,0,0,1.10157,1.01953l2.051-2.21533.00159-.00165.01971-.0213A.71267.71267,0,0,0,20.86578,12.42792Z"/></svg>