<svg fill="currentColor" viewBox="0 0 57 48" version="1.1" xmlns="http://www.w3.org/2000/svg" xmlns:xlink="http://www.w3.org/1999/xlink">
    <g id="Page-1" stroke="none" stroke-width="1" fill="none" fill-rule="evenodd">
        <g id="Group-24" transform="translate(0.000000, -1.000000)">
            <path d="M18.325,16.078 L53.05,16.078 C55.075,16.078 56.731,17.735 56.731,19.76 L56.731,40.933 C56.731,42.958 55.075,44.615 53.05,44.615 L44.594,44.615 L41.512,48.462 C41.112,48.962 40.351,48.962 39.951,48.462 L36.87,44.615 L18.325,44.615 C16.3,44.615 14.643,42.958 14.643,40.933 L14.643,19.76 C14.643,17.735 16.3,16.078 18.325,16.078" id="Fill-1" fill="#DAEFFF"></path>
            <path d="M7.2449,8.2449 C11.5709,3.9179 18.5859,3.9179 22.9119,8.2449 C27.2379,12.5709 27.2379,19.5849 22.9119,23.9119 C18.5859,28.2379 11.5709,28.2379 7.2449,23.9119 C2.9189,19.5849 2.9189,12.5709 7.2449,8.2449" id="Fill-3" fill="#DAEFFF"></path>
            <polyline id="Fill-5" fill="#DAEFFF" points="12.1462 16.8416 14.0252 18.7476 18.7592 14.0066"></polyline>
            <line x1="43.2" y1="28.1922" x2="29.562" y2="28.1392" id="Fill-7" fill="#DAEFFF"></line>
            <line x1="29.5623" y1="32.0106" x2="37.5603" y2="32.0636" id="Fill-9" fill="#DAEFFF"></line>
            <path d="M14.325,12.078 L49.05,12.078 C51.075,12.078 52.731,13.735 52.731,15.76 L52.731,36.933 C52.731,38.958 51.075,40.615 49.05,40.615 L40.594,40.615 L36.731,45.437 L32.87,40.615 L14.325,40.615 C12.3,40.615 10.643,38.958 10.643,36.933 L10.643,15.76 C10.643,13.735 12.3,12.078 14.325,12.078 Z" id="Stroke-11" stroke="#0D6AFF" stroke-width="2" stroke-linecap="round" stroke-linejoin="round"></path>
            <path d="M11.0789,22.1566 C8.3869,22.1566 5.8549,21.1086 3.9519,19.2046 C2.0489,17.3016 1.0009,14.7706 1.0009,12.0786 C1.0009,9.3856 2.0489,6.8556 3.9519,4.9516 C5.8549,3.0486 8.3869,1.9996 11.0789,1.9996 C13.7699,1.9996 16.3019,3.0486 18.2049,4.9516 C22.1349,8.8816 22.1349,15.2756 18.2049,19.2046 C16.3019,21.1086 13.7699,22.1566 11.0789,22.1566" id="Fill-13" fill="#FFFFFF"></path>
            <g id="Group-17" transform="translate(0.000000, 0.837000)">
                <mask id="mask-2" fill="white">
                    <use xlink:href="#path-1"></use>
                </mask>
                <g id="Clip-16"></g>
                <path d="M11.0779,0.1628 C8.2429,0.1628 5.4079,1.2448 3.2449,3.4078 C-1.0811,7.7338 -1.0811,14.7478 3.2449,19.0748 C5.4079,21.2378 8.2429,22.3198 11.0779,22.3198 C13.9129,22.3198 16.7489,21.2378 18.9119,19.0748 C23.2379,14.7478 23.2379,7.7338 18.9119,3.4078 C16.7489,1.2448 13.9129,0.1628 11.0779,0.1628 M11.0779,2.1628 C13.5029,2.1628 15.7829,3.1068 17.4969,4.8218 C21.0369,8.3618 21.0369,14.1208 17.4969,17.6608 C15.7829,19.3748 13.5029,20.3198 11.0779,20.3198 C8.6529,20.3198 6.3739,19.3748 4.6589,17.6608 C1.1199,14.1208 1.1199,8.3618 4.6589,4.8218 C6.3739,3.1068 8.6529,2.1628 11.0779,2.1628" id="Fill-15" fill="#036AFF" mask="url(#mask-2)"></path>
            </g>
            <line x1="39.2" y1="24.1922" x2="25.562" y2="24.1392" id="Stroke-18" stroke="#0D6AFF" stroke-width="2" stroke-linecap="round" stroke-linejoin="round"></line>
            <line x1="25.5623" y1="28.0106" x2="33.5603" y2="28.0636" id="Stroke-20" stroke="#0D6AFF" stroke-width="2" stroke-linecap="round" stroke-linejoin="round"></line>
            <polygon id="Fill-22" fill="#036AFF" points="10.4675 9.5633 8.7285 10.7023 8.7285 9.0473 10.7065 7.6443 12.4095 7.6443 12.4095 16.2193 10.4675 16.2193"></polygon>
        </g>
    </g>
</svg>
