<svg fill="currentColor" id="icons" xmlns="http://www.w3.org/2000/svg" viewBox="0 0 24 24"><title>04-05-metric-bracket-m</title><rect id="canvas" width="24" height="24" style="fill:none"/><path d="M8.75488,5.42188a.74988.74988,0,0,0-.666-1.34376,8.8055,8.8055,0,0,0,0,15.84376.74988.74988,0,0,0,.666-1.34376,7.306,7.306,0,0,1,0-13.15624Z"/><path d="M15.833,4.07812a.74988.74988,0,0,0-.666,1.34376,7.30679,7.30679,0,0,1,0,13.15624.74988.74988,0,1,0,.666,1.34376,8.80626,8.80626,0,0,0,0-15.84376Z"/></svg>