<svg fill="currentColor" id="icons" xmlns="http://www.w3.org/2000/svg" viewBox="0 0 24 24"><title>04-05-metric-bracket-s</title><rect id="canvas" width="24" height="24" style="fill:none"/><path d="M10.041,7.83936a.74989.74989,0,1,0-.67969-1.33692,6.17638,6.17638,0,0,0,0,10.99512.74293.74293,0,0,0,.33887.08154.74983.74983,0,0,0,.34082-1.41846,4.6768,4.6768,0,0,1,0-8.32128Z"/><path d="M14.63867,6.50244A.74989.74989,0,1,0,13.959,7.83936a4.6768,4.6768,0,0,1,0,8.32128.74989.74989,0,1,0,.67969,1.33692,6.17638,6.17638,0,0,0,0-10.99512Z"/></svg>