<svg fill="currentColor" id="icons" xmlns="http://www.w3.org/2000/svg" viewBox="0 0 24 24"><title>01-15-mic-m</title><rect id="canvas" width="24" height="24" style="fill:none"/><path d="M11.91113,14.33838h.17774a3.22418,3.22418,0,0,0,3.2207-3.22119v-4.896A3.22417,3.22417,0,0,0,12.08887,3h-.17774A3.225,3.225,0,0,0,8.68945,6.22119v4.896A3.225,3.225,0,0,0,11.91113,14.33838ZM10.18945,6.22119A1.72336,1.72336,0,0,1,11.91113,4.5h.17774a1.72252,1.72252,0,0,1,1.7207,1.72119v4.896a1.72252,1.72252,0,0,1-1.7207,1.72119h-.17774a1.72336,1.72336,0,0,1-1.72168-1.72119Z"/><path d="M17.54785,12.53076a.7515.7515,0,0,0-.97363.41895,4.87977,4.87977,0,0,1-9.14844,0,.74967.74967,0,1,0-1.39258.55566,6.44752,6.44752,0,0,0,5.2168,4.0669v1.92724H9.7041a.75.75,0,0,0,0,1.5h2.29346L12,21l.00244-.00049H14.2959a.75.75,0,1,0,0-1.5H12.75V17.57227a6.44752,6.44752,0,0,0,5.2168-4.0669A.75025.75025,0,0,0,17.54785,12.53076Z"/></svg>