<svg fill="currentColor" id="icons" xmlns="http://www.w3.org/2000/svg" viewBox="0 0 24 24"><title>01-02-mobile-s</title><rect id="canvas" width="24" height="24" style="fill:none"/><path d="M13.75,6h-3.5A2.7528,2.7528,0,0,0,7.5,8.75v6.5A2.7528,2.7528,0,0,0,10.25,18h3.5a2.7528,2.7528,0,0,0,2.75-2.75V8.75A2.7528,2.7528,0,0,0,13.75,6ZM15,15.25a1.25116,1.25116,0,0,1-1.25,1.25h-3.5A1.25116,1.25116,0,0,1,9,15.25V8.75A1.25116,1.25116,0,0,1,10.25,7.5h3.5A1.25116,1.25116,0,0,1,15,8.75Z"/><path d="M12.60449,8.7002h-1.209a.75.75,0,0,0,0,1.5h1.209a.75.75,0,0,0,0-1.5Z"/><circle cx="12" cy="14.25" r="0.75"/></svg>