<svg fill="currentColor" id="icons" xmlns="http://www.w3.org/2000/svg" viewBox="0 0 24 24"><title>03-08-mobile-app-start1</title><rect id="canvas" width="24" height="24" style="fill:none"/><path d="M19.90137,14.38086a.74992.74992,0,0,0-1.06055,1.06055,2.24918,2.24918,0,0,1,0,3.18164,2.30438,2.30438,0,0,1-3.18164,0,2.24918,2.24918,0,0,1,0-3.18164.74992.74992,0,0,0-1.06055-1.06055,3.75,3.75,0,1,0,5.30274,0Z"/><path d="M17.26562,13.45117a.7502.7502,0,0,0-.75.75v2.499a.75.75,0,0,0,1.5,0v-2.499A.75019.75019,0,0,0,17.26562,13.45117Z"/><path d="M11.75,18.5h-3A1.25116,1.25116,0,0,1,7.5,17.25V6.75A1.25116,1.25116,0,0,1,8.75,5.5h6.5A1.25116,1.25116,0,0,1,16.5,6.75v5a.75.75,0,0,0,1.5,0v-5A2.7528,2.7528,0,0,0,15.25,4H8.75A2.7528,2.7528,0,0,0,6,6.75v10.5A2.7528,2.7528,0,0,0,8.75,20h3a.75.75,0,0,0,0-1.5Z"/></svg>