<svg fill="currentColor" id="icons" xmlns="http://www.w3.org/2000/svg" viewBox="0 0 24 24"><title>03-07-mobile-slider-m</title><rect id="canvas" width="24" height="24" style="fill:none"/><path d="M13.53613,4.999H10.46387a2.75311,2.75311,0,0,0-2.75,2.75v8.502a2.7528,2.7528,0,0,0,2.75,2.75h3.07226a2.7528,2.7528,0,0,0,2.75-2.75V7.749A2.75311,2.75311,0,0,0,13.53613,4.999Zm1.25,11.252a1.25116,1.25116,0,0,1-1.25,1.25H10.46387a1.25116,1.25116,0,0,1-1.25-1.25V7.749a1.25116,1.25116,0,0,1,1.25-1.25h3.07226a1.25116,1.25116,0,0,1,1.25,1.25Z"/><path d="M3.75,8.61182a.75019.75019,0,0,0-.75.75v6.022a.75.75,0,1,0,1.5,0v-6.022A.75019.75019,0,0,0,3.75,8.61182Z"/><path d="M20.25,8.61182a.75019.75019,0,0,0-.75.75v6.022a.75.75,0,0,0,1.5,0v-6.022A.75019.75019,0,0,0,20.25,8.61182Z"/></svg>