<svg fill="currentColor" id="icons" xmlns="http://www.w3.org/2000/svg" viewBox="0 0 24 24"><title>04-03-money-m</title><rect id="canvas" width="24" height="24" style="fill:none"/><path d="M18.25,5.17236H5.75A2.75311,2.75311,0,0,0,3,7.92236v8.15528a2.75311,2.75311,0,0,0,2.75,2.75h12.5a2.75311,2.75311,0,0,0,2.75-2.75V7.92236A2.75311,2.75311,0,0,0,18.25,5.17236ZM19.5,16.07764a1.25116,1.25116,0,0,1-1.25,1.25H5.75a1.25116,1.25116,0,0,1-1.25-1.25V7.92236a1.25116,1.25116,0,0,1,1.25-1.25h12.5a1.25116,1.25116,0,0,1,1.25,1.25Z"/><path d="M12,9.22412A2.7761,2.7761,0,1,0,14.74121,12,2.76161,2.76161,0,0,0,12,9.22412Zm0,4.05176A1.27636,1.27636,0,1,1,13.24121,12,1.26017,1.26017,0,0,1,12,13.27588Z"/><path d="M16.95,10.84235h-.003a1.13961,1.13961,0,1,0,.003,0Z"/><path d="M7.05,10.84235H7.047a1.13958,1.13958,0,1,0,.003,0Z"/></svg>