<svg fill="currentColor" id="icons" xmlns="http://www.w3.org/2000/svg" viewBox="0 0 24 24"><title>04-06-money-sort-m</title><rect id="canvas" width="24" height="24" style="fill:none"/><path d="M19.1582,8.294l-.65722.081A52.24373,52.24373,0,0,1,4.85449,8.252.74856.74856,0,0,0,4,8.99414V19.0459a.74919.74919,0,0,0,.64551.74219,53.57622,53.57622,0,0,0,7.5.52734,53.44558,53.44558,0,0,0,6.53808-.40039l.65723-.08008A.75006.75006,0,0,0,20,19.09082V9.03809a.74981.74981,0,0,0-.8418-.74414ZM18.5,18.42676a52.21815,52.21815,0,0,1-13-.03614v-8.54a53.561,53.561,0,0,0,13,.03515Z"/><path d="M12.14551,5.70312a53.65614,53.65614,0,0,0,6.53906-.39941l.65723-.081a.74978.74978,0,1,0-.1836-1.48828l-.65722.08105A52.24449,52.24449,0,0,1,4.85449,3.69238a.74951.74951,0,1,0-.209,1.48438A53.57516,53.57516,0,0,0,12.14551,5.70312Z"/><path d="M9.623,14.31152A2.377,2.377,0,1,0,12,11.95312,2.37108,2.37108,0,0,0,9.623,14.31152ZM12,13.45312a.85908.85908,0,1,1-.877.8584A.86871.86871,0,0,1,12,13.45312Z"/><path d="M8.09473,11.95312a.75019.75019,0,0,0-.75.75V15.9209a.75.75,0,0,0,1.5,0V12.70312A.7502.7502,0,0,0,8.09473,11.95312Z"/><path d="M15.90527,16.6709a.75019.75019,0,0,0,.75-.75V12.70312a.75.75,0,1,0-1.5,0V15.9209A.7502.7502,0,0,0,15.90527,16.6709Z"/></svg>