<svg fill="currentColor" id="icons" xmlns="http://www.w3.org/2000/svg" viewBox="0 0 24 24"><title>04-04-money-2-m</title><rect id="canvas" width="24" height="24" style="fill:none"/><path d="M18.25,5.17236H5.75A2.75311,2.75311,0,0,0,3,7.92236V9.06445c-.00085.02051-.00085.03968,0,.06018v6.953a2.75311,2.75311,0,0,0,2.75,2.75h12.5a2.75311,2.75311,0,0,0,2.75-2.75V7.92236A2.75311,2.75311,0,0,0,18.25,5.17236ZM19.5,13.6236a3.02135,3.02135,0,0,0-.85547-.1446,2.897,2.897,0,0,0-2.12988.86866,2.9529,2.9529,0,0,0-.86914,2.13086,3.02013,3.02013,0,0,0,.14276.84912H8.20587a3.02013,3.02013,0,0,0,.14276-.84912A2.956,2.956,0,0,0,4.5,13.62354V10.38019a3.02155,3.02155,0,0,0,.84277.14081h.02637A2.96693,2.96693,0,0,0,8.34277,7.52148,3.02013,3.02013,0,0,0,8.2,6.67236h7.59412a3.02013,3.02013,0,0,0-.14276.84912,2.96445,2.96445,0,0,0,2.97363,2.998,3.04289,3.04289,0,0,0,.875-.14343Zm0-5.70124v.78919a1.488,1.488,0,0,1-1.91895-.11975,1.46751,1.46751,0,0,1-.42968-1.05762,1.535,1.535,0,0,1,.27569-.86182H18.25A1.25116,1.25116,0,0,1,19.5,7.92236Zm-13.75-1.25h.81714a1.53493,1.53493,0,0,1,.27563.86182A1.46751,1.46751,0,0,1,6.41309,8.5918a1.49971,1.49971,0,0,1-1.05762.4292A1.53064,1.53064,0,0,1,4.5,8.75067V7.92236A1.25116,1.25116,0,0,1,5.75,6.67236ZM4.5,16.07764v-.78931A1.48761,1.48761,0,0,1,6.419,15.4082a1.46751,1.46751,0,0,1,.42968,1.05762,1.53493,1.53493,0,0,1-.27563.86182H5.75A1.25116,1.25116,0,0,1,4.5,16.07764Zm13.75,1.25h-.8288a1.535,1.535,0,0,1-.27569-.86182A1.46648,1.46648,0,0,1,18.61816,14.979h.01368a1.53283,1.53283,0,0,1,.86816.28009v.81855A1.25116,1.25116,0,0,1,18.25,17.32764Z"/><path d="M12,9.22412A2.7761,2.7761,0,1,0,14.74121,12,2.76161,2.76161,0,0,0,12,9.22412Zm0,4.05176A1.27636,1.27636,0,1,1,13.24121,12,1.26017,1.26017,0,0,1,12,13.27588Z"/></svg>