<svg fill="currentColor" id="icons" xmlns="http://www.w3.org/2000/svg" viewBox="0 0 24 24"><title>04-05-money-3-m</title><rect id="canvas" width="24" height="24" style="fill:none"/><path d="M5.73828,18.44238l1.76416.01367c.042,0,.084.001.126.001a15.1978,15.1978,0,0,0,4.66015-.73437,13.7877,13.7877,0,0,1,4.22559-.66211h1.7334a1.75213,1.75213,0,0,0,1.75-1.75V7.293a1.75212,1.75212,0,0,0-1.75-1.75H16.49219a15.15634,15.15634,0,0,0-4.64112.72754,14.39775,14.39775,0,0,1-4.38281.668L5.76562,6.9248A1.678,1.678,0,0,0,4.519,7.43359a1.73623,1.73623,0,0,0-.5166,1.24121v8.01758a1.756,1.756,0,0,0,1.73486,1.75Zm-.23584-1.75V8.6748a.25092.25092,0,0,1,.25-.25h.00195l1.70215.01368a16.03149,16.03149,0,0,0,4.853-.74024A13.66831,13.66831,0,0,1,16.49219,7.043h1.75537a.25048.25048,0,0,1,.25.25v8.01758a.25049.25049,0,0,1-.25.25h-1.7334a15.338,15.338,0,0,0-4.70752.74121,14.22252,14.22252,0,0,1-4.292.65429L5.751,16.94238A.25081.25081,0,0,1,5.50244,16.69238Z"/><path d="M12.0498,15.01465A3.01476,3.01476,0,1,0,9.00928,12,3.0315,3.0315,0,0,0,12.0498,15.01465Zm0-4.5293A1.51487,1.51487,0,1,1,10.50928,12,1.53,1.53,0,0,1,12.0498,10.48535Z"/></svg>