<svg fill="currentColor" xmlns="http://www.w3.org/2000/svg" viewBox="0 0 24 24"><title>01-20-move-m</title><g id="transparent_canvas"><rect id="canvas" width="24" height="24" style="fill:none"/></g><g id="icons"><path d="M18.25,10.07129a.7502.7502,0,0,0,.75-.75V5.75A.7502.7502,0,0,0,18.25,5H14.67871a.75.75,0,0,0,0,1.5h1.76074L12,10.93945,7.56055,6.5H9.32129a.75.75,0,0,0,0-1.5H5.75A.7502.7502,0,0,0,5,5.75V9.32129a.75.75,0,0,0,1.5,0V7.56055L10.93945,12,6.5,16.43945V14.67871a.75.75,0,0,0-1.5,0V18.25a.7502.7502,0,0,0,.75.75H9.32129a.75.75,0,0,0,0-1.5H7.56055L12,13.06055,16.43945,17.5H14.67871a.75.75,0,0,0,0,1.5H18.25a.7502.7502,0,0,0,.75-.75V14.67871a.75.75,0,0,0-1.5,0v1.76074L13.06055,12,17.5,7.56055V9.32129A.7502.7502,0,0,0,18.25,10.07129Z"/></g></svg>