<svg fill="currentColor" id="icons" xmlns="http://www.w3.org/2000/svg" viewBox="0 0 24 24"><title>03-04-movie-clip-m</title><rect id="canvas" width="24" height="24" style="fill:none"/><path d="M17.31055,4.01855H6.68945a2.674,2.674,0,0,0-2.6709,2.6709v10.6211a2.674,2.674,0,0,0,2.6709,2.6709h10.6211a2.674,2.674,0,0,0,2.6709-2.6709V6.68945A2.674,2.674,0,0,0,17.31055,4.01855Zm-.521,4.79151h1.59229V11.2002H16.78955ZM15.18994,11.2002H8.81006v-5.582h6.37988Zm-7.97949,0H5.61816V8.81006H7.21045ZM5.61816,12.7998H7.21045v2.39014H5.61816Zm3.1919,0h6.37988v5.582H8.81006Zm7.97949,0h1.59229v2.39014H16.78955Zm1.59229-6.11035v.521H16.78955V5.61816h.521A1.07236,1.07236,0,0,1,18.38184,6.68945ZM6.68945,5.61816h.521V7.21045H5.61816v-.521A1.07236,1.07236,0,0,1,6.68945,5.61816ZM5.61816,17.31055v-.521H7.21045v1.59229h-.521A1.07236,1.07236,0,0,1,5.61816,17.31055Zm11.69239,1.07129h-.521V16.78955h1.59229v.521A1.07236,1.07236,0,0,1,17.31055,18.38184Z"/></svg>