
<svg fill="currentColor" viewBox="0 0 48 50" version="1.1" xmlns="http://www.w3.org/2000/svg" xmlns:xlink="http://www.w3.org/1999/xlink">
    <g id="Page-1" stroke="none" stroke-width="1" fill="none" fill-rule="evenodd">
        <g id="Group-18" transform="translate(1.000000, 1.000000)">
            <path d="M44.3261,19.6681 L33.2331,19.6681 C32.1291,19.6681 31.2331,18.7731 31.2331,17.6681 L31.2331,6.5761 C31.2331,5.4721 32.1291,4.5761 33.2331,4.5761 L44.3261,4.5761 C45.4301,4.5761 46.3261,5.4721 46.3261,6.5761 L46.3261,17.6681 C46.3261,18.7731 45.4301,19.6681 44.3261,19.6681" id="Fill-1" fill="#DAEFFF"></path>
            <path d="M20.3261,39.2501 C20.3261,43.4171 16.9471,46.7961 12.7801,46.7961 C8.6121,46.7961 5.2331,43.4171 5.2331,39.2501 C5.2331,35.0831 8.6121,31.7041 12.7801,31.7041 C16.9471,31.7041 20.3261,35.0831 20.3261,39.2501" id="Fill-3" fill="#DAEFFF"></path>
            <path d="M18.4081,20.09 L6.5791,20.09 C5.0401,20.09 4.0771,18.423 4.8461,17.09 L10.7621,6.846 C11.5311,5.513 13.4561,5.513 14.2251,6.846 L20.1391,17.09 C20.9101,18.423 19.9471,20.09 18.4081,20.09" id="Fill-5" fill="#DAEFFF"></path>
            <g id="Group-9" transform="translate(31.000000, 31.362100)">
                <mask id="mask-2" fill="white">
                    <use xlink:href="#path-1"></use>
                </mask>
                <g id="Clip-8"></g>
                <path d="M15.6474,11.7528 L15.6474,5.2588 C15.6474,4.5438 15.2654,3.8838 14.6474,3.5258 L9.0224,0.2788 C8.4044,-0.0782 7.6414,-0.0782 7.0224,0.2788 L1.3984,3.5258 C0.7804,3.8838 0.3984,4.5438 0.3984,5.2588 L0.3984,11.7528 C0.3984,12.4678 0.7804,13.1278 1.3984,13.4848 L7.0224,16.7318 C7.6414,17.0888 8.4044,17.0888 9.0224,16.7318 L14.6474,13.4848 C15.2654,13.1278 15.6474,12.4678 15.6474,11.7528" id="Fill-7" fill="#DAEFFF" mask="url(#mask-2)"></path>
            </g>
            <path d="M39.7499,15.0924 L28.6579,15.0924 C27.5529,15.0924 26.6579,14.1964 26.6579,13.0924 L26.6579,2.0004 C26.6579,0.8954 27.5529,0.0004 28.6579,0.0004 L39.7499,0.0004 C40.8539,0.0004 41.7499,0.8954 41.7499,2.0004 L41.7499,13.0924 C41.7499,14.1964 40.8539,15.0924 39.7499,15.0924 Z" id="Stroke-10" stroke="#036AFF" stroke-width="2" stroke-linecap="round" stroke-linejoin="round"></path>
            <path d="M15.7499,34.6739 C15.7499,38.8409 12.3709,42.2199 8.2039,42.2199 C4.0359,42.2199 0.6579,38.8409 0.6579,34.6739 C0.6579,30.5069 4.0359,27.1279 8.2039,27.1279 C12.3709,27.1279 15.7499,30.5069 15.7499,34.6739 Z" id="Stroke-12" stroke="#0D6AFF" stroke-width="2" stroke-linecap="round" stroke-linejoin="round"></path>
            <path d="M13.832,15.5138 L2.003,15.5138 C0.464,15.5138 -0.499,13.8468 0.27,12.5138 L6.186,2.2698 C6.955,0.9368 8.88,0.9368 9.649,2.2698 L15.563,12.5138 C16.334,13.8468 15.371,15.5138 13.832,15.5138 Z" id="Stroke-14" stroke="#036AFF" stroke-width="2" stroke-linecap="round" stroke-linejoin="round"></path>
            <path d="M42.0712,38.5387 L42.0712,32.0447 C42.0712,31.3297 41.6892,30.6697 41.0712,30.3127 L35.4462,27.0647 C34.8282,26.7077 34.0652,26.7077 33.4462,27.0647 L27.8222,30.3127 C27.2042,30.6697 26.8222,31.3297 26.8222,32.0447 L26.8222,38.5387 C26.8222,39.2537 27.2042,39.9137 27.8222,40.2707 L33.4462,43.5177 C34.0652,43.8747 34.8282,43.8747 35.4462,43.5177 L41.0712,40.2707 C41.6892,39.9137 42.0712,39.2537 42.0712,38.5387 Z" id="Stroke-16" stroke="#0D6AFF" stroke-width="2" stroke-linecap="round" stroke-linejoin="round"></path>
        </g>
    </g>
</svg>
