<svg fill="currentColor" id="icons" xmlns="http://www.w3.org/2000/svg" viewBox="0 0 24 24"><title>03-03-network-globe-m</title><rect id="canvas" width="24" height="24" style="fill:none"/><path d="M19.25,17.5752H14.59216a2.668,2.668,0,0,0-1.83825-1.8155v-.816A5.94511,5.94511,0,0,0,17.81836,9,5.918,5.918,0,0,0,12,3,5.918,5.918,0,0,0,6.18164,9a5.94485,5.94485,0,0,0,5.07227,5.945v.83569A2.668,2.668,0,0,0,9.48254,17.5752H4.75a.75.75,0,0,0,0,1.5H9.48254a2.65791,2.65791,0,0,0,5.10962,0H19.25a.75.75,0,0,0,0-1.5ZM12,10.22461c.36688,0,.733-.01709,1.09766-.0401A7.53943,7.53943,0,0,1,12,12.94891a7.53943,7.53943,0,0,1-1.09766-2.7644C11.267,10.20752,11.63312,10.22461,12,10.22461ZM10.82812,8.68567A7.4004,7.4004,0,0,1,12,5.03937a7.4004,7.4004,0,0,1,1.17188,3.6463A15.77971,15.77971,0,0,1,10.82812,8.68567Zm2.81428,4.47211a8.86715,8.86715,0,0,0,.99627-3.1402,14.52235,14.52235,0,0,0,1.61548-.35614A4.47135,4.47135,0,0,1,13.6424,13.15778Zm2.58966-5.04737a12.64727,12.64727,0,0,1-1.546.37421,8.81705,8.81705,0,0,0-1.03687-3.6402A4.47328,4.47328,0,0,1,16.23206,8.11041Zm-5.88123-3.266A8.81835,8.81835,0,0,0,9.3139,8.48462a12.64727,12.64727,0,0,1-1.546-.37421A4.47311,4.47311,0,0,1,10.35083,4.84442Zm-2.605,4.817a14.52342,14.52342,0,0,0,1.61554.35614,8.86689,8.86689,0,0,0,.99628,3.14026A4.47141,4.47141,0,0,1,7.74585,9.66144ZM12.0376,19.5a1.17505,1.17505,0,1,1,1.1748-1.1748A1.17635,1.17635,0,0,1,12.0376,19.5Z" /></svg>