<svg fill="currentColor" id="icons" xmlns="http://www.w3.org/2000/svg" viewBox="0 0 24 24"><title>03-04-network-computer-m</title><rect id="canvas" width="24" height="24" style="fill:none"/><path d="M8.06543,11.6001h7.86914a2.27523,2.27523,0,0,0,2.249-2.2959V5.24561a2.27511,2.27511,0,0,0-2.249-2.29541H8.06543a2.27511,2.27511,0,0,0-2.249,2.29541V9.3042A2.27523,2.27523,0,0,0,8.06543,11.6001Zm-.749-6.35449a.77416.77416,0,0,1,.749-.79541h7.86914a.77416.77416,0,0,1,.749.79541V9.3042a.77429.77429,0,0,1-.749.7959H8.06543a.77429.77429,0,0,1-.749-.7959Z" /><path d="M19.25,17.5752H14.59265a2.66882,2.66882,0,0,0-1.83874-1.81543V14.3501h1.8457a.75.75,0,0,0,0-1.5H9.40039a.75.75,0,0,0,0,1.5h1.85352v1.43048A2.668,2.668,0,0,0,9.48254,17.5752H4.75a.75.75,0,0,0,0,1.5H9.48254a2.65824,2.65824,0,0,0,5.11011,0H19.25a.75.75,0,0,0,0-1.5ZM12.03711,19.5a1.17505,1.17505,0,1,1,1.17578-1.1748A1.17625,1.17625,0,0,1,12.03711,19.5Z" /></svg>