<svg fill="currentColor" id="icons" xmlns="http://www.w3.org/2000/svg" viewBox="0 0 24 24"><title>03-07-network-database-m</title><rect id="canvas" width="24" height="24" style="fill:none"/><path d="M19.25,17.5752H14.5921a2.66808,2.66808,0,0,0-1.83819-1.815v-.7868c2.91858-.18659,5.03808-1.44519,5.03808-3.07691v-5.793C17.792,4.334,15.30176,3,12,3S6.208,4.334,6.208,6.10352v5.793c0,1.63318,2.12323,2.8927,5.0459,3.07752v.80713A2.66805,2.66805,0,0,0,9.4826,17.5752H4.75a.75.75,0,0,0,0,1.5H9.4826a2.65784,2.65784,0,0,0,5.1095,0H19.25a.75.75,0,0,0,0-1.5ZM7.708,8.26154A8.69848,8.69848,0,0,0,12,9.24316a8.69848,8.69848,0,0,0,4.292-.98162v.77362c0,.63867-1.71191,1.60351-4.292,1.60351S7.708,9.67383,7.708,9.03516Zm0-2.158C7.708,5.46484,9.41992,4.5,12,4.5s4.292.96484,4.292,1.60352v.03613c0,.63867-1.71191,1.60351-4.292,1.60351S7.708,6.77832,7.708,6.13965Zm0,5.793V11.157A8.69837,8.69837,0,0,0,12,12.13867a8.69837,8.69837,0,0,0,4.292-.98163v.73944C16.292,12.53516,14.58008,13.5,12,13.5S7.708,12.53516,7.708,11.89648ZM12.0376,19.5a1.17481,1.17481,0,1,1,1.1748-1.1748A1.17666,1.17666,0,0,1,12.0376,19.5Z" /></svg>