<svg fill="currentColor" id="icons" xmlns="http://www.w3.org/2000/svg" viewBox="0 0 24 24"><title>03-06-network-server-m</title><rect id="canvas" width="24" height="24" style="fill:none"/><ellipse cx="8.31067" cy="6.37921" rx="0.96838" ry="1" /><path d="M14.64844,5.62939H11.14062a.75.75,0,0,0,0,1.5h3.50782a.75.75,0,0,0,0-1.5Z" /><ellipse cx="8.31067" cy="11.6452" rx="0.96838" ry="1" /><path d="M14.64844,10.895H11.14062a.75.75,0,0,0,0,1.5h3.50782a.75.75,0,0,0,0-1.5Z" /><path d="M19.25,17.5752H14.59265a2.66882,2.66882,0,0,0-1.83874-1.81543V15h3.5664a3.37005,3.37005,0,0,0,2.067-6,3.37005,3.37005,0,0,0-2.067-6H7.85938A3.3704,3.3704,0,0,0,5.79272,9a3.3704,3.3704,0,0,0,2.06666,6h3.39453v.78058A2.668,2.668,0,0,0,9.48254,17.5752H4.75a.75.75,0,0,0,0,1.5H9.48254a2.65824,2.65824,0,0,0,5.11011,0H19.25a.75.75,0,0,0,0-1.5ZM6.03027,6.375A1.85456,1.85456,0,0,1,7.85938,4.5h8.46093a1.87555,1.87555,0,0,1,0,3.75H7.85938A1.85456,1.85456,0,0,1,6.03027,6.375Zm0,5.25A1.85456,1.85456,0,0,1,7.85938,9.75h8.46093a1.87555,1.87555,0,0,1,0,3.75H7.85938A1.85456,1.85456,0,0,1,6.03027,11.625ZM12.03711,19.5a1.17505,1.17505,0,1,1,1.17578-1.1748A1.17625,1.17625,0,0,1,12.03711,19.5Z" /></svg>