<svg fill="currentColor" id="icons" xmlns="http://www.w3.org/2000/svg" viewBox="0 0 24 24"><title>03-05-network-user-m</title><rect id="canvas" width="24" height="24" style="fill:none"/><path d="M12,8.80664A2.90332,2.90332,0,1,0,9.10156,5.90332,2.90378,2.90378,0,0,0,12,8.80664ZM12,4.5a1.40333,1.40333,0,1,1-1.39844,1.40332A1.40214,1.40214,0,0,1,12,4.5Z" /><path d="M19.25,17.5752H14.59265a2.66882,2.66882,0,0,0-1.83874-1.81543v-1.2251h3.53515a1.44048,1.44048,0,0,0,1.43848-1.439v-.52441a3.51009,3.51009,0,0,0-3.50586-3.50684H9.77832a3.51009,3.51009,0,0,0-3.50586,3.50684v.52441a1.44048,1.44048,0,0,0,1.43848,1.439h3.543v1.24591A2.668,2.668,0,0,0,9.48254,17.5752H4.75a.75.75,0,0,0,0,1.5H9.48254a2.65824,2.65824,0,0,0,5.11011,0H19.25a.75.75,0,0,0,0-1.5ZM7.77246,12.57129a2.00844,2.00844,0,0,1,2.00586-2.00684h4.44336a2.00844,2.00844,0,0,1,2.00586,2.00684v.46387l-8.45508.06054ZM12.03711,19.5a1.17505,1.17505,0,1,1,1.17578-1.1748A1.17625,1.17625,0,0,1,12.03711,19.5Z" /></svg>