<svg fill="currentColor" id="icons" xmlns="http://www.w3.org/2000/svg" viewBox="0 0 24 24"><title>03-02-network-folder-m</title><rect id="canvas" width="24" height="24" style="fill:none"/><path d="M19.25,17.5752H14.59216a2.668,2.668,0,0,0-1.83825-1.8155v-.72991h4.40527a2.41816,2.41816,0,0,0,2.40088-2.42969V7.646a2.41815,2.41815,0,0,0-2.40088-2.42969H13.40771a.88617.88617,0,0,1-.69873-.34277l-.73193-.9292a2.37982,2.37982,0,0,0-1.877-.91455H6.84082A2.41857,2.41857,0,0,0,4.43994,5.46V12.6001a2.41816,2.41816,0,0,0,2.40088,2.42969h4.41309v.75085A2.668,2.668,0,0,0,9.48254,17.5752H4.75a.75.75,0,0,0,0,1.5H9.48254a2.65791,2.65791,0,0,0,5.10962,0H19.25a.75.75,0,0,0,0-1.5ZM5.93994,12.6001V5.46a.91716.91716,0,0,1,.90088-.93017H10.1001a.88617.88617,0,0,1,.69873.34277l.73193.9292a2.37985,2.37985,0,0,0,1.87695.91455h3.75147a.91673.91673,0,0,1,.90088.92969v4.9541a.91673.91673,0,0,1-.90088.92969H6.84082A.91673.91673,0,0,1,5.93994,12.6001ZM12.0376,19.5a1.17505,1.17505,0,1,1,1.1748-1.1748A1.17635,1.17635,0,0,1,12.0376,19.5Z"/></svg>