<svg fill="currentColor" id="icons" xmlns="http://www.w3.org/2000/svg" viewBox="0 0 24 24"><title>03-01-network-file-m</title><rect id="canvas" width="24" height="24" style="fill:none"/><path d="M19.25,17.5752H14.59216a2.668,2.668,0,0,0-1.83825-1.8155v-.7099H14.519a1.98257,1.98257,0,0,0,1.93555-2.02246V7.60254a2.08234,2.08234,0,0,0-.5791-1.44336L13.41016,3.62939a1.88365,1.88365,0,0,0-1.35645-.57959H9.481a1.983,1.983,0,0,0-1.93555,2.023v7.95459A1.98257,1.98257,0,0,0,9.481,15.0498h1.77295v.73084A2.668,2.668,0,0,0,9.48254,17.5752H4.75a.75.75,0,0,0,0,1.5H9.48254a2.65791,2.65791,0,0,0,5.10962,0H19.25a.75.75,0,0,0,0-1.5ZM9.04541,13.02734V5.07275A.48566.48566,0,0,1,9.481,4.5498h2.57275a.39588.39588,0,0,1,.28223.12647l2.46484,2.5293a.57157.57157,0,0,1,.15381.397v5.4248a.48548.48548,0,0,1-.43555.52246H9.481A.48548.48548,0,0,1,9.04541,13.02734ZM12.0376,19.5a1.17505,1.17505,0,1,1,1.1748-1.1748A1.17635,1.17635,0,0,1,12.0376,19.5Z"/></svg>