<svg fill="currentColor" id="icons" xmlns="http://www.w3.org/2000/svg" viewBox="0 0 24 24"><title>03-08-network-broadcasting-m</title><rect id="canvas" width="24" height="24" style="fill:none"/><path d="M17.06248,11.0127a4,4,0,0,0,0-8h-10a4,4,0,0,0,0,8h4.19143v1.6875H6.7002a1.75211,1.75211,0,0,0-1.75,1.75v1.31256a2.677,2.677,0,1,0,1.5.0158V14.4502a.25046.25046,0,0,1,.25-.25h4.55371v1.58093a2.6727,2.6727,0,1,0,1.5-.02094v-1.56H17.2002a.25048.25048,0,0,1,.25.25v1.34368a2.67059,2.67059,0,1,0,1.5-.0465V14.4502a1.75212,1.75212,0,0,0-1.75-1.75H12.75391V11.0127ZM6.8501,18.3252a1.17505,1.17505,0,1,1-1.1753-1.17481A1.17666,1.17666,0,0,1,6.8501,18.3252Zm6.3623,0a1.17505,1.17505,0,1,1-1.1748-1.17481A1.17624,1.17624,0,0,1,13.2124,18.3252Zm6.2378,0a1.17505,1.17505,0,1,1-1.1753-1.17481A1.17666,1.17666,0,0,1,19.4502,18.3252ZM4.56248,7.0127a2.50264,2.50264,0,0,1,2.5-2.5h10a2.5,2.5,0,0,1,0,5h-10A2.50264,2.50264,0,0,1,4.56248,7.0127Z" /></svg>