<svg fill="currentColor" id="icons" xmlns="http://www.w3.org/2000/svg" viewBox="0 0 24 24"><title>01-13-new-user-m</title><rect id="canvas" width="24" height="24" style="fill:none"/><path d="M16.27588,3.51318c-2.37647-1.16455-5.82324-.29931-8.38477,2.10645A10.654,10.654,0,0,0,5.62939,8.67041c-1.40087,2.833-1.76074,5.603-1.01367,7.7998a6.48109,6.48109,0,0,0,3.3999,3.75538,7.10711,7.10711,0,0,0,3.14063.77539c2.915,0,5.59229-2.062,7.50635-5.93213a10.634,10.634,0,0,0,1.02295-3.41016C20.13184,8.06689,18.73,4.71729,16.27588,3.51318Zm1.92139,7.96094a9.14124,9.14124,0,0,1-.8794,2.92969c-1.043,2.10889-3.9707,6.76416-8.6416,4.4751A4.94941,4.94941,0,0,1,6.03564,15.9873c-.61767-1.8164-.28418-4.17919.93848-6.65185A9.159,9.159,0,0,1,8.91846,6.71289,7.695,7.695,0,0,1,13.92578,4.499a3.8213,3.8213,0,0,1,1.68945.36084,3.61573,3.61573,0,0,1,.9441.71186L13.64746,7.29736a.74907.74907,0,0,0-.3125.92676l.93115,2.29639-1.82812.61914a.75.75,0,1,0,.48047,1.4209l2.582-.874a.7499.7499,0,0,0,.45459-.99218l-.98779-2.43555L17.44348,6.791A8.11975,8.11975,0,0,1,18.19727,11.47412Z"/></svg>