<svg fill="currentColor" id="icons" xmlns="http://www.w3.org/2000/svg" viewBox="0 0 24 24"><title>02-19-notepad-m</title><rect id="canvas" width="24" height="24" style="fill:none"/><path d="M16.85156,4.65039H15.59967L14.773,3.5957A1.54619,1.54619,0,0,0,13.55176,3H10.44824a1.54752,1.54752,0,0,0-1.22217.59668l-.8258,1.05371H7.14844A2.38609,2.38609,0,0,0,4.78125,7.0498V18.59961A2.38694,2.38694,0,0,0,7.14844,21h9.70312a2.38694,2.38694,0,0,0,2.36719-2.40039V7.0498A2.38609,2.38609,0,0,0,16.85156,4.65039Zm-3.2583-.12793.87549,1.11719-.043.66015L9.51562,6.22461V5.66406L10.44824,4.5Zm4.12549,14.07715a.8856.8856,0,0,1-.86719.90039H7.14844a.8856.8856,0,0,1-.86719-.90039V7.0498a.88474.88474,0,0,1,.86719-.89941h.86718v.07422A1.569,1.569,0,0,0,9.57422,7.7998h4.85156a1.569,1.569,0,0,0,1.5586-1.57519V6.15039h.86718a.88474.88474,0,0,1,.86719.89941Z"/></svg>