<svg fill="currentColor" id="icons" xmlns="http://www.w3.org/2000/svg" viewBox="0 0 24 24"><title>01-10-notifications-m</title><rect id="canvas" width="24" height="24" style="fill:none"/><path d="M12,4a6.05354,6.05354,0,0,0-6,6.36328V16.9668a.7502.7502,0,0,0,.75.75H8.76752c-.00135.01837-.01068.03405-.01068.05273a3.24318,3.24318,0,0,0,6.48632,0c0-.01868-.00933-.03436-.01068-.05273H17.25a.7502.7502,0,0,0,.75-.75V10.36328A6.05354,6.05354,0,0,0,12,4Zm1.74316,13.76953a1.74321,1.74321,0,0,1-3.48632,0c0-.01868-.00934-.03436-.01069-.05273h3.5077C13.7525,17.73517,13.74316,17.75085,13.74316,17.76953ZM16.5,16.2168h-9V10.36328a4.51357,4.51357,0,1,1,9,0Z"/></svg>