<svg fill="currentColor" id="icons" xmlns="http://www.w3.org/2000/svg" viewBox="0 0 24 24"><title>01-13-notifications-receive-m</title><rect id="canvas" width="24" height="24" style="fill:none"/><path d="M15.52344,12.498a.74761.74761,0,0,0-.919.53027l-1.01269,3.7832L4.898,14.48242l1.51514-5.6543A5.10973,5.10973,0,0,1,8.5293,5.80859a4.25611,4.25611,0,0,1,3.48877-.51269.75022.75022,0,0,0,.38867-1.44922,5.79,5.79,0,0,0-4.68848.7002A6.6078,6.6078,0,0,0,4.96387,8.43945l-1.709,6.37891a.7507.7507,0,0,0,.53028.91894l1.94842.5221c-.00592.017-.01886.02954-.02362.04724a3.23838,3.23838,0,0,0,2.29639,3.96094,3.27221,3.27221,0,0,0,.84765.1123,3.23809,3.23809,0,0,0,3.12159-2.39355c.00482-.018-.00013-.03546.00329-.05347l1.94885.52222a.77509.77509,0,0,0,.19434.02539.75083.75083,0,0,0,.72461-.55567l1.207-4.50781A.7507.7507,0,0,0,15.52344,12.498Zm-4.99707,5.09961a1.7096,1.7096,0,0,1-.80811,1.04882,1.74294,1.74294,0,0,1-2.55908-1.95117c.00476-.01782-.00012-.03515.0033-.053l3.38763.90778C10.54413,17.56726,10.53119,17.57977,10.52637,17.59766Z"/><path d="M20.22852,5.9043a4.0084,4.0084,0,1,0-4.50977,5.86328,4.06988,4.06988,0,0,0,1.0498.13867,3.9948,3.9948,0,0,0,3.46-6.00195ZM19.18457,8.55469a2.47149,2.47149,0,0,1-1.167,1.51562,2.4903,2.4903,0,1,1,1.167-1.51562Z"/></svg>