<svg fill="currentColor" id="icons" xmlns="http://www.w3.org/2000/svg" viewBox="0 0 24 24"><title>01-15-notifications-check-m</title><rect id="canvas" width="24" height="24" style="fill:none"/><path d="M17.25,11.55078a.7502.7502,0,0,0-.75.75v3.916h-9V10.36328A4.53767,4.53767,0,0,1,12,5.5.75.75,0,0,0,12,4a6.05325,6.05325,0,0,0-6,6.36328V16.9668a.7502.7502,0,0,0,.75.75H8.76752c-.00135.01837-.01068.03405-.01068.05273a3.24318,3.24318,0,0,0,6.48632,0c0-.01868-.00933-.03436-.01068-.05273H17.25a.7502.7502,0,0,0,.75-.75v-4.666A.7502.7502,0,0,0,17.25,11.55078Zm-3.50684,6.21875a1.74321,1.74321,0,0,1-3.48632,0c0-.01868-.00934-.03436-.01069-.05273h3.5077C13.7525,17.73517,13.74316,17.75085,13.74316,17.76953Z"/><path d="M19.23145,4.84375,16.49707,7.55957,15.27734,6.39746A.75013.75013,0,0,0,14.24219,7.4834l1.748,1.666a.75009.75009,0,0,0,1.0459-.01074l3.252-3.23047a.74992.74992,0,0,0-1.05664-1.06445Z"/></svg>