<svg fill="currentColor" id="icons" xmlns="http://www.w3.org/2000/svg" viewBox="0 0 24 24"><title>01-12-notifications-play-m</title><rect id="canvas" width="24" height="24" style="fill:none"/><path d="M17.25,11.55078a.7502.7502,0,0,0-.75.75v3.916h-9V10.36328A4.53767,4.53767,0,0,1,12,5.5.75.75,0,0,0,12,4a6.05354,6.05354,0,0,0-6,6.36328V16.9668a.7502.7502,0,0,0,.75.75H8.76752c-.00135.01837-.01068.03405-.01068.05273a3.24318,3.24318,0,0,0,6.48632,0c0-.01868-.00933-.03436-.01068-.05273H17.25a.7502.7502,0,0,0,.75-.75v-4.666A.7502.7502,0,0,0,17.25,11.55078Zm-3.50684,6.21875a1.74321,1.74321,0,0,1-3.48632,0c0-.01868-.00934-.03436-.01069-.05273h3.5077C13.7525,17.73517,13.74316,17.75085,13.74316,17.76953Z"/><path d="M20.38281,6.14551h-.00146L15.98486,3.44336A1.3023,1.3023,0,0,0,14,4.54883V9.95117a1.30249,1.30249,0,0,0,1.98535,1.10449l4.39746-2.70117a1.29686,1.29686,0,0,0,0-2.209ZM15.5,9.59375V4.90625L19.31445,7.25Z"/></svg>