<svg fill="currentColor" id="icons" xmlns="http://www.w3.org/2000/svg" viewBox="0 0 24 24"><defs><style>.cls-1{fill:none;}</style></defs><rect id="canvas" class="cls-1" width="24" height="24"/><rect id="canvas-2" data-name="canvas" class="cls-1" width="24" height="24"/><path d="M17,19.75H7A2.75,2.75,0,0,1,4.25,17V7A2.75,2.75,0,0,1,7,4.25H17A2.75,2.75,0,0,1,19.75,7V17A2.75,2.75,0,0,1,17,19.75ZM7,5.75A1.25,1.25,0,0,0,5.75,7V17A1.25,1.25,0,0,0,7,18.25H17A1.25,1.25,0,0,0,18.25,17V7A1.25,1.25,0,0,0,17,5.75Z"/><path d="M9,15.75a.74.74,0,0,1-.53-.22.75.75,0,0,1,0-1.06l6-6a.75.75,0,0,1,1.06,1.06l-6,6A.74.74,0,0,1,9,15.75Z"/></svg>