<svg fill="currentColor" id="icons" xmlns="http://www.w3.org/2000/svg" viewBox="0 0 24 24"><title>01-18-outdent-m</title><rect id="canvas" width="24" height="24" style="fill:none"/><path d="M18.2749,16.5h-12.5a.75.75,0,1,0,0,1.5h12.5a.75.75,0,1,0,0-1.5Z"/><path d="M18.2749,13H11.125a.75.75,0,0,0,0,1.5h7.1499a.75.75,0,1,0,0-1.5Z"/><path d="M18.2749,9.5H11.125a.75.75,0,0,0,0,1.5h7.1499a.75.75,0,0,0,0-1.5Z"/><path d="M18.2749,6h-12.5a.75.75,0,1,0,0,1.5h12.5a.75.75,0,0,0,0-1.5Z"/><path d="M7.58838,15.01953a.74972.74972,0,1,0,1.08105-1.03906L6.76562,12l1.90381-1.98047A.74972.74972,0,1,0,7.58838,8.98047l-2.40381,2.5a.749.749,0,0,0,0,1.03906Z"/></svg>