<svg fill="currentColor" id="icons" xmlns="http://www.w3.org/2000/svg" viewBox="0 0 24 24"><title>02-09-paragraph-m</title><rect id="canvas" width="24" height="24" style="fill:none"/><path d="M18.08594,5H9.71777c-.015,0-.02746.00769-.04223.00854C9.66077,5.00769,9.64825,5,9.6333,5a4.57046,4.57046,0,0,0,0,9.13867c.015,0,.02747-.00769.04224-.00854.01477.00085.02728.00854.04223.00854h.76075l.01074-.0022V18.25a.75.75,0,0,0,1.5,0V6.5H14.293V18.25a.75.75,0,0,0,1.5,0V6.5h2.293a.75.75,0,0,0,0-1.5Zm-7.59668,7.64087-.01074-.0022H9.71777c-.015,0-.02746.00769-.04223.00855-.01477-.00086-.02729-.00855-.04224-.00855a3.071,3.071,0,0,1,0-6.13867c.015,0,.02747-.00769.04224-.00854.01477.00085.02728.00854.04223.00854h.77149Z"/></svg>