<svg fill="currentColor" id="icons" xmlns="http://www.w3.org/2000/svg" viewBox="0 0 24 24"><title>03-12-paste-clipboard-m</title><rect id="canvas" width="24" height="24" style="fill:none"/><path d="M11.33008,17.41992h-3.794A1.02567,1.02567,0,0,1,6.5,16.40723v-8.814A1.02567,1.02567,0,0,1,7.53613,6.58057h8.92774A1.02567,1.02567,0,0,1,17.5,7.59326v3.74561a.75.75,0,0,0,1.5,0V7.59326a2.5272,2.5272,0,0,0-2.53613-2.51269H7.53613A2.5272,2.5272,0,0,0,5,7.59326v8.814a2.5272,2.5272,0,0,0,2.53613,2.51269h3.794a.75.75,0,0,0,0-1.5Z"/><path d="M19.25,13.77734a.7502.7502,0,0,0-.75.75,1.68755,1.68755,0,0,1-1.67969,1.69043h-1.3728l1.08081-1.18457a.75.75,0,0,0-1.10742-1.01172L13.19629,16.46a65.96056,65.96056,0,0,0-.13941.22669.7476.7476,0,0,0-.00061.55969,12281.54408,12281.54408,0,0,1,.142.22827l.02124.023.00049.00073,2.20288,2.38941a.75054.75054,0,0,0,1.10352-1.01758l-1.06275-1.15235h1.35669A3.18918,3.18918,0,0,0,20,14.52734.7502.7502,0,0,0,19.25,13.77734Z"/></svg>