<svg fill="currentColor" id="icons" xmlns="http://www.w3.org/2000/svg" viewBox="0 0 24 24"><title>02-02-pause-circle-m</title><rect id="canvas" width="24" height="24" style="fill:none"/><path d="M12,20a8,8,0,1,1,8-8A8.00917,8.00917,0,0,1,12,20ZM12,5.5A6.5,6.5,0,1,0,18.5,12,6.50753,6.50753,0,0,0,12,5.5Z"/><path d="M10.292,14.76025a.75019.75019,0,0,1-.75-.75V9.98975a.75.75,0,0,1,1.5,0v4.0205A.75019.75019,0,0,1,10.292,14.76025Z"/><path d="M13.708,14.76025a.75019.75019,0,0,1-.75-.75V9.98975a.75.75,0,0,1,1.5,0v4.0205A.75019.75019,0,0,1,13.708,14.76025Z"/></svg>