<svg fill="currentColor" id="icons" xmlns="http://www.w3.org/2000/svg" viewBox="0 0 24 24"><title>02-01-pause-s</title><rect id="canvas" width="24" height="24" style="fill:none"/><path d="M8.79541,5.95752A2.47574,2.47574,0,0,0,6.32227,8.43018v7.13916a2.4729,2.4729,0,1,0,4.9458,0V8.43018A2.47565,2.47565,0,0,0,8.79541,5.95752Zm.97266,9.61182a.9729.9729,0,1,1-1.9458,0V8.43018a.9729.9729,0,0,1,1.9458,0Z"/><path d="M15.20459,5.95752a2.47565,2.47565,0,0,0-2.47266,2.47266v7.13916a2.4729,2.4729,0,1,0,4.9458,0V8.43018A2.47574,2.47574,0,0,0,15.20459,5.95752Zm.97314,9.61182a.9729.9729,0,1,1-1.9458,0V8.43018a.9729.9729,0,0,1,1.9458,0Z"/></svg>