<svg fill="currentColor" id="icons" xmlns="http://www.w3.org/2000/svg" viewBox="0 0 24 24"><title>02-01-pause-m</title><rect id="canvas" width="24" height="24" style="fill:none"/><path d="M7.61035,20A3.11373,3.11373,0,0,1,4.5,16.89014V7.10986a3.11011,3.11011,0,0,1,6.22021,0v9.78028A3.1133,3.1133,0,0,1,7.61035,20Zm0-14.5A1.61177,1.61177,0,0,0,6,7.10986v9.78028A1.61167,1.61167,0,0,0,7.60986,18.5h.00049a1.61166,1.61166,0,0,0,1.60986-1.60986V7.10986A1.61166,1.61166,0,0,0,7.61035,5.5Z"/><path d="M16.39014,20a3.11372,3.11372,0,0,1-3.11035-3.10986V7.10986a3.11011,3.11011,0,0,1,6.22021,0v9.78028A3.11331,3.11331,0,0,1,16.39014,20Zm0-14.5a1.61177,1.61177,0,0,0-1.61035,1.60986v9.78028A1.61166,1.61166,0,0,0,16.38965,18.5h.00049A1.61167,1.61167,0,0,0,18,16.89014V7.10986A1.61167,1.61167,0,0,0,16.39014,5.5Z"/></svg>