<svg fill="currentColor" id="icons" xmlns="http://www.w3.org/2000/svg" viewBox="0 0 24 24"><title>03-02-percent-m</title><rect id="canvas" width="24" height="24" style="fill:none"/><path d="M7.5,10.51562a3.5,3.5,0,1,1,3.5-3.5A3.50424,3.50424,0,0,1,7.5,10.51562Zm0-5.5a2,2,0,1,0,2,2A2.002,2.002,0,0,0,7.5,5.01562Z"/><path d="M7.33154,19.54688a.75.75,0,0,1-.61767-1.17481L16.0498,4.77832a.75006.75006,0,0,1,1.23633.84961L7.9502,19.22168A.74812.74812,0,0,1,7.33154,19.54688Z"/><path d="M16.5,20.48438a3.5,3.5,0,1,1,3.5-3.5A3.50425,3.50425,0,0,1,16.5,20.48438Zm0-5.5a2,2,0,1,0,2,2A2.00229,2.00229,0,0,0,16.5,14.98438Z"/></svg>