<svg fill="currentColor" id="icons" xmlns="http://www.w3.org/2000/svg" viewBox="0 0 24 24"><title>01-04-pie-m</title><rect id="canvas" width="24" height="24" style="fill:none"/><path d="M17.57227,6.2666l-.00684-.01025c-.00513-.00513-.01209-.00653-.01727-.01148A7.99956,7.99956,0,0,0,6.34326,17.65674a7.727,7.727,0,0,0,5.50879,2.27051c.02734,0,.05518,0,.083-.00049a8.02285,8.02285,0,0,0,5.61865-2.37305,7.93859,7.93859,0,0,0,.10352-11.21045C17.62994,6.316,17.59985,6.2934,17.57227,6.2666ZM7.40381,16.59619a6.43626,6.43626,0,0,1,.103-9.08935A6.5555,6.5555,0,0,1,12.147,5.57568,6.28417,6.28417,0,0,1,15.928,6.83319L11.398,11.36328a.74972.74972,0,0,0,0,1.06055l4.55267,4.55224A6.41654,6.41654,0,0,1,7.40381,16.59619Zm9.60217-.68585-4.01721-4.01679,4.02588-4.02587A6.43415,6.43415,0,0,1,17.006,15.91034Z"/></svg>