<svg fill="currentColor" xmlns="http://www.w3.org/2000/svg" viewBox="0 0 24 24"><title>01-22-pin-m</title><g id="transparent_canvas"><rect id="canvas" width="24" height="24" style="fill:none"/></g><g id="icons"><path d="M19.4624,8.06738,15.9126,4.49121a1.70013,1.70013,0,0,0-2.356-.001l-.29883.30079a1.66472,1.66472,0,0,0-.48437,1.17871V7.71747L10.79,9.71582H8.22754a2.5889,2.5889,0,0,0-1.82373.75977l-.63477.63964a1.67563,1.67563,0,0,0,0,2.35743l1.8559,1.87L4.27,18.72168a.74992.74992,0,1,0,1.06445,1.05664l3.34711-3.37115,1.84772,1.86138a1.65862,1.65862,0,0,0,2.35644,0l.63526-.63964a2.615,2.615,0,0,0,.75244-1.82911V13.21387l1.96679-1.9812,1.55567.08276c.03076.002.061.002.0918.002a1.65992,1.65992,0,0,0,1.17626-.49023l.39844-.40235A1.677,1.677,0,0,0,19.4624,8.06738ZM12.99121,12.376a.74883.74883,0,0,0-.21777.52832v2.8955a1.10512,1.10512,0,0,1-.3169.77247l-.63574.63964a.13639.13639,0,0,1-.22656,0L9.21387,14.81445,6.83252,12.415a.17515.17515,0,0,1,.001-.24316l.63476-.63965a1.06244,1.06244,0,0,1,.75928-.31641h2.875a.75094.75094,0,0,0,.53223-.22168l1.88873-1.9032,1.36456,1.37476Zm5.40625-3.00782-.39844.40235a.15765.15765,0,0,1-.11132.04687H17.877l-1.60351-.085-2-2.01465v-1.748a.17447.17447,0,0,1,.04931-.12207l.29834-.29981a.13687.13687,0,0,1,.22657,0L18.398,9.124A.17315.17315,0,0,1,18.39746,9.36816Z"/></g></svg>