<svg fill="currentColor" id="icons" xmlns="http://www.w3.org/2000/svg" viewBox="0 0 24 24"><title>01-26-pinterest-m</title><rect id="canvas" width="24" height="24" style="fill:#fff;fill-opacity:0.1"/><path d="M12,4.14551A7.93724,7.93724,0,0,0,4,12a7.93724,7.93724,0,0,0,8,7.85449A7.93724,7.93724,0,0,0,20,12,7.93724,7.93724,0,0,0,12,4.14551Zm0,14.209a6.6069,6.6069,0,0,1-1.7793-.248l.57148-2.52027a4.34624,4.34624,0,0,0,5.98565-3.98071A4.56387,4.56387,0,0,0,12,7.30371a4.56387,4.56387,0,0,0-4.77783,4.30176,3.87252,3.87252,0,0,0,.29394,1.44433.75.75,0,1,0,1.39453-.55273,2.399,2.399,0,0,1-.18847-.8916A3.07133,3.07133,0,0,1,12,8.80371a3.07133,3.07133,0,0,1,3.27783,2.80176,2.8716,2.8716,0,0,1-4.15008,2.501l.62518-2.7569a.75.75,0,0,0-1.46289-.332L8.81274,17.532A6.33384,6.33384,0,0,1,5.5,12,6.43583,6.43583,0,0,1,12,5.64551,6.43583,6.43583,0,0,1,18.5,12,6.43583,6.43583,0,0,1,12,18.35449Z"/></svg>