<svg fill="currentColor" width="24" height="24" viewBox="0 0 24 24"
    xmlns="http://www.w3.org/2000/svg">
    <path fill-rule="evenodd" clip-rule="evenodd"
        d="M6.61481 4.43641C7.10577 4.15295 7.6627 4.00372 8.22961 4.00372C8.79653 4.00372 9.35345 4.15295 9.84441 4.43641L18.1911 9.25535C18.682 9.5388 19.0897 9.9465 19.3732 10.4375C19.6567 10.9284 19.8059 11.4854 19.8059 12.0523C19.8059 12.6192 19.6567 13.1761 19.3732 13.6671C19.0963 14.1467 18.7007 14.5469 18.2248 14.8294L16.4366 16.1098C16.0998 16.3509 15.6313 16.2734 15.3902 15.9366C15.1491 15.5998 15.2266 15.1313 15.5634 14.8902L17.4093 13.5685L17.4411 13.5502C17.704 13.3983 17.9224 13.18 18.0742 12.9171C18.226 12.6541 18.3059 12.3559 18.3059 12.0523C18.3059 11.7487 18.226 11.4504 18.0742 11.1875C17.9224 10.9245 17.704 10.7062 17.4411 10.5544L9.09442 5.73545C8.83148 5.58364 8.53322 5.50372 8.22962 5.50372C7.926 5.50372 7.62774 5.58364 7.36481 5.73545C7.10187 5.88725 6.88353 6.10559 6.73173 6.36853C6.57992 6.63146 6.5 6.92972 6.5 7.23333V9.05227C6.5 9.46649 6.16421 9.80227 5.75 9.80227C5.33579 9.80227 5 9.46649 5 9.05227V7.23332C5 6.66641 5.14923 6.10948 5.43269 5.61852C5.71615 5.12756 6.12385 4.71986 6.61481 4.43641Z" />
    <path fill-rule="evenodd" clip-rule="evenodd"
        d="M3.82617 16.3525C5.81483 16.3502 7.42637 14.7387 7.42871 12.75C7.42871 12.3358 7.7645 12 8.17871 12C8.59292 12 8.92871 12.3358 8.92871 12.75C8.93105 14.7387 10.5426 16.3502 12.5312 16.3525C12.9455 16.3525 13.2812 16.6883 13.2812 17.1025C13.2813 17.5168 12.9455 17.8525 12.5312 17.8525C10.5426 17.8549 8.93105 19.4664 8.92871 21.4551C8.92871 21.4597 8.92742 21.464 8.92614 21.4682C8.92494 21.4722 8.92374 21.4762 8.92359 21.4805C8.92368 21.489 8.92491 21.4972 8.92615 21.5054C8.92743 21.5139 8.92871 21.5224 8.92871 21.5312C8.92871 21.9455 8.59292 22.2812 8.17871 22.2812C7.7645 22.2813 7.42871 21.9455 7.42871 21.5312C7.42635 19.5005 5.78072 17.8549 3.75 17.8525C3.33579 17.8525 3 17.5168 3 17.1025C3 16.6883 3.33579 16.3525 3.75 16.3525C3.75886 16.3525 3.76738 16.3538 3.77589 16.3551C3.78408 16.3563 3.79228 16.3576 3.80078 16.3577C3.80509 16.3575 3.80907 16.3563 3.81305 16.3551C3.81729 16.3538 3.82153 16.3525 3.82617 16.3525ZM8.16301 18.8586C8.59134 18.1393 9.18989 17.5362 9.90601 17.1025C9.1991 16.6748 8.60637 16.0821 8.17869 15.3752C7.74499 16.0913 7.14194 16.6899 6.42259 17.1182C7.13399 17.5503 7.73094 18.1472 8.16301 18.8586Z" />
</svg>