<svg fill="currentColor" id="icons" xmlns="http://www.w3.org/2000/svg" viewBox="0 0 24 24"><title>02-04-play-circle-m</title><rect id="canvas" width="24" height="24" style="fill:none"/><path d="M12,20a8,8,0,1,1,8-8A8.00917,8.00917,0,0,1,12,20ZM12,5.5A6.5,6.5,0,1,0,18.5,12,6.50753,6.50753,0,0,0,12,5.5Z"/><path d="M10.72852,15.249a1.17557,1.17557,0,0,1-1.17872-1.1709V9.92188a1.17308,1.17308,0,0,1,.59766-1.019,1.19148,1.19148,0,0,1,1.19727.02l3.417,2.07764a1.16718,1.16718,0,0,1,0,1.999l-3.417,2.07764A1.189,1.189,0,0,1,10.72852,15.249Zm.32128-4.75v3.002L13.51855,12Zm2.93458,1.78467h0Z"/></svg>