<?xml version="1.0" encoding="utf-8"?>
<!-- Generator: Adobe Illustrator 23.1.1, SVG Export Plug-In . SVG Version: 6.00 Build 0)  -->
<svg fill="currentColor" version="1.1" id="icons" xmlns="http://www.w3.org/2000/svg" xmlns:xlink="http://www.w3.org/1999/xlink" x="0px" y="0px"
	 viewBox="0 0 24 24" style="enable-background:new 0 0 24 24;" xml:space="preserve">
<style type="text/css">
	.st0{fill:none;}
</style>
<title>02-03-play-s</title>
<rect id="canvas" class="st0" width="24" height="24"/>
<path d="M15.9,9.8l-6-3.5C9,5.8,8,5.8,7.2,6.3C6.4,6.8,5.9,7.6,5.9,8.5v7c0,0.9,0.5,1.8,1.3,2.2c0.8,0.5,1.8,0.5,2.6,0l6-3.5
	c1.2-0.7,1.7-2.2,1-3.5C16.6,10.4,16.3,10,15.9,9.8L15.9,9.8z M15.2,12.9l-6,3.5c-0.4,0.2-0.8,0.2-1.1,0c-0.3-0.2-0.5-0.5-0.5-0.9
	v-7c0-0.4,0.2-0.7,0.5-0.9c0.4-0.2,0.8-0.2,1.1,0l6,3.5c0.5,0.3,0.7,0.9,0.4,1.4C15.5,12.7,15.3,12.8,15.2,12.9L15.2,12.9z"/>
</svg>
