<svg width="24" height="24" viewBox="0 0 24 24" fill="currentColor"
    xmlns="http://www.w3.org/2000/svg">
    <path
        d="M6.5 16.5C6.5 15.9477 6.94772 15.5 7.5 15.5H8.5C9.05228 15.5 9.5 15.9477 9.5 16.5V17.5C9.5 18.0523 9.05228 18.5 8.5 18.5H7.5C6.94772 18.5 6.5 18.0523 6.5 17.5V16.5Z" />
    <path fill-rule="evenodd" clip-rule="evenodd"
        d="M6.61481 4.43641C7.10577 4.15295 7.6627 4.00372 8.22961 4.00372C8.79653 4.00372 9.35345 4.15295 9.84441 4.43641L18.1911 9.25535C18.682 9.5388 19.0897 9.9465 19.3732 10.4375C19.6567 10.9284 19.8059 11.4854 19.8059 12.0523C19.8059 12.6192 19.6567 13.1761 19.3732 13.6671C19.0963 14.1467 18.7007 14.5469 18.2248 14.8294L16.4366 16.1098C16.0998 16.3509 15.6313 16.2734 15.3902 15.9366C15.1491 15.5998 15.2266 15.1313 15.5634 14.8902L17.4093 13.5685L17.4411 13.5502C17.704 13.3983 17.9224 13.18 18.0742 12.9171C18.226 12.6541 18.3059 12.3559 18.3059 12.0523C18.3059 11.7487 18.226 11.4504 18.0742 11.1875C17.9224 10.9245 17.704 10.7062 17.4411 10.5544L9.09442 5.73545C8.83148 5.58364 8.53322 5.50372 8.22961 5.50372C7.926 5.50372 7.62774 5.58364 7.36481 5.73545C7.10187 5.88725 6.88353 6.10559 6.73172 6.36853C6.57992 6.63146 6.5 6.92972 6.5 7.23333V9.05227C6.5 9.46649 6.16421 9.80227 5.75 9.80227C5.33579 9.80227 5 9.46649 5 9.05227V7.23332C5 6.66641 5.14923 6.10948 5.43269 5.61852C5.71615 5.12756 6.12385 4.71986 6.61481 4.43641Z" />
    <path
        d="M7.98773 21.749C7.13595 21.7493 6.28499 21.6961 5.43988 21.5898C4.92414 21.5253 4.4446 21.2908 4.07709 20.9233C3.70957 20.5558 3.47504 20.0762 3.41058 19.5605C3.19696 17.8605 3.19647 16.1405 3.40912 14.4404C3.474 13.9246 3.70886 13.4451 4.0766 13.0776C4.44435 12.7101 4.92402 12.4756 5.43988 12.4111C7.13264 12.1971 8.84554 12.1963 10.5385 12.4086C11.0574 12.4692 11.5411 12.7015 11.9128 13.0685C12.2845 13.4356 12.5228 13.9164 12.5898 14.4345C12.8018 16.1234 12.8031 17.8322 12.5937 19.5214C12.5354 20.0439 12.3033 20.5317 11.9347 20.9065C11.5661 21.2814 11.0824 21.5217 10.5609 21.5888C9.70734 21.6954 8.84795 21.7489 7.98773 21.749ZM7.99945 13.75C7.20624 13.75 6.41382 13.7999 5.62689 13.8994C5.44162 13.9225 5.26934 14.0066 5.13723 14.1386C5.00513 14.2705 4.92074 14.4427 4.8974 14.6279C4.70013 16.2035 4.70063 17.7975 4.89887 19.373C4.92199 19.558 5.00606 19.73 5.13779 19.8619C5.26953 19.9939 5.44144 20.0781 5.6264 20.1015C7.19045 20.2986 8.77297 20.2999 10.3373 20.1054C10.5376 20.0839 10.7245 19.9947 10.8671 19.8525C11 19.7163 11.0833 19.5396 11.1039 19.3505C11.2991 17.7813 11.2984 16.1939 11.102 14.6249C11.0773 14.439 10.9914 14.2666 10.8577 14.1351C10.7241 14.0035 10.5505 13.9202 10.3642 13.8983L10.3554 13.8974C9.5739 13.7994 8.78706 13.7502 7.99945 13.75Z" />
</svg>