<svg width="18" height="19" viewBox="0 0 18 19" fill="currentColor"
    xmlns="http://www.w3.org/2000/svg">
    <path
        d="M4.61481 0.436347C5.10577 0.152889 5.6627 0.00366265 6.22961 0.00366211C6.79653 0.00366157 7.35345 0.152889 7.84441 0.436344L16.1911 5.25529C16.682 5.53874 17.0897 5.94643 17.3732 6.4374C17.6567 6.92837 17.8059 7.4853 17.8059 8.05221C17.8059 8.61912 17.6567 9.17605 17.3732 9.66701C17.0963 10.1467 16.7007 10.5469 16.2248 10.8294L14.4366 12.1097C14.0998 12.3509 13.6313 12.2733 13.3902 11.9366C13.1491 11.5998 13.2266 11.1313 13.5634 10.8901L15.4093 9.56845L15.4411 9.55009C15.704 9.39829 15.9224 9.17994 16.0742 8.91701C16.226 8.65408 16.3059 8.35582 16.3059 8.05221C16.3059 7.74859 16.226 7.45033 16.0742 7.1874C15.9224 6.92448 15.704 6.70613 15.4411 6.55432L7.09442 1.73538C6.83148 1.58358 6.53322 1.50366 6.22962 1.50366C5.926 1.50366 5.62774 1.58358 5.36481 1.73539C5.10187 1.88719 4.88353 2.10553 4.73173 2.36846C4.57992 2.6314 4.5 2.92966 4.5 3.23327V5.05221C4.5 5.46643 4.16421 5.80221 3.75 5.80221C3.33579 5.80221 3 5.46643 3 5.05221V3.23326C3 2.66635 3.14923 2.10942 3.43269 1.61846C3.71615 1.1275 4.12385 0.719803 4.61481 0.436347Z" />
    <path
        d="M6 16.2499C6.41421 16.2499 6.75 16.5857 6.75 16.9999V17.9999C6.75 18.4142 6.41421 18.7499 6 18.7499C5.58579 18.7499 5.25 18.4142 5.25 17.9999V16.9999C5.25 16.5857 5.58579 16.2499 6 16.2499Z" />
    <path
        d="M6 7.24994C6.41421 7.24994 6.75 7.58573 6.75 7.99994V8.99994C6.75 9.41415 6.41421 9.74994 6 9.74994C5.58579 9.74994 5.25 9.41415 5.25 8.99994V7.99994C5.25 7.58573 5.58579 7.24994 6 7.24994Z" />
    <path
        d="M2.75 12.9999C2.75 13.4142 2.41421 13.7499 2 13.7499H1C0.585786 13.7499 0.25 13.4142 0.25 12.9999C0.25 12.5857 0.585786 12.2499 1 12.2499H2C2.41421 12.2499 2.75 12.5857 2.75 12.9999Z" />
    <path
        d="M11.75 12.9999C11.75 13.4142 11.4142 13.7499 11 13.7499H10C9.58579 13.7499 9.25 13.4142 9.25 12.9999C9.25 12.5857 9.58579 12.2499 10 12.2499H11C11.4142 12.2499 11.75 12.5857 11.75 12.9999Z" />
    <path
        d="M6 15.4999C4.61929 15.4999 3.5 14.3807 3.5 12.9999C3.5 11.6192 4.61929 10.4999 6 10.4999C7.38071 10.4999 8.5 11.6192 8.5 12.9999C8.5 14.3807 7.38071 15.4999 6 15.4999ZM6 16.9999C8.20914 16.9999 10 15.2091 10 12.9999C10 10.7908 8.20914 8.99994 6 8.99994C3.79086 8.99994 2 10.7908 2 12.9999C2 15.2091 3.79086 16.9999 6 16.9999Z" />
</svg>