<svg fill="currentColor" id="icons" xmlns="http://www.w3.org/2000/svg" viewBox="0 0 24 24"><title>02-03-play-m</title><rect id="canvas" width="24" height="24" style="fill:none"/><path d="M7.42578,20.00293a3.3476,3.3476,0,0,1-1.67871-.456A3.1883,3.1883,0,0,1,4.126,16.76562V7.23438A3.1883,3.1883,0,0,1,5.74707,4.45312a3.31876,3.31876,0,0,1,3.3501-.0039l8.28174,4.76562a3.19647,3.19647,0,0,1,0,5.57032L9.09717,19.55078A3.34292,3.34292,0,0,1,7.42578,20.00293Zm0-14.50342a1.85056,1.85056,0,0,0-.92822.25195A1.70432,1.70432,0,0,0,5.626,7.23438v9.53124a1.70432,1.70432,0,0,0,.87158,1.48292,1.83261,1.83261,0,0,0,1.85156.00244l8.28174-4.76563a1.6973,1.6973,0,0,0,0-2.9707L8.34912,5.749h0A1.85138,1.85138,0,0,0,7.42578,5.49951Z"/></svg>