<svg fill="currentColor" id="icons" xmlns="http://www.w3.org/2000/svg" viewBox="0 0 24 24"><title>03-08-pound-circle-m</title><rect id="canvas" width="24" height="24" style="fill:none"/><path d="M12,4a8,8,0,1,0,8,8A8.00917,8.00917,0,0,0,12,4Zm0,14.5A6.5,6.5,0,1,1,18.5,12,6.50753,6.50753,0,0,1,12,18.5Z"/><path d="M14.77051,15.0498H11.01715a6.14261,6.14261,0,0,0,.87891-2.17236h2.11859a.75.75,0,0,0,0-1.5H11.794a4.33181,4.33181,0,0,0-.37989-.6289,2.04019,2.04019,0,0,1-.4917-1.21729.9358.9358,0,0,1,.56446-.96582,2.12587,2.12587,0,0,1,1.95507.24658.75.75,0,0,0,1.01075-1.1084,3.59529,3.59529,0,0,0-3.57178-.51074,2.435,2.435,0,0,0-1.4585,2.33838,3.19857,3.19857,0,0,0,.60968,1.84619H9.22949a.75.75,0,1,0,0,1.5h1.131a6.07706,6.07706,0,0,1-1.40539,2.38818l-.00159.00232a.747.747,0,0,0-.221.52668l-.001.00518a.7081.7081,0,0,0,.02728.13489.73659.73659,0,0,0,.0296.14655.745.745,0,0,0,.14594.22375c.00573.00629.00744.01459.01348.02069l.00086.00055a.74932.74932,0,0,0,.247.16584.73713.73713,0,0,0,.16357.033.70793.70793,0,0,0,.12226.02471h5.28906a.75.75,0,0,0,0-1.5Z"/></svg>