<svg fill="currentColor" id="icons" xmlns="http://www.w3.org/2000/svg" viewBox="0 0 24 24"><title>03-03-pound-m</title><rect id="canvas" width="24" height="24" style="fill:none"/><path d="M7.05322,13.44189H9.79858a10.77,10.77,0,0,1-2.82153,5.27344l-.00177.00263a.74439.74439,0,0,0-.2215.52795L6.75293,19.25a.705.705,0,0,0,.02081.103.73472.73472,0,0,0,.0362.1792A.74467.74467,0,0,0,6.95,19.7467c.00788.00879.01038.02021.01874.02869l.0011.00073a.72544.72544,0,0,0,.51221.21967C7.48938,19.996,7.49554,20,7.50293,20h9.44385a.75.75,0,1,0,0-1.5H9.12555a10.71981,10.71981,0,0,0,2.18787-5.05811h4.28424a.75.75,0,0,0,0-1.5H11.22205a5.497,5.497,0,0,0-.75379-1.37841,4.2089,4.2089,0,0,1-.98193-2.50782A2.25583,2.25583,0,0,1,10.84521,5.7915a4.34675,4.34675,0,0,1,4.12647.54493A.75.75,0,0,0,15.98242,5.228a5.86234,5.86234,0,0,0-5.74316-.8086A3.73474,3.73474,0,0,0,7.98633,8.05566a5.58,5.58,0,0,0,1.24658,3.3584c.13153.19086.24561.363.34534.52783h-2.525a.75.75,0,0,0,0,1.5Z"/></svg>