<?xml version="1.0" encoding="utf-8"?>
<!-- Generator: Adobe Illustrator 25.2.1, SVG Export Plug-In . SVG Version: 6.00 Build 0)  -->
<svg fill="currentColor" version="1.1" id="Warstwa_1" xmlns="http://www.w3.org/2000/svg" xmlns:xlink="http://www.w3.org/1999/xlink" x="0px" y="0px"
	 viewBox="0 0 26 26" style="enable-background:new 0 0 26 26;" xml:space="preserve">
<style type="text/css">
	.st0{fill:#9AED45;}
	.st1{fill:#399903;}
</style>
<g>
	<g transform="translate(4 4)">
		<g>
			<path id="group-12-a" class="st0" d="M11.6006,2.5757c-3.521,0-6.375,2.854-6.375,6.375c0-2.071,1.68-3.75,3.75-3.75
				c2.071,0,3.75,1.679,3.75,3.75c0,3.521-2.854,6.375-6.375,6.375c-3.301,0-6.016-2.509-6.342-5.723
				c0.335,4.665,4.217,8.348,8.967,8.348c4.971,0,9-4.03,9-9C17.9756,5.4297,15.1216,2.5757,11.6006,2.5757"/>
		</g>
		<path class="st1" d="M6.375,15.375c3.521,0,6.375-2.854,6.375-6.375c0,2.071-1.679,3.75-3.75,3.75S5.25,11.071,5.25,9
			c0-3.521,2.854-6.375,6.375-6.375c3.301,0,6.016,2.508,6.343,5.723C17.632,3.683,13.751,0,9,0C4.029,0,0,4.029,0,9
			C0,12.521,2.854,15.375,6.375,15.375"/>
	</g>
</g>
</svg>
