<?xml version="1.0" encoding="utf-8"?>
<!-- Generator: Adobe Illustrator 25.2.1, SVG Export Plug-In . SVG Version: 6.00 Build 0)  -->
<svg fill="currentColor" version="1.1" id="Warstwa_1" xmlns="http://www.w3.org/2000/svg"
	xmlns:xlink="http://www.w3.org/1999/xlink" x="0px" y="0px"
	viewBox="0 0 26 26" style="enable-background:new 0 0 26 26;" xml:space="preserve">

<path d="M13,4c-4.9707,0.0005-8.9995,4.0293-9,9c0.0005,4.9711,4.0294,8.9995,9,9c4.9711-0.0004,8.9996-4.0289,9-9
	C21.9995,8.0294,17.9711,4.0005,13,4z M7.6968,7.6968C9.0564,6.3383,10.9267,5.5004,13,5.5c1.1917,0.0002,2.312,0.2844,3.311,0.7778
	C16.2057,6.2729,16.1054,6.25,15.999,6.25C12.271,6.2505,9.2496,9.272,9.249,13H9.25c0.0004,2.0717,1.6789,3.7496,3.75,3.75
	c0.2542-0.0001,0.5019-0.0267,0.7418-0.0749c-0.0112,0.0115-0.0192,0.0258-0.0306,0.0371
	c-0.9525,0.9513-2.2603,1.5374-3.7122,1.5378c-1.2493-0.0004-2.3843-0.4421-3.2866-1.1691C5.9479,15.9061,5.5002,14.5083,5.5,13
	C5.5004,10.9267,6.3383,9.0564,7.6968,7.6968z M15.249,13c-0.0001,0.156-0.0325,0.3026-0.0458,0.455
	C14.9918,14.4791,14.0869,15.248,13,15.25c-1.2424-0.0023-2.2477-1.0073-2.25-2.25c0.0023-1.2422,1.0078-2.2477,2.25-2.25
	c1.2427,0.0023,2.2477,1.0076,2.25,2.25H15.249z M18.3034,18.3034C16.9438,19.6617,15.0736,20.4996,13,20.5
	c-1.1791-0.0002-2.2882-0.2789-3.2794-0.7626C9.8135,19.7412,9.9052,19.75,9.999,19.75c3.7215-0.0005,6.7379-3.0115,6.749-6.7306
	C16.7481,13.0128,16.75,13.0067,16.75,13c-0.0004-2.0711-1.6783-3.7496-3.75-3.75c-0.2549,0.0001-0.5034,0.0267-0.744,0.0752
	c0.0114-0.0115,0.0194-0.0259,0.0308-0.0374c0.9525-0.9513,2.2603-1.5374,3.7122-1.5378c1.2482,0.0004,2.384,0.4387,3.2854,1.1641
	C20.0509,10.09,20.4998,11.4897,20.5,13C20.4996,15.0736,19.6617,16.9438,18.3034,18.3034z"/>
</svg>