<svg fill="currentColor" id="icons" xmlns="http://www.w3.org/2000/svg" viewBox="0 0 24 24"><title>03-01-presentation-mode-m</title><rect id="canvas" width="24" height="24" style="fill:none"/><path d="M18.16162,3.93262H5.83838A1.8633,1.8633,0,0,0,3.97705,5.79346v7.65429a1.8634,1.8634,0,0,0,1.86133,1.86133H18.16162A1.8634,1.8634,0,0,0,20.023,13.44775V5.79346A1.8633,1.8633,0,0,0,18.16162,3.93262Zm.36133,9.51513a.36176.36176,0,0,1-.36133.36133H5.83838a.36176.36176,0,0,1-.36133-.36133V5.79346a.36166.36166,0,0,1,.36133-.36084H18.16162a.36166.36166,0,0,1,.36133.36084Z"/><path d="M19.273,17.35547H10.17542a1.96031,1.96031,0,0,0-3.62366,0H4.72705a.75.75,0,0,0,0,1.5H6.55182a1.96022,1.96022,0,0,0,3.62353,0H19.273a.75.75,0,0,0,0-1.5ZM8.36377,18.56738a.46192.46192,0,1,1,.46191-.46191A.46262.46262,0,0,1,8.36377,18.56738Z"/><path d="M14.938,8.30664,11.51807,6.2832A1.5031,1.5031,0,0,0,9.25,7.57666V11.623a1.49953,1.49953,0,0,0,2.26807,1.29345L14.938,10.89355a1.5027,1.5027,0,0,0,0-2.58691ZM10.75,11.623l.00049-4.05078.0039.002,3.41993,2.02832Z"/></svg>