<svg fill="currentColor" id="icons" xmlns="http://www.w3.org/2000/svg" viewBox="0 0 24 24"><title>01-13-printer-m</title><rect id="canvas" width="24" height="24" style="fill:none"/><path d="M17.5,10.3335h-.917a.75.75,0,1,0,0,1.5H17.5a.75.75,0,0,0,0-1.5Z"/><path d="M19.333,7.58447H17.16309V4.752a1.75213,1.75213,0,0,0-1.75-1.75H8.58691a1.75213,1.75213,0,0,0-1.75,1.75V7.58447H4.667A1.66867,1.66867,0,0,0,3,9.25049v6.415A1.66877,1.66877,0,0,0,4.667,17.332h2v1.916a1.75213,1.75213,0,0,0,1.75,1.75h7.166a1.75213,1.75213,0,0,0,1.75-1.75V17.332h2A1.66877,1.66877,0,0,0,21,15.66553v-6.415A1.66867,1.66867,0,0,0,19.333,7.58447ZM8.33691,4.752a.25049.25049,0,0,1,.25-.25h6.82618a.25049.25049,0,0,1,.25.25V7.58447H8.33691Zm7.4961,14.4961a.25049.25049,0,0,1-.25.25H8.417a.25049.25049,0,0,1-.25-.25V14.583h7.666ZM19.5,15.66553a.16713.16713,0,0,1-.167.1665h-2V13.833a.7502.7502,0,0,0-.75-.75H7.417a.7502.7502,0,0,0-.75.75v1.999h-2a.16713.16713,0,0,1-.167-.1665v-6.415a.167.167,0,0,1,.167-.166H19.333a.167.167,0,0,1,.167.166Z"/></svg>