<svg fill="currentColor" id="icons" xmlns="http://www.w3.org/2000/svg" viewBox="0 0 24 24"><title>06-02-product-remove-m</title><rect id="canvas" width="24" height="24" style="fill:none"/><path d="M6.75,20h4.5a.75.75,0,0,0,0-1.5H6.75A1.25116,1.25116,0,0,1,5.5,17.25V8.99854h13V11.25a.75.75,0,0,0,1.5,0V6.75A2.7528,2.7528,0,0,0,17.25,4H6.75A2.7528,2.7528,0,0,0,4,6.75v10.5A2.7528,2.7528,0,0,0,6.75,20Zm0-14.5h10.5A1.25116,1.25116,0,0,1,18.5,6.75v.74854H5.5V6.75A1.25116,1.25116,0,0,1,6.75,5.5Z"/><path d="M14,12.79688a.71392.71392,0,0,0,.75.706.789.789,0,0,0,.75-.79395,1.98093,1.98093,0,0,0-1.97852-1.97851h-3.043A1.98093,1.98093,0,0,0,8.5,12.709v.0879a.71392.71392,0,0,0,.75.706A.789.789,0,0,0,10,12.709a.47929.47929,0,0,1,.47852-.47851h3.043A.50531.50531,0,0,1,14,12.79688Z"/><path d="M17.25,20.78223a3.75,3.75,0,1,0-3.75-3.75A3.7541,3.7541,0,0,0,17.25,20.78223Zm0-1.5a2.2258,2.2258,0,0,1-.95007-.21784l2.98236-2.982a2.22587,2.22587,0,0,1,.21771.94983A2.25246,2.25246,0,0,1,17.25,19.28223Zm0-4.5a2.223,2.223,0,0,1,.97821.23315L15.233,18.01019a2.22349,2.22349,0,0,1-.233-.978A2.25246,2.25246,0,0,1,17.25,14.78223Z"/></svg>