<svg fill="currentColor" id="icons" xmlns="http://www.w3.org/2000/svg" viewBox="0 0 24 24"><title>06-04-product-check-m</title><rect id="canvas" width="24" height="24" style="fill:none"/><path d="M19.23145,14.67725,16.49707,17.394,15.27734,16.231a.75013.75013,0,1,0-1.03515,1.08593l1.748,1.66651a.75012.75012,0,0,0,1.0459-.01074l3.252-3.231a.74992.74992,0,1,0-1.05664-1.06445Z"/><path d="M6.75,20h4.5a.75.75,0,0,0,0-1.5H6.75A1.25116,1.25116,0,0,1,5.5,17.25V8.99854h13V11.25a.75.75,0,0,0,1.5,0V6.75A2.7528,2.7528,0,0,0,17.25,4H6.75A2.7528,2.7528,0,0,0,4,6.75v10.5A2.7528,2.7528,0,0,0,6.75,20Zm0-14.5h10.5A1.25116,1.25116,0,0,1,18.5,6.75v.74854H5.5V6.75A1.25116,1.25116,0,0,1,6.75,5.5Z"/><path d="M14.75,13.50293a.789.789,0,0,0,.75-.79395,1.98093,1.98093,0,0,0-1.97852-1.97851h-3.043A1.98093,1.98093,0,0,0,8.5,12.709v.0879a.71392.71392,0,0,0,.75.706A.789.789,0,0,0,10,12.709a.47929.47929,0,0,1,.47852-.47851h3.043A.50531.50531,0,0,1,14,12.79688.71392.71392,0,0,0,14.75,13.50293Z"/></svg>