<svg fill="currentColor" id="icons" xmlns="http://www.w3.org/2000/svg" viewBox="0 0 24 24"><title>06-06-product-show-m</title><rect id="canvas" width="24" height="24" style="fill:none"/><path d="M17.24707,14.05566c-2.07129,0-3.61963,2.03418-3.793,2.27051a1.12461,1.12461,0,0,0-.20166.5752l-.00537.0664.00635.06543a1.12422,1.12422,0,0,0,.20752.55567c.27978.37793,1.77588,2.26074,3.78613,2.26074,2.14063,0,3.71973-2.126,3.78272-2.21191a1.03155,1.03155,0,0,0,.21582-.63965,1.11931,1.11931,0,0,0-.21387-.72754C20.86475,16.044,19.33789,14.05566,17.24707,14.05566Zm0,4.29395A3.63587,3.63587,0,0,1,14.876,16.9541a3.64982,3.64982,0,0,1,2.37109-1.39844,3.70033,3.70033,0,0,1,2.40967,1.39746A3.68959,3.68959,0,0,1,17.24707,18.34961Z"/><path d="M6.75,20h4.5a.75.75,0,0,0,0-1.5H6.75A1.25116,1.25116,0,0,1,5.5,17.25V8.99854h13V11.25a.75.75,0,0,0,1.5,0V6.75A2.7528,2.7528,0,0,0,17.25,4H6.75A2.7528,2.7528,0,0,0,4,6.75v10.5A2.7528,2.7528,0,0,0,6.75,20Zm0-14.5h10.5A1.25116,1.25116,0,0,1,18.5,6.75v.74854H5.5V6.75A1.25116,1.25116,0,0,1,6.75,5.5Z"/><path d="M10.47852,10.73047A1.98093,1.98093,0,0,0,8.5,12.709v.0879a.71392.71392,0,0,0,.75.706A.789.789,0,0,0,10,12.709a.47929.47929,0,0,1,.47852-.47851h3.043A.50531.50531,0,0,1,14,12.79688a.71392.71392,0,0,0,.75.706.789.789,0,0,0,.75-.79395,1.98093,1.98093,0,0,0-1.97852-1.97851Z"/></svg>