<svg fill="currentColor" id="icons" xmlns="http://www.w3.org/2000/svg" viewBox="0 0 24 24"><title>06-03--product-add-m</title><rect id="canvas" width="24" height="24" style="fill:none"/><path d="M17.9502,16.28223v-2a.75.75,0,0,0-1.5,0v2h-2a.75.75,0,0,0,0,1.5h2v2a.75.75,0,0,0,1.5,0v-2h2a.75.75,0,0,0,0-1.5Z"/><path d="M6.75,20h4.5a.75.75,0,0,0,0-1.5H6.75A1.25116,1.25116,0,0,1,5.5,17.25V8.99854h13V11.25a.75.75,0,0,0,1.5,0V6.75A2.7528,2.7528,0,0,0,17.25,4H6.75A2.7528,2.7528,0,0,0,4,6.75v10.5A2.7528,2.7528,0,0,0,6.75,20Zm0-14.5h10.5A1.25116,1.25116,0,0,1,18.5,6.75v.74854H5.5V6.75A1.25116,1.25116,0,0,1,6.75,5.5Z"/><path d="M14.75,13.50293a.789.789,0,0,0,.75-.79395,1.98093,1.98093,0,0,0-1.97852-1.97851h-3.043A1.98093,1.98093,0,0,0,8.5,12.709v.0879a.71392.71392,0,0,0,.75.706A.789.789,0,0,0,10,12.709a.47929.47929,0,0,1,.47852-.47851h3.043A.50531.50531,0,0,1,14,12.79688.71392.71392,0,0,0,14.75,13.50293Z"/></svg>