<svg fill="currentColor" id="icons" xmlns="http://www.w3.org/2000/svg" viewBox="0 0 24 24"><title>06-05-product-search-m</title><rect id="canvas" width="24" height="24" style="fill:none"/><path d="M17.02539,14.02539a3,3,0,0,0,0,6,2.96627,2.96627,0,0,0,1.514-.42493l1.1803,1.1803a.74992.74992,0,0,0,1.06054-1.06055L19.60016,18.5401a2.96644,2.96644,0,0,0,.42523-1.51471A3.00328,3.00328,0,0,0,17.02539,14.02539Zm-1.5,3a1.5,1.5,0,1,1,1.5,1.5A1.50164,1.50164,0,0,1,15.52539,17.02539Z"/><path d="M6.75,20h4.5a.75.75,0,0,0,0-1.5H6.75A1.25116,1.25116,0,0,1,5.5,17.25V8.99854h13V11.25a.75.75,0,0,0,1.5,0V6.75A2.7528,2.7528,0,0,0,17.25,4H6.75A2.7528,2.7528,0,0,0,4,6.75v10.5A2.7528,2.7528,0,0,0,6.75,20Zm0-14.5h10.5A1.25116,1.25116,0,0,1,18.5,6.75v.74854H5.5V6.75A1.25116,1.25116,0,0,1,6.75,5.5Z"/><path d="M15.5,12.709a1.98093,1.98093,0,0,0-1.97852-1.97851h-3.043A1.98093,1.98093,0,0,0,8.5,12.709v.0879a.71392.71392,0,0,0,.75.706A.789.789,0,0,0,10,12.709a.47929.47929,0,0,1,.47852-.47851h3.043A.50531.50531,0,0,1,14,12.79688a.71392.71392,0,0,0,.75.706A.789.789,0,0,0,15.5,12.709Z"/></svg>