<svg fill="currentColor" id="icons" xmlns="http://www.w3.org/2000/svg" viewBox="0 0 24 24"><title>12-02-promo-check-out-m</title><rect id="canvas" width="24" height="24" style="fill:none"/><path d="M17.25,16.5a.7502.7502,0,0,0-.75.75,1.25116,1.25116,0,0,1-1.25,1.25H8.75A1.25116,1.25116,0,0,1,7.5,17.25V6.75A1.25116,1.25116,0,0,1,8.75,5.5h6.5A1.25116,1.25116,0,0,1,16.5,6.75a.75.75,0,0,0,1.5,0A2.7528,2.7528,0,0,0,15.25,4H8.75A2.7528,2.7528,0,0,0,6,6.75v10.5A2.7528,2.7528,0,0,0,8.75,20h6.5A2.7528,2.7528,0,0,0,18,17.25.7502.7502,0,0,0,17.25,16.5Z"/><path d="M16.07471,8.74268a.7499.7499,0,0,0-1.1045,1.01464L16.342,11.25H11.54053a.75.75,0,0,0,0,1.5H16.342l-1.37177,1.49268a.7499.7499,0,1,0,1.1045,1.01464l2.52734-2.75a.74962.74962,0,0,0,0-1.01464Z"/></svg>