<svg fill="currentColor" id="icons" xmlns="http://www.w3.org/2000/svg" viewBox="0 0 24 24"><title>12-03-promo-mobile-m</title><rect id="canvas" width="24" height="24" style="fill:none"/><path d="M15.25,4H8.75A2.7528,2.7528,0,0,0,6,6.75a.75.75,0,0,0,1.5,0A1.25116,1.25116,0,0,1,8.75,5.5h6.5A1.25116,1.25116,0,0,1,16.5,6.75v10.5a1.25116,1.25116,0,0,1-1.25,1.25H8.75A1.25116,1.25116,0,0,1,7.5,17.25a.75.75,0,0,0-1.5,0A2.7528,2.7528,0,0,0,8.75,20h6.5A2.7528,2.7528,0,0,0,18,17.25V6.75A2.7528,2.7528,0,0,0,15.25,4Z"/><path d="M6.29346,15.70117A.7496.7496,0,0,0,7.0791,15.77l2.20606-1.11133L11.49072,15.77a.75028.75028,0,0,0,1.07569-.80225l-.41407-2.312,1.75928-1.64258a.75008.75008,0,0,0-.4082-1.291l-2.458-.34229-1.09326-2.123a.75006.75006,0,0,0-1.3335-.00049L7.52441,9.37988l-2.458.34229a.75009.75009,0,0,0-.40821,1.291l1.75928,1.64258-.41406,2.312A.74861.74861,0,0,0,6.29346,15.70117ZM8.1167,10.81152a.75019.75019,0,0,0,.563-.39892l.60547-1.17481.60449,1.17432a.75039.75039,0,0,0,.56347.39941l1.28467.1792-.90722.84717a.75056.75056,0,0,0-.22657.68066l.2212,1.23633-1.20264-.60595a.75288.75288,0,0,0-.67481,0l-1.20312.60644.22119-1.23682a.75058.75058,0,0,0-.22656-.68066L6.832,10.99072Z"/></svg>