<svg fill="currentColor" id="icons" xmlns="http://www.w3.org/2000/svg" viewBox="0 0 24 24"><title>12-04-promo-activate-m</title><rect id="canvas" width="24" height="24" style="fill:none"/><path d="M9.40625,20.00146a1.7439,1.7439,0,0,1-1.55371-.95458l-.94336-1.84766a.245.245,0,0,0-.1084-.1084L4.95312,16.147A1.74106,1.74106,0,0,1,4.085,14.0498l.63867-1.97314a.24375.24375,0,0,0,0-.15381L4.085,9.94971A1.74011,1.74011,0,0,1,4.9541,7.853l1.8457-.94385a.241.241,0,0,0,.10938-.10889l.94336-1.84668A1.73907,1.73907,0,0,1,9.9502,4.08545l1.97265.63867a.2565.2565,0,0,0,.15332,0h.001l1.97363-.63867a1.74068,1.74068,0,0,1,2.09668.86767l.94336,1.84766a.245.245,0,0,0,.1084.1084l1.82422.93213a1.77371,1.77371,0,0,1,.88379,2.13232l-.63086,1.94971a.24375.24375,0,0,0,0,.15381l.63867,1.97314A1.74011,1.74011,0,0,1,19.0459,16.147l-1.8457.94385a.241.241,0,0,0-.10938.10889l-.94336,1.84668a1.74092,1.74092,0,0,1-2.09766.86816l-1.97265-.63867a.2565.2565,0,0,0-.15332,0l-1.97461.63867A1.75273,1.75273,0,0,1,9.40625,20.00146ZM9.41016,5.5a.24849.24849,0,0,0-.22168.13672L8.24512,7.4834a1.73989,1.73989,0,0,1-.7627.76172L5.63672,9.189a.24712.24712,0,0,0-.124.29834l.63867,1.97413a1.748,1.748,0,0,1,0,1.07666L5.5127,14.51221a.24807.24807,0,0,0,.123.29883l1.84766.94384a1.74417,1.74417,0,0,1,.76172.76123l.94336,1.84766a.2471.2471,0,0,0,.29882.124l1.97461-.63867a1.73526,1.73526,0,0,1,1.07715,0l1.97266.63867a.24944.24944,0,0,0,.2998-.12451l.94336-1.84668a1.73989,1.73989,0,0,1,.7627-.76172l1.8457-.94384a.24712.24712,0,0,0,.124-.29834l-.63867-1.97413a1.748,1.748,0,0,1,0-1.07666l.63086-1.94921a.27827.27827,0,0,0-.13867-.33545L16.5166,8.24512a1.74417,1.74417,0,0,1-.76172-.76123l-.94336-1.84766a.249.249,0,0,0-.29882-.124l-1.97461.63867a1.73526,1.73526,0,0,1-1.07715,0L9.48828,5.51221A.2603.2603,0,0,0,9.41016,5.5Z"/><path d="M13.97179,9.85254l-2.73438,2.71582-1.21972-1.16308a.75013.75013,0,1,0-1.03516,1.08593l1.748,1.667a.75009.75009,0,0,0,1.04589-.01075l3.252-3.23047a.74992.74992,0,0,0-1.05664-1.06445Z"/></svg>