<svg fill="currentColor" id="icons" xmlns="http://www.w3.org/2000/svg" viewBox="0 0 24 24"><title>01-04-public-readable-m</title><rect id="canvas" width="24" height="24" style="fill:none"/><path d="M16.99609,14.106c-2.07226,0-3.62011,2.03418-3.793,2.271a1.10354,1.10354,0,0,0-.20214.583l-.00391.05664.00488.05664a1.11828,1.11828,0,0,0,.20606.563c.16992.23145,1.72558,2.26367,3.78808,2.26367,2.08106,0,3.61524-1.98633,3.78321-2.21338a1.02637,1.02637,0,0,0,.21484-.63867,1.12888,1.12888,0,0,0-.21387-.72754C20.61328,16.09375,19.08691,14.106,16.99609,14.106Zm0,4.29394a3.63419,3.63419,0,0,1-2.373-1.394,3.6517,3.6517,0,0,1,2.373-1.3999,3.696,3.696,0,0,1,2.40723,1.395A3.68359,3.68359,0,0,1,16.99609,18.3999Z"/><path d="M11.25,19.5H6.75A1.25116,1.25116,0,0,1,5.5,18.25v-6.5A1.25116,1.25116,0,0,1,6.75,10.5h10.5a1.25116,1.25116,0,0,1,1.25,1.25.75.75,0,0,0,1.5,0A2.7528,2.7528,0,0,0,17.25,9h-.93066V7.22314a4.32044,4.32044,0,0,0-8.63868,0V9H6.75A2.7528,2.7528,0,0,0,4,11.75v6.5A2.7528,2.7528,0,0,0,6.75,21h4.5a.75.75,0,0,0,0-1.5ZM9.18066,7.22314a2.821,2.821,0,0,1,5.63868,0V9H9.18066Z"/></svg>