<svg fill="currentColor" id="icons" xmlns="http://www.w3.org/2000/svg" viewBox="0 0 24 24"><title>01-03-public-editable-m</title><rect id="canvas" width="24" height="24" style="fill:none"/><path d="M19.877,13.9201a.75016.75016,0,0,0-1.05755.00312l-.00348.00342L14.6283,18.15576l.00659,1.0603,1.05755-.00311.00342-.00342,4.18768-4.22912A.74944.74944,0,0,0,19.877,13.9201Z"/><path d="M11.25,19.5H6.75A1.25116,1.25116,0,0,1,5.5,18.25v-6.5A1.25116,1.25116,0,0,1,6.75,10.5h10.5a1.25116,1.25116,0,0,1,1.25,1.25.75.75,0,0,0,1.5,0A2.7528,2.7528,0,0,0,17.25,9h-.93066V7.22314a4.32044,4.32044,0,0,0-8.63868,0V9H6.75A2.7528,2.7528,0,0,0,4,11.75v6.5A2.7528,2.7528,0,0,0,6.75,21h4.5a.75.75,0,0,0,0-1.5ZM9.18066,7.22314a2.821,2.821,0,0,1,5.63868,0V9H9.18066Z"/></svg>