<svg fill="currentColor" id="icons" xmlns="http://www.w3.org/2000/svg" viewBox="0 0 24 24"><title>03-01-push-m</title><rect id="canvas" width="24" height="24" style="fill:none"/><path d="M15.25,4H9.27966A3.74408,3.74408,0,1,0,6,10.42419V17.25A2.75239,2.75239,0,0,0,8.748,20l6.49023.01562H15.25a2.749,2.749,0,0,0,2.75-2.75V6.75A2.75311,2.75311,0,0,0,15.25,4ZM4.5,6.75A2.25,2.25,0,1,1,6.75,9,2.25278,2.25278,0,0,1,4.5,6.75Zm12,10.51562a1.2503,1.2503,0,0,1-1.251,1.25h-.00586L8.75,18.5A1.25116,1.25116,0,0,1,7.5,17.25V10.42419A3.75628,3.75628,0,0,0,10.5,6.75a3.70441,3.70441,0,0,0-.23041-1.25H15.25A1.25116,1.25116,0,0,1,16.5,6.75Z"/></svg>