<svg fill="currentColor" id="icons" xmlns="http://www.w3.org/2000/svg" viewBox="0 0 24 24"><title>03-05-push-check-m</title><rect id="canvas" width="24" height="24" style="fill:none"/><path d="M11.75,18.5h-3A1.25116,1.25116,0,0,1,7.5,17.25V10.42419A3.75628,3.75628,0,0,0,10.5,6.75a3.70441,3.70441,0,0,0-.23041-1.25H15.25A1.25116,1.25116,0,0,1,16.5,6.75v5a.75.75,0,0,0,1.5,0v-5A2.7528,2.7528,0,0,0,15.25,4H9.27966A3.74408,3.74408,0,1,0,6,10.42419V17.25A2.7528,2.7528,0,0,0,8.75,20h3a.75.75,0,0,0,0-1.5ZM4.5,6.75A2.25,2.25,0,1,1,6.75,9,2.25278,2.25278,0,0,1,4.5,6.75Z"/><path d="M19.23145,14.67773l-2.73438,2.71582-1.21973-1.16308a.75013.75013,0,0,0-1.03515,1.08594l1.748,1.667a.75012.75012,0,0,0,1.0459-.01074l3.252-3.23047a.74993.74993,0,0,0-1.05664-1.06446Z"/></svg>