<svg fill="currentColor" id="icons" xmlns="http://www.w3.org/2000/svg" viewBox="0 0 24 24"><title>03-04-push-add-m</title><rect id="canvas" width="24" height="24" style="fill:none"/><path d="M11.75,18.5h-3A1.25116,1.25116,0,0,1,7.5,17.25V10.42419A3.75581,3.75581,0,0,0,10.5,6.75a3.70584,3.70584,0,0,0-.23035-1.25H15.25A1.25116,1.25116,0,0,1,16.5,6.75v5a.75.75,0,0,0,1.5,0v-5A2.7528,2.7528,0,0,0,15.25,4H9.27985A3.74413,3.74413,0,1,0,6,10.42419V17.25A2.7528,2.7528,0,0,0,8.75,20h3a.75.75,0,0,0,0-1.5ZM4.5,6.75A2.25,2.25,0,1,1,6.75,9,2.25246,2.25246,0,0,1,4.5,6.75Z"/><path d="M19.9502,16.25h-2v-2a.75.75,0,0,0-1.5,0v2h-2a.75.75,0,0,0,0,1.5h2v2a.75.75,0,0,0,1.5,0v-2h2a.75.75,0,0,0,0-1.5Z"/></svg>