<svg fill="currentColor" id="icons" xmlns="http://www.w3.org/2000/svg" viewBox="0 0 24 24"><title>03-01-push-s</title><rect id="canvas" width="24" height="24" style="fill:none"/><path d="M14.55078,6.68018H11.26062a2.75265,2.75265,0,0,0-1.79529-.67579,2.77036,2.77036,0,0,0-.75,5.43921v3.7771a2.76564,2.76564,0,0,0,2.75488,2.76123l3.07374.00733h.00732A2.76153,2.76153,0,0,0,17.312,15.228V9.44141A2.76447,2.76447,0,0,0,14.55078,6.68018ZM8.188,8.78174a1.27759,1.27759,0,1,1,1.27734,1.27783A1.27909,1.27909,0,0,1,8.188,8.78174ZM15.812,15.228a1.26116,1.26116,0,0,1-1.26074,1.26123h-.00342l-3.07422-.00733a1.26315,1.26315,0,0,1-1.2583-1.26123v-3.777A2.74359,2.74359,0,0,0,12.1734,8.18018h2.37738A1.26283,1.26283,0,0,1,15.812,9.44141Z"/></svg>