<svg fill="currentColor" id="icons" xmlns="http://www.w3.org/2000/svg" viewBox="0 0 24 24"><title>01-16-qr-code-scanner-m</title><rect id="canvas" width="24" height="24" style="fill:none"/><path d="M7.417,19.5H5.583A1.084,1.084,0,0,1,4.5,18.4165v-1.833a.75.75,0,0,0-1.5,0v1.833A2.58661,2.58661,0,0,0,5.583,21H7.417a.75.75,0,0,0,0-1.5Z"/><path d="M3.75,8.1665a.75019.75019,0,0,0,.75-.75V5.5835A1.084,1.084,0,0,1,5.583,4.5H7.417a.75.75,0,0,0,0-1.5H5.583A2.58661,2.58661,0,0,0,3,5.5835v1.833A.75019.75019,0,0,0,3.75,8.1665Z"/><path d="M18.417,3H16.583a.75.75,0,1,0,0,1.5h1.834A1.084,1.084,0,0,1,19.5,5.5835v1.833a.75.75,0,1,0,1.5,0V5.5835A2.58661,2.58661,0,0,0,18.417,3Z"/><path d="M20.25,15.8335a.75019.75019,0,0,0-.75.75v1.833A1.084,1.084,0,0,1,18.417,19.5H16.583a.75.75,0,0,0,0,1.5h1.834A2.58661,2.58661,0,0,0,21,18.4165v-1.833A.75019.75019,0,0,0,20.25,15.8335Z"/><path d="M20.25,11.25H3.75a.75.75,0,0,0,0,1.5h16.5a.75.75,0,0,0,0-1.5Z"/></svg>