<svg fill="currentColor" id="icons" xmlns="http://www.w3.org/2000/svg" viewBox="0 0 24 24"><title>02-03-qr-code-m</title><rect id="canvas" width="24" height="24" style="fill:none"/><path d="M10.501,6.89941H7.64941a.7502.7502,0,0,0-.75.75V10.501a.7502.7502,0,0,0,.75.75H10.501a.7502.7502,0,0,0,.75-.75V7.64941A.7502.7502,0,0,0,10.501,6.89941ZM9.751,9.751H8.39941V8.39941H9.751Z"/><path d="M10.501,12.83936H7.59277a.75019.75019,0,0,0-.75.75v2.9082a.7502.7502,0,0,0,.75.75H10.501a.7502.7502,0,0,0,.75-.75v-2.9082A.75019.75019,0,0,0,10.501,12.83936Zm-.75,2.9082H8.34277v-1.4082H9.751Z"/><path d="M13.499,11.16064h2.90821a.75019.75019,0,0,0,.75-.75V7.50244a.7502.7502,0,0,0-.75-.75H13.499a.7502.7502,0,0,0-.75.75v2.9082A.75019.75019,0,0,0,13.499,11.16064Zm.75-2.9082h1.40821v1.4082H14.249Z"/><path d="M17.12109,4.12891H15.01514a.75.75,0,0,0,0,1.5h2.10595a1.25115,1.25115,0,0,1,1.25,1.25V8.98486a.75.75,0,1,0,1.5,0V6.87891A2.75342,2.75342,0,0,0,17.12109,4.12891Z"/><path d="M15.60059,15.60059h-.47413a.75.75,0,1,0,0,1.5h1.22413a.7502.7502,0,0,0,.75-.75V13.499a.7502.7502,0,0,0-.75-.75H13.499a.7502.7502,0,0,0-.75.75v1.20655a.75.75,0,0,0,1.5,0V14.249h1.35157Z"/><path d="M4.87891,9.73486a.75019.75019,0,0,0,.75-.75V6.87891a1.25115,1.25115,0,0,1,1.25-1.25H8.98486a.75.75,0,0,0,0-1.5H6.87891a2.75342,2.75342,0,0,0-2.75,2.75V8.98486A.75018.75018,0,0,0,4.87891,9.73486Z"/><path d="M8.98486,18.37109H6.87891a1.25115,1.25115,0,0,1-1.25-1.25V15.01514a.75.75,0,0,0-1.5,0v2.10595a2.75342,2.75342,0,0,0,2.75,2.75H8.98486a.75.75,0,1,0,0-1.5Z"/><path d="M19.12109,14.26514a.75019.75019,0,0,0-.75.75v2.10595a1.25115,1.25115,0,0,1-1.25,1.25H15.01514a.75.75,0,1,0,0,1.5h2.10595a2.75342,2.75342,0,0,0,2.75-2.75V15.01514A.75018.75018,0,0,0,19.12109,14.26514Z"/></svg>