<svg fill="currentColor" id="icons" xmlns="http://www.w3.org/2000/svg" viewBox="0 0 24 24"><title>02-10-quotation-m</title><rect id="canvas" width="24" height="24" style="fill:none"/><path d="M17.78375,11.5c-.08362,4.18646-.90948,4.7536-2.93512,6.12939a.75042.75042,0,0,0,.84375,1.24122C18.3584,17.05859,19.292,15.96,19.292,10.75v-3A2.7528,2.7528,0,0,0,16.542,5h-.90625a2.7528,2.7528,0,0,0-2.75,2.75v1a2.7528,2.7528,0,0,0,2.75,2.75Zm-3.398-2.75v-1a1.25116,1.25116,0,0,1,1.25-1.25H16.542a1.25116,1.25116,0,0,1,1.25,1.25V10H15.63574A1.25116,1.25116,0,0,1,14.38574,8.75Z"/><path d="M7.458,11.5H9.606c-.08356,4.18689-.90851,4.754-2.93414,6.12939a.75042.75042,0,0,0,.84374,1.24122c2.666-1.81153,3.59864-2.91016,3.59864-8.12061v-3A2.7528,2.7528,0,0,0,8.36426,5H7.458a2.7528,2.7528,0,0,0-2.75,2.75v1A2.7528,2.7528,0,0,0,7.458,11.5ZM6.208,7.75A1.25116,1.25116,0,0,1,7.458,6.5h.90625a1.25116,1.25116,0,0,1,1.25,1.25V10H7.458a1.25116,1.25116,0,0,1-1.25-1.25Z"/></svg>