<svg fill="currentColor" id="icons" xmlns="http://www.w3.org/2000/svg" viewBox="0 0 24 24"><title>01-04-receive-m</title><rect id="canvas" width="24" height="24" style="fill:none"/><path d="M14.957,19.99756a1.20325,1.20325,0,0,1-.55469-.13623,1.13574,1.13574,0,0,1-.627-1.00733V17.70557H10.98926a.75.75,0,0,1,0-1.5h3.53613a.75019.75019,0,0,1,.75.75v1.19824l4.20606-3.65918-4.20606-3.68506V12a.7502.7502,0,0,1-.75.75H10.22461v1.14844a1.13574,1.13574,0,0,1-.627,1.00732,1.22823,1.22823,0,0,1-1.28614-.08887l-4.77734-4.146a1.50213,1.50213,0,0,1,0-2.29736L8.25391,4.27246a1.25619,1.25619,0,0,1,1.34375-.13379,1.13574,1.13574,0,0,1,.627,1.00733V6.29443h2.78613a.75.75,0,0,1,0,1.5H9.47461a.75019.75019,0,0,1-.75-.75V5.84619L4.51855,9.50537l4.20606,3.68506V12a.7502.7502,0,0,1,.75-.75h4.30078V10.10156a1.13574,1.13574,0,0,1,.627-1.00732,1.233,1.233,0,0,1,1.28614.08887l4.77734,4.146a1.50213,1.50213,0,0,1,0,2.29736l-4.71973,4.10108A1.34713,1.34713,0,0,1,14.957,19.99756Z"/></svg>