<svg fill="currentColor" id="icons" xmlns="http://www.w3.org/2000/svg" viewBox="0 0 24 24"><title>01-31-redo-m</title><rect id="canvas" width="24" height="24" style="fill:none"/><path d="M19.77637,11.46582l-5.3252-5.25a.74994.74994,0,1,0-1.05273,1.06836l4.0169,3.96027L7.375,11.25A3.36783,3.36783,0,0,0,4,14.51953,3.23376,3.23376,0,0,0,7.23,17.75H8.7998a.75.75,0,0,0,0-1.5H7.23A1.73233,1.73233,0,0,1,5.5,14.51855,1.84925,1.84925,0,0,1,7.37793,12.75l10.04858-.00555-4.02807,3.97137a.74994.74994,0,1,0,1.05273,1.06836l5.3252-5.25a.74981.74981,0,0,0,0-1.06836Z"/></svg>