<svg fill="currentColor" id="icons" xmlns="http://www.w3.org/2000/svg" viewBox="0 0 24 24"><title>01-24-refresh-m</title><rect id="canvas" width="24" height="24" style="fill:none"/><path d="M17.65723,6.34277a8.01008,8.01008,0,0,0-11.31446,0A7.92513,7.92513,0,0,0,4.05469,11.0625a.75028.75028,0,1,0,1.49023.17578,6.43847,6.43847,0,0,1,1.8584-3.835,6.50069,6.50069,0,1,1,.001,9.19434,6.5883,6.5883,0,0,1-.65729-.78223H9.165a.75.75,0,0,0,0-1.5H4.98535a.7502.7502,0,0,0-.75.75V19.25a.75.75,0,0,0,1.5,0V16.96344a8.1357,8.1357,0,0,0,.60742.69379A8.00053,8.00053,0,0,0,17.65723,6.34277Z"/></svg>