<svg fill="currentColor" id="icons" xmlns="http://www.w3.org/2000/svg" viewBox="0 0 24 24"><title>03-03-register-m</title><rect id="canvas" x="-0.1" width="24" height="24" style="fill:none"/><path d="M18.15039,13a.7502.7502,0,0,0-.75.75v2.5a1.25116,1.25116,0,0,1-1.25,1.25h-8.5a1.25116,1.25116,0,0,1-1.25-1.25V7.75a1.25116,1.25116,0,0,1,1.25-1.25h2.5a.75.75,0,0,0,0-1.5h-2.5a2.7528,2.7528,0,0,0-2.75,2.75v8.5a2.7528,2.7528,0,0,0,2.75,2.75h8.5a2.7528,2.7528,0,0,0,2.75-2.75v-2.5A.7502.7502,0,0,0,18.15039,13Z"/><path d="M19.0498,2.99072a2.17864,2.17864,0,0,0-1.80371.625l-.0166.01807-7.71191,7.8081a1.69238,1.69238,0,0,0-.48731,1.19678L9.04,14.2793a.74935.74935,0,0,0,.75.7456h.00488l1.63867-.01025a1.668,1.668,0,0,0,1.18653-.501L20.30469,6.7334A2.18386,2.18386,0,0,0,19.0498,2.99072ZM11.55273,13.46a.18069.18069,0,0,1-.1289.05469l-.88867.00537-.00489-.8916a.19248.19248,0,0,1,.05371-.13233l5.98755-6.06256.96564.96784ZM19.23828,5.6792l-.64661.6546L17.626,5.36591l.67871-.6872.00976-.00976a.68247.68247,0,0,1,.55664-.189.69652.69652,0,0,1,.51661.34375A.72756.72756,0,0,1,19.23828,5.6792Z"/></svg>