<svg fill="currentColor" xmlns="http://www.w3.org/2000/svg" viewBox="0 0 24 24"><title>01-24-rename-m</title><g id="transparent_canvas"><rect id="canvas" width="24" height="24" style="fill:none"/></g><g id="icons"><path d="M13.06055,11.24414a.75019.75019,0,0,1-.75-.74512l-.01172-1.98535a1.8725,1.8725,0,0,1,.53808-1.334l3.60938-3.65821A1.61312,1.61312,0,0,1,17.68652,3a1.72407,1.72407,0,0,1,1.2334.51562l1.01465,1.02149A1.78943,1.78943,0,0,1,19.93945,7.044h0l-3.57812,3.627a1.86135,1.86135,0,0,1-1.32324.56152l-1.97266.01172ZM17.68652,4.5h-.001a.23368.23368,0,0,0-.16993.07324L13.90625,8.23145a.38884.38884,0,0,0-.10742.27246l.00683,1.23535,1.22266-.00684a.375.375,0,0,0,.26465-.11426l3.57812-3.62695a.28754.28754,0,0,0-.00195-.39844l-1.01367-1.0205A.23551.23551,0,0,0,17.68652,4.5Zm1.71875,2.01758h0Z"/><path d="M17.5,21H13a.75.75,0,0,1,0-1.5h4.5a1.62833,1.62833,0,0,0,1.59961-1.65137v-.15234A1.62833,1.62833,0,0,0,17.5,16.04492H6.5a3.1513,3.1513,0,0,1,0-6.30176H9.9502a.75.75,0,0,1,0,1.5H6.5a1.6517,1.6517,0,0,0,0,3.30176h11a3.12968,3.12968,0,0,1,3.09961,3.15137v.15234A3.12968,3.12968,0,0,1,17.5,21Z"/></g></svg>