<svg fill="currentColor" id="icons" xmlns="http://www.w3.org/2000/svg" viewBox="0 0 24 24"><title>01-22-repeat-m</title><rect id="canvas" width="24" height="24" style="fill:none"/><path d="M17.24414,5.75781l-.63867-2.03906a.75023.75023,0,1,0-1.43164.44922l.18475.58978A7.98812,7.98812,0,0,0,5.00391,15.877a.74971.74971,0,1,0,1.31054-.72851A6.491,6.491,0,0,1,14.4928,6.00372l-.22522.092a.74987.74987,0,1,0,.5664,1.38868l1.97754-.80762A.75057.75057,0,0,0,17.24414,5.75781Z"/><path d="M18.99609,8.123a.74971.74971,0,1,0-1.31054.72851A6.491,6.491,0,0,1,9.5072,17.99628l.22522-.092a.74987.74987,0,0,0-.5664-1.38868l-1.97754.80762a.75057.75057,0,0,0-.43262.919l.63867,2.03906A.75023.75023,0,0,0,8.82617,19.832l-.18475-.58978A7.98812,7.98812,0,0,0,18.99609,8.123Z"/></svg>