<svg fill="currentColor" id="icons" xmlns="http://www.w3.org/2000/svg" viewBox="0 0 24 24"><title>01-23-repeat-loop-m</title><rect id="canvas" width="24" height="24" style="fill:none"/><path d="M17.668,6.03418a.75019.75019,0,1,0-.78711,1.27734A5.49462,5.49462,0,0,1,14,17.48828H11.98059l.28894-.3164a.75.75,0,1,0-1.10742-1.01172L9.72168,17.7373A.74963.74963,0,0,0,9.72461,18.752l1.44922,1.56836a.74982.74982,0,1,0,1.10156-1.01758l-.29047-.31445H14a6.9949,6.9949,0,0,0,3.668-12.9541Z"/><path d="M14.30078,5.24805,12.85059,3.67969A.74982.74982,0,0,0,11.749,4.69727l.26911.291H10a6.99571,6.99571,0,0,0-3.70312,12.9336.74976.74976,0,0,0,.79492-1.27149A5.49607,5.49607,0,0,1,10,6.48828h2.06555l-.31067.33984A.75.75,0,1,0,12.8623,7.83984L14.30371,6.2627A.74963.74963,0,0,0,14.30078,5.24805Z"/></svg>