<svg fill="currentColor" id="icons" xmlns="http://www.w3.org/2000/svg" viewBox="0 0 24 24"><title>04-03-replace-query-m</title><rect id="canvas" width="24" height="24" style="fill:none"/><path d="M8.1001,19.2998a3,3,0,0,0,0-6H5.7251a3,3,0,0,0,0,6Zm-3.875-3a1.50164,1.50164,0,0,1,1.5-1.5h2.375a1.5,1.5,0,0,1,0,3H5.7251A1.50164,1.50164,0,0,1,4.2251,16.2998Z"/><path d="M15.82184,14.76129A6.49514,6.49514,0,1,0,4.23438,10.73438a.75.75,0,0,0,1.5,0,5,5,0,1,1,6.8833,4.63281.75014.75014,0,0,0,.56543,1.38965,6.52884,6.52884,0,0,0,1.58429-.9289l3.718,3.718a.74992.74992,0,0,0,1.06055-1.06055Z"/></svg>