<svg fill="currentColor" id="icons" xmlns="http://www.w3.org/2000/svg" viewBox="0 0 24 24"><title>02-07-report-m</title><rect id="canvas" width="24" height="24" style="fill:none"/><path d="M16.85156,4.6499H15.59924l-.82483-1.05273A1.54611,1.54611,0,0,0,13.55176,3H10.44824a1.54382,1.54382,0,0,0-1.22168.59668L8.40088,4.6499H7.14844A2.3862,2.3862,0,0,0,4.78125,7.0498V18.6001A2.3862,2.3862,0,0,0,7.14844,21h9.70312a2.3862,2.3862,0,0,0,2.36719-2.3999V7.0498A2.3862,2.3862,0,0,0,16.85156,4.6499Zm-3.25781-.12744.875,1.1167-.043.66064L9.51562,6.2251V5.66357L10.44824,4.5Zm4.125,14.07764a.88485.88485,0,0,1-.86719.8999H7.14844a.88485.88485,0,0,1-.86719-.8999V7.0498a.88485.88485,0,0,1,.86719-.8999h.86718v.0752a1.56859,1.56859,0,0,0,1.5586,1.5747h4.85156a1.56859,1.56859,0,0,0,1.5586-1.5747V6.1499h.86718a.88485.88485,0,0,1,.86719.8999Z"/><path d="M14.875,15.2002H9.125a.75.75,0,1,0,0,1.5h5.75a.75.75,0,1,0,0-1.5Z"/><path d="M9.125,13.25h3.02539a.75.75,0,1,0,0-1.5H9.125a.75.75,0,0,0,0,1.5Z"/></svg>