<svg fill="currentColor" width="24" height="24" viewBox="0 0 24 24" xmlns="http://www.w3.org/2000/svg">
<path d="M13.1304 16.4381L8.71873 16.3944L16.3944 8.71871L16.4381 13.1304C16.4375 13.4004 16.582 13.6499 16.8166 13.7836C17.0511 13.9174 17.3395 13.9147 17.5715 13.7767C17.8036 13.6387 17.9435 13.3865 17.9379 13.1166L17.8765 6.86655C17.8734 6.45747 17.5425 6.12659 17.1335 6.12354L10.8834 6.0621C10.6135 6.0565 10.3614 6.19644 10.2233 6.4285C10.0853 6.66055 10.0826 6.94889 10.2164 7.18344C10.3501 7.41799 10.5996 7.56255 10.8696 7.56193L15.3852 7.6066L7.60662 15.3852L7.56195 10.8696C7.56258 10.5996 7.41802 10.3501 7.18346 10.2163C6.94891 10.0826 6.66057 10.0853 6.42852 10.2233C6.19647 10.3613 6.05653 10.6135 6.06212 10.8834L6.12356 17.1334C6.12726 17.5423 6.45776 17.8728 6.86657 17.8765L13.1166 17.9379C13.3866 17.9435 13.6387 17.8035 13.7767 17.5715C13.9148 17.3394 13.9174 17.0511 13.7837 16.8166C13.6499 16.582 13.4004 16.4374 13.1304 16.4381Z" />
</svg>
