<svg fill="currentColor" id="icons" xmlns="http://www.w3.org/2000/svg" viewBox="0 0 24 24"><title>03-01-restaurant-m</title><rect id="canvas" width="24" height="24" style="fill:none"/><path d="M10.38428,4a.75019.75019,0,0,0-.75.75V8.89307a1.25192,1.25192,0,1,1-2.5,0V4.75a.75.75,0,0,0-1.5,0V8.89307a2.806,2.806,0,0,0,2,2.70117V19.25a.75.75,0,0,0,1.5,0V11.59424a2.806,2.806,0,0,0,2-2.70117V4.75A.7502.7502,0,0,0,10.38428,4Z"/><path d="M14.38428,20a.75019.75019,0,0,1-.75-.75V4.75a.75008.75008,0,0,1,1.27-.54053l.46924.45117A9.79777,9.79777,0,0,1,18.36572,11.689v2.01856a.75019.75019,0,0,1-.75.75H15.13428V19.25A.7502.7502,0,0,1,14.38428,20Zm.75-7.04248h1.73144V11.689a8.29634,8.29634,0,0,0-1.73144-5.05517Z"/></svg>