<?xml version="1.0" encoding="utf-8"?>
<!-- Generator: Adobe Illustrator 25.2.1, SVG Export Plug-In . SVG Version: 6.00 Build 0)  -->
<svg fill="currentColor" version="1.1" id="Warstwa_1" xmlns="http://www.w3.org/2000/svg" xmlns:xlink="http://www.w3.org/1999/xlink" x="0px" y="0px"
	 viewBox="0 0 26 26" style="enable-background:new 0 0 26 26;" xml:space="preserve">
<style type="text/css">
	.st0{fill:#B88CEE;}
	.st1{fill:#6D2ED3;}
</style>
<g>
	<path class="st0" d="M21.1049,5.889C21.0461,4.8292,20.1695,4,19.108,4H6.892c-1.0615,0-1.938,0.8292-1.9969,1.889l-0.7778,14
		C4.1152,19.926,4.1142,19.963,4.1142,20c0,1.1046,0.8954,2,2,2h13.7716c0.037,0,0.074-0.001,0.111-0.0031
		c1.1028-0.0613,1.9472-1.005,1.886-2.1079L21.1049,5.889z M17.75,12c-0.0005,2.6235-2.1265,4.7495-4.75,4.75
		c-2.6235-0.0005-4.7495-2.1265-4.75-4.75V8.2305c0-0.4142,0.3358-0.75,0.75-0.75s0.75,0.3358,0.75,0.75V12
		c0.0032,1.7944,1.4556,3.2468,3.25,3.25c1.7944-0.0032,3.2468-1.4556,3.25-3.25V8.2305c0-0.4142,0.3358-0.75,0.75-0.75
		s0.75,0.3358,0.75,0.75V12z"/>
</g>
<path class="st1" d="M8.25,8.2305c0-0.4142,0.3358-0.75,0.75-0.75s0.75,0.3358,0.75,0.75V10.5h6.5V8.2305
	c0-0.4142,0.3358-0.75,0.75-0.75s0.75,0.3358,0.75,0.75V10.5h3.61l-0.2551-4.611C21.0461,4.8292,20.1695,4,19.108,4H6.892
	c-1.0615,0-1.938,0.8292-1.9969,1.889L4.639,10.5H8.25V8.2305z"/>
</svg>
