<?xml version="1.0" encoding="utf-8"?>
<!-- Generator: Adobe Illustrator 25.2.1, SVG Export Plug-In . SVG Version: 6.00 Build 0)  -->
<svg fill="currentColor" version="1.1" id="Warstwa_1" xmlns="http://www.w3.org/2000/svg"
	xmlns:xlink="http://www.w3.org/1999/xlink" x="0px" y="0px"
	viewBox="0 0 26 26" style="enable-background:new 0 0 26 26;" xml:space="preserve">
<path  d="M21.1049,5.889C21.0461,4.8292,20.1695,4,19.108,4H6.892c-1.0615,0-1.938,0.8292-1.9969,1.889L4.115,19.9445
	l0.0047,0.2047C4.196,21.1841,5.0598,22,6.1142,22l13.8271-0.0008l0.2042-0.0161c1.0291-0.1336,1.7958-1.0414,1.7373-2.0941
	L21.1049,5.889z M6.405,5.8863C6.4567,5.6638,6.6561,5.5,6.892,5.5H19.108l0.0865,0.0074c0.225,0.0393,0.3996,0.2293,0.4127,0.4648
	L19.8171,9.75H17.75V8.2307l-0.0068-0.1018C17.6935,7.7628,17.3797,7.4807,17,7.4807c-0.4142,0-0.75,0.3358-0.75,0.75V9.75h-6.5
	V8.2307L9.7432,8.1288C9.6935,7.7628,9.3797,7.4807,9,7.4807c-0.4142,0-0.75,0.3358-0.75,0.75V9.75H6.1829l0.2099-3.7777
	L6.405,5.8863z M9.75,11.25h6.5V12l-0.0051,0.1844C16.1492,13.8936,14.733,15.25,13,15.25c-1.7949,0-3.25-1.4551-3.25-3.25V11.25z
	 M20.382,20.0624c-0.0293,0.2352-0.2233,0.4232-0.4684,0.4368L6.1142,20.5l-0.0899-0.0081C5.7911,20.4496,5.6142,20.2455,5.6142,20
	l0.0008-0.0277L6.0995,11.25H8.25V12l0.0049,0.2174C8.3685,14.7399,10.4495,16.75,13,16.75c2.6234,0,4.75-2.1266,4.75-4.75v-0.75
	h2.1505l0.4846,8.7223L20.382,20.0624z"/>
</svg>