<svg fill="currentColor" id="icons" xmlns="http://www.w3.org/2000/svg" viewBox="0 0 24 24"><title>03-10-ruble-circle-m</title><rect id="canvas" width="24" height="24" style="fill:none"/><path d="M12,4a8,8,0,1,0,8,8A8.00917,8.00917,0,0,0,12,4Zm0,14.5A6.5,6.5,0,1,1,18.5,12,6.50753,6.50753,0,0,1,12,18.5Z"/><path d="M13.34277,7.27979H10.24316a.75019.75019,0,0,0-.75.75V11.1123H8.58545a.75.75,0,0,0,0,1.5h.90771v.9834H8.58545a.75.75,0,0,0,0,1.5h.90771v1.0542a.75.75,0,0,0,1.5,0V15.0957h1.98243a.75.75,0,0,0,0-1.5H10.99316v-.9834h2.48438a.71052.71052,0,0,0,.12091-.02441,2.72555,2.72555,0,0,0,2.5661-2.64209A2.75008,2.75008,0,0,0,13.34277,7.27979Zm0,3.83251H10.99316V8.77979h2.34961a1.25247,1.25247,0,0,1,1.32178,1.166A1.25285,1.25285,0,0,1,13.34277,11.1123Z"/></svg>