<svg fill="currentColor" id="icons" xmlns="http://www.w3.org/2000/svg" viewBox="0 0 24 24"><title>03-05-ruble-m</title><rect id="canvas" width="24" height="24" style="fill:none"/><path d="M14.39746,4H8.8623a.7502.7502,0,0,0-.75.75v6.09277h-2.21a.75.75,0,0,0,0,1.5h2.21v2.93506h-2.21a.75.75,0,1,0,0,1.5h2.21V19.25a.75.75,0,0,0,1.5,0V16.77783h4.12989a.75.75,0,1,0,0-1.5H9.6123V12.34277h5.0254a.728.728,0,0,0,.21234-.0429,4.2755,4.2755,0,0,0,3.99762-4.12848A4.32218,4.32218,0,0,0,14.39746,4Zm0,6.84277H9.6123V5.5h4.78516a2.82419,2.82419,0,0,1,2.9502,2.67139A2.82418,2.82418,0,0,1,14.39746,10.84277Z"/></svg>