<svg fill="currentColor" id="icons" xmlns="http://www.w3.org/2000/svg" viewBox="0 0 24 24"><title>01-06-safari-fill-m</title><rect id="canvas" width="24" height="24" style="fill:#fff;fill-opacity:0.1"/><path d="M12,3.02832A9.053,9.053,0,0,0,2.8877,12a9.1134,9.1134,0,0,0,18.2246,0A9.053,9.053,0,0,0,12,3.02832Zm4.43748,13.51807a.74942.74942,0,0,1-.84178.15185l-5.47461-2.498c-.01336-.00611-.02069-.01972-.03363-.02655a1.36334,1.36334,0,0,1-.34527-.33576L7.24414,8.36328a.75022.75022,0,0,1,.99414-.99365l5.47559,2.49756c.01416.00641.02191.02081.03552.02807a1.38149,1.38149,0,0,1,.34338.33521l2.49707,5.47461A.749.749,0,0,1,16.43748,16.54639Z"/><polygon points="10.658 12.232 12.107 10.783 9.442 9.567 10.658 12.232"/></svg>