<svg fill="currentColor" id="icons" xmlns="http://www.w3.org/2000/svg" viewBox="0 0 24 24"><title>01-05-safari-m</title><rect id="canvas" width="24" height="24" style="fill:#fff;fill-opacity:0.1"/><path d="M12,3.02783A9.05338,9.05338,0,0,0,2.8877,12a9.11339,9.11339,0,0,0,18.2246,0A9.05338,9.05338,0,0,0,12,3.02783Zm.75,16.407v-.85724a.75.75,0,0,0-1.5,0v.85724a7.5545,7.5545,0,0,1-6.82507-6.7132h.99792a.75.75,0,0,0,0-1.5H4.42944a7.55651,7.55651,0,0,1,6.87842-6.65942.74594.74594,0,0,0-.05786.28637v.51709a.75.75,0,0,0,1.5,0V4.84863a.74594.74594,0,0,0-.05786-.28637,7.55651,7.55651,0,0,1,6.87842,6.65942h-.93677a.75.75,0,0,0,0,1.5h.94128A7.5545,7.5545,0,0,1,12.75,19.43488Z"/><path d="M14.09277,10.23047a162.1609,162.1609,0,0,1-.13495-.17053.71584.71584,0,0,0-.20843-.16468c-.01361-.00726-.02136-.02166-.03552-.02807L8.23828,7.36963a.75022.75022,0,0,0-.99414.99365l2.49805,5.47461a.72457.72457,0,0,0,.08136.10272.76741.76741,0,0,0,.26391.233c.01294.00683.02027.02044.03363.02655l5.47461,2.498a.75007.75007,0,0,0,.99414-.99316Zm-1.98535.55273L10.6582,12.23193,9.44238,9.56738Z"/></svg>