<svg fill="currentColor" id="icons" xmlns="http://www.w3.org/2000/svg" viewBox="0 0 24 24"><title>01-09-sankey-m</title><rect id="canvas" width="24" height="24" style="fill:none"/><path d="M4.77734,9.13818a.7502.7502,0,0,0-.75.75v2.79053a.75.75,0,0,0,1.5,0V9.88818A.75019.75019,0,0,0,4.77734,9.13818Z"/><path d="M4.77734,15.14355a.7502.7502,0,0,0-.75.75v2.79053a.75.75,0,0,0,1.5,0V15.89355A.75019.75019,0,0,0,4.77734,15.14355Z"/><path d="M17.36865,12.05078h1.854a.75.75,0,0,0,0-1.5h-1.854a4.43416,4.43416,0,0,0-3.76074,2.10889l-.00854.014-.00855-.014a4.387,4.387,0,0,0-1.32947-1.36316,4.38851,4.38851,0,0,0,1.31677-1.3551L15.0957,7.457a2.92719,2.92719,0,0,1,2.48145-1.39111h1.63232a.75.75,0,0,0,0-1.5H17.57715A4.4362,4.4362,0,0,0,13.81592,6.6748L12.29785,9.15918a2.92488,2.92488,0,0,1-2.48047,1.3916H7.96289a.75.75,0,1,0,0,1.5H9.83057A2.92554,2.92554,0,0,1,12.311,13.44189l.4093.66987-.631,1.03228a2.92365,2.92365,0,0,1-2.48047,1.3916H7.97607a.75.75,0,0,0,0,1.5H9.60889a4.43461,4.43461,0,0,0,3.76074-2.10937l.2298-.37592.22967.37592a4.43494,4.43494,0,0,0,3.76123,2.10937h1.63233a.75.75,0,1,0,0-1.5H17.59033a2.92507,2.92507,0,0,1-2.481-1.3916l-.6308-1.032.4096-.67017A2.9243,2.9243,0,0,1,17.36865,12.05078Z"/></svg>