<svg fill="currentColor" xmlns="http://www.w3.org/2000/svg" viewBox="0 0 24 24"><title>01-25-save-m</title><g id="transparent_canvas"><rect id="canvas" width="24" height="24" style="fill:none"/></g><g id="icons"><path d="M19.19434,8.63379,15.36621,4.80566A2.73171,2.73171,0,0,0,13.42188,4H6.75A2.7528,2.7528,0,0,0,4,6.75v10.5A2.7528,2.7528,0,0,0,6.75,20h10.5A2.7528,2.7528,0,0,0,20,17.25V10.57812A2.73171,2.73171,0,0,0,19.19434,8.63379ZM9,5.5h3V8.18164c0,.11914-.0752.20215-.14355.20215H9.14355C9.0752,8.38379,9,8.30078,9,8.18164Zm9.5,11.75a1.25116,1.25116,0,0,1-1.25,1.25H6.75A1.25116,1.25116,0,0,1,5.5,17.25V6.75A1.25116,1.25116,0,0,1,6.75,5.5H7.5V8.18164A1.67558,1.67558,0,0,0,9.14355,9.88379h2.7129A1.67558,1.67558,0,0,0,13.5,8.18164V5.51569a1.25167,1.25167,0,0,1,.80566.35052l3.82813,3.82813a1.25907,1.25907,0,0,1,.36621.88378Z"/><path d="M15.75,14.62109H8.25a.75.75,0,1,0,0,1.5h7.5a.75.75,0,0,0,0-1.5Z"/><path d="M15.75,11.6416H8.25a.75.75,0,0,0,0,1.5h7.5a.75.75,0,0,0,0-1.5Z"/></g></svg>