<svg fill="currentColor" id="icons" xmlns="http://www.w3.org/2000/svg" viewBox="0 0 24 24"><title>02-08-score-m</title><rect id="canvas" width="24" height="24" style="fill:none"/><path d="M3.08008,16.67706a.62168.62168,0,0,0,.08691.26429.71891.71891,0,0,0,.08777.12762c.01416.0163.02.0368.03577.05212a.70511.70511,0,0,0,.07171.04651.69642.69642,0,0,0,.06208.057l2.11425,1.27832,1.26807,2.13086c.01245.02093.03558.029.04968.04828a.70686.70686,0,0,0,.07972.11285.71507.71507,0,0,0,.10491.06653.70762.70762,0,0,0,.08545.0542A.74381.74381,0,0,0,7.45117,21l.00025-.00006L7.45166,21l.00134-.00037a.74259.74259,0,0,0,.33985-.0935c.01349-.007.02887-.00379.04211-.0116a.70758.70758,0,0,0,.08441-.07648.70632.70632,0,0,0,.07672-.0534L11.27393,17.296a7.13764,7.13764,0,0,0,1.45086.00006l3.27912,3.46954a.79373.79373,0,0,1,.16113.12891c.01294.00769.028.00452.0412.01135a.74391.74391,0,0,0,.33893.09339L16.54785,21l.00043-.00012L16.54883,21a.74594.74594,0,0,0,.325-.08447.71081.71081,0,0,0,.08423-.05329.72019.72019,0,0,0,.10644-.06732.71272.71272,0,0,0,.08063-.11426c.01367-.01873.03613-.02655.04828-.04687l1.26855-2.13086,2.11329-1.27832a.7078.7078,0,0,0,.06018-.05518.72333.72333,0,0,0,.07458-.04834c.01636-.01587.02252-.03717.03717-.05413a.75369.75369,0,0,0,.10346-.812c-.00959-.01941-.01007-.04077-.02149-.05963a.49874.49874,0,0,1-.10351-.13476l-2.447-2.5243a7.11816,7.11816,0,1,0-12.55719-.00006L3.27393,16.06055a.70471.70471,0,0,0-.04767.0744.70166.70166,0,0,0-.05536.06036c-.01129.01874-.01172.03992-.02124.05915a.69154.69154,0,0,0-.06958.4226Zm15.91345-.24823-1.46814.88758a.75443.75443,0,0,0-.25684.25781l-.85644,1.4389-1.99768-2.11364a7.13654,7.13654,0,0,0,3.00329-2.0962ZM12,4.5a5.66671,5.66671,0,1,1-5.61816,5.6665A5.649,5.649,0,0,1,12,4.5ZM9.586,16.8996,7.58826,19.01367l-.85681-1.43945a.753.753,0,0,0-.25635-.25781L5.007,16.42889,6.5827,14.80371A7.13674,7.13674,0,0,0,9.586,16.8996Z"/><path d="M10.96783,9.61566l.51709-.48047v3.78125a.75.75,0,0,0,1.5,0v-5.5a.75006.75006,0,0,0-1.26025-.5498L9.94733,8.51605a.75009.75009,0,0,0,1.0205,1.09961Z"/></svg>