<svg fill="currentColor" id="icons" xmlns="http://www.w3.org/2000/svg" viewBox="0 0 24 24"><title>04-06-screen-expand-m</title><rect id="canvas" width="24" height="24" style="fill:none"/><path d="M15.61133,8.43555a.75182.75182,0,0,0-1.06153-.00684l-2.64123,2.60706L9.26709,8.42871A.74993.74993,0,1,0,8.21338,9.49609l2.6272,2.59381L7.94873,14.94434A.75028.75028,0,0,0,9.00244,16.0127l2.90607-2.86847L14.5498,15.752a.75063.75063,0,1,0,1.05469-1.06836L12.97662,12.09l2.62787-2.59388A.75062.75062,0,0,0,15.61133,8.43555Z"/><path d="M9.52734,17.5H6.5V14.47266a.75.75,0,1,0-1.5,0V18.25a.7502.7502,0,0,0,.75.75H9.52734a.75.75,0,1,0,0-1.5Z"/><path d="M18.25,5H14.47266a.75.75,0,1,0,0,1.5H17.5V9.52783a.75.75,0,1,0,1.5,0V5.75A.7502.7502,0,0,0,18.25,5Z"/><path d="M18.25,13.72266a.75019.75019,0,0,0-.75.75V17.5H14.47266a.75.75,0,1,0,0,1.5H18.25a.7502.7502,0,0,0,.75-.75V14.47266A.75019.75019,0,0,0,18.25,13.72266Z"/><path d="M9.52734,5H5.75A.7502.7502,0,0,0,5,5.75V9.52783a.75.75,0,0,0,1.5,0V6.5H9.52734a.75.75,0,0,0,0-1.5Z"/></svg>