<svg fill="currentColor" id="icons" xmlns="http://www.w3.org/2000/svg" viewBox="0 0 24 24"><title>04-01-screen-view-m</title><rect id="canvas" width="24" height="24" style="fill:none"/><path d="M17.25,16H6.75A2.7528,2.7528,0,0,1,4,13.25V6.75A2.7528,2.7528,0,0,1,6.75,4h10.5A2.7528,2.7528,0,0,1,20,6.75v6.5A2.7528,2.7528,0,0,1,17.25,16ZM6.75,5.5A1.25116,1.25116,0,0,0,5.5,6.75v6.5A1.25116,1.25116,0,0,0,6.75,14.5h10.5a1.25116,1.25116,0,0,0,1.25-1.25V6.75A1.25116,1.25116,0,0,0,17.25,5.5Z"/><path d="M17.625,19.96143a.76625.76625,0,0,1-.10547-.00733,40.30327,40.30327,0,0,0-10.543-.09521l-.50879.0625a.74978.74978,0,1,1-.18359-1.48828l.50879-.063a41.769,41.769,0,0,1,10.93555.09863.75.75,0,0,1-.10352,1.49268Z"/><circle cx="12" cy="10" r="1"/><path d="M11.999,13.78906c-2.61523,0-4.57129-2.78515-4.78515-3.10254a1.2892,1.2892,0,0,1-.208-.61035L7.001,10.0166l.0039-.06006A1.28667,1.28667,0,0,1,7.21,9.31982c.21582-.32226,2.166-3.10888,4.78906-3.10888,2.61328,0,4.56446,2.71728,4.77832,3.02685a1.31111,1.31111,0,0,1,.22071.8086,1.19855,1.19855,0,0,1-.22071.71484C16.56543,11.07031,14.62891,13.78906,11.999,13.78906ZM8.56738,10c.40137.53516,1.83789,2.28906,3.43164,2.28906,1.68555,0,3.16407-1.86426,3.4795-2.29052-.60547-.83692-2.02735-2.2876-3.4795-2.2876C10.39844,7.71094,8.9668,9.46533,8.56738,10ZM15.5,10.02881v.022l.001-.02Zm.04-.11621v0Z"/></svg>