<svg fill="currentColor" id="icons" xmlns="http://www.w3.org/2000/svg" viewBox="0 0 24 24"><title>04-07-screen-minimize-m</title><rect id="canvas" width="24" height="24" style="fill:none"/><path d="M18.25,5H14.47266a.75.75,0,1,0,0,1.5H17.5V9.52783a.75.75,0,1,0,1.5,0V5.75A.7502.7502,0,0,0,18.25,5Z"/><path d="M18.25,13.72266a.75019.75019,0,0,0-.75.75V17.5H14.47266a.75.75,0,1,0,0,1.5H18.25a.7502.7502,0,0,0,.75-.75V14.47266A.75019.75019,0,0,0,18.25,13.72266Z"/><path d="M5.75,10.27783a.7502.7502,0,0,0,.75-.75V6.5H9.52734a.75.75,0,0,0,0-1.5H5.75A.7502.7502,0,0,0,5,5.75V9.52783A.7502.7502,0,0,0,5.75,10.27783Z"/><path d="M11.6416,11.29785,6.5,16.43945V14.47266a.75.75,0,1,0-1.5,0V18.25a.7528.7528,0,0,0,.75.75H9.52734a.75.75,0,1,0,0-1.5H7.56055l5.1416-5.1416a.74992.74992,0,0,0-1.06055-1.06055Z"/></svg>