<svg fill="currentColor" id="icons" xmlns="http://www.w3.org/2000/svg" viewBox="0 0 24 24"><title>04-02-search-no-results-m</title><rect id="canvas" width="24" height="24" style="fill:none"/><path d="M4.78027,19.78027,6.75,17.81055l1.96973,1.96972a.74992.74992,0,1,0,1.06054-1.06054L7.81055,16.75l1.96972-1.96973a.74992.74992,0,0,0-1.06054-1.06054L6.75,15.68945,4.78027,13.71973a.74992.74992,0,0,0-1.06054,1.06054L5.68945,16.75,3.71973,18.71973a.74992.74992,0,1,0,1.06054,1.06054Z"/><path d="M15.82184,14.76129A6.49514,6.49514,0,1,0,4.23438,10.73438a.75.75,0,0,0,1.5,0,5,5,0,1,1,6.8833,4.63281.75014.75014,0,0,0,.56543,1.38965,6.52884,6.52884,0,0,0,1.58429-.9289l3.718,3.718a.74992.74992,0,0,0,1.06055-1.06055Z"/></svg>