<svg fill="currentColor" id="icons" xmlns="http://www.w3.org/2000/svg" viewBox="0 0 24 24"><title>02-14-section-remove-m</title><rect id="canvas" width="24" height="24" style="fill:none"/><path d="M4.78369,20.01367a.7502.7502,0,0,0,.75-.75V14.3418H11.269a.75.75,0,0,0,0-1.5H5.53369V5.57227H18.28955l-1.458,5.67187a.75013.75013,0,0,0,1.45313.37305l1.69873-6.6084a.74968.74968,0,0,0-.72656-.93652H4.78369a.75019.75019,0,0,0-.75.75v14.4414A.7502.7502,0,0,0,4.78369,20.01367Z"/><path d="M20.03271,13.9873a.74973.74973,0,0,0-1.06054,0L17.00244,15.957,15.03271,13.9873a.74992.74992,0,0,0-1.06054,1.06055l1.96972,1.96973L13.97217,18.9873a.74992.74992,0,1,0,1.06054,1.06055l1.96973-1.96973,1.96973,1.96973a.74992.74992,0,0,0,1.06054-1.06055L18.063,17.01758l1.96972-1.96973A.74973.74973,0,0,0,20.03271,13.9873Z"/></svg>