<svg fill="currentColor" id="icons" xmlns="http://www.w3.org/2000/svg" viewBox="0 0 24 24"><title>02-03-segment-ai-m</title><rect id="canvas" x="-0.1" width="24" height="24" style="fill:none"/><path d="M15.82812,14.06689A2.10139,2.10139,0,0,0,13.72949,16.166v3.09472a.75.75,0,0,0,1.5,0v-.71289h1.19727v.71289a.75.75,0,0,0,1.5,0V16.166A2.10139,2.10139,0,0,0,15.82812,14.06689Zm-.59863,2.981V16.166a.59864.59864,0,1,1,1.19727,0v.88183Z"/><path d="M19.52441,14.06689a.7502.7502,0,0,0-.75.75v4.44385a.75.75,0,0,0,1.5,0V14.81689A.75019.75019,0,0,0,19.52441,14.06689Z"/><path d="M12,11.7002A3.87427,3.87427,0,1,0,8.13086,7.82568,3.87612,3.87612,0,0,0,12,11.7002Zm0-6.24854a2.37428,2.37428,0,1,1-2.36914,2.374A2.37406,2.37406,0,0,1,12,5.45166Z"/><path d="M12.4248,12.75H8.77539a4.7554,4.7554,0,0,0-4.75,4.75v.76074a1.75212,1.75212,0,0,0,1.75,1.75h5.5a.75.75,0,1,0,0-1.5h-5.5a.25048.25048,0,0,1-.25-.25V17.5a3.25377,3.25377,0,0,1,3.25-3.25H12.4248a.75.75,0,0,0,0-1.5Z"/></svg>