<svg fill="currentColor" id="icons" xmlns="http://www.w3.org/2000/svg" viewBox="0 0 24 24"><title>10-03-select-menu-m</title><rect id="canvas" width="24" height="24" style="fill:none"/><path d="M18.25,2.99854H5.75977a2.75342,2.75342,0,0,0-2.75,2.75V5.75H3V18.31006a2.69371,2.69371,0,0,0,2.68994,2.6914H12.75a2.69371,2.69371,0,0,0,2.68994-2.6914V9.71631H18.25a2.75343,2.75343,0,0,0,2.75-2.75V5.74854A2.75342,2.75342,0,0,0,18.25,2.99854Zm-13.74023,2.75a1.25115,1.25115,0,0,1,1.25-1.25h8.18017V8.21631H5.75977a1.25116,1.25116,0,0,1-1.25-1.25Zm9.43017,12.56152A1.19207,1.19207,0,0,1,12.75,19.50146H5.68994A1.19207,1.19207,0,0,1,4.5,18.31006V9.3963a2.71381,2.71381,0,0,0,1.25977.32h8.18017ZM19.5,6.96631a1.25116,1.25116,0,0,1-1.25,1.25H15.43994V4.49854H18.25a1.25116,1.25116,0,0,1,1.25,1.25Z"/><path d="M6.97021,13.13818h4.5a.75.75,0,0,0,0-1.5h-4.5a.75.75,0,0,0,0,1.5Z"/><path d="M6.97021,15.38818h4.5a.75.75,0,0,0,0-1.5h-4.5a.75.75,0,0,0,0,1.5Z"/><path d="M6.97021,17.63818h4.5a.75.75,0,1,0,0-1.5h-4.5a.75.75,0,0,0,0,1.5Z"/><path d="M18.1499,5.59521H16.75a.75.75,0,0,0,0,1.5h1.3999a.75.75,0,0,0,0-1.5Z"/></svg>