<svg fill="currentColor" xmlns="http://www.w3.org/2000/svg" viewBox="0 0 24 24"><title>01-19-select-m</title><g id="transparent_canvas"><rect id="canvas" width="24" height="24" style="fill:none"/></g><g id="icons"><path d="M15.61523,20a.75.75,0,1,1,0-1.5h1.82911a.75776.75776,0,0,1,.75976.749.7417.7417,0,0,1-.73926.75v-.00488Zm-2.74414,0H11.041a.75.75,0,0,1,0-1.5h1.83007a.75.75,0,1,1,0,1.5ZM8.29688,20H6.55566l-.1123-.002a.75186.75186,0,0,1-.72461-.77539.73926.73926,0,0,1,.77539-.72461l1.80274.002a.75.75,0,1,1,0,1.5ZM19.25,18.2666c-.01074,0-.02148,0-.03223-.001A.74856.74856,0,0,1,18.5,17.48535V15.68652a.75.75,0,0,1,1.5,0v1.75782c0,.01074-.001.09277-.002.10351A.74938.74938,0,0,1,19.25,18.2666Zm-14.5-.06933A.7477.7477,0,0,1,4,17.4502V15.62012a.75.75,0,0,1,1.5,0v1.82422A.7527.7527,0,0,1,4.75,18.19727Zm14.5-4.50489a.75019.75019,0,0,1-.75-.75v-1.8291a.75.75,0,0,1,1.5,0v1.8291A.75019.75019,0,0,1,19.25,13.69238ZM4.75,13.626a.7502.7502,0,0,1-.75-.75v-1.8291a.75.75,0,0,1,1.5,0V12.876A.7502.7502,0,0,1,4.75,13.626Zm14.5-4.50684a.7502.7502,0,0,1-.75-.75V6.55566a.75691.75691,0,0,1,.75-.75781A.74357.74357,0,0,1,20,6.54v1.8291A.7502.7502,0,0,1,19.25,9.11914ZM4.75,9.05273a.75019.75019,0,0,1-.75-.75V6.55566L4.002,6.44922a.77206.77206,0,0,1,.77539-.72461.75012.75012,0,0,1,.72461.77344L5.5,8.30273A.75019.75019,0,0,1,4.75,9.05273ZM17.52246,5.502l-.02832-.001L15.69238,5.5a.75.75,0,0,1,0-1.5h1.752l.10254.00195a.75025.75025,0,0,1-.02442,1.5ZM12.94824,5.5H11.11816a.75.75,0,0,1,0-1.5h1.83008a.75.75,0,0,1,0,1.5ZM8.374,5.5H6.55566a.75522.75522,0,0,1-.75586-.75A.746.746,0,0,1,6.54492,4H8.374a.75.75,0,0,1,0,1.5Z"/></g></svg>