<svg fill="currentColor" id="icons" xmlns="http://www.w3.org/2000/svg" viewBox="0 0 24 24"><title>01-03-send-error-m</title><rect id="canvas" width="24" height="24" style="fill:none"/><path d="M11.96423,13.105l5.7826-5.71033-1.38745,3.69178a.75.75,0,1,0,1.40429.52734l1.9336-5.14453a1.58178,1.58178,0,0,0-.36133-1.686l-.006-.00451-.00086-.00135-.008-.00543a1.60974,1.60974,0,0,0-1.69806-.37L4.8584,9.06982a1.6017,1.6017,0,0,0,.168,3.063l5.48925,1.35987.81055,3.19189a.74964.74964,0,1,0,1.45313-.36914ZM5.30176,10.58057a.09176.09176,0,0,1,.07226-.10205l11.29816-4.1316-5.76837,5.69635L5.3877,10.67676A.09478.09478,0,0,1,5.30176,10.58057Z"/><path d="M18.10449,14.11719a1.3425,1.3425,0,0,0-2.209,0v.00146l-2.70215,4.39649A1.3023,1.3023,0,0,0,14.29883,20.5h5.40234a1.30173,1.30173,0,0,0,1.10449-1.98535ZM14.65625,19,17,15.18555,19.34375,19Z"/></svg>