<svg fill="currentColor" id="icons" xmlns="http://www.w3.org/2000/svg" viewBox="0 0 24 24"><title>01-01-send-m</title><rect id="canvas" width="24" height="24" style="fill:none"/><path d="M19.33,4.77869l-.00086-.00135-.008-.00537a1.60934,1.60934,0,0,0-1.69806-.37011L4.8584,9.06982a1.6017,1.6017,0,0,0,.168,3.063l5.48925,1.35987,1.36915,5.39209a1.58673,1.58673,0,0,0,1.47656,1.21044c.03125.002.0625.00245.09375.00245a1.61057,1.61057,0,0,0,1.51269-1.04346v-.00049l4.7295-12.58447a1.58178,1.58178,0,0,0-.36133-1.686ZM5.30176,10.58057a.09176.09176,0,0,1,.07226-.10205l11.29816-4.1316-5.76837,5.69635L5.3877,10.67676A.09478.09478,0,0,1,5.30176,10.58057Zm8.26172,7.9458a.10985.10985,0,0,1-.11817.07129.09982.09982,0,0,1-.10742-.082L11.96423,13.105l5.7826-5.71039Z"/></svg>