<svg fill="currentColor" id="icons" xmlns="http://www.w3.org/2000/svg" viewBox="0 0 24 24"><title>01-10-server-2-multiple-m</title><rect id="canvas" width="24" height="24" style="fill:none;opacity:0"/><path d="M21,10.875c0-.011-.00311-.02112-.00323-.0321l.00225-.00013-.17578-4.05468A3.742,3.742,0,0,0,17.07715,3.2002H6.92285A3.742,3.742,0,0,0,3.17676,6.78809L3.001,10.84277l.00225.00013C3.00311,10.85388,3,10.864,3,10.875A3.863,3.863,0,0,0,4.60413,14,3.86516,3.86516,0,0,0,6.875,21h10.25a3.86516,3.86516,0,0,0,2.27087-7A3.863,3.863,0,0,0,21,10.875ZM6.92285,4.7002h10.1543a2.24574,2.24574,0,0,1,2.248,2.15234l.03772.8703A3.8432,3.8432,0,0,0,17.125,7H6.875a3.8432,3.8432,0,0,0-2.23792.72284l.03772-.8703A2.24574,2.24574,0,0,1,6.92285,4.7002ZM19.5,17.125A2.3777,2.3777,0,0,1,17.125,19.5H6.875a2.375,2.375,0,0,1,0-4.75h10.25A2.3777,2.3777,0,0,1,19.5,17.125ZM6.875,13.25a2.37744,2.37744,0,0,1-2.37469-2.37207l.00042-.01019A2.37732,2.37732,0,0,1,6.875,8.5h10.25a2.37732,2.37732,0,0,1,2.37427,2.36774l.00042.01019A2.37744,2.37744,0,0,1,17.125,13.25Z"/><path d="M15.09961,10.12988h-4.25a.75.75,0,1,0,0,1.5h4.25a.75.75,0,0,0,0-1.5Z" /><path d="M10.84961,17.89941h4.25a.75.75,0,1,0,0-1.5h-4.25a.75.75,0,0,0,0,1.5Z" /><path d="M7.59464,9.9a1,1,0,1,0,1,1A1,1,0,0,0,7.59464,9.9Z"/><path d="M6.59467,17.15a1,1,0,1,0,1-1A1,1,0,0,0,6.59467,17.15Z" /></svg>