<svg fill="currentColor" id="icons" xmlns="http://www.w3.org/2000/svg" viewBox="0 0 24 24"><title>01-07-server-lock-m</title><rect id="canvas" width="24" height="24" style="fill:none;opacity:0"/><path d="M19.73584,16.26959v-.588a2.5,2.5,0,1,0-4.99951,0v.588A1.74871,1.74871,0,0,0,13.0542,18.0127V20.25a1.75213,1.75213,0,0,0,1.75,1.75H19.668a1.75213,1.75213,0,0,0,1.75-1.75V18.0127A1.74871,1.74871,0,0,0,19.73584,16.26959Zm-2.5-1.6192a1.0174,1.0174,0,0,1,1,1.03125v.58106H16.23633v-.58106A1.017,1.017,0,0,1,17.23584,14.65039ZM19.918,20.25a.25048.25048,0,0,1-.25.25H14.8042a.25048.25048,0,0,1-.25-.25V18.0127a.25048.25048,0,0,1,.25-.25H19.668a.25048.25048,0,0,1,.25.25Z" /><path d="M11.25,15.51074H6.875a2.375,2.375,0,0,1,0-4.75h10.25a2.36036,2.36036,0,0,1,1.88135.92481.74987.74987,0,1,0,1.1875-.916,3.86926,3.86926,0,0,0-.80133-.756A3.86539,3.86539,0,0,0,17.125,3.01074H6.875a3.86516,3.86516,0,0,0-2.27087,7,3.86516,3.86516,0,0,0,2.27087,7H11.25a.75.75,0,0,0,0-1.5ZM4.5,6.88574a2.3777,2.3777,0,0,1,2.375-2.375h10.25a2.375,2.375,0,0,1,0,4.75H6.875A2.3777,2.3777,0,0,1,4.5,6.88574Z" /><path d="M15.1001,6.14062h-4.25a.75.75,0,0,0,0,1.5h4.25a.75.75,0,0,0,0-1.5Z" /><path d="M10.8501,12.40918a.75.75,0,1,0,0,1.5h2.25a.75.75,0,0,0,0-1.5Z" /><path d="M7.59464,5.89047a1,1,0,1,0,1,1A1,1,0,0,0,7.59464,5.89047Z" /><path d="M6.59467,13.15949a1,1,0,1,0,1-1A1,1,0,0,0,6.59467,13.15949Z" /></svg>