<svg fill="currentColor" id="icons" xmlns="http://www.w3.org/2000/svg" viewBox="0 0 24 24"><title>01-02-server-remove-m</title><rect id="canvas" width="24" height="24" style="fill:none;opacity:0"/><path d="M17.125,3.01025H6.875a3.86534,3.86534,0,0,0-2.27106,7.00013A3.86517,3.86517,0,0,0,6.875,17.01025H11.25a.75.75,0,0,0,0-1.5H6.875a2.37488,2.37488,0,0,1-.00244-4.74975l.00244.00024h10.25l.00226-.00024a2.36146,2.36146,0,0,1,1.87909.925.74987.74987,0,1,0,1.1875-.916,3.87332,3.87332,0,0,0-.80133-.75622A3.86559,3.86559,0,0,0,17.125,3.01025Zm.00226,6.25025L17.125,9.26025H6.875l-.00244.00025A2.37513,2.37513,0,0,1,6.875,4.51025h10.25a2.37513,2.37513,0,0,1,.00226,4.75025Z" /><path d="M7.59464,5.89047a1,1,0,1,0,1,1A1,1,0,0,0,7.59464,5.89047Z" /><path d="M15.1001,6.14062h-4.25a.75.75,0,0,0,0,1.5h4.25a.75.75,0,0,0,0-1.5Z" /><path d="M6.59467,13.15949a1,1,0,1,0,1-1A1,1,0,0,0,6.59467,13.15949Z" /><path d="M13.1001,12.40967h-2.25a.75.75,0,0,0,0,1.5h2.25a.75.75,0,0,0,0-1.5Z" /><path d="M14.21973,20.0625a.74971.74971,0,0,0,1.06054,0L17.25,18.09277l1.96973,1.96973A.74992.74992,0,0,0,20.28027,19.002l-1.96972-1.96972,1.96972-1.96973A.74992.74992,0,0,0,19.21973,14.002L17.25,15.97168,15.28027,14.002a.74992.74992,0,0,0-1.06054,1.06055l1.96972,1.96973L14.21973,19.002A.74973.74973,0,0,0,14.21973,20.0625Z" /></svg>