<svg fill="currentColor" id="icons" xmlns="http://www.w3.org/2000/svg" viewBox="0 0 24 24"><title>01-08-server-2-m</title><rect id="canvas" width="24" height="24" style="fill:none;opacity:0"/><path d="M15.1001,15.37988h-4.25a.75.75,0,1,0,0,1.5h4.25a.75.75,0,0,0,0-1.5Z" /><path d="M20.99512,16.07672l.002-.02008-.79932-8.69922A3.734,3.734,0,0,0,16.46289,3.9502H7.53711A3.734,3.734,0,0,0,3.80225,7.35742L3,16.125A3.87934,3.87934,0,0,0,6.875,20h10.25a3.88492,3.88492,0,0,0,3.86542-3.875H21C21,16.10846,20.9953,16.0932,20.99512,16.07672ZM5.29639,7.49414A2.23954,2.23954,0,0,1,7.53711,5.4502h8.92578a2.23954,2.23954,0,0,1,2.24072,2.04394l.49543,5.36908A3.84192,3.84192,0,0,0,17.125,12.25H6.875a3.842,3.842,0,0,0-2.07184.612ZM17.125,18.5H6.875a2.36888,2.36888,0,0,1-2.37793-2.30664l.03961-.43109A2.37217,2.37217,0,0,1,6.875,13.75h10.25a2.375,2.375,0,0,1,0,4.75Z" /><path d="M6.59467,16.1a1,1,0,1,0,1-1A1,1,0,0,0,6.59467,16.1Z" /></svg>