<svg fill="currentColor" id="icons" xmlns="http://www.w3.org/2000/svg" viewBox="0 0 24 24"><title>01-01-server-m</title><rect id="canvas" width="24" height="24" style="fill:none;opacity:0"/><path d="M3,13.13525a3.87934,3.87934,0,0,0,3.875,3.875H11.25V19.4502H6.75a.75.75,0,0,0,0,1.5h10.5a.75.75,0,0,0,0-1.5h-4.5V17.01025h4.375a3.86517,3.86517,0,0,0,2.27106-6.99987A3.86534,3.86534,0,0,0,17.125,3.01025H6.875a3.86534,3.86534,0,0,0-2.27106,7.00013A3.863,3.863,0,0,0,3,13.13525Zm1.5-6.25a2.3777,2.3777,0,0,1,2.375-2.375h10.25a2.37513,2.37513,0,0,1,.00244,4.75025L17.125,9.26025H6.875l-.00244.00025A2.37771,2.37771,0,0,1,4.5,6.88525ZM6.87256,10.7605l.00244.00024h10.25l.00244-.00024a2.37488,2.37488,0,0,1-.00244,4.74975H6.875a2.37488,2.37488,0,0,1-.00244-4.74975Z" /><path d="M10.8501,7.64062h4.25a.75.75,0,0,0,0-1.5h-4.25a.75.75,0,0,0,0,1.5Z" /><path d="M10.8501,13.90967h4.25a.75.75,0,0,0,0-1.5h-4.25a.75.75,0,0,0,0,1.5Z" /><path d="M7.59464,5.89047a1,1,0,1,0,1,1A1,1,0,0,0,7.59464,5.89047Z" /><path d="M6.59467,13.15949a1,1,0,1,0,1-1A1,1,0,0,0,6.59467,13.15949Z" /></svg>