<svg fill="currentColor" id="icons" xmlns="http://www.w3.org/2000/svg" viewBox="0 0 24 24"><title>01-04-server-check-m</title><rect id="canvas" width="24" height="24" style="fill:none;opacity:0"/><path d="M17.125,3.01025H6.875a3.86534,3.86534,0,0,0-2.27106,7.00013A3.86517,3.86517,0,0,0,6.875,17.01025H11.25a.75.75,0,0,0,0-1.5H6.875a2.37488,2.37488,0,0,1-.00244-4.74975l.00244.00024h10.25l.00226-.00024a2.36214,2.36214,0,0,1,1.87958.92554.75017.75017,0,0,0,1.1875-.917,3.8813,3.8813,0,0,0-.80182-.75573A3.86559,3.86559,0,0,0,17.125,3.01025Zm.00226,6.25025L17.125,9.26025H6.875l-.00244.00025A2.37513,2.37513,0,0,1,6.875,4.51025h10.25a2.37513,2.37513,0,0,1,.00226,4.75025Z" /><path d="M15.09961,6.14062h-4.25a.75.75,0,0,0,0,1.5h4.25a.75.75,0,0,0,0-1.5Z" /><path d="M13.09961,12.40967h-2.25a.75.75,0,0,0,0,1.5h2.25a.75.75,0,0,0,0-1.5Z" /><path d="M16.50781,19.19043a.74638.74638,0,0,0,.52832-.21777l3.252-3.231a.74992.74992,0,1,0-1.05664-1.06445L16.49707,17.394,15.27734,16.231a.75013.75013,0,1,0-1.03515,1.08593l1.748,1.66651A.7484.7484,0,0,0,16.50781,19.19043Z" /><path d="M7.59464,5.89047a1,1,0,1,0,1,1A1,1,0,0,0,7.59464,5.89047Z" /><path d="M6.59467,13.15949a1,1,0,1,0,1-1A1,1,0,0,0,6.59467,13.15949Z" /></svg>