<svg fill="currentColor" id="icons" xmlns="http://www.w3.org/2000/svg" viewBox="0 0 24 24"><title>01-06-server-thunder-m</title><rect id="canvas" width="24" height="24" style="fill:none;opacity:0"/><path d="M18.90375,17.62683a.73706.73706,0,0,0-.189-.38135,2189.20176,2189.20176,0,0,1-.16784-.14685l-1.8288-1.045L18.083,14.49365a.74987.74987,0,1,0-1.12891-.9873l-1.96875,2.25a.69655.69655,0,0,0-.0365.06378.70119.70119,0,0,0-.05041.0578.69568.69568,0,0,0-.02381.072.73678.73678,0,0,0,.1352.8045.20778.20778,0,0,0,.11682.10224c.019.0133.03058.033.05108.04474l1.8288,1.045L15.6416,19.50635a.74987.74987,0,1,0,1.12891.9873l1.96875-2.25a.69663.69663,0,0,0,.04645-.08117c.01117-.01636.03045-.02295.04046-.04041a.70648.70648,0,0,0,.02381-.072.74811.74811,0,0,0,.06439-.28088A.72771.72771,0,0,0,18.90375,17.62683Z" /><path d="M19.39252,10.01331A3.86559,3.86559,0,0,0,17.125,3.01025H6.875a3.86534,3.86534,0,0,0-2.27106,7.00013A3.86517,3.86517,0,0,0,6.875,17.01025H11.25a.75.75,0,0,0,0-1.5H6.875a2.37488,2.37488,0,0,1-.00244-4.74975l.00244.00024h10.25l.00226-.00024a2.36214,2.36214,0,0,1,1.87958.92554.75017.75017,0,0,0,1.1875-.917A3.8813,3.8813,0,0,0,19.39252,10.01331ZM4.5,6.88525a2.3777,2.3777,0,0,1,2.375-2.375h10.25a2.37513,2.37513,0,0,1,.00226,4.75025L17.125,9.26025H6.875l-.00244.00025A2.37771,2.37771,0,0,1,4.5,6.88525Z" /><path d="M15.09961,6.14062h-4.25a.75.75,0,0,0,0,1.5h4.25a.75.75,0,0,0,0-1.5Z" /><path d="M13.84961,13.15967a.7502.7502,0,0,0-.75-.75h-2.25a.75.75,0,0,0,0,1.5h2.25A.7502.7502,0,0,0,13.84961,13.15967Z" /><path d="M7.59464,5.89047a1,1,0,1,0,1,1A1,1,0,0,0,7.59464,5.89047Z" /><path d="M6.59467,13.15949a1,1,0,1,0,1-1A1,1,0,0,0,6.59467,13.15949Z" /></svg>