<svg fill="currentColor" id="icons" xmlns="http://www.w3.org/2000/svg" viewBox="0 0 24 24"><title>01-09-server-2-download-m</title><rect id="canvas" width="24" height="24" style="fill:none;opacity:0"/><path d="M15.1001,15.37988h-4.25a.75.75,0,1,0,0,1.5h4.25a.75.75,0,0,0,0-1.5Z" /><path d="M20.99512,16.07672l.002-.02008-.79932-8.69922A3.734,3.734,0,0,0,16.46289,3.9502a.75.75,0,1,0,0,1.5,2.23954,2.23954,0,0,1,2.24072,2.04394l.49543,5.36908A3.84192,3.84192,0,0,0,17.125,12.25H6.875a3.842,3.842,0,0,0-2.07184.612l.49323-5.36786A2.23954,2.23954,0,0,1,7.53711,5.4502a.75.75,0,1,0,0-1.5A3.734,3.734,0,0,0,3.80225,7.35742L3,16.125A3.87934,3.87934,0,0,0,6.875,20h10.25a3.88492,3.88492,0,0,0,3.86542-3.875H21C21,16.10846,20.9953,16.0932,20.99512,16.07672ZM17.125,18.5H6.875a2.36888,2.36888,0,0,1-2.37793-2.30664l.03961-.43109A2.37217,2.37217,0,0,1,6.875,13.75h10.25a2.375,2.375,0,0,1,0,4.75Z" /><path d="M11.25,3.75V8.23859l-1.44971-1.636a.74992.74992,0,1,0-1.123.99414l2.76123,3.11621a.74977.74977,0,0,0,1.123,0l2.76123-3.11621a.74992.74992,0,1,0-1.123-.99414L12.75,8.23859V3.75a.75.75,0,0,0-1.5,0Z" /><path d="M6.59467,16.1a1,1,0,1,0,1-1A1,1,0,0,0,6.59467,16.1Z" /></svg>