<?xml version="1.0" encoding="utf-8"?>
<!-- Generator: Adobe Illustrator 25.2.1, SVG Export Plug-In . SVG Version: 6.00 Build 0)  -->
<svg fill="currentColor" version="1.1" id="Warstwa_1" xmlns="http://www.w3.org/2000/svg"
	xmlns:xlink="http://www.w3.org/1999/xlink" x="0px" y="0px"
	viewBox="0 0 26 26" style="enable-background:new 0 0 26 26;" xml:space="preserve">
<g>
	<path d="M15,4.1547l4.6603,2.6906c1.2376,0.7145,2,2.035,2,3.4641v5.3812c0,1.4291-0.7624,2.7496-2,3.4641L15,21.8453
		c-1.2376,0.7145-2.7624,0.7145-4,0l-4.6603-2.6906c-1.2376-0.7145-2-2.035-2-3.4641v-5.3812c0-1.4291,0.7624-2.7496,2-3.4641
		L11,4.1547C12.2376,3.4402,13.7624,3.4402,15,4.1547z M14.25,5.4537c-0.7183-0.4147-1.5913-0.4443-2.3316-0.0889L11.75,5.4537
		L7.0897,8.1443C6.3678,8.5611,5.9046,9.3079,5.846,10.1318l-0.0063,0.1776v5.3812c0,0.8336,0.4151,1.6081,1.0993,2.0708
		l0.1507,0.0943l4.6603,2.6906c0.7183,0.4147,1.5913,0.4443,2.3316,0.0889l0.1684-0.0889l4.6603-2.6906
		c0.7219-0.4168,1.1851-1.1635,1.2437-1.9874l0.0063-0.1776v-5.3812c0-0.8336-0.4151-1.6081-1.0993-2.0708l-0.1507-0.0943
		L14.25,5.4537z"/>
	<path d="M13,9c2.2091,0,4,1.7909,4,4s-1.7909,4-4,4s-4-1.7909-4-4S10.7909,9,13,9z M13,10.5
		c-1.3807,0-2.5,1.1193-2.5,2.5s1.1193,2.5,2.5,2.5s2.5-1.1193,2.5-2.5S14.3807,10.5,13,10.5z"/>
</g>
</svg>