<svg fill="currentColor" id="icons" xmlns="http://www.w3.org/2000/svg" viewBox="0 0 24 24"><title>02-08-settings-m</title><rect id="canvas" width="24" height="24" style="fill:none"/><path d="M16.06885,11.99316a3.954,3.954,0,0,0-3.8562,3.24805H4.75a.75.75,0,1,0,0,1.5h7.46167a3.9367,3.9367,0,1,0,3.85718-4.748Zm0,6.50684A2.50449,2.50449,0,1,1,18.5,15.99609,2.47114,2.47114,0,0,1,16.06885,18.5Z"/><path d="M19.25,7.25879H11.78833A3.92289,3.92289,0,0,0,4,8.00391a3.92336,3.92336,0,0,0,7.78735.75488H19.25a.75.75,0,1,0,0-1.5ZM7.93115,10.50684a2.50449,2.50449,0,0,1,0-5.00684,2.50449,2.50449,0,0,1,0,5.00684Z"/></svg>