<svg fill="currentColor" id="icons" xmlns="http://www.w3.org/2000/svg" viewBox="0 0 24 24"><title>02-09-settings-2-m</title><rect id="canvas" width="24" height="24" style="fill:none"/><path d="M18.41357,12.36523c.00879-.12109.01368-.24316.01368-.36523s-.00489-.24414-.01368-.36523l.99561-.74512a1.45413,1.45413,0,0,0,.38135-1.91992L18.603,7.002a1.515,1.515,0,0,0-1.84668-.62109l-1.23584.44336a3.86716,3.86716,0,0,0-.66455-.34766l-.18213-1.21777A1.50292,1.50292,0,0,0,13.18506,4H10.81494A1.50292,1.50292,0,0,0,9.32617,5.25879L9.12939,6.46387c-.2246.10937-.44043.23144-.69043.37695l-1.19433-.459A1.51057,1.51057,0,0,0,5.397,7.002L4.20947,8.96973a1.45451,1.45451,0,0,0,.38086,1.91992l.9961.74512c-.00879.12109-.01368.24316-.01368.36523s.00489.24414.01368.36523l-.99561.74512a1.45413,1.45413,0,0,0-.38135,1.91992L5.397,16.99805a1.51456,1.51456,0,0,0,1.84619.62109L8.48,17.17285a4.01792,4.01792,0,0,0,.66357.34863l.18262,1.21973A1.50292,1.50292,0,0,0,10.81494,20h2.37012a1.50292,1.50292,0,0,0,1.48877-1.25879l.19433-1.20312c.22559-.10743.44288-.2295.69532-.37793l1.19189.458a1.50888,1.50888,0,0,0,1.84766-.62011l1.1875-1.96778a1.45451,1.45451,0,0,0-.38086-1.91992Zm-1.11816,3.85352-1.19482-.459a1.5601,1.5601,0,0,0-1.38575.15039,4.6925,4.6925,0,0,1-.49658.27636,1.49941,1.49941,0,0,0-.8457,1.11426L13.18506,18.5l-2.37549.01855L10.627,17.29883a1.4993,1.4993,0,0,0-.84228-1.11231,5.0558,5.0558,0,0,1-.50147-.28027,1.5549,1.5549,0,0,0-1.38232-.14746l-1.21973.46387-1.1914-1.91114,1.33545-1a.75016.75016,0,0,0,.29394-.69726,4.09,4.09,0,0,1,0-1.22852.75016.75016,0,0,0-.29394-.69726L5.49365,9.74512,6.70508,7.78125l1.19531.46a1.55712,1.55712,0,0,0,1.38232-.14648,5.03967,5.03967,0,0,1,.50293-.28223A1.49707,1.49707,0,0,0,10.627,6.70117L10.81494,5.5l2.37549-.01855.18213,1.21875a1.50244,1.50244,0,0,0,.84912,1.11523,4.67521,4.67521,0,0,1,.49365.27441,1.56466,1.56466,0,0,0,1.38721.15039l1.21631-.46289,1.1914,1.91114-1.33545,1a.75016.75016,0,0,0-.29394.69726,4.09,4.09,0,0,1,0,1.22852.75016.75016,0,0,0,.29394.69726l1.33155.94336Z"/><path d="M12,15a3,3,0,1,1,3-3A3.00328,3.00328,0,0,1,12,15Zm0-4.5A1.5,1.5,0,1,0,13.5,12,1.50164,1.50164,0,0,0,12,10.5Z"/></svg>