<?xml version="1.0" encoding="utf-8"?>
<!-- Generator: Adobe Illustrator 25.2.1, SVG Export Plug-In . SVG Version: 6.00 Build 0)  -->
<svg version="1.1" id="Warstwa_1" xmlns="http://www.w3.org/2000/svg"
	xmlns:xlink="http://www.w3.org/1999/xlink" x="0px" y="0px"
	viewBox="0 0 26 26" style="enable-background:new 0 0 26 26;" xml:space="preserve">

<g>
	<path fill="#6A7580"
			d="M15,4.1547l4.6603,2.6906c1.2376,0.7145,2,2.035,2,3.4641v5.3812c0,1.4291-0.7624,2.7496-2,3.4641L15,21.8453
		c-1.2376,0.7145-2.7624,0.7145-4,0l-4.6603-2.6906c-1.2376-0.7145-2-2.035-2-3.4641v-5.3812c0-1.4291,0.7624-2.7496,2-3.4641
		L11,4.1547C12.2376,3.4402,13.7624,3.4402,15,4.1547z M13,9c-2.2091,0-4,1.7909-4,4s1.7909,4,4,4s4-1.7909,4-4S15.2091,9,13,9z" />
</g>
</svg>