<svg fill="currentColor" id="icons" xmlns="http://www.w3.org/2000/svg" viewBox="0 0 24 24"><defs><style>.cls-1{fill:none;}</style></defs><rect id="canvas" class="cls-1" width="24" height="24"/><path d="M16.11133,12.75a.7502.7502,0,0,1-.75-.75,3.30512,3.30512,0,0,0-.03223-.41943.74863.74863,0,0,1,.29492-.69532l.79786-.59814-.66016-1.09277-.71777.27587a1.33,1.33,0,0,1-1.18848-.12695,3.32877,3.32877,0,0,0-.33692-.1875A1.29071,1.29071,0,0,1,12.79,8.19238L12.68652,7.5H11.31445l-.10351.69287a1.2938,1.2938,0,0,1-.72559.96143,3.72506,3.72506,0,0,0-.34277.19238A1.329,1.329,0,0,1,8.958,9.47119l-.71973-.27685-.66016,1.09277.79786.59814a.74863.74863,0,0,1,.29492.69532A3.30512,3.30512,0,0,0,8.63867,12a.75.75,0,1,1-1.5,0c0-.05518.001-.10986.00391-.165l-.63184-.47363A1.25862,1.25862,0,0,1,6.18066,9.7002L7.042,8.27393a1.30026,1.30026,0,0,1,1.58789-.53565l.77832.29883q.16552-.10107.33692-.18945l.11328-.75928A1.29872,1.29872,0,0,1,11.1416,6h1.7168a1.297,1.297,0,0,1,1.28222,1.08691l.11426.75928c.11524.0586.22852.12207.33887.18994l.77734-.29834A1.30355,1.30355,0,0,1,16.959,8.2749l.85938,1.42383a1.26091,1.26091,0,0,1-.32813,1.6626l-.63281.47363c.00293.05518.00391.10986.00391.165A.7502.7502,0,0,1,16.11133,12.75ZM9.82812,7.80615Z"/><path d="M12.8584,18H11.1416a1.297,1.297,0,0,1-1.28222-1.08691l-.11426-.76075c-.11524-.05908-.22754-.12255-.33692-.18945l-.77832.29932A1.301,1.301,0,0,1,7.041,15.7251l-.86036-1.42432a1.26039,1.26039,0,0,1,.33008-1.6626l.63184-.47314c-.00293-.05518-.00391-.10986-.00391-.165a.75.75,0,1,1,1.5,0,3.30512,3.30512,0,0,0,.03223.41943.74863.74863,0,0,1-.29492.69532l-.79786.59814.66016,1.09277.71875-.27685a1.33418,1.33418,0,0,1,1.18555.12451,3.74635,3.74635,0,0,0,.3457.19385,1.28867,1.28867,0,0,1,.72168.959l.10449.69385h1.37207l.10254-.69189a1.29454,1.29454,0,0,1,.72754-.96338,3.16546,3.16546,0,0,0,.33887-.18848,1.33223,1.33223,0,0,1,1.19043-.126l.71582.27539.66016-1.09277-.79786-.59814a.74863.74863,0,0,1-.29492-.69532A3.30512,3.30512,0,0,0,15.36133,12a.75.75,0,1,1,1.5,0c0,.05518-.001.10986-.00391.165l.63184.47363a1.25985,1.25985,0,0,1,.33008,1.66113L16.958,15.72607a1.301,1.301,0,0,1-1.58789.53565l-.77637-.29785c-.11035.06787-.22363.13134-.33887.18994l-.11328.75781A1.29872,1.29872,0,0,1,12.8584,18ZM9.83008,16.19482l.001.00049Z"/><circle cx="11.97285" cy="12" r="1.5"/></svg>