<svg width="24" height="24" viewBox="0 0 24 24" fill="none" xmlns="http://www.w3.org/2000/svg">
<path d="M16.6595 8.66182C15.5925 8.6642 14.5914 9.17776 13.9671 10.0429L10.5798 8.10693C10.9918 6.43498 10.0822 4.72029 8.46675 4.12396C6.85132 3.52763 5.04572 4.23999 4.27262 5.77867C3.49951 7.31735 4.00566 9.19124 5.44831 10.1314C6.89097 11.0716 8.80968 10.778 9.90519 9.44948L13.3771 11.4337C13.3006 11.8067 13.3005 12.1912 13.3766 12.5642L9.87101 14.5116C8.74509 13.1752 6.79422 12.8995 5.34206 13.8715C3.88991 14.8435 3.40118 16.7522 4.20748 18.3025C5.01378 19.8528 6.85707 20.5486 8.4867 19.9178C10.1163 19.287 11.0108 17.5315 10.5632 15.8424L13.963 13.9541C14.8877 15.2298 16.579 15.6843 18.0186 15.044C19.4582 14.4036 20.2532 12.8432 19.9251 11.3022C19.5969 9.76116 18.235 8.66005 16.6595 8.66182Z" fill="#FFAB9E" />
<path d="M5.3461 13.8725C6.7982 12.9006 8.74849 13.176 9.87442 14.5122L9.87735 14.5102L9.88321 14.521L10.5756 15.8364L10.5668 15.8432C11.0143 17.5323 10.1201 19.2876 8.49063 19.9184C6.86104 20.5492 5.01766 19.8534 4.21134 18.3032C3.40504 16.7529 3.89394 14.8445 5.3461 13.8725Z" fill="#CF1413" />
<path d="M8.39013 4.10843C10.0387 4.68774 10.9877 6.41366 10.5935 8.11595L10.5968 8.11712L10.5917 8.12825L9.95413 9.4711L9.94339 9.46817C8.85999 10.839 6.91903 11.1759 5.43715 10.2502C3.95522 9.32423 3.40672 7.43181 4.16389 5.85697C4.92112 4.28211 6.7415 3.52911 8.39013 4.10843Z" fill="#FF5A4D" />
<path d="M15.169 15.2416C13.5857 14.5024 12.8117 12.6912 13.372 11.0362L13.3688 11.0347L13.375 11.0241L14.142 9.75076L14.1524 9.75474C15.3658 8.49751 17.3306 8.35388 18.7138 9.42143C20.0971 10.4891 20.4561 12.4265 19.5472 13.9189C18.6382 15.4113 16.7523 15.9809 15.169 15.2416Z" fill="#FF5A4D" />
</svg>
