<svg fill="currentColor" id="icons" xmlns="http://www.w3.org/2000/svg" viewBox="0 0 24 24"><title>03-02-share-display-m</title><rect id="canvas" width="24" height="24" style="fill:none"/><path d="M17.25,4.45752H6.75A2.7528,2.7528,0,0,0,4,7.20752v6.5a2.7528,2.7528,0,0,0,2.75,2.75.75.75,0,1,0,0-1.5,1.25116,1.25116,0,0,1-1.25-1.25v-6.5a1.25116,1.25116,0,0,1,1.25-1.25h10.5a1.25116,1.25116,0,0,1,1.25,1.25v6.5a1.25116,1.25116,0,0,1-1.25,1.25.75.75,0,1,0,0,1.5,2.7528,2.7528,0,0,0,2.75-2.75v-6.5A2.7528,2.7528,0,0,0,17.25,4.45752Z"/><path d="M12.64941,12.24756a.78006.78006,0,0,0-1.29882,0l-3.5625,6.16992a.75.75,0,0,0,.6494,1.125h7.125a.75.75,0,0,0,.64942-1.125ZM9.73682,18.04248,12,14.12256l2.26318,3.91992Z"/></svg>