<svg fill="currentColor" id="icons" xmlns="http://www.w3.org/2000/svg" viewBox="0 0 24 24"><title>03-05-share-m</title><rect id="canvas" width="24" height="24" style="fill:none"/><path d="M16.66113,8.66064a3.32936,3.32936,0,0,0-2.69238,1.38111l-3.38733-1.936A3.38276,3.38276,0,1,0,9.90686,9.4483l3.47186,1.98426a2.82188,2.82188,0,0,0-.00049,1.13043L9.87268,14.51038a3.42842,3.42842,0,1,0,.69214,1.33081l3.39984-1.88825a3.335,3.335,0,1,0,2.69647-5.2923Zm-9.32226.51807A1.83936,1.83936,0,1,1,9.17871,7.33936,1.84142,1.84142,0,0,1,7.33887,9.17871Zm0,9.32129a1.83936,1.83936,0,1,1,1.83984-1.83887A1.84132,1.84132,0,0,1,7.33887,18.5Zm9.32226-4.66113A1.83912,1.83912,0,1,1,18.5,12,1.84152,1.84152,0,0,1,16.66113,13.83887Z"/></svg>