<svg fill="currentColor" id="icons" xmlns="http://www.w3.org/2000/svg" viewBox="0 0 24 24"><title>02-04-shield-document-m</title><rect id="canvas" width="24" height="24" style="fill:none"/><path d="M11.25,19.5H7.75A1.25116,1.25116,0,0,1,6.5,18.25V5.75A1.25116,1.25116,0,0,1,7.75,4.5h8.5A1.25116,1.25116,0,0,1,17.5,5.75v5.5a.75.75,0,0,0,1.5,0V5.75A2.7528,2.7528,0,0,0,16.25,3H7.75A2.7528,2.7528,0,0,0,5,5.75v12.5A2.7528,2.7528,0,0,0,7.75,21h3.5a.75.75,0,0,0,0-1.5Z"/><path d="M20.0957,13.93408,18.3584,13.188a2.33525,2.33525,0,0,0-1.83106-.00049l-.001.00049-1.73828.74609a1.48772,1.48772,0,0,0-.90625,1.36328v1.33106A4.54186,4.54186,0,0,0,17.27051,20.98a.7478.7478,0,0,0,.34375,0,4.54186,4.54186,0,0,0,3.38867-4.35156V15.29736A1.48661,1.48661,0,0,0,20.0957,13.93408Zm-.59277,2.69434a3.02238,3.02238,0,0,1-2.06055,2.84472,3.02239,3.02239,0,0,1-2.06054-2.84472l-.001-1.31641,1.7373-.74609a.83029.83029,0,0,1,.64844,0l1.73633.73144Z"/><path d="M8.75,7.9502a.75.75,0,0,0,0,1.5h6.5a.75.75,0,0,0,0-1.5Z"/><path d="M12.2998,10.3999H8.75a.75.75,0,0,0,0,1.5h3.5498a.75.75,0,0,0,0-1.5Z"/></svg>