<svg fill="currentColor" id="icons" xmlns="http://www.w3.org/2000/svg" viewBox="0 0 24 24"><title>02-01-shield-lock-m</title><rect id="canvas" width="24" height="24" style="fill:none"/><path d="M18.52734,5.46191l-4.60058-1.894a5.09136,5.09136,0,0,0-3.85352,0l-4.60156,1.894A2.622,2.622,0,0,0,3.80762,7.8667v3.37939A10.43016,10.43016,0,0,0,11.835,21.16992a.74307.74307,0,0,0,.33008,0,10.43016,10.43016,0,0,0,8.02734-9.92383V7.8667A2.6215,2.6215,0,0,0,18.52734,5.46191Zm.165,5.78418A8.90217,8.90217,0,0,1,12,19.668a8.90217,8.90217,0,0,1-6.69238-8.42188V7.8667A1.12931,1.12931,0,0,1,6.043,6.84863l4.60058-1.894a3.59322,3.59322,0,0,1,2.7129,0l4.5996,1.894a1.12883,1.12883,0,0,1,.73633,1.01807Z"/><path d="M14.5,10.69489v-.588a2.5002,2.5002,0,1,0-5,0v.588A1.7486,1.7486,0,0,0,7.81836,12.438V14.6748a1.75212,1.75212,0,0,0,1.75,1.75h4.86328a1.75212,1.75212,0,0,0,1.75-1.75V12.438A1.7486,1.7486,0,0,0,14.5,10.69489ZM12,9.0752a1.01719,1.01719,0,0,1,1,1.03173V10.688H11v-.58106A1.01719,1.01719,0,0,1,12,9.0752Zm2.68164,5.5996a.25048.25048,0,0,1-.25.25H9.56836a.25048.25048,0,0,1-.25-.25V12.438a.25048.25048,0,0,1,.25-.25h4.86328a.25048.25048,0,0,1,.25.25Z"/></svg>