<svg fill="currentColor" id="icons" xmlns="http://www.w3.org/2000/svg" viewBox="0 0 24 24"><title>02-02-shield-check-m</title><rect id="canvas" width="24" height="24" style="fill:none"/><path d="M18.52734,5.46191l-4.60058-1.894a5.09136,5.09136,0,0,0-3.85352,0l-4.60156,1.894A2.622,2.622,0,0,0,3.80762,7.8667v3.37939A10.43016,10.43016,0,0,0,11.835,21.16992a.74307.74307,0,0,0,.33008,0,10.43016,10.43016,0,0,0,8.02734-9.92383V7.8667A2.6215,2.6215,0,0,0,18.52734,5.46191Zm.165,5.78418A8.90217,8.90217,0,0,1,12,19.668a8.90217,8.90217,0,0,1-6.69238-8.42188V7.8667A1.12931,1.12931,0,0,1,6.043,6.84863l4.60058-1.894a3.59322,3.59322,0,0,1,2.7129,0l4.5996,1.894a1.12883,1.12883,0,0,1,.73633,1.01807Z"/><path d="M13.97168,9.85254,11.2373,12.56885l-1.21972-1.16309A.75014.75014,0,0,0,8.98242,12.4917l1.74805,1.6665a.75012.75012,0,0,0,1.0459-.01074l3.252-3.23047a.74992.74992,0,1,0-1.05664-1.06445Z"/></svg>