<svg fill="currentColor" id="icons" xmlns="http://www.w3.org/2000/svg" viewBox="0 0 24 24"><title>05-04-shipment-add-m</title><rect id="canvas" width="24" height="24" style="fill:none"/><path d="M20.98358,8.25214a2.55166,2.55166,0,0,0-.19159-.85175l-1.21-2.833A2.58269,2.58269,0,0,0,17.20605,3H6.794A2.582,2.582,0,0,0,4.418,4.56836L3.208,7.39893a2.566,2.566,0,0,0-.19354.87255c-.00184.02149-.01252.04-.01252.062,0,.00732.004.01336.00421.02069C3.00568,8.37476,3,8.39441,3,8.415V18.4165A2.58661,2.58661,0,0,0,5.583,21H11.25a.75.75,0,0,0,0-1.5H5.583A1.08466,1.08466,0,0,1,4.5,18.4165V9.0835h15V11.25a.75.75,0,0,0,1.5,0V8.415c0-.01843-.00513-.036-.00549-.05438C20.99487,8.35114,21,8.34314,21,8.3335A.69917.69917,0,0,0,20.98358,8.25214ZM18.20312,5.15723,19.2392,7.5835H15.36469L14.7478,4.5h2.45825A1.08374,1.08374,0,0,1,18.20312,5.15723ZM13.83521,7.5835H10.16479L10.78168,4.5h2.43664ZM5.79688,5.1582A1.0831,1.0831,0,0,1,6.794,4.5H9.2522L8.63531,7.5835h-3.875Z"/><path d="M6.5,16.75a.75.75,0,0,0,0,1.5H8.333a.75.75,0,1,0,0-1.5Z"/><path d="M17.2002,13.53223a.75018.75018,0,0,0-.75.75v2h-2a.75.75,0,0,0,0,1.5h2v2a.75.75,0,0,0,1.5,0v-2h2a.75.75,0,0,0,0-1.5h-2v-2A.75019.75019,0,0,0,17.2002,13.53223Z"/></svg>