<svg fill="currentColor" id="icons" xmlns="http://www.w3.org/2000/svg" viewBox="0 0 24 24"><title>05-09-shipment-forward-m</title><rect id="canvas" width="24" height="24" style="fill:none"/><path d="M20.98346,8.2511a2.57827,2.57827,0,0,0-.19147-.85169l-1.21-2.83007A2.57872,2.57872,0,0,0,17.20654,3H6.79346a2.57817,2.57817,0,0,0-2.375,1.56836L3.207,7.40039a2.58648,2.58648,0,0,0-.1925.8703c-.0019.02161-.01258.04022-.01258.06232,0,.00738.004.01349.00421.02081C3.00568,8.37445,3,8.39435,3,8.415V18.417A2.58661,2.58661,0,0,0,5.5835,21H11.25a.75.75,0,0,0,0-1.5H5.5835A1.08466,1.08466,0,0,1,4.5,18.417V9.083h15V11.25a.75.75,0,0,0,1.5,0V8.415c0-.01849-.00513-.03626-.00549-.05469C20.99487,8.35077,21,8.34271,21,8.333A.69869.69869,0,0,0,20.98346,8.2511ZM18.20264,5.1582,19.23889,7.583h-3.874L14.74829,4.5h2.45825A1.081,1.081,0,0,1,18.20264,5.1582ZM13.83521,7.583H10.16479L10.78137,4.5h2.43726ZM5.79785,5.15723A1.08045,1.08045,0,0,1,6.79346,4.5H9.25171L8.63513,7.583H4.76062Z"/><path d="M6.5,16.75a.75.75,0,0,0,0,1.5H8.3335a.75.75,0,0,0,0-1.5Z"/><path d="M18.06592,13.74219a.75023.75023,0,0,0-1.10449,1.01562L19.02246,17l-2.061,2.24219a.75023.75023,0,0,0,1.10449,1.01562l2.52734-2.75a.75088.75088,0,0,0,0-1.01562Z"/><path d="M17.03857,16.49219l-2.52734-2.75a.75023.75023,0,0,0-1.10449,1.01562L15.46777,17l-2.061,2.24219a.75023.75023,0,0,0,1.10449,1.01562l2.52734-2.75A.75086.75086,0,0,0,17.03857,16.49219Z"/></svg>