<svg fill="currentColor" id="icons" xmlns="http://www.w3.org/2000/svg" viewBox="0 0 24 24"><title>05-07-shipment-time-m</title><rect id="canvas" width="24" height="24" style="fill:none"/><path d="M20.98346,8.2511a2.57827,2.57827,0,0,0-.19147-.85169l-1.21-2.83007A2.57872,2.57872,0,0,0,17.20654,3H6.79346a2.57817,2.57817,0,0,0-2.375,1.56836L3.207,7.40039a2.58648,2.58648,0,0,0-.1925.8703c-.0019.02161-.01258.04022-.01258.06232,0,.00738.004.01349.00421.02081C3.00568,8.37445,3,8.39435,3,8.415V18.417A2.58661,2.58661,0,0,0,5.5835,21H11.25a.75.75,0,0,0,0-1.5H5.5835A1.08466,1.08466,0,0,1,4.5,18.417V9.083h15V11.25a.75.75,0,0,0,1.5,0V8.415c0-.01849-.00513-.03626-.00549-.05469C20.99487,8.35077,21,8.34271,21,8.333A.69869.69869,0,0,0,20.98346,8.2511ZM18.20264,5.1582,19.23889,7.583h-3.874L14.74829,4.5h2.45825A1.081,1.081,0,0,1,18.20264,5.1582ZM13.83521,7.583H10.16479L10.78137,4.5h2.43726ZM5.79785,5.15723A1.08045,1.08045,0,0,1,6.79346,4.5H9.25171L8.63513,7.583H4.76062Z"/><path d="M6.5,16.75a.75.75,0,0,0,0,1.5H8.3335a.75.75,0,0,0,0-1.5Z"/><path d="M17,13a4,4,0,1,0,4,4A4.00427,4.00427,0,0,0,17,13Zm0,6.5A2.5,2.5,0,1,1,19.5,17,2.50263,2.50263,0,0,1,17,19.5Z"/><path d="M17.75,16.68945V15.7998a.75.75,0,1,0-1.5,0V17a.74942.74942,0,0,0,.21973.53027l.7998.79981a.74992.74992,0,0,0,1.06055-1.06055Z"/></svg>