<svg fill="currentColor" id="icons" xmlns="http://www.w3.org/2000/svg" viewBox="0 0 24 24"><title>05-10-shipment-back-m</title><rect id="canvas" width="24" height="24" style="fill:none"/><path d="M20.9834,8.251a2.57231,2.57231,0,0,0-.19141-.85157l-1.21-2.831A2.58,2.58,0,0,0,17.20605,3H6.794A2.58,2.58,0,0,0,4.418,4.56836l-1.21,2.831a2.57291,2.57291,0,0,0-.19336.87091c-.00189.02173-.0127.04047-.0127.06269,0,.00738.004.01349.00421.02087C3.00568,8.37451,3,8.39429,3,8.415V18.417A2.58651,2.58651,0,0,0,5.583,21H11.25a.75.75,0,0,0,0-1.5H5.583A1.08487,1.08487,0,0,1,4.5,18.417V9.083h15V11.25a.75.75,0,0,0,1.5,0V8.415c0-.01856-.00519-.03619-.00555-.05469C20.99481,8.35077,21,8.34271,21,8.333A.70043.70043,0,0,0,20.9834,8.251ZM18.20312,5.1582,19.23944,7.583H15.36481L14.74792,4.5h2.45813A1.08388,1.08388,0,0,1,18.20312,5.1582ZM13.83508,7.583H10.16492L10.7818,4.5h2.4364ZM5.79688,5.1582A1.08388,1.08388,0,0,1,6.794,4.5H9.25208L8.63519,7.583H4.76056Z"/><path d="M6.5,16.75a.75.75,0,0,0,0,1.5H8.333a.75.75,0,1,0,0-1.5Z"/><path d="M14.97754,17l2.06055-2.24219a.74987.74987,0,1,0-1.10352-1.01562l-2.52734,2.75a.74883.74883,0,0,0,0,1.01562l2.52734,2.75a.74987.74987,0,0,0,1.10352-1.01562Z"/><path d="M20.54883,13.69824a.751.751,0,0,0-1.05957.044l-2.52735,2.75a.74885.74885,0,0,0,0,1.01562l2.52735,2.75a.74987.74987,0,1,0,1.10351-1.01562L18.53223,17l2.06054-2.24219A.75.75,0,0,0,20.54883,13.69824Z"/></svg>