<svg fill="currentColor" id="icons" xmlns="http://www.w3.org/2000/svg" viewBox="0 0 24 24"><title>05-02-shipment-m</title><rect id="canvas" width="24" height="24" style="fill:none"/><path d="M20.98358,8.25232A2.56174,2.56174,0,0,0,20.792,7.3999l-1.21-2.83154A2.5796,2.5796,0,0,0,17.20654,3H6.79346a2.57873,2.57873,0,0,0-2.375,1.56787L3.20752,7.40039a2.56561,2.56561,0,0,0-.19312.8714c-.00183.02142-.01245.03979-.01245.06171,0,.00732.004.01342.00415.02069C3.00562,8.37476,3,8.39441,3,8.415V18.4165A2.58672,2.58672,0,0,0,5.5835,21h12.833A2.58672,2.58672,0,0,0,21,18.4165V8.415c0-.01843-.00513-.036-.00549-.05438C20.99487,8.35114,21,8.34314,21,8.3335A.69618.69618,0,0,0,20.98358,8.25232ZM18.20264,5.15771,19.2392,7.5835H15.36475L14.74823,4.5h2.45831A1.08132,1.08132,0,0,1,18.20264,5.15771ZM10,9.0835h3.99005L13.96143,11.25,10,11.28955Zm.16473-1.5L10.78125,4.5h2.4375l.61652,3.0835ZM5.79785,5.15723A1.08045,1.08045,0,0,1,6.79346,4.5H9.25177L8.63525,7.5835H4.76062ZM18.4165,19.5H5.5835A1.08445,1.08445,0,0,1,4.5,18.4165V9.0835h4v2.206A1.503,1.503,0,0,0,10.03857,12.75h3.92286A1.503,1.503,0,0,0,15.5,11.28955V9.0835h4v9.333A1.08445,1.08445,0,0,1,18.4165,19.5Z"/><path d="M8.3335,16.75H6.5a.75.75,0,0,0,0,1.5H8.3335a.75.75,0,0,0,0-1.5Z"/></svg>