<svg fill="currentColor" id="icons" xmlns="http://www.w3.org/2000/svg" viewBox="0 0 24 24"><title>05-03-shipment-remove-m</title><rect id="canvas" width="24" height="24" style="fill:none"/><path d="M20.98358,8.25232A2.56174,2.56174,0,0,0,20.792,7.3999l-1.21-2.83154A2.5796,2.5796,0,0,0,17.20654,3H6.79346a2.57873,2.57873,0,0,0-2.375,1.56787L3.20752,7.40039a2.56561,2.56561,0,0,0-.19312.8714c-.00183.02142-.01245.03979-.01245.06171,0,.00732.004.01342.00415.02069C3.00562,8.37476,3,8.39441,3,8.415V18.4165A2.58672,2.58672,0,0,0,5.5835,21H11.25a.75.75,0,0,0,0-1.5H5.5835A1.08445,1.08445,0,0,1,4.5,18.4165V9.0835h15V11.25a.75.75,0,0,0,1.5,0V8.415c0-.01843-.00513-.036-.00549-.05438C20.99487,8.35114,21,8.34314,21,8.3335A.69618.69618,0,0,0,20.98358,8.25232ZM18.20264,5.15771,19.2392,7.5835H15.36475L14.74823,4.5h2.45831A1.08132,1.08132,0,0,1,18.20264,5.15771ZM13.83527,7.5835H10.16473L10.78125,4.5h2.4375ZM5.79785,5.15723A1.08045,1.08045,0,0,1,6.79346,4.5H9.25177L8.63525,7.5835H4.76062Z"/><path d="M6.5,16.75a.75.75,0,0,0,0,1.5H8.3335a.75.75,0,0,0,0-1.5Z"/><path d="M14.21973,20.0625a.74971.74971,0,0,0,1.06054,0L17.25,18.09277l1.96973,1.96973A.74992.74992,0,0,0,20.28027,19.002l-1.96972-1.96972,1.96972-1.96973A.74992.74992,0,0,0,19.21973,14.002L17.25,15.97168,15.28027,14.002a.74992.74992,0,0,0-1.06054,1.06055l1.96972,1.96973L14.21973,19.002A.74973.74973,0,0,0,14.21973,20.0625Z"/></svg>