<svg fill="currentColor" id="icons" xmlns="http://www.w3.org/2000/svg" viewBox="0 0 24 24"><title>04-01-shop-m</title><rect id="canvas" width="24" height="24" style="fill:none"/><path d="M20.25,18.45215H19.1665V11.71356a2.60321,2.60321,0,0,0,1.479-1.133,2.41229,2.41229,0,0,0,.07959-2.3711l-1.415-2.73584a2.68477,2.68477,0,0,0-2.41113-1.42578H7.10107A2.8733,2.8733,0,0,0,4.69043,5.47314L3.2749,8.21a2.4114,2.4114,0,0,0,.07959,2.37061,2.60321,2.60321,0,0,0,1.479,1.133v6.73859H3.75a.75.75,0,0,0,0,1.5h16.5a.75.75,0,0,0,0-1.5ZM4.63818,9.80469a.90129.90129,0,0,1-.03125-.90576L6.02246,6.16211a1.42253,1.42253,0,0,1,1.07861-.61426h9.79786a1.20738,1.20738,0,0,1,1.07861.61475l1.41553,2.73584a.90207.90207,0,0,1-.03125.90625,1.171,1.171,0,0,1-1.00977.54492c-.74121,0-1.36719-.459-1.36719-1.002l-.00287-.0141c.00013-.00855.00287-.01642.00287-.025a.75.75,0,0,0-1.5,0c0,.56446-.62646,1.041-1.36767,1.041S12.75,9.873,12.75,9.30859a.75.75,0,0,0-1.5,0c0,.56446-.626,1.041-1.36719,1.041S8.51562,9.873,8.51562,9.30859a.75.75,0,0,0-1.5,0c0,.55829-.6134,1.02881-1.378,1.03913A1.17059,1.17059,0,0,1,4.63818,9.80469ZM6.3335,11.768a2.94413,2.94413,0,0,0,1.432-.76105A3.0814,3.0814,0,0,0,12,11.00708a3.0827,3.0827,0,0,0,4.22894.0061,2.95862,2.95862,0,0,0,1.43756.75525v6.68372h-3.083V15.60107a2.58371,2.58371,0,0,0-5.167,0v2.85108H6.3335Zm4.583,3.83306a1.084,1.084,0,0,1,2.167,0v2.85108h-2.167Z"/></svg>