<svg fill="currentColor" id="icons" xmlns="http://www.w3.org/2000/svg" viewBox="0 0 24 24"><title>04-02-shop-sign-m</title><rect id="canvas" width="24" height="24" style="fill:none"/><path d="M18.25,10.31689h-.43994L14.27069,6.78534a2.54182,2.54182,0,0,0-.44452-3.03046,2.5893,2.5893,0,0,0-3.65234,0,2.54173,2.54173,0,0,0-.44452,3.0304L6.18994,10.31689H5.75a2.75311,2.75311,0,0,0-2.75,2.75V18.25A2.75311,2.75311,0,0,0,5.75,21h12.5A2.75311,2.75311,0,0,0,21,18.25V13.06689A2.75311,2.75311,0,0,0,18.25,10.31689ZM11.2334,4.81641a1.07743,1.07743,0,1,1-.31641.76269A1.08161,1.08161,0,0,1,11.2334,4.81641ZM10.79114,7.8446a2.49349,2.49349,0,0,0,2.41772,0l2.47779,2.47229H8.31335ZM19.5,18.25a1.25116,1.25116,0,0,1-1.25,1.25H5.75A1.25116,1.25116,0,0,1,4.5,18.25V13.06689a1.25116,1.25116,0,0,1,1.25-1.25h12.5a1.25116,1.25116,0,0,1,1.25,1.25Z"/></svg>