<svg width="24" height="24" viewBox="0 0 24 24" fill="none" xmlns="http://www.w3.org/2000/svg">
<path d="M11.9901 7.25C13.8943 7.25 15.5399 8.33042 16.6669 9.33496C17.2418 9.84745 17.7109 10.3657 18.0448 10.7725C18.3611 11.1577 18.5948 11.489 18.6659 11.626C18.7433 11.7751 18.7685 11.9462 18.7372 12.1113L18.7294 12.1523C18.7224 12.2913 18.6793 12.4267 18.5995 12.542C18.5271 12.6465 17.8041 13.6714 16.664 14.6787C15.5411 15.6708 13.8957 16.75 11.9901 16.75C10.1411 16.7499 8.53193 15.6966 7.41299 14.7012C6.27944 13.6927 5.52342 12.6308 5.36514 12.3789C5.20561 12.1249 5.21222 11.8004 5.38271 11.5537C5.489 11.4 6.23006 10.3504 7.37002 9.33203C8.49034 8.33122 10.1188 7.25007 11.9901 7.25ZM11.9901 8.75C10.6793 8.75007 9.4029 9.52756 8.36904 10.4512C7.72941 11.0226 7.23147 11.6096 6.93056 11.9912C7.2341 12.3846 7.74898 12.9929 8.41006 13.5811C9.437 14.4946 10.6959 15.2499 11.9901 15.25C13.3437 15.25 14.6398 14.4656 15.6708 13.5547C16.3331 12.9695 16.8345 12.3726 17.1151 12.0156C17.0524 11.9331 16.9766 11.8344 16.8856 11.7236C16.5895 11.3629 16.1735 10.9039 15.6688 10.4541C14.6364 9.53388 13.3407 8.75 11.9901 8.75Z" fill="currentColor"/>
<circle cx="12" cy="12" r="1.5" fill="currentColor"/>
</svg>
