<svg fill="currentColor" id="icons" xmlns="http://www.w3.org/2000/svg" viewBox="0 0 24 24"><title>05-04-show-add-m</title><rect id="canvas" width="24" height="24" style="fill:none"/><path d="M11.45117,18.0127q-.03222,0-.06445-.00293c-4.39844-.375-7.70117-4.61329-8.06348-5.09522a1.63045,1.63045,0,0,1-.30762-.82422l-.00585-.06494.00488-.06494a1.63,1.63,0,0,1,.30371-.86816C3.7168,10.562,7.31248,5.96338,11.998,5.96338c4.80273,0,8.50879,4.79443,8.66406,4.99805a.75.75,0,1,1-1.19336.90869c-.13672-.17969-3.40234-4.40674-7.4707-4.40674-3.96875,0-7.24414,4.21777-7.46875,4.51416.2998.43652,3.28318,4.22217,6.98437,4.53808a.74989.74989,0,0,1-.0625,1.49708Z"/><path d="M19.9502,16.25h-2v-2a.75.75,0,0,0-1.5,0v2h-2a.75.75,0,0,0,0,1.5h2v2a.75.75,0,0,0,1.5,0v-2h2a.75.75,0,0,0,0-1.5Z"/><path d="M11.52344,14.98975a.77268.77268,0,0,1-.15918-.01661,3.00028,3.00028,0,1,1,3.4209-4.03857.75022.75022,0,0,1-1.39454.55371,1.5,1.5,0,1,0-1.71,2.01807.75013.75013,0,0,1-.15722,1.4834Z"/></svg>