<svg fill="currentColor" id="icons" xmlns="http://www.w3.org/2000/svg" viewBox="0 0 24 24"><title>05-03-show-remove-m</title><rect id="canvas" width="24" height="24" style="fill:none"/><path d="M18.31055,17.03223l1.96972-1.96973A.74992.74992,0,0,0,19.21973,14.002L17.25,15.97168,15.28027,14.002a.74992.74992,0,0,0-1.06054,1.06055l1.96972,1.96973L14.21973,19.002a.74992.74992,0,1,0,1.06054,1.06055L17.25,18.09277l1.96973,1.96973A.74992.74992,0,0,0,20.28027,19.002Z"/><path d="M11.45117,18.0127c-.02148,0-.043-.001-.06494-.00293-4.48633-.38233-7.91992-4.9043-8.064-5.0962a1.622,1.622,0,0,1-.30616-.82324l-.00634-.06494.00537-.06494a1.6334,1.6334,0,0,1,.30273-.86816c.39942-.53028,3.99461-5.12891,8.67969-5.12891,4.71045,0,8.27344,4.48584,8.66455,4.99756a.75.75,0,1,1-1.19238.91015c-.13721-.17968-3.41407-4.40771-7.47217-4.40771-3.96875,0-7.24365,4.21826-7.46875,4.51416.29931.43652,3.27246,4.22119,6.98535,4.53808a.74991.74991,0,0,1-.063,1.49708Z"/><path d="M11.523,14.98975a.76341.76341,0,0,1-.1582-.01661,3.00018,3.00018,0,1,1,3.42041-4.03857.75022.75022,0,0,1-1.39454.55371,1.5,1.5,0,1,0-1.71044,2.01807.75007.75007,0,0,1-.15723,1.4834Z"/></svg>