<svg fill="currentColor" id="icons" xmlns="http://www.w3.org/2000/svg" viewBox="0 0 24 24"><title>05-01-show-m</title><rect id="canvas" width="24" height="24" style="fill:none"/><path d="M11.99756,18.03662c-4.69092,0-8.28027-4.59814-8.67432-5.12207a1.621,1.621,0,0,1-.30713-.82422l-.00634-.06494.00537-.06494a1.6334,1.6334,0,0,1,.30273-.86816c.39942-.53028,3.99462-5.12891,8.67969-5.12891,4.71045,0,8.27344,4.48584,8.66455,4.99756a1.64265,1.64265,0,0,1,.32519,1.09277,1.54183,1.54183,0,0,1-.32666.98731C20.50586,13.24365,16.79492,18.03662,11.99756,18.03662ZM4.52881,11.97754c.31543.45654,3.54931,4.55908,7.46875,4.55908,4.06348,0,7.334-4.22656,7.47119-4.40674l-.00293-.04492.02441-.11719c-.15771-.27636-3.43457-4.50439-7.49267-4.50439C8.02979,7.46338,4.75488,11.68018,4.52881,11.97754Z"/><path d="M12,15.0498a3,3,0,1,1,3-3A3.00328,3.00328,0,0,1,12,15.0498Zm0-4.5a1.5,1.5,0,1,0,1.5,1.5A1.50164,1.50164,0,0,0,12,10.5498Z"/></svg>