<svg fill="currentColor" id="icons" xmlns="http://www.w3.org/2000/svg" viewBox="0 0 24 24"><title>01-25-shuffle-m</title><rect id="canvas" width="24" height="24" style="fill:none"/><path d="M19.78027,6.49316l-1.665-1.66406a.74992.74992,0,0,0-1.06054,1.06055l.384.38379h-2.0271a2.43053,2.43053,0,0,0-2.06738,1.167L8.30469,15.78418a.92049.92049,0,0,1-.78272.44238H4.75a.75.75,0,0,0,0,1.5H7.522a2.42788,2.42788,0,0,0,2.0669-1.167l5.03906-8.34375a.92273.92273,0,0,1,.78369-.44238h2.02783l-.38476.38476a.74992.74992,0,1,0,1.06054,1.06055l1.665-1.665A.74973.74973,0,0,0,19.78027,6.49316Z"/><path d="M9.65576,9.94141a.7495.7495,0,0,1-.64258-.36231L8.18994,8.21582a.92067.92067,0,0,0-.7832-.44238H4.75a.75.75,0,0,1,0-1.5H7.40674a2.42806,2.42806,0,0,1,2.06738,1.167l.82324,1.36328a.75051.75051,0,0,1-.6416,1.1377Z"/><path d="M19.78027,16.44629l-1.665-1.665a.74992.74992,0,0,0-1.06054,1.06055l.38476.38476H15.29688a.92068.92068,0,0,1-.78321-.44238l-.82324-1.36328a.75006.75006,0,0,0-1.28418.77539l.82324,1.36328a2.42806,2.42806,0,0,0,2.06739,1.167h2.14184l-.384.38379a.74992.74992,0,1,0,1.06054,1.06055l1.665-1.66406A.74973.74973,0,0,0,19.78027,16.44629Z"/></svg>