<svg fill="currentColor" id="icons" xmlns="http://www.w3.org/2000/svg" viewBox="0 0 24 24"><title>06-01-signature-m</title><rect id="canvas" width="24" height="24" style="fill:none"/><path d="M19.25,18.99121a3.621,3.621,0,0,1-3.43848-2.4873l-.7041-2.12305-.91211,2.74707a2.71225,2.71225,0,0,1-2.57617,1.86328,2.7226,2.7226,0,0,1-2.57617-3.584l2.41846-7.28711A1.21621,1.21621,0,0,0,11.292,7.01318a1.19863,1.19863,0,0,0-.98291-.50439,1.21441,1.21441,0,0,0-1.15234.83594L7.27979,13.001A2.665,2.665,0,0,1,4.75,14.83057a.75.75,0,0,1,0-1.5,1.16606,1.16606,0,0,0,1.106-.80274l1.877-5.65576a2.71226,2.71226,0,0,1,2.57617-1.86328,2.72244,2.72244,0,0,1,2.57617,3.584L10.4668,15.87988a1.2173,1.2173,0,0,0,.16992,1.10742,1.19923,1.19923,0,0,0,.98242.50391,1.21441,1.21441,0,0,0,1.15234-.83594l1.624-4.8916a.74987.74987,0,0,1,.71191-.51367h0a.74989.74989,0,0,1,.71192.51367l1.416,4.26758a2.12313,2.12313,0,0,0,2.01465,1.46.75.75,0,0,1,0,1.5Z"/></svg>