<svg fill="currentColor" id="icons" xmlns="http://www.w3.org/2000/svg" viewBox="0 0 24 24"><title>01-14-sleep-m</title><rect id="canvas" width="24" height="24" style="fill:none"/><path d="M11.44336,16.72559H6.32324l5.36524-6.62012a.75037.75037,0,0,0-.583-1.22217H5.26074a.75.75,0,0,0,0,1.5H9.53223L4.167,17.00342a.75037.75037,0,0,0,.583,1.22217h6.69336a.75.75,0,1,0,0-1.5Z"/><path d="M19.25,12.07129H15.44922l4.11326-5.07471a.75035.75035,0,0,0-.583-1.22217H14.28613a.75.75,0,0,0,0,1.5h3.12012L13.293,12.34912a.75037.75037,0,0,0,.583,1.22217H19.25a.75.75,0,0,0,0-1.5Z"/></svg>