<svg fill="currentColor" id="icons" xmlns="http://www.w3.org/2000/svg" viewBox="0 0 24 24"><title>03-03-slide-show-m</title><rect id="canvas" width="24" height="24" style="fill:none"/><path d="M19.40967,6.44434h-1.1305A2.80068,2.80068,0,0,0,15.7207,4.772H8.2793A2.80068,2.80068,0,0,0,5.72083,6.44434H4.59033A1.53977,1.53977,0,0,0,3.05225,7.98242v8.03516a1.53977,1.53977,0,0,0,1.53808,1.53808h1.1305A2.80068,2.80068,0,0,0,8.2793,19.228h7.4414a2.80068,2.80068,0,0,0,2.55847-1.67237h1.1305a1.53977,1.53977,0,0,0,1.53808-1.53808V7.98242A1.53977,1.53977,0,0,0,19.40967,6.44434ZM4.521,16.01758l.06933-8.10449h.88916v8.14227Zm12.3999.41064a1.20178,1.20178,0,0,1-1.2002,1.2002H8.2793a1.20178,1.20178,0,0,1-1.2002-1.2002V7.57178a1.20178,1.20178,0,0,1,1.2002-1.2002h7.4414a1.20178,1.20178,0,0,1,1.2002,1.2002Zm2.48877-.34131h-.88916V7.94464l.95849.03778Z"/><path d="M14.86035,10.70654,11.44043,8.68359A1.5031,1.5031,0,0,0,9.17236,9.97705V14.023a1.49955,1.49955,0,0,0,2.26807,1.29346l3.41992-2.02295a1.50271,1.50271,0,0,0,0-2.58692Zm-4.188,3.31641.00049-4.05029.00391.002,3.41992,2.02783Z"/></svg>