<svg fill="currentColor" id="icons" xmlns="http://www.w3.org/2000/svg" viewBox="0 0 24 24"><title>06-03-sms-remove-m</title><rect id="canvas" width="24" height="24" style="fill:none"/><path d="M14.28613,12.34229V6.14209h3.4502a1.25116,1.25116,0,0,1,1.25,1.25V11.75a.75.75,0,0,0,1.5,0V7.39209a2.75311,2.75311,0,0,0-2.75-2.75h-3.7572a2.43863,2.43863,0,0,0-2.13929-1.28418H5.96a2.449,2.449,0,0,0-2.44629,2.4458V8.33887A2.44814,2.44814,0,0,0,5.959,10.78467l2.52735.001v7.10645a2.7528,2.7528,0,0,0,2.75,2.75H12.25a.75.75,0,0,0,0-1.5H11.23633a1.25116,1.25116,0,0,1-1.25-1.25V10.84387a.94731.94731,0,0,1,.22656.11072L13.10938,12.959a.74994.74994,0,0,0,1.17675-.61669Zm-1.5-1.43116L11.06641,9.72168A2.433,2.433,0,0,0,9.6748,9.28613L5.959,9.28467a.94649.94649,0,0,1-.94531-.9458V5.80371A.94734.94734,0,0,1,5.96,4.85791h5.87988a.94733.94733,0,0,1,.94629.9458Z"/><path d="M20.28027,14.002a.74972.74972,0,0,0-1.06054,0L17.25,15.97168,15.28027,14.002a.74992.74992,0,0,0-1.06054,1.06055l1.96972,1.96973L14.21973,19.002a.74992.74992,0,1,0,1.06054,1.06055L17.25,18.09277l1.96973,1.96973A.74992.74992,0,0,0,20.28027,19.002l-1.96972-1.96972,1.96972-1.96973A.74973.74973,0,0,0,20.28027,14.002Z"/></svg>