<svg fill="currentColor" id="icons" xmlns="http://www.w3.org/2000/svg" viewBox="0 0 24 24"><title>06-05-sms-check-m</title><rect id="canvas" width="24" height="24" style="fill:none"/><path d="M14.28613,12.34229V6.14209h3.4502a1.25116,1.25116,0,0,1,1.25,1.25V11.75a.75.75,0,0,0,1.5,0V7.39209a2.75311,2.75311,0,0,0-2.75-2.75h-3.7572a2.43863,2.43863,0,0,0-2.13929-1.28418H5.96a2.449,2.449,0,0,0-2.44629,2.4458V8.33887A2.44814,2.44814,0,0,0,5.959,10.78467l2.52735.001v7.10645a2.7528,2.7528,0,0,0,2.75,2.75H12.25a.75.75,0,0,0,0-1.5H11.23633a1.25116,1.25116,0,0,1-1.25-1.25V10.84387a.94731.94731,0,0,1,.22656.11072L13.10938,12.959a.74994.74994,0,0,0,1.17675-.61669Zm-1.5-1.43116L11.06641,9.72168A2.433,2.433,0,0,0,9.6748,9.28613L5.959,9.28467a.94649.94649,0,0,1-.94531-.9458V5.80371A.94734.94734,0,0,1,5.96,4.85791h5.87988a.94733.94733,0,0,1,.94629.9458Z"/><path d="M19.23145,14.67725,16.49707,17.394,15.27734,16.231a.75013.75013,0,1,0-1.03515,1.08593l1.748,1.66651a.75012.75012,0,0,0,1.0459-.01074l3.252-3.231a.74992.74992,0,1,0-1.05664-1.06445Z"/></svg>