<svg fill="currentColor" id="icons" xmlns="http://www.w3.org/2000/svg" viewBox="0 0 24 24"><title>06-01-sms-m</title><rect id="canvas" width="24" height="24" style="fill:none"/><path d="M17.73584,4.64209H13.97919a2.4382,2.4382,0,0,0-2.13935-1.28418H5.96a2.44856,2.44856,0,0,0-2.4458,2.4458V8.33887A2.44835,2.44835,0,0,0,5.959,10.78467l2.52686.001v7.10645a2.7528,2.7528,0,0,0,2.75,2.75h6.5a2.7528,2.7528,0,0,0,2.75-2.75v-10.5A2.7528,2.7528,0,0,0,17.73584,4.64209ZM5.01416,8.33887V5.80371a.94692.94692,0,0,1,.9458-.9458h5.87988a.947.947,0,0,1,.94629.9458v5.10742L11.06641,9.72119a2.43886,2.43886,0,0,0-1.39063-.43506L5.95947,9.28467A.9465.9465,0,0,1,5.01416,8.33887Zm13.97168,9.55322a1.25116,1.25116,0,0,1-1.25,1.25h-6.5a1.25116,1.25116,0,0,1-1.25-1.25V10.84363a.94421.94421,0,0,1,.22705.111L13.10938,12.959a.75013.75013,0,0,0,1.17675-.61669V6.14209h3.44971a1.25116,1.25116,0,0,1,1.25,1.25Z"/></svg>