<svg fill="currentColor" id="icons" xmlns="http://www.w3.org/2000/svg" viewBox="0 0 24 24"><title>06-02-sms-block-m</title><rect id="canvas" width="24" height="24" style="fill:none"/><path d="M10.21289,10.95459,13.10938,12.959a.75013.75013,0,0,0,1.17675-.61669V6.14209h3.44971a1.25116,1.25116,0,0,1,1.25,1.25V11.75a.75.75,0,0,0,1.5,0V7.39209a2.75343,2.75343,0,0,0-2.75-2.75H13.97919a2.4382,2.4382,0,0,0-2.13935-1.28418H5.96a2.44856,2.44856,0,0,0-2.4458,2.4458V8.33887A2.44835,2.44835,0,0,0,5.959,10.78467l2.52686.001v7.10645a2.75311,2.75311,0,0,0,2.75,2.75H12.25a.75.75,0,0,0,0-1.5H11.23584a1.25116,1.25116,0,0,1-1.25-1.25V10.84363A.94421.94421,0,0,1,10.21289,10.95459ZM5.01416,8.33887V5.80371a.94692.94692,0,0,1,.9458-.9458h5.87988a.947.947,0,0,1,.94629.9458v5.10742L11.06641,9.72119a2.43886,2.43886,0,0,0-1.39063-.43506L5.95947,9.28467A.9465.9465,0,0,1,5.01416,8.33887Z"/><path d="M17.25,13.28223a3.75,3.75,0,1,0,3.75,3.75A3.7541,3.7541,0,0,0,17.25,13.28223Zm0,1.5a2.223,2.223,0,0,1,.97821.23315L15.233,18.01019a2.22349,2.22349,0,0,1-.233-.978A2.25246,2.25246,0,0,1,17.25,14.78223Zm0,4.5a2.2258,2.2258,0,0,1-.95007-.21784l2.98236-2.982a2.22587,2.22587,0,0,1,.21771.94983A2.25246,2.25246,0,0,1,17.25,19.28223Z"/></svg>