<svg fill="currentColor" width="24" height="24" viewBox="0 0 24 24" xmlns="http://www.w3.org/2000/svg">
<path fill-rule="evenodd" clip-rule="evenodd" d="M17.25 4H6.75C5.23186 4.00154 4.00154 5.23186 4 6.75V17.25C4.00154 18.7681 5.23186 19.9985 6.75 20H17.25C18.7681 19.9985 19.9985 18.7681 20 17.25V6.75C19.9985 5.23186 18.7681 4.00154 17.25 4ZM18.5 17.25C18.4994 17.9401 17.9401 18.4994 17.25 18.5H6.75C6.05991 18.4994 5.50064 17.9401 5.5 17.25V6.75C5.50064 6.05991 6.05991 5.50064 6.75 5.5H17.25C17.9401 5.50064 18.4994 6.05991 18.5 6.75V17.25ZM10.8698 9.20352C10.5679 8.91987 10.0932 8.93451 9.80927 9.23623L7.70288 11.477C7.43237 11.766 7.43237 12.2153 7.70288 12.5043L9.80927 14.745C10.0933 15.0454 10.5668 15.0595 10.8682 14.7764C11.1695 14.4934 11.1851 14.0199 10.903 13.7177L9.27902 11.9906L10.903 10.2636C11.1863 9.96161 11.1715 9.48719 10.8698 9.20352ZM14.3245 9.25474C14.0405 8.95433 13.567 8.94027 13.2656 9.22331C12.9643 9.50635 12.9487 9.97983 13.2308 10.2821L14.8548 12.0091L13.2308 13.7361C12.9471 14.0382 12.9619 14.513 13.264 14.7967C13.566 15.0804 14.0408 15.0656 14.3245 14.7635L16.431 12.5228C16.7015 12.2338 16.7015 11.7845 16.431 11.4955L14.3245 9.25474Z" />
</svg>
