<svg fill="currentColor" id="icons" xmlns="http://www.w3.org/2000/svg" viewBox="0 0 24 24"><title>13-01-social-proof-m</title><rect id="canvas" width="24" height="24" style="fill:none"/><path d="M9.25,12.38232A2.48855,2.48855,0,1,1,11.75049,9.894,2.49713,2.49713,0,0,1,9.25,12.38232Zm0-3.477a.9886.9886,0,1,0,1.00049.98877A1.00779,1.00779,0,0,0,9.25,8.90527Z"/><path d="M18.20947,20.044H5.79053A2.794,2.794,0,0,1,3,17.25293V6.74707a2.794,2.794,0,0,1,2.79053-2.791H18.20947A2.794,2.794,0,0,1,21,6.74707V17.25293A2.794,2.794,0,0,1,18.20947,20.044ZM5.79053,5.45605A1.29232,1.29232,0,0,0,4.5,6.74707V17.25293a1.29232,1.29232,0,0,0,1.29053,1.291H18.20947A1.29232,1.29232,0,0,0,19.5,17.25293V6.74707a1.29232,1.29232,0,0,0-1.29053-1.291Z"/><path d="M17.7749,10.31885H14.4751a.75.75,0,0,1,0-1.5h3.2998a.75.75,0,0,1,0,1.5Z"/><path d="M16.45508,12.75h-1.98a.75.75,0,1,1,0-1.5h1.98a.75.75,0,0,1,0,1.5Z"/><path d="M12.36182,17.40527a.75018.75018,0,0,1-.75-.75v-.773a1.57756,1.57756,0,0,0-1.584-1.56787H8.47217a1.57756,1.57756,0,0,0-1.584,1.56787v.773a.75.75,0,0,1-1.5,0v-.773a3.07948,3.07948,0,0,1,3.084-3.06787h1.55566a3.07948,3.07948,0,0,1,3.084,3.06787v.773A.75019.75019,0,0,1,12.36182,17.40527Z"/></svg>