<svg fill="currentColor" id="icons" xmlns="http://www.w3.org/2000/svg" viewBox="0 0 24 24"><title>14-01-soft-bounce-m</title><rect id="canvas" width="24" height="24" style="fill:none"/><path d="M20.25,19.63379H3.75a.75.75,0,0,0,0,1.5h16.5a.75.75,0,0,0,0-1.5Z"/><path d="M7.92969,17.31689a.74863.74863,0,0,0,1.06836,0l3.53613-3.59326a.7496.7496,0,1,0-1.06836-1.05175l-3.002,3.0498L4.28418,11.47412a.7496.7496,0,1,0-1.06836,1.05176Z"/><path d="M17.25,3A3.75,3.75,0,1,0,21,6.75,3.75442,3.75442,0,0,0,17.25,3Zm0,6A2.25,2.25,0,1,1,19.5,6.75,2.25278,2.25278,0,0,1,17.25,9Z"/></svg>