<svg fill="currentColor" id="icons" xmlns="http://www.w3.org/2000/svg" viewBox="0 0 24 24"><title>04-09-sort-za-m</title><rect id="canvas" width="24" height="24" style="fill:none"/><path d="M10,17.35645H6.60107l3.9751-4.76954A.7501.7501,0,0,0,10,11.35645H5a.75.75,0,0,0,0,1.5H8.39893L4.42383,17.626A.75011.75011,0,0,0,5,18.85645h5a.75.75,0,0,0,0-1.5Z"/><path d="M16.5,11.35645a3.25376,3.25376,0,0,0-3.25,3.25v3.5a.75.75,0,0,0,1.5,0v-1.25h3.5v1.25a.75.75,0,0,0,1.5,0v-3.5A3.25376,3.25376,0,0,0,16.5,11.35645Zm-1.75,4v-.75a1.75,1.75,0,0,1,3.5,0v.75Z"/><path d="M18.99951,9.10254a.74982.74982,0,0,0,.46094-1.3418,11.94182,11.94182,0,0,0-14.9209,0,.74983.74983,0,1,0,.9209,1.1836,10.4441,10.4441,0,0,1,13.0791,0A.74638.74638,0,0,0,18.99951,9.10254Z"/></svg>