<svg width="25" height="24" viewBox="0 0 25 24" fill="currentColor"
    xmlns="http://www.w3.org/2000/svg">
    <path
        d="M12.5 17.25C9.60182 17.2468 7.25316 14.8982 7.25 12C7.25 11.5858 7.58579 11.25 8 11.25C8.41421 11.25 8.75 11.5858 8.75 12C8.75 14.0711 10.4289 15.75 12.5 15.75C14.5711 15.75 16.25 14.0711 16.25 12C16.25 9.92893 14.5711 8.25 12.5 8.25C12.0858 8.25 11.75 7.91421 11.75 7.5C11.75 7.08579 12.0858 6.75 12.5 6.75C15.3995 6.75 17.75 9.10051 17.75 12C17.75 14.8995 15.3995 17.25 12.5 17.25Z" />
</svg>