<svg fill="currentColor" id="icons" xmlns="http://www.w3.org/2000/svg" viewBox="0 0 24 24"><title>03-10-split-ab-m</title><rect id="canvas" width="24" height="24" style="fill:none"/><path d="M16.2002,5H15.02539a.75.75,0,0,0,0,1.5H16.2002a1.25116,1.25116,0,0,1,1.25,1.25v8.5a1.25116,1.25116,0,0,1-1.25,1.25H15.02539a.75.75,0,0,0,0,1.5H16.2002a2.7528,2.7528,0,0,0,2.75-2.75V7.75A2.7528,2.7528,0,0,0,16.2002,5Z"/><path d="M11.90039,3a.7502.7502,0,0,0-.75.75V5H7.7002a2.75279,2.75279,0,0,0-2.75,2.75v8.5A2.75279,2.75279,0,0,0,7.7002,19h3.45019v1.25a.75.75,0,0,0,1.5,0V3.75A.7502.7502,0,0,0,11.90039,3ZM7.7002,17.5a1.25116,1.25116,0,0,1-1.25-1.25V7.75a1.25116,1.25116,0,0,1,1.25-1.25h3.45019v11Z"/></svg>