<svg fill="currentColor" id="icons" xmlns="http://www.w3.org/2000/svg" viewBox="0 0 24 24"><title>03-09-split-m</title><rect id="canvas" width="24" height="24" style="fill:none"/><path d="M18.73047,14.0918A.74993.74993,0,1,0,17.625,15.10547l.9101.99316H14.94434a2.54157,2.54157,0,0,1-2.04981-1.06836L10.7002,11.97705l2.1914-3.01758a2.54078,2.54078,0,0,1,2.042-1.05761h3.61072l-.91736.99023a.75048.75048,0,0,0,1.10157,1.01953l2.07226-2.23828a.7511.7511,0,0,0,.002-1.0166L18.73047,4.395A.74993.74993,0,1,0,17.625,5.40869l.90985.99317H14.93359a4.04276,4.04276,0,0,0-3.25488,1.67626L9.37128,11.25385a.71077.71077,0,0,0-.13983-.02826H3.75a.75.75,0,0,0,0,1.5H9.23145a.71494.71494,0,0,0,.13879-.028l2.30652,3.20868a4.04559,4.04559,0,0,0,3.26758,1.69238H18.544l-.91706.99024a.75048.75048,0,0,0,1.10157,1.01953l2.07226-2.23828a.7511.7511,0,0,0,.002-1.0166Z"/></svg>