<svg fill="currentColor" id="icons" xmlns="http://www.w3.org/2000/svg" viewBox="0 0 24 24"><title>01-03-stacked-m</title><rect id="canvas" width="24" height="24" style="fill:none"/><path d="M6.2002,19.9248a2.20233,2.20233,0,0,0,2.1997-2.20019V13.186A2.2,2.2,0,0,0,4,13.186v4.53857A2.20244,2.20244,0,0,0,6.2002,19.9248ZM5.5,13.186a.7.7,0,0,1,1.3999,0v4.53857a.7.7,0,1,1-1.3999,0Z"/><path d="M12,20a2.20245,2.20245,0,0,0,2.2002-2.2002V16.35254a2.2002,2.2002,0,0,0-4.4004,0V17.7998A2.20245,2.20245,0,0,0,12,20Zm-.7002-3.64746a.7002.7002,0,0,1,1.4004,0V17.7998a.7002.7002,0,0,1-1.4004,0Z"/><path d="M17.7998,12.14209a2.20234,2.20234,0,0,0-2.1997,2.2002V17.7998a2.2,2.2,0,1,0,4.3999,0V14.34229A2.20245,2.20245,0,0,0,17.7998,12.14209ZM18.5,17.7998a.7.7,0,1,1-1.3999,0V14.34229a.7.7,0,1,1,1.3999,0Z"/><path d="M12,13.13965a2.20245,2.20245,0,0,0,2.2002-2.2002V6.2002a2.2002,2.2002,0,0,0-4.4004,0v4.73925A2.20245,2.20245,0,0,0,12,13.13965ZM11.2998,6.2002a.7002.7002,0,0,1,1.4004,0v4.73925a.7002.7002,0,0,1-1.4004,0Z"/><path d="M17.7998,4a2.20234,2.20234,0,0,0-2.1997,2.2002v2.729a2.2,2.2,0,0,0,4.3999,0V6.2002A2.20245,2.20245,0,0,0,17.7998,4ZM18.5,8.9292a.7.7,0,0,1-1.3999,0V6.2002a.7.7,0,1,1,1.3999,0Z"/><path d="M6.2002,9.97314A2.20233,2.20233,0,0,0,8.3999,7.773V6.2002A2.2,2.2,0,1,0,4,6.2002V7.773A2.20244,2.20244,0,0,0,6.2002,9.97314ZM5.5,6.2002a.7.7,0,1,1,1.3999,0V7.773a.7.7,0,1,1-1.3999,0Z"/></svg>