<svg fill="currentColor" id="icons" xmlns="http://www.w3.org/2000/svg" viewBox="0 0 24 24"><title>02-10-star-m</title><rect id="canvas" width="24" height="24" style="fill:none"/><path d="M19.60645,9.59814l-4.794-.686L12.6709,4.63623a.78134.78134,0,0,0-1.3418,0L9.18748,8.91211l-4.79393.686a.75031.75031,0,0,0-.41308,1.2837L7.44238,14.207,6.625,18.89844a.75116.75116,0,0,0,.73926.8789.74247.74247,0,0,0,.34472-.084L12,17.47168l4.29,2.22168a.75059.75059,0,0,0,1.084-.79492l-.8164-4.69141,3.46191-3.32519a.75031.75031,0,0,0-.41308-1.2837Zm-4.376,3.80323a.75348.75348,0,0,0-.21973.66992l.626,3.59473-3.292-1.70508a.74945.74945,0,0,0-.68946,0L8.3623,17.666l.627-3.59473a.75348.75348,0,0,0-.21973-.66992L6.12891,10.86523l3.66015-.52343a.75222.75222,0,0,0,.56446-.40674L12,6.647l1.64648,3.28809a.75222.75222,0,0,0,.56446.40674l3.66015.52343Z"/></svg>