<svg fill="currentColor" id="icons" xmlns="http://www.w3.org/2000/svg" viewBox="0 0 24 24"><title>02-06-star-fill-s</title><rect id="canvas" width="24" height="24" style="fill:none"/><path d="M17.96436,10.62207a.75072.75072,0,0,0-.60889-.51416l-3.24024-.459L12.669,6.792a.781.781,0,0,0-1.3379,0L9.88477,9.64893l-3.24024.459A.74993.74993,0,0,0,6.2334,11.394l2.333,2.21826-.54981,3.127a.75019.75019,0,0,0,1.08106.79736L12,16.04834l2.90234,1.48828a.75019.75019,0,0,0,1.08106-.79736l-.54981-3.127,2.333-2.21826A.75034.75034,0,0,0,17.96436,10.62207Z"/></svg>