<svg fill="currentColor" id="icons" xmlns="http://www.w3.org/2000/svg" viewBox="0 0 24 24"><title>02-05-star-s</title><rect id="canvas" width="24" height="24" style="fill:none"/><path d="M15.24463,17.61914a.75224.75224,0,0,1-.34229-.08252L12,16.04834,9.09766,17.53662a.75019.75019,0,0,1-1.08106-.79736l.54981-3.127L6.2334,11.394a.74993.74993,0,0,1,.41113-1.28613l3.24024-.459L11.33105,6.792a.781.781,0,0,1,1.3379,0l1.44628,2.85694,3.24024.459A.74993.74993,0,0,1,17.7666,11.394l-2.333,2.21826.54981,3.127a.75007.75007,0,0,1-.73877.87988ZM12,14.45557a.74929.74929,0,0,1,.34229.08252l1.90234.97558-.3584-2.03808a.74975.74975,0,0,1,.22217-.67334l1.501-1.42676-2.09229-.29639a.7491.7491,0,0,1-.56348-.40381L12,8.7915l-.95361,1.88379a.7491.7491,0,0,1-.56348.40381l-2.09229.29639,1.501,1.42676a.74975.74975,0,0,1,.22217.67334l-.3584,2.03808,1.90234-.97558A.74929.74929,0,0,1,12,14.45557Z"/></svg>