<?xml version="1.0" encoding="UTF-8"?>
<svg width="24px" height="24px" viewBox="0 0 24 24" version="1.1"
    xmlns="http://www.w3.org/2000/svg" xmlns:xlink="http://www.w3.org/1999/xlink">
    <title>01 App menu / 03 Elements / 02 Icons / 13 Stats / 02 Inactive</title>
    <defs>
        <path
            d="M0,9 C0,13.971 4.029,18 9,18 L9,18 C13.971,18 18,13.971 18,9 L18,9 C18,4.029 13.971,0 9,0 L9,0 C4.029,0 0,4.029 0,9 L0,9 Z M1.5,9 C1.5,4.858 4.858,1.5 9,1.5 L9,1.5 C13.142,1.5 16.5,4.858 16.5,9 L16.5,9 C16.5,13.142 13.142,16.5 9,16.5 L9,16.5 C4.858,16.5 1.5,13.142 1.5,9 L1.5,9 Z"
            id="path-1"></path>
    </defs>
    <g id="01-App-menu-/-03-Elements-/-02-Icons-/-13-Stats-/-02-Inactive" stroke="none"
        stroke-width="1" fill="none" fill-rule="evenodd">
        <rect id="canvas" x="-4.9999926e-08" y="-5.00000112e-08" width="24.0000001"
            height="24.0000001"></rect>
        <g id="Group-9" transform="translate(3.000000, 3.000000)">
            <g id="Group-3">
                <mask id="mask-2" fill="white">
                    <use xlink:href="#path-1"></use>
                </mask>
                <g id="Clip-2"></g>
                <polygon id="Fill-1" fill="currentColor" mask="url(#mask-2)"
                    points="-1 -1 19 -1 19 19 -1 19"></polygon>
            </g>
            <g id="Group-8" transform="translate(9.000000, 0.856500)" stroke="currentColor"
                stroke-linejoin="round" stroke-width="1.5">
                <polyline id="Stroke-4" points="0 0 0 8.144 8.088 8.144"></polyline>
            </g>
        </g>
    </g>
</svg>