<svg fill="currentColor" id="icons" xmlns="http://www.w3.org/2000/svg" viewBox="0 0 24 24"><title>01-28-step-back-m</title><rect id="canvas" width="24" height="24" style="fill:none"/><path d="M16.62793,11.25,6.58466,11.24445l4.0169-3.96027A.74994.74994,0,1,0,9.54883,6.21582l-5.3252,5.25a.74981.74981,0,0,0,0,1.06836l5.3252,5.25a.74994.74994,0,1,0,1.05273-1.06836L6.57349,12.74445,16.625,12.75A1.84852,1.84852,0,0,1,18.5,14.51855V15A.75.75,0,0,0,20,15v-.48145A3.367,3.367,0,0,0,16.62793,11.25Z"/></svg>