<svg fill="currentColor" id="icons" xmlns="http://www.w3.org/2000/svg" viewBox="0 0 24 24"><title>04-04-stickers-m</title><rect id="canvas" width="24" height="24" style="fill:none"/><path d="M19.50879,11.18359,12.81641,4.49121l-.001-.001a1.65765,1.65765,0,0,0-1.25-.48828,8.00769,8.00769,0,0,0-1.15918,15.84278,8.4722,8.4722,0,0,0,1.61426.15722,7.90887,7.90887,0,0,0,4.90429-1.69189,8.00024,8.00024,0,0,0,3.07325-5.87549A1.65432,1.65432,0,0,0,19.50879,11.18359Zm-1.3725.749a4.35175,4.35175,0,0,1-6.06885-6.06928ZM16.002,17.12744A6.50382,6.50382,0,1,1,10.44189,5.68713a5.82608,5.82608,0,0,0,7.87079,7.87238A6.50212,6.50212,0,0,1,16.002,17.12744Z"/></svg>