<svg fill="currentColor" id="icons" xmlns="http://www.w3.org/2000/svg" viewBox="0 0 24 24"><title>02-05-stop-s</title><rect id="canvas" width="24" height="24" style="fill:none"/><path d="M15.11035,6.14014H8.88965a2.75311,2.75311,0,0,0-2.75,2.75v6.22021a2.7528,2.7528,0,0,0,2.75,2.75h6.2207a2.7528,2.7528,0,0,0,2.75-2.75V8.89014A2.75311,2.75311,0,0,0,15.11035,6.14014Zm1.25,8.97021a1.25116,1.25116,0,0,1-1.25,1.25H8.88965a1.25116,1.25116,0,0,1-1.25-1.25V8.89014a1.25116,1.25116,0,0,1,1.25-1.25h6.2207a1.25116,1.25116,0,0,1,1.25,1.25Z"/></svg>