<svg fill="currentColor" id="icons" xmlns="http://www.w3.org/2000/svg" viewBox="0 0 24 24"><title>02-06-stop-circle-m</title><rect id="canvas" width="24" height="24" style="fill:none"/><path d="M12,20a8,8,0,1,1,8-8A8.00917,8.00917,0,0,1,12,20ZM12,5.5A6.5,6.5,0,1,0,18.5,12,6.50753,6.50753,0,0,0,12,5.5Z"/><path d="M13.65039,15H10.34961A1.35129,1.35129,0,0,1,9,13.6499V10.3501A1.35129,1.35129,0,0,1,10.34961,9h3.30078A1.35129,1.35129,0,0,1,15,10.3501v3.2998A1.35129,1.35129,0,0,1,13.65039,15ZM10.5,13.5h3v-3h-3Z"/></svg>