<svg fill="currentColor" id="icons" xmlns="http://www.w3.org/2000/svg" viewBox="0 0 24 24"><title>02-08-strike-m</title><rect id="canvas" width="24" height="24" style="fill:none"/><path d="M18.83594,12.78125a.7502.7502,0,0,0-.75-.75H13.51288L9.90723,10.60059a2.03894,2.03894,0,0,1-1.25684-1.894V8.52783A1.99464,1.99464,0,0,1,10.60547,6.5h2.02832a1.99465,1.99465,0,0,1,1.95508,2.02783.75.75,0,1,0,1.5,0A3.49586,3.49586,0,0,0,12.63379,5H10.60547A3.49586,3.49586,0,0,0,7.15039,8.52783v.17871a3.50652,3.50652,0,0,0,2.20313,3.28858l.09106.03613H5.91406a.75.75,0,1,0,0,1.5H13.225l.107.04248a2.04053,2.04053,0,0,1,1.25684,1.89844A1.99465,1.99465,0,0,1,12.63379,17.5H10.60547a1.99464,1.99464,0,0,1-1.95508-2.02783.75.75,0,0,0-1.5,0A3.49586,3.49586,0,0,0,10.60547,19h2.02832a3.49687,3.49687,0,0,0,3.45508-3.53223,3.5721,3.5721,0,0,0-.56671-1.93652h2.56378A.7502.7502,0,0,0,18.83594,12.78125Z"/></svg>