<svg fill="currentColor" id="icons" xmlns="http://www.w3.org/2000/svg" viewBox="0 0 24 24"><title>03-01-subscribe-m</title><rect id="canvas" width="24" height="24" style="fill:none"/><path d="M4.80908,4.1167a.75.75,0,0,0,0,1.5A13.5896,13.5896,0,0,1,18.396,19.17822a.75.75,0,0,0,1.5,0A15.09124,15.09124,0,0,0,4.80908,4.1167Z"/><path d="M4.80908,10.03857a.75.75,0,0,0,0,1.5,7.65565,7.65565,0,0,1,7.6543,7.63965.75.75,0,0,0,1.5,0A9.15729,9.15729,0,0,0,4.80908,10.03857Z"/><circle cx="6.15631" cy="17.86102" r="2.13898"/></svg>