<svg fill="currentColor" id="icons" xmlns="http://www.w3.org/2000/svg" viewBox="0 0 24 24"><title>10-07-survey-m</title><rect id="canvas" width="24" height="24" style="fill:none"/><path d="M20.36963,3.69141a2.38472,2.38472,0,0,0-3.2959,0A2.3118,2.3118,0,0,0,16.394,5.33984L16.417,18.1582a1.86865,1.86865,0,0,0,.50342,1.27637l1.25488,1.33691a.75091.75091,0,0,0,1.09375,0L20.523,19.43555a1.87467,1.87467,0,0,0,.50439-1.28028l.023-12.81543A2.31268,2.31268,0,0,0,20.36963,3.69141ZM18.13574,4.751a.82837.82837,0,0,1,1.41455.58691l-.002,1.13965H17.89606l-.002-1.14063A.82194.82194,0,0,1,18.13574,4.751Zm1.29444,13.65625-.708.75488-.709-.75586a.37547.37547,0,0,1-.09619-.25293L17.89874,7.97754h1.64685l-.01825,10.17187A.37672.37672,0,0,1,19.43018,18.40723Z"/><path d="M12.25,3H5.75A2.7528,2.7528,0,0,0,3,5.75v12.5A2.7528,2.7528,0,0,0,5.75,21h6.5A2.7528,2.7528,0,0,0,15,18.25V5.75A2.7528,2.7528,0,0,0,12.25,3ZM13.5,18.25a1.25116,1.25116,0,0,1-1.25,1.25H5.75A1.25116,1.25116,0,0,1,4.5,18.25V5.75A1.25116,1.25116,0,0,1,5.75,4.5h6.5A1.25116,1.25116,0,0,1,13.5,5.75Z"/><path d="M10.97119,12.06738,8.2373,14.7832,7.01758,13.62012a.75013.75013,0,1,0-1.03516,1.08593l1.74805,1.667a.75071.75071,0,0,0,1.04639-.01075l3.252-3.23046a.75027.75027,0,0,0-1.05762-1.06446Z"/></svg>