<svg fill="currentColor" width="25" height="24" viewBox="0 0 25 24" xmlns="http://www.w3.org/2000/svg">
<rect x="0.5" width="24" height="24" rx="3" />
<path d="M14.9422 11.3161L10.6074 9.8477C9.97655 9.62357 9.59559 8.98102 9.70166 8.31998C9.80772 7.65893 10.3706 7.16782 11.0399 7.1523H14.6304C15.2247 7.1523 15.7066 6.67049 15.7066 6.07615C15.7066 5.48181 15.2247 5 14.6304 5H11.0198C9.29293 5.01013 7.82536 6.26467 7.54671 7.96891C7.26806 9.67315 8.25965 11.3298 9.89333 11.8894L14.2583 13.3276C14.822 13.5205 15.2015 14.0494 15.2037 14.6451V14.7759C15.2037 15.9201 14.2761 16.8477 13.1318 16.8477H9.10885C8.51451 16.8477 8.0327 17.3295 8.0327 17.9239C8.0327 18.5182 8.51451 19 9.10885 19H13.1318C14.2522 19 15.3266 18.555 16.1188 17.7628C16.9109 16.9706 17.356 15.8962 17.356 14.7759V14.6451C17.3474 13.133 16.3767 11.7943 14.9422 11.3161Z" fill="white"/>
</svg>
