<svg fill="currentColor" id="icons" xmlns="http://www.w3.org/2000/svg" viewBox="0 0 24 24"><title>Brands / 02 M / 01 Brands / 01-30-synerise-m</title><rect id="canvas" style="fill:none" x="-4.9999997e-08" y="-5.00000397e-08" width="24.0000001" height="24.0000001"></rect><path d="M14.5053548,11.2183908 L9.55133177,9.54022989 C8.83033913,9.28407828 8.3949651,8.54974196 8.51618027,7.79426138 C8.63739544,7.03878079 9.28064712,6.47750755 10.0455846,6.45977011 L14.1490329,6.45977011 C14.8282797,6.45977011 15.378918,5.90913182 15.378918,5.22988506 C15.378918,4.5506383 14.8282797,4 14.1490329,4 L10.0225961,4 C8.04906429,4.0115813 6.37183907,5.44534128 6.05338249,7.39304442 C5.73492592,9.34074756 6.8681677,11.2340292 8.73523982,11.8735632 L13.7237456,13.5172414 C14.3679487,13.737662 14.8016847,14.3421239 14.8042053,15.0229885 L14.8042053,15.1724138 C14.8042053,16.4801225 13.744098,17.5402299 12.4363892,17.5402299 L7.8386881,17.5402299 C7.15944133,17.5402299 6.60880304,18.0908682 6.60880304,18.7701149 C6.60880304,19.4493617 7.15944133,20 7.8386881,20 L12.4363892,20 C13.7167447,20 14.9446602,19.4913808 15.8500082,18.5860327 C16.7553562,17.6806847 17.2639755,16.4527693 17.2639755,15.1724138 L17.2639755,15.0229885 C17.2541857,13.2948535 16.1448364,11.7648761 14.5053548,11.2183908" id="Path"></path></svg>