<svg fill="currentColor" id="icons" xmlns="http://www.w3.org/2000/svg" viewBox="0 0 24 24"><title>01-03-tablet-s</title><rect id="canvas" width="24" height="24" style="fill:none"/><path d="M14.31885,6H9.68115a2.75311,2.75311,0,0,0-2.75,2.75v6.5a2.75311,2.75311,0,0,0,2.75,2.75h4.6377a2.75311,2.75311,0,0,0,2.75-2.75V8.75A2.75311,2.75311,0,0,0,14.31885,6Zm1.25,9.25a1.25116,1.25116,0,0,1-1.25,1.25H9.68115a1.25116,1.25116,0,0,1-1.25-1.25V8.75a1.25116,1.25116,0,0,1,1.25-1.25h4.6377a1.25116,1.25116,0,0,1,1.25,1.25Z"/><path d="M12.60449,8.7002h-1.209a.75.75,0,0,0,0,1.5h1.209a.75.75,0,0,0,0-1.5Z"/><circle cx="12" cy="14.25" r="0.75"/></svg>