<svg fill="currentColor" id="icons" xmlns="http://www.w3.org/2000/svg" viewBox="0 0 24 24"><title>01-03-tablet-m</title><rect id="canvas" width="24" height="24" style="fill:none"/><path d="M16.25,4H7.75A2.7528,2.7528,0,0,0,5,6.75v10.5A2.7528,2.7528,0,0,0,7.75,20h8.5A2.7528,2.7528,0,0,0,19,17.25V6.75A2.7528,2.7528,0,0,0,16.25,4ZM17.5,17.25a1.25116,1.25116,0,0,1-1.25,1.25H7.75A1.25116,1.25116,0,0,1,6.5,17.25V6.75A1.25116,1.25116,0,0,1,7.75,5.5h8.5A1.25116,1.25116,0,0,1,17.5,6.75Z"/><path d="M12,14.82635h-.00269a1.00135,1.00135,0,1,0,.00269,0Z"/><path d="M12.875,7.25h-1.75a.75.75,0,0,0,0,1.5h1.75a.75.75,0,0,0,0-1.5Z"/></svg>