<svg fill="currentColor" id="icons" xmlns="http://www.w3.org/2000/svg" viewBox="0 0 24 24"><title>10-05-tabs-m</title><rect id="canvas" width="24" height="24" style="fill:none"/><path d="M18.25,3H5.75A2.7528,2.7528,0,0,0,3,5.75v12.5A2.7528,2.7528,0,0,0,5.75,21h12.5A2.7528,2.7528,0,0,0,21,18.25V5.75A2.7528,2.7528,0,0,0,18.25,3ZM19.5,5.75V8.33008H15.56738V4.5H18.25A1.25116,1.25116,0,0,1,19.5,5.75ZM10.335,4.5h3.73242V8.33008H11.835a1.50164,1.50164,0,0,1-1.5-1.5Zm7.915,15H5.75A1.25116,1.25116,0,0,1,4.5,18.25V5.75A1.25116,1.25116,0,0,1,5.75,4.5H8.835V6.83008a3.00328,3.00328,0,0,0,3,3H19.5V18.25A1.25116,1.25116,0,0,1,18.25,19.5Z"/><path d="M14.25,13.89893h-1.5v-1.5a.75.75,0,0,0-1.5,0v1.5H9.75a.75.75,0,0,0,0,1.5h1.5v1.5a.75.75,0,0,0,1.5,0v-1.5h1.5a.75.75,0,0,0,0-1.5Z"/></svg>