<svg fill="currentColor" id="icons" xmlns="http://www.w3.org/2000/svg" viewBox="0 0 24 24"><title>02-03-tag-remove-m</title><rect id="canvas" width="24" height="24" style="fill:none"/><path d="M19.21973,14.002,17.25,15.97168,15.28027,14.002a.74992.74992,0,0,0-1.06054,1.06055l1.96972,1.96973L14.21973,19.002a.74992.74992,0,1,0,1.06054,1.06055L17.25,18.09277l1.96973,1.96973A.74992.74992,0,0,0,20.28027,19.002l-1.96972-1.96972,1.96972-1.96973A.74992.74992,0,0,0,19.21973,14.002Z"/><ellipse cx="15.39746" cy="8.5498" rx="1.06152" ry="1.06641"/><path d="M8.52637,19.25049A2.484,2.484,0,0,0,10.30908,20h.00049a2.48581,2.48581,0,0,0,1.7832-.749.74994.74994,0,0,0-1.06836-1.05274.997.997,0,0,1-1.4292,0L5.91162,14.458a1.06241,1.06241,0,0,1,0-1.4834L7.21619,11.6499l4.23742,4.3208a.75.75,0,1,0,1.07129-1.0498L8.2688,10.58105l4.70727-4.77978A.99514.99514,0,0,1,13.69043,5.5H17.374a1.03139,1.03139,0,0,1,1.01563,1.04346v3.74023a1.04743,1.04743,0,0,1-.30176.74121.75028.75028,0,0,0,1.06836,1.05371,2.54039,2.54039,0,0,0,.7334-1.79492V6.54346A2.53286,2.53286,0,0,0,17.374,4H13.69043a2.51724,2.51724,0,0,0-1.7832.749l-7.064,7.17286a2.56805,2.56805,0,0,0,0,3.58886Z"/></svg>