<svg fill="currentColor" id="icons" xmlns="http://www.w3.org/2000/svg" viewBox="0 0 24 24"><title>02-07-tag-block-m</title><rect id="canvas" width="24" height="24" style="fill:none"/><path d="M17.25,13.28223a3.75,3.75,0,1,0,3.75,3.75A3.75441,3.75441,0,0,0,17.25,13.28223Zm0,1.5a2.22255,2.22255,0,0,1,.97791.233l-2.99482,2.99481A2.22286,2.22286,0,0,1,15,17.03223,2.25277,2.25277,0,0,1,17.25,14.78223Zm0,4.5a2.22454,2.22454,0,0,1-.95-.218l2.982-2.98206a2.225,2.225,0,0,1,.218.95A2.25278,2.25278,0,0,1,17.25,19.28223Z"/><path d="M14.33594,8.5498a1.06178,1.06178,0,1,0,1.06152-1.0664A1.06517,1.06517,0,0,0,14.33594,8.5498Z"/><path d="M8.52686,19.251A2.48556,2.48556,0,0,0,10.30908,20h.00049a2.48779,2.48779,0,0,0,1.7832-.749.74994.74994,0,0,0-1.06836-1.05274.997.997,0,0,1-1.4292,0L5.91162,14.458a1.06241,1.06241,0,0,1,0-1.4834L7.216,11.65015l4.23761,4.32055a.7503.7503,0,0,0,1.07129-1.05078L8.2691,10.58081l4.707-4.77954A.996.996,0,0,1,13.69043,5.5h3.68311a1.03148,1.03148,0,0,1,1.01611,1.04346v3.74023a1.06453,1.06453,0,0,1-.30176.74219.74995.74995,0,1,0,1.06934,1.05176,2.5427,2.5427,0,0,0,.73242-1.794V6.54346A2.533,2.533,0,0,0,17.37354,4H13.69043a2.51724,2.51724,0,0,0-1.7832.749l-7.064,7.17286a2.56805,2.56805,0,0,0,0,3.58886Z"/></svg>