<svg xmlns="http://www.w3.org/2000/svg" viewBox="0 0 24 24">
    <path fill="none" d="M0 0h24v24H0z" />
    <path fill="currentColor"
        d="M17.37 4h-3.68a2.47 2.47 0 00-1.78.75l-7.07 7.17a2.58 2.58 0 000 3.59l3.69 3.74a2.49 2.49 0 001.78.75 2.49 2.49 0 001.78-.75A.75.75 0 0011 18.2a1 1 0 01-.71.3 1 1 0 01-.72-.3l-3.66-3.74a1.08 1.08 0 010-1.49l1.31-1.32L11.45 16a.76.76 0 00.54.23.76.76 0 00.53-1.28l-4.25-4.37L13 5.8a1 1 0 01.71-.3h3.68a1 1 0 011 1v3.74a1.05 1.05 0 01-.3.74.75.75 0 101.07 1.06 2.56 2.56 0 00.73-1.8v-3.7A2.53 2.53 0 0017.37 4z" />
    <path fill="#fd9f05"
        d="M21 16.07a.5.5 0 00-.41-.34l-2.15-.31-1-1.9a.52.52 0 00-.89 0l-1 1.9-2.16.31a.47.47 0 00-.4.34.49.49 0 00.13.51l1.55 1.48-.37 2.08a.53.53 0 00.2.49.51.51 0 00.52 0l1.93-1 1.93 1a.59.59 0 00.23 0 .55.55 0 00.3-.09.52.52 0 00.19-.49l-.36-2.08 1.55-1.48a.49.49 0 00.21-.42z" />
    <path fill="currentColor" d="M15.4 9.62a1.07 1.07 0 10-1.06-1.07 1.07 1.07 0 001.06 1.07z" />
</svg>