<svg fill="currentColor" id="icons" xmlns="http://www.w3.org/2000/svg" viewBox="0 0 24 24"><title>02-04-tag-add-m</title><rect id="canvas" width="24" height="24" style="fill:none"/><ellipse cx="15.39746" cy="8.5498" rx="1.06152" ry="1.06641"/><path d="M8.52637,19.251a2.48664,2.48664,0,0,0,1.7832.749h.001a2.47962,2.47962,0,0,0,1.78222-.74951.7496.7496,0,1,0-1.06836-1.05176.99648.99648,0,0,1-.71386.30127h-.001a.9972.9972,0,0,1-.71484-.30176L5.91211,14.458a1.06056,1.06056,0,0,1,0-1.4834l1.304-1.32434,4.238,4.32092a.75.75,0,1,0,1.07031-1.05078l-4.25573-4.339,4.70691-4.78009A.997.997,0,0,1,13.69043,5.5H17.374a1.03139,1.03139,0,0,1,1.01563,1.04346v3.74023a1.04743,1.04743,0,0,1-.30176.74121.75028.75028,0,0,0,1.06836,1.05371,2.54039,2.54039,0,0,0,.7334-1.79492V6.54346A2.53286,2.53286,0,0,0,17.374,4H13.69043a2.51638,2.51638,0,0,0-1.7832.749L4.84375,11.92188a2.56621,2.56621,0,0,0,0,3.58886Z"/><path d="M17.9502,14.28223a.75.75,0,0,0-1.5,0v2h-2a.75.75,0,0,0,0,1.5h2v2a.75.75,0,0,0,1.5,0v-2h2a.75.75,0,0,0,0-1.5h-2Z"/></svg>