<svg fill="currentColor" id="icons" xmlns="http://www.w3.org/2000/svg" viewBox="0 0 24 24"><defs><style>.cls-1{fill:none;}</style></defs><rect id="canvas" class="cls-1" width="24" height="24"/><path d="M17.37,4H13.69a2.47,2.47,0,0,0-1.78.75L4.84,11.92a2.58,2.58,0,0,0,0,3.59l3.69,3.74a2.49,2.49,0,0,0,1.78.75h0a2.49,2.49,0,0,0,1.78-.75A.75.75,0,0,0,11,18.2a1,1,0,0,1-.71.3h0a1,1,0,0,1-.72-.3L5.91,14.46a1.08,1.08,0,0,1,0-1.49l1.31-1.32L11.45,16a.76.76,0,0,0,.54.23.76.76,0,0,0,.53-1.28L8.27,10.58,13,5.8a1,1,0,0,1,.71-.3h3.68a1,1,0,0,1,1,1v3.74a1.05,1.05,0,0,1-.3.74.75.75,0,1,0,1.07,1.06,2.56,2.56,0,0,0,.73-1.8V6.54A2.53,2.53,0,0,0,17.37,4Z"/><path d="M21,16.07a.5.5,0,0,0-.41-.34l-2.15-.31-1-1.9a.52.52,0,0,0-.89,0l-1,1.9-2.16.31a.47.47,0,0,0-.4.34.49.49,0,0,0,.13.51l1.55,1.48-.37,2.08a.53.53,0,0,0,.2.49.51.51,0,0,0,.52,0l1.93-1,1.93,1a.59.59,0,0,0,.23,0,.55.55,0,0,0,.3-.09.52.52,0,0,0,.19-.49l-.36-2.08,1.55-1.48A.49.49,0,0,0,21,16.07Z"/><path d="M15.4,9.62a1.07,1.07,0,1,0-1.06-1.07A1.07,1.07,0,0,0,15.4,9.62Z"/></svg>