<svg fill="currentColor" id="icons" xmlns="http://www.w3.org/2000/svg" viewBox="0 0 24 24"><title>02-06-tag-check-m</title><rect id="canvas" width="24" height="24" style="fill:none"/><path d="M14.33594,8.5498a1.06178,1.06178,0,1,0,1.06152-1.0664A1.06517,1.06517,0,0,0,14.33594,8.5498Z"/><path d="M8.52686,19.251A2.48556,2.48556,0,0,0,10.30908,20h.00049a2.48779,2.48779,0,0,0,1.7832-.749.74994.74994,0,0,0-1.06836-1.05274.997.997,0,0,1-1.4292,0L5.91162,14.458a1.06241,1.06241,0,0,1,0-1.4834L7.216,11.65015l4.23761,4.32055a.7503.7503,0,0,0,1.07129-1.05078L8.2691,10.58081l4.707-4.77954A.996.996,0,0,1,13.69043,5.5h3.68311a1.03148,1.03148,0,0,1,1.01611,1.04346v3.74023a1.06453,1.06453,0,0,1-.30176.74219.74995.74995,0,1,0,1.06934,1.05176,2.5427,2.5427,0,0,0,.73242-1.794V6.54346A2.533,2.533,0,0,0,17.37354,4H13.69043a2.51724,2.51724,0,0,0-1.7832.749l-7.064,7.17286a2.56805,2.56805,0,0,0,0,3.58886Z"/><path d="M19.23145,14.67773l-2.73487,2.71582-1.21924-1.16308a.75013.75013,0,0,0-1.03515,1.08594l1.74756,1.667a.7501.7501,0,0,0,1.04589-.01074l3.25245-3.23047a.74993.74993,0,0,0-1.05664-1.06446Z"/></svg>