<svg fill="currentColor" id="icons" xmlns="http://www.w3.org/2000/svg" viewBox="0 0 24 24"><title>02-02-tag-m</title><rect id="canvas" width="24" height="24" style="fill:none"/><path d="M15.39746,9.61621A1.06642,1.06642,0,1,0,14.33594,8.5498,1.06559,1.06559,0,0,0,15.39746,9.61621Z"/><path d="M8.52637,19.25049A2.484,2.484,0,0,0,10.30908,20h.00049a2.48581,2.48581,0,0,0,1.7832-.749l7.06446-7.17334a2.5427,2.5427,0,0,0,.73242-1.794V6.54346A2.533,2.533,0,0,0,17.37354,4H13.69043a2.51724,2.51724,0,0,0-1.7832.749l-7.064,7.17286a2.56805,2.56805,0,0,0,0,3.58886Zm4.4497-13.44922A.996.996,0,0,1,13.69043,5.5h3.68311a1.03148,1.03148,0,0,1,1.01611,1.04346v3.74023a1.06417,1.06417,0,0,1-.30127.7417L13.398,15.78809,8.26953,10.58038ZM5.91162,12.97461,7.217,11.64917l5.12848,5.2077-1.321,1.34137a.997.997,0,0,1-1.4292,0L5.91162,14.458A1.06241,1.06241,0,0,1,5.91162,12.97461Z"/></svg>