<svg fill="currentColor" id="icons" xmlns="http://www.w3.org/2000/svg" viewBox="0 0 24 24"><title>03-01-target-m</title><rect id="canvas" width="24" height="24" style="fill:none"/><path d="M20.25,11.25H19.12634A7.15484,7.15484,0,0,0,12.75,4.92139V3.8125a.75.75,0,0,0-1.5,0V4.92139A7.15484,7.15484,0,0,0,4.87366,11.25H3.75a.75.75,0,0,0,0,1.5H4.87366A7.15484,7.15484,0,0,0,11.25,19.07861V20.1875a.75.75,0,0,0,1.5,0V19.07861A7.15484,7.15484,0,0,0,19.12634,12.75H20.25a.75.75,0,0,0,0-1.5Zm-7.5,6.31311V16.54883a.75.75,0,1,0-1.5,0v1.01428A5.64684,5.64684,0,0,1,6.38953,12.75H7.417a.75.75,0,0,0,0-1.5H6.38953A5.64684,5.64684,0,0,1,11.25,6.43689V7.45117a.75.75,0,1,0,1.5,0V6.43689A5.64684,5.64684,0,0,1,17.61047,11.25H16.583a.75.75,0,1,0,0,1.5h1.02746A5.64684,5.64684,0,0,1,12.75,17.56311Z"/></svg>