<svg fill="currentColor" id="icons" xmlns="http://www.w3.org/2000/svg" viewBox="0 0 24 24"><title>06-01-task-check-m</title><rect id="canvas" width="24" height="24" style="fill:none"/><path d="M12,14.833a.86.86,0,0,1-.53809-.22754L8.813,11.87891A.75.75,0,0,1,9.88916,10.834L12.002,13.00879l5.19092-5.30225a.75031.75031,0,1,1,1.07227,1.04981l-5.729,5.85107A.74907.74907,0,0,1,12,14.833Z"/><path d="M16.1665,19H7.8335A2.83616,2.83616,0,0,1,5,16.167V7.8335A2.83658,2.83658,0,0,1,7.8335,5H13.042a.75.75,0,0,1,0,1.5H7.8335A1.33493,1.33493,0,0,0,6.5,7.8335V16.167A1.33451,1.33451,0,0,0,7.8335,17.5h8.333A1.33451,1.33451,0,0,0,17.5,16.167V14.083a.75.75,0,0,1,1.5,0v2.084A2.83616,2.83616,0,0,1,16.1665,19Z"/></svg>