<svg fill="currentColor" id="icons" xmlns="http://www.w3.org/2000/svg" viewBox="0 0 24 24"><title>01-06-television-m</title><rect id="canvas" width="24" height="24" style="fill:none"/><path d="M17.25,4H6.75A2.7528,2.7528,0,0,0,4,6.75v6.5A2.7528,2.7528,0,0,0,6.75,16h10.5A2.7528,2.7528,0,0,0,20,13.25V6.75A2.7528,2.7528,0,0,0,17.25,4Zm1.25,9.25a1.25116,1.25116,0,0,1-1.25,1.25H6.75A1.25116,1.25116,0,0,1,5.5,13.25V6.75A1.25116,1.25116,0,0,1,6.75,5.5h10.5A1.25116,1.25116,0,0,1,18.5,6.75Z"/><path d="M17.729,18.46875a41.83325,41.83325,0,0,0-10.93554-.09863l-.50977.063a.74978.74978,0,0,0,.1836,1.48828l.50927-.0625A40.23457,40.23457,0,0,1,17.519,19.9541a.7787.7787,0,0,0,.106.00733.75.75,0,0,0,.104-1.49268Z"/></svg>