<svg fill="currentColor" id="icons" xmlns="http://www.w3.org/2000/svg" viewBox="0 0 24 24"><title>02-02-terminal-confirm-m</title><rect id="canvas" width="24" height="24" style="fill:none"/><path d="M10.36328,17.2002h3.27344a.75.75,0,0,0,0-1.5H10.36328a.75.75,0,1,0,0,1.5Z"/><path d="M10.36328,14.3501h3.27344a.75.75,0,0,0,0-1.5H10.36328a.75.75,0,0,0,0,1.5Z"/><path d="M10.36328,11.5H11.7998a.75.75,0,0,0,0-1.5H10.36328a.75.75,0,0,0,0,1.5Z"/><path d="M18.25,3H5.75A2.7528,2.7528,0,0,0,3,5.75v4.5A2.7528,2.7528,0,0,0,5.75,13h.9165v7.25a.75007.75007,0,0,0,.98047.71387l2.36328-.76319,1.69.73682a.75214.75214,0,0,0,.606-.00293l1.63965-.7334,2.41113.76367A.75021.75021,0,0,0,17.3335,20.25V13H18.25A2.7528,2.7528,0,0,0,21,10.25V5.75A2.7528,2.7528,0,0,0,18.25,3ZM15.8335,19.22559l-1.707-.54053a.74336.74336,0,0,0-.53271.03027l-1.59766.71485-1.64648-.71778a.75014.75014,0,0,0-.29981-.0625.75969.75969,0,0,0-.23046.03614l-1.65284.53369V8.72314h7.667ZM19.5,10.25a1.25116,1.25116,0,0,1-1.25,1.25h-.9165V7.97314a.7502.7502,0,0,0-.75-.75H7.4165a.7502.7502,0,0,0-.75.75V11.5H5.75A1.25116,1.25116,0,0,1,4.5,10.25V5.75A1.25116,1.25116,0,0,1,5.75,4.5h12.5A1.25116,1.25116,0,0,1,19.5,5.75Z"/></svg>