<svg fill="currentColor" id="icons" xmlns="http://www.w3.org/2000/svg" viewBox="0 0 24 24"><title>02-01-terminal-card-m</title><rect id="canvas" width="24" height="24" style="fill:none"/><path d="M18.25,3H5.75A2.7528,2.7528,0,0,0,3,5.75v4.5A2.7528,2.7528,0,0,0,5.75,13h.9165v5.25A2.75311,2.75311,0,0,0,9.4165,21h5.167a2.75311,2.75311,0,0,0,2.75-2.75V13H18.25A2.7528,2.7528,0,0,0,21,10.25V5.75A2.7528,2.7528,0,0,0,18.25,3ZM8.1665,18.25V8.72314H9.7998V19.5H9.4165A1.25116,1.25116,0,0,1,8.1665,18.25Zm7.667,0a1.25116,1.25116,0,0,1-1.25,1.25H11.2998V8.72314h4.5337Zm3.6665-8a1.25116,1.25116,0,0,1-1.25,1.25h-.9165V7.97314a.7502.7502,0,0,0-.75-.75H7.4165a.7502.7502,0,0,0-.75.75V11.5H5.75A1.25116,1.25116,0,0,1,4.5,10.25V5.75A1.25116,1.25116,0,0,1,5.75,4.5h12.5A1.25116,1.25116,0,0,1,19.5,5.75Z"/><path d="M13.5498,17.9502a.75019.75019,0,0,0,.75-.75V15.6001a.75.75,0,0,0-1.5,0v1.6001A.7502.7502,0,0,0,13.5498,17.9502Z"/></svg>