<svg fill="currentColor" id="icons" xmlns="http://www.w3.org/2000/svg" viewBox="0 0 24 24"><title>02-03-terminal-info-m</title><rect id="canvas" width="24" height="24" style="fill:none"/><path d="M12,15.54248A2.37357,2.37357,0,1,0,9.61328,13.169,2.383,2.383,0,0,0,12,15.54248Zm0-3.24707a.87363.87363,0,1,1-.88672.87354A.88145.88145,0,0,1,12,12.29541Z"/><path d="M10.36328,18.3501h3.27344a.75.75,0,0,0,0-1.5H10.36328a.75.75,0,0,0,0,1.5Z"/><path d="M18.25,3H5.75A2.7528,2.7528,0,0,0,3,5.75v4.5A2.7528,2.7528,0,0,0,5.75,13h.9165v7.25a.7502.7502,0,0,0,.75.75h9.167a.7502.7502,0,0,0,.75-.75V13H18.25A2.7528,2.7528,0,0,0,21,10.25V5.75A2.7528,2.7528,0,0,0,18.25,3ZM15.8335,19.5H8.1665V8.72314h7.667ZM19.5,10.25a1.25116,1.25116,0,0,1-1.25,1.25h-.9165V7.97314a.7502.7502,0,0,0-.75-.75H7.4165a.7502.7502,0,0,0-.75.75V11.5H5.75A1.25116,1.25116,0,0,1,4.5,10.25V5.75A1.25116,1.25116,0,0,1,5.75,4.5h12.5A1.25116,1.25116,0,0,1,19.5,5.75Z"/></svg>