<svg fill="currentColor" id="icons" xmlns="http://www.w3.org/2000/svg" viewBox="0 0 24 24"><title>02-18-text-format-m</title><rect id="canvas" width="24" height="24" style="fill:none"/><path d="M6.5957,15.56055a.74949.74949,0,0,0,1.00586-.33594l1.31336-2.627h6.17016l1.31336,2.627a.74987.74987,0,1,0,1.34179-.66992L12.6709,4.415a.70537.70537,0,0,0-.05286-.06775.62264.62264,0,0,0-.2149-.215A.69779.69779,0,0,0,12.335,4.0791c-.01593-.00787-.03308-.00653-.04925-.01318a.81718.81718,0,0,0-.568-.001c-.01727.00708-.0357.0058-.05267.01422a.70244.70244,0,0,0-.072.05621.62159.62159,0,0,0-.21155.2129.71411.71411,0,0,0-.05237.06683L6.25977,14.55469A.74919.74919,0,0,0,6.5957,15.56055Zm3.06916-4.46289L12,6.42688l2.33514,4.67078Z"/><path d="M6.93079,17.93091A1.01383,1.01383,0,1,0,7.94464,18.9447,1.01379,1.01379,0,0,0,6.93079,17.93091Z"/><path d="M17.06921,17.97229a1.01386,1.01386,0,1,0,1.0138,1.01386A1.01386,1.01386,0,0,0,17.06921,17.97229Z"/><path d="M12,17.93091a1.01383,1.01383,0,1,0,1.01385,1.01379A1.0138,1.0138,0,0,0,12,17.93091Z"/></svg>