<svg fill="currentColor" id="icons" xmlns="http://www.w3.org/2000/svg" viewBox="0 0 24 24"><title>10-02-text-area-m</title><rect id="canvas" width="24" height="24" style="fill:none"/><path d="M21,6a2.99367,2.99367,0,0,0-5.89349-.75h-6.213A2.99367,2.99367,0,1,0,5.25,8.89349v6.213A2.99367,2.99367,0,1,0,8.89349,18.75h6.213A2.99367,2.99367,0,1,0,18.75,15.10651v-6.213A2.997,2.997,0,0,0,21,6ZM18,4.5A1.5,1.5,0,1,1,16.5,6,1.50164,1.50164,0,0,1,18,4.5ZM15.10651,17.25h-6.213A2.99543,2.99543,0,0,0,6.75,15.10651v-6.213A2.99543,2.99543,0,0,0,8.89349,6.75h6.213A2.99543,2.99543,0,0,0,17.25,8.89349v6.213A2.99543,2.99543,0,0,0,15.10651,17.25ZM4.5,6A1.5,1.5,0,1,1,6,7.5,1.50164,1.50164,0,0,1,4.5,6ZM6,19.5A1.5,1.5,0,1,1,7.5,18,1.50164,1.50164,0,0,1,6,19.5ZM19.5,18A1.5,1.5,0,1,1,18,16.5,1.50164,1.50164,0,0,1,19.5,18Z"/><path d="M13.69873,9H10.30127a.75.75,0,0,0,0,1.5H11.25v3.75a.75.75,0,0,0,1.5,0V10.5h.94873a.75.75,0,0,0,0-1.5Z"/></svg>