<svg fill="currentColor" id="icons" xmlns="http://www.w3.org/2000/svg" viewBox="0 0 24 24"><title>01-07-thunder-m</title><rect id="canvas" width="24" height="24" style="fill:none"/><path d="M14.04187,12.6283a.70783.70783,0,0,0-.098-.2627.71744.71744,0,0,0-.09308-.12164.69573.69573,0,0,0-.04468-.05841.6942.6942,0,0,0-.06433-.03687.70128.70128,0,0,0-.05725-.05005l-1.8288-1.045L13.2207,9.49365a.74986.74986,0,1,0-1.1289-.9873l-1.96875,2.25a.70155.70155,0,0,0-.03723.06506.6943.6943,0,0,0-.04969.05652.6915.6915,0,0,0-.0238.07172.73578.73578,0,0,0,.13684.80639.69573.69573,0,0,0,.04468.05841.705.705,0,0,0,.06952.04145c.01928.01355.03119.03357.05206.04547l1.8288,1.045L10.7793,14.50635a.74986.74986,0,1,0,1.1289.9873l1.96875-2.25a.697.697,0,0,0,.04657-.0813c.01111-.01629.03034-.02282.04035-.04028a.6915.6915,0,0,0,.0238-.07172.72048.72048,0,0,0,.0542-.42205Z"/><path d="M12,4a8,8,0,1,0,8,8A8.00917,8.00917,0,0,0,12,4Zm0,14.5A6.5,6.5,0,1,1,18.5,12,6.50753,6.50753,0,0,1,12,18.5Z"/></svg>