<svg fill="currentColor" width="25" height="24" viewBox="0 0 25 24" xmlns="http://www.w3.org/2000/svg">
<circle cx="13" cy="12" r="7" fill="white"/>
<path fill-rule="evenodd" clip-rule="evenodd" d="M12.5 4C8.08172 4 4.5 7.58172 4.5 12C4.5 16.4183 8.08172 20 12.5 20C16.9183 20 20.5 16.4183 20.5 12C20.4949 7.58382 16.9162 4.00505 12.5 4ZM12.5 18.5C8.91015 18.5 6 15.5899 6 12C6 8.41015 8.91015 5.5 12.5 5.5C16.0899 5.5 19 8.41015 19 12C18.9959 15.5881 16.0881 18.4959 12.5 18.5ZM14.4439 12.3656C14.4937 12.4458 14.527 12.5351 14.5419 12.6283C14.5667 12.7712 14.5478 12.9183 14.4877 13.0504C14.481 13.0747 14.4731 13.0986 14.4639 13.1221C14.4586 13.1313 14.4507 13.1375 14.4428 13.1437C14.4358 13.1492 14.4287 13.1547 14.4235 13.1623C14.4098 13.1905 14.3943 13.2176 14.377 13.2437L12.4082 15.4937C12.2318 15.6953 11.9613 15.7876 11.6985 15.7357C11.4356 15.6837 11.2205 15.4956 11.134 15.242C11.0476 14.9884 11.1029 14.708 11.2793 14.5063L12.6442 12.9464L10.8154 11.9014C10.8039 11.8948 10.7951 11.8857 10.7863 11.8767C10.7792 11.8693 10.772 11.862 10.7634 11.8559C10.7394 11.8434 10.7162 11.8296 10.6939 11.8144C10.6779 11.7958 10.663 11.7763 10.6492 11.756C10.4446 11.5397 10.3906 11.2214 10.5123 10.9496C10.5189 10.9253 10.5269 10.9014 10.5361 10.8779C10.5517 10.8582 10.5682 10.8393 10.5858 10.8214C10.5971 10.7991 10.6095 10.7774 10.6231 10.7563L12.5918 8.50635C12.7682 8.30469 13.0387 8.21244 13.3015 8.26435C13.5644 8.31625 13.7795 8.50443 13.866 8.758C13.9524 9.01156 13.8971 9.29199 13.7207 9.49365L12.3557 11.0536L14.1845 12.0986C14.2045 12.1143 14.2236 12.131 14.2418 12.1487C14.2639 12.1598 14.2853 12.1721 14.3061 12.1855C14.322 12.2042 14.3369 12.2237 14.3508 12.244C14.3861 12.2811 14.4173 12.3218 14.4439 12.3656Z" />
</svg>
