<svg fill="currentColor" width="25" height="24" viewBox="0 0 25 24" xmlns="http://www.w3.org/2000/svg">
<circle cx="13" cy="12" r="7" fill="white"/>
<path fill-rule="evenodd" clip-rule="evenodd" d="M4.5 12C4.5 7.58172 8.08172 4 12.5 4C16.9162 4.00505 20.4949 7.58382 20.5 12C20.5 16.4183 16.9183 20 12.5 20C8.08172 20 4.5 16.4183 4.5 12ZM14.4877 13.05C14.5081 13.0047 14.5238 12.9573 14.5344 12.9088V12.9087C14.5881 12.6711 14.5198 12.4224 14.3524 12.2455C14.3383 12.2247 14.323 12.2047 14.3066 12.1855C14.2855 12.1718 14.2636 12.1593 14.241 12.148C14.2231 12.1305 14.2043 12.114 14.1846 12.0986L12.3558 11.0536L13.7207 9.49366C13.9933 9.18192 13.9616 8.7082 13.6499 8.43556C13.3382 8.16292 12.8644 8.19462 12.5918 8.50636L10.6231 10.7564C10.6095 10.7773 10.5972 10.7989 10.5859 10.8212C10.5683 10.8392 10.5517 10.8581 10.5361 10.8779C10.5269 10.9014 10.519 10.9253 10.5123 10.9497C10.4727 11.0385 10.4507 11.1343 10.4477 11.2315C10.4461 11.3266 10.4621 11.4212 10.4949 11.5105C10.5299 11.6016 10.5823 11.685 10.6492 11.7561C10.663 11.7763 10.6779 11.7958 10.6939 11.8145C10.7162 11.8296 10.7394 11.8434 10.7634 11.8559C10.772 11.862 10.7792 11.8693 10.7863 11.8767C10.7951 11.8858 10.8039 11.8948 10.8154 11.9014L12.6442 12.9464L11.2793 14.5063C11.1029 14.708 11.0476 14.9884 11.134 15.242C11.2205 15.4955 11.4356 15.6837 11.6985 15.7356C11.9613 15.7875 12.2318 15.6953 12.4082 15.4936L14.377 13.2436C14.3942 13.2176 14.4098 13.1905 14.4234 13.1625C14.4287 13.1547 14.4357 13.1492 14.4428 13.1437C14.4507 13.1375 14.4586 13.1313 14.4639 13.122C14.4731 13.0985 14.481 13.0745 14.4877 13.05Z" />
</svg>
