<svg fill="currentColor" id="icons" xmlns="http://www.w3.org/2000/svg" viewBox="0 0 24 24"><title>01-09-thunder-2-m</title><rect id="canvas" width="24" height="24" style="fill:none"/><path d="M18.68748,9.563H12.8418l.64648-5.58008a.75.75,0,0,0-1.34863-.53125L4.709,13.53467a.75.75,0,0,0,.6035,1.19482H11.1582l-.64648,5.58057a.74987.74987,0,0,0,1.34863.53125L19.291,10.75781A.75.75,0,0,0,18.68748,9.563Zm-6.36131,8.11767.419-3.61474A.75065.75065,0,0,0,12,13.22949H6.79688l4.877-6.61767-.419,3.61474A.75065.75065,0,0,0,12,11.063h5.20312Z"/></svg>