<svg fill="currentColor" id="icons" xmlns="http://www.w3.org/2000/svg" viewBox="0 0 24 24"><title>01-08-thunder-fill-s</title><rect id="canvas" width="24" height="24" style="fill:none"/><path d="M12,6a6,6,0,1,0,6,6A6.00657,6.00657,0,0,0,12,6Zm1.70654,6.72058a.71862.71862,0,0,1-.04736.14307.69969.69969,0,0,1-.02344.07092c-.00982.01721-.02887.02362-.03985.03973a.70676.70676,0,0,1-.04706.08234l-1.47656,1.6875a.75019.75019,0,0,1-1.12891-.98828l.87262-.997-1.17243-.67c-.02087-.0119-.03271-.03192-.052-.04547A.70592.70592,0,0,1,10.522,12.002a.71109.71109,0,0,1-.0448-.05853.75043.75043,0,0,1-.15429-.24609.76982.76982,0,0,1-.04694-.27924.74772.74772,0,0,1,.06464-.28113.70032.70032,0,0,1,.02368-.07153.69568.69568,0,0,1,.04962-.0564.69824.69824,0,0,1,.03729-.06518l1.47656-1.6875a.74987.74987,0,0,1,1.12891.9873l-.87274.99744,1.17255.67a.694.694,0,0,1,.05737.05011.6917.6917,0,0,1,.06421.03681.71109.71109,0,0,1,.0448.05853.75043.75043,0,0,1,.15429.24609.72709.72709,0,0,1,.02942.41791Z"/></svg>