<svg fill="currentColor" id="icons" xmlns="http://www.w3.org/2000/svg" viewBox="0 0 24 24"><title>01-08-thunder-fill-m</title><rect id="canvas" width="24" height="24" style="fill:none"/><path d="M12,4a8,8,0,1,0,8,8A8.00917,8.00917,0,0,0,12,4Zm2.03442,8.90875a.71824.71824,0,0,1-.04675.1413.70642.70642,0,0,1-.0238.072c-.01.01746-.0293.024-.04047.04041a.69519.69519,0,0,1-.04645.08117l-1.96875,2.25a.74986.74986,0,0,1-1.1289-.9873l1.36493-1.55994-1.8288-1.045c-.02087-.0119-.03278-.03192-.05206-.04547a.705.705,0,0,1-.06952-.04145.69573.69573,0,0,1-.04468-.05841.74964.74964,0,0,1-.15424-.24554.76982.76982,0,0,1-.04724-.279.74953.74953,0,0,1,.06464-.28186.6915.6915,0,0,1,.0238-.07172.69773.69773,0,0,1,.04981-.05676.70441.70441,0,0,1,.03711-.06482l1.96875-2.25a.74986.74986,0,1,1,1.1289.9873l-1.36493,1.55994,1.8288,1.045a.692.692,0,0,1,.05646.04938.69757.69757,0,0,1,.06561.03754.69832.69832,0,0,1,.04578.05993.73082.73082,0,0,1,.182.66327Z"/></svg>