<svg fill="currentColor" id="icons" xmlns="http://www.w3.org/2000/svg" viewBox="0 0 24 24"><title>01-07-thunder-s</title><rect id="canvas" width="24" height="24" style="fill:none"/><path d="M12,6a6,6,0,1,0,6,6A6.00657,6.00657,0,0,0,12,6Zm0,10.5A4.5,4.5,0,1,1,16.5,12,4.50491,4.50491,0,0,1,12,16.5Z"/><path d="M13.7135,12.43994a.72866.72866,0,0,0-.03638-.13727.75043.75043,0,0,0-.15429-.24609.71109.71109,0,0,0-.0448-.05853.70342.70342,0,0,0-.06415-.03669.70765.70765,0,0,0-.05743-.05023l-1.17255-.67.87274-.99744a.74987.74987,0,0,0-1.12891-.9873l-1.47656,1.6875a.68477.68477,0,0,0-.03717.06488.698.698,0,0,0-.04974.0567.70032.70032,0,0,0-.02368.07153.74772.74772,0,0,0-.06464.28113.76982.76982,0,0,0,.04694.27924.75043.75043,0,0,0,.15429.24609.71109.71109,0,0,0,.0448.05853.70592.70592,0,0,0,.06958.04145c.01929.01355.03113.03357.052.04547l1.17243.67-.87262.997a.75019.75019,0,0,0,1.12891.98828l1.47656-1.6875a.70676.70676,0,0,0,.04706-.08234c.011-.01611.03-.02252.03985-.03973a.69969.69969,0,0,0,.02344-.07092.71862.71862,0,0,0,.04736-.14307.70671.70671,0,0,0,.007-.28064Z"/></svg>