<svg fill="currentColor" id="icons" xmlns="http://www.w3.org/2000/svg" viewBox="0 0 24 24"><title>02-10-tiles-m</title><rect id="canvas" width="24" height="24" style="fill:none"/><path d="M8.97754,11.2998H6.25A2.25309,2.25309,0,0,1,4,9.0498V6.25A2.25309,2.25309,0,0,1,6.25,4H8.97754a2.25309,2.25309,0,0,1,2.25,2.25V9.0498A2.25309,2.25309,0,0,1,8.97754,11.2998ZM6.25,5.5a.75144.75144,0,0,0-.75.75V9.0498a.75144.75144,0,0,0,.75.75H8.97754a.75145.75145,0,0,0,.75-.75V6.25a.75145.75145,0,0,0-.75-.75Z"/><path d="M17.75,11.2998H15.02246a2.25309,2.25309,0,0,1-2.25-2.25V6.25a2.25309,2.25309,0,0,1,2.25-2.25H17.75A2.25309,2.25309,0,0,1,20,6.25V9.0498A2.25309,2.25309,0,0,1,17.75,11.2998ZM15.02246,5.5a.75145.75145,0,0,0-.75.75V9.0498a.75145.75145,0,0,0,.75.75H17.75a.75144.75144,0,0,0,.75-.75V6.25a.75144.75144,0,0,0-.75-.75Z"/><path d="M8.97754,20H6.25A2.25309,2.25309,0,0,1,4,17.75V14.9502a2.25309,2.25309,0,0,1,2.25-2.25H8.97754a2.25309,2.25309,0,0,1,2.25,2.25V17.75A2.25309,2.25309,0,0,1,8.97754,20ZM6.25,14.2002a.75144.75144,0,0,0-.75.75V17.75a.75144.75144,0,0,0,.75.75H8.97754a.75145.75145,0,0,0,.75-.75V14.9502a.75145.75145,0,0,0-.75-.75Z"/><path d="M17.75,20H15.02246a2.25309,2.25309,0,0,1-2.25-2.25V14.9502a2.25309,2.25309,0,0,1,2.25-2.25H17.75a2.25309,2.25309,0,0,1,2.25,2.25V17.75A2.25309,2.25309,0,0,1,17.75,20Zm-2.72754-5.7998a.75145.75145,0,0,0-.75.75V17.75a.75145.75145,0,0,0,.75.75H17.75a.75144.75144,0,0,0,.75-.75V14.9502a.75144.75144,0,0,0-.75-.75Z"/></svg>