<svg fill="currentColor" id="icons" xmlns="http://www.w3.org/2000/svg" viewBox="0 0 24 24"><title>06-05-time-interval-m</title><rect id="canvas" width="24" height="24" style="fill:none"/><path d="M19.21387,13.30371,10.68748,4.80762a2.68922,2.68922,0,0,0-3.78709.00049L4.78613,6.915a2.66652,2.66652,0,0,0,0,3.78125l8.52635,8.49512a2.68779,2.68779,0,0,0,3.78713,0L19.21387,17.085a2.66652,2.66652,0,0,0,0-3.78125Zm-1.0586,2.71875L16.041,18.12891a1.18475,1.18475,0,0,1-1.66993,0l-2.97967-2.96875L12.5127,14.043a.74992.74992,0,0,0-1.0586-1.0625l-1.12518,1.12109-.88153-.87829L11.76172,10.917a.74992.74992,0,0,0-1.0586-1.0625L8.38489,12.16461l-.88153-.87829L8.624,10.16943a.74992.74992,0,1,0-1.05859-1.0625L6.44086,10.22772l-.59613-.59393a1.167,1.167,0,0,1,0-1.65625L7.959,5.87109a1.18535,1.18535,0,0,1,1.66993-.00048l8.52636,8.4956a1.167,1.167,0,0,1,0,1.65625Z"/><circle cx="16.38275" cy="15.10931" r="0.96467"/></svg>