<svg fill="currentColor" id="icons" xmlns="http://www.w3.org/2000/svg" viewBox="0 0 24 24"><title>02-02-timer-m</title><rect id="canvas" width="24" height="24" style="fill:none"/><path d="M9.82666,4.4917h3.47705a.75.75,0,0,0,0-1.5h-3.477a.75.75,0,0,0,0,1.5Z"/><path d="M11.56543,9.61816a.7502.7502,0,0,0-.75.75v2.93555a.75.75,0,1,0,1.5,0V10.36816A.7502.7502,0,0,0,11.56543,9.61816Z"/><path d="M19.91943,6.68848,18.18066,4.9502a.74992.74992,0,0,0-1.06054,1.06054l.339.33887L16.45447,7.35455A7.71381,7.71381,0,1,0,17.515,8.41516L18.51978,7.41l.33911.339a.74992.74992,0,0,0,1.06054-1.06054Zm-8.354,12.81982a6.20435,6.20435,0,1,1,6.2041-6.20459A6.2114,6.2114,0,0,1,11.56543,19.5083Z"/></svg>