<svg fill="currentColor" id="icons" xmlns="http://www.w3.org/2000/svg" viewBox="0 0 24 24"><title>08-04-tools-m</title><rect id="canvas" width="24" height="24" style="fill:none"/><path d="M19.90039,15.67969l-4.0415-4.1203,1.89392-1.93073.0011-.00073.00091-.00134,1.68659-1.71936a1.57246,1.57246,0,0,0,0-2.19287L18.18457,4.43311a1.56668,1.56668,0,0,0-2.19043,0l-1.6684,1.7008-.00054.00037-.00049.00067L12.4314,8.06506,8.41113,3.9668a.77266.77266,0,0,0-1.07031,0L3.979,7.394a.75136.75136,0,0,0,0,1.05078l4.04,4.11841L5.46777,15.16406a2.37322,2.37322,0,0,0-.55957.92481l-.56836,1.74218-.00048.00049a1.56074,1.56074,0,0,0,.38818,1.602,1.52334,1.52334,0,0,0,1.57031.36036l1.70606-.58106a2.34105,2.34105,0,0,0,.91113-.57471L11.447,16.057l4.02179,4.10022a.74983.74983,0,0,0,1.07031,0l3.36133-3.42676A.75044.75044,0,0,0,19.90039,15.67969ZM17.11426,5.48389l1.25683,1.37256L17.22815,8.02167,15.92352,6.69208ZM5.56543,7.91943,7.876,5.56348,11.38086,9.136l-2.31128,2.3562Zm2.2793,9.66846a.82782.82782,0,0,1-.3252.20508l-1.73926.57226a.06236.06236,0,0,1-.01465-.06982L6.335,16.55225a.86876.86876,0,0,1,.2041-.33838L14.87048,7.7605l1.30719,1.33209-1.89434,1.93127-.00013.00007-.00012.00018-3.3609,3.42639-.0003.00018-.00025.00037Zm8.15918.97315-3.50641-3.575,2.31085-2.35577,3.5061,3.57477Z"/></svg>