<svg fill="currentColor" id="icons" xmlns="http://www.w3.org/2000/svg" viewBox="0 0 24 24"><title>03-07-translate-m</title><rect id="canvas" width="24" height="24" style="fill:none"/><path d="M10.84277,12.5a2.26558,2.26558,0,0,1-1.43591-.52948A7.36643,7.36643,0,0,0,11.4248,6.86133a.73683.73683,0,0,0-.07537-.31623.74064.74064,0,0,0-.70783-.54119H8.40771V4.75a.75.75,0,0,0-1.5,0V6.00391H4.75732a.75.75,0,0,0,0,1.5H9.88873A5.85158,5.85158,0,0,1,8.548,10.685a2.95584,2.95584,0,0,1-.14953-.90375.75.75,0,0,0-1.5,0,4.39466,4.39466,0,0,0,.46423,1.94318,4.73571,4.73571,0,0,1-2.55456.758.75.75,0,0,0,0,1.5A6.22613,6.22613,0,0,0,8.24774,12.933,3.77228,3.77228,0,0,0,10.84277,14a.75.75,0,1,0,0-1.5Z"/><path d="M19.93945,18.97266l-3.38916-8.50049A.75.75,0,0,0,15.85352,10H15.853a.74931.74931,0,0,0-.69629.47266l-3.38037,8.5a.74994.74994,0,1,0,1.39355.55468l.72-1.81036a.71018.71018,0,0,0,.12958.02618h3.72022a.70264.70264,0,0,0,.0877-.0177l.71845,1.80188a.74994.74994,0,0,0,1.39355-.55468Zm-5.46338-2.7295,1.37842-3.46582,1.3819,3.46582Z"/></svg>