<svg fill="currentColor" id="icons" xmlns="http://www.w3.org/2000/svg" viewBox="0 0 24 24"><title>03-04-transform-m</title><rect id="canvas" width="24" height="24" style="fill:none"/><path d="M16.9502,21.15039a4,4,0,1,1,4-4A4.00395,4.00395,0,0,1,16.9502,21.15039Zm0-6.5a2.5,2.5,0,1,0,2.5,2.5A2.50231,2.50231,0,0,0,16.9502,14.65039Z"/><path d="M20.15137,8.415a.7496.7496,0,0,0-1.05957-.04492l-1.49219,1.372V8.7998a5.75639,5.75639,0,0,0-5.75-5.75h-.19922a5.75639,5.75639,0,0,0-5.75,5.75V13.5H3.7002a.75019.75019,0,0,0-.75.75v6a.75019.75019,0,0,0,.75.75h6a.7502.7502,0,0,0,.75-.75v-6a.7502.7502,0,0,0-.75-.75H7.40039V8.7998a4.25475,4.25475,0,0,1,4.25-4.25h.19922a4.25475,4.25475,0,0,1,4.25,4.25v.94227L14.60742,8.37012A.75023.75023,0,0,0,13.5918,9.47461l2.75,2.52783a.75086.75086,0,0,0,1.01562,0l2.75-2.52783A.75007.75007,0,0,0,20.15137,8.415ZM8.9502,19.5h-4.5V15h4.5Z"/></svg>