<svg fill="currentColor" id="icons" xmlns="http://www.w3.org/2000/svg" viewBox="0 0 24 24"><title>01-12-trash-s</title><rect id="canvas" width="24" height="24" style="fill:none"/><path d="M16.78809,8.59473H7.21191a.75.75,0,0,0,0,1.5h.37543l.36774,6.10254a2.01875,2.01875,0,0,0,1.98144,1.92578h4.127a2.01875,2.01875,0,0,0,1.98144-1.92578l.36774-6.10254h.37543a.75.75,0,0,0,0-1.5Zm-2.24121,7.51269a.51771.51771,0,0,1-.4834.51563h-4.127a.51771.51771,0,0,1-.4834-.51563l-.36236-6.01269h5.81848Z"/><path d="M11.07422,7.79932a2.65115,2.65115,0,0,1,1.93262.01123A.74995.74995,0,1,0,13.56152,6.417a4.136,4.136,0,0,0-3.02636-.01806.75028.75028,0,0,0,.53906,1.40039Z"/></svg>