<svg fill="currentColor" xmlns="http://www.w3.org/2000/svg" viewBox="0 0 24 24"><title>01-15-trash-m</title><g id="transparent_canvas"><rect id="canvas" width="24" height="24" style="fill:none"/></g><g id="icons"><path d="M19.75,7.2002H4.25a.75.75,0,0,0,0,1.5H5.298l.619,9.74414a2.75414,2.75414,0,0,0,2.74414,2.57617h6.67774a2.754,2.754,0,0,0,2.74414-2.5752l.619-9.74511H19.75a.75.75,0,1,0,0-1.5ZM16.58691,18.35059a1.25236,1.25236,0,0,1-1.248,1.16992H8.66113a1.25248,1.25248,0,0,1-1.248-1.1709l-.613-9.64941H17.19989Z"/><path d="M8.39941,6.19922a.74993.74993,0,0,1-.66992-1.08447l.001-.002a.766.766,0,0,1,.084-.13086A5.15914,5.15914,0,0,1,11.877,3.02051h.29493a5.17511,5.17511,0,0,1,4.00488,1.88916.75029.75029,0,0,1-1.15821.9541,3.677,3.677,0,0,0-2.84667-1.34326H11.877A3.66743,3.66743,0,0,0,8.99707,5.9043.75249.75249,0,0,1,8.39941,6.19922Z"/></g></svg>