<svg fill="currentColor" id="icons" xmlns="http://www.w3.org/2000/svg" viewBox="0 0 24 24"><title>01-25-twitter-fill-m</title><rect id="canvas" width="24" height="24" style="fill:#fff;fill-opacity:0.1"/><path d="M9.5249,19.7002c-3.73291,0-5.25781-2.05469-6.36963-3.56348a.76755.76755,0,0,1-.09326-.15723v-.001h0a.749.749,0,0,1,.169-.83985.7331.7331,0,0,1,.21972-.14648.72452.72452,0,0,1,.09717-.03516c.11963-.03808.773-.25391,1.37354-.45312A8.29566,8.29566,0,0,1,4.792,4.61035a.75041.75041,0,0,1,1.26709.082A8.03659,8.03659,0,0,0,9.71436,8.13574,4.67981,4.67981,0,0,1,14.4751,4.2998a4.39028,4.39028,0,0,1,3.68164,1.63575H20.25a.75027.75027,0,0,1,.62256,1.16894L19.34863,9.37012C19.25635,15.65332,15.42139,19.7002,9.5249,19.7002Z"/></svg>