<svg fill="currentColor" id="icons" xmlns="http://www.w3.org/2000/svg" viewBox="0 0 24 24"><title>01-24-twitter-m</title><rect id="canvas" width="24" height="24" style="fill:#fff;fill-opacity:0.1"/><path d="M9.52539,19.7002c-3.7334,0-5.25879-2.05469-6.37012-3.56348a.7249.7249,0,0,1-.09279-.15723v-.001h0a.73268.73268,0,0,1-.0615-.25977.74288.74288,0,0,1,.05175-.31543.75768.75768,0,0,1,.17774-.26465.74551.74551,0,0,1,.21973-.14648.73019.73019,0,0,1,.09765-.03516c.12012-.03808.77246-.25391,1.373-.45312A8.29417,8.29417,0,0,1,4.793,4.61035a.75.75,0,0,1,1.2666.082,8.03221,8.03221,0,0,0,3.6543,3.44336A4.68054,4.68054,0,0,1,14.47461,4.2998a4.39281,4.39281,0,0,1,3.68262,1.63575H20.25a.74989.74989,0,0,1,.62207,1.16894L19.34766,9.37012C19.25586,15.6543,15.4209,19.7002,9.52539,19.7002Zm-4.54-3.63672a5.26334,5.26334,0,0,0,4.54,2.13672c5.13184,0,8.32031-3.46778,8.32422-9.05176a.744.744,0,0,1,.0332-.23047h0V8.917a.72905.72905,0,0,1,.10059-.20508l.8584-1.27636H17.77539a.7483.7483,0,0,1-.624-.334A2.86547,2.86547,0,0,0,14.47461,5.7998a3.26351,3.26351,0,0,0-3.375,3.36426.75139.75139,0,0,1-.92578.7041A8.78261,8.78261,0,0,1,5.41309,6.46875,6.73586,6.73586,0,0,0,6.75586,14.332a.75038.75038,0,0,1-.29492,1.24121C5.81934,15.78613,5.34082,15.94531,4.98535,16.06348Z"/></svg>