<svg fill="currentColor" id="icons" xmlns="http://www.w3.org/2000/svg" viewBox="0 0 24 24"><title>02-07-underline-m</title><rect id="canvas" width="24" height="24" style="fill:none"/><path d="M6.72656,18.25a.75019.75019,0,0,0,.75.75h9.04688a.75.75,0,0,0,0-1.5H7.47656A.75019.75019,0,0,0,6.72656,18.25Z"/><path d="M8.23047,5a.7502.7502,0,0,0-.75.75v5.46875A4.5946,4.5946,0,0,0,12,15.875a4.5946,4.5946,0,0,0,4.51953-4.65625V5.75a.75.75,0,0,0-1.5,0v5.46875A3.09371,3.09371,0,0,1,12,14.375a3.09371,3.09371,0,0,1-3.01953-3.15625V5.75A.7502.7502,0,0,0,8.23047,5Z"/></svg>