<svg fill="currentColor" id="icons" xmlns="http://www.w3.org/2000/svg" viewBox="0 0 24 24"><title>03-08-unlimited-m</title><rect id="canvas" width="24" height="24" style="fill:none"/><path d="M19.7793,9.04785a4.173,4.173,0,0,0-5.89453,0,.74992.74992,0,0,0,1.06054,1.06055,2.66857,2.66857,0,0,1,3.77344,3.77441,2.72884,2.72884,0,0,1-3.77344,0l-2.40637-2.40637-.00867-.01306-2.415-2.41553a4.16944,4.16944,0,1,0,0,5.89551.74992.74992,0,1,0-1.06054-1.06055,2.72884,2.72884,0,0,1-3.77344,0A2.66857,2.66857,0,1,1,9.05469,10.1084l2.40637,2.4068.00867.01312,2.415,2.415A4.16841,4.16841,0,1,0,19.7793,9.04785Z"/></svg>