<svg fill="currentColor" id="icons" xmlns="http://www.w3.org/2000/svg" viewBox="0 0 24 24"><title>02-12-unlink-m</title><rect id="canvas" width="24" height="24" style="fill:none"/><path d="M18.61914,11.82568,17.18652,10.398a.74992.74992,0,0,0-1.05859,1.0625l1.43262,1.42773a3.27659,3.27659,0,0,1,0,4.648,3.31637,3.31637,0,0,1-4.67285,0L11.45508,16.1084a.74992.74992,0,1,0-1.0586,1.0625l1.43262,1.42773a4.80323,4.80323,0,0,0,8.19824-3.3872A4.74585,4.74585,0,0,0,18.61914,11.82568Z"/><path d="M7.34277,13.8208a.75.75,0,0,0,.5293-1.28125L6.43945,11.11182a3.27659,3.27659,0,0,1,0-4.64795,3.31817,3.31817,0,0,1,4.67285,0L12.54492,7.8916a.74992.74992,0,0,0,1.0586-1.0625L12.1709,5.40137a4.82,4.82,0,0,0-6.79,0,4.776,4.776,0,0,0,0,6.773l1.43262,1.42773A.74717.74717,0,0,0,7.34277,13.8208Z"/><path d="M17.77051,6.31592A.74975.74975,0,0,0,16.71,6.30811L6.21,16.65039A.74994.74994,0,1,0,7.2627,17.71875l10.5-10.34229A.74974.74974,0,0,0,17.77051,6.31592Z"/></svg>