<svg fill="currentColor" id="icons" xmlns="http://www.w3.org/2000/svg" viewBox="0 0 24 24"><title>03-09-unlimited-circle-m</title><rect id="canvas" width="24" height="24" style="fill:none"/><path d="M14.43555,14.46875a2.4536,2.4536,0,0,1-1.749-.72461L12,13.05762l-.68652.68652a2.53045,2.53045,0,0,1-3.49707,0,2.4728,2.4728,0,0,1,3.49707-3.49707L12,10.93359l.68652-.68652a2.4728,2.4728,0,1,1,1.749,4.22168Zm-1.376-2.47314.6875.688a.99659.99659,0,0,0,1.376.00049.97313.97313,0,0,0-1.376-1.37646ZM9.56543,11.023A.97228.97228,0,0,0,8.877,12.68311a.99517.99517,0,0,0,1.376.001l.6875-.68847-.6875-.688A.96974.96974,0,0,0,9.56543,11.023Z"/><path d="M12,20a8,8,0,1,1,8-8A8.00917,8.00917,0,0,1,12,20ZM12,5.5A6.5,6.5,0,1,0,18.5,12,6.50753,6.50753,0,0,0,12,5.5Z"/></svg>