<svg fill="currentColor" id="icons" xmlns="http://www.w3.org/2000/svg" viewBox="0 0 24 24"><title>01-02-unlock-m</title><rect id="canvas" width="24" height="24" style="fill:none"/><path d="M17.25,9H9.18066V7.22314A2.77563,2.77563,0,0,1,12,4.5a2.84249,2.84249,0,0,1,2.35352,1.22363A.75031.75031,0,0,0,15.5918,4.876,4.34313,4.34313,0,0,0,12,3,4.27682,4.27682,0,0,0,7.68066,7.22314V9H6.75A2.7528,2.7528,0,0,0,4,11.75v6.5A2.7528,2.7528,0,0,0,6.75,21h10.5A2.7528,2.7528,0,0,0,20,18.25v-6.5A2.7528,2.7528,0,0,0,17.25,9Zm1.25,9.25a1.25116,1.25116,0,0,1-1.25,1.25H6.75A1.25116,1.25116,0,0,1,5.5,18.25v-6.5A1.25116,1.25116,0,0,1,6.75,10.5h10.5a1.25116,1.25116,0,0,1,1.25,1.25Z"/><path d="M12,12.4502a1.49511,1.49511,0,0,0-.75,2.79132V17.0498a.75.75,0,0,0,1.5,0V15.24152A1.49511,1.49511,0,0,0,12,12.4502Z"/></svg>