<svg fill="currentColor" id="icons" xmlns="http://www.w3.org/2000/svg" viewBox="0 0 24 24"><title>03-02-unsubscribe-m</title><rect id="canvas" width="24" height="24" style="fill:none"/><path d="M17.187,10.56494a.75.75,0,1,0-1.22949.85938,13.54374,13.54374,0,0,1,1.11377,1.90625A13.41424,13.41424,0,0,1,18.396,19.17822a.75.75,0,0,0,1.5,0,14.892,14.892,0,0,0-1.47217-6.4956A14.98866,14.98866,0,0,0,17.187,10.56494Z"/><path d="M4.80908,5.6167a13.55119,13.55119,0,0,1,7.42725,2.20361.75.75,0,0,0,.82031-1.25586A15.04445,15.04445,0,0,0,4.80908,4.1167a.75.75,0,0,0,0,1.5Z"/><path d="M4.80908,10.03857a.75.75,0,0,0,0,1.5,7.65565,7.65565,0,0,1,7.6543,7.63965.75.75,0,0,0,1.5,0A9.15729,9.15729,0,0,0,4.80908,10.03857Z"/><circle cx="6.15631" cy="17.86102" r="2.13898"/><path d="M20.28027,3.356a.74972.74972,0,0,0-1.06054,0L17.25,5.32568,15.28027,3.356A.74992.74992,0,0,0,14.21973,4.4165l1.96972,1.96973L14.21973,8.356A.74992.74992,0,1,0,15.28027,9.4165L17.25,7.44678,19.21973,9.4165A.74992.74992,0,0,0,20.28027,8.356L18.31055,6.38623,20.28027,4.4165A.74972.74972,0,0,0,20.28027,3.356Z"/></svg>