<svg fill="currentColor" id="icons" xmlns="http://www.w3.org/2000/svg" viewBox="0 0 24 24"><title>01-15-update-data-m</title><rect id="canvas" width="24" height="24" style="fill:none"/><path d="M12,11.7002A3.87427,3.87427,0,1,0,8.13086,7.82568,3.87612,3.87612,0,0,0,12,11.7002Zm0-6.24854a2.37428,2.37428,0,1,1-2.36914,2.374A2.37406,2.37406,0,0,1,12,5.45166Z"/><path d="M12.4248,12.75H8.77539a4.7554,4.7554,0,0,0-4.75,4.75v.76074a1.75212,1.75212,0,0,0,1.75,1.75h5.5a.75.75,0,1,0,0-1.5h-5.5a.25048.25048,0,0,1-.25-.25V17.5a3.25377,3.25377,0,0,1,3.25-3.25H12.4248a.75.75,0,0,0,0-1.5Z"/><path d="M13.9248,18.68262a.75066.75066,0,0,1-.71679-.52881,3.9228,3.9228,0,0,1-.18848-1.167,3.99635,3.99635,0,0,1,3.99219-3.99121,3.9169,3.9169,0,0,1,1.166.18847.75.75,0,1,1-.4414,1.4336,2.45617,2.45617,0,0,0-.72461-.12207,2.49471,2.49471,0,0,0-2.49219,2.49121,2.454,2.454,0,0,0,.12207.72461.75013.75013,0,0,1-.7168.97119Z"/><path d="M17.01172,20.97852a3.9236,3.9236,0,0,1-1.20117-.20166.75018.75018,0,1,1,.45507-1.42969,2.4156,2.4156,0,0,0,.7461.13135,2.494,2.494,0,0,0,2.49121-2.4917,2.42629,2.42629,0,0,0-.13184-.74561.75019.75019,0,0,1,1.42969-.45508,3.93644,3.93644,0,0,1,.20215,1.20069A3.99562,3.99562,0,0,1,17.01172,20.97852Z"/></svg>