<svg fill="currentColor" id="icons" xmlns="http://www.w3.org/2000/svg" viewBox="0 0 24 24"><title>01-12-user-id-m</title><rect id="canvas" width="24" height="24" style="fill:none"/><path d="M16.20947,4.9502H14.1499a.70585.70585,0,0,0-.1001.0202V3.55371a.75019.75019,0,0,0-.75-.75H10.7002a.75019.75019,0,0,0-.75.75V4.9502H7.79053A2.79385,2.79385,0,0,0,5,7.74072V18.15918a2.794,2.794,0,0,0,2.79053,2.791h8.41894A2.794,2.794,0,0,0,19,18.15918V7.74072A2.79385,2.79385,0,0,0,16.20947,4.9502ZM11.4502,4.30371h1.0996V5.832H11.4502ZM17.5,18.15918a1.29232,1.29232,0,0,1-1.29053,1.291H7.79053A1.29232,1.29232,0,0,1,6.5,18.15918V7.74072A1.29221,1.29221,0,0,1,7.79053,6.4502H9.9502V6.582a.75019.75019,0,0,0,.75.75h2.5996a.75019.75019,0,0,0,.75-.75V6.43a.70587.70587,0,0,0,.1001.02021h2.05957A1.29221,1.29221,0,0,1,17.5,7.74072Z"/><path d="M12,13.52734a2.4888,2.4888,0,1,0-2.50049-2.48877A2.49755,2.49755,0,0,0,12,13.52734Zm0-3.47754a.98884.98884,0,1,1-1.00049.98877A1.00779,1.00779,0,0,1,12,10.0498Z"/><path d="M12.77783,13.959H11.22217a3.07958,3.07958,0,0,0-3.084,3.06836v.77246a.75.75,0,0,0,1.5,0v-.77246a1.578,1.578,0,0,1,1.584-1.56836h1.55566a1.578,1.578,0,0,1,1.584,1.56836v.77246a.75.75,0,0,0,1.5,0v-.77246A3.07958,3.07958,0,0,0,12.77783,13.959Z"/></svg>