<svg fill="currentColor" id="icons" xmlns="http://www.w3.org/2000/svg" viewBox="0 0 24 24"><title>01-06-user-edit-m</title><rect id="canvas" width="24" height="24" style="fill:none"/><path d="M12,3.95166a3.87427,3.87427,0,1,0,3.86865,3.874A3.87559,3.87559,0,0,0,12,3.95166Zm0,6.24854a2.37428,2.37428,0,1,1,2.36865-2.37452A2.37437,2.37437,0,0,1,12,10.2002Z"/><path d="M19.16943,13.95709l-.00348.00348L14.97833,18.1897l.00653,1.0603,1.05756-.00311.00348-.00348,4.18762-4.22907a.75.75,0,0,0-1.06409-1.05725Z"/><path d="M12.4248,12.75H8.7749a4.7554,4.7554,0,0,0-4.75,4.75v.76074a1.75212,1.75212,0,0,0,1.75,1.75h5.5a.75.75,0,1,0,0-1.5h-5.5a.25048.25048,0,0,1-.25-.25V17.5a3.25377,3.25377,0,0,1,3.25-3.25h3.6499a.75.75,0,0,0,0-1.5Z"/></svg>