<svg fill="currentColor" id="icons" xmlns="http://www.w3.org/2000/svg" viewBox="0 0 24 24"><title>01-01-user-s</title><rect id="canvas" width="24" height="24" style="fill:none"/><path d="M12,11.5a2.75,2.75,0,1,1,2.75-2.75A2.7528,2.7528,0,0,1,12,11.5Zm0-4a1.25,1.25,0,1,0,1.25,1.25A1.25116,1.25116,0,0,0,12,7.5Z"/><path d="M16.52344,18H7.47656A1.47581,1.47581,0,0,1,6,16.52881V15.98a3.65,3.65,0,0,1,3.65674-3.63477h4.68652A3.65,3.65,0,0,1,18,15.98v.54883A1.47581,1.47581,0,0,1,16.52344,18Zm-6.8667-4.15479A2.148,2.148,0,0,0,7.5,15.98v.54883l9-.02881v-.52a2.148,2.148,0,0,0-2.15674-2.13477Z"/></svg>