<svg fill="currentColor" id="icons" xmlns="http://www.w3.org/2000/svg" viewBox="0 0 24 24"><defs><style>.cls-1{fill:none;}</style></defs><rect id="canvas" class="cls-1" width="24" height="24"/><path d="M12,11.7A3.88,3.88,0,1,0,8.13,7.83,3.88,3.88,0,0,0,12,11.7Zm0-6.25A2.38,2.38,0,1,1,9.63,7.83,2.38,2.38,0,0,1,12,5.45Z"/><path d="M11.28,18.51H5.78a.25.25,0,0,1-.25-.25V17.5a3.25,3.25,0,0,1,3.25-3.25h3.64a.75.75,0,1,0,0-1.5H8.78A4.75,4.75,0,0,0,4,17.5v.76A1.75,1.75,0,0,0,5.78,20h5.5a.75.75,0,0,0,0-1.5Z"/><path d="M17.25,13.28a.75.75,0,0,0,0,1.5A2.25,2.25,0,1,1,15,17v-.18l.22.22A.75.75,0,0,0,16.28,16l-1.51-1.49a.74.74,0,0,0-.52-.22h0a.75.75,0,0,0-.53.22L12.22,16a.75.75,0,0,0,0,1.06.74.74,0,0,0,.53.22.73.73,0,0,0,.53-.22l.22-.22V17a3.75,3.75,0,1,0,3.75-3.75Z"/></svg>