<?xml version="1.0" encoding="UTF-8"?><svg fill="currentColor" width="24px" height="24px" viewBox="0 0 24 24" version="1.1" xmlns="http://www.w3.org/2000/svg" xmlns:xlink="http://www.w3.org/1999/xlink"> <title>01 App menu / 03 Elements / 02 Icons / 12 Users / 01 Active</title> <defs> <polygon id="path-1" points="1.77635684e-15 -1.77635684e-15 10.2347 -1.77635684e-15 10.2347 7.052 1.77635684e-15 7.052"></polygon> <polygon id="path-3" points="0 0 7.10500755 0 7.10500755 7.1043 0 7.1043"></polygon> </defs> <g id="01-App-menu-/-03-Elements-/-02-Icons-/-12-Users-/-01-Active" stroke="none" stroke-width="1" fill="none" fill-rule="evenodd"> <g id="Group-11" transform="translate(3.000000, 4.000000)"> <g id="Group-3" transform="translate(7.685200, 9.039700)"> <mask id="mask-2" fill="white"> <use xlink:href="#path-1"></use> </mask> <g id="Clip-2"></g> <path d="M4.161,-1.77635684e-15 L6.074,-1.77635684e-15 C8.372,-1.77635684e-15 10.235,1.863 10.235,4.161 L10.235,5.552 C10.235,6.381 9.564,7.052 8.735,7.052 L1.5,7.052 C0.671,7.052 1.77635684e-15,6.381 1.77635684e-15,5.552 L1.77635684e-15,4.161 C1.77635684e-15,1.863 1.863,-1.77635684e-15 4.161,-1.77635684e-15" id="Fill-1" fill="#13C2BC" mask="url(#mask-2)"></path> </g> <path d="M12.8895,7.1043 C14.5385,7.1003 15.8725,5.7613 15.8695051,4.1123 C15.8675,2.4633 14.5285,1.1283 12.8795,1.12929944 C11.2305,1.1303 9.8945,2.4673 9.8945,4.1163 C9.8985,5.7673 11.2385,7.1043 12.8895,7.1043" id="Fill-4" fill="#13C2BC"></path> <g id="Group-8" transform="translate(1.564800, 0.000000)"> <mask id="mask-4" fill="white"> <use xlink:href="#path-3"></use> </mask> <g id="Clip-7"></g> <path d="M3.562,7.1043 C5.523,7.0993 7.109,5.5063 7.10500755,3.5463 C7.102,1.5853 5.51,-0.0017 3.55,-0.00070047233 C1.589,0.0013 0,1.5913 0,3.5523 C0.006,5.5153 1.599,7.1043 3.562,7.1043" id="Fill-6" fill="#6CDFD4" mask="url(#mask-4)"></path> </g> <path d="M4.161,8.435 L6.074,8.435 C8.372,8.435 10.235,10.298 10.235,12.596 L10.235,14.565 C10.235,15.393 9.564,16.065 8.735,16.065 L1.5,16.065 C0.671,16.065 0,15.393 0,14.565 L0,12.596 C0,10.298 1.863,8.435 4.161,8.435" id="Fill-9" fill="#6CDFD4"></path> </g> </g></svg>