<svg fill="currentColor" id="icons" xmlns="http://www.w3.org/2000/svg" viewBox="0 0 24 24"><title>01-10-user-group-m</title><rect id="canvas" width="24" height="24" style="fill:none"/><path d="M16.34961,11.78223a2.68385,2.68385,0,1,0-2.69043-2.68409A2.69062,2.69062,0,0,0,16.34961,11.78223Zm0-3.86768a1.18386,1.18386,0,1,1-1.19043,1.18359A1.20361,1.20361,0,0,1,16.34961,7.91455Z"/><path d="M8.09961,11.78223A3.19777,3.19777,0,1,0,4.89355,8.58447,3.206,3.206,0,0,0,8.09961,11.78223Zm0-4.89551A1.69778,1.69778,0,1,1,6.39355,8.58447,1.72481,1.72481,0,0,1,8.09961,6.88672Z"/><path d="M8.59961,13.18262h-1a4.623,4.623,0,0,0-4.61719,4.61816.7502.7502,0,0,0,.75.75h8.73535a.75019.75019,0,0,0,.75-.75A4.62317,4.62317,0,0,0,8.59961,13.18262Zm-1,1.5h1a3.11616,3.11616,0,0,1,3.0166,2.36816H4.584A3.11575,3.11575,0,0,1,7.59961,14.68262Z"/><path d="M16.38184,13.2002h-.499a4.58265,4.58265,0,0,0-2.09082.49853.75032.75032,0,0,0,.67969,1.33789,3.08759,3.08759,0,0,1,1.41113-.33642h.499a3.11693,3.11693,0,0,1,3.0086,2.3496H15.43262a.75.75,0,0,0,0,1.5H20.25a.75019.75019,0,0,0,.75-.75l-.00067-.00341H21A4.6274,4.6274,0,0,0,16.38184,13.2002Z"/></svg>