<svg fill="currentColor" id="icons" xmlns="http://www.w3.org/2000/svg" viewBox="0 0 24 24"><defs><style>.cls-1{fill:none;}</style></defs><rect id="canvas" class="cls-1" width="24" height="24"/><path d="M12,11.7A3.88,3.88,0,1,0,8.13,7.83,3.88,3.88,0,0,0,12,11.7Zm0-6.25A2.38,2.38,0,1,1,9.63,7.83,2.38,2.38,0,0,1,12,5.45Z"/><path d="M12.42,12.75H8.78A4.75,4.75,0,0,0,4,17.5v.76A1.75,1.75,0,0,0,5.78,20h5.5a.75.75,0,0,0,0-1.5H5.78a.25.25,0,0,1-.25-.25V17.5a3.25,3.25,0,0,1,3.25-3.25h3.64a.75.75,0,1,0,0-1.5Z"/><path d="M19.74,16.27v-.59a2.5,2.5,0,1,0-5,0v.59A1.75,1.75,0,0,0,13.05,18v2.24A1.76,1.76,0,0,0,14.8,22h4.87a1.76,1.76,0,0,0,1.75-1.75V18A1.75,1.75,0,0,0,19.74,16.27Zm-2.5-1.62a1,1,0,0,1,1,1v.58h-2v-.58A1,1,0,0,1,17.24,14.65Zm2.68,5.6a.25.25,0,0,1-.25.25H14.8a.25.25,0,0,1-.25-.25V18a.26.26,0,0,1,.25-.25h4.87a.25.25,0,0,1,.25.25Z"/></svg>