<svg fill="currentColor" id="icons" xmlns="http://www.w3.org/2000/svg" viewBox="0 0 24 24"><title>01-09-user-starred-m</title><rect id="canvas" width="24" height="24" style="fill:none"/><path d="M12,11.7002A3.87427,3.87427,0,1,0,8.13086,7.82568,3.87612,3.87612,0,0,0,12,11.7002Zm0-6.24854a2.37428,2.37428,0,1,1-2.36914,2.374A2.37406,2.37406,0,0,1,12,5.45166Z"/><path d="M20.65625,15.50684l-2.00781-.28711-.89551-1.78858a.75056.75056,0,0,0-1.3418,0l-.89648,1.78858-2.00781.28711a.7503.7503,0,0,0-.41309,1.28369L14.54,18.17969l-.3418,1.95849a.75021.75021,0,0,0,1.084.79493l1.7998-.93165,1.79883.93165a.75028.75028,0,0,0,1.084-.79493l-.34179-1.95849,1.44629-1.38916a.7503.7503,0,0,0-.41309-1.28369ZM18.2959,17.374a.7535.7535,0,0,0-.21973.66993l.15039.86132-.7998-.41455a.7476.7476,0,0,0-.68946,0l-.80078.41455.15039-.86132a.75347.75347,0,0,0-.21972-.66993l-.625-.60009.874-.12452a.75218.75218,0,0,0,.56445-.40673l.40137-.80079.40039.80079a.75219.75219,0,0,0,.56446.40673l.874.12452Z"/><path d="M8.77539,14.25H12.4248a.75.75,0,0,0,0-1.5H8.77539a4.7554,4.7554,0,0,0-4.75,4.75v.76074a1.75212,1.75212,0,0,0,1.75,1.75h5.5a.75.75,0,1,0,0-1.5h-5.5a.25048.25048,0,0,1-.25-.25V17.5A3.25377,3.25377,0,0,1,8.77539,14.25Z"/></svg>