<svg fill="currentColor" id="icons" xmlns="http://www.w3.org/2000/svg" viewBox="0 0 24 24"><title>01-03-user-remove-m</title><rect id="canvas" width="24" height="24" style="fill:none"/><path d="M12,11.7002A3.87427,3.87427,0,1,0,8.13135,7.82568,3.876,3.876,0,0,0,12,11.7002Zm0-6.24854a2.37428,2.37428,0,1,1-2.36865,2.374A2.374,2.374,0,0,1,12,5.45166Z"/><path d="M20.28027,14.002a.74972.74972,0,0,0-1.06054,0L17.25,15.97168,15.28027,14.002a.74992.74992,0,0,0-1.06054,1.06055l1.96972,1.96973L14.21973,19.002a.74992.74992,0,1,0,1.06054,1.06055L17.25,18.09277l1.96973,1.96973A.74992.74992,0,0,0,20.28027,19.002l-1.96972-1.96972,1.96972-1.96973A.74973.74973,0,0,0,20.28027,14.002Z"/><path d="M5.7749,20.01074h5.5a.75.75,0,1,0,0-1.5h-5.5a.25048.25048,0,0,1-.25-.25V17.5a3.25377,3.25377,0,0,1,3.25-3.25h3.6499a.75.75,0,0,0,0-1.5H8.7749a4.7554,4.7554,0,0,0-4.75,4.75v.76074A1.75212,1.75212,0,0,0,5.7749,20.01074Z"/></svg>