<svg fill="currentColor" id="icons" xmlns="http://www.w3.org/2000/svg" viewBox="0 0 24 24"><title>01-07-user-down-m</title><rect id="canvas" width="24" height="24" style="fill:none"/><path d="M12,11.7002A3.87427,3.87427,0,1,0,8.13135,7.82568,3.876,3.876,0,0,0,12,11.7002Zm0-6.24854a2.37428,2.37428,0,1,1-2.36865,2.374A2.374,2.374,0,0,1,12,5.45166Z"/><path d="M17.78027,14.99463a.74972.74972,0,0,0-1.06054,0l-3,3a.74992.74992,0,0,0,1.06054,1.06055L17.25,16.58545l2.46973,2.46973a.74992.74992,0,0,0,1.06054-1.06055Z"/><path d="M12.4248,12.75H8.7749a4.7554,4.7554,0,0,0-4.75,4.75v.76074a1.75212,1.75212,0,0,0,1.75,1.75h5.5a.75.75,0,1,0,0-1.5h-5.5a.25048.25048,0,0,1-.25-.25V17.5a3.25377,3.25377,0,0,1,3.25-3.25h3.6499a.75.75,0,0,0,0-1.5Z"/></svg>