<svg fill="currentColor" id="icons" xmlns="http://www.w3.org/2000/svg" viewBox="0 0 24 24"><title>01-11-user-circle-m</title><rect id="canvas" width="24" height="24" style="fill:none"/><path d="M12,6.7998a3.06641,3.06641,0,1,0,3.06248,3.06641A3.068,3.068,0,0,0,12,6.7998Zm0,4.63282a1.56641,1.56641,0,1,1,1.56248-1.56641A1.56637,1.56637,0,0,1,12,11.43262Z"/><path d="M12,4a8,8,0,1,0,8,8A8.00917,8.00917,0,0,0,12,4ZM7.51477,16.69287a2.21185,2.21185,0,0,1,2.09461-1.5083h4.78124a2.21185,2.21185,0,0,1,2.09461,1.5083,6.46965,6.46965,0,0,1-8.97046,0Zm10.00739-1.28119a3.71332,3.71332,0,0,0-3.13154-1.72711H9.60938a3.71332,3.71332,0,0,0-3.13154,1.72711,6.5,6.5,0,1,1,11.04432,0Z"/></svg>