<svg fill="currentColor" id="icons" xmlns="http://www.w3.org/2000/svg" viewBox="0 0 24 24"><path d="M12.41,12.13a3.88,3.88,0,1,1,3.87-3.87A3.88,3.88,0,0,1,12.41,12.13Zm0-6.25a2.38,2.38,0,1,0,2.37,2.38A2.38,2.38,0,0,0,12.41,5.88Z"/><path d="M11.69,20.44H6.19a1.75,1.75,0,0,1-1.75-1.75v-.76a4.75,4.75,0,0,1,4.75-4.75h3.65a.75.75,0,0,1,0,1.5H9.19a3.25,3.25,0,0,0-3.25,3.25v.76a.25.25,0,0,0,.25.25h5.5a.75.75,0,1,1,0,1.5Z"/><path d="M21.78,17.8l-.64-.37a2.6,2.6,0,0,0,0-1.56l.64-.37a.39.39,0,0,0,.15-.54l-.35-.61A.4.4,0,0,0,21,14.2l-.63.37A3,3,0,0,0,19,13.79v-.74a.4.4,0,0,0-.4-.4h-.7a.4.4,0,0,0-.4.4v.74a3,3,0,0,0-1.36.78l-.63-.37a.41.41,0,0,0-.55.15l-.35.61a.4.4,0,0,0,.15.54l.64.37a2.59,2.59,0,0,0,0,1.56l-.64.37a.41.41,0,0,0-.15.55L15,19a.4.4,0,0,0,.55.14l.63-.36a3,3,0,0,0,1.36.78v.73a.4.4,0,0,0,.4.4h.7a.4.4,0,0,0,.4-.4v-.73a3,3,0,0,0,1.36-.78l.63.36a.4.4,0,0,0,.55-.14l.35-.61A.4.4,0,0,0,21.78,17.8Zm-3.49.32a1.47,1.47,0,1,1,1.47-1.47A1.47,1.47,0,0,1,18.29,18.12Z"/><path d="M12.41,12.13a3.88,3.88,0,1,1,3.87-3.87A3.88,3.88,0,0,1,12.41,12.13Zm0-6.25a2.38,2.38,0,1,0,2.37,2.38A2.38,2.38,0,0,0,12.41,5.88Z"/><path d="M11.69,20.44H6.19a1.75,1.75,0,0,1-1.75-1.75v-.76a4.75,4.75,0,0,1,4.75-4.75h3.65a.75.75,0,0,1,0,1.5H9.19a3.26,3.26,0,0,0-3.25,3.25v.76a.25.25,0,0,0,.25.25h5.5a.75.75,0,1,1,0,1.5Z"/><path d="M21.78,17.8l-.64-.37a2.6,2.6,0,0,0,0-1.56l.64-.37a.39.39,0,0,0,.15-.54l-.35-.61A.4.4,0,0,0,21,14.2l-.63.37A3,3,0,0,0,19,13.79v-.74a.4.4,0,0,0-.4-.4h-.7a.4.4,0,0,0-.4.4v.74a3,3,0,0,0-1.36.78l-.63-.37a.41.41,0,0,0-.55.15l-.35.61a.4.4,0,0,0,.15.54l.64.37a2.59,2.59,0,0,0,0,1.56l-.64.37a.41.41,0,0,0-.15.55L15,19a.4.4,0,0,0,.55.14l.63-.36a3,3,0,0,0,1.36.78v.73a.4.4,0,0,0,.4.4h.7a.4.4,0,0,0,.4-.4v-.73a3,3,0,0,0,1.36-.78l.63.36a.4.4,0,0,0,.55-.14l.35-.61A.4.4,0,0,0,21.78,17.8Zm-3.49.32a1.47,1.47,0,1,1,1.47-1.47A1.47,1.47,0,0,1,18.29,18.12Z"/></svg>