<svg fill="currentColor" id="icons" xmlns="http://www.w3.org/2000/svg" viewBox="0 0 24 24"><title>03-03-user-password-m</title><rect id="canvas" width="24" height="24" style="fill:none"/><path d="M12,2.604a6.19716,6.19716,0,1,0,6.25,6.21045A6.23745,6.23745,0,0,0,12,2.604Zm0,10.92139a4.721,4.721,0,0,1-2.29956-.61468A2.94911,2.94911,0,0,1,12,11.9917a2.94925,2.94925,0,0,1,2.29962.919A4.72127,4.72127,0,0,1,12,13.52539Zm3.47858-1.52716A4.35034,4.35034,0,0,0,12,10.4917a4.35034,4.35034,0,0,0-3.47858,1.50653A4.65843,4.65843,0,0,1,7.25,8.81445a4.75017,4.75017,0,0,1,9.5,0A4.65843,4.65843,0,0,1,15.47858,11.99823Z"/><path d="M12,10.17139A2.5701,2.5701,0,1,0,9.417,7.60107,2.57976,2.57976,0,0,0,12,10.17139Zm0-3.64014a1.07015,1.07015,0,1,1-1.083,1.06982A1.07742,1.07742,0,0,1,12,6.53125Z"/><path d="M7.03223,17.38721a.74974.74974,0,0,0-1.06055-.00391l-.84668.84064-.84668-.84064a.74992.74992,0,1,0-1.05664,1.06445l.839.833-.839.833a.74992.74992,0,1,0,1.05664,1.06445l.84668-.84063.84668.84063a.74992.74992,0,1,0,1.05664-1.06445l-.839-.833.839-.833A.74972.74972,0,0,0,7.03223,17.38721Z"/><path d="M13.90723,17.38721a.74974.74974,0,0,0-1.06055-.00391L12,18.22394l-.84668-.84064a.74992.74992,0,1,0-1.05664,1.06445l.839.833-.839.833a.74992.74992,0,1,0,1.05664,1.06445L12,20.33759l.84668.84063a.74992.74992,0,1,0,1.05664-1.06445l-.839-.833.839-.833A.74972.74972,0,0,0,13.90723,17.38721Z"/><path d="M19.93933,19.28076l.839-.833a.74992.74992,0,1,0-1.05664-1.06445l-.84668.84064-.84668-.84064a.74992.74992,0,1,0-1.05664,1.06445l.839.833-.839.833a.74992.74992,0,1,0,1.05664,1.06445l.84668-.84063.84668.84063a.74992.74992,0,1,0,1.05664-1.06445Z"/></svg>