<?xml version="1.0" encoding="UTF-8"?>
<svg fill="currentColor" width="24px" height="24px" viewBox="0 0 24 24" version="1.1"
    xmlns="http://www.w3.org/2000/svg" xmlns:xlink="http://www.w3.org/1999/xlink">
    <title>01 App menu / 03 Elements / 02 Icons / 12 Users / 02 Inactive</title>
    <defs>
        <polygon id="path-1"
            points="0 -1.77635684e-15 9.46286582 -1.77635684e-15 9.46286582 7.052 0 7.052"></polygon>
        <polygon id="path-3" points="0 0 7.10400755 0 7.10400755 7.1046 0 7.1046"></polygon>
        <polygon id="path-5" points="0 0 10.235 0 10.235 7.6299 0 7.6299"></polygon>
    </defs>
    <g id="01-App-menu-/-03-Elements-/-02-Icons-/-12-Users-/-02-Inactive" stroke="none"
        stroke-width="1" fill="none" fill-rule="evenodd">
        <rect id="canvas" x="-4.9999926e-08" y="-5.00000112e-08" width="24.0000001"
            height="24.0000001"></rect>
        <g id="Group-14" transform="translate(3.000000, 4.000000)">
            <g id="Group-3" transform="translate(8.456934, 9.012700)">
                <mask id="mask-2" fill="white">
                    <use xlink:href="#path-1"></use>
                </mask>
                <g id="Clip-2"></g>
                <path
                    d="M5.30216582,-1.77635684e-15 L3.45216582,-1.77635684e-15 L3.45216582,1.5 L5.30216582,1.5 C6.76916582,1.5 7.96316582,2.694 7.96316582,4.161 L7.96316582,5.552 L3.45216582,5.552 L0.728165822,5.552 L0.599165822,5.552 L0.599165822,5.844 C0.599165822,5.844 -0.0418341785,7.052 0.00216582152,7.052 L0.876165822,7.052 L7.96316582,7.052 C8.79216582,7.052 9.46316582,6.381 9.46316582,5.552 L9.46316582,4.161 C9.46316582,1.863 7.60016582,-1.77635684e-15 5.30216582,-1.77635684e-15"
                    id="Fill-1" fill="currentColor" mask="url(#mask-2)"></path>
            </g>
            <path
                d="M12.8822,1.1291 L12.8802,1.1291 C11.2312,1.1301 9.8942,2.4671 9.8942,4.1161 C9.8982,5.7681 11.2382,7.1041 12.8892,7.1041 C14.5382,7.1001 15.8722,5.7611 15.8692051,4.1121 C15.8672,2.4641 14.5302,1.1291 12.8822,1.1291 M12.8822,2.6291 C13.7012,2.6291 14.3682,3.2951 14.3692045,4.1141 C14.3712,4.9341 13.7052,5.6021 12.8892,5.6041 C12.0672,5.6041 11.3962,4.9351 11.3942,4.1161 C11.3942,3.2971 12.0612,2.6301 12.8802,2.6291 L12.8822,2.6291"
                id="Fill-4" fill="currentColor"></path>
            <g id="Group-8" transform="translate(1.565400, 0.000000)">
                <mask id="mask-4" fill="white">
                    <use xlink:href="#path-3"></use>
                </mask>
                <g id="Clip-7"></g>
                <path
                    d="M3.552,-0.0004 L3.549,-0.0004 C1.588,0.0016 0,1.5916 0,3.5516 C0.005,5.5156 1.598,7.1046 3.561,7.1046 C5.522,7.0996 7.108,5.5066 7.10400755,3.5456 C7.101,1.5866 5.511,-0.0004 3.552,-0.0004 M3.552,1.4996 C4.682,1.4996 5.602,2.4186 5.60400326,3.5486 C5.606,4.6796 4.688,5.6016 3.561,5.6046 C2.427,5.6046 1.503,4.6816 1.5,3.5516 C1.5,2.4216 2.42,1.5006 3.549,1.4996 L3.552,1.4996"
                    id="Fill-6" fill="currentColor" mask="url(#mask-4)"></path>
            </g>
            <g id="Group-11" transform="translate(0.000000, 8.435100)">
                <mask id="mask-6" fill="white">
                    <use xlink:href="#path-5"></use>
                </mask>
                <g id="Clip-10"></g>
                <path
                    d="M6.074,0 L4.161,0 C1.863,0 0,1.863 0,4.161 L0,6.13 C0,6.958 0.671,7.63 1.5,7.63 L8.735,7.63 C9.564,7.63 10.235,6.958 10.235,6.13 L10.235,4.161 C10.235,1.863 8.372,0 6.074,0 M6.074,1.5 C7.541,1.5 8.735,2.694 8.735,4.161 L8.735,6.13 L1.5,6.13 L1.5,4.161 C1.5,2.694 2.694,1.5 4.161,1.5 L6.074,1.5"
                    id="Fill-9" fill="currentColor" mask="url(#mask-6)"></path>
            </g>
            <path
                d="M12.6592,9.7627 C12.6592,10.1767 12.3232,10.5127 11.9092,10.5127 C11.4952,10.5127 11.1592,10.1767 11.1592,9.7627 C11.1592,9.3487 11.4952,9.0127 11.9092,9.0127 C12.3232,9.0127 12.6592,9.3487 12.6592,9.7627"
                id="Fill-12" fill="currentColor"></path>
        </g>
    </g>
</svg>