<svg width="24" height="24" viewBox="0 0 24 24" fill="none" xmlns="http://www.w3.org/2000/svg">
<path d="M15.9998 10C13.8781 10 11.8432 10.8428 10.3429 12.3431C8.84255 13.8434 7.99976 15.8782 7.99976 18H23.9998C23.9998 15.8782 23.157 13.8434 21.6567 12.3431C20.1564 10.8428 18.1216 10 15.9998 10Z" fill="#87E8DB"/>
<path d="M9.99982 10C7.87808 10 5.84315 10.8428 4.34285 12.3431C2.84255 13.8434 1.99976 15.8782 1.99976 18H17.9998C17.9998 15.8782 17.157 13.8434 15.6567 12.3431C14.1564 10.8428 12.1216 10 9.99982 10Z" fill="#13C2BC"/>
<rect x="1.99976" y="18" width="16" height="2" fill="#13C2BC"/>
<rect width="6" height="2" transform="matrix(-1 0 0 1 23.9997 18)" fill="#87E8DB"/>
<path d="M16.4998 8C17.8805 8 18.9998 6.88071 18.9998 5.5C18.9998 4.11929 17.8805 3 16.4998 3C15.119 3 13.9998 4.11929 13.9998 5.5C13.9998 6.88071 15.119 8 16.4998 8Z" fill="#87E8DB"/>
<path d="M9.99976 8C11.6566 8 12.9998 6.65685 12.9998 5C12.9998 3.34315 11.6566 2 9.99976 2C8.3429 2 6.99976 3.34315 6.99976 5C6.99976 6.65685 8.3429 8 9.99976 8Z" fill="#009BA2"/>
</svg>
