<svg fill="currentColor" width="24px" height="24px" viewBox="0 0 24 24" version="1.1"
    xmlns="http://www.w3.org/2000/svg" xmlns:xlink="http://www.w3.org/1999/xlink">
    <title>Analytics / 02 M / 05 Variable type / 05-02-var-type-date-m</title>
    <g id="Analytics-/-02-M-/-05-Variable-type-/-05-02-var-type-date-m" stroke="none"
        stroke-width="1" fill-rule="evenodd">
        <rect id="canvas" x="-7.46069873e-14" y="3.90798505e-14" width="24.0000001"
            height="24.0000001" style="fill:none"></rect>
        <path
            d="M18.5,3.25 C19.7426407,3.25 20.75,4.25735931 20.75,5.5 L20.75,5.5 L20.75,18.5 C20.75,19.7426407 19.7426407,20.75 18.5,20.75 L18.5,20.75 L5.5,20.75 C4.25735931,20.75 3.25,19.7426407 3.25,18.5 L3.25,18.5 L3.25,5.5 C3.25,4.25735931 4.25735931,3.25 5.5,3.25 L5.5,3.25 Z M18.5,4.75 L5.5,4.75 C5.08578644,4.75 4.75,5.08578644 4.75,5.5 L4.75,5.5 L4.75,18.5 C4.75,18.9142136 5.08578644,19.25 5.5,19.25 L5.5,19.25 L18.5,19.25 C18.9142136,19.25 19.25,18.9142136 19.25,18.5 L19.25,18.5 L19.25,5.5 C19.25,5.08578644 18.9142136,4.75 18.5,4.75 L18.5,4.75 Z M13.5,7 C13.8796958,7 14.193491,7.28215388 14.2431534,7.64822944 L14.25,7.75 L14.25,8.25 L15.25,8.25 C16.1681734,8.25 16.9211923,8.95711027 16.9941988,9.85647279 L17,10 L17,15.25 C17,16.1681734 16.2928897,16.9211923 15.3935272,16.9941988 L15.25,17 L8.75,17 C7.8318266,17 7.07880766,16.2928897 7.0058012,15.3935272 L7,15.25 L7,10 C7,9.0818266 7.70711027,8.32880766 8.60647279,8.2558012 L8.75,8.25 L9.75,8.25 L9.75,7.75 C9.75,7.33578644 10.0857864,7 10.5,7 C10.8796958,7 11.193491,7.28215388 11.2431534,7.64822944 L11.25,7.75 L11.25,8.25 L12.75,8.25 L12.75,7.75 C12.75,7.33578644 13.0857864,7 13.5,7 Z M9.75,9.75 L8.75,9.75 C8.63165327,9.75 8.53251318,9.83223341 8.50660268,9.94267729 L8.5,10 L8.5,15.25 C8.5,15.3683467 8.58223341,15.4674868 8.69267729,15.4933973 L8.75,15.5 L15.25,15.5 C15.3683467,15.5 15.4674868,15.4177666 15.4933973,15.3073227 L15.5,15.25 L15.5,10 C15.5,9.86192881 15.3880712,9.75 15.25,9.75 L14.25,9.75 L14.25,10.25 C14.25,10.6642136 13.9142136,11 13.5,11 C13.1203042,11 12.806509,10.7178461 12.7568466,10.3517706 L12.75,10.25 L12.75,9.75 L11.25,9.75 L11.25,10.25 C11.25,10.6642136 10.9142136,11 10.5,11 C10.1203042,11 9.80650904,10.7178461 9.75684662,10.3517706 L9.75,10.25 L9.75,9.75 Z"></path>
    </g>
</svg>