<svg fill="currentColor" width="24px" height="24px" viewBox="0 0 24 24" version="1.1"
    xmlns="http://www.w3.org/2000/svg" xmlns:xlink="http://www.w3.org/1999/xlink">
    <title>Analytics / 02 M / 05 Variable type / 05-05-var-type-string-m</title>
    <g id="Analytics-/-02-M-/-05-Variable-type-/-05-05-var-type-string-m" stroke="none"
        stroke-width="1" fill-rule="evenodd">
        <rect id="canvas" x="-7.46069873e-14" y="3.90798505e-14" width="24.0000001"
            height="24.0000001" style="fill:none"></rect>
        <path
            d="M18.5,3.25 C19.7426407,3.25 20.75,4.25735931 20.75,5.5 L20.75,5.5 L20.75,18.5 C20.75,19.7426407 19.7426407,20.75 18.5,20.75 L18.5,20.75 L5.5,20.75 C4.25735931,20.75 3.25,19.7426407 3.25,18.5 L3.25,18.5 L3.25,5.5 C3.25,4.25735931 4.25735931,3.25 5.5,3.25 L5.5,3.25 Z M18.5,4.75 L5.5,4.75 C5.08578644,4.75 4.75,5.08578644 4.75,5.5 L4.75,5.5 L4.75,18.5 C4.75,18.9142136 5.08578644,19.25 5.5,19.25 L5.5,19.25 L18.5,19.25 C18.9142136,19.25 19.25,18.9142136 19.25,18.5 L19.25,18.5 L19.25,5.5 C19.25,5.08578644 18.9142136,4.75 18.5,4.75 L18.5,4.75 Z M15.5,8 C15.9142136,8 16.25,8.33578644 16.25,8.75 C16.25,9.12969577 15.9678461,9.44349096 15.6017706,9.49315338 L15.5,9.5 L12.75,9.5 L12.75,15.75 C12.75,16.1642136 12.4142136,16.5 12,16.5 C11.6203042,16.5 11.306509,16.2178461 11.2568466,15.8517706 L11.25,15.75 L11.25,9.5 L8.5,9.5 C8.08578644,9.5 7.75,9.16421356 7.75,8.75 C7.75,8.37030423 8.03215388,8.05650904 8.39822944,8.00684662 L8.5,8 L15.5,8 Z"></path>
    </g>
</svg>