<svg fill="currentColor" width="24px" height="24px" viewBox="0 0 24 24" version="1.1"
    xmlns="http://www.w3.org/2000/svg" xmlns:xlink="http://www.w3.org/1999/xlink">
    <title>Analytics / 02 M / 05 Variable type / 05-03-var-type-list-m</title>
    <g id="Analytics-/-02-M-/-05-Variable-type-/-05-03-var-type-list-m" stroke="none"
        stroke-width="1" fill-rule="evenodd">
        <rect id="canvas" x="-7.46069873e-14" y="3.90798505e-14" width="24.0000001"
            height="24.0000001" style="fill:none"></rect>
        <path
            d="M18.5,3.25 C19.7426407,3.25 20.75,4.25735931 20.75,5.5 L20.75,5.5 L20.75,18.5 C20.75,19.7426407 19.7426407,20.75 18.5,20.75 L18.5,20.75 L5.5,20.75 C4.25735931,20.75 3.25,19.7426407 3.25,18.5 L3.25,18.5 L3.25,5.5 C3.25,4.25735931 4.25735931,3.25 5.5,3.25 L5.5,3.25 Z M18.5,4.75 L5.5,4.75 C5.08578644,4.75 4.75,5.08578644 4.75,5.5 L4.75,5.5 L4.75,18.5 C4.75,18.9142136 5.08578644,19.25 5.5,19.25 L5.5,19.25 L18.5,19.25 C18.9142136,19.25 19.25,18.9142136 19.25,18.5 L19.25,18.5 L19.25,5.5 C19.25,5.08578644 18.9142136,4.75 18.5,4.75 L18.5,4.75 Z M8.5,14.5 C9.05228475,14.5 9.5,14.9477153 9.5,15.5 C9.5,16.0522847 9.05228475,16.5 8.5,16.5 C7.94771525,16.5 7.5,16.0522847 7.5,15.5 C7.5,14.9477153 7.94771525,14.5 8.5,14.5 Z M15.5,14.75 C15.9142136,14.75 16.25,15.0857864 16.25,15.5 C16.25,15.8796958 15.9678461,16.193491 15.6017706,16.2431534 L15.5,16.25 L11.5,16.25 C11.0857864,16.25 10.75,15.9142136 10.75,15.5 C10.75,15.1203042 11.0321539,14.806509 11.3982294,14.7568466 L11.5,14.75 L15.5,14.75 Z M8.5,11 C9.05228475,11 9.5,11.4477153 9.5,12 C9.5,12.5522847 9.05228475,13 8.5,13 C7.94771525,13 7.5,12.5522847 7.5,12 C7.5,11.4477153 7.94771525,11 8.5,11 Z M15.5,11.25 C15.9142136,11.25 16.25,11.5857864 16.25,12 C16.25,12.3796958 15.9678461,12.693491 15.6017706,12.7431534 L15.5,12.75 L11.5,12.75 C11.0857864,12.75 10.75,12.4142136 10.75,12 C10.75,11.6203042 11.0321539,11.306509 11.3982294,11.2568466 L11.5,11.25 L15.5,11.25 Z M8.5,7.5 C9.05228475,7.5 9.5,7.94771525 9.5,8.5 C9.5,9.05228475 9.05228475,9.5 8.5,9.5 C7.94771525,9.5 7.5,9.05228475 7.5,8.5 C7.5,7.94771525 7.94771525,7.5 8.5,7.5 Z M15.5,7.75 C15.9142136,7.75 16.25,8.08578644 16.25,8.5 C16.25,8.87969577 15.9678461,9.19349096 15.6017706,9.24315338 L15.5,9.25 L11.5,9.25 C11.0857864,9.25 10.75,8.91421356 10.75,8.5 C10.75,8.12030423 11.0321539,7.80650904 11.3982294,7.75684662 L11.5,7.75 L15.5,7.75 Z"></path>
    </g>
</svg>