<svg fill="currentColor" width="24px" height="24px" viewBox="0 0 24 24" version="1.1"
    xmlns="http://www.w3.org/2000/svg" xmlns:xlink="http://www.w3.org/1999/xlink">
    <title>Analytics / 02 M / 05 Variable type / 05-04-var-type-number-m</title>
    <g id="Analytics-/-02-M-/-05-Variable-type-/-05-04-var-type-number-m" stroke="none"
        stroke-width="1" fill-rule="evenodd">
        <rect id="canvas" x="-4.9999926e-08" y="-5.00000397e-08" width="24.0000001"
            height="24.0000001" style="fill:none"></rect>
        <path
            d="M18.5,3.25 C19.7426407,3.25 20.75,4.25735931 20.75,5.5 L20.75,5.5 L20.75,18.5 C20.75,19.7426407 19.7426407,20.75 18.5,20.75 L18.5,20.75 L5.5,20.75 C4.25735931,20.75 3.25,19.7426407 3.25,18.5 L3.25,18.5 L3.25,5.5 C3.25,4.25735931 4.25735931,3.25 5.5,3.25 L5.5,3.25 Z M18.5,4.75 L5.5,4.75 C5.08578644,4.75 4.75,5.08578644 4.75,5.5 L4.75,5.5 L4.75,18.5 C4.75,18.9142136 5.08578644,19.25 5.5,19.25 L5.5,19.25 L18.5,19.25 C18.9142136,19.25 19.25,18.9142136 19.25,18.5 L19.25,18.5 L19.25,5.5 C19.25,5.08578644 18.9142136,4.75 18.5,4.75 L18.5,4.75 Z M14.2411922,7.24996225 L14.3430261,7.25579159 C14.7197898,7.30288706 14.9961649,7.62178361 15.0000377,7.99119216 L14.9942084,8.09302605 L14.818,9.5 L16,9.5 C16.4142136,9.5 16.75,9.83578644 16.75,10.25 C16.75,10.6296958 16.4678461,10.943491 16.1017706,10.9931534 L16,11 L14.631,11 L14.381,13 L16,13 C16.4142136,13 16.75,13.3357864 16.75,13.75 C16.75,14.1296958 16.4678461,14.443491 16.1017706,14.4931534 L16,14.5 L14.193,14.5 L13.9942084,16.0930261 C13.9428315,16.504041 13.5679889,16.7955853 13.1569739,16.7442084 C12.7802102,16.6971129 12.5038351,16.3782164 12.4999623,16.0088078 L12.5057916,15.9069739 L12.681,14.5 L10.693,14.5 L10.4942084,16.0930261 C10.4428315,16.504041 10.0679889,16.7955853 9.65697395,16.7442084 C9.28021024,16.6971129 9.00383509,16.3782164 8.99996225,16.0088078 L9.00579159,15.9069739 L9.181,14.5 L8,14.5 C7.58578644,14.5 7.25,14.1642136 7.25,13.75 C7.25,13.3703042 7.53215388,13.056509 7.89822944,13.0068466 L8,13 L9.368,13 L9.618,11 L8,11 C7.58578644,11 7.25,10.6642136 7.25,10.25 C7.25,9.87030423 7.53215388,9.55650904 7.89822944,9.50684662 L8,9.5 L9.806,9.5 L10.0057916,7.90697395 C10.0528871,7.53021024 10.3717836,7.25383509 10.7411922,7.24996225 L10.8430261,7.25579159 C11.2197898,7.30288706 11.4961649,7.62178361 11.5000377,7.99119216 L11.4942084,8.09302605 L11.318,9.5 L13.306,9.5 L13.5057916,7.90697395 C13.5528871,7.53021024 13.8717836,7.25383509 14.2411922,7.24996225 Z M13.118,11 L11.131,11 L10.881,13 L12.868,13 L13.118,11 Z"></path>
    </g>
</svg>