<svg fill="currentColor" width="24px" height="24px" viewBox="0 0 24 24" version="1.1"
    xmlns="http://www.w3.org/2000/svg" xmlns:xlink="http://www.w3.org/1999/xlink">
    <title>Analytics / 02 M / 05 Variable type / 05-01-var-type-boolean-m</title>
    <g id="Analytics-/-02-M-/-05-Variable-type-/-05-01-var-type-boolean-m" stroke="none"
        stroke-width="1" fill-rule="evenodd">
        <rect id="canvas" x="-4.9999926e-08" y="-5.00000397e-08" width="24.0000001"
            height="24.0000001" style="fill:none"></rect>
        <path
            d="M18.5,3.25 C19.7426407,3.25 20.75,4.25735931 20.75,5.5 L20.75,5.5 L20.75,18.5 C20.75,19.7426407 19.7426407,20.75 18.5,20.75 L18.5,20.75 L5.5,20.75 C4.25735931,20.75 3.25,19.7426407 3.25,18.5 L3.25,18.5 L3.25,5.5 C3.25,4.25735931 4.25735931,3.25 5.5,3.25 L5.5,3.25 Z M18.5,4.75 L5.5,4.75 C5.08578644,4.75 4.75,5.08578644 4.75,5.5 L4.75,5.5 L4.75,18.5 C4.75,18.9142136 5.08578644,19.25 5.5,19.25 L5.5,19.25 L18.5,19.25 C18.9142136,19.25 19.25,18.9142136 19.25,18.5 L19.25,18.5 L19.25,5.5 C19.25,5.08578644 18.9142136,4.75 18.5,4.75 L18.5,4.75 Z M9.75,8.75 C11.5449254,8.75 13,10.2050746 13,12 C13,13.7949254 11.5449254,15.25 9.75,15.25 C7.95507456,15.25 6.5,13.7949254 6.5,12 C6.5,10.2050746 7.95507456,8.75 9.75,8.75 Z M14.25,8.75 C16.0449254,8.75 17.5,10.2050746 17.5,12 C17.5,13.7949254 16.0449254,15.25 14.25,15.25 C13.8357864,15.25 13.5,14.9142136 13.5,14.5 C13.5,14.1203042 13.7821539,13.806509 14.1482294,13.7568466 L14.25,13.75 C15.2164983,13.75 16,12.9664983 16,12 C16,11.0335017 15.2164983,10.25 14.25,10.25 C13.8357864,10.25 13.5,9.91421356 13.5,9.5 C13.5,9.08578644 13.8357864,8.75 14.25,8.75 Z M9.75,10.25 C8.78350169,10.25 8,11.0335017 8,12 C8,12.9664983 8.78350169,13.75 9.75,13.75 C10.7164983,13.75 11.5,12.9664983 11.5,12 C11.5,11.0335017 10.7164983,10.25 9.75,10.25 Z"></path>
    </g>
</svg>