<svg fill="currentColor" id="icons" xmlns="http://www.w3.org/2000/svg" viewBox="0 0 24 24"><title>04-01-volume-disable-m</title><rect id="canvas" width="24" height="24" style="fill:none"/><path d="M20.78027,8.96973a.74972.74972,0,0,0-1.06054,0L17.75,10.93945,15.78027,8.96973a.74992.74992,0,0,0-1.06054,1.06054L16.68945,12l-1.96972,1.96973a.74992.74992,0,1,0,1.06054,1.06054L17.75,13.06055l1.96973,1.96972a.74992.74992,0,0,0,1.06054-1.06054L18.81055,12l1.96972-1.96973A.74972.74972,0,0,0,20.78027,8.96973Z"/><path d="M11.09131,19.146a1.65815,1.65815,0,0,1-1.07373-.39746l-3.44287-2.9087H4.668A1.66846,1.66846,0,0,1,3,14.17432V9.82568A1.66846,1.66846,0,0,1,4.668,8.16016H6.57471l3.44336-2.9087a1.66807,1.66807,0,0,1,2.7456,1.271V17.47754a1.64961,1.64961,0,0,1-.96484,1.51025A1.68708,1.68708,0,0,1,11.09131,19.146ZM4.668,9.66016a.16683.16683,0,0,0-.168.16552v4.34864a.16683.16683,0,0,0,.168.16552H6.84912a.74737.74737,0,0,1,.48389.17725L10.98584,17.603a.161.161,0,0,0,.18164.02441.15427.15427,0,0,0,.09619-.1499V6.52246a.15427.15427,0,0,0-.09619-.1499.15716.15716,0,0,0-.18115.02441L7.333,9.48291a.74737.74737,0,0,1-.48389.17725Z"/></svg>