<svg fill="currentColor" id="icons" xmlns="http://www.w3.org/2000/svg" viewBox="0 0 24 24"><title>04-05-volume-half-m</title><rect id="canvas" width="24" height="24" style="fill:none"/><path d="M16.25049,8.314a.75.75,0,0,0-.79883,1.26954,2.86187,2.86187,0,0,1,1.15527,2.42041,2.83441,2.83441,0,0,1-1.15136,2.41015.75.75,0,1,0,.791,1.27442,4.29387,4.29387,0,0,0,1.86035-3.68457A4.32371,4.32371,0,0,0,16.25049,8.314Z"/><path d="M11.09131,19.146a1.65815,1.65815,0,0,1-1.07373-.39746l-3.44287-2.9087H4.668A1.66846,1.66846,0,0,1,3,14.17432V9.82568A1.66846,1.66846,0,0,1,4.668,8.16016H6.57471l3.44336-2.9087a1.66807,1.66807,0,0,1,2.7456,1.271V17.47754a1.64961,1.64961,0,0,1-.96484,1.51025A1.68708,1.68708,0,0,1,11.09131,19.146ZM4.668,9.66016a.16683.16683,0,0,0-.168.16552v4.34864a.16683.16683,0,0,0,.168.16552H6.84912a.74737.74737,0,0,1,.48389.17725L10.98584,17.603a.161.161,0,0,0,.18164.02441.15427.15427,0,0,0,.09619-.1499V6.52246a.15427.15427,0,0,0-.09619-.1499.15716.15716,0,0,0-.18115.02441L7.333,9.48291a.74737.74737,0,0,1-.48389.17725Z"/></svg>