<svg fill="currentColor" id="icons" xmlns="http://www.w3.org/2000/svg" viewBox="0 0 24 24"><title>04-07-wallet-m</title><rect id="canvas" width="24" height="24" style="fill:none"/><path d="M18.3252,3.82227H5.6748A2.716,2.716,0,0,0,3,6.57227V17.42773a2.716,2.716,0,0,0,2.6748,2.75h9.2793a2.65556,2.65556,0,0,0,2.22266-1.22168H18.3252A2.716,2.716,0,0,0,21,16.20605V6.57227A2.716,2.716,0,0,0,18.3252,3.82227ZM14.9541,18.67773H5.6748a1.2153,1.2153,0,0,1-1.1748-1.25V6.57227a1.2153,1.2153,0,0,1,1.1748-1.25H18.3252a1.2153,1.2153,0,0,1,1.1748,1.25V9.61621H17.694a2.70523,2.70523,0,0,0-2.66126-2.6123H6.96631a.75.75,0,1,0,0,1.5h8.0664a1.19425,1.19425,0,0,1,1.14863,1.1123H14.501a2.3847,2.3847,0,0,0,0,4.76758h1.62793v3.04394A1.2153,1.2153,0,0,1,14.9541,18.67773ZM19.5,12.88379H14.501a.88636.88636,0,0,1,0-1.76758H19.5Zm-1.1748,4.57226h-.69629V14.38379H19.5v1.82226A1.2153,1.2153,0,0,1,18.3252,17.45605Z"/></svg>