<svg fill="currentColor" width="24" height="24" viewBox="0 0 24 24" xmlns="http://www.w3.org/2000/svg">
<path d="M11.134 5.5C11.5189 4.83333 12.4811 4.83333 12.866 5.5L19.7942 17.5C20.1791 18.1667 19.698 19 18.9282 19H5.0718C4.302 19 3.82087 18.1667 4.20577 17.5L11.134 5.5Z" fill="white"/>
<path fill-rule="evenodd" clip-rule="evenodd" d="M20.7635 17.3892L13.5145 4.85986C13.2017 4.31924 12.6244 3.98633 11.9998 3.98633C11.3752 3.98633 10.798 4.31924 10.4852 4.85986L3.23619 17.3892C2.92299 17.9306 2.92255 18.598 3.23501 19.1398C3.54747 19.6816 4.12535 20.0155 4.75082 20.0156H19.2488C19.8743 20.0155 20.4522 19.6816 20.7646 19.1398C21.0771 18.598 21.0767 17.9306 20.7635 17.3892ZM19.4647 18.3906C19.4216 18.4693 19.3385 18.5174 19.2488 18.5156H4.75082C4.66154 18.5153 4.57918 18.4675 4.53469 18.3901C4.4902 18.3127 4.49031 18.2174 4.535 18.1401L11.784 5.61084C11.8286 5.53378 11.9108 5.48633 11.9998 5.48633C12.0888 5.48633 12.1711 5.53378 12.2156 5.61084L19.4646 18.1401C19.5116 18.217 19.5116 18.3137 19.4647 18.3906ZM11.9998 14.0938C12.414 14.0936 12.7497 13.7579 12.7498 13.3438V9.59375C12.7498 9.17954 12.414 8.84375 11.9998 8.84375C11.5856 8.84375 11.2498 9.17954 11.2498 9.59375V13.3438C11.2499 13.7579 11.5857 14.0936 11.9998 14.0938ZM11.999 15.1563C11.4467 15.1565 10.9992 15.6044 10.9994 16.1566C10.9996 16.7089 11.4475 17.1565 11.9998 17.1563H12.0025C12.5548 17.1553 13.0017 16.7068 13.0008 16.1545C12.9998 15.6022 12.5513 15.1553 11.999 15.1563Z" />
</svg>
