<svg fill="currentColor" id="icons" xmlns="http://www.w3.org/2000/svg" viewBox="0 0 24 24"><title>01-05-warning-m</title><rect id="canvas" width="24" height="24" style="fill:none"/><path d="M12,14.09375a.7502.7502,0,0,0,.75-.75v-3.75a.75.75,0,0,0-1.5,0v3.75A.7502.7502,0,0,0,12,14.09375Z"/><path d="M11.99921,15.15625a1,1,0,0,0,.00079,2h.00269a1,1,0,0,0-.00348-2Z"/><path d="M20.76367,17.38916l-7.249-12.5293a1.74992,1.74992,0,0,0-3.0293,0l-7.249,12.5293A1.75012,1.75012,0,0,0,4.751,20.01562H19.249a1.75012,1.75012,0,0,0,1.51465-2.62646Zm-1.29883,1.00146a.2404.2404,0,0,1-.21582.125H4.751a.25024.25024,0,0,1-.21582-.37548l7.249-12.5293a.2493.2493,0,0,1,.43164,0l7.249,12.5293A.24047.24047,0,0,1,19.46484,18.39062Z"/></svg>