<svg fill="currentColor" width="24" height="24" viewBox="0 0 24 24"  xmlns="http://www.w3.org/2000/svg">
<path d="M11.134 5.5C11.5189 4.83333 12.4811 4.83333 12.866 5.5L19.7942 17.5C20.1791 18.1667 19.698 19 18.9282 19H5.0718C4.302 19 3.82087 18.1667 4.20577 17.5L11.134 5.5Z" fill="white"/>
<path fill-rule="evenodd" clip-rule="evenodd" d="M20.7637 17.3887L13.5147 4.86036C13.2025 4.31911 12.6252 3.98556 12.0003 3.98535C11.3755 3.98515 10.798 4.31832 10.4854 4.85936L3.23641 17.3896C2.92345 17.931 2.92313 18.5982 3.23557 19.1399C3.54801 19.6816 4.12573 20.0154 4.75106 20.0156H19.249C19.8745 20.0153 20.4524 19.6813 20.7648 19.1395C21.0772 18.5976 21.0768 17.9302 20.7637 17.3887ZM11.25 9.59376C11.25 9.17955 11.5858 8.84376 12 8.84376C12.4143 8.84376 12.75 9.17955 12.75 9.59376V13.3438C12.75 13.758 12.4143 14.0938 12 14.0938C11.5858 14.0938 11.25 13.758 11.25 13.3438V9.59376ZM11.0027 16.1569C11.0024 16.7082 11.4488 17.1555 12 17.1563H12.0027C12.554 17.1555 13.0004 16.7082 13 16.1569C12.9997 15.6056 12.5527 15.1589 12.0014 15.1589C11.4501 15.1589 11.0031 15.6056 11.0027 16.1569Z" />
</svg>
