<svg fill="currentColor" id="icons" xmlns="http://www.w3.org/2000/svg" viewBox="0 0 24 24"><title>01-05-warning-s</title><rect id="canvas" width="24" height="24" style="fill:none"/><path d="M16.22754,17.35449H7.77246A1.75726,1.75726,0,0,1,6.24023,16.48a1.7228,1.7228,0,0,1,.001-1.76367l4.22852-7.19824a1.77851,1.77851,0,0,1,3.06152.001l4.22656,7.19629.001.001a1.72458,1.72458,0,0,1,0,1.76465A1.75565,1.75565,0,0,1,16.22754,17.35449ZM12,8.14551a.26516.26516,0,0,0-.2373.13232L7.53516,15.47559a.232.232,0,0,0-.001.2456.26455.26455,0,0,0,.23828.1333h8.45508a.263.263,0,0,0,.2373-.13232.23224.23224,0,0,0-.001-.24805L12.2373,8.27832A.26461.26461,0,0,0,12,8.14551Z"/><path d="M12,12.75a.7502.7502,0,0,1-.75-.75V10.7998a.75.75,0,1,1,1.5,0V12A.7502.7502,0,0,1,12,12.75Z"/><path d="M12.002,14.96516a.751.751,0,1,0-.002,0"/></svg>