<svg fill="currentColor" id="icons" xmlns="http://www.w3.org/2000/svg" viewBox="0 0 24 24"><title>01-06-warning-fill-s</title><rect id="canvas" width="24" height="24" style="fill:none"/><path d="M17.75879,14.71631l-.001-.001L13.53125,7.519a1.77851,1.77851,0,0,0-3.06152-.001L6.24121,14.71631a1.7228,1.7228,0,0,0-.001,1.76367,1.75726,1.75726,0,0,0,1.53223.87451h8.45508a1.75565,1.75565,0,0,0,1.53125-.87353A1.72458,1.72458,0,0,0,17.75879,14.71631Zm-5.75678.24884H12a.749.749,0,1,1,.002,0ZM12.75,12a.75.75,0,0,1-1.5,0V10.7998a.75.75,0,1,1,1.5,0Z"/></svg>