<svg fill="currentColor" id="icons" xmlns="http://www.w3.org/2000/svg" viewBox="0 0 24 24"><title>01-12-watch-m</title><rect id="canvas" width="24" height="24" style="fill:none"/><path d="M16.10565,7.29852l-.48749-2.9079A1.66114,1.66114,0,0,0,13.97461,3H10.02637A1.6611,1.6611,0,0,0,8.38184,4.394L7.901,7.29248a6.22491,6.22491,0,0,0,0,9.415L8.38184,19.606A1.6611,1.6611,0,0,0,10.02637,21h3.94824a1.66112,1.66112,0,0,0,1.64355-1.39111l.48749-2.90741a6.2243,6.2243,0,0,0,0-9.403ZM9.8623,4.63916A.16508.16508,0,0,1,10.02637,4.5h3.94824a.16683.16683,0,0,1,.165.13916l.26727,1.59393A6.23608,6.23608,0,0,0,9.59821,6.2312Zm4.27735,14.72119a.16681.16681,0,0,1-.165.13965H10.02637a.16508.16508,0,0,1-.16407-.13916l-.26409-1.592a6.23593,6.23593,0,0,0,4.80865-.00189ZM12,16.75A4.75,4.75,0,1,1,16.751,12,4.75561,4.75561,0,0,1,12,16.75Z"/><path d="M12.75,11.62469V9.7085a.75.75,0,0,0-1.5,0V12c0,.01819.00909.03339.01038.05127a.81244.81244,0,0,0,.25415.50922c.01367.0119.0205.02856.03527.03961l1.834,1.375a.7502.7502,0,0,0,.90039-1.2002Z"/></svg>