<svg fill="currentColor" id="icons" xmlns="http://www.w3.org/2000/svg" viewBox="0 0 24 24"><title>02-01-webhook-m</title><rect id="canvas" width="24" height="24" style="fill:none"/><path d="M7.09778,14.47119a1.56283,1.56283,0,0,0-1.2052.45856,1.60477,1.60477,0,0,0,0,2.25531,1.57073,1.57073,0,0,0,2.23535,0,1.6013,1.6013,0,0,0,.24475-1.9242l.96326-1.58215,1.54785-2.54394.01074-.01661-.004-.00244c.00367-.00561.01032-.00744.0138-.01318a.75045.75045,0,0,0-.248-1.03125A2.54539,2.54539,0,0,1,10.18164,9.71a2.50042,2.50042,0,1,1,4.22266-1.29.75.75,0,1,0,1.47265.28516,4.00045,4.00045,0,1,0-6.75586,2.06543c.046.046.10022.08716.1493.13092l-1.2157,1.998Z"/><path d="M15.49341,12.32227l-1.218-2.001-.963-1.58325a1.6013,1.6013,0,0,0-.24488-1.92389,1.57081,1.57081,0,0,0-2.23541,0,1.60488,1.60488,0,0,0,0,2.25531,1.56261,1.56261,0,0,0,1.20557.45862l.95648,1.57251,1.56848,2.57666.00086.00244a.73388.73388,0,0,0,.2528.24127.7043.7043,0,0,0,.091.04169.72951.72951,0,0,0,.23443.06018c.022.00195.04126.01623.06336.01623.02447,0,.0487-.0075.07324-.00989.02191-.00213.0426-.00463.06439-.00872a.72883.72883,0,0,0,.24628-.08869l.00574-.00207a2.49584,2.49584,0,1,1-.47364,3.89551.74992.74992,0,1,0-1.06054,1.06054,3.99994,3.99994,0,1,0,1.43286-6.56347Z"/><path d="M15.50275,16.80762a1.55481,1.55481,0,0,0,2.50427.37744,1.60477,1.60477,0,0,0,0-2.25531,1.55489,1.55489,0,0,0-2.50452.37787H10.25977a.75018.75018,0,0,0-.75.75A2.50094,2.50094,0,1,1,6.2959,13.66309.74973.74973,0,0,0,5.876,12.22363a3.96251,3.96251,0,0,0-1.69434,1.00586,3.99992,3.99992,0,1,0,6.75488,3.57813h4.56623Z"/></svg>