<svg fill="currentColor" id="icons" xmlns="http://www.w3.org/2000/svg" viewBox="0 0 24 24"><title>05-04-webpush-add-m</title><rect id="canvas" width="24" height="24" style="fill:none"/><circle cx="5" cy="5" r="1" /><circle cx="8" cy="5" r="1" /><circle cx="11" cy="5" r="1" /><path d="M10.29541,16.51367a3.72759,3.72759,0,0,0-2.63232-1.08008H6.75a1.25116,1.25116,0,0,1-1.25-1.25v-4.167a1.25116,1.25116,0,0,1,1.25-1.25h10.5a1.25116,1.25116,0,0,1,1.25,1.25V11.75a.75.75,0,0,0,1.5,0V10.0166a2.75311,2.75311,0,0,0-2.75-2.75H6.75A2.75311,2.75311,0,0,0,4,10.0166v4.167a2.75279,2.75279,0,0,0,2.75,2.75h.91309a2.23777,2.23777,0,0,1,1.57959.64844l2.231,2.19922a.74994.74994,0,1,0,1.05274-1.06836Z" /><path d="M19.9502,16.25h-2v-2a.75.75,0,0,0-1.5,0v2h-2a.75.75,0,0,0,0,1.5h2v2a.75.75,0,0,0,1.5,0v-2h2a.75.75,0,0,0,0-1.5Z" /></svg>