<svg fill="currentColor" id="icons" xmlns="http://www.w3.org/2000/svg" viewBox="0 0 24 24"><title>05-02-webpush-block-m</title><rect id="canvas" width="24" height="24" style="fill:none"/><circle cx="5" cy="5" r="1" /><circle cx="8" cy="5" r="1" /><circle cx="11" cy="5" r="1" /><path d="M10.29541,16.51367a3.72759,3.72759,0,0,0-2.63232-1.08008H6.75a1.25116,1.25116,0,0,1-1.25-1.25v-4.167a1.25116,1.25116,0,0,1,1.25-1.25h10.5a1.25116,1.25116,0,0,1,1.25,1.25V11.75a.75.75,0,0,0,1.5,0V10.0166a2.75311,2.75311,0,0,0-2.75-2.75H6.75A2.75311,2.75311,0,0,0,4,10.0166v4.167a2.75279,2.75279,0,0,0,2.75,2.75h.91309a2.23777,2.23777,0,0,1,1.57959.64844l2.231,2.19922a.74994.74994,0,1,0,1.05274-1.06836Z" /><path d="M17.25,13.28223a3.75,3.75,0,1,0,3.75,3.75A3.75441,3.75441,0,0,0,17.25,13.28223Zm0,1.5a2.22255,2.22255,0,0,1,.97791.233l-2.99482,2.99481A2.22286,2.22286,0,0,1,15,17.03223,2.25277,2.25277,0,0,1,17.25,14.78223Zm0,4.5a2.22454,2.22454,0,0,1-.95-.218l2.982-2.98206a2.225,2.225,0,0,1,.218.95A2.25278,2.25278,0,0,1,17.25,19.28223Z" /></svg>