<svg fill="currentColor" id="icons" xmlns="http://www.w3.org/2000/svg" viewBox="0 0 24 24"><title>05-01-webpush-m</title><rect id="canvas" width="24" height="24" style="fill:none"/><circle cx="5" cy="5" r="1" style="fill:inherit"/><circle cx="8" cy="5" r="1" style="fill:inherit"/><circle cx="11" cy="5" r="1" style="fill:inherit"/><path d="M17.25,7.2666H6.75A2.75311,2.75311,0,0,0,4,10.0166v4.167a2.75279,2.75279,0,0,0,2.75,2.75h.91309a2.23777,2.23777,0,0,1,1.57959.64844l2.231,2.19922a.7498.7498,0,0,0,1.05274,0L14.7583,17.582a2.23492,2.23492,0,0,1,1.5791-.64844H17.25a2.75279,2.75279,0,0,0,2.75-2.75v-4.167A2.75311,2.75311,0,0,0,17.25,7.2666Zm1.25,6.917a1.25116,1.25116,0,0,1-1.25,1.25h-.9126a3.72588,3.72588,0,0,0-2.63232,1.08008L12,18.19434l-1.70459-1.68067a3.72759,3.72759,0,0,0-2.63232-1.08008H6.75a1.25116,1.25116,0,0,1-1.25-1.25v-4.167a1.25116,1.25116,0,0,1,1.25-1.25h10.5a1.25116,1.25116,0,0,1,1.25,1.25Z" style="fill:inherit"/></svg>