<svg fill="currentColor" id="icons" xmlns="http://www.w3.org/2000/svg" viewBox="0 0 24 24"><title>05-05-webpush-check-m</title><rect id="canvas" width="24" height="24" style="fill:none"/><circle cx="5" cy="5" r="1" /><circle cx="8" cy="5" r="1" /><circle cx="11" cy="5" r="1" /><path d="M10.2959,16.51465a3.72385,3.72385,0,0,0-2.63281-1.08106H6.75a1.25116,1.25116,0,0,1-1.25-1.25v-4.167a1.25116,1.25116,0,0,1,1.25-1.25h10.5a1.25116,1.25116,0,0,1,1.25,1.25V11.75a.75.75,0,0,0,1.5,0V10.0166a2.75311,2.75311,0,0,0-2.75-2.75H6.75A2.75311,2.75311,0,0,0,4,10.0166v4.167a2.75279,2.75279,0,0,0,2.75,2.75h.91309a2.23578,2.23578,0,0,1,1.5791.64844l2.23144,2.19922a.74994.74994,0,1,0,1.05274-1.06836Z" /><path d="M19.23145,14.67773l-2.73438,2.71582-1.21973-1.16308a.75013.75013,0,0,0-1.03515,1.08594l1.748,1.667a.75012.75012,0,0,0,1.0459-.01074l3.252-3.23047a.74993.74993,0,0,0-1.05664-1.06446Z" /></svg>