<svg width="24" height="24" viewBox="0 0 24 24" fill="none" xmlns="http://www.w3.org/2000/svg">
<path d="M5.96144 18.0798C6.1028 18.0397 6.19469 18.0165 6.28492 17.9877C6.96502 17.7715 7.64326 17.549 8.32643 17.343C8.42309 17.3138 8.56326 17.3294 8.6497 17.3809C10.2271 18.3215 11.91 18.5929 13.6978 18.1801C17.0867 17.3977 19.3172 13.9683 18.6439 10.5872C17.9356 7.03025 14.5734 4.73043 10.9822 5.34603C6.30152 6.14832 3.99388 11.5258 6.65093 15.4487C6.75568 15.6033 6.76579 15.7297 6.70641 15.8985C6.4575 16.6059 6.22041 17.3176 5.96144 18.0798ZM4 20C4.1954 19.4228 4.38058 18.8766 4.5654 18.3302C4.82743 17.5559 5.09361 16.7829 5.34532 16.0053C5.37675 15.9082 5.36498 15.7666 5.3153 15.6779C2.70046 10.9996 5.30228 5.27422 10.5508 4.16729C14.8705 3.25617 19.1608 6.16507 19.8911 10.5C20.6024 14.7219 17.7531 18.7426 13.5321 19.4735C11.7804 19.7769 10.1107 19.5293 8.52716 18.7206C8.38964 18.6503 8.27291 18.6472 8.12823 18.6936C6.83336 19.1097 5.53605 19.5185 4.23948 19.9291C4.17097 19.9507 4.1018 19.9699 4 20Z" fill="currentColor"/>
<path d="M8.2998 9.99603C8.32506 9.45757 8.52367 9.00009 8.87547 8.59674C9.16722 8.26203 9.55132 8.20718 9.95062 8.23202C10.0526 8.23839 10.1869 8.36925 10.2355 8.47543C10.474 8.99543 10.6951 9.52378 10.905 10.056C10.9403 10.1456 10.9237 10.2892 10.873 10.3726C10.7467 10.5804 10.601 10.781 10.4365 10.96C10.2868 11.1231 10.2618 11.26 10.3806 11.4536C11.0136 12.4839 11.8811 13.2309 13.0092 13.6743C13.1725 13.7384 13.2963 13.7116 13.4046 13.5782C13.5922 13.3471 13.7907 13.1244 13.9671 12.8853C14.0834 12.7277 14.2196 12.6721 14.39 12.7507C14.93 12.9996 15.47 13.2496 15.9977 13.523C16.0776 13.5644 16.1332 13.7343 16.1295 13.8423C16.1027 14.6384 15.5469 15.2431 14.7628 15.4084C14.3234 15.5011 13.9156 15.4426 13.4912 15.3305C11.6452 14.8434 10.257 13.7428 9.18941 12.1915C8.83336 11.674 8.48779 11.1552 8.36463 10.5258C8.33061 10.3517 8.32081 10.1728 8.2998 9.99603Z" fill="currentColor"/>
</svg>
