<svg fill="currentColor" id="icons" xmlns="http://www.w3.org/2000/svg" viewBox="0 0 24 24"><title>02-02-wifi-m</title><rect id="canvas" width="24" height="24" style="fill:none"/><path d="M11.9989,16.81488a1.13657,1.13657,0,1,0,1.13764,1.13654A1.1275,1.1275,0,0,0,11.9989,16.81488Z"/><path d="M5.71045,11.44727a.74993.74993,0,1,0,1.01367,1.10546,7.95365,7.95365,0,0,1,10.55176,0,.74993.74993,0,1,0,1.01367-1.10546A9.482,9.482,0,0,0,5.71045,11.44727Z"/><path d="M3.38184,8.1626A.75.75,0,0,0,4.374,9.2876a11.83919,11.83919,0,0,1,15.252,0,.75.75,0,0,0,.99218-1.125A13.38049,13.38049,0,0,0,3.38184,8.1626Z"/><path d="M8.021,14.45068a.74992.74992,0,0,0,1.05761,1.06348,4.15137,4.15137,0,0,1,5.84278,0A.74992.74992,0,0,0,15.979,14.45068,5.65441,5.65441,0,0,0,8.021,14.45068Z"/></svg>