<svg fill="currentColor" id="icons" xmlns="http://www.w3.org/2000/svg" viewBox="0 0 24 24"><title>01-11-windows-m</title><rect id="canvas" width="24" height="24" style="fill:#fff;fill-opacity:0.1"/><path d="M19.34766,4.5249a2.20344,2.20344,0,0,0-1.79786-.49316L5.71387,6.03711A2.2399,2.2399,0,0,0,3.85254,8.26025v7.4795a2.2399,2.2399,0,0,0,1.86133,2.22314L17.5498,19.96826a2.20607,2.20607,0,0,0,1.79786-.49316,2.259,2.259,0,0,0,.7998-1.72949V6.25439A2.259,2.259,0,0,0,19.34766,4.5249Zm-1.54786.98535a.71885.71885,0,0,1,.58008.16016.763.763,0,0,1,.26758.584V11.25H11.27051V6.61652ZM5.96387,7.51562l3.80664-.645V11.25h-4.418V8.26025A.7451.7451,0,0,1,5.96387,7.51562Zm-.61133,8.22413V12.75h4.418v4.37933l-3.80664-.64495A.7451.7451,0,0,1,5.35254,15.73975Zm13.02734,2.58984a.73146.73146,0,0,1-.58008.16016l-6.52929-1.10627V12.75h7.37695v4.99561A.763.763,0,0,1,18.37988,18.32959Z"/></svg>