<svg fill="currentColor" id="icons" xmlns="http://www.w3.org/2000/svg" viewBox="0 0 24 24"><title>01-12-windows-fill-m</title><rect id="canvas" width="24" height="24" style="fill:#fff;fill-opacity:0.1"/><path d="M20.14746,11.25V6.25439a2.259,2.259,0,0,0-.7998-1.72949,2.20625,2.20625,0,0,0-1.79786-.49316l-6.27929,1.0639V11.25Z"/><path d="M3.85254,12.75v2.98975a2.2399,2.2399,0,0,0,1.86133,2.22314l4.05664.68732V12.75Z"/><path d="M9.77051,5.34979l-4.05664.68732A2.2399,2.2399,0,0,0,3.85254,8.26025V11.25h5.918Z"/><path d="M11.27051,18.90436l6.27929,1.0639a2.20607,2.20607,0,0,0,1.79786-.49316,2.259,2.259,0,0,0,.7998-1.72949V12.75H11.27051Z"/></svg>