<?xml version="1.0" encoding="UTF-8"?>
<svg fill="currentColor" width="24px" height="24px" viewBox="0 0 24 24" version="1.1"
    xmlns="http://www.w3.org/2000/svg" xmlns:xlink="http://www.w3.org/1999/xlink">
    <title>01 App menu / 03 Elements / 02 Icons / 11 Workspaces / 02 Inactive</title>
    <defs>
        <polygon id="path-1" points="0 0 8.2276 0 8.2276 8.3 0 8.3"></polygon>
    </defs>
    <g id="01-App-menu-/-03-Elements-/-02-Icons-/-11-Workspaces-/-02-Inactive" stroke="none"
        stroke-width="1" fill="none" fill-rule="evenodd">
        <rect id="canvas" x="-4.9999926e-08" y="-5.00000112e-08" width="24.0000001"
            height="24.0000001"></rect>
        <g id="Group-8" transform="translate(3.000000, 3.000000)">
            <path
                d="M16.5036,6.1257 C16.5026,6.5397 16.1676,6.8747 15.7536,6.8757 L12.0256,6.8757 C11.6116,6.8747 11.2766,6.5397 11.2756,6.1257 L11.2756,2.3257 C11.2766,1.9117 11.6116,1.5767 12.0256,1.5757 L15.7536,1.5757 C16.1676,1.5767 16.5026,1.9117 16.5036,2.3257 L16.5036,6.1257 Z M15.7536,0.0757 L12.0256,0.0757 C10.7836,0.0777 9.7776,1.0837 9.7756,2.3257 L9.7756,6.1257 C9.7776,7.3677 10.7836,8.3737 12.0256,8.3757 L15.7536,8.3757 C16.9956,8.3737 18.0016,7.3677 18.0036,6.1257 L18.0036,2.3257 C18.0016,1.0837 16.9956,0.0777 15.7536,0.0757 L15.7536,0.0757 Z"
                id="Fill-1" fill="currentColor"></path>
            <g id="Group-5">
                <mask id="mask-2" fill="white">
                    <use xlink:href="#path-1"></use>
                </mask>
                <g id="Clip-4"></g>
                <path
                    d="M6.7276,6.05 C6.7266,6.464 6.3916,6.799 5.9776,6.8 L2.2496,6.8 C1.8356,6.799 1.5006,6.464 1.4996,6.05 L1.4996,2.25 C1.5006,1.836 1.8356,1.501 2.2496,1.5 L5.9776,1.5 C6.3916,1.501 6.7266,1.836 6.7276,2.25 L6.7276,6.05 Z M5.9776,0 L2.2496,0 C1.0076,0.002 0.0016,1.008 -0.0004,2.25 L-0.0004,6.05 C0.0016,7.292 1.0076,8.298 2.2496,8.3 L5.9776,8.3 C7.2196,8.298 8.2256,7.292 8.2276,6.05 L8.2276,2.25 C8.2256,1.008 7.2196,0.002 5.9776,0 L5.9776,0 Z"
                    id="Fill-3" fill="currentColor" mask="url(#mask-2)"></path>
            </g>
            <path
                d="M6.7311,15.826 C6.7301,16.24 6.3951,16.575 5.9811,16.576 L2.2531,16.576 C1.8391,16.575 1.5041,16.24 1.5031,15.826 L1.5031,12.026 C1.5041,11.612 1.8391,11.277 2.2531,11.276 L5.9811,11.276 C6.3951,11.277 6.7301,11.612 6.7311,12.026 L6.7311,15.826 Z M5.9811,9.776 L2.2531,9.776 C1.0111,9.778 0.0051,10.784 0.0031,12.026 L0.0031,15.826 C0.0051,17.068 1.0111,18.074 2.2531,18.076 L5.9811,18.076 C7.2231,18.074 8.2291,17.068 8.2311,15.826 L8.2311,12.026 C8.2291,10.784 7.2231,9.778 5.9811,9.776 L5.9811,9.776 Z"
                id="Fill-6" fill="currentColor"></path>
            <path
                d="M16.7311,15.826 C16.7301,16.24 16.3951,16.575 15.9811,16.576 L12.2531,16.576 C11.8391,16.575 11.5041,16.24 11.5031,15.826 L11.5031,12.026 C11.5041,11.612 11.8391,11.277 12.2531,11.276 L15.9811,11.276 C16.3951,11.277 16.7301,11.612 16.7311,12.026 L16.7311,15.826 Z M15.9811,9.776 L12.2531,9.776 C11.0111,9.778 10.0051,10.784 10.0031,12.026 L10.0031,15.826 C10.0051,17.068 11.0111,18.074 12.2531,18.076 L15.9811,18.076 C17.2231,18.074 18.2291,17.068 18.2311,15.826 L18.2311,12.026 C18.2291,10.784 17.2231,9.778 15.9811,9.776 L15.9811,9.776 Z"
                id="Fill-6-Copy" fill="currentColor"></path>
        </g>
    </g>
</svg>