<?xml version="1.0" encoding="UTF-8"?><svg fill="currentColor" width="24px" height="24px" viewBox="0 0 24 24" version="1.1" xmlns="http://www.w3.org/2000/svg" xmlns:xlink="http://www.w3.org/1999/xlink"> <title>01 App menu / 03 Elements / 02 Icons / 11 Workspaces / 01 Active</title> <defs> <polygon id="path-1" points="0 0 8.2999 0 8.2999 8.228 0 8.228"></polygon> <polygon id="path-3" points="0 1.77635684e-15 8.2999 1.77635684e-15 8.2999 8.228 0 8.228"></polygon> </defs> <g id="01-App-menu-/-03-Elements-/-02-Icons-/-11-Workspaces-/-01-Active" stroke="none" stroke-width="1" fill="none" fill-rule="evenodd"> <g id="Group-11" transform="translate(3.000000, 3.000000)"> <path d="M18.0001,15.754 L18.0001,12.026 C17.9981,10.784 16.9921,9.778 15.7501,9.776 L11.9501,9.776 C10.7081,9.778 9.7021,10.784 9.7001,12.026 L9.7001,15.754 C9.7021,16.996 10.7081,18.002 11.9501,18.004 L15.7501,18.004 C16.9921,18.002 17.9981,16.996 18.0001,15.754" id="Fill-1" fill="#B88CEE"></path> <path d="M18.0759,5.978 L18.0759,2.25 C18.0739,1.008 17.0679,0.002 15.8259,0 L12.0259,0 C10.7839,0.002 9.7779,1.008 9.7759,2.25 L9.7759,5.978 C9.7779,7.22 10.7839,8.226 12.0259,8.228 L15.8259,8.228 C17.0679,8.226 18.0739,7.22 18.0759,5.978" id="Fill-3" fill="#6D2ED3"></path> <g id="Group-7" transform="translate(0.000000, 0.003500)"> <mask id="mask-2" fill="white"> <use xlink:href="#path-1"></use> </mask> <g id="Clip-6"></g> <path d="M8.2999,5.978 L8.2999,2.25 C8.2979,1.008 7.2919,0.002 6.0499,0 L2.2499,0 C1.0079,0.002 0.0019,1.008 -0.0001,2.25 L-0.0001,5.978 C0.0019,7.22 1.0079,8.226 2.2499,8.228 L6.0499,8.228 C7.2919,8.226 8.2979,7.22 8.2999,5.978" id="Fill-5" fill="#B88CEE" mask="url(#mask-2)"></path> </g> <g id="Group-10" transform="translate(0.000000, 9.776000)"> <mask id="mask-4" fill="white"> <use xlink:href="#path-3"></use> </mask> <g id="Clip-9"></g> <path d="M8.2999,5.978 L8.2999,2.25 C8.2979,1.008 7.2919,0.002 6.0499,1.77635684e-15 L2.2499,1.77635684e-15 C1.0079,0.002 0.0019,1.008 -0.0001,2.25 L-0.0001,5.978 C0.0019,7.22 1.0079,8.226 2.2499,8.228 L6.0499,8.228 C7.2919,8.226 8.2979,7.22 8.2999,5.978" id="Fill-8" fill="#D1ADF7" mask="url(#mask-4)"></path> </g> </g> </g></svg>