<svg fill="currentColor" id="icons" xmlns="http://www.w3.org/2000/svg" viewBox="0 0 24 24"><title>02-11-wrong-alert-m</title><rect id="canvas" width="24" height="24" style="fill:none"/><path d="M20.33887,18.043l-2.07813-3.419a1.20808,1.20808,0,0,0-1.998,0v.001l-2.07813,3.418a1.18806,1.18806,0,0,0-.02051,1.19726,1.17443,1.17443,0,0,0,1.01953.59766h4.15625a1.17443,1.17443,0,0,0,1.01954-.59766A1.18808,1.18808,0,0,0,20.33887,18.043Zm-4.57813.29492,1.501-2.46875,1.501,2.46875Z"/><path d="M11.31348,17.49316c-.32715-.00586-.6543-.0166-.98047-.03027-.97949-.04394-1.96582-.12891-2.93262-.251a.72931.72931,0,0,1-.62012-.68359,36.84619,36.84619,0,0,1,.00782-9.12891.71543.71543,0,0,1,.64746-.61523,36.95644,36.95644,0,0,1,9.166.00488.70285.70285,0,0,1,.61035.61133c.11817.94238.20118,1.89649.2461,2.835a.771.771,0,0,0,.78418.71387.74993.74993,0,0,0,.71386-.78418c-.04589-.97754-.13281-1.97168-.25585-2.95313A2.21257,2.21257,0,0,0,16.75,5.2959c-.74756-.09339-1.498-.16107-2.25-.21015V3.8252a.75.75,0,1,0-1.5,0V5.03192q-.999-.02591-2,.00037V3.8252a.75.75,0,0,0-1.5,0V5.08612c-.76221.04981-1.52478.1192-2.28711.21466A2.20181,2.20181,0,0,0,5.2998,7.21289q-.14574,1.158-.219,2.32422H3.78711a.75.75,0,0,0,0,1.5H5.03076q-.02454.99747.00379,2H3.78711a.75.75,0,0,0,0,1.5h1.3042c.04968.748.11621,1.49744.20947,2.249A2.20184,2.20184,0,0,0,7.21289,18.7002c1.00586.127,2.0332.21484,3.05371.26074.33985.01562.68067.02636,1.01953.03222h.01367a.75006.75006,0,0,0,.01368-1.5Z"/><path d="M14.76172,12.40039a.75035.75035,0,0,0,.73437-.76562,17.68614,17.68614,0,0,0-.13086-1.79493,1.39464,1.39464,0,0,0-1.22265-1.20605,17.22373,17.22373,0,0,0-4.30078.002,1.391,1.391,0,0,0-1.207,1.20606,17.34817,17.34817,0,0,0,.001,4.3164,1.391,1.391,0,0,0,1.207,1.207,17.5679,17.5679,0,0,0,1.792.13086h.01562a.75008.75008,0,0,0,.01563-1.5c-.51465-.01074-1.03711-.04687-1.55274-.10839a15.84452,15.84452,0,0,1-.001-3.77442,15.80144,15.80144,0,0,1,3.7754,0c.06152.5166.09765,1.03809.10839,1.55274A.72041.72041,0,0,0,14.76172,12.40039Z"/></svg>