<svg fill="currentColor" id="icons" xmlns="http://www.w3.org/2000/svg" viewBox="0 0 24 24"><title>01-15-wth-snow-m</title><rect id="canvas" width="24" height="24" style="fill:none"/><path d="M19.5166,15.47559l-1.39136-.80365.89624-.2403a.75022.75022,0,1,0-.38867-1.44922l-2.34442.62854L13.49933,12l2.78906-1.611,2.34442.62854a.75022.75022,0,1,0,.38867-1.44922l-.89624-.2403,1.39136-.80365a.74991.74991,0,1,0-.75-1.29882l-1.3905.80316.24011-.89594A.75022.75022,0,0,0,16.167,6.74414l-.62878,2.34613L12.75,10.70081V7.47839l1.71582-1.71667a.74992.74992,0,1,0-1.06055-1.06055L12.75,5.35675V3.75a.75.75,0,0,0-1.5,0V5.35675l-.65527-.65558A.74992.74992,0,1,0,9.53418,5.76172L11.25,7.47839v3.22242L8.46179,9.09027,7.833,6.74414a.75022.75022,0,0,0-1.44922.38867l.24011.89594L5.2334,7.22559a.74991.74991,0,1,0-.75,1.29882l1.39136.80365-.89624.2403a.75022.75022,0,0,0,.38867,1.44922L7.71161,10.389,10.50067,12,7.71161,13.611l-2.34442-.62854a.75022.75022,0,1,0-.38867,1.44922l.89624.2403-1.39136.80365a.74991.74991,0,1,0,.75,1.29882l1.3905-.80316-.24011.89594a.75022.75022,0,0,0,1.44922.38867l.62878-2.34613L11.25,13.29919v3.22242L9.53418,18.23828a.74992.74992,0,1,0,1.06055,1.06055l.65527-.65558V20.25a.75.75,0,0,0,1.5,0V18.64325l.65527.65558a.74992.74992,0,1,0,1.06055-1.06055L12.75,16.52161V13.29919l2.78821,1.61054.62878,2.34613a.75022.75022,0,0,0,1.44922-.38867l-.24011-.89594,1.3905.80316a.74991.74991,0,1,0,.75-1.29882Z"/></svg>