<svg fill="currentColor" id="icons" xmlns="http://www.w3.org/2000/svg" viewBox="0 0 24 24"><title>01-02-wth-sunrise-m</title><rect id="canvas" width="24" height="24" style="fill:none"/><path d="M12.53027,13.2124a.74972.74972,0,0,0-1.06054,0L9.0332,15.64893a.74992.74992,0,1,0,1.06055,1.06054L11.25,15.55322V20.25a.75.75,0,0,0,1.5,0V15.55322l1.15625,1.15625a.74992.74992,0,1,0,1.06055-1.06054Z"/><path d="M12,7.12744A4.8795,4.8795,0,0,0,7.125,12a.75.75,0,0,0,1.5,0,3.375,3.375,0,0,1,6.75,0,.75.75,0,0,0,1.5,0A4.8795,4.8795,0,0,0,12,7.12744Z"/><path d="M12,6.15381a.7502.7502,0,0,0,.75-.75V3.75439a.75.75,0,0,0-1.5,0V5.40381A.7502.7502,0,0,0,12,6.15381Z"/><path d="M18.36377,5.63916a.74973.74973,0,0,0-1.06055,0l-.583.583a.74992.74992,0,1,0,1.06055,1.06054l.583-.583A.74973.74973,0,0,0,18.36377,5.63916Z"/><path d="M20.25,11.25H18.6001a.75.75,0,0,0,0,1.5H20.25a.75.75,0,0,0,0-1.5Z"/><path d="M5.3999,11.25H3.75a.75.75,0,0,0,0,1.5H5.3999a.75.75,0,0,0,0-1.5Z"/><path d="M7.27979,6.22217l-.583-.583A.74992.74992,0,0,0,5.63623,6.69971l.583.583A.74992.74992,0,1,0,7.27979,6.22217Z"/></svg>