<svg fill="currentColor" id="icons" xmlns="http://www.w3.org/2000/svg" viewBox="0 0 24 24"><title>01-04-wth-cloud-m</title><rect id="canvas" width="24" height="24" style="fill:none"/><path d="M17.65582,10.49707A5.68362,5.68362,0,0,0,6.78021,8.9408,4.84957,4.84957,0,0,0,7.875,18.52051h9.0752a4.04208,4.04208,0,0,0,.70562-8.02344Zm-.70562,6.52344H7.875A3.36183,3.36183,0,0,1,7.419,10.32617a.70943.70943,0,0,0,.09851-.0343.74052.74052,0,0,0,.1549-.054,1.80722,1.80722,0,0,0,.21973-.18115.73772.73772,0,0,0,.08044-.13806.70329.70329,0,0,0,.05481-.09393,4.19846,4.19846,0,0,1,8.17286,1.35107.75019.75019,0,0,0,.75.75,2.54737,2.54737,0,1,1,0,5.09473Z"/></svg>