<svg fill="currentColor" id="icons" xmlns="http://www.w3.org/2000/svg" viewBox="0 0 24 24"><title>01-09-wth-cloud-sun-m</title><rect id="canvas" width="24" height="24" style="fill:none"/><path d="M18.35547,14.63965a4.55439,4.55439,0,0,0-8.78809-.855,3.73972,3.73972,0,0,0-.71289-.06641,3.67017,3.67017,0,0,0,0,7.34033h8.47559a3.29332,3.29332,0,0,0,1.02539-6.41894Zm-1.02539,4.91894H8.85449a2.17017,2.17017,0,0,1,0-4.34033,1.99429,1.99429,0,0,1,.90235.19776A.74963.74963,0,0,0,10.834,14.8584a3.056,3.056,0,0,1,6.0752.4082.7514.7514,0,0,0,.6543.7251,1.7918,1.7918,0,0,1-.2334,3.56689Z"/><path d="M11.09863,5.1377a.75019.75019,0,0,0,.75-.75V3.69141a.75.75,0,1,0-1.5,0V4.3877A.7502.7502,0,0,0,11.09863,5.1377Z"/><path d="M15.52832,6.97217a.74671.74671,0,0,0,.53027-.21973l.49219-.49219a.74992.74992,0,1,0-1.06055-1.06054l-.49218.49218a.75.75,0,0,0,.53027,1.28028Z"/><path d="M5.585,10.65186a.75019.75019,0,0,0-.75-.75H4.13867a.75.75,0,0,0,0,1.5H4.835A.7502.7502,0,0,0,5.585,10.65186Z"/><path d="M6.13965,6.75244A.74992.74992,0,0,0,7.2002,5.69189L6.708,5.19971A.74992.74992,0,1,0,5.64746,6.26025Z"/><path d="M7.61914,11.40186a.7502.7502,0,0,0,.75-.75A2.72969,2.72969,0,0,1,13.0293,8.72119a.74992.74992,0,1,0,1.06054-1.06055,4.22952,4.22952,0,0,0-7.2207,2.99122A.7502.7502,0,0,0,7.61914,11.40186Z"/></svg>