<svg fill="currentColor" id="icons" xmlns="http://www.w3.org/2000/svg" viewBox="0 0 24 24"><title>01-17-wth-temperature-m</title><rect id="canvas" width="24" height="24" style="fill:none"/><path d="M15.4624,11.67767V6.5a3.4626,3.4626,0,1,0-6.9248,0v5.17767a5.271,5.271,0,1,0,6.9248,0ZM12,19.5a3.83225,3.83225,0,0,1-2.25635-6.88379c.01374-.0105.0199-.02618.03272-.03741A.824.824,0,0,0,10.028,12.068c.00109-.01654.00958-.03064.00958-.04748V6.5a1.96275,1.96275,0,1,1,3.9248,0v5.52051c0,.01684.00849.03088.00958.04748a.8269.8269,0,0,0,.25165.51081c.01282.01123.019.02691.03272.03741A3.83225,3.83225,0,0,1,12,19.5Z"/><path d="M12.75,13.20947V8.333a.75.75,0,0,0-1.5,0v4.87646a2.55814,2.55814,0,1,0,1.5,0ZM12,16.75a1.0838,1.0838,0,1,1,1.05811-1.083A1.07164,1.07164,0,0,1,12,16.75Z"/></svg>