<svg fill="currentColor" id="icons" xmlns="http://www.w3.org/2000/svg" viewBox="0 0 24 24"><title>01-03-wth-sunset-m</title><rect id="canvas" width="24" height="24" style="fill:none"/><path d="M12,7.12744A4.8795,4.8795,0,0,0,7.125,12a.75.75,0,0,0,1.5,0,3.375,3.375,0,0,1,6.75,0,.75.75,0,0,0,1.5,0A4.87919,4.87919,0,0,0,12,7.12744Z"/><path d="M12,6.15381a.7502.7502,0,0,0,.75-.75V3.75439a.75.75,0,0,0-1.5,0V5.40381A.7502.7502,0,0,0,12,6.15381Z"/><path d="M18.36523,5.63965a.7509.7509,0,0,0-1.06152-.001l-.584.583A.75026.75026,0,0,0,17.78027,7.2832l.584-.583A.75061.75061,0,0,0,18.36523,5.63965Z"/><path d="M20.25,11.25H18.59961a.75.75,0,0,0,0,1.5H20.25a.75.75,0,0,0,0-1.5Z"/><path d="M5.3999,11.25H3.75a.75.75,0,0,0,0,1.5H5.3999a.75.75,0,0,0,0-1.5Z"/><path d="M7.27979,6.22217l-.583-.583A.74992.74992,0,0,0,5.63623,6.69971l.583.583A.74992.74992,0,1,0,7.27979,6.22217Z"/><path d="M16.125,15.19727H7.875a.75.75,0,0,0,0,1.5h8.25a.75.75,0,0,0,0-1.5Z"/><path d="M14.24316,18.12939H9.86523a.75.75,0,0,0,0,1.5h4.37793a.75.75,0,1,0,0-1.5Z"/></svg>