<svg fill="currentColor" id="icons" xmlns="http://www.w3.org/2000/svg" viewBox="0 0 24 24"><title>01-10-wth-cloud-night-m</title><rect id="canvas" width="24" height="24" style="fill:none"/><path d="M5.93945,6.39062h.1543V6.5459a.75.75,0,0,0,1.5,0V6.39062h.1543a.75.75,0,1,0,0-1.5h-.1543V4.73486a.75.75,0,1,0-1.5,0v.15576h-.1543a.75.75,0,1,0,0,1.5Z"/><path d="M4.79095,10.90887A.73891.73891,0,0,0,4.79089,9.509a.73883.73883,0,0,0-1.40014,0,.73891.73891,0,0,0-.00006,1.39984.73865.73865,0,0,0,1.40026,0Z"/><path d="M20.88867,10.66211a.7502.7502,0,0,0-.75-.75,3.32535,3.32535,0,0,1-3.31836-3.3252.75019.75019,0,0,0-.75-.75,4.791,4.791,0,0,0-4.61487,3.54895c-.072-.00335-.1416-.01721-.21423-.01721A4.75536,4.75536,0,0,0,6.585,13.38818a3.398,3.398,0,0,0,1.04,6.627h8.80859a3.77908,3.77908,0,0,0,3.06476-5.98774A4.82268,4.82268,0,0,0,20.88867,10.66211ZM15.40332,7.40967A4.81557,4.81557,0,0,0,19.3078,11.328a3.319,3.319,0,0,1-.91968,1.67108,3.72955,3.72955,0,0,0-1.95453-.563,3.87308,3.87308,0,0,0-.76074.07324,4.74357,4.74357,0,0,0-2.75677-2.81372A3.30537,3.30537,0,0,1,15.40332,7.40967Zm1.03027,11.10547H7.625a1.89593,1.89593,0,0,1-.24707-3.77344.75129.75129,0,0,0,.6543-.72461,3.20486,3.20486,0,0,1,6.37207-.43018.74953.74953,0,0,0,1.07715.55811,2.11006,2.11006,0,0,1,.95214-.209,2.28958,2.28958,0,0,1,0,4.5791Z"/></svg>