<svg fill="currentColor" id="icons" xmlns="http://www.w3.org/2000/svg" viewBox="0 0 24 24"><title>01-18-wth-umbrella-m</title><rect id="canvas" width="24" height="24" style="fill:none"/><path d="M18.49316,7.63281A8.49439,8.49439,0,0,0,12.75,4.86444V3.75a.75.75,0,0,0-1.5,0V4.88147A8.88611,8.88611,0,0,0,6.09521,7.127a9.26365,9.26365,0,0,0-3.08642,5.67676A.75035.75035,0,0,0,3.75,13.667h7.5v4.75a2.5835,2.5835,0,0,0,5.167,0,.75.75,0,1,0-1.5,0,1.0835,1.0835,0,0,1-2.167,0v-4.75h7.5a.75.75,0,0,0,.74219-.85547A9.31637,9.31637,0,0,0,18.49316,7.63281ZM12.15137,12.167H4.6665A7.64355,7.64355,0,0,1,7.0874,8.252a7.34354,7.34354,0,0,1,5.03906-1.91113c.01062,0,.01948-.00561.03-.006a6.95821,6.95821,0,0,1,5.24689,2.32831,7.83886,7.83886,0,0,1,1.93652,3.5039Z"/></svg>