<svg fill="currentColor" id="icons" xmlns="http://www.w3.org/2000/svg" viewBox="0 0 24 24"><title>01-12-wth-moon-stars-m</title><rect id="canvas" width="24" height="24" style="fill:none"/><path d="M20.68567,14.98071a.70624.70624,0,0,0-.01331-.10571c-.003-.00885-.01013-.01447-.01336-.02313a2.22977,2.22977,0,0,0-.15259-.24768.74929.74929,0,0,0-.10889-.08319.736.736,0,0,0-.12616-.08423c-.00952-.0044-.0155-.01282-.02527-.01685a.71333.71333,0,0,0-.11584-.02191.4933.4933,0,0,0-.29816-.008.72334.72334,0,0,0-.10992.01331A6.65346,6.65346,0,0,1,12.19971,4.19141a.71023.71023,0,0,0,.04431-.09687.72309.72309,0,0,0,.06634-.14514.72465.72465,0,0,0,.018-.15784.70553.70553,0,0,0,.012-.106c-.00079-.009-.00628-.01606-.00738-.025a.74038.74038,0,0,0-.04847-.16369.75112.75112,0,0,0-.04144-.11383.74682.74682,0,0,0-.08417-.10395.75484.75484,0,0,0-.11065-.1203c-.00568-.00439-.00824-.011-.014-.01526a.70284.70284,0,0,0-.07471-.03411.71094.71094,0,0,0-.17791-.08124.72232.72232,0,0,0-.12293-.01233.6507.6507,0,0,0-.12933-.01294c-.01642.0014-.03211.00507-.04847.00653l-.00927.00128a9.014,9.014,0,1,0,9.15405,12.447l.01074-.02148c.0055-.01318.01349-.02466.01892-.03784a.70351.70351,0,0,0,.01984-.10291.50911.50911,0,0,0,.01056-.31482ZM12.30908,19.5a7.51121,7.51121,0,0,1-2.177-14.70282,8.15392,8.15392,0,0,0,7.4314,11.46259,8.226,8.226,0,0,0,.96057-.07831A7.47654,7.47654,0,0,1,12.30908,19.5Z"/><path d="M13.37256,7.5166h.11377v.11426a.75.75,0,0,0,1.5,0V7.5166h.11426a.75.75,0,0,0,0-1.5h-.11426V5.90234a.75.75,0,0,0-1.5,0V6.0166h-.11377a.75.75,0,0,0,0,1.5Z"/><path d="M20.23633,9.52148h-.97852V8.544a.75.75,0,1,0-1.5,0v.97753h-.978a.75.75,0,0,0,0,1.5h.978V12a.75.75,0,0,0,1.5,0v-.97852h.97852a.75.75,0,0,0,0-1.5Z"/></svg>