<svg fill="currentColor" id="icons" xmlns="http://www.w3.org/2000/svg" viewBox="0 0 24 24"><title>01-05-wth-cloud-rain-m</title><rect id="canvas" width="24" height="24" style="fill:none"/><path d="M16.81445,6.36377a4.40057,4.40057,0,0,0-.94726.09961A5.31046,5.31046,0,0,0,5.6416,7.39307a3.6679,3.6679,0,0,0,1.08985,7.19677h10.083a4.17047,4.17047,0,0,0,4.21582-4.11328A4.17037,4.17037,0,0,0,16.81445,6.36377Zm0,6.72607H6.73145a2.17308,2.17308,0,0,1-.30079-4.334.74958.74958,0,0,0,.65821-.72461,3.79223,3.79223,0,0,1,7.50976-.48193.75024.75024,0,0,0,1.06836.55859,2.60925,2.60925,0,0,1,1.14746-.24414,2.669,2.669,0,0,1,2.71582,2.61279A2.66936,2.66936,0,0,1,16.81445,13.08984Z"/><path d="M7.50488,15.9292a.75068.75068,0,0,0-1.00586.33545L5.5791,18.10449a.75009.75009,0,0,0,1.3418.6709l.91992-1.83984A.7496.7496,0,0,0,7.50488,15.9292Z"/><path d="M14.86523,15.9292a.75066.75066,0,0,0-1.00585.33545l-.91993,1.83984a.75009.75009,0,0,0,1.3418.6709l.91992-1.83984A.7496.7496,0,0,0,14.86523,15.9292Z"/><path d="M11.18457,16.84912a.7518.7518,0,0,0-1.00586.33545l-.91992,1.83984a.75009.75009,0,0,0,1.3418.6709l.91992-1.83984A.74962.74962,0,0,0,11.18457,16.84912Z"/><path d="M18.085,16.84912a.75208.75208,0,0,0-1.00586.33545l-.46.91992a.75009.75009,0,0,0,1.3418.6709l.46-.91992A.74961.74961,0,0,0,18.085,16.84912Z"/></svg>