<svg fill="currentColor" id="icons" xmlns="http://www.w3.org/2000/svg" viewBox="0 0 24 24"><title>01-11-wth-moon-m</title><rect id="canvas" width="24" height="24" style="fill:none"/><path d="M20.68567,14.98071a.70624.70624,0,0,0-.01331-.10571c-.003-.00879-.01013-.01453-.01336-.02313a.92375.92375,0,0,0-.38752-.415c-.00958-.00439-.01556-.01294-.02539-.017a.71264.71264,0,0,0-.11621-.022.731.731,0,0,0-.142-.0268,23921.06239,23921.06239,0,0,0-.26575.03217A6.65346,6.65346,0,0,1,12.19971,4.19141a.71023.71023,0,0,0,.04431-.09687.72309.72309,0,0,0,.06634-.14514.72465.72465,0,0,0,.018-.15784.70553.70553,0,0,0,.012-.106c-.00079-.00891-.00628-.016-.00738-.02484a.73977.73977,0,0,0-.05024-.16864.762.762,0,0,0-.03924-.10785.74878.74878,0,0,0-.0907-.1117.7615.7615,0,0,0-.10364-.11267c-.006-.0047-.00872-.01178-.015-.0163a.71169.71169,0,0,0-.0799-.03649.71266.71266,0,0,0-.17242-.07874.72623.72623,0,0,0-.12384-.01245.654.654,0,0,0-.12872-.01294c-.01642.0014-.03217.005-.04853.00653l-.00952.00128a9.014,9.014,0,1,0,9.15436,12.447l.01074-.02148c.0055-.01318.01349-.02466.01892-.03784a.70351.70351,0,0,0,.01984-.10291.50911.50911,0,0,0,.01056-.31482ZM12.30908,19.5a7.51121,7.51121,0,0,1-2.177-14.70282,8.15392,8.15392,0,0,0,7.4314,11.46259,8.226,8.226,0,0,0,.96057-.07831A7.47654,7.47654,0,0,1,12.30908,19.5Z"/></svg>