<svg fill="currentColor" id="icons" xmlns="http://www.w3.org/2000/svg" viewBox="0 0 24 24"><title>01-07-wth-cloud-rain-snow-m</title><rect id="canvas" width="24" height="24" style="fill:none"/><path d="M16.81445,6.36377a4.39925,4.39925,0,0,0-.94677.09961A5.31078,5.31078,0,0,0,5.6416,7.39307,3.668,3.668,0,0,0,6.731,14.58984H16.81445a4.17,4.17,0,0,0,4.21534-4.11328A4.17,4.17,0,0,0,16.81445,6.36377Zm0,6.72607H6.731a2.17306,2.17306,0,0,1-.29981-4.334.74943.74943,0,0,0,.65723-.72412,3.793,3.793,0,0,1,7.51123-.48242.74964.74964,0,0,0,1.06787.55859,2.607,2.607,0,0,1,1.147-.24414,2.66853,2.66853,0,0,1,2.71534,2.61279A2.66894,2.66894,0,0,1,16.81445,13.08984Z"/><circle cx="7" cy="17" r="0.75"/><circle cx="15" cy="17" r="0.75"/><circle cx="13" cy="19" r="0.75"/><path d="M17.86523,16.48779l-1.8706,2a.75.75,0,1,0,1.0957,1.02442l1.87061-2a.75.75,0,0,0-1.09571-1.02442Z"/><path d="M10.2793,16.48779l-1.87061,2a.75.75,0,1,0,1.0957,1.02442l1.87061-2a.75.75,0,0,0-1.0957-1.02442Z"/></svg>