<svg fill="currentColor" id="icons" xmlns="http://www.w3.org/2000/svg" viewBox="0 0 24 24"><title>01-16-wth-wind-m</title><rect id="canvas" width="24" height="24" style="fill:none"/><path d="M5.56006,11.87012h4.54248c.02008,0,.03693-.00989.05664-.01142.01971.00153.03656.01142.05664.01142a3.51026,3.51026,0,0,0,2.48193-5.99219,3.593,3.593,0,0,0-4.96386,0A.74992.74992,0,0,0,8.79443,6.93848a2.05577,2.05577,0,0,1,2.84278,0,2.01026,2.01026,0,0,1-1.42139,3.43164c-.02008,0-.03693.00988-.05664.01141-.01971-.00153-.03656-.01141-.05664-.01141H5.56006a.75.75,0,0,0,0,1.5Z"/><path d="M11.74249,14.05469c-.00854-.00031-.01562-.00489-.02423-.00489H3.72021a.75.75,0,0,0,0,1.5h7.97217a1.5503,1.5503,0,0,1,1.09571,2.64649,1.58631,1.58631,0,0,1-2.1919,0,.74992.74992,0,0,0-1.06055,1.06055,3.0501,3.0501,0,1,0,2.20685-5.20215Z"/><path d="M16.06982,8.75a.74992.74992,0,0,0,1.06055,1.06055A1.40575,1.40575,0,1,1,18.12451,12.21H14.75977a.75.75,0,0,0,0,1.5h3.43994a.697.697,0,0,0,.07019-.01416,2.87726,2.87726,0,0,0,1.9093-.83642A2.90577,2.90577,0,0,0,16.06982,8.75Z"/></svg>