<svg fill="currentColor" id="icons" xmlns="http://www.w3.org/2000/svg" viewBox="0 0 24 24"><title>01-14-wth-stars-m</title><rect id="canvas" width="24" height="24" style="fill:none"/><path d="M20.34277,14.752a3.60678,3.60678,0,0,1-3.60254-3.60254c0-.009-.00482-.01648-.00512-.02539.00018-.01733.00512-.03338.00512-.05078a.75.75,0,0,0-1.5,0A3.683,3.683,0,0,1,11.56152,14.752a.75.75,0,0,0,0,1.5c.0174,0,.03345-.00494.05078-.00512.00892.0003.01636.00512.0254.00512a3.60677,3.60677,0,0,1,3.60253,3.60254.75.75,0,0,0,1.5,0A3.60678,3.60678,0,0,1,20.34277,16.252a.75.75,0,0,0,0-1.5Zm-4.35254,2.4773a5.10859,5.10859,0,0,0-1.7561-1.743,5.186,5.186,0,0,0,1.74042-1.74042,5.10867,5.10867,0,0,0,1.743,1.7561A5.111,5.111,0,0,0,15.99023,17.22925Z"/><path d="M8.292,17.73926H7.18848V16.63477a.75.75,0,0,0-1.5,0v1.10449H4.584a.75.75,0,0,0,0,1.5h1.1045v1.10351a.75.75,0,0,0,1.5,0V19.23926H8.292a.75.75,0,0,0,0-1.5Z"/><path d="M14.78125,6.26074h1.10352V7.36523a.75.75,0,0,0,1.5,0V6.26074h1.10449a.75.75,0,0,0,0-1.5H17.38477V3.65723a.75.75,0,0,0-1.5,0V4.76074H14.78125a.75.75,0,0,0,0,1.5Z"/><path d="M10.14648,8.001A2.49315,2.49315,0,0,1,7.65625,5.51074a.75.75,0,0,0-1.5,0A2.49232,2.49232,0,0,1,3.667,8.001a.75.75,0,0,0,0,1.5,2.49148,2.49148,0,0,1,2.48926,2.48925.75.75,0,0,0,1.5,0A2.49231,2.49231,0,0,1,10.14648,9.501a.75.75,0,0,0,0-1.5ZM6.90631,9.67963a4.01339,4.01339,0,0,0-.92871-.92871,4.01531,4.01531,0,0,0,.92871-.92884,4.01719,4.01719,0,0,0,.92883.92884A4.01527,4.01527,0,0,0,6.90631,9.67963Z"/></svg>