<svg fill="currentColor" id="icons" xmlns="http://www.w3.org/2000/svg" viewBox="0 0 24 24"><title>01-13-wth-moon-full-m</title><rect id="canvas" width="24" height="24" style="fill:none"/><path d="M12,3.0625A8.93772,8.93772,0,1,0,21,12,8.97948,8.97948,0,0,0,12,3.0625ZM4.5,12a7.48923,7.48923,0,0,1,9.12445-7.25677,8.82737,8.82737,0,0,0-1.329,1.08294,8.68592,8.68592,0,0,0,0,12.34766,8.79531,8.79531,0,0,0,1.329,1.083A7.48947,7.48947,0,0,1,4.5,12Zm10.99622,6.57471a7.24208,7.24208,0,0,1-2.14368-1.46533,7.18528,7.18528,0,0,1,0-10.21876l.00146-.00219a7.253,7.253,0,0,1,2.142-1.4632,7.40011,7.40011,0,0,1,.00019,13.14948Z"/></svg>