<svg fill="currentColor" id="icons" xmlns="http://www.w3.org/2000/svg" viewBox="0 0 24 24"><title>01-01-wth-sun-m</title><rect id="canvas" width="24" height="24" style="fill:none"/><path d="M12,7.12744A4.87256,4.87256,0,1,0,16.875,12,4.8795,4.8795,0,0,0,12,7.12744Zm0,8.24512A3.37256,3.37256,0,1,1,15.375,12,3.37755,3.37755,0,0,1,12,15.37256Z"/><path d="M12,6.15381a.7502.7502,0,0,0,.75-.75V3.75439a.75.75,0,0,0-1.5,0V5.40381A.7502.7502,0,0,0,12,6.15381Z"/><path d="M12,17.84619a.7502.7502,0,0,0-.75.75v1.64942a.75.75,0,0,0,1.5,0V18.59619A.7502.7502,0,0,0,12,17.84619Z"/><path d="M17.25049,7.50244a.74754.74754,0,0,0,.53027-.21973l.583-.583a.74992.74992,0,0,0-1.06055-1.06055l-.583.583a.75.75,0,0,0,.53028,1.28027Z"/><path d="M6.21924,16.71729l-.583.583a.74992.74992,0,1,0,1.06055,1.06055l.583-.583a.74992.74992,0,1,0-1.06055-1.06054Z"/><path d="M20.25,11.25H18.6001a.75.75,0,0,0,0,1.5H20.25a.75.75,0,0,0,0-1.5Z"/><path d="M6.1499,12a.7502.7502,0,0,0-.75-.75H3.75a.75.75,0,0,0,0,1.5H5.3999A.7502.7502,0,0,0,6.1499,12Z"/><path d="M17.78076,16.71729a.74992.74992,0,0,0-1.06055,1.06054l.583.583a.74992.74992,0,0,0,1.06055-1.06055Z"/><path d="M6.21924,7.28271A.74992.74992,0,1,0,7.27979,6.22217l-.583-.583A.74992.74992,0,0,0,5.63623,6.69971Z"/></svg>