<svg fill="currentColor" id="icons" xmlns="http://www.w3.org/2000/svg" viewBox="0 0 24 24"><title>01-06-wth-cloud-rain-thunder-m</title><rect id="canvas" width="24" height="24" style="fill:none"/><path d="M13.92883,18.14441a.73979.73979,0,0,0-.0318-.15759,1.80162,1.80162,0,0,0-.15008-.24268.73555.73555,0,0,0-.1247-.09741.70291.70291,0,0,0-.08661-.06763c-.00738-.00366-.01544-.00275-.02282-.00616a2.34173,2.34173,0,0,0-.2887-.06812c-.00842-.0003-.01544-.00482-.02392-.00482H12.01343l.45727-.91455a.75008.75008,0,1,0-1.34179-.6709l-1,2c-.00367.00739-.00275.01544-.00617.02289a2.28263,2.28263,0,0,0-.0683.28973c-.00024.00806-.00464.01471-.00464.02283a.70492.70492,0,0,0,.02137.10559.73979.73979,0,0,0,.0318.15759,1.80162,1.80162,0,0,0,.15008.24268.73555.73555,0,0,0,.1247.09741.70291.70291,0,0,0,.08661.06763c.00677.00336.01428.00183.02111.005a.73889.73889,0,0,0,.311.07343L10.79932,19l.0003-.00006L10.7998,19h1.18677l-.45727.91455a.75008.75008,0,0,0,1.34179.6709l1-2c.00367-.00739.00275-.01544.00617-.02289a2.28263,2.28263,0,0,0,.0683-.28973c.00024-.00806.00464-.01471.00464-.02283A.70492.70492,0,0,0,13.92883,18.14441Z"/><path d="M18.33545,15.5791a.75124.75124,0,0,0-1.00635.33545l-1.5,3a.75009.75009,0,0,0,1.3418.6709l1.5-3A.75026.75026,0,0,0,18.33545,15.5791Z"/><path d="M7.83545,15.5791a.75124.75124,0,0,0-1.00635.33545l-1.5,3a.75009.75009,0,0,0,1.3418.6709l1.5-3A.75026.75026,0,0,0,7.83545,15.5791Z"/><path d="M16.81445,6.36377a4.39925,4.39925,0,0,0-.94677.09961A5.31078,5.31078,0,0,0,5.6416,7.39307,3.668,3.668,0,0,0,6.731,14.58984H16.81445a4.17,4.17,0,0,0,4.21534-4.11328A4.17,4.17,0,0,0,16.81445,6.36377Zm0,6.72607H6.731a2.17306,2.17306,0,0,1-.29981-4.334.74943.74943,0,0,0,.65723-.72412,3.793,3.793,0,0,1,7.51123-.48242.74964.74964,0,0,0,1.06787.55859,2.607,2.607,0,0,1,1.147-.24414,2.66853,2.66853,0,0,1,2.71534,2.61279A2.66894,2.66894,0,0,1,16.81445,13.08984Z"/></svg>