<svg fill="currentColor" id="icons" xmlns="http://www.w3.org/2000/svg" viewBox="0 0 24 24"><title>01-08-wth-cloud-snow-m</title><rect id="canvas" width="24" height="24" style="fill:none"/><path d="M16.81445,6.36377a4.40057,4.40057,0,0,0-.94726.09961A5.31046,5.31046,0,0,0,5.6416,7.39307,3.668,3.668,0,0,0,6.731,14.58984H16.81445a4.17047,4.17047,0,0,0,4.21582-4.11328A4.17037,4.17037,0,0,0,16.81445,6.36377Zm0,6.72607H6.731a2.17306,2.17306,0,0,1-.29981-4.334.74943.74943,0,0,0,.65723-.72412,3.79249,3.79249,0,0,1,7.51025-.48242.75024.75024,0,0,0,1.06836.55859,2.60925,2.60925,0,0,1,1.14746-.24414,2.669,2.669,0,0,1,2.71582,2.61279A2.66936,2.66936,0,0,1,16.81445,13.08984Z"/><circle cx="7" cy="17" r="0.75"/><circle cx="15" cy="17" r="0.75"/><circle cx="13" cy="19" r="0.75"/><circle cx="10.60748" cy="17" r="0.75"/><circle cx="8.60748" cy="19" r="0.75"/><circle cx="17.25" cy="19" r="0.75"/></svg>