<svg fill="currentColor" id="icons" xmlns="http://www.w3.org/2000/svg" viewBox="0 0 24 24"><title>03-04-yen-m</title><rect id="canvas" width="24" height="24" style="fill:none"/><path d="M11.25,19.25a.75.75,0,0,0,1.5,0V16.727h4.71973a.75.75,0,0,0,0-1.5H12.75V12.292h5.34766a.75.75,0,0,0,0-1.5H13.9964l4.67548-5.55908a.75029.75029,0,0,0-1.14844-.96582l-5.4878,6.5249h-.07122L6.47705,4.26709a.75029.75029,0,0,0-1.14844.96582L10.00372,10.792H5.90283a.75.75,0,0,0,0,1.5H11.25v2.93506H6.53027a.75.75,0,1,0,0,1.5H11.25Z"/></svg>