<svg fill="currentColor" id="icons" xmlns="http://www.w3.org/2000/svg" viewBox="0 0 24 24"><title>03-09-yen-circle-m</title><rect id="canvas" width="24" height="24" style="fill:none"/><path d="M12,4a8,8,0,1,0,8,8A8.00917,8.00917,0,0,0,12,4Zm0,14.5A6.5,6.5,0,1,1,18.5,12,6.50753,6.50753,0,0,1,12,18.5Z"/><path d="M15.41455,11.4834H13.82709l2.16168-2.57031a.75029.75029,0,1,0-1.14844-.96582L12,11.32452,9.15967,7.94727a.75029.75029,0,0,0-1.14844.96582l2.16168,2.57031H8.58545a.75.75,0,1,0,0,1.5H11.25v.98389H8.937a.75.75,0,0,0,0,1.5H11.25V16.5498a.75.75,0,0,0,1.5,0V15.46729h2.313a.75.75,0,0,0,0-1.5H12.75V12.9834h2.66455a.75.75,0,1,0,0-1.5Z"/></svg>