<svg fill="currentColor" id="icons" xmlns="http://www.w3.org/2000/svg" viewBox="0 0 24 24"><title>01-18-youtube-m</title><rect id="canvas" width="24" height="24" style="fill:#fff;fill-opacity:0.1"/><path d="M12,19.36914a40.69565,40.69565,0,0,1-6.666-.42773,2.99355,2.99355,0,0,1-1.9707-2.21973A28.39379,28.39379,0,0,1,3,12a28.40829,28.40829,0,0,1,.36328-4.72217A2.99363,2.99363,0,0,1,5.334,5.05811,40.84367,40.84367,0,0,1,12,4.63135a40.82514,40.82514,0,0,1,6.666.42676,2.99515,2.99515,0,0,1,1.9707,2.21972A28.40829,28.40829,0,0,1,21,12a28.39379,28.39379,0,0,1-.36328,4.72168,2.9912,2.9912,0,0,1-1.9707,2.21973A40.67722,40.67722,0,0,1,12,19.36914ZM12,6.13135a39.17466,39.17466,0,0,0-6.22656.36133,1.492,1.492,0,0,0-.94922,1.12695A27.64778,27.64778,0,0,0,4.5,12a27.66646,27.66646,0,0,0,.32422,4.38184,1.49258,1.49258,0,0,0,.95019,1.126A39.21183,39.21183,0,0,0,12,17.86914a39.21733,39.21733,0,0,0,6.22656-.36133,1.49355,1.49355,0,0,0,.94922-1.12793A27.63251,27.63251,0,0,0,19.5,12a27.66476,27.66476,0,0,0-.32422-4.38135h0a1.49416,1.49416,0,0,0-.95019-1.12646A39.20561,39.20561,0,0,0,12,6.13135Z"/><path d="M10.43164,15.29688a1.25372,1.25372,0,0,1-1.25-1.252V9.95459A1.2499,1.2499,0,0,1,11.04688,8.8667l3.6123,2.04541a1.251,1.251,0,0,1,.001,2.17578l-3.61328,2.04492h0A1.24665,1.24665,0,0,1,10.43164,15.29688Zm.24609-.81641h0Zm.00391-4.09668v3.23242L13.53613,12Z"/></svg>