<svg fill="currentColor" id="icons" xmlns="http://www.w3.org/2000/svg" viewBox="0 0 24 24"><title>01-19-youtube-fill-m</title><rect id="canvas" width="24" height="24" style="fill:#fff;fill-opacity:0.1"/><path d="M20.63672,7.27832A2.99116,2.99116,0,0,0,18.6665,5.05859,40.68568,40.68568,0,0,0,12,4.63086a40.69565,40.69565,0,0,0-6.666.42773,2.993,2.993,0,0,0-1.9707,2.21973A28.39693,28.39693,0,0,0,3,12a28.39693,28.39693,0,0,0,.36328,4.72168A2.99116,2.99116,0,0,0,5.3335,18.94141,40.70412,40.70412,0,0,0,12,19.36914a40.67722,40.67722,0,0,0,6.666-.42773,2.993,2.993,0,0,0,1.9707-2.21973A28.39693,28.39693,0,0,0,21,12,28.39693,28.39693,0,0,0,20.63672,7.27832Zm-6.34693,5.15674-3.612,2.04529a.5.5,0,0,1-.7464-.43512V9.95471a.5.5,0,0,1,.7464-.43506l3.612,2.04523A.5.5,0,0,1,14.28979,12.43506Z"/></svg>